<?xml version="1.0" encoding="UTF-8" standalone="no"?>
<!-- Svg Vector Icons : http://www.onlinewebfonts.com/icon -->

<svg
   version="1.1"
   x="0px"
   y="0px"
   viewBox="0 0 50 50"
   enable-background="new 0 0 256 256"
   xml:space="preserve"
   id="svg3"
   sodipodi:docname="star_filled.svg"
   width="50"
   height="50"
   inkscape:version="1.3.2 (091e20e, 2023-11-25, custom)"
   xmlns:inkscape="http://www.inkscape.org/namespaces/inkscape"
   xmlns:sodipodi="http://sodipodi.sourceforge.net/DTD/sodipodi-0.dtd"
   xmlns="http://www.w3.org/2000/svg"
   xmlns:svg="http://www.w3.org/2000/svg"><defs
   id="defs3" /><sodipodi:namedview
   id="namedview3"
   pagecolor="#ffffff"
   bordercolor="#000000"
   borderopacity="0.25"
   inkscape:showpageshadow="2"
   inkscape:pageopacity="0.0"
   inkscape:pagecheckerboard="true"
   inkscape:deskcolor="#d1d1d1"
   inkscape:zoom="20.097301"
   inkscape:cx="29.00887"
   inkscape:cy="30.22794"
   inkscape:window-width="3840"
   inkscape:window-height="2054"
   inkscape:window-x="-11"
   inkscape:window-y="-11"
   inkscape:window-maximized="1"
   inkscape:current-layer="svg3" />
<metadata
   id="metadata1"> Svg Vector Icons : http://www.onlinewebfonts.com/icon </metadata>
<path
   fill="#000000"
   d="M 24.405855,5.1355928 C 24.084072,5.2711857 23.71148,5.6440662 23.6268,5.8983029 c -0.01694,0.084746 -0.863734,2.9830437 -1.879893,6.4745611 -1.016158,3.474568 -1.930701,6.627102 -2.032317,6.966085 l -0.203231,0.644066 h -6.68971 c -6.6558383,0 -6.6897102,0 -7.0453657,0.169491 -0.8637347,0.423728 -1.0500304,1.627115 -0.3387195,2.271181 0.1185519,0.101695 2.6081401,1.898301 5.5380642,3.966092 l 5.334831,3.762704 -0.355655,1.084743 c -0.186296,0.593218 -1.168582,3.576262 -2.184741,6.644052 -0.999222,3.05084 -1.829085,5.610156 -1.829085,5.661003 0,0.05085 0.03387,0.237287 0.08468,0.38983 0.220168,0.813557 1.168582,1.288132 1.913765,0.966099 0.135488,-0.0678 2.658948,-1.813555 5.605807,-3.881347 2.929924,-2.067792 5.402576,-3.762703 5.453384,-3.779652 0.06774,0 2.52346,1.694912 5.47032,3.745754 2.94686,2.067792 5.47032,3.81355 5.622743,3.881346 0.457272,0.237288 1.185519,0.135593 1.591982,-0.237287 0.237104,-0.203389 0.440335,-0.694913 0.440335,-1.016947 0,-0.203389 -0.592759,-2.033893 -1.575045,-4.94914 -0.863735,-2.559316 -1.862957,-5.508462 -2.218613,-6.576256 l -0.643567,-1.932198 5.317896,-3.762704 C 41.934589,24.321988 44.424177,22.55928 44.525793,22.457586 44.762896,22.237247 45,21.728774 45,21.406741 45,20.999962 44.712088,20.491488 44.356433,20.237252 l -0.321784,-0.20339 -6.791325,-0.0339 -6.791326,-0.0339 -1.981509,-6.796593 C 27.369651,9.4237182 26.455108,6.2372851 26.4043,6.0847431 26.23494,5.4915242 25.608309,4.9999999 24.998614,4.9999999 c -0.152424,0 -0.423399,0.067797 -0.592759,0.1355929 z"
   id="path1"
   style="fill:#ffffff;fill-opacity:1;stroke-width:0.169425" />
</svg>
