<?xml version="1.0" encoding="UTF-8" standalone="no"?>
<!-- Svg Vector Icons : http://www.onlinewebfonts.com/icon -->

<svg
   version="1.1"
   x="0px"
   y="0px"
   viewBox="0 0 49.999998 50.000002"
   enable-background="new 0 0 256 256"
   xml:space="preserve"
   id="svg5"
   sodipodi:docname="Advanced.svg"
   width="50"
   height="50"
   inkscape:version="1.3.2 (091e20e, 2023-11-25, custom)"
   xmlns:inkscape="http://www.inkscape.org/namespaces/inkscape"
   xmlns:sodipodi="http://sodipodi.sourceforge.net/DTD/sodipodi-0.dtd"
   xmlns="http://www.w3.org/2000/svg"
   xmlns:svg="http://www.w3.org/2000/svg"><defs
   id="defs5" /><sodipodi:namedview
   id="namedview5"
   pagecolor="#ffffff"
   bordercolor="#000000"
   borderopacity="0.25"
   inkscape:showpageshadow="2"
   inkscape:pageopacity="0.0"
   inkscape:pagecheckerboard="true"
   inkscape:deskcolor="#d1d1d1"
   inkscape:zoom="12.703125"
   inkscape:cx="32.669127"
   inkscape:cy="45.933579"
   inkscape:window-width="1920"
   inkscape:window-height="1009"
   inkscape:window-x="-8"
   inkscape:window-y="-8"
   inkscape:window-maximized="1"
   inkscape:current-layer="g5" />
<metadata
   id="metadata1"> Svg Vector Icons : http://www.onlinewebfonts.com/icon </metadata>
<g
   id="g5"
   transform="rotate(-0.87490912,-560.04604,754.34225)"
   inkscape:label="g1"><path
     fill="#000000"
     d="m 98.5,90.1 c -3.3,1.3 -7.1,5 -8.8,8.4 -1.1,2.2 -1.3,3.3 -1.3,7.2 0,4 0.2,5 1.4,7.2 1.6,3.2 5.3,6.7 8.5,8.1 3.7,1.7 9.8,1.5 13.5,-0.3 3.4,-1.6 6.8,-5.1 8.3,-8.5 1.7,-3.6 1.6,-9.7 -0.2,-13.5 -1.7,-3.5 -4.6,-6.6 -7.9,-8.2 -3.6,-1.6 -9.8,-1.8 -13.5,-0.4 z"
     id="path3"
     style="fill:#ffffff;fill-opacity:1"
     transform="matrix(0.23623632,-4.8996715e-5,-4.8995715e-5,0.2394441,8.7478843,6.5714148)" /><path
     fill="#000000"
     d="m 94.7,39.9 c 0,0.1 -0.4,3.1 -0.9,6.8 l -0.8,6.7 -4.3,1.4 c -2.4,0.8 -6.1,2.3 -8.4,3.4 L 76.2,60.3 71,56.2 c -2.9,-2.3 -5.3,-4.1 -5.5,-4.1 -0.2,0 -3.4,3.2 -7.3,7 l -7,7.1 3.9,4.9 c 2.2,2.7 4,5.2 4.2,5.5 0.2,0.4 -0.6,2.2 -1.5,4.1 -1,1.9 -2.5,5.5 -3.4,8.1 -1.7,5.3 -0.9,4.8 -10.3,6.1 l -4.9,0.6 v 10 10 l 6.6,0.9 c 3.6,0.5 6.7,0.9 6.9,1.1 0.2,0.2 0.9,2.3 1.8,4.8 0.8,2.5 2.3,6.1 3.3,8 1,1.9 1.7,3.7 1.5,4.1 -0.2,0.4 -2.1,2.9 -4.2,5.5 l -3.9,4.9 7.1,7.1 7.1,7.1 5.4,-4.2 5.4,-4.2 5.3,2.6 c 2.9,1.4 6.7,2.9 8.5,3.4 l 3.1,0.8 0.6,6 c 0.4,3.3 0.7,6.4 0.9,6.8 0.3,0.8 1.2,0.9 10.2,0.9 h 9.9 l 0.3,-1.7 c 0.2,-0.9 0.6,-4 0.9,-6.8 l 0.6,-5.2 3.7,-1.1 c 2.1,-0.6 5.9,-2.1 8.4,-3.4 l 4.7,-2.4 5.3,4.1 c 2.9,2.3 5.3,4.2 5.5,4.2 0.2,0 3.4,-3.2 7.3,-7.1 l 7,-7 -4.3,-5.4 -4.3,-5.4 1.4,-2.6 c 1.8,-3.2 4.4,-9.8 4.9,-12.2 0.4,-2.1 0.1,-2 8.9,-3 l 5.2,-0.6 V 105.4 95.3 l -5,-0.6 c -9.5,-1.2 -8.6,-0.7 -9.5,-4.6 -0.5,-1.9 -2,-5.6 -3.3,-8.4 l -2.5,-4.9 4.2,-5.3 4.3,-5.3 -7,-7.1 c -3.9,-3.9 -7.1,-7 -7.3,-7 -0.2,0 -2.6,1.8 -5.5,4.1 l -5.2,4.1 -5.1,-2.5 c -2.8,-1.4 -6.6,-2.9 -8.4,-3.4 L 116.6,53.5 116,48 c -0.4,-3 -0.7,-6.1 -0.9,-6.9 l -0.3,-1.4 h -10 c -5.5,0.1 -10,0.1 -10.1,0.2 z m 19.7,31.8 c 14.9,4.2 25.6,18.3 25.6,33.9 0,10.1 -5.3,21.2 -13.2,27.4 -6.3,5 -13.8,7.5 -22.2,7.5 -10.7,0 -20.5,-4.7 -27.3,-13.1 -11.4,-14.2 -9.8,-35.3 3.6,-47.7 9,-8.4 21.5,-11.4 33.5,-8 z"
     id="path2"
     style="fill:#ffffff;fill-opacity:1"
     transform="matrix(0.23623632,-4.8996715e-5,-4.8995715e-5,0.2394441,8.7478843,6.5714148)" /><path
     fill="#000000"
     d="m 91.7,10.9 c -34.2,5.2 -62.5,27.7 -75.1,59.7 -7.1,17.9 -8.6,39.7 -4,58.1 7.7,30.1 29.2,54.8 57.8,66.1 25.9,10.3 54.7,8.7 79.5,-4.2 l 7.2,-3.7 2.59087,2.30328 c 32.9,32.7 30.8,31.1 40,31.1 5.1,0 6,-0.2 8.6,-1.4 4.1,-2 8.2,-6 10.3,-10.1 1.5,-3.2 1.6,-3.7 1.6,-9 0,-9.3 1.6,-7.2 -31.2,-40.1 L 186.4,157.2 l 1.1,-1.6 c 1.7,-2.4 7,-13.7 8.7,-18.6 7.4,-21.3 6.8,-46.1 -1.7,-66.9 C 189.4,57.6 183.4,48.5 173.6,38.5 158.9,23.6 140.2,14.1 119.3,11 112.6,9.8 98.4,9.8 91.7,10.9 Z m 31.1,20.8 c 29.8,7.5 50.8,29.1 57.3,58.7 1.6,7.4 1.6,22.8 0,30.3 -3.9,18 -13.7,33.8 -27.6,44.5 -7.1,5.5 -13.8,9.2 -22,12.1 -8.8,3.1 -13.9,3.9 -25,3.9 -10.8,-0.1 -15.6,-0.7 -23.8,-3.5 -21.7,-7.3 -39.6,-24.7 -47.2,-46 -3,-8.3 -4,-13.5 -4.3,-23.2 -0.3,-9.9 0.2,-14.4 2.2,-22.5 6.6,-25.2 27,-46.1 52,-53.2 8.5,-2.4 11.9,-2.8 22.9,-2.6 9,0.2 11,0.4 15.5,1.5 z"
     id="path1"
     sodipodi:nodetypes="cccccccsccsccccccccccccccccccccc"
     style="fill:#ffffff;fill-opacity:1"
     transform="matrix(0.23623632,-4.8996715e-5,-4.8995715e-5,0.2394441,8.7478843,6.5714148)" /></g>
</svg>
