<?xml version="1.0" encoding="UTF-8" standalone="no"?>
<!-- Generator: Adobe Illustrator 16.0.0, SVG Export Plug-In . SVG Version: 6.00 Build 0)  -->

<svg
   version="1.1"
   id="Layer_1"
   x="0px"
   y="0px"
   width="50"
   height="50"
   viewBox="0 0 50 50"
   enable-background="new 0 0 512 512"
   xml:space="preserve"
   sodipodi:docname="Brightnessctl.svg"
   inkscape:version="1.3.2 (091e20e, 2023-11-25, custom)"
   xmlns:inkscape="http://www.inkscape.org/namespaces/inkscape"
   xmlns:sodipodi="http://sodipodi.sourceforge.net/DTD/sodipodi-0.dtd"
   xmlns="http://www.w3.org/2000/svg"
   xmlns:svg="http://www.w3.org/2000/svg"><defs
   id="defs1" /><sodipodi:namedview
   id="namedview1"
   pagecolor="#ffffff"
   bordercolor="#000000"
   borderopacity="0.25"
   inkscape:showpageshadow="2"
   inkscape:pageopacity="0.0"
   inkscape:pagecheckerboard="true"
   inkscape:deskcolor="#d1d1d1"
   inkscape:zoom="12.703125"
   inkscape:cx="31.330874"
   inkscape:cy="30.661747"
   inkscape:window-width="1920"
   inkscape:window-height="1009"
   inkscape:window-x="-8"
   inkscape:window-y="-8"
   inkscape:window-maximized="1"
   inkscape:current-layer="Layer_1" />
<path
   fill-rule="evenodd"
   clip-rule="evenodd"
   fill="#010101"
   d="M 46.832359,0.048733 H 3.1676415 c -1.7238792,0 -3.1189085,1.3964913 -3.1189085,3.1189084 V 35.91618 c 0,1.723976 1.3950293,3.118907 3.1189085,3.118907 H 46.832359 c 1.723977,0 3.118908,-1.395029 3.118908,-3.118907 V 3.1676414 c 0,-1.7224171 -1.394931,-3.1189084 -3.118908,-3.1189084 z m 0,28.070176 c 0,1.723976 -1.39503,3.118907 -3.118909,3.118907 H 6.2865498 c -1.7239766,0 -3.1189083,-1.395029 -3.1189083,-3.118907 V 6.2865498 c 0,-1.7239766 1.3950291,-3.1189084 3.1189083,-3.1189084 H 43.71345 c 1.723977,0 3.118909,1.3950293 3.118909,3.1189084 z m -18.71345,13.840155 c 0.858966,0 1.559454,0.700586 1.559454,1.559454 v 0.194932 c 0,0.858967 0.560428,1.979825 1.24883,2.494543 l 3.740253,2.808284 c 0.688305,0.514718 0.548246,0.93499 -0.310721,0.93499 h -18.71345 c -0.858967,0 -0.999026,-0.42037 -0.310721,-0.935087 l 3.740253,-2.808286 c 0.688402,-0.514619 1.24883,-1.635477 1.24883,-2.494444 v -0.194932 c 0,-0.858967 0.700585,-1.559454 1.559454,-1.559454 z"
   id="path1"
   style="fill:#ffffff;fill-opacity:1;stroke:#000000;stroke-width:0.097466;stroke-opacity:0"
   inkscape:label="path1"
   sodipodi:nodetypes="sssssssssssssssssssssccssccssss" />
</svg>
