<?xml version="1.0" encoding="UTF-8" standalone="no"?>
<!-- Svg Vector Icons : http://www.onlinewebfonts.com/icon -->

<svg
   version="1.1"
   x="0px"
   y="0px"
   viewBox="0 0 50.000001 50.000001"
   enable-background="new 0 0 256 256"
   xml:space="preserve"
   id="svg4"
   sodipodi:docname="Controller.svg"
   width="50"
   height="50"
   inkscape:version="1.3.2 (091e20e, 2023-11-25, custom)"
   xmlns:inkscape="http://www.inkscape.org/namespaces/inkscape"
   xmlns:sodipodi="http://sodipodi.sourceforge.net/DTD/sodipodi-0.dtd"
   xmlns="http://www.w3.org/2000/svg"
   xmlns:svg="http://www.w3.org/2000/svg"><defs
   id="defs4"><inkscape:path-effect
     effect="fillet_chamfer"
     id="path-effect4"
     is_visible="true"
     lpeversion="1"
     nodesatellites_param="F,0,0,1,0,14.5,0,1 @ F,0,0,1,0,14.5,0,1 @ F,0,0,1,0,14.5,0,1 @ F,0,0,1,0,14.5,0,1"
     radius="0"
     unit="px"
     method="auto"
     mode="F"
     chamfer_steps="1"
     flexible="false"
     use_knot_distance="true"
     apply_no_radius="true"
     apply_with_radius="true"
     only_selected="false"
     hide_knots="false" /></defs><sodipodi:namedview
   id="namedview4"
   pagecolor="#ffffff"
   bordercolor="#000000"
   borderopacity="0.25"
   inkscape:showpageshadow="2"
   inkscape:pageopacity="0.0"
   inkscape:pagecheckerboard="true"
   inkscape:deskcolor="#d1d1d1"
   inkscape:zoom="22.627417"
   inkscape:cx="26.008271"
   inkscape:cy="32.195456"
   inkscape:window-width="3840"
   inkscape:window-height="2054"
   inkscape:window-x="-11"
   inkscape:window-y="-11"
   inkscape:window-maximized="1"
   inkscape:current-layer="g4" />
<metadata
   id="metadata1"> Svg Vector Icons : http://www.onlinewebfonts.com/icon </metadata>
<g
   id="g4"
   transform="matrix(0.21179668,0,0,0.21166064,-2.0967864,-2.1005925)"
   inkscape:label="g1"><path
     fill="#000000"
     d="m 62.399996,69.199996 c -9,1 -18.8,4.6 -26.8,10 -4.4,3 -12.6,11.1 -15.6,15.6 -4.4,6.600004 -7.5,13.800004 -9.2,21.700004 -0.7999995,3.7 -0.8999995,6.7 -0.8999995,47.8 0,40.4 0,44.1 0.7999995,47.3 5.4,23.1 27.7,37.9 50.8,33.9 17.4,-3 31.7,-16.5 35.7,-33.8 0.4,-1.7 0.9,-5.7 1.1,-9 0.6,-9.5 2.700004,-12.6 9.600004,-14.5 2.8,-0.8 5,-0.9 20,-0.9 15,0 17.2,0.1 20,0.9 6.9,1.9 9,5 9.6,14.7 0.2,3.4 0.8,7.7 1.3,9.6 2.1,8.2 6.4,15.5 12.4,21.2 12.3,11.8 29.8,15.5 45.9,9.6 11.6,-4.2 22,-14.6 26.2,-26.2 2.8,-7.9 2.8,-7.7 2.6,-54.9 -0.1,-41.7 -0.2,-42.9 -1.1,-46.8 -3,-11.9 -8.1,-21.200004 -16.2,-29.300004 -8.2,-8.1 -17.3,-13.2 -29.2,-16.1 -3.9,-1 -4.3,-1 -69.7,-1.1 -36.100004,0.2 -66.400004,0.2 -67.300004,0.3 z m 13.4,31.100004 c 3,1.6 4.9,3.6 6.5,6.9 1,1.9 1.1,2.9 1.2,11.4 l 0.2,9.3 9.3,0.1 C 101.8,128.1 102.5,128.2 104.6,129.3 c 3,1.4 5.7,4.2 7.2,7.2 1.6,3.3 1.6,9.1 0,12.5 -1.4,3 -4.2,5.7 -7.2,7.2 -2.2,1.1 -2.8,1.2 -11.600004,1.3 l -9.3,0.1 -0.1,9.3 c -0.1,8.8 -0.2,9.5 -1.3,11.6 -1.4,3 -4.2,5.7 -7.2,7.2 -1.9,0.9 -3,1.2 -6.2,1.2 -3.2,0 -4.3,-0.2 -6.2,-1.2 -3,-1.4 -5.7,-4.2 -7.2,-7.2 -1.1,-2.2 -1.2,-2.8 -1.3,-11.6 l -0.1,-9.3 -9.3,-0.1 c -8.8,-0.1 -9.5,-0.2 -11.6,-1.3 -3,-1.4 -5.7,-4.2 -7.2,-7.2 -1.6,-3.3 -1.6,-9.1 0,-12.5 1.4,-3 4.2,-5.7 7.2,-7.2 2.2,-1.1 2.8,-1.2 11.6,-1.3 l 9.3,-0.1 0.2,-9.3 c 0.1,-9 0.2,-9.4 1.4,-11.7 1.8,-3.4 3.2,-4.9 6,-6.4 3.3,-1.800004 4.7,-2.100004 8.4,-1.800004 2.2,0.1 3.5,0.5 5.7,1.600004 z M 193.3,99.899996 C 196.2,101.3 199,104.1 200.4,107 c 1.6,3.3 1.6,9.1 0,12.5 -1.4,3 -4.2,5.7 -7.2,7.2 -3.3,1.6 -9.1,1.6 -12.5,0 -12,-5.9 -11,-22.8 1.6,-27.400004 2.9,-1.2 7.9,-0.8 11,0.6 z M 163.7,129.4 c 2.9,1.4 5.7,4.2 7.1,7.1 1.6,3.3 1.6,9.1 0,12.5 -1.4,3 -4.2,5.7 -7.2,7.2 -3.3,1.6 -9.1,1.6 -12.5,0 -12,-5.9 -11,-22.8 1.6,-27.4 3,-1.1 8,-0.8 11,0.6 z m 59.1,0 c 2.9,1.4 5.7,4.2 7.2,7.1 1.6,3.3 1.6,9.1 0,12.5 -1.4,3 -4.2,5.7 -7.2,7.2 -1.9,0.9 -3,1.2 -6.2,1.2 -3.2,0 -4.3,-0.2 -6.2,-1.2 -3,-1.4 -5.7,-4.2 -7.2,-7.2 -1.6,-3.3 -1.6,-9.1 0,-12.5 1.9,-4 5.7,-7 9.9,-8.1 2.5,-0.7 7.2,-0.2 9.7,1 z m -29.6,29.5 c 2.9,1.4 5.7,4.2 7.2,7.1 1.6,3.3 1.6,9.1 0,12.5 -1.4,3 -4.2,5.7 -7.2,7.2 -1.9,0.9 -3,1.2 -6.2,1.2 -3.2,0 -4.3,-0.2 -6.2,-1.2 -3,-1.4 -5.7,-4.2 -7.2,-7.2 -1.6,-3.3 -1.6,-9.1 0,-12.5 1.9,-4 5.7,-7 9.9,-8.1 2.5,-0.6 7.2,-0.1 9.7,1 z"
     id="path2"
     inkscape:label="path1"
     style="fill:#ffffff;fill-opacity:1" /><path
     style="fill:#ffffff;fill-opacity:1;stroke-width:1.33129"
     id="rect4"
     width="29"
     height="44"
     x="153.9725"
     y="9.9243412"
     sodipodi:type="rect"
     d="m 168.4725,9.9243412 a 14.5,14.5 45 0 1 14.5,14.4999998 v 15 a 14.5,14.5 135 0 1 -14.5,14.5 14.5,14.5 45 0 1 -14.5,-14.5 v -15 a 14.5,14.5 135 0 1 14.5,-14.4999998 z"
     inkscape:path-effect="#path-effect4"
     transform="translate(-40.566021)"
     inkscape:label="rect2" /></g>
</svg>
