<?xml version="1.0" encoding="UTF-8" standalone="no"?>
<!-- Svg Vector Icons : http://www.onlinewebfonts.com/icon -->

<svg
   version="1.1"
   x="0px"
   y="0px"
   viewBox="0 0 50 50"
   enable-background="new 0 0 256 256"
   xml:space="preserve"
   id="svg4"
   sodipodi:docname="Games.svg"
   width="50"
   height="50"
   inkscape:version="1.3.2 (091e20e, 2023-11-25, custom)"
   xmlns:inkscape="http://www.inkscape.org/namespaces/inkscape"
   xmlns:sodipodi="http://sodipodi.sourceforge.net/DTD/sodipodi-0.dtd"
   xmlns="http://www.w3.org/2000/svg"
   xmlns:svg="http://www.w3.org/2000/svg"><defs
   id="defs4" /><sodipodi:namedview
   id="namedview4"
   pagecolor="#ffffff"
   bordercolor="#000000"
   borderopacity="0.25"
   inkscape:showpageshadow="2"
   inkscape:pageopacity="0.0"
   inkscape:pagecheckerboard="true"
   inkscape:deskcolor="#d1d1d1"
   inkscape:zoom="25.40625"
   inkscape:cx="27.335793"
   inkscape:cy="35.758918"
   inkscape:window-width="3840"
   inkscape:window-height="2054"
   inkscape:window-x="-11"
   inkscape:window-y="-11"
   inkscape:window-maximized="1"
   inkscape:current-layer="g4" />
<metadata
   id="metadata1"> Svg Vector Icons : http://www.onlinewebfonts.com/icon </metadata>
<g
   id="g4"
   transform="matrix(0.21186441,0,0,0.21132713,-2.1186441,-2.0498732)"
   inkscape:label="g1"><path
     id="path3"
     style="fill:#ffffff;fill-opacity:1"
     inkscape:label="path1"
     d="M 25.404531 77.399025 C 16.904549 77.399025 10 84.296526 10 92.79651 L 10 230.90252 C 10 239.4025 16.904549 246.30001 25.404531 246.30001 L 230.59547 246.30001 C 239.09545 246.30001 246 239.4025 246 230.90252 L 246 92.79651 C 246 84.296526 239.09545 77.399025 230.59547 77.399025 L 25.404531 77.399025 z M 57.292187 90.874135 L 66.11453 90.874135 L 74.946093 90.874135 L 74.946093 99.718908 L 74.946093 108.57292 L 83.860624 108.57292 L 92.692186 108.57292 L 92.692186 117.4177 L 92.692186 126.27171 L 128.09219 126.27171 L 163.58437 126.27171 L 163.58437 117.4177 L 163.58437 108.57292 L 172.40672 108.57292 L 181.23828 108.57292 L 181.23828 99.718908 L 181.23828 90.874135 L 190.06062 90.874135 L 198.89218 90.874135 L 198.89218 99.718908 L 198.89218 108.57292 L 190.06062 108.57292 L 181.23828 108.57292 L 181.23828 117.60254 L 181.23828 126.44732 L 190.06062 126.44732 L 198.89218 126.44732 L 198.89218 135.30133 L 198.89218 144.1461 L 207.71453 144.1461 L 216.54609 144.1461 L 216.54609 153.00012 L 216.54609 161.85414 L 225.36843 161.85414 L 234.2 161.85414 L 234.2 188.49012 L 234.2 215.12611 L 225.36843 215.12611 L 216.54609 215.12611 L 216.54609 206.28133 L 216.54609 197.42732 L 207.71453 197.42732 L 198.89218 197.42732 L 198.89218 206.28133 L 198.89218 215.12611 L 190.06062 215.12611 L 181.23828 215.12611 L 181.23828 223.98012 L 181.23828 232.83414 L 163.49219 232.83414 L 145.74609 232.83414 L 145.74609 223.98012 L 145.74609 215.12611 L 163.49219 215.12611 L 181.23828 215.12611 L 181.23828 206.28133 L 181.23828 197.42732 L 128.09219 197.42732 L 74.946093 197.42732 L 74.946093 206.28133 L 74.946093 215.12611 L 92.692186 215.12611 L 110.43828 215.12611 L 110.43828 223.98012 L 110.43828 232.83414 L 92.692186 232.83414 L 74.946093 232.83414 L 74.946093 223.98012 L 74.946093 215.12611 L 65.939374 215.12611 L 57.107812 215.12611 L 57.107812 206.28133 L 57.107812 197.42732 L 48.285468 197.42732 L 39.453906 197.42732 L 39.453906 206.28133 L 39.453906 215.12611 L 30.631562 215.12611 L 21.8 215.12611 L 21.8 188.30528 L 21.8 161.66929 L 30.806718 161.66929 L 39.638281 161.66929 L 39.638281 152.81528 L 39.638281 143.9705 L 48.460624 143.9705 L 57.292187 143.9705 L 57.292187 135.11649 L 57.292187 126.27171 L 66.11453 126.27171 L 74.946093 126.27171 L 74.946093 117.4177 L 74.946093 108.57292 L 66.031562 108.57292 L 57.199999 108.57292 L 57.199999 99.718908 L 57.292187 90.874135 z M 74.946093 144.1461 L 74.946093 153.00012 L 74.946093 161.85414 L 83.860624 161.85414 L 92.692186 161.85414 L 92.692186 153.00012 L 92.599999 144.1461 L 83.768436 144.1461 L 74.946093 144.1461 z M 163.58437 144.1461 L 163.58437 153.00012 L 163.58437 161.85414 L 172.40672 161.85414 L 181.23828 161.85414 L 181.23828 153.00012 L 181.23828 144.1461 L 172.40672 144.1461 L 163.58437 144.1461 z " /><path
     fill="#000000"
     d="m 229.1,56.7 c 0,-7.3 -5.9,-13.2 -13.2,-13.2 H 40 c -7.3,0 -13.2,5.9 -13.2,13.2 V 66 h 202.4 v -9.3 z"
     id="path1"
     inkscape:label="path2"
     style="fill:#ffffff;fill-opacity:1" /><path
     fill="#000000"
     d="m 212.3,20.7 c 0,-6.1 -4.9,-11 -11,-11 H 54.6 c -6.1,0 -11,4.9 -11,11 V 31.9 H 212.4 V 20.7 Z"
     id="path2"
     inkscape:label="path3"
     style="fill:#ffffff;fill-opacity:1" /></g>
</svg>
