<?xml version="1.0" encoding="UTF-8" standalone="no"?>
<!-- Created with Inkscape (http://www.inkscape.org/) -->

<svg
   width="49.999985"
   height="50.000011"
   viewBox="0 0 13.229162 13.229169"
   version="1.1"
   id="svg1"
   inkscape:version="1.3.2 (091e20e, 2023-11-25, custom)"
   sodipodi:docname="Manual.svg"
   xmlns:inkscape="http://www.inkscape.org/namespaces/inkscape"
   xmlns:sodipodi="http://sodipodi.sourceforge.net/DTD/sodipodi-0.dtd"
   xmlns="http://www.w3.org/2000/svg"
   xmlns:svg="http://www.w3.org/2000/svg">
  <sodipodi:namedview
     id="namedview1"
     pagecolor="#ffffff"
     bordercolor="#000000"
     borderopacity="0.25"
     inkscape:showpageshadow="2"
     inkscape:pageopacity="0.0"
     inkscape:pagecheckerboard="true"
     inkscape:deskcolor="#d1d1d1"
     inkscape:document-units="mm"
     inkscape:zoom="11.588215"
     inkscape:cx="10.916263"
     inkscape:cy="23.170091"
     inkscape:window-width="1920"
     inkscape:window-height="1009"
     inkscape:window-x="-8"
     inkscape:window-y="-8"
     inkscape:window-maximized="1"
     inkscape:current-layer="layer1" />
  <defs
     id="defs1">
    <rect
       x="327.7966"
       y="587.98364"
       width="56.381992"
       height="46.130718"
       id="rect2" />
  </defs>
  <g
     inkscape:label="Layer 1"
     inkscape:groupmode="layer"
     id="layer1"
     transform="translate(-93.065637,-155.76879)">
    <path
       id="path2"
       style="stroke:#000000;stroke-width:0;stroke-opacity:0;fill:#ffffff"
       d="m 99.681832,155.76879 a 6.6161248,6.6145132 0 0 0 -6.616195,6.61459 6.6161248,6.6145132 0 0 0 6.616195,6.61458 6.6161248,6.6145132 0 0 0 6.612968,-6.61458 6.6161248,6.6145132 0 0 0 -6.612968,-6.61459 z m -3.723021,2.06924 h 7.439589 v 4.95852 l -2.47986,2.47928 h -2.479866 v -0.82641 l 2.479866,-2.47928 c 0,-0.22383 -0.0818,-0.41749 -0.24541,-0.58109 -0.1636,-0.16355 -0.35735,-0.24532 -0.58122,-0.24532 h -4.133099 z m 2.479863,7.85098 h 2.479866 v 1.23964 h -2.479866 z" />
  </g>
</svg>
