<?xml version="1.0" encoding="UTF-8" standalone="no"?>
<!-- Svg Vector Icons : http://www.onlinewebfonts.com/icon -->

<svg
   version="1.1"
   x="0px"
   y="0px"
   viewBox="0 0 50.000002 50.000002"
   enable-background="new 0 0 256 256"
   xml:space="preserve"
   id="svg5"
   sodipodi:docname="System.svg"
   width="50.000004"
   height="50"
   inkscape:version="1.3.2 (091e20e, 2023-11-25, custom)"
   xmlns:inkscape="http://www.inkscape.org/namespaces/inkscape"
   xmlns:sodipodi="http://sodipodi.sourceforge.net/DTD/sodipodi-0.dtd"
   xmlns="http://www.w3.org/2000/svg"
   xmlns:svg="http://www.w3.org/2000/svg"><defs
   id="defs5" /><sodipodi:namedview
   id="namedview5"
   pagecolor="#ffffff"
   bordercolor="#000000"
   borderopacity="0.25"
   inkscape:showpageshadow="2"
   inkscape:pageopacity="0.0"
   inkscape:pagecheckerboard="true"
   inkscape:deskcolor="#d1d1d1"
   inkscape:zoom="12.703125"
   inkscape:cx="18.656827"
   inkscape:cy="18.696187"
   inkscape:window-width="1920"
   inkscape:window-height="1009"
   inkscape:window-x="-8"
   inkscape:window-y="-8"
   inkscape:window-maximized="1"
   inkscape:current-layer="g5" />
<metadata
   id="metadata1"> Svg Vector Icons : http://www.onlinewebfonts.com/icon </metadata>
<g
   id="g5"
   transform="rotate(-0.87490912,-1025.7185,1200.532)"
   inkscape:label="g1"><path
     fill="#000000"
     d="m 40.464967,35.386786 c -1.25674,0.493912 -2.703867,1.899732 -3.351243,3.191593 -0.41889,0.83591 -0.495043,1.253869 -0.494991,2.735734 1.9e-5,1.519862 0.07623,1.89983 0.533266,2.735771 0.60938,1.215911 2.018519,2.545838 3.237212,3.077833 1.409115,0.645991 3.732211,0.570078 5.141279,-0.113809 1.294821,-0.6079 2.589615,-1.937733 3.160824,-3.229596 0.647373,-1.367853 0.609208,-3.685644 -0.07635,-5.129537 -0.647467,-1.329901 -1.751932,-2.507833 -3.008711,-3.115822 -1.37103,-0.607992 -3.732215,-0.684067 -5.141289,-0.152166 z"
     id="path3"
     style="fill:#ffffff;fill-opacity:1;stroke-width:0.380401"
     inkscape:label="path2" /><path
     fill="#000000"
     d="m 39.017123,16.312469 c 2e-6,0.038 -0.152293,1.177888 -0.342661,2.583753 l -0.304579,2.545759 -1.637576,0.531893 c -0.913995,0.30394 -2.323067,0.87384 -3.198975,1.291771 l -1.561398,0.797873 -1.980401,-1.557927 c -1.104455,-0.87396 -2.018485,-1.55793 -2.094651,-1.557931 -0.07617,-3e-6 -1.2948,1.215843 -2.780009,2.659661 l -2.665755,2.697661 1.485324,1.861884 c 0.837874,1.025935 1.523413,1.975873 1.599584,2.089865 0.07617,0.151984 -0.228473,0.835916 -0.5712,1.557838 -0.38081,0.721921 -0.952016,2.089777 -1.294734,3.077676 -0.64735,2.013794 -0.342689,1.823821 -3.922528,2.317653 l -1.866086,0.227914 1.35e-4,3.799654 1.36e-4,3.799655 2.513529,0.342057 c 1.371015,0.19003 2.551611,0.342058 2.627781,0.418053 0.07617,0.076 0.342783,0.873933 0.685569,1.823858 0.304701,0.949925 0.876003,2.31782 1.256863,3.039769 0.380862,0.721946 0.647471,1.405893 0.571309,1.557878 -0.07616,0.151984 -0.799716,1.101871 -1.599437,2.089754 l -1.485194,1.86178 2.704028,2.697848 2.704028,2.697849 2.056458,-1.595783 2.056457,-1.595782 2.018464,0.987979 c 1.104442,0.53199 2.551639,1.101989 3.23715,1.291997 l 1.180601,0.304013 0.228581,2.279801 c 0.152378,1.253892 0.266671,2.431788 0.342843,2.583777 0.114261,0.303976 0.457014,0.341985 3.884537,0.342104 l 3.770274,1.3e-4 0.114228,-0.645936 c 0.07616,-0.341968 0.228448,-1.519854 0.342662,-2.583755 L 47.320912,60.9587 48.72999,60.540788 c 0.799747,-0.227952 2.246903,-0.797849 3.198976,-1.291772 l 1.789896,-0.911853 2.018484,1.557928 c 1.104454,0.873959 2.018485,1.595926 2.094652,1.595929 0.07617,1e-6 1.294799,-1.215845 2.780007,-2.697658 l 2.665757,-2.659666 -1.637665,-2.051871 -1.637666,-2.05187 0.533135,-0.987893 c 0.685462,-1.215865 1.675547,-3.723603 1.865934,-4.635513 0.152306,-0.797922 0.03805,-0.75993 3.389398,-1.139778 l 1.980338,-0.227909 -1.31e-4,-3.837652 -1.31e-4,-3.837651 -1.904188,-0.228047 c -3.617968,-0.456083 -3.275209,-0.266088 -3.618012,-1.747965 -0.190443,-0.721941 -0.761746,-2.127833 -1.25687,-3.191755 l -0.952155,-1.861864 1.59944,-2.013761 1.637524,-2.013759 -2.665945,-2.697848 c -1.485312,-1.481917 -2.704028,-2.659854 -2.780194,-2.659855 -0.07617,-3e-6 -0.99015,0.683902 -2.094543,1.557785 l -1.980291,1.55779 -1.942296,-0.949982 c -1.066359,-0.53199 -2.513554,-1.101989 -3.199066,-1.291995 l -1.25677,-0.342013 -0.228575,-2.089817 c -0.152374,-1.139902 -0.266666,-2.3178 -0.342844,-2.621775 l -0.114269,-0.531956 -3.808358,-1.37e-4 c -2.094595,0.03791 -3.808356,0.03793 -3.846439,0.07585 z m 7.502888,12.083164 c 5.674509,1.596053 9.74964,6.953708 9.749847,12.88117 1.32e-4,3.837651 -2.018148,8.055198 -5.026668,10.410878 -2.399199,1.899744 -5.255433,2.849557 -8.454454,2.849446 -4.074943,-1.45e-4 -7.807197,-1.78611 -10.396991,-4.97791 -4.341716,-5.395661 -3.73266,-13.412912 1.370375,-18.124305 3.42741,-3.191592 8.187817,-4.331321 12.757891,-3.039279 z"
     id="path2"
     style="fill:#ffffff;fill-opacity:1;stroke-width:0.380401"
     inkscape:label="path1" /></g>
</svg>
