<?xml version="1.0" encoding="UTF-8" standalone="no"?>
<svg
   version="1.0"
   width="50pt"
   height="50pt"
   viewBox="0 0 50 49.999998"
   preserveAspectRatio="xMidYMid"
   id="svg2"
   sodipodi:docname="Quit.svg"
   inkscape:version="1.3.2 (091e20e, 2023-11-25, custom)"
   xmlns:inkscape="http://www.inkscape.org/namespaces/inkscape"
   xmlns:sodipodi="http://sodipodi.sourceforge.net/DTD/sodipodi-0.dtd"
   xmlns="http://www.w3.org/2000/svg"
   xmlns:svg="http://www.w3.org/2000/svg">
  <defs
     id="defs2" />
  <sodipodi:namedview
     id="namedview2"
     pagecolor="#ffffff"
     bordercolor="#000000"
     borderopacity="0.25"
     inkscape:showpageshadow="2"
     inkscape:pageopacity="0.0"
     inkscape:pagecheckerboard="true"
     inkscape:deskcolor="#d1d1d1"
     inkscape:document-units="pt"
     inkscape:zoom="8"
     inkscape:cx="14.1875"
     inkscape:cy="42.8125"
     inkscape:window-width="1920"
     inkscape:window-height="1009"
     inkscape:window-x="-8"
     inkscape:window-y="-8"
     inkscape:window-maximized="1"
     inkscape:current-layer="g2" />
  <g
     transform="matrix(0.1,0,0,-0.1,0,1248.2493)"
     fill="#000000"
     stroke="none"
     id="g2"
     inkscape:label="g1">
    <path
       d="m 242.02975,12481.537 c -5.99654,-1.195 -9.40466,-2.305 -14.23641,-4.696 -14.0207,-6.916 -24.15876,-20.834 -26.74719,-36.63 -0.60396,-3.629 -0.60396,-212.14 0,-215.769 1.76876,-10.758 7.33391,-21.219 15.14236,-28.519 19.80156,-18.529 50.47455,-17.802 69.32701,1.666 7.03192,7.299 11.77739,16.777 13.45988,26.853 0.25884,1.708 0.43141,39.747 0.43141,108.012 0,103.232 0,105.493 -0.86281,109.508 -3.23555,15.796 -12.76964,28.218 -26.96291,35.178 -4.27092,2.135 -7.46332,3.118 -13.805,4.354 -6.64366,1.325 -9.18895,1.325 -15.74634,0.04 z"
       id="path1"
       style="fill:#ffffff;stroke-width:0.0429162;fill-opacity:1" />
    <path
       d="m 108.283,12428.708 c -0.34512,-0.09 -2.11389,-0.388 -3.88265,-0.647 -8.973257,-1.467 -18.421058,-6.385 -25.150997,-13.072 -4.788611,-4.788 -14.538395,-15.185 -17.989646,-19.241 C 28.559103,12357.526 8.5418464,12312.746 2.3727351,12263.911 1.3373598,12255.671 0,12238.026 0,12232.633 c 0,-4.744 1.2079379,-21.095 2.1570319,-29.766 0.7333909,-6.514 2.8904228,-18.767 4.5297671,-25.971 4.529766,-19.715 10.440034,-36.281 19.62899,-54.918 9.102675,-18.421 19.025022,-33.607 32.614323,-50.043 5.996549,-7.204 23.382227,-24.59 30.586713,-30.587 40.767905,-33.779 87.791195,-53.192 139.559965,-57.593 2.71786,-0.258 7.72217,-0.647 11.13028,-0.948 15.14236,-1.252 42.8818,1.337 63.71873,5.91 89.21484,19.672 161.30285,87.661 186.15185,175.496 3.36498,11.907 6.4711,27.48 7.76532,38.654 0.9491,8.671 2.15703,25.022 2.15703,29.766 0,4.746 -1.20793,21.14 -2.15703,29.768 -0.25885,2.243 -1.07852,7.593 -1.76877,11.864 -7.37705,43.701 -26.10009,84.253 -54.83175,118.636 -4.44348,5.35 -13.28731,14.927 -14.15013,15.315 -0.34513,0.217 -1.12166,0.561 -1.72563,0.82 -0.60396,0.259 -2.24331,1.466 -3.66694,2.631 -9.44781,7.938 -23.64107,11.907 -36.45385,10.225 -23.0371,-3.064 -40.33649,-20.665 -43.14064,-43.831 -2.0276,-16.868 5.43573,-34.254 19.24073,-44.694 8.58499,-6.514 21.82916,-26.575 28.94737,-43.96 8.15358,-19.802 11.7774,-39.603 11.21656,-60.656 -0.47454,-16.393 -2.63157,-28.731 -7.80846,-44.219 -14.92665,-44.737 -50.94908,-80.543 -96.03105,-95.428 -15.78948,-5.219 -30.41415,-7.548 -47.88611,-7.548 -23.81364,0 -44.77999,4.744 -65.9189,14.969 -61.17342,29.551 -95.211388,95.686 -83.52027,162.209 5.13373,29.076 20.57808,58.844 40.94046,78.731 2.28645,2.244 5.69456,5.609 7.54961,7.421 13.02847,12.769 17.60138,32.873 11.56169,50.604 -3.40811,9.922 -11.00086,19.629 -19.75841,25.323 -8.45556,5.479 -17.55824,8.154 -27.3943,8.068 -2.37274,-0.04 -4.61606,-0.129 -4.96118,-0.173 z"
       id="path2"
       style="fill:#ffffff;stroke-width:0.0431406;fill-opacity:1" />
  </g>
</svg>
