<?xml version="1.0" encoding="UTF-8" standalone="no"?>
<!-- Svg Vector Icons : http://www.onlinewebfonts.com/icon -->

<svg
   version="1.1"
   x="0px"
   y="0px"
   viewBox="0 0 50.000001 50.000001"
   enable-background="new 0 0 256 256"
   xml:space="preserve"
   id="svg2"
   sodipodi:docname="Restart.svg"
   width="50"
   height="50"
   inkscape:version="1.3.2 (091e20e, 2023-11-25, custom)"
   xmlns:inkscape="http://www.inkscape.org/namespaces/inkscape"
   xmlns:sodipodi="http://sodipodi.sourceforge.net/DTD/sodipodi-0.dtd"
   xmlns="http://www.w3.org/2000/svg"
   xmlns:svg="http://www.w3.org/2000/svg"><defs
   id="defs2" /><sodipodi:namedview
   id="namedview2"
   pagecolor="#ffffff"
   bordercolor="#000000"
   borderopacity="0.25"
   inkscape:showpageshadow="2"
   inkscape:pageopacity="0.0"
   inkscape:pagecheckerboard="true"
   inkscape:deskcolor="#d1d1d1"
   inkscape:zoom="11.313709"
   inkscape:cx="29.919454"
   inkscape:cy="19.224465"
   inkscape:window-width="1920"
   inkscape:window-height="1009"
   inkscape:window-x="-8"
   inkscape:window-y="-8"
   inkscape:window-maximized="1"
   inkscape:current-layer="svg2" />
<metadata
   id="metadata1"> Svg Vector Icons : http://www.onlinewebfonts.com/icon </metadata>
<g
   id="g1"
   transform="matrix(0.22182786,0,0,0.22202487,-2.2182786,-3.419183)"
   style="fill:#ffffff"><path
     d="m 224,71.9 c -6.2,0 -11.3,-5.1 -11.3,-11.3 V 58.3 C 212.4,42.4 208.2,38.1 190.6,38 H 52.5 C 36,38.5 32.8,43.3 32.8,60.4 L 32.5,50 32.6,200.9 c 0.9,13.6 5.7,17.2 22.7,17.2 L 32.6,218 v 0.2 l 180.2,-0.1 v -14.7 l -0.1,14.6 -22.7,0.1 c 18.3,0 22.5,-4.2 22.8,-20.4 v -2.3 c 0,-6.2 5,-11.3 11.3,-11.3 6.2,0 11.3,5.1 11.3,11.3 v 11.4 0 11.3 c 0,12.5 -10.1,22.5 -22.5,22.5 h -12 v 0 H 32.7 C 20.6,240.6 10.8,231 10.3,219.1 L 10,37.8 C 10,25.7 19.6,16 31.5,15.5 l 181.3,-0.1 c 12.4,0 22.4,10.1 22.4,22.5 v 11.3 0 11.4 c 0.1,6.2 -5,11.3 -11.2,11.3 z M 32.5,38 v 0 h 6.9 z m 161.2,-0.1 19,0.1 0.1,14.6 V 37.9 Z"
     id="path2"
     style="fill:#ffffff" /><path
     id="path1"
     d="M 115.49777,74.646952 C 99.803225,89.040302 85.794842,104.32134 70.100797,119.8453 c -2.944074,2.94407 -3.289152,6.7212 -3.301758,8.20748 -2.76e-4,0.0325 -0.0088,0.0642 -0.0088,0.0968 0,2.06298 0.526213,5.31757 3.310562,8.10192 27.142953,27.14295 27.49271,27.41504 45.396969,45.10157 4.39999,4.4 11.50127,4.4 15.90126,0 4.4,-4.39999 4.4,-11.50475 0,-15.90475 l -25.79773,-25.89799 45.50262,-0.044 45.49382,0.044 -25.80654,25.89799 c -4.39999,4.4 -4.39999,11.50476 0,15.90475 4.4,4.4 11.50127,4.4 15.90127,0 17.90426,-17.68653 18.25402,-17.95862 45.39697,-45.10157 2.78561,-2.7856 3.31055,-6.04135 3.31055,-8.10192 0,-0.0326 -0.009,-0.0642 -0.009,-0.0968 -0.0127,-1.49143 -0.35975,-5.26548 -3.30176,-8.20748 -15.69405,-15.52396 -29.70243,-30.804998 -45.39697,-45.198348 -4.4,-4.399995 -11.50127,-4.399995 -15.90127,0 -4.39999,4.399996 -4.39999,11.504754 0,15.90475 l 26.22036,26.320248 -45.91644,0.0352 -45.91645,-0.0352 26.22036,-26.320248 c 4.4,-4.399996 4.4,-11.504754 0,-15.90475 -4.39384,-4.393838 -11.50758,-4.393696 -15.90126,0 z"
     sodipodi:nodetypes="ccssccscccccscsscccscccccscc"
     style="fill:#ffffff" /></g>
</svg>
