<?xml version="1.0" encoding="UTF-8" standalone="no"?>
<!-- Svg Vector Icons : http://www.onlinewebfonts.com/icon -->

<svg
   version="1.1"
   x="0px"
   y="0px"
   viewBox="0 0 50 50"
   enable-background="new 0 0 256 256"
   xml:space="preserve"
   id="svg2"
   sodipodi:docname="Scraper.svg"
   width="50"
   height="50"
   inkscape:version="1.3.2 (091e20e, 2023-11-25, custom)"
   xmlns:inkscape="http://www.inkscape.org/namespaces/inkscape"
   xmlns:sodipodi="http://sodipodi.sourceforge.net/DTD/sodipodi-0.dtd"
   xmlns="http://www.w3.org/2000/svg"
   xmlns:svg="http://www.w3.org/2000/svg"><defs
   id="defs2" /><sodipodi:namedview
   id="namedview2"
   pagecolor="#ffffff"
   bordercolor="#000000"
   borderopacity="0.25"
   inkscape:showpageshadow="2"
   inkscape:pageopacity="0.0"
   inkscape:pagecheckerboard="true"
   inkscape:deskcolor="#d1d1d1"
   inkscape:zoom="8.9824658"
   inkscape:cx="16.031233"
   inkscape:cy="52.15717"
   inkscape:window-width="1920"
   inkscape:window-height="1009"
   inkscape:window-x="-8"
   inkscape:window-y="-8"
   inkscape:window-maximized="1"
   inkscape:current-layer="svg2" />
<metadata
   id="metadata1"> Svg Vector Icons : http://www.onlinewebfonts.com/icon </metadata>
<path
   fill="#000000"
   d="M 232.9,93.1 110.4,62.5 C 101.2,60.2 91.8,65.8 89.5,75.1 L 59,197.6 c -2.3,9.2 3.3,18.6 12.5,20.9 L 194,249.1 c 9.2,2.3 18.6,-3.4 20.9,-12.6 L 245.5,114 c 2.3,-9.2 -3.4,-18.6 -12.6,-20.9 z m -5.5,22.3 -22.2,89.1 c -0.8,3.1 -3.9,4.9 -6.9,4.2 L 86.8,180.9 c -3.1,-0.8 -4.9,-3.9 -4.2,-7 l 22.2,-89.1 c 0.8,-3.1 3.9,-4.9 7,-4.2 l 111.4,27.8 c 3.1,0.8 5,3.9 4.2,7 z m -112,-3.9 c 0,8.6 7,15.6 15.6,15.6 8.6,0 15.6,-7 15.6,-15.6 0,-8.6 -7,-15.6 -15.6,-15.6 -8.6,0 -15.6,7 -15.6,15.6 z m 63.7,22.7 c -1,-3.2 -3.8,-3.9 -6.2,-1.6 l -22.4,21.6 c -2.4,2.3 -5.8,1.9 -7.5,-1 l -3.6,-5.9 c -1.7,-2.9 -5.5,-3.8 -8.3,-2.1 l -36.3,21.7 c -2.9,1.7 -2.5,3.6 0.7,4.4 L 119,177 c 3.2,0.8 8.5,2.1 11.8,3 l 27.8,6.9 c 3.2,0.8 8.5,2.1 11.8,2.9 l 23.5,5.9 c 3.2,0.8 5,-0.9 4,-4.1 z M 32.6,67 139.7,25.7 c 3,-1.1 6.3,0.3 7.4,3.3 L 158.5,58.9 179,64 161.2,17.5 C 157.8,8.7 147.8,4.2 138.9,7.6 L 21,53 C 12.2,56.4 7.7,66.5 11.1,75.3 l 38,98.7 7.2,-29.1 -27,-70.4 c -1.1,-3 0.3,-6.3 3.3,-7.5 z"
   id="path1"
   transform="matrix(0.21182271,0,0,0.20563738,-2.1105438,-1.329184)"
   style="fill:#ffffff;fill-opacity:1" />
</svg>
