<?xml version="1.0" encoding="UTF-8" standalone="no"?>
<!-- Svg Vector Icons : http://www.onlinewebfonts.com/icon -->

<svg
   version="1.1"
   x="0px"
   y="0px"
   viewBox="0 0 50.000001 50.000001"
   enable-background="new 0 0 256 256"
   xml:space="preserve"
   id="svg2"
   sodipodi:docname="Shutdown.svg"
   width="50"
   height="50"
   inkscape:version="1.3.2 (091e20e, 2023-11-25, custom)"
   xmlns:inkscape="http://www.inkscape.org/namespaces/inkscape"
   xmlns:sodipodi="http://sodipodi.sourceforge.net/DTD/sodipodi-0.dtd"
   xmlns="http://www.w3.org/2000/svg"
   xmlns:svg="http://www.w3.org/2000/svg"><defs
   id="defs2" /><sodipodi:namedview
   id="namedview2"
   pagecolor="#ffffff"
   bordercolor="#000000"
   borderopacity="0.25"
   inkscape:showpageshadow="2"
   inkscape:pageopacity="0.0"
   inkscape:pagecheckerboard="true"
   inkscape:deskcolor="#d1d1d1"
   inkscape:zoom="6.3515625"
   inkscape:cx="-6.5338253"
   inkscape:cy="22.750308"
   inkscape:window-width="1920"
   inkscape:window-height="1009"
   inkscape:window-x="-8"
   inkscape:window-y="-8"
   inkscape:window-maximized="1"
   inkscape:current-layer="svg2" />
<metadata
   id="metadata1"> Svg Vector Icons : http://www.onlinewebfonts.com/icon </metadata>
<g
   id="g1"
   transform="matrix(0.22182786,0,0,0.22202487,-2.2182786,-3.419183)"
   style="fill:#ffffff;fill-opacity:1"><path
     d="m 224,71.9 c -6.2,0 -11.3,-5.1 -11.3,-11.3 V 58.3 C 212.4,42.4 208.2,38.1 190.6,38 H 52.5 C 36,38.5 32.8,43.3 32.8,60.4 L 32.5,50 32.6,200.9 c 0.9,13.6 5.7,17.2 22.7,17.2 L 32.6,218 v 0.2 l 180.2,-0.1 v -14.7 l -0.1,14.6 -22.7,0.1 c 18.3,0 22.5,-4.2 22.8,-20.4 v -2.3 c 0,-6.2 5,-11.3 11.3,-11.3 6.2,0 11.3,5.1 11.3,11.3 v 11.4 0 11.3 c 0,12.5 -10.1,22.5 -22.5,22.5 h -12 v 0 H 32.7 C 20.6,240.6 10.8,231 10.3,219.1 L 10,37.8 C 10,25.7 19.6,16 31.5,15.5 l 181.3,-0.1 c 12.4,0 22.4,10.1 22.4,22.5 v 11.3 0 11.4 c 0.1,6.2 -5,11.3 -11.2,11.3 z M 32.5,38 v 0 h 6.9 z m 161.2,-0.1 19,0.1 0.1,14.6 V 37.9 Z"
     id="path2"
     style="fill:#ffffff;fill-opacity:1" /><path
     d="m 232.09375,136.24869 c -27.14298,27.14298 -27.49572,27.41345 -45.4,45.1 -4.4,4.4 -11.5,4.4 -15.9,0 -4.4,-4.4 -4.4,-11.5 0,-15.9 l 25.8,-25.9 -118.499997,-0.1 c -6.2,0 -11.3,-5.1 -11.3,-11.3 0,-6.2 5,-11.3 11.3,-11.3 l 118.999997,0.1 -26.3,-26.400003 c -4.4,-4.4 -4.4,-11.5 0,-15.9 4.4,-4.4 11.5,-4.4 15.9,0 15.69456,14.393364 29.70594,29.676033 45.4,45.200003 2.3,2.3 3.3,5.3 3.3,8.2 0.1,2.9 -1,5.9 -3.3,8.2 z"
     id="path1"
     sodipodi:nodetypes="scscccscccscccs"
     style="fill:#ffffff;fill-opacity:1" /></g>
</svg>
