<?xml version="1.0" encoding="UTF-8" standalone="no"?>
<!-- Svg Vector Icons : http://www.onlinewebfonts.com/icon -->

<svg
   version="1.1"
   x="0px"
   y="0px"
   viewBox="0 0 50 50"
   enable-background="new 0 0 256 256"
   xml:space="preserve"
   id="svg2"
   sodipodi:docname="Sound.svg"
   width="50"
   height="50"
   inkscape:version="1.3.2 (091e20e, 2023-11-25, custom)"
   xmlns:inkscape="http://www.inkscape.org/namespaces/inkscape"
   xmlns:sodipodi="http://sodipodi.sourceforge.net/DTD/sodipodi-0.dtd"
   xmlns="http://www.w3.org/2000/svg"
   xmlns:svg="http://www.w3.org/2000/svg"><defs
   id="defs2" /><sodipodi:namedview
   id="namedview2"
   pagecolor="#ffffff"
   bordercolor="#000000"
   borderopacity="0.25"
   inkscape:showpageshadow="2"
   inkscape:pageopacity="0.0"
   inkscape:pagecheckerboard="true"
   inkscape:deskcolor="#d1d1d1"
   inkscape:zoom="7.1054688"
   inkscape:cx="117.93733"
   inkscape:cy="115.05223"
   inkscape:window-width="3840"
   inkscape:window-height="2054"
   inkscape:window-x="-11"
   inkscape:window-y="-11"
   inkscape:window-maximized="1"
   inkscape:current-layer="svg2" />
<metadata
   id="metadata1"> Svg Vector Icons : http://www.onlinewebfonts.com/icon </metadata>
<path
   fill="#000000"
   d="m 10,88.7 v 78.7 H 62.4 L 128,233 V 23.1 L 62.4,88.7 Z M 187,128 C 187,104.9 173.6,84.9 154.2,75.2 V 180.8 C 173.6,171.1 187,151.2 187,128 Z M 154.2,13 v 27.1 c 37.9,11.3 65.6,46.4 65.6,87.9 0,41.6 -27.7,76.6 -65.6,87.9 V 243 C 206.7,231.1 246,184.2 246,128 246,71.8 206.7,25 154.2,13 Z"
   id="path1"
   transform="matrix(0.21186441,0,0,0.2173913,-2.1186441,-2.8260869)"
   style="fill:#ffffff;fill-opacity:1" />
</svg>
