<?xml version="1.0" encoding="UTF-8" standalone="no"?>
<svg
   width="49.999996"
   height="50.000004"
   viewBox="0 0 49.999997 50.000003"
   fill="none"
   version="1.1"
   id="svg5"
   sodipodi:docname="System.svg"
   inkscape:version="1.4.3 (0d15f75042, 2025-12-25)"
   xmlns:inkscape="http://www.inkscape.org/namespaces/inkscape"
   xmlns:sodipodi="http://sodipodi.sourceforge.net/DTD/sodipodi-0.dtd"
   xmlns="http://www.w3.org/2000/svg"
   xmlns:svg="http://www.w3.org/2000/svg">
  <defs
     id="defs5" />
  <sodipodi:namedview
     id="namedview5"
     pagecolor="#505050"
     bordercolor="#ffffff"
     borderopacity="1"
     inkscape:showpageshadow="0"
     inkscape:pageopacity="0"
     inkscape:pagecheckerboard="1"
     inkscape:deskcolor="#505050"
     inkscape:zoom="11.6"
     inkscape:cx="17.284483"
     inkscape:cy="35.862069"
     inkscape:window-width="2494"
     inkscape:window-height="1371"
     inkscape:window-x="0"
     inkscape:window-y="0"
     inkscape:window-maximized="1"
     inkscape:current-layer="svg5" />
  <path
     id="rect1"
     style="baseline-shift:baseline;display:inline;overflow:visible;vector-effect:none;fill:#ffffff;enable-background:accumulate;stop-color:#000000;stop-opacity:1;opacity:1"
     d="M 13.369141 0 A 1.55301 1.55301 0 0 0 11.816406 1.5527344 L 11.816406 6.1660156 L 10.949219 6.1660156 C 8.0850269 6.1660156 5.6816406 8.5713552 5.6816406 11.435547 L 5.6816406 12.246094 L 1.5566406 12.246094 A 1.5566601 1.5566601 0 0 0 0 13.802734 A 1.5566601 1.5566601 0 0 0 1.5566406 15.359375 L 5.6816406 15.359375 L 5.6816406 19.357422 L 1.5566406 19.357422 A 1.5566601 1.5566601 0 0 0 0 20.914062 A 1.5566601 1.5566601 0 0 0 1.5566406 22.470703 L 5.6816406 22.470703 L 5.6816406 27.482422 L 1.5566406 27.482422 A 1.5566601 1.5566601 0 0 0 0 29.039062 A 1.5566601 1.5566601 0 0 0 1.5566406 30.595703 L 5.6816406 30.595703 L 5.6816406 34.591797 L 1.5566406 34.591797 A 1.5566601 1.5566601 0 0 0 0 36.148438 A 1.5566601 1.5566601 0 0 0 1.5566406 37.707031 L 5.6816406 37.707031 L 5.6816406 38.564453 C 5.6816406 41.428645 8.0850269 43.833984 10.949219 43.833984 L 11.816406 43.833984 L 11.816406 48.447266 A 1.55301 1.55301 0 0 0 13.369141 50 A 1.55301 1.55301 0 0 0 14.921875 48.447266 L 14.921875 43.833984 L 19.007812 43.833984 L 19.007812 48.447266 A 1.55301 1.55301 0 0 0 20.560547 50 A 1.55301 1.55301 0 0 0 22.113281 48.447266 L 22.113281 43.833984 L 27.226562 43.833984 L 27.226562 48.447266 A 1.55301 1.55301 0 0 0 28.78125 50 A 1.55301 1.55301 0 0 0 30.333984 48.447266 L 30.333984 43.833984 L 34.419922 43.833984 L 34.419922 48.447266 A 1.55301 1.55301 0 0 0 35.972656 50 A 1.55301 1.55301 0 0 0 37.525391 48.447266 L 37.525391 43.833984 L 38.439453 43.833984 C 41.303645 43.833984 43.708984 41.428645 43.708984 38.564453 L 43.708984 37.707031 L 48.443359 37.707031 A 1.5566601 1.5566601 0 0 0 50 36.148438 A 1.5566601 1.5566601 0 0 0 48.443359 34.591797 L 43.708984 34.591797 L 43.708984 30.595703 L 48.443359 30.595703 A 1.5566601 1.5566601 0 0 0 50 29.039062 A 1.5566601 1.5566601 0 0 0 48.443359 27.482422 L 43.708984 27.482422 L 43.708984 22.470703 L 48.443359 22.470703 A 1.5566601 1.5566601 0 0 0 50 20.914062 A 1.5566601 1.5566601 0 0 0 48.443359 19.357422 L 43.708984 19.357422 L 43.708984 15.359375 L 48.443359 15.359375 A 1.5566601 1.5566601 0 0 0 50 13.802734 A 1.5566601 1.5566601 0 0 0 48.443359 12.246094 L 43.708984 12.246094 L 43.708984 11.435547 C 43.708984 8.5713552 41.303645 6.1660156 38.439453 6.1660156 L 37.525391 6.1660156 L 37.525391 1.5527344 A 1.55301 1.55301 0 0 0 35.972656 0 A 1.55301 1.55301 0 0 0 34.419922 1.5527344 L 34.419922 6.1660156 L 30.333984 6.1660156 L 30.333984 1.5527344 A 1.55301 1.55301 0 0 0 28.78125 0 A 1.55301 1.55301 0 0 0 27.226562 1.5527344 L 27.226562 6.1660156 L 22.113281 6.1660156 L 22.113281 1.5527344 A 1.55301 1.55301 0 0 0 20.560547 0 A 1.55301 1.55301 0 0 0 19.007812 1.5527344 L 19.007812 6.1660156 L 14.921875 6.1660156 L 14.921875 1.5527344 A 1.55301 1.55301 0 0 0 13.369141 0 z M 11.988281 12.474609 L 37.400391 12.474609 L 37.400391 37.525391 L 11.988281 37.525391 L 11.988281 12.474609 z M 17.082031 16.220703 C 16.379129 16.220703 15.814453 16.785379 15.814453 17.488281 L 15.814453 32.511719 C 15.814453 33.214621 16.379129 33.78125 17.082031 33.78125 L 32.308594 33.78125 C 33.011496 33.78125 33.576172 33.214621 33.576172 32.511719 L 33.576172 17.488281 C 33.576172 16.785379 33.011496 16.220703 32.308594 16.220703 L 17.082031 16.220703 z " />
</svg>
