<?xml version="1.0" encoding="UTF-8" standalone="no"?>
<!-- Svg Vector Icons : http://www.onlinewebfonts.com/icon -->

<svg
   version="1.1"
   x="0px"
   y="0px"
   viewBox="0 0 49.999996 50.000004"
   enable-background="new 0 0 256 256"
   xml:space="preserve"
   id="svg6"
   sodipodi:docname="UI.svg"
   width="49.999996"
   height="50.000004"
   inkscape:version="1.3.2 (091e20e, 2023-11-25, custom)"
   xmlns:inkscape="http://www.inkscape.org/namespaces/inkscape"
   xmlns:sodipodi="http://sodipodi.sourceforge.net/DTD/sodipodi-0.dtd"
   xmlns="http://www.w3.org/2000/svg"
   xmlns:svg="http://www.w3.org/2000/svg"><defs
   id="defs6" /><sodipodi:namedview
   id="namedview6"
   pagecolor="#ffffff"
   bordercolor="#000000"
   borderopacity="0.25"
   inkscape:showpageshadow="2"
   inkscape:pageopacity="0.0"
   inkscape:pagecheckerboard="true"
   inkscape:deskcolor="#d1d1d1"
   inkscape:zoom="6.3515625"
   inkscape:cx="9.2890529"
   inkscape:cy="2.597786"
   inkscape:window-width="1920"
   inkscape:window-height="1009"
   inkscape:window-x="-8"
   inkscape:window-y="-8"
   inkscape:window-maximized="1"
   inkscape:current-layer="g6" />
<metadata
   id="metadata1"> Svg Vector Icons : http://www.onlinewebfonts.com/icon </metadata>
<g
   id="g6"
   transform="translate(-9.9467434,-2.9100844)"><path
     fill="#000000"
     d="m 15.673636,3.3437588 c -2.050353,0.9211054 -2.876529,1.9924511 -3.335898,4.4028729 -0.852813,4.2324533 1.336833,7.8879773 4.806826,8.0813153 1.633414,0.08252 2.661503,-0.502366 3.004622,-1.794753 0.322324,-1.214061 0.0755,-2.211527 -1.447472,-5.9975381 C 18.004275,6.2414992 17.327631,4.3690162 17.226157,3.844331 17.119484,3.3392274 16.958536,2.9251913 16.901975,2.9115098 c -0.08484,-0.020522 -0.620512,0.1833316 -1.228339,0.432249 z"
     id="path1"
     style="fill:#ffffff;fill-opacity:1;stroke-width:0.242765"
     sodipodi:nodetypes="cccsccsc" /><path
     fill="#000000"
     d="m 20.691059,18.842144 c -0.670515,0.435852 -1.876146,0.683933 -2.844764,0.581775 -0.392061,-0.04135 -0.720185,-0.03844 -0.730688,0.03551 -0.09978,0.702426 0.500683,3.561261 1.34752,6.333508 2.035627,6.762555 4.88277,13.085371 10.696563,23.736089 1.543958,2.808248 1.89344,3.314154 2.469997,3.374959 0.553498,0.05838 1.144322,-0.310832 1.204713,-0.735982 C 32.926293,51.521029 30.631464,41.8043 29.298695,37.17967 27.877439,32.189231 26.726679,29.084741 24.627032,24.585609 23.392818,21.903838 22.187838,19.675432 21.52918,18.874256 l -0.298673,-0.369212 z"
     id="path2"
     style="fill:#ffffff;fill-opacity:1;stroke-width:0.208013"
     sodipodi:nodetypes="cssccssccccc" /><path
     fill="#000000"
     d="m 34.375284,19.799696 c -2.604057,0.141405 -7.14201,0.707022 -7.352631,0.909028 -0.05744,0.0404 0.306359,0.949428 0.823341,1.99986 0.919079,1.939259 2.604057,5.878377 3.121039,7.272219 l 0.287213,0.767624 3.270628,-0.02264 c 2.848942,0.0051 4.64824,0.366043 5.107777,0.951861 0.363803,0.444414 0.382951,1.050431 0.05744,1.515045 -0.134031,0.181806 -0.670162,0.686822 -1.167995,1.131234 -1.321177,1.151435 -1.550948,1.797855 -0.919079,2.545277 0.516981,0.606018 1.282881,0.707021 4.499658,0.707021 10.645999,-0.0606 15.689975,-3.090693 17.528134,-7.272219 0.421243,-0.98983 0.421243,-2.282669 0,-3.232097 C 59.24786,26.223483 58.309632,25.11245 57.333109,24.385228 55.916198,23.314602 53.23555,22.122766 50.554904,21.355143 46.380753,20.163307 39.621693,19.516887 34.375282,19.799696 Z"
     id="path3"
     style="fill:#ffffff;fill-opacity:1;stroke-width:0.19667"
     sodipodi:nodetypes="cccccccccccccccc" /><path
     fill="#000000"
     d="m 13.611816,23.576476 c -2.345993,1.471852 -3.601704,3.195723 -3.6531471,5.073678 -0.045759,1.089992 0.024836,1.415248 0.4838151,2.074424 0.748707,1.111655 2.295904,1.517588 4.9725,1.327865 0.876126,-0.05695 1.609799,-0.13798 1.626243,-0.157739 0.03288,-0.03953 -0.169653,-0.772536 -0.447764,-1.64907 -0.55567,-1.77326 -1.337913,-4.563106 -1.707335,-6.169624 -0.143406,-0.569738 -0.289576,-1.03851 -0.353134,-1.040244 -0.06466,0.03866 -0.484422,0.269706 -0.921178,0.54071 z"
     id="path4"
     style="fill:#ffffff;fill-opacity:1;stroke-width:0.179191"
     sodipodi:nodetypes="ccccscccc" /></g>
</svg>
