<?xml version="1.0" encoding="UTF-8" standalone="no"?>
<!-- Created with Inkscape (http://www.inkscape.org/) -->

<svg
   width="1016mm"
   height="309.87997mm"
   viewBox="0 0 1016 309.87997"
   version="1.1"
   id="svg1"
   inkscape:version="1.3.2 (091e20e, 2023-11-25, custom)"
   sodipodi:docname="3do.svg"
   xmlns:inkscape="http://www.inkscape.org/namespaces/inkscape"
   xmlns:sodipodi="http://sodipodi.sourceforge.net/DTD/sodipodi-0.dtd"
   xmlns="http://www.w3.org/2000/svg"
   xmlns:svg="http://www.w3.org/2000/svg">
  <sodipodi:namedview
     id="namedview1"
     pagecolor="#ffffff"
     bordercolor="#000000"
     borderopacity="0.25"
     inkscape:showpageshadow="2"
     inkscape:pageopacity="0.0"
     inkscape:pagecheckerboard="0"
     inkscape:deskcolor="#d1d1d1"
     inkscape:document-units="mm"
     inkscape:zoom="0.28645984"
     inkscape:cx="3616.5628"
     inkscape:cy="1897.2991"
     inkscape:window-width="3840"
     inkscape:window-height="2054"
     inkscape:window-x="-11"
     inkscape:window-y="-11"
     inkscape:window-maximized="1"
     inkscape:current-layer="layer1" />
  <defs
     id="defs1">
    <radialGradient
       id="SVGID_1_"
       cx="-4249.2959"
       cy="20521.629"
       r="151.5321"
       gradientTransform="translate(4852.2402,-19756.144)"
       gradientUnits="userSpaceOnUse">
				<stop
   offset="0.5225"
   style="stop-color:#FFE41B"
   id="stop3" />

				<stop
   offset="0.8933"
   style="stop-color:#716A13"
   id="stop4" />

				<stop
   offset="1"
   style="stop-color:#49482E"
   id="stop5" />

			</radialGradient>
  </defs>
  <g
     inkscape:label="Layer 1"
     inkscape:groupmode="layer"
     id="layer1"
     transform="translate(402.96042,6.35)">
    <g
       id="g10"
       transform="matrix(0.26458333,0,0,0.26458333,-402.96042,-6.35)">
	<rect
   width="3840"
   height="1171.2"
   id="rect1"
   x="0"
   y="0" />

	<g
   id="g3">
		<path
   class="st0"
   d="m 1533.5,565 v 1.9 c 85.5,1.6 148.7,18.6 189.4,51 40.8,32.4 61.2,71.6 61.2,117.6 0,51.3 -23.2,93.7 -69.6,127 -46.3,33.4 -108.1,50.1 -185.1,50.1 -66.6,0 -117.9,-13.3 -154.3,-39.9 -36.4,-26.6 -54.6,-56.8 -54.6,-90.8 0,-22.6 8.2,-40.9 24.5,-54.7 16.3,-13.8 35.9,-20.7 58.7,-20.7 21.4,0 39.8,6.1 55,18.1 15.3,12.2 22.9,28.2 22.9,47.9 0,26.5 -17.7,48.6 -53.2,66.5 -6.9,3.5 -10.5,7.5 -10.5,11.8 0,8.2 9.9,15.3 29.9,21.5 19.9,6.2 40.2,9.2 61.1,9.2 68.3,0 102.5,-50.2 102.5,-150.7 0,-99.5 -41.1,-149.2 -123.1,-149.2 l -68.1,2.8 c -13.7,0 -20.7,-5 -20.7,-15.2 0,-11.6 7.2,-17.5 21.7,-17.5 l 49.6,1.9 c 50.6,0 84.5,-11.2 101.8,-33.8 17.3,-22.5 25.8,-54.5 25.8,-96.1 0,-42.8 -6.5,-74.3 -19.5,-94.4 -13,-20.2 -35.4,-30.2 -67,-30.2 -17.2,0 -33.4,2.9 -48.5,8.7 -15.1,5.8 -22.8,11.5 -22.8,17.1 0,5.2 5,10.7 14.9,16.4 26,16.6 39.2,34.6 39.2,54 0,19.1 -7.2,34.2 -21.9,45.5 -14.6,11.2 -31,16.9 -49.3,16.9 -21.1,0 -39.9,-6.5 -56.4,-19.3 -16.5,-12.9 -24.9,-28.8 -24.9,-48.1 0,-32.6 18.4,-60.9 55.2,-84.6 36.8,-23.9 83.9,-35.8 141.6,-35.8 63.7,0 117.5,13.5 161.2,40.5 43.9,27 65.8,61.4 65.8,103.7 -0.1,83.3 -77.6,133.6 -232.5,150.9 z"
   id="path1"
   style="fill:#ffffff" />

		<path
   class="st0"
   d="M 2305.6,298.2 V 870 h 56 c 85.6,0 137.3,-22.5 155.1,-67.3 17.8,-44.9 26.7,-121.7 26.7,-230.4 0,-85 -5.5,-146.2 -16.4,-183.3 -10.8,-37.2 -27.4,-61.6 -49.6,-73.3 -22.2,-11.6 -50.4,-17.5 -84.5,-17.5 z M 2132.6,870 V 298.2 h -89.7 v -31 h 359.4 c 103.9,0 186.3,29.4 246.9,88.4 60.6,58.9 90.9,133.3 90.9,223.1 0,46.5 -9.2,90.4 -27.7,131.3 -18.5,41 -46.9,78.3 -85.3,111.8 -38.4,33.5 -77.8,55.1 -118.2,64.8 -40.4,9.6 -89.9,14.5 -148.8,14.5 H 2043 v -31 z"
   id="path2"
   style="fill:#ffffff" />

		<path
   class="st0"
   d="m 3432.2,584.4 c 0,-97 -2,-161 -6,-191.8 -4.1,-31 -14.4,-55.8 -31.1,-74.7 -16.7,-18.9 -44.2,-28.3 -82.6,-28.3 -32.3,0 -58.1,7.7 -77.3,22.9 -19.2,15.3 -31.1,39.8 -35.9,73.5 -4.7,33.7 -7.1,99.6 -7.1,197.5 0,97 2,161.2 6.1,192.5 4,31.3 14.7,56.3 32.2,74.9 17.4,18.6 44.7,27.8 82.1,27.8 30.9,0 56.2,-7.4 75.7,-22.4 19.5,-15 31.7,-39.3 36.6,-73 5,-33.7 7.3,-100.1 7.3,-198.9 z m -436.6,-2.7 c 0,-94.8 31.2,-172.4 93.9,-232.7 62.5,-60.2 137.6,-90.4 225.1,-90.4 81.3,0 154,28.3 218.1,85 64.3,56.7 96.3,137.4 96.3,241.9 0,98 -30.2,176.5 -90.9,235.6 -60.7,59 -134.8,88.6 -222.3,88.6 -94.6,0 -171.7,-31.5 -231,-94.1 C 3025.4,753 2995.6,675 2995.6,581.7 Z"
   id="path3"
   style="fill:#ffffff" />

	</g>

	<g
   id="g9">
		<rect
   x="61.799999"
   y="61.799999"
   class="st0"
   width="1047.7"
   height="1047.7"
   id="rect3"
   style="fill:#ffffff" />

		<g
   id="g8">
			
				<radialGradient
   id="radialGradient6"
   cx="-4249.2959"
   cy="20521.629"
   r="151.5321"
   gradientTransform="translate(4852.2402,-19756.144)"
   gradientUnits="userSpaceOnUse">
				<stop
   offset="0.5225"
   style="stop-color:#FFE41B"
   id="stop1" />

				<stop
   offset="0.8933"
   style="stop-color:#716A13"
   id="stop2" />

				<stop
   offset="1"
   style="stop-color:#49482E"
   id="stop6" />

			</radialGradient>

			<path
   class="st1"
   d="m 460.1,790.3 c 0,-69.5 56.2,-125.8 125.5,-125.8 69.3,0 125.5,56.3 125.5,125.8 0,69.5 -56.2,125.8 -125.5,125.8 -69.3,0 -125.5,-56.3 -125.5,-125.8 z"
   id="path5"
   style="fill:url(#SVGID_1_)" />

			<g
   id="g7">
				<path
   class="st2"
   d="m 438,1034.5 c 0,-14.3 66.1,-25.9 147.6,-25.9 81.5,0 147.6,11.6 147.6,25.9 0,14.3 -66.1,25.9 -147.6,25.9 -81.5,0 -147.6,-11.6 -147.6,-25.9 z"
   id="path6"
   style="fill:#888888" />

				<polygon
   class="st3"
   points="585.6,139.7 732.6,287.1 585.6,434.4 438.6,287.1 "
   id="polygon6"
   style="fill:#ff0000" />

				<path
   class="st4"
   d="m 722.3,543.1 c 0,-35.4 -0.7,-70 -10.8,-82.6 -11.7,-14.7 -67.9,-19.3 -125.2,-19.3 h -1.4 c -57.4,0 -113.5,4.5 -125.2,19.3 -10,12.6 -10.8,47.2 -10.8,82.6 v 9.7 c 0,35.4 0.7,70 10.8,82.6 11.7,14.7 67.9,19.3 125.2,19.3 h 1.4 c 57.4,0 113.5,-4.5 125.2,-19.3 10,-12.6 10.8,-47.2 10.8,-82.6 z"
   id="path7"
   style="fill:#0000a0" />

			</g>

		</g>

	</g>

</g>
  </g>
</svg>
