<?xml version="1.0" encoding="UTF-8" standalone="no"?>
<!-- Created with Inkscape (http://www.inkscape.org/) -->

<svg
   width="1015.7354mm"
   height="117.89833mm"
   viewBox="0 0 1015.7354 117.89833"
   version="1.1"
   id="svg1"
   inkscape:version="1.3.2 (091e20e, 2023-11-25, custom)"
   sodipodi:docname="advision.svg"
   xmlns:inkscape="http://www.inkscape.org/namespaces/inkscape"
   xmlns:sodipodi="http://sodipodi.sourceforge.net/DTD/sodipodi-0.dtd"
   xmlns="http://www.w3.org/2000/svg"
   xmlns:svg="http://www.w3.org/2000/svg">
  <sodipodi:namedview
     id="namedview1"
     pagecolor="#ffffff"
     bordercolor="#000000"
     borderopacity="0.25"
     inkscape:showpageshadow="2"
     inkscape:pageopacity="0.0"
     inkscape:pagecheckerboard="0"
     inkscape:deskcolor="#d1d1d1"
     inkscape:document-units="mm"
     inkscape:zoom="0.40511539"
     inkscape:cx="1170.037"
     inkscape:cy="640.55824"
     inkscape:window-width="3840"
     inkscape:window-height="2054"
     inkscape:window-x="-11"
     inkscape:window-y="-11"
     inkscape:window-maximized="1"
     inkscape:current-layer="layer1" />
  <defs
     id="defs1" />
  <g
     inkscape:label="Layer 1"
     inkscape:groupmode="layer"
     id="layer1"
     transform="translate(402.96042,-89.429167)">
    <g
       id="g21"
       transform="matrix(0.26458333,0,0,0.26458333,-402.96042,89.429167)">
	<g
   id="g20">
		<g
   id="g2">
			<path
   class="st2"
   d="m 3156.2,437.9 c -39.7,0 -78.6,-11 -112.4,-31.7 l -7.2,-4.4 v 30.3 H 2878.1 V 426 l -6.3,2.3 c -17.3,6.3 -35.8,9.5 -54.9,9.5 -19.3,0 -37.9,-3.3 -55.3,-9.8 l -6.3,-2.4 v 6.5 H 2596.8 V 394 l -12.6,38.1 h -129.1 l -32.9,-90.2 h -105.4 v 90.2 h -311.5 l -14.9,-21 v 21 H 1831.9 V 420 l -6.6,3 c -21.8,9.8 -45.2,14.8 -69.5,14.8 -41.3,0 -80.1,-14.4 -109.3,-40.5 -3.9,-3.5 -7.8,-7.3 -11.3,-11.3 l -8.2,-9.1 V 432 h -270 l -57.7,-90.2 h -5.6 V 432 H 949 v -90 h -27 l -62.9,90.2 H 720.4 v -33.8 l -7.1,4.2 c -33.8,19.9 -72.7,29.6 -119.1,29.6 H 360.8 v -89.8 h -16.7 l -61.4,89.8 H 90 l 60.4,-88 H 14.4 L 171.1,115.9 h 136 L 377.5,13.4 h 218.4 c 45.2,0 84.7,10.1 117.4,30.1 l 7.1,4.4 V 13.3 H 879 V 118 h 5.7 L 958,13.3 h 314 l 60.9,95.2 V 13.3 h 650.4 c 24.4,0 46.6,3.1 65.9,9.3 l 6.1,2 V 13.3 h 417.3 l 36.6,104.7 h 13.5 l 33.1,-104.7 h 199.4 v 7.4 l 6.4,-2.6 c 17.4,-7 36,-10.5 55.2,-10.5 19.2,0 37.6,3.3 54.8,9.9 l 6.4,2.4 v -6.5 h 158.5 v 30.3 l 7.2,-4.4 c 33.8,-20.7 72.7,-31.7 112.4,-31.7 40.1,0 79,10.6 112.5,30.8 l 7.1,4.3 V 13.3 h 136.8 l 60.9,95.2 V 13.3 H 3632 v 102.5 h 192.6 L 3667.9,344.1 H 3632 v 88 H 3497.6 L 3440,342 h -5.6 v 90.2 H 3275.9 V 402 l -7.1,4.4 c -34,20.6 -72.8,31.5 -112.6,31.5 z"
   id="path1"
   style="fill:#ffffff" />

			<path
   class="st3"
   d="m 3156.2,15.2 c 38.8,0 76.3,10.3 108.6,29.7 l 18.6,11.2 V 34.3 20.9 h 125.1 l 50,78.2 16.9,26.5 h 5.7 V 92.5 20.9 h 143.4 v 90.2 12.3 h 12.3 173.5 L 3664,336.6 h -27.2 -12.3 v 12.3 75.7 h -122.6 l -57.7,-90.2 h -17.4 v 90.2 h -143.4 v -14.2 -21.9 l -18.7,11.4 c -32.6,19.9 -70.1,30.4 -108.5,30.4 -38.3,0 -75.9,-10.6 -108.5,-30.6 L 3029,388.2 v 21.9 14.3 h -143.4 v -9.3 l -16.5,6 c -16.5,6 -34.1,9.1 -52.3,9.1 -18.4,0 -36.1,-3.2 -52.6,-9.4 l -16.6,-6.2 v 9.8 h -143.4 v -1.3 -76.4 l -23.9,72.6 -1.7,5.1 h -118.4 l -30,-82.1 -2.9,-8.1 h -8.6 -97.4 -12.3 v 12.3 77.9 h -300 l -4.1,-5.8 -22.3,-31.3 v 37.1 h -143.4 v -16.2 l -17.3,7.8 c -20.8,9.4 -43.1,14.2 -66.4,14.2 -39.4,0 -76.4,-13.7 -104.2,-38.5 -3.7,-3.3 -7.4,-6.9 -10.7,-10.7 l -21.4,-23.8 v 32 35.3 H 1361 l -57.7,-90.2 h -17.4 v 90.2 H 956.6 V 334.3 H 918 l -62.9,90.2 H 728 v -18 -21.5 l -18.5,11 c -32.6,19.2 -70.3,28.6 -115.2,28.6 h -226 V 347.1 334.8 H 356 346.5 340 l -3.7,5.3 -57.7,84.4 H 104.4 l 47.2,-68.8 13.2,-19.2 H 141.5 28.8 L 175.1,123.3 h 129.5 6.5 l 3.7,-5.3 66.7,-97.2 H 596 c 43.8,0 81.9,9.7 113.4,28.9 L 728,61.3 V 39.4 20.9 h 143.4 v 104.7 h 17.2 L 961.9,20.9 h 305.9 l 50,78.2 16.9,26.5 h 5.7 V 92.5 20.9 h 642.8 c 23.6,0 45.1,3 63.6,9 l 16,5.1 V 20.9 h 404.3 l 36.6,104.7 h 24.5 l 33.1,-104.7 h 186.3 v 11 l 16.9,-6.8 c 16.5,-6.6 34.1,-10 52.4,-10 18.2,0 35.8,3.2 52.2,9.4 l 16.6,6.3 V 20.9 H 3029 v 14.3 21.9 l 18.7,-11.5 c 32.7,-19.9 70.2,-30.4 108.5,-30.4 m 0,-15.2 c -39.4,0 -78,10.4 -112,30.2 V 21 5.8 H 3029 2885.6 2870.4 V 9 c -17,-5.9 -35,-8.9 -53.6,-8.9 -18.8,0 -36.9,3.2 -54.1,9.6 V 5.8 h -15.2 -186.3 -11.1 l -3.3,10.6 -29.8,94.1 h -2.6 L 2481.3,16 2477.7,5.8 h -10.8 -404.3 -15.2 v 8.5 c -19.2,-5.7 -40.8,-8.5 -64.5,-8.5 h -642.8 -15.2 V 21 82.7 l -44.7,-69.9 -4.5,-7 h -8.3 -305.5 -7.9 l -4.5,6.5 -62.9,89.9 V 20.9 5.8 H 871.4 728 712.8 V 21 34.4 C 679.8,15.4 640.5,5.8 595.9,5.8 h -214.4 -8 l -4.5,6.6 -65.8,95.9 h -128 -8 l -4.5,6.6 L 16.3,328 0,351.8 H 28.8 136 L 91.9,416 75.6,439.7 h 28.8 174.3 8 l 4.5,-6.6 56.9,-83.2 h 5.1 v 74.6 15.2 h 15.2 225.9 c 45.8,0 84.7,-9.2 118.6,-28.2 v 13 15.2 H 728 855.1 863 l 4.5,-6.5 58.4,-83.7 h 15.5 v 75 15.2 h 15.2 329.5 15.2 V 424.5 359 l 47.1,73.7 4.5,7 h 8.3 258.2 15.2 v -15.2 -28 c 2.2,2.3 4.6,4.5 6.9,6.6 30.6,27.3 71.2,42.4 114.3,42.4 23.9,0 47,-4.6 68.6,-13.7 v 8 h 15.2 469.8 15.2 v -15.2 -75 h 92.5 l 29.3,80.2 3.6,10 h 10.6 118.4 11 14.7 143.4 15.2 v -3.2 c 17.1,5.9 35.3,8.9 54.1,8.9 18.6,0 36.6,-2.9 53.6,-8.6 v 2.9 h 15.2 142.8 15.2 v -15.2 -9.2 c 34,19.7 72.6,30.2 112,30.2 39.4,0 78.1,-10.4 112,-30.1 v 9.1 15.2 h 15.2 143.4 15.2 v -15.2 -65.5 l 47.1,73.7 4.5,7 h 8.3 122.6 15.2 v -15.2 -72.8 h 24.3 8 l 4.5,-6.6 146.2,-213.2 16.3,-23.7 h -28.8 -170.6 V 20.9 5.8 H 3624.4 3481 3465.8 V 21 82.7 l -44.7,-69.8 -4.5,-7 h -8.3 -125.1 -15.2 v 15.2 8.4 C 3234.6,10.1 3196,0 3156.2,0 Z"
   id="path2"
   style="fill:#0046b7" />

		</g>

		<g
   id="g19">
			<polygon
   class="st4"
   points="3656.9,319.3 59.1,319.3 181.6,140.8 3779.4,140.8 "
   id="polygon2"
   style="fill:#f20012" />

			<path
   class="st4"
   d="m 133.1,409.4 h 137.6 l 61.4,-89.8 h 51.4 v 89.8 h 79.3 33.8 97.7 c 59.5,0 106.3,-17.7 143.3,-54.1 2,-2 3.8,-4 5.6,-6.1 v 60.2 H 847.3 L 971.8,230.8 v 178.6 h 186.1 29.9 83.1 v -154 l 98.5,154 h 99.2 v -264 h 22.5 v 264 h 113 v -264 h 15.1 v 131.3 c 0,43.3 14.7,79.2 42.3,103.8 25,22.4 58.4,34.7 94.1,34.7 35.7,0 69.1,-12.3 94,-34.6 1.7,-1.5 3.2,-3.2 4.8,-4.8 v 33.7 h 113.1 v -69.4 l 49.4,69.4 h 61 80.9 135.2 V 300.1 H 2191 V 276 h 103 V 166.6 h -103 v -21.2 h 103 V 36.1 h -216 v 26.5 c -23.4,-17.8 -54.5,-26.5 -94.8,-26.5 h -91.1 -37.6 -75.5 v 239.4 c 0,30.4 -17.6,30.4 -23.4,30.4 -5.8,0 -23.4,0 -23.4,-30.4 V 36.1 h -69.7 -43.4 -150.7 -36 -77.1 v 150.2 l -96,-150.2 h -71.7 -29.9 -50.3 -139.7 L 856.2,200.7 V 36.1 h -113 V 99.9 C 710.2,58.2 659.5,36.1 595.9,36.1 H 496.5 462.7 389.4 L 166.5,360.8 m 0,0 -33.4,48.6"
   id="path3"
   style="fill:#f20012" />

			<path
   class="st4"
   d="m 3496.2,36.1 v 150.2 l -96,-150.2 H 3298.5 V 92 c -35,-38.1 -85.4,-61.6 -142.3,-61.6 -56.3,0 -107,24.2 -142.3,62.7 v -57 h -113 v 25 c -21.4,-19.3 -50.4,-30.8 -83.9,-30.8 -33.2,0 -62.9,12.7 -84.4,33.4 V 36.1 h -41.6 -71.4 -47 l -55.1,174.1 -61,-174.1 H 2334.7 L 2471,409.4 h 96.8 l 51.7,-156.8 v 156.8 h 113 v -24.1 c 22.1,18.9 51.2,29.9 84.4,29.9 33,0 62,-10.6 83.9,-28.9 v 23.1 h 113 v -57 c 35.3,38.5 86,62.7 142.3,62.7 56.3,0 107,-24.1 142.3,-62.5 v 56.7 h 113 v -154 l 98.5,154 h 99.2 V 36.1 Z"
   id="path4"
   style="fill:#f20012" />

			<g
   id="g18">
				<path
   class="st2"
   d="M 829.3,375.1 H 777.4 V 70.4 h 44.5 v 240.9 h 0.8 L 985.9,70.4 h 56 z"
   id="path5"
   style="fill:#ffffff" />

				<path
   class="st2"
   d="M 417.8,375.1 V 285.3 H 314 l -61.4,89.8 H 198.2 L 407.5,70.4 h 54.8 v 304.8 h -44.5 z m 0,-247.1 H 417 l -75,116.6 h 75.8 z"
   id="path6"
   style="fill:#ffffff" />

				<path
   class="st2"
   d="M 713.3,331.1 C 679.9,364 640,375.2 594.3,375.2 H 497.1 V 70.4 h 98.8 c 49,0 95.1,14.8 124.4,56 19.8,27.6 31.3,63 31.3,97.2 0,35.4 -12.8,81.9 -38.3,107.5 z M 698.1,177 C 680,132.9 642.5,111.1 595.5,111.1 h -54 v 223.2 h 53.1 c 69.2,0 112.4,-40.4 112.4,-110.8 0.1,-15.6 -3.2,-31.6 -8.9,-46.5 z"
   id="path7"
   style="fill:#ffffff" />

				<path
   class="st2"
   d="M 1006,375.1 V 70.4 h 147.5 v 40.8 h -103 V 201 h 103 v 40.8 h -103 v 92.7 h 103 v 40.8 H 1006 Z"
   id="path8"
   style="fill:#ffffff" />

				<path
   class="st2"
   d="M 2112.3,375.1 V 70.4 h 147.5 v 40.8 h -103 V 201 h 103 v 40.8 h -103 v 92.7 h 103 v 40.8 h -147.5 z"
   id="path9"
   style="fill:#ffffff" />

				<path
   class="st2"
   d="M 1388.2,375.1 1237.5,139.5 h -0.8 v 235.6 h -44.5 V 70.4 h 48.6 L 1389,302.2 h 0.8 V 70.4 h 44.5 v 304.8 h -46.1 z"
   id="path10"
   style="fill:#ffffff" />

				<path
   class="st2"
   d="m 1569.9,111.1 v 264 h -44.5 v -264 h -58.5 V 70.4 h 161.4 v 40.8 h -58.4 z"
   id="path11"
   style="fill:#ffffff" />

				<path
   class="st2"
   d="m 1827,355 c -19.4,17.3 -45.3,25.9 -71.3,25.9 -25.9,0 -51.9,-8.6 -71.3,-25.9 -22.7,-20.2 -30.9,-48.6 -30.9,-78.3 V 70.4 h 44.5 v 205.1 c 0,36.2 19.8,64.7 57.7,64.7 37.9,0 57.7,-28.4 57.7,-64.7 V 70.4 h 44.5 v 206.3 c 0,29.7 -8.3,58.1 -30.9,78.3 z"
   id="path12"
   style="fill:#ffffff" />

				<path
   class="st2"
   d="m 2034.7,255.7 c -9.1,3.3 -19.8,5.8 -29.7,5.8 l 85.3,113.7 h -55.6 L 1934.2,233.9 h -0.8 v 141.3 h -44.5 V 70.4 h 94.3 c 28.8,0 59.7,4.5 81.1,25.5 19.4,18.5 28,45.7 28,72.1 0,41.2 -18.1,73.7 -57.6,87.7 z m -54.4,-144.6 h -47 v 116.6 h 30.5 c 39.5,0 84,-11.1 84,-59.7 0.1,-38.7 -32.1,-56.9 -67.5,-56.9 z"
   id="path13"
   style="fill:#ffffff" />

				<path
   class="st2"
   d="M 2653.8,375.1 V 70.4 h 44.5 v 304.8 h -44.5 z"
   id="path14"
   style="fill:#ffffff" />

				<path
   class="st2"
   d="m 2816.9,380.9 c -55.6,0 -93.9,-40.8 -93.9,-96 h 44.5 c 0,29.7 17.3,55.2 49.4,55.2 30.5,0 49,-21.8 49,-51.5 0,-32.5 -23.5,-40 -49,-49.8 -47.4,-18.1 -85.3,-32.1 -85.3,-91.4 0,-47.4 38.7,-82.8 85.3,-82.8 50.7,0 87.3,33.4 87.3,84.8 h -44.5 c 0,-26.4 -16.5,-44.1 -42.8,-44.1 -22.2,0 -40.8,19.4 -40.8,41.6 0,64.7 134.3,25.9 134.3,141.7 0,54.8 -39.1,92.3 -93.5,92.3 z"
   id="path15"
   style="fill:#ffffff" />

				<path
   class="st2"
   d="m 3156.2,380.9 c -87.3,0 -158.6,-70.8 -158.6,-158.2 0,-88.1 70.8,-158.2 158.6,-158.2 89,0 158.6,70.4 158.6,159 0,87 -71.7,157.4 -158.6,157.4 z m 0,-275.5 c -47.4,0 -84.8,25.5 -103.4,68.8 -6.6,15.2 -10.7,31.7 -10.7,48.6 0,16.9 4.1,33.8 10.7,49.4 18.9,42.8 56.4,68 103.4,68 50.2,0 89,-28.8 106.3,-75.4 4.9,-12.8 7.8,-26.8 7.8,-40.8 0,-64.7 -47.8,-118.6 -114.1,-118.6 z"
   id="path16"
   style="fill:#ffffff" />

				<path
   class="st2"
   d="M 2935.1,375.1 V 70.4 h 44.5 v 304.8 h -44.5 z"
   id="path17"
   style="fill:#ffffff" />

				<path
   class="st2"
   d="M 3528.9,375.1 3378.2,139.5 h -0.8 v 235.6 h -44.5 V 70.4 h 48.6 l 148.3,231.9 h 0.8 V 70.4 h 44.5 v 304.8 h -46.2 z"
   id="path18"
   style="fill:#ffffff" />

				<polygon
   class="st2"
   points="2519,318.7 2432.1,70.4 2383.7,70.4 2494.9,375.1 2543,375.1 2643.5,70.4 2597.6,70.4 "
   id="polygon18"
   style="fill:#ffffff" />

			</g>

		</g>

	</g>

</g>
  </g>
</svg>
