<?xml version="1.0" encoding="UTF-8" standalone="no"?>
<!-- Created with Inkscape (http://www.inkscape.org/) -->

<svg
   width="1015.7354mm"
   height="129.2056mm"
   viewBox="0 0 1015.7354 129.2056"
   version="1.1"
   id="svg1"
   inkscape:version="1.3.2 (091e20e, 2023-11-25, custom)"
   sodipodi:docname="amigacd32.svg"
   xmlns:inkscape="http://www.inkscape.org/namespaces/inkscape"
   xmlns:sodipodi="http://sodipodi.sourceforge.net/DTD/sodipodi-0.dtd"
   xmlns="http://www.w3.org/2000/svg"
   xmlns:svg="http://www.w3.org/2000/svg">
  <sodipodi:namedview
     id="namedview1"
     pagecolor="#ffffff"
     bordercolor="#000000"
     borderopacity="0.25"
     inkscape:showpageshadow="2"
     inkscape:pageopacity="0.0"
     inkscape:pagecheckerboard="0"
     inkscape:deskcolor="#d1d1d1"
     inkscape:document-units="mm"
     inkscape:zoom="0.28645984"
     inkscape:cx="328.14373"
     inkscape:cy="-1237.5208"
     inkscape:window-width="3840"
     inkscape:window-height="2054"
     inkscape:window-x="-11"
     inkscape:window-y="-11"
     inkscape:window-maximized="1"
     inkscape:current-layer="layer1" />
  <defs
     id="defs1" />
  <g
     inkscape:label="Layer 1"
     inkscape:groupmode="layer"
     id="layer1"
     transform="translate(402.96042,-83.872917)">
    <g
       id="g12"
       transform="matrix(0.26458333,0,0,0.26458333,-402.96042,83.872917)">
	<g
   id="g11">
		<g
   id="g2">
			<path
   d="m 2299.2,488 c -50.4,0 -102.6,0.6 -151.9,-9.7 -39.5,-8.6 -64.8,-28.7 -72.8,-69.3 -7.5,-37.3 -5.7,-77.4 -5.7,-115.2 0,-22.9 0,-45.8 1.2,-68.2 1.1,-35 1.7,-72.8 28.7,-98 9.2,-8.6 20.1,-14.3 32.1,-18.3 50.4,-16.6 158.8,-14.9 212.1,-14.9 43.6,0 88.3,-1.2 131.2,6.9 17.2,3.4 32.7,9.2 46.4,20.1 30.4,23.5 30.4,68.8 30.4,103.2 0,4 -0.6,8.6 -0.6,12.6 H 2434 c -0.6,-10.3 -0.6,-29.2 -8.6,-36.1 -5.2,-4.6 -14.3,-6.3 -21.2,-6.9 -31,-4 -63.6,-4 -94.6,-4 -16.6,0 -32.7,0 -49.3,0.6 -17.2,0.6 -41.8,0.6 -56.2,11.5 -20.1,15.5 -18.3,68.8 -18.3,91.1 0,20.6 -2.3,72.8 17.2,87.1 7.4,5.2 15.5,8 24.6,9.2 24.6,3.4 51.6,2.9 76.8,2.9 h 59 c 21.2,0 62.5,3.4 72.2,-21.2 4,-10.3 4.6,-25.2 4.6,-36.1 h 116.3 c 0.6,9.2 1.1,18.9 1.1,28.1 0,32.7 -0.6,71.6 -26.9,95.1 -35.5,32.1 -137,29.8 -182.3,29.8 h -49.2 z"
   id="path1" />

			<path
   d="m 3111.2,360.2 c -2.3,30.9 -10.9,68.2 -34.4,90 -39.6,36.1 -131.2,32.1 -181.1,32.1 H 2609.1 V 100 h 284.8 c 21.8,0 43.6,0 65.3,0.6 59.6,1.2 121.5,6.3 143.3,71.6 12,36.1 10.9,76.2 10.9,113.5 0.1,24.6 -0.5,49.8 -2.2,74.5 z M 2891.7,195.7 H 2723.8 V 384.8 H 2886 c 13.8,0 26.9,-0.6 40.7,-1.1 16,-0.6 41.8,-1.1 55,-12 17.8,-14.9 17.2,-57.9 17.2,-79.1 0,-96.9 -17.2,-96.9 -107.2,-96.9 z"
   id="path2" />

		</g>

		<g
   id="g4">
			<path
   class="st0"
   d="m 3501.4,216.1 c -5.3,22 -24.7,32.6 -45.6,36.8 -19,3.8 -38.7,4.9 -58.1,5.3 -24.3,0.8 -48.2,1.1 -72.5,1.1 -29.6,0 -83.9,1.5 -107.5,-19.4 -18.6,-16.7 -16.7,-52 -16.7,-74.8 h 73.7 v 4.6 c 0,8.4 -1.1,19 6.1,25.1 6.5,5.3 27.3,4.6 35.3,4.6 11.8,0 23.9,0.4 35.7,0.4 13.7,0 27.3,-0.4 41,-0.8 19.4,-0.4 36.8,0.8 36.8,-22.4 0,-4.2 0,-9.5 -2.7,-12.9 -5.3,-8.3 -25.8,-7.6 -34.2,-8 -24.7,-0.8 -49,-1.1 -73.7,-0.8 v -54.3 h 58.5 c 10.6,0 23.5,0 34.2,-2.7 10.6,-2.7 12.9,-9.5 12.9,-19.7 0,-5.3 -0.8,-10.2 -4.9,-14 -8,-7.2 -61.9,-5.7 -73.3,-5.7 -11.8,0 -23.5,0.4 -35.3,0.4 -9.1,0 -23.5,-0.4 -30.8,6.1 -6.5,5.7 -4.9,18.6 -4.9,26.6 h -73.6 V 78.2 c 0,-11.8 0.4,-24.3 3.4,-35.7 6.1,-22.4 26.6,-32.6 47.8,-36.5 34.7,-6 74.9,-6 110.2,-6 16,0 31.5,0 47.5,0.8 24.7,0.8 55.1,1.1 74,19.7 13.3,12.9 14.8,34.5 14.8,52 0,32.7 -8.7,46.7 -41.4,53.5 6.8,1.9 14,3 20.5,5.7 24.7,9.5 25.8,32.3 25.8,55.4 0.1,9.6 -0.7,19.5 -3,29 z"
   id="path3"
   style="fill:#ff001f" />

			<path
   class="st0"
   d="m 3537.1,256.3 c 0,-9.9 -0.8,-20.1 -0.8,-30 0,-20.5 -0.4,-41 3,-61.1 6.8,-42.1 43.3,-47.5 79.7,-50.5 l 95.7,-7.6 c 12.2,-1.1 25.4,-1.1 37.2,-5.3 11,-3.8 11,-10.2 11,-20.9 0,-7.2 0,-15.2 -6.5,-19.7 -9.5,-7.2 -50.5,-5.3 -61.5,-5.3 -23.2,0 -48.2,-1.1 -71.4,2.7 -17.5,2.7 -15.6,15.2 -15.6,30.4 v 8.3 h -74.8 V 87 c 0,-20.9 0.4,-49.7 15.9,-66.1 17.5,-18.2 56.2,-19 79.4,-20.1 16.3,-0.8 32.7,-0.8 49,-0.8 h 7.2 l 62.7,0.4 c 24.3,0 55.4,0.4 73.7,19 14,14.4 14,43.3 14,61.9 0,19 -0.4,39.1 -11,55.8 -14,22.4 -53.9,25.4 -77.5,27 -18.2,1.1 -36.1,2.3 -54.3,3.4 -14.4,0.8 -28.9,1.9 -43.3,3 -6.5,0.4 -22.8,1.5 -28.9,3.8 -12.2,4.6 -12.2,12.9 -12.2,23.9 H 3839 v 58.1 z"
   id="path4"
   style="fill:#ff001f" />

		</g>

		<g
   id="g7">
			<g
   id="g6">
				<g
   id="g5">
					<path
   d="m 2440.1,335 c 0,10.9 -0.6,25.8 -4.6,36.1 -9.7,24.6 -51,21.2 -72.2,21.2 h -59 c -25.2,0 -52.2,0.6 -76.8,-2.9 -9.2,-1.1 -17.2,-4 -24.6,-9.2 -19.5,-14.3 -17.2,-66.5 -17.2,-87.1 0,-22.3 -1.7,-75.6 18.3,-91.1 14.3,-10.9 39,-10.9 56.2,-11.5 16.6,-0.6 32.7,-0.6 49.3,-0.6 31,0 63.6,0 94.6,4 6.9,0.6 16,2.3 21.2,6.9 8,6.9 8,25.8 8.6,36.1 h 116.3 c 0,-4 0.6,-8.6 0.6,-12.6 0,-34.4 0,-79.7 -30.4,-103.2 -13.8,-10.9 -29.2,-16.6 -46.4,-20.1 -43,-8 -87.7,-6.9 -131.2,-6.9 -53.3,0 -161.6,-1.7 -212.1,14.9 -12,4 -22.9,9.7 -32.1,18.3 -26.9,25.2 -27.5,63 -28.7,98 -1.2,22.4 -1.2,45.3 -1.2,68.2 0,37.8 -1.7,77.9 5.7,115.2 8,40.7 33.2,60.8 72.8,69.3 49.3,10.3 101.4,9.7 151.9,9.7 h 49.3 c 45.3,0 146.7,2.3 182.3,-29.8 26.4,-23.5 26.9,-62.5 26.9,-95.1 0,-9.2 -0.6,-18.9 -1.1,-28.1 h -116.4 z m 662.5,-162.8 c -21.8,-65.3 -83.7,-70.5 -143.3,-71.6 -21.8,-0.6 -43.6,-0.6 -65.3,-0.6 h -284.8 v 382.3 h 286.6 c 49.9,0 141.6,4 181.1,-32.1 23.5,-21.8 32.1,-59 34.4,-90 1.7,-24.6 2.3,-49.9 2.3,-74.5 -0.1,-37.3 1,-77.4 -11,-113.5 z m -120.9,199.5 c -13.2,10.9 -39,11.5 -55,12 -13.8,0.6 -26.9,1.1 -40.7,1.1 H 2723.8 V 195.7 h 167.9 c 90,0 107.2,0 107.2,96.9 0,21.2 0.6,64.1 -17.2,79.1 z"
   id="path5" />

				</g>

			</g>

		</g>

		<g
   id="g8">
			<path
   d="m 2299.2,488 c -50.4,0 -102.6,0.6 -151.9,-9.7 -39.5,-8.6 -64.8,-28.7 -72.8,-69.3 -7.5,-37.3 -5.7,-77.4 -5.7,-115.2 0,-22.9 0,-45.8 1.2,-68.2 1.1,-35 1.7,-72.8 28.7,-98 9.2,-8.6 20.1,-14.3 32.1,-18.3 50.4,-16.6 158.8,-14.9 212.1,-14.9 43.6,0 88.3,-1.2 131.2,6.9 17.2,3.4 32.7,9.2 46.4,20.1 30.4,23.5 30.4,68.8 30.4,103.2 0,4 -0.6,8.6 -0.6,12.6 H 2434 c -0.6,-10.3 -0.6,-29.2 -8.6,-36.1 -5.2,-4.6 -14.3,-6.3 -21.2,-6.9 -31,-4 -63.6,-4 -94.6,-4 -16.6,0 -32.7,0 -49.3,0.6 -17.2,0.6 -41.8,0.6 -56.2,11.5 -20.1,15.5 -18.3,68.8 -18.3,91.1 0,20.6 -2.3,72.8 17.2,87.1 7.4,5.2 15.5,8 24.6,9.2 24.6,3.4 51.6,2.9 76.8,2.9 h 59 c 21.2,0 62.5,3.4 72.2,-21.2 4,-10.3 4.6,-25.2 4.6,-36.1 h 116.3 c 0.6,9.2 1.1,18.9 1.1,28.1 0,32.7 -0.6,71.6 -26.9,95.1 -35.5,32.1 -137,29.8 -182.3,29.8 h -49.2 z"
   id="path7" />

			<path
   d="m 3111.2,360.2 c -2.3,30.9 -10.9,68.2 -34.4,90 -39.6,36.1 -131.2,32.1 -181.1,32.1 H 2609.1 V 100 h 284.8 c 21.8,0 43.6,0 65.3,0.6 59.6,1.2 121.5,6.3 143.3,71.6 12,36.1 10.9,76.2 10.9,113.5 0.1,24.6 -0.5,49.8 -2.2,74.5 z M 2891.7,195.7 H 2723.8 V 384.8 H 2886 c 13.8,0 26.9,-0.6 40.7,-1.1 16,-0.6 41.8,-1.1 55,-12 17.8,-14.9 17.2,-57.9 17.2,-79.1 0,-96.9 -17.2,-96.9 -107.2,-96.9 z"
   id="path8" />

		</g>

		<g
   id="g10">
			<g
   id="g9">
				<path
   id="path6187_00000036950643252405908690000014708133192391025571_"
   class="st0"
   d="m 394.4,467 c -0.1,-4.6 -1.3,-7.6 -3.8,-9.2 -2.5,-1.6 -5.8,-2.6 -10,-3 -14.2,-2.3 -22.7,-7.8 -25.4,-16.3 -2.7,-8.5 -4,-19.5 -3.9,-32.9 l -14.4,-276 c 0.1,-9.9 -0.9,-18.3 -2.8,-25 -1.9,-6.7 -8.3,-10.2 -19.4,-10.4 -10,0.3 -17.3,3.2 -21.9,8.8 -4.6,5.6 -9.3,12.2 -14,20 l -177,248.9 -29.9,42 c -5.9,9 -12.3,17.3 -19.2,25 -7,7.7 -15.9,12.5 -26.7,14.2 -6.2,0.5 -11.9,1.7 -17.4,3.6 -5.4,1.9 -8.3,6.4 -8.6,13.6 0.2,4.3 1.6,7.1 4.5,8.3 2.9,1.2 6.1,1.8 9.9,1.7 10.2,-0.1 20.6,-0.7 31,-1.7 10.4,-1 20.9,-1.5 31.5,-1.7 9.4,0.1 18.8,0.6 28.2,1.4 9.4,0.8 18.8,1.3 28.2,1.4 4.4,0.1 8.4,-0.9 12,-2.8 3.6,-1.9 5.5,-5.2 5.7,-9.9 -0.6,-6.8 -4.8,-10.8 -12.5,-11.9 -7.7,-1.1 -15.4,-2.6 -23.2,-4.5 -7.7,-1.9 -11.9,-7.5 -12.5,-16.7 1.4,-9.9 7.9,-24 19.5,-42.2 11.6,-18.3 20,-31.1 25.3,-38.5 h 110.6 c 0.6,11.6 1.2,23.3 1.8,35.1 0.6,11.8 0.9,23.5 1,35.1 -0.6,16.2 -4.9,25.7 -12.8,28.5 -7.9,2.8 -15.8,4.4 -23.7,4.7 -7.9,0.3 -12.2,4.9 -12.8,13.8 0.1,3.8 1.3,6.4 3.6,7.9 2.3,1.5 5.2,2.1 8.6,2.1 15.2,-0.1 30.5,-0.7 45.9,-1.7 15.4,-1 30.7,-1.5 45.9,-1.7 10.2,0.1 20.5,0.5 30.7,1.1 10.2,0.6 20.5,1 30.7,1.1 4.6,0.1 8.5,-0.6 11.9,-2.1 3.5,-1.7 5.3,-5 5.4,-10.1 z M 257.8,326 h -92.4 l 87.9,-128.3 z"
   style="fill:#ff001f" />

				<path
   id="path4766_00000057135961990062046790000006736091996389071005_"
   class="st0"
   d="m 1194.8,115.8 c -0.1,-3.3 -1.2,-5.8 -3.2,-7.5 -2.1,-1.7 -4.7,-2.5 -7.8,-2.5 -5,0 -9.8,0.3 -14.7,0.7 -4.8,0.4 -9.7,0.9 -14.7,1.5 -12.2,1.3 -24.6,2.1 -37.1,2.4 -12.5,0.3 -25.1,0.4 -37.5,0.3 -9.1,-0.1 -18.3,-0.5 -27.4,-1.1 -9.1,-0.6 -18.3,-1 -27.4,-1.1 -4.3,0 -8.2,1.2 -11.7,3.7 -3.4,2.4 -5.3,6 -5.5,10.7 1.6,8.3 7.8,12.3 18.8,11.8 11,-0.5 17.2,4.2 18.8,14.2 -0.1,2.8 -0.4,5.6 -1,8.6 -0.7,2.9 -1.4,5.8 -2.3,8.6 l -69.7,241.7 c -2.7,11.3 -5.6,21.1 -8.9,29.4 -3.3,8.3 -10.8,13.8 -22.6,16.5 -5.4,0.8 -11.7,2.1 -19,3.9 -7.3,1.8 -11.3,6 -12,12.7 0.2,3.8 1.6,6.5 4.4,8.2 2.8,1.6 5.9,2.4 9.4,2.4 11.9,-0.2 23.9,-0.9 36,-2.2 12.1,-1.3 24.3,-2 36.4,-2.2 13,0.1 26.1,0.6 39.3,1.4 13.2,0.8 26.2,1.3 39.3,1.4 5.4,0.4 11.5,0.2 18.5,-0.7 6.9,-0.9 10.8,-4.7 11.4,-11.5 -0.5,-7.1 -4.1,-10.9 -10.8,-11.3 -6.7,-0.5 -13.3,-1.5 -20,-3.2 -6.7,-1.7 -10.2,-7.9 -10.8,-18.7 0.1,-4.4 0.6,-9 1.7,-13.6 1.1,-4.6 2.4,-9.1 3.8,-13.6 l 69.7,-242.8 c 2.6,-10 5.6,-17.2 9.1,-21.8 3.5,-4.5 10.4,-7.8 20.7,-9.7 5.2,-0.7 10.8,-2.1 16.8,-4.4 6.2,-2.2 9.5,-6.3 10,-12.2 z"
   style="fill:#ff001f" />

				<path
   id="path4768_00000060022494794845248690000008782713768269356462_"
   class="st0"
   d="m 1558.6,118.6 c -0.8,-6 -6.8,-10.2 -18.2,-12.7 -11.3,-2.5 -23.2,-4 -35.7,-4.5 -12.5,-0.5 -20.9,-0.7 -25.2,-0.5 -46.2,0.1 -94.6,9.5 -145.1,28.1 -50.5,18.6 -93.6,45.9 -129.2,81.8 -35.6,35.9 -54.3,79.8 -55.9,131.7 0.7,33 10.2,60.2 28.6,81.7 18.4,21.5 41.6,37.5 69.6,48 28,10.5 56.9,15.7 86.5,15.7 18,0 36.2,-1.1 54.3,-3.2 18.2,-2.2 36,-5.3 53.5,-9.5 6.7,-1.3 12.4,-3.1 17.2,-5.2 4.8,-2.1 8.5,-6.5 11,-13.1 4.9,-13.9 9.2,-27.9 13.1,-42.1 3.8,-14.2 7.8,-28.4 11.8,-42.5 6.7,-20.1 14.6,-31.9 23.7,-35.4 9.1,-3.5 17.3,-5.1 24.3,-4.9 7.1,0.2 10.8,-4.2 11.2,-13.3 -0.2,-3.8 -1.6,-6.5 -4.4,-8.2 -2.8,-1.6 -5.9,-2.4 -9.4,-2.4 -13.8,0.2 -27.7,0.8 -41.6,1.9 -13.9,1.1 -27.9,1.8 -42,1.9 -13.3,-0.1 -26.5,-0.7 -39.8,-1.7 -13.3,-1 -26.5,-1.5 -39.8,-1.7 -4.4,-0.1 -8.7,0.7 -12.8,2.4 -4.1,1.7 -6.3,5.2 -6.6,10.3 0.5,6.3 4.2,9.7 11,10.4 6.8,0.7 13.7,2 20.5,4 6.8,2 10.5,8 11,18.2 -0.6,10.4 -3.8,24.6 -9.6,42.7 -5.8,18.1 -10.5,32.6 -14.2,43.6 -2.2,8.5 -5,14.5 -8.6,18 -3.6,3.6 -9.9,5.3 -19,5.2 -32.4,-0.7 -56.9,-11.2 -73.5,-31.5 -16.6,-20.3 -24.9,-46.1 -25,-77.5 0.3,-28.9 6.2,-57 18,-84.2 11.7,-27.2 27.7,-51.2 47.8,-71.8 19.9,-20 44.5,-37.1 73.8,-51.3 29.3,-14.2 58.1,-21.6 86.6,-22.3 13.5,-0.1 21.9,2.5 25,7.9 3.1,5.4 4.4,14.4 3.8,27 -0.1,3.3 -0.2,6.6 -0.6,10 -0.3,3.3 -0.5,6.6 -0.6,10 -0.2,5.5 0.7,10.5 2.7,15 2,4.5 6,6.9 12.2,7.1 6.8,-0.5 11.8,-3.9 15,-10.2 3.2,-6.3 5.6,-12.3 7.1,-18 1.4,-4.2 4.5,-13.6 9.2,-28.1 5.1,-14.1 7.7,-23.2 8.3,-26.8 z"
   style="fill:#ff001f" />

				<path
   id="path4770_00000071546016801618672180000017116160501629071291_"
   class="st0"
   d="m 1875.8,467 c -0.1,-4.6 -1.3,-7.6 -3.8,-9.2 -2.5,-1.6 -5.8,-2.6 -10,-3 -14.2,-2.3 -22.7,-7.8 -25.4,-16.3 -2.7,-8.5 -4,-19.5 -3.9,-32.9 l -14.4,-276 c 0.1,-9.9 -0.9,-18.3 -2.8,-25 -1.9,-6.7 -8.3,-10.2 -19.4,-10.4 -10,0.3 -17.3,3.2 -21.9,8.8 -4.6,5.6 -9.3,12.2 -14,20 l -177,248.9 -29.9,42 c -5.9,9 -12.3,17.3 -19.2,25 -7,7.7 -15.9,12.5 -26.7,14.2 -6.2,0.5 -11.9,1.7 -17.4,3.6 -5.4,1.9 -8.3,6.4 -8.6,13.6 0.2,4.3 1.6,7.1 4.5,8.3 2.8,1.2 6.1,1.8 9.9,1.7 10.2,-0.1 20.6,-0.7 31,-1.7 10.5,-1 20.9,-1.5 31.5,-1.7 9.4,0.1 18.8,0.6 28.2,1.4 9.4,0.8 18.8,1.3 28.2,1.4 4.4,0.1 8.4,-0.9 12,-2.8 3.6,-1.9 5.5,-5.2 5.7,-9.9 -0.6,-6.8 -4.8,-10.8 -12.5,-11.9 -7.7,-1.1 -15.4,-2.6 -23.2,-4.5 -7.7,-1.9 -11.9,-7.5 -12.5,-16.7 1.4,-9.9 7.9,-24 19.5,-42.2 11.6,-18.3 20,-31.1 25.3,-38.5 h 110.6 c 0.6,11.6 1.2,23.3 1.8,35.1 0.6,11.8 0.9,23.5 1,35.1 -0.6,16.2 -4.9,25.7 -12.8,28.5 -7.9,2.8 -15.8,4.4 -23.7,4.7 -7.9,0.3 -12.2,4.9 -12.8,13.8 0.1,3.8 1.3,6.4 3.6,7.9 2.3,1.5 5.2,2.1 8.6,2.1 15.2,-0.1 30.5,-0.7 45.9,-1.7 15.4,-1 30.7,-1.5 45.9,-1.7 10.2,0.1 20.5,0.5 30.7,1.1 10.2,0.6 20.5,1 30.7,1.1 4.6,0.1 8.5,-0.6 11.9,-2.1 3.5,-1.7 5.2,-5 5.4,-10.1 z M 1739.2,326 h -92.4 l 87.9,-128.3 z"
   style="fill:#ff001f" />

				<path
   id="path4764_00000124843297055538273880000004228376849068119427_"
   class="st0"
   d="m 960.4,118 c -0.1,-3.6 -1.2,-6.1 -3.3,-7.7 -2.1,-1.6 -4.9,-2.3 -8.3,-2.3 -11.6,0.1 -23.3,0.3 -35.1,0.8 -11.8,0.5 -23.5,0.8 -35.1,0.8 -6.2,-0.3 -15.4,-0.7 -27.7,-1 -12.3,-0.4 -20.6,1.1 -24.8,4.4 -0.8,1.2 -1.5,2.4 -2.2,3.9 -0.7,1.4 -1.4,2.7 -2.2,3.9 l -152.2,230 -6.1,-226.2 c 0.3,-4.3 0.1,-8 -0.5,-11.1 -0.6,-3.1 -3.4,-4.8 -8.4,-4.9 -12.7,0.1 -25.6,0.3 -38.4,0.7 -12.9,0.4 -25.7,0.3 -38.4,-0.1 -7.2,-0.3 -14.4,-0.8 -21.5,-1.3 -7.1,-0.5 -14.2,-0.8 -21.1,-0.9 -4.7,-0.2 -9.2,0.5 -13.6,1.9 -4.3,1.5 -6.6,4.9 -6.9,10.2 1.8,8.8 8.8,13.1 21,13 12.3,-0.1 19.3,4.2 21,13 -0.2,6.2 -1.5,12.5 -3.8,18.9 -2.3,6.5 -4.6,12.5 -6.7,18.1 -13.5,37.4 -26.9,74.8 -40.3,112.2 -13.4,37.4 -27.3,74.7 -41.5,111.8 -5.4,15.8 -10.7,26.9 -15.8,33.3 -5.2,6.3 -16.1,10.9 -32.8,13.8 -4.6,0.7 -8.7,2.1 -12.2,4.1 -3.5,2.1 -5.3,5.7 -5.5,10.8 0.2,4.6 1.8,7.5 4.8,8.8 3.1,1.3 6.6,1.9 10.6,1.7 9.7,-0.1 19.5,-0.3 29.3,-0.8 9.8,-0.5 19.6,-0.8 29.3,-0.8 9.1,0.1 18.1,0.6 27,1.4 8.9,0.8 17.8,1.3 26.6,1.4 4.1,0 8,-1 11.8,-3.1 3.7,-2.1 5.7,-5.5 5.9,-10.2 -0.6,-7.8 -4.9,-11.9 -12.9,-12.5 -8,-0.5 -16,-1.8 -24,-3.9 -8,-2 -12.3,-9.1 -12.9,-21.3 0.8,-17.4 7,-43.3 18.5,-77.7 11.5,-34.4 23.7,-67.7 36.4,-99.9 12.8,-32.3 21.4,-54 25.9,-65.2 l 6.1,263.3 c -0.2,8.1 0.7,14.6 2.6,19.3 1.9,4.7 7.3,7.2 16.2,7.3 9.1,-0.4 16.3,-3.5 21.5,-9.5 5.2,-6 10,-12.6 14.4,-19.8 l 177,-260.5 -58.6,220.1 c -1.8,9.5 -4.4,19 -8,28.6 -3.5,9.6 -10.5,15.6 -20.8,17.8 -5.9,0.4 -12.6,1.4 -20,2.9 -7.4,1.5 -11.4,6.1 -12.1,13.7 0.1,4.1 1.5,7 4.2,8.6 2.7,1.7 5.9,2.5 9.6,2.4 12.7,-0.2 25.6,-0.9 38.4,-2.2 12.9,-1.3 25.7,-2 38.4,-2.2 13.3,0.2 26.5,0.9 39.8,2.2 13.3,1.3 26.5,2 39.8,2.2 4.9,0.1 9.3,-0.7 13.2,-2.5 3.9,-1.8 5.9,-5.4 6.2,-10.8 -0.5,-6.7 -3.8,-10.5 -10,-11.5 -6.2,-1 -12.4,-2.5 -18.6,-4.4 -6.2,-1.9 -9.6,-7.5 -10,-16.7 0.1,-6.7 0.9,-13.5 2.4,-20.4 1.5,-6.9 3.1,-13.6 4.8,-20 l 56.4,-226.2 c 2,-9.9 4.5,-17.7 7.7,-23.3 3.1,-5.6 10,-9.1 20.5,-10.4 5.6,-0.3 11.1,-1.5 16.4,-3.5 5.4,-1.9 8.2,-6.1 8.6,-12.5 z"
   style="fill:#ff001f" />

			</g>

		</g>

	</g>

</g>
  </g>
</svg>
