<?xml version="1.0" encoding="UTF-8" standalone="no"?>
<!-- Created with Inkscape (http://www.inkscape.org/) -->

<svg
   width="1015.7354mm"
   height="240.90312mm"
   viewBox="0 0 1015.7354 240.90312"
   version="1.1"
   id="svg1"
   inkscape:version="1.3.2 (091e20e, 2023-11-25, custom)"
   sodipodi:docname="amstradcpc.svg"
   xmlns:inkscape="http://www.inkscape.org/namespaces/inkscape"
   xmlns:sodipodi="http://sodipodi.sourceforge.net/DTD/sodipodi-0.dtd"
   xmlns="http://www.w3.org/2000/svg"
   xmlns:svg="http://www.w3.org/2000/svg">
  <sodipodi:namedview
     id="namedview1"
     pagecolor="#ffffff"
     bordercolor="#000000"
     borderopacity="0.25"
     inkscape:showpageshadow="2"
     inkscape:pageopacity="0.0"
     inkscape:pagecheckerboard="0"
     inkscape:deskcolor="#d1d1d1"
     inkscape:document-units="mm"
     inkscape:zoom="0.40511539"
     inkscape:cx="713.377"
     inkscape:cy="1065.1286"
     inkscape:window-width="3840"
     inkscape:window-height="2054"
     inkscape:window-x="-11"
     inkscape:window-y="-11"
     inkscape:window-maximized="1"
     inkscape:current-layer="layer1" />
  <defs
     id="defs1" />
  <g
     inkscape:label="Layer 1"
     inkscape:groupmode="layer"
     id="layer1"
     transform="translate(402.96042,-28.045833)">
    <g
       id="g13"
       transform="matrix(0.26458333,0,0,0.26458333,-402.96042,28.045833)">
	<g
   id="g2">
		<rect
   y="0"
   class="st0"
   width="3839"
   height="910.5"
   id="rect1"
   style="fill:#5b5b5b"
   x="0" />

	</g>

	<g
   id="g12">
		<g
   id="g3">
			<path
   class="st1"
   d="M 2535.7,669.5 V 244.6 c 0,-61.9 31.9,-94.8 90.3,-94.8 h 255.8 v 155.7 h -64.6 V 211 h -175.3 c -26.5,0 -37.2,16.8 -37.2,50.4 v 391.3 c 0,33.7 10.6,50.4 37.2,50.4 h 175.3 v -101 h 64.6 V 764.2 H 2626 c -58.5,0 -90.3,-32.7 -90.3,-94.7 z"
   id="path1"
   style="fill:#ffffff" />

			<path
   class="st1"
   d="m 2918.1,703.2 h 54.1 V 211 h -54.1 v -61.1 h 293 c 58.5,0 90.3,32.8 90.3,94.8 v 140.8 c 0,61.9 -31.9,94.8 -90.3,94.8 h -169.9 v 223.1 h 55.8 v 61.1 h -178.9 z m 277,-284.2 c 26.5,0 37.2,-16.8 37.2,-50.4 V 261.4 c 0,-33.7 -10.6,-50.4 -37.2,-50.4 h -154 v 208 z"
   id="path2"
   style="fill:#ffffff" />

			<path
   class="st1"
   d="M 3342.9,669.5 V 244.6 c 0,-61.9 31.9,-94.8 90.3,-94.8 H 3689 v 155.7 h -64.6 V 211 H 3449 c -26.5,0 -37.2,16.8 -37.2,50.4 v 391.3 c 0,33.7 10.6,50.4 37.2,50.4 h 175.3 v -101 h 64.6 v 162.1 h -255.8 c -58.2,0 -90.2,-32.7 -90.2,-94.7 z"
   id="path3"
   style="fill:#ffffff" />

		</g>

		<g
   id="g11">
			<g
   id="g4">
				<polygon
   class="st2"
   points="1591.6,0 1140.7,910.5 1639.4,910.5 2076.9,0 "
   id="polygon3"
   style="fill:#c0214e" />

			</g>

			<g
   id="g10">
				<path
   class="st1"
   d="M 462,762.3 H 339.9 L 329.8,641.1 H 280.2 L 271,762.3 H 149.8 L 227,149.9 h 158.8 z m -156.9,-460 -17.4,237.8 h 35 z"
   id="path4"
   style="fill:#ffffff" />

				<path
   class="st1"
   d="M 873.4,762.3 H 756.8 v -347 L 710.9,762.4 H 635.6 L 587,413.4 v 349 H 470.4 V 149.9 h 170.8 l 30.1,270.9 32.2,-270.9 h 169.8 v 612.4 z"
   id="path5"
   style="fill:#ffffff" />

				<path
   class="st1"
   d="m 1064.3,360.1 v -72.5 c 0,-19.3 -0.9,-25.7 -2.8,-30.3 -3.7,-6.4 -9.2,-11.1 -15.6,-11.1 -6.4,0 -13.8,4.6 -16.5,11.1 -1.8,5.5 -2.8,10.1 -2.8,30.3 v 45 c 0,20.2 5.5,27.5 29.4,40.4 l 55.2,30.3 c 72.5,40.4 82.7,57 82.7,139.6 v 98.3 c 0,53.3 -3.7,70.7 -18.4,89.9 -20.2,27.5 -42.2,33.1 -137.7,33.1 -76.3,0 -97.4,-4.6 -117.6,-27.5 -12,-12.9 -17.4,-27.5 -20.2,-50.5 -1.8,-12 -1.8,-25.7 -1.8,-67 V 508.9 h 128.6 v 102.9 15.6 c 0,24.8 5.5,35 19.3,35 12,0 18.4,-10.1 18.4,-27.5 v -15.6 -67.9 l -0.9,-12.9 c -0.9,-22.9 -3.7,-27.5 -25.7,-39.5 -8.3,-4.6 -14.7,-7.3 -15.6,-8.3 l -54.2,-30.3 c -59.7,-34 -69.7,-53.3 -69.7,-129.5 v -71.6 c 0,-50.5 5.5,-72.5 24.8,-89.9 20.2,-18.4 44,-22.9 133.1,-22.9 78.1,0 99.2,5.5 118.5,31.2 15.6,20.2 19.3,39.5 19.3,96.4 v 86.3 h -129.7 v -0.1 h -0.1 z"
   id="path6"
   style="fill:#ffffff" />

				<path
   class="st1"
   d="M 1396.5,762.3 H 1267 V 249.1 h -65.2 v -99.2 h 258 v 99.2 h -63.3 z"
   id="path7"
   style="fill:#ffffff" />

				<path
   class="st1"
   d="m 1605.7,149.9 45.9,0.9 c 89.9,1.8 111.9,25.7 111.9,118.5 v 64.2 c 0,85.4 -12.9,114.7 -57.9,126.7 22,7.3 35,17.4 44,34 12,21.1 13.8,37.6 13.8,109.3 v 159 H 1634.8 V 578.7 c 0,-60.7 0,-59.7 -32.2,-60.7 -1.8,0 -2.8,0 -5.5,0 V 762.3 H 1467.8 V 149.9 Z m 0.8,256.1 c 24.8,0 28.4,-5.5 28.4,-45 v -66.1 l -0.9,-16.5 c 0,-22 -5.5,-28.4 -22.9,-28.4 h -8.3 -5.5 v 156.1 c 4.6,-0.1 7.3,-0.1 9.2,-0.1 z"
   id="path8"
   style="fill:#ffffff" />

				<path
   class="st1"
   d="m 2079.3,762.3 h -122.1 l -10.1,-121.2 h -49.5 l -9.2,121.2 h -121.2 l 77.2,-612.4 h 158.9 z m -157,-460 -17.4,237.8 h 35 z"
   id="path9"
   style="fill:#ffffff" />

				<path
   class="st1"
   d="m 2213.4,149.9 c 111.1,0 126.7,2.8 147.8,27.5 19.3,22 23.9,45.9 23.9,130.4 V 610 c 0,75.3 -2.8,95.5 -17.4,117.6 -17.4,25.7 -43.1,34 -106.5,34 l -65.2,0.9 H 2087.6 V 149.9 Z m 15.5,512.4 c 20.2,0 24.8,-6.4 24.8,-32.2 0,-3.7 0,-6.4 0,-12.9 0,-10.1 0,-21.1 0,-30.3 V 299.5 284 c 0,-27.5 -4.6,-34 -24.8,-34 -2.8,0 -7.3,0.9 -12,0.9 v 411.4 c 4.8,0 9.3,0 12,0 z"
   id="path10"
   style="fill:#ffffff" />

			</g>

		</g>

	</g>

</g>
  </g>
</svg>
