<?xml version="1.0" encoding="UTF-8" standalone="no"?>
<!-- Created with Inkscape (http://www.inkscape.org/) -->

<svg
   version="1.1"
   id="svg1"
   width="3839"
   height="872.11401"
   viewBox="0 0 3839 872.11401"
   sodipodi:docname="arduboy.svg"
   inkscape:version="1.3.2 (091e20e, 2023-11-25, custom)"
   xmlns:inkscape="http://www.inkscape.org/namespaces/inkscape"
   xmlns:sodipodi="http://sodipodi.sourceforge.net/DTD/sodipodi-0.dtd"
   xmlns="http://www.w3.org/2000/svg"
   xmlns:svg="http://www.w3.org/2000/svg">
  <defs
     id="defs1">
    <inkscape:path-effect
       effect="fillet_chamfer"
       id="path-effect14"
       is_visible="true"
       lpeversion="1"
       nodesatellites_param="F,0,0,1,0,100,0,1 @ F,0,0,1,0,100,0,1 @ F,0,0,1,0,100,0,1 @ F,0,0,1,0,100,0,1"
       radius="0"
       unit="px"
       method="auto"
       mode="F"
       chamfer_steps="1"
       flexible="false"
       use_knot_distance="true"
       apply_no_radius="true"
       apply_with_radius="true"
       only_selected="false"
       hide_knots="false" />
    <inkscape:path-effect
       effect="fillet_chamfer"
       id="path-effect9"
       is_visible="true"
       lpeversion="1"
       nodesatellites_param="F,0,0,1,0,100,0,1 @ F,0,0,1,0,100,0,1 @ F,0,0,1,0,100,0,1 @ F,0,0,1,0,100,0,1"
       radius="0"
       unit="px"
       method="auto"
       mode="F"
       chamfer_steps="1"
       flexible="false"
       use_knot_distance="true"
       apply_no_radius="true"
       apply_with_radius="true"
       only_selected="false"
       hide_knots="false" />
  </defs>
  <sodipodi:namedview
     id="namedview1"
     pagecolor="#ffffff"
     bordercolor="#000000"
     borderopacity="0.25"
     inkscape:showpageshadow="2"
     inkscape:pageopacity="0.0"
     inkscape:pagecheckerboard="true"
     inkscape:deskcolor="#d1d1d1"
     inkscape:zoom="0.31438253"
     inkscape:cx="2302.9269"
     inkscape:cy="-221.06826"
     inkscape:window-width="3840"
     inkscape:window-height="2054"
     inkscape:window-x="-11"
     inkscape:window-y="-11"
     inkscape:window-maximized="1"
     inkscape:current-layer="g14" />
  <g
     id="g14">
    <path
       style="fill:#ffffff;fill-rule:evenodd;stroke:#000000;stroke-width:0;stroke-dasharray:none"
       id="path10"
       width="880.38947"
       height="200"
       x="46.122154"
       y="0"
       inkscape:path-effect="#path-effect14"
       sodipodi:type="rect"
       d="m 146.12215,0 h 680.38947 a 100,100 45 0 1 100,100 100,100 135 0 1 -100,100 H 146.12215 A 100,100 45 0 1 46.122154,100 100,100 135 0 1 146.12215,0 Z"
       transform="matrix(4.3605701,0,0,4.3605701,-201.11889,0)" />
    <path
       style="fill:#8000ff;fill-opacity:1;stroke-width:4.05634"
       d="m 306.94853,698.19037 -11.85699,-11.857 V 519.48649 352.63962 l 56.30816,-59.60636 c 30.9694,-32.78349 70.02,-72.84017 86.77904,-89.01484 46.49636,-44.87519 40.01661,-47.43586 143.70415,56.78881 70.4857,70.85081 86.20671,88.72499 88.30073,100.39453 1.40124,7.80846 2.00137,84.88082 1.33373,171.27186 -1.16598,150.86608 -1.53466,157.3895 -9.32665,165.04025 -13.96657,13.71345 -27.51131,14.45945 -41.94943,2.31062 l -12.81122,-10.78 V 581.91198 474.7794 H 483.71154 359.993 v 107.67747 107.67755 l -9.95649,9.95648 c -13.39585,13.39587 -28.45582,12.73164 -43.08798,-1.90053 z m 275.12937,-290.94091 21.29579,-2.55794 v -14.697 c 0,-13.53884 -4.79479,-19.48372 -60.84521,-75.44071 l -60.84515,-60.74374 -60.84515,60.74374 c -59.40585,59.30678 -60.84518,61.15272 -60.84518,78.0339 v 17.29018 l 100.39453,-0.0367 c 55.21702,-0.0204 109.97767,-1.18632 121.69037,-2.59319 z m 220.95118,296.51332 c -6.83363,-2.87335 -14.39384,-8.90347 -16.80053,-13.40038 -2.99149,-5.58964 -4.37569,-85.66915 -4.37569,-253.14451 V 192.24945 l 10.46155,-9.83385 10.46155,-9.83386 122.13759,-1.18807 c 84.50155,-0.82198 125.56685,0.23233 133.26615,3.42148 6.1207,2.53526 30.4174,24.38945 53.9926,48.56487 l 42.8642,43.9553 v 93.23871 93.2387 l -41.2128,43.16572 c -22.667,23.74108 -46.65,45.97742 -53.2955,49.41398 l -12.0829,6.24831 53.2956,53.40555 c 49.1189,49.2202 53.2956,54.581 53.2956,68.40444 0,18.6807 -12.4698,31.54029 -30.5842,31.54029 -11.2682,0 -22.1318,-9.37685 -89.2906,-77.07052 l -76.4615,-77.07055 h -55.97296 -55.97288 v 66.38266 c 0,59.97035 -0.77421,67.36682 -8.01488,76.57185 -10.24311,13.02202 -20.14072,15.5049 -35.7104,8.95832 z m 259.72562,-248.36782 27.3802,-27.04593 v -66.94309 -66.94309 l -28.2928,-28.48979 -28.2927,-28.4898 -93.39756,1.15955 -93.39748,1.15954 v 124.17856 124.17855 l 94.30999,-2.85927 94.30995,-2.85926 z m 215.816,240.63959 -9.9565,-9.95648 V 436.72291 187.36777 l 10.6879,-8.40709 c 10.2999,-8.10201 15.3352,-8.4071 138.7435,-8.4071 h 128.0556 l 47.8483,47.8483 47.8484,47.84831 v 172.02212 172.0221 l -47.8484,47.84832 -47.8483,47.84829 h -128.787 -128.7871 z m 269.0186,-84.44893 29.307,-29.50383 V 438.07544 294.06904 l -29.5038,-29.30699 -29.5039,-29.30697 h -92.1866 -92.1863 v 202.81723 202.81723 h 92.3833 92.3833 z m 303.1102,88.93091 c -6.6929,-3.00429 -30.6702,-25.37499 -53.2825,-49.71265 l -41.1136,-44.25019 -3.0104,-203.00224 c -2.6911,-181.47985 -2.3262,-204.3251 3.4424,-215.4803 10.6596,-20.61347 35.5215,-24.24937 51.2599,-7.49648 l 9.4144,10.02109 1.8568,195.83838 1.8569,195.83838 26.8483,27.38032 26.8483,27.38032 h 65.1118 65.1118 l 29.3071,-29.50388 29.307,-29.50388 V 382.76276 187.50011 l 12.8112,-10.77998 c 15.1851,-12.77744 28.8982,-11.38796 42.9635,4.35322 l 9.1268,10.21434 v 207.33239 207.33238 l -48.5387,49.00522 -48.5387,49.0052 -84.3066,1.00805 c -63.7386,0.76207 -87.2754,-0.32432 -96.4757,-4.4544 z m 399.2429,-9.04702 -9.8338,-10.46519 -1.1356,-245.27492 -1.1358,-245.27494 11.9786,-11.97861 11.9787,-11.97861 h 126.7437 126.7436 l 49.0053,48.53555 49.0052,48.53556 1.3368,50.46496 1.3368,50.46495 -30.7453,33.38896 c -16.9099,18.36393 -30.7453,34.88601 -30.7453,36.71576 0,1.82979 13.6902,17.96577 30.4225,35.85775 l 30.4226,32.53095 v 48.74145 48.74149 l -27.8055,31.46239 c -15.2931,17.30431 -37.1192,40.13286 -48.5023,50.73007 l -20.6969,19.26766 H 2389.046 2259.7763 Z m 271.1696,-83.94023 29.307,-29.50388 v -26.17545 -26.17546 l -29.307,-29.50387 -29.307,-29.50389 h -92.1439 c -54.4274,0 -93.1281,1.59226 -94.5482,3.89002 -1.3223,2.13951 -1.1463,40.47198 0.391,85.18321 l 2.7953,81.2932 h 91.7529 91.753 z m 0.2269,-235.75433 29.0799,-29.99026 v -23.85148 -23.85145 l -31.6068,-31.42137 -31.6067,-31.42136 -91.0976,1.09394 -91.0978,1.09395 -1.0964,84.16913 -1.0965,84.16915 h 94.7209 94.7209 z m 254.7612,281.83985 -49.2304,-48.76618 -1.1482,-165.27943 c -0.7903,-113.76062 0.2466,-168.64754 3.3276,-176.08486 2.4616,-5.943 24.1535,-30.19632 48.204,-53.89627 l 43.7283,-43.09082 h 90.9232 90.9233 l 48.6127,48.73535 48.6128,48.73538 1.1913,162.95468 c 0.8088,110.6197 -0.2235,166.37029 -3.2139,173.58974 -2.4228,5.84922 -24.4342,30.60579 -48.9143,55.01455 l -44.5092,44.37959 -89.6384,1.23717 -89.6384,1.23725 z m 232.0968,-50.21707 29.8339,-29.23788 -2.697,-144.00023 -2.6973,-144.00022 -27.0279,-27.38034 -27.028,-27.38032 h -64.9149 -64.9149 l -29.5039,29.30697 -29.5039,29.30699 v 141.98384 141.98382 l 31.4367,31.93725 31.4367,31.9373 62.8733,-2.60963 62.8733,-2.60966 z m 374.7014,91.76572 c -2.8357,-1.1409 -7.8554,-7.29489 -11.155,-13.67556 -4.872,-9.42156 -5.9991,-32.76155 -5.9991,-124.23345 V 444.62205 l -77.0705,-77.44002 -77.0707,-77.44004 v -52.80261 c 0,-51.03207 0.3394,-53.12102 10.1079,-62.29844 14.1435,-13.28708 33.0915,-12.6398 45.2948,1.54729 8.4696,9.84646 9.4988,15.07933 9.4988,48.29053 v 37.24742 l 61.0736,61.169 61.0735,61.16902 60.5443,-61.12145 60.5444,-61.12142 0.072,-37.83322 c 0.069,-36.36367 0.5328,-38.29377 11.9297,-49.69022 6.5212,-6.52135 14.826,-11.85701 18.4547,-11.85701 10.026,0 29.2324,11.04077 32.0698,18.43529 1.3859,3.61147 2.5198,29.58369 2.5198,57.71606 v 51.14976 l -77.0705,77.44004 -77.0706,77.44002 v 117.80839 117.80839 l -9.3881,8.81976 c -8.8524,8.31629 -26.0574,11.05452 -38.3593,6.10486 z"
       id="path11" />
  </g>
</svg>
