<?xml version="1.0" encoding="UTF-8" standalone="no"?>
<!-- Created with Inkscape (http://www.inkscape.org/) -->

<svg
   width="1015.7354mm"
   height="185.8698mm"
   viewBox="0 0 1015.7354 185.8698"
   version="1.1"
   id="svg1"
   inkscape:version="1.3.2 (091e20e, 2023-11-25, custom)"
   sodipodi:docname="astrocade.svg"
   xmlns:inkscape="http://www.inkscape.org/namespaces/inkscape"
   xmlns:sodipodi="http://sodipodi.sourceforge.net/DTD/sodipodi-0.dtd"
   xmlns="http://www.w3.org/2000/svg"
   xmlns:svg="http://www.w3.org/2000/svg">
  <sodipodi:namedview
     id="namedview1"
     pagecolor="#ffffff"
     bordercolor="#000000"
     borderopacity="0.25"
     inkscape:showpageshadow="2"
     inkscape:pageopacity="0.0"
     inkscape:pagecheckerboard="0"
     inkscape:deskcolor="#d1d1d1"
     inkscape:document-units="mm"
     inkscape:zoom="0.40511539"
     inkscape:cx="920.72533"
     inkscape:cy="568.97369"
     inkscape:window-width="3840"
     inkscape:window-height="2054"
     inkscape:window-x="-11"
     inkscape:window-y="-11"
     inkscape:window-maximized="1"
     inkscape:current-layer="layer1" />
  <defs
     id="defs1" />
  <g
     inkscape:label="Layer 1"
     inkscape:groupmode="layer"
     id="layer1"
     transform="translate(402.96042,-55.5625)">
    <g
       id="g6"
       transform="matrix(0.26458333,0,0,0.26458333,-402.96042,55.5625)">
	<path
   d="m 3720.9,118 v 15 h -29.5 v 19.9 h -29.5 v 24.8 0.1 h -0.1 -29.5 v 29.7 h -29.5 v 34.6 h -29.5 v 39.6 h -29.5 v 257.2 h 29.5 v 39.6 h 29.5 V 613 l 29.5,0.1 v 29.7 h 29.6 v 24.8 h 29.5 v 19.9 h 29.5 v 15 H 3839 V 538.8 h -88.6 V 519 h -29.5 v -19.8 h -29.5 V 479.5 H 3839 V 341.1 h -147.6 v -19.8 h 29.5 v -19.8 h 29.5 V 281.7 H 3839 V 118 Z"
   id="path1" />

	<polygon
   points="3241.4,479.4 3211.9,479.4 3211.9,341.1 3241.4,341.1 3241.4,301.5 3270.9,301.5 3270.9,281.7 3344.7,281.7 3344.7,118 3241.4,118 3241.4,133 3211.9,133 3211.9,152.9 3182.3,152.9 3182.3,177.7 3152.8,177.8 3152.8,207.5 3123.3,207.5 3123.3,242.1 3093.8,242.1 3093.8,281.7 3064.2,281.7 3064.2,538.8 3093.8,538.8 3093.8,578.4 3123.3,578.4 3123.3,612.9 3152.8,613 3152.8,642.7 3182.3,642.7 3182.3,667.5 3211.9,667.5 3211.9,687.4 3241.4,687.4 3241.4,702.4 3374.2,702.4 3374.2,687.4 3403.7,687.4 3403.8,667.5 3433.3,667.5 3433.3,642.7 3462.7,642.7 3462.7,613 3492.2,612.9 3492.2,578.4 3521.7,578.4 3521.7,0 3374.2,0 3374.2,499.2 3374.2,519 3344.7,519 3344.7,538.8 3270.9,538.8 3270.9,519 3241.4,519 "
   id="polygon1" />

	<path
   d="m 3012.6,242.1 -0.1,-34.6 H 2983 v -29.7 l -29.5,-0.1 V 152.9 H 2924 V 133 h -29.5 v -15 h -132.9 v 15 h -29.5 v 19.9 h -29.5 v 24.9 h -29.5 v 29.7 h -29.6 v 34.6 H 2614 v 39.6 h -29.5 v 257.2 h 29.5 v 39.6 h 29.5 V 613 l 29.6,0.1 v 29.7 h 29.5 v 24.8 h 29.5 v 19.9 h 29.5 v 15 H 2865 V 538.8 h -73.9 V 519 h -29.5 v -39.6 h -29.5 V 341.1 h 29.5 v -39.6 h 29.5 v -19.8 h 73.9 v 19.8 h 29.5 v 401 h 147.6 V 242.1 Z"
   id="path2" />

	<polygon
   points="2326.3,207.5 2326.3,242.1 2296.7,242.1 2296.7,281.7 2267.2,281.7 2267.2,538.8 2296.7,538.8 2296.7,578.4 2326.3,578.3 2326.3,578.4 2326.3,612.9 2355.8,613 2355.8,642.7 2385.3,642.7 2385.3,667.5 2414.8,667.5 2414.8,687.4 2444.3,687.4 2444.3,702.4 2562.4,702.4 2562.4,538.8 2473.8,538.8 2473.8,538.8 2473.8,519 2444.3,519 2444.3,479.4 2414.8,479.4 2414.8,341.1 2444.3,341.1 2444.3,301.5 2473.8,301.5 2473.8,281.7 2562.4,281.7 2562.4,118 2444.3,118 2444.3,133 2414.8,133 2414.8,152.9 2385.3,152.9 2385.3,177.8 2355.8,177.8 2355.8,207.5 "
   id="polygon2" />

	<path
   class="st1"
   d="m 1802.3,207.5 v 34.6 l -29.5,0.1 v 39.5 h -29.5 v 257.2 h 29.5 v 39.6 h 29.5 V 613 h 29.6 v 0.1 29.7 h 29.5 v 24.8 h 29.5 v 19.9 h 29.5 v 15 H 2068 v -15 h 29.5 l 0.1,-19.9 h 29.5 v -24.8 h 29.5 V 613 l 29.5,-0.1 v -34.5 h 29.5 v -39.6 h 29.5 V 281.7 h -29.5 v -39.5 l -29.5,-0.1 v -34.6 h -29.5 V 177.8 H 2127 V 153 h -29.5 l -0.1,-20 h -29.5 v -15 h -147.6 v 15 h -29.5 v 19.9 l -29.5,0.1 v 24.8 h -29.5 v 29.7 m 265.6,271.9 h -29.5 V 519 h -29.5 v 19.8 h -88.6 V 519 h -29.5 v -39.6 h -29.5 V 341.1 h 29.5 v -39.6 h 29.5 v -19.7 h 88.6 v 19.7 h 29.5 v 39.6 h 29.5 z"
   id="path3"
   style="fill:#eec21a" />

	<polygon
   class="st1"
   points="1706.4,242.1 1706.4,207.5 1676.8,207.5 1676.8,177.8 1647.3,177.8 1647.3,153 1617.8,152.9 1617.8,133 1588.3,133 1588.3,118 1485,118 1484.9,133 1455.4,133 1455.4,152.9 1425.9,153 1425.9,177.8 1396.4,177.8 1396.4,207.5 1366.9,207.5 1366.9,242.1 1337.4,242.2 1337.4,702.4 1484.9,702.4 1484.9,281.7 1573.5,281.8 1573.5,360.8 1544,360.8 1544,380.6 1514.5,380.6 1514.5,502.1 1601.6,702.4 1749.2,702.4 1637.1,444.6 1676.8,444.6 1676.8,413.9 1676.9,413.9 1706.4,413.9 1706.4,375.4 1721.2,375.4 1721.2,242.2 "
   id="polygon3"
   style="fill:#eec21a" />

	<polygon
   class="st1"
   points="1239.7,207.4 1239.7,177.7 1210.2,177.7 1210.2,152.9 1180.7,152.9 1180.7,63.7 1033.2,63.7 1033.2,152.9 1003.7,152.9 1003.6,177.8 974.1,177.8 974.1,207.5 944.6,207.5 944.6,261.9 1034.9,261.9 1034.9,538.8 1064.4,538.8 1064.4,578.4 1093.9,578.4 1093.9,612.9 1123.4,613 1123.4,642.7 1152.8,642.7 1152.8,667.5 1182.3,667.5 1182.4,687.4 1211.9,687.4 1211.9,702.4 1315.3,702.4 1315.3,538.8 1241.4,538.8 1241.4,519 1211.9,519 1211.9,479.4 1182.4,479.4 1182.3,261.9 1269.2,261.9 1269.2,207.5 "
   id="polygon4"
   style="fill:#eec21a" />

	<polygon
   class="st1"
   points="774.9,133 774.8,118 745.3,118 627.2,118 627.2,133 597.7,133 597.7,152.9 568.2,153 568.2,177.8 538.7,177.8 538.7,207.5 509.2,207.5 509.2,242.1 479.6,242.2 479.6,380.7 509.1,380.7 509.2,380.6 509.2,420.1 538.7,420.1 538.7,459.7 745.3,459.7 745.3,479.4 774.8,479.4 774.9,519 745.3,519 745.3,538.7 656.8,538.7 656.7,519 627.2,519 627.2,499.2 479.6,499.2 479.6,578.4 509.1,578.4 509.2,612.9 538.7,613 538.7,642.7 568.2,642.7 568.2,667.5 597.7,667.5 597.7,687.4 627.2,687.4 627.2,702.4 774.8,702.4 774.9,687.4 804.4,687.4 804.4,667.5 833.9,667.5 833.9,642.7 863.4,642.7 863.4,612.9 892.9,612.9 893,578.3 922.5,578.3 922.5,439.8 893,439.8 892.9,400.3 863.4,400.3 863.4,360.8 656.8,360.8 656.7,341.1 627.2,341.1 627.2,301.5 656.7,301.5 656.8,281.8 745.3,281.7 745.3,301.5 774.8,301.5 774.9,321.3 922.5,321.3 922.5,242.1 892.9,242.1 892.9,207.5 863.4,207.5 863.4,177.8 833.9,177.7 833.9,152.9 804.4,152.9 804.4,133 "
   id="polygon5"
   style="fill:#eec21a" />

	<polygon
   class="st1"
   points="310,133 310,118 177.1,118 177.1,133 147.6,133 147.6,152.9 118.1,153 118.1,177.8 88.6,177.8 88.6,207.5 59,207.5 59,242.1 29.5,242.2 29.5,281.7 0,281.7 0,538.8 29.5,538.8 29.5,538.8 29.5,578.4 59,578.4 59,612.9 88.6,612.9 88.6,613 88.6,642.7 118.1,642.7 118.1,667.5 147.6,667.5 147.6,687.4 177.1,687.4 177.1,702.4 280.5,702.4 280.5,538.8 206.6,538.8 206.6,538.8 206.6,519 177.1,519 177.1,479.4 147.6,479.4 147.6,341.1 177.1,341.1 177.1,301.5 206.6,301.5 206.7,281.8 280.5,281.7 280.5,301.5 310,301.5 310,702.5 457.5,702.5 457.5,242.1 428,242.1 428,207.5 398.5,207.5 398.4,177.8 369,177.8 369,152.9 339.5,152.9 339.5,133 "
   id="polygon6"
   style="fill:#eec21a" />

</g>
  </g>
</svg>
