<?xml version="1.0" encoding="UTF-8" standalone="no"?>
<!-- Created with Inkscape (http://www.inkscape.org/) -->

<svg
   width="1016mm"
   height="216.4207mm"
   viewBox="0 0 1016 216.4207"
   version="1.1"
   id="svg1"
   inkscape:version="1.3.2 (091e20e, 2023-11-25, custom)"
   sodipodi:docname="atarilynx.svg"
   xmlns:inkscape="http://www.inkscape.org/namespaces/inkscape"
   xmlns:sodipodi="http://sodipodi.sourceforge.net/DTD/sodipodi-0.dtd"
   xmlns="http://www.w3.org/2000/svg"
   xmlns:svg="http://www.w3.org/2000/svg">
  <sodipodi:namedview
     id="namedview1"
     pagecolor="#ffffff"
     bordercolor="#000000"
     borderopacity="0.25"
     inkscape:showpageshadow="2"
     inkscape:pageopacity="0.0"
     inkscape:pagecheckerboard="0"
     inkscape:deskcolor="#d1d1d1"
     inkscape:document-units="mm"
     inkscape:zoom="0.28645984"
     inkscape:cx="1424.2834"
     inkscape:cy="1380.6473"
     inkscape:window-width="3840"
     inkscape:window-height="2054"
     inkscape:window-x="-11"
     inkscape:window-y="-11"
     inkscape:window-maximized="1"
     inkscape:current-layer="layer1" />
  <defs
     id="defs1" />
  <g
     inkscape:label="Layer 1"
     inkscape:groupmode="layer"
     id="layer1"
     transform="translate(402.96042,-40.216667)">
    <g
       id="g11"
       transform="matrix(0.26458333,0,0,0.26458333,-402.96042,40.216133)">
	<g
   id="g4">
		<rect
   id="rect5539_3_"
   x="1.09"
   y="387.29999"
   class="st0"
   width="245.22"
   height="303.72"
   style="fill:#ffcc00" />

		<rect
   id="rect5541_3_"
   y="725.73999"
   class="st0"
   width="620.65997"
   height="92.230003"
   style="fill:#ffcc00"
   x="0" />

		<path
   id="path5543_3_"
   class="st1"
   d="m 550.64,387.3 h 344 l 219.61,165.48 -168.72,108.4 z"
   style="clip-rule:evenodd;fill:#ffcc00;fill-rule:evenodd" />

		<path
   id="path5547_3_"
   class="st1"
   d="m 1752.14,387.3 670.31,430.67 h 138.67 V 387.3 H 2438.51 V 687.76 L 1986.15,387.3 Z"
   style="clip-rule:evenodd;fill:#ffcc00;fill-rule:evenodd" />

		<path
   id="path5549_11_"
   class="st1"
   d="m 1749.1,433.37 265.76,170.75 v 213.85 h -266.9 z"
   style="clip-rule:evenodd;fill:#ffcc00;fill-rule:evenodd" />

		<path
   id="path5549_10_"
   class="st1"
   d="M 1446.76,387.3 972.14,692.24 v 125.73 h 247.45 V 681.25 l 424.4,-293.95 z"
   style="clip-rule:evenodd;fill:#ffcc00;fill-rule:evenodd" />

		<path
   id="path5549_9_"
   class="st1"
   d="M 1760.44,392.62 2026.2,563.37"
   style="clip-rule:evenodd;fill:#ffcc00;fill-rule:evenodd" />

		<g
   id="g2">
			<path
   id="path5551-7_7_"
   class="st1"
   d="m 3431.99,817.97 -518.03,-226.35 115.34,-42.23 190.8,83.33 88.84,-32.52 498.38,217.76 h -371.72 -3.61 z"
   style="clip-rule:evenodd;fill:#ffcc00;fill-rule:evenodd" />

			<path
   id="path5553-8_7_"
   class="st2"
   d="m 3203.98,753.85 -153.84,-67.22 -360.95,131.34 h 339.6 z"
   style="clip-rule:evenodd;fill:#ff0000;fill-rule:evenodd" />

		</g>

		<g
   id="g3">
			<path
   id="path5551-7_6_"
   class="st2"
   d="m 3097.2,387.25 518.03,226.35 -115.34,42.23 -190.8,-83.33 -88.84,32.52 -498.38,-217.76 h 371.73 3.6 z"
   style="clip-rule:evenodd;fill:#ff0000;fill-rule:evenodd" />

			<path
   id="path5553-8_6_"
   class="st1"
   d="M 3325.21,451.38 3479.05,518.6 3840,387.25 h -339.6 z"
   style="clip-rule:evenodd;fill:#ffcc00;fill-rule:evenodd" />

		</g>

	</g>

	<g
   id="g10">
		<g
   id="g5">
			<path
   class="st3"
   d="m 1476.66,0.58 c 6.72,-0.02 13.44,0 20.16,-0.02 0.03,15.8 0,31.61 0.01,47.41 0.07,13.19 -0.3,26.38 -0.85,39.56 -0.9,19.03 -2.09,38.1 -5.24,56.91 -2.16,12.97 -6.65,25.48 -12.22,37.35 -9.08,19.14 -23.34,35.33 -39.38,48.95 -14.35,12.62 -31.47,21.82 -49.48,28.04 -10.19,3.5 -20.67,6.22 -31.35,7.72 0.01,-13.25 0.01,-26.52 0,-39.77 12.85,-1.93 25.21,-6.49 36.68,-12.52 13.62,-7.2 25.87,-16.88 36.19,-28.3 10.65,-11.79 19.15,-25.43 25.59,-39.91 7.59,-16.66 11.65,-34.65 14.41,-52.67 3.46,-22.9 4.9,-46.07 5.44,-69.22 0.08,-7.85 0.01,-15.69 0.04,-23.53 z"
   id="path3"
   style="fill:#ff0000" />

			<path
   class="st3"
   d="m 1504.93,0.61 c 12.37,-0.08 24.75,-0.01 37.12,-0.03 0,88.64 0,177.28 0,265.92 -12.34,0.03 -24.69,-0.06 -37.04,0.05 -0.16,-28.26 -0.02,-56.53 -0.07,-84.79 -0.01,-60.4 0.03,-120.78 -0.01,-181.15 z"
   id="path4"
   style="fill:#ff0000" />

			<path
   class="st3"
   d="m 1550.31,0.57 c 6.68,0 13.37,-0.02 20.05,0 -0.22,27.03 0.7,54.1 3.93,80.95 2.64,20.86 6.35,41.87 14.66,61.3 7.87,18.8 19.23,36.27 34.02,50.36 14.13,13.47 31.24,23.82 49.84,29.79 5.19,1.66 10.5,2.96 15.89,3.75 -0.01,13.25 -0.01,26.5 0,39.74 -10.6,-1.44 -20.99,-4.17 -31.11,-7.61 -12.05,-4.19 -23.7,-9.61 -34.4,-16.58 -7.81,-5.03 -14.92,-11.04 -21.74,-17.31 -11.25,-10.37 -21.32,-22.16 -28.88,-35.51 -5.92,-10.39 -10.23,-21.63 -13.61,-33.09 -3.1,-11.51 -4.42,-23.41 -5.62,-35.25 -2.32,-25.58 -3.19,-51.29 -3.03,-76.96 0,-14.52 -0.01,-29.06 0,-43.58 z"
   id="path5"
   style="fill:#ff0000" />

		</g>

		<path
   class="st3"
   d="m 1810.68,11.56 c 10.34,-13.23 31.75,-15.49 44.44,-4.39 5.19,4.37 8.83,10.4 10.69,16.89 23.49,80.84 47.09,161.64 70.55,242.48 -13.86,0.01 -27.73,-0.03 -41.6,0.01 -6.54,-22.29 -12.92,-44.62 -19.38,-66.92 -26.81,-0.05 -53.61,-0.01 -80.42,-0.03 -6.56,22.3 -13.05,44.62 -19.49,66.96 -13.79,-0.05 -27.58,-0.01 -41.37,-0.03 22.32,-77.12 44.67,-154.23 67.09,-231.32 2.67,-8.05 3.68,-17.06 9.49,-23.65 m 24.48,49.53 c -9.83,33.49 -19.46,67.04 -29.24,100.55 19.49,0.09 38.97,0.04 58.44,0.04 -9.75,-33.53 -19.45,-67.06 -29.2,-100.59 z"
   id="path6"
   style="fill:#ff0000" />

		<path
   class="st3"
   d="m 2102.76,13.3 c 7.23,-10.48 21.19,-15.57 33.49,-12.33 11.26,2.59 19.87,12.29 22.85,23.22 23.47,80.78 47.03,161.53 70.49,242.31 -13.89,0.11 -27.76,0 -41.65,0.05 -6.46,-22.31 -12.84,-44.64 -19.35,-66.95 -26.77,0.01 -53.53,-0.05 -80.29,0.02 -6.4,22.32 -13,44.59 -19.39,66.92 -13.78,0.01 -27.54,-0.01 -41.32,0.01 22.31,-77.54 44.88,-155.01 67.37,-232.5 2.35,-6.99 3.26,-14.71 7.8,-20.75 m -3.38,148.38 c 19.41,0.03 38.8,0.02 58.21,0.02 -9.66,-33.6 -19.47,-67.16 -29.09,-100.75 -9.69,33.57 -19.47,67.13 -29.12,100.73 z"
   id="path7"
   style="fill:#ff0000" />

		<path
   class="st3"
   d="m 1905.32,0.56 c 50.16,0 100.31,0 150.46,0 0,13.54 0,27.05 0,40.58 -18.48,0.01 -36.93,-0.02 -55.39,0.01 0,75.13 0.01,150.26 -0.01,225.39 -13.22,0 -26.46,0 -39.68,0 0,-75.13 -0.01,-150.26 0.01,-225.39 -18.47,-0.04 -36.93,0 -55.4,-0.01 0.01,-13.53 0,-27.04 0.01,-40.58 z"
   id="path8"
   style="fill:#ff0000" />

		<path
   class="st3"
   d="m 2273.68,2.21 c 3.81,-1.32 7.88,-1.77 11.91,-1.67 15.82,0.05 31.63,0.01 47.44,0.02 26.63,0.49 52.05,17.01 63.58,40.99 7.98,15.57 8.8,33.67 6.79,50.74 -1.39,17.88 -8.89,35.75 -22.63,47.6 -7.25,6.46 -16.29,10.38 -24.07,16.15 -4.26,3.24 -4.48,9.56 -2.27,14.07 20.99,32.41 42.81,64.3 64.24,96.43 -15.67,0.03 -31.34,-0.04 -47.02,0.03 -20.51,-30.82 -40.82,-61.79 -61.25,-92.65 -6.01,-8.79 -7.64,-20.42 -4.05,-30.44 2.8,-7.69 9.53,-13.31 17.01,-16.22 14.28,-5.45 28.37,-14.01 36.28,-27.5 6.02,-10.13 5.7,-22.63 3,-33.72 -3.17,-14.39 -17.2,-25.72 -32.02,-25.22 -10.25,0.07 -20.49,-0.05 -30.72,0.05 -4.64,-0.11 -8.99,3.92 -8.93,8.61 -0.05,72.36 0.02,144.72 -0.02,217.07 -13.33,-0.03 -26.64,0 -39.97,-0.02 -0.03,-77.89 0.03,-155.79 -0.03,-233.69 0.08,-13.64 9.79,-26.48 22.73,-30.63 z"
   id="path9"
   style="fill:#ff0000" />

		<path
   class="st3"
   d="m 2439.62,0.56 c 14.02,0 28.03,0 42.06,0 -0.01,88.67 0.03,177.32 -0.03,265.99 -14,-0.04 -28.02,0 -42.04,-0.01 0.01,-88.67 0.01,-177.32 0.01,-265.98 z"
   id="path10"
   style="fill:#ff0000" />

	</g>

</g>
  </g>
</svg>
