<?xml version="1.0" encoding="UTF-8" standalone="no"?>
<!-- Created with Inkscape (http://www.inkscape.org/) -->

<svg
   width="1016.0264mm"
   height="133.0325mm"
   viewBox="0 0 1016.0264 133.0325"
   version="1.1"
   id="svg1"
   inkscape:version="1.3.2 (091e20e, 2023-11-25, custom)"
   sodipodi:docname="atari7800.svg"
   xmlns:inkscape="http://www.inkscape.org/namespaces/inkscape"
   xmlns:sodipodi="http://sodipodi.sourceforge.net/DTD/sodipodi-0.dtd"
   xmlns="http://www.w3.org/2000/svg"
   xmlns:svg="http://www.w3.org/2000/svg">
  <sodipodi:namedview
     id="namedview1"
     pagecolor="#ffffff"
     bordercolor="#000000"
     borderopacity="0.25"
     inkscape:showpageshadow="2"
     inkscape:pageopacity="0.0"
     inkscape:pagecheckerboard="0"
     inkscape:deskcolor="#d1d1d1"
     inkscape:document-units="mm"
     inkscape:zoom="0.40511539"
     inkscape:cx="1249.0268"
     inkscape:cy="-383.84126"
     inkscape:window-width="3840"
     inkscape:window-height="2054"
     inkscape:window-x="-11"
     inkscape:window-y="-11"
     inkscape:window-maximized="1"
     inkscape:current-layer="layer1" />
  <defs
     id="defs1" />
  <g
     inkscape:label="Layer 1"
     inkscape:groupmode="layer"
     id="layer1"
     transform="translate(402.96042,-82.020833)">
    <g
       id="g11"
       transform="matrix(0.26458333,0,0,0.26458333,-402.93396,82.020833)">
	<g
   id="g3">
		<g
   id="g2">
			<path
   id="path29_20_"
   class="st0"
   d="M 3364.9,81.6 C 3326.6,28.2 3270.4,0 3202.3,0 c -68.1,0 -124.4,28.2 -162.6,81.6 -32.2,44.9 -49.9,105.2 -49.9,169.8 0,125.1 65.7,251.4 212.6,251.4 146.9,0 212.6,-126.3 212.6,-251.4 -0.1,-64.7 -17.8,-125 -50.1,-169.8 z m -162.6,272.3 c -51.2,0 -56.8,-69.5 -56.8,-103.1 0,-33.2 5.6,-101.9 56.8,-101.9 51.2,0 56.8,68.7 56.8,101.9 0,33.6 -5.7,103.1 -56.8,103.1 z"
   style="fill:#ad0e0e" />

			<path
   id="path29_19_"
   class="st0"
   d="M 3790,81.6 C 3751.8,28.2 3695.5,0 3627.4,0 3559.3,0 3503,28.2 3464.8,81.6 c -32.2,44.9 -49.9,105.2 -49.9,169.8 0,125.1 65.7,251.4 212.6,251.4 146.9,0 212.5,-126.3 212.5,-251.4 0,-64.7 -17.7,-125 -50,-169.8 z m -162.6,272.3 c -51.2,0 -56.8,-69.5 -56.8,-103.1 0,-33.2 5.6,-101.9 56.8,-101.9 51.2,0 56.8,68.7 56.8,101.9 0,33.6 -5.6,103.1 -56.8,103.1 z"
   style="fill:#ad0e0e" />

			<polygon
   id="polygon33_10_"
   class="st0"
   points="2411,163.5 2251.8,492.4 2430.5,492.4 2640.8,9.1 2212.1,9.1 2212.1,163.5 "
   style="fill:#ad0e0e" />

			<path
   class="st0"
   d="m 2895.6,238.9 c 60.3,-22.2 100.9,-63.4 100.9,-110.7 C 2996.5,57.4 2905.6,0 2793.4,0 c -112.2,0 -203.2,57.4 -203.2,128.2 0,47.3 40.6,88.4 100.9,110.7 -66.4,23.8 -111.5,70.1 -111.5,123.4 0,77.6 95.7,140.5 213.7,140.5 118,0 213.7,-62.9 213.7,-140.5 0.1,-53.2 -45,-99.5 -111.4,-123.4 z M 2793.4,103.8 c 22.9,0 41.5,18.6 41.5,41.5 0,22.9 -18.6,41.5 -41.5,41.5 -22.9,0 -41.5,-18.6 -41.5,-41.5 0,-22.9 18.6,-41.5 41.5,-41.5 z m 0,284.5 c -27.4,0 -49.6,-22.2 -49.6,-49.6 0,-27.4 22.2,-49.6 49.6,-49.6 27.4,0 49.6,22.2 49.6,49.6 0,27.3 -22.2,49.6 -49.6,49.6 z"
   id="path1"
   style="fill:#ad0e0e" />

		</g>

	</g>

	<g
   id="g10">
		<g
   id="g9">
			<g
   id="g4">
				<path
   class="st0"
   d="m 215,9.1 c 12.2,0 24.4,0 36.6,0 0.1,28.7 0,57.4 0,86.1 0.1,24 -0.6,47.9 -1.5,71.9 -1.6,34.6 -3.8,69.2 -9.5,103.4 -3.9,23.6 -12.1,46.3 -22.2,67.9 -16.5,34.8 -42.4,64.2 -71.6,88.9 -26.1,22.9 -57.2,39.6 -89.9,50.9 -18.5,6.4 -37.6,11.3 -57,14 0,-24.1 0,-48.2 0,-72.2 23.4,-3.5 45.8,-11.8 66.6,-22.7 24.7,-13.1 47,-30.7 65.8,-51.4 19.4,-21.4 34.8,-46.2 46.5,-72.5 13.8,-30.3 21.2,-62.9 26.2,-95.7 6.3,-41.6 8.9,-83.7 9.9,-125.8 0.2,-14.3 0.1,-28.5 0.1,-42.8 z"
   id="path2"
   style="fill:#ad0e0e" />

				<path
   class="st0"
   d="m 266.4,9.2 c 22.5,-0.1 45,0 67.4,-0.1 0,161 0,322.1 0,483.1 -22.4,0 -44.9,-0.1 -67.3,0.1 -0.3,-51.4 0,-102.7 -0.1,-154.1 0,-109.6 0.1,-219.3 0,-329 z"
   id="path3"
   style="fill:#ad0e0e" />

				<path
   class="st0"
   d="m 348.8,9.1 c 12.1,0 24.3,0 36.4,0 -0.4,49.1 1.3,98.3 7.1,147.1 4.8,37.9 11.5,76.1 26.6,111.4 14.3,34.1 34.9,65.9 61.8,91.5 25.7,24.5 56.8,43.3 90.5,54.1 9.4,3 19.1,5.4 28.9,6.8 0,24.1 0,48.1 0,72.2 -19.3,-2.6 -38.1,-7.6 -56.5,-13.8 -21.9,-7.6 -43,-17.5 -62.5,-30.1 -14.2,-9.1 -27.1,-20 -39.5,-31.5 -20.4,-18.8 -38.7,-40.3 -52.5,-64.5 -10.8,-18.9 -18.6,-39.3 -24.7,-60.1 -5.6,-20.9 -8,-42.5 -10.2,-64 -4.2,-46.5 -5.8,-93.2 -5.5,-139.8 0.1,-26.5 0.1,-52.9 0.1,-79.3 z"
   id="path4"
   style="fill:#ad0e0e" />

			</g>

			<path
   class="st0"
   d="m 821.9,29.1 c 18.8,-24 57.7,-28.1 80.7,-8 9.4,7.9 16,18.9 19.4,30.7 42.7,146.9 85.6,293.7 128.2,440.5 -25.2,0 -50.4,0 -75.6,0 -11.9,-40.5 -23.5,-81.1 -35.2,-121.6 -48.7,-0.1 -97.4,0 -146.1,0 -11.9,40.5 -23.7,81.1 -35.4,121.6 -25,-0.1 -50.1,0 -75.2,0 40.5,-140.1 81.2,-280.2 121.9,-420.3 4.9,-14.6 6.7,-31 17.3,-42.9 m 44.4,90 c -17.9,60.8 -35.4,121.8 -53.1,182.7 35.4,0.2 70.8,0.1 106.2,0.1 -17.7,-61 -35.3,-121.9 -53.1,-182.8 z"
   id="path5"
   style="fill:#ad0e0e" />

			<path
   class="st0"
   d="m 1352.5,32.2 c 13.1,-19 38.5,-28.3 60.8,-22.4 20.5,4.7 36.1,22.3 41.5,42.2 42.7,146.8 85.4,293.5 128.1,440.2 -25.2,0.2 -50.4,0 -75.7,0.1 -11.7,-40.5 -23.3,-81.1 -35.2,-121.6 -48.6,0 -97.2,-0.1 -145.9,0 -11.6,40.6 -23.6,81 -35.2,121.6 -25,0 -50,0 -75.1,0 40.5,-140.9 81.5,-281.6 122.4,-422.4 4.4,-12.7 6.1,-26.7 14.3,-37.7 m -6.1,269.6 c 35.3,0 70.5,0 105.8,0 -17.5,-61.1 -35.4,-122 -52.8,-183.1 -17.7,61.1 -35.5,122.1 -53,183.1 z"
   id="path6"
   style="fill:#ad0e0e" />

			<path
   class="st0"
   d="m 993.8,9.1 c 91.1,0 182.3,0 273.4,0 0,24.6 0,49.2 0,73.7 -33.6,0 -67.1,0 -100.6,0 0,136.5 0,273 0,409.5 -24,0 -48.1,0 -72.1,0 0,-136.5 0,-273 0,-409.5 -33.6,-0.1 -67.1,0 -100.7,0 0,-24.6 0,-49.1 0,-73.7 z"
   id="path7"
   style="fill:#ad0e0e" />

			<path
   class="st0"
   d="m 1663.1,12.1 c 6.9,-2.4 14.3,-3.2 21.6,-3 28.7,0.1 57.5,0 86.2,0 48.4,0.9 94.6,30.9 115.5,74.5 14.5,28.3 16,61.2 12.3,92.2 -2.5,32.5 -16.2,64.9 -41.1,86.5 -13.2,11.7 -29.6,18.9 -43.7,29.3 -7.7,5.9 -8.1,17.4 -4.1,25.6 38.1,58.9 77.8,116.8 116.7,175.2 -28.5,0 -56.9,-0.1 -85.4,0 -37.3,-56 -74.2,-112.3 -111.3,-168.3 -10.9,-16 -13.9,-37.1 -7.3,-55.3 5.1,-14 17.3,-24.2 30.9,-29.5 25.9,-9.9 51.6,-25.5 65.9,-50 10.9,-18.4 10.4,-41.1 5.4,-61.3 -5.8,-26.2 -31.2,-46.7 -58.2,-45.8 -18.6,0.1 -37.2,-0.1 -55.8,0.1 -8.4,-0.2 -16.3,7.1 -16.2,15.7 -0.1,131.5 0,262.9 0,394.4 -24.2,0 -48.4,0 -72.6,0 -0.1,-141.5 0.1,-283 -0.1,-424.6 0.1,-24.8 17.7,-48.2 41.3,-55.7 z"
   id="path8"
   style="fill:#ad0e0e" />

			<path
   class="st0"
   d="m 1964.5,9.1 c 25.5,0 50.9,0 76.4,0 0,161.1 0.1,322.2 -0.1,483.2 -25.4,-0.1 -50.9,0 -76.4,0 0.1,-161.1 0.1,-322.1 0.1,-483.2 z"
   id="path9"
   style="fill:#ad0e0e" />

		</g>

	</g>

</g>
  </g>
</svg>
