<?xml version="1.0" encoding="UTF-8" standalone="no"?>
<!-- Created with Inkscape (http://www.inkscape.org/) -->

<svg
   width="1016mm"
   height="150.8125mm"
   viewBox="0 0 1016 150.8125"
   version="1.1"
   id="svg1"
   inkscape:version="1.3.2 (091e20e, 2023-11-25, custom)"
   sodipodi:docname="atari800.svg"
   xmlns:inkscape="http://www.inkscape.org/namespaces/inkscape"
   xmlns:sodipodi="http://sodipodi.sourceforge.net/DTD/sodipodi-0.dtd"
   xmlns="http://www.w3.org/2000/svg"
   xmlns:svg="http://www.w3.org/2000/svg">
  <sodipodi:namedview
     id="namedview1"
     pagecolor="#ffffff"
     bordercolor="#000000"
     borderopacity="0.25"
     inkscape:showpageshadow="2"
     inkscape:pageopacity="0.0"
     inkscape:pagecheckerboard="0"
     inkscape:deskcolor="#d1d1d1"
     inkscape:document-units="mm"
     inkscape:zoom="0.28645984"
     inkscape:cx="1919.9899"
     inkscape:cy="284.50759"
     inkscape:window-width="3840"
     inkscape:window-height="2054"
     inkscape:window-x="-11"
     inkscape:window-y="-11"
     inkscape:window-maximized="1"
     inkscape:current-layer="layer1" />
  <defs
     id="defs1" />
  <g
     inkscape:label="Layer 1"
     inkscape:groupmode="layer"
     id="layer1"
     transform="translate(402.96042,-73.025)">
    <g
       id="g18"
       transform="matrix(0.26458333,0,0,0.26458333,-402.96042,73.025)">
	<g
   id="g5">
		<path
   class="st1"
   d="M 480.5,14.8 H 59.8 C 26.9,14.8 0,41.7 0,74.6 v 420.7 c 0,32.9 26.9,59.8 59.8,59.8 h 420.7 c 32.9,0 59.8,-26.9 59.8,-59.8 V 74.6 C 540.2,41.7 513.4,14.8 480.5,14.8 Z"
   id="path1"
   style="fill:#353535" />

		<g
   id="g4">
			<path
   class="st2"
   d="m 208.2,117 c 8.9,0 17.8,0 26.7,0 0,20.9 0,41.8 0,62.7 0.1,17.5 -0.4,34.9 -1.1,52.3 -1.2,25.2 -2.8,50.4 -6.9,75.3 -2.9,17.2 -8.8,33.7 -16.2,49.4 -12,25.3 -30.9,46.7 -52.1,64.7 -19,16.7 -41.6,28.9 -65.5,37.1 -13.5,4.6 -27.3,8.2 -41.5,10.2 0,-17.5 0,-35.1 0,-52.6 17,-2.6 33.3,-8.6 48.5,-16.6 18,-9.5 34.2,-22.3 47.9,-37.4 14.1,-15.6 25.3,-33.6 33.9,-52.8 10,-22 15.4,-45.8 19.1,-69.7 4.6,-30.3 6.5,-60.9 7.2,-91.6 0,-10.2 -0.1,-20.6 0,-31 z"
   id="path2"
   style="fill:#ffffff" />

			<path
   class="st2"
   d="m 245.6,117 c 16.4,-0.1 32.7,0 49.1,0 0,117.2 0,234.5 0,351.8 -16.3,0 -32.7,-0.1 -49,0.1 -0.2,-37.4 0,-74.8 -0.1,-112.2 0,-79.9 0,-159.8 0,-239.7 z"
   id="path3"
   style="fill:#ffffff" />

			<path
   class="st2"
   d="m 305.6,117 c 8.8,0 17.7,0 26.5,0 -0.3,35.7 0.9,71.6 5.2,107.1 3.5,27.6 8.4,55.4 19.4,81.1 10.4,24.9 25.4,48 45,66.6 18.7,17.8 41.3,31.5 65.9,39.4 6.9,2.2 13.9,3.9 21,5 0,17.5 0,35 0,52.6 -14,-1.9 -27.8,-5.5 -41.2,-10.1 -15.9,-5.5 -31.3,-12.7 -45.5,-21.9 -10.3,-6.6 -19.7,-14.6 -28.8,-22.9 -14.9,-13.7 -28.2,-29.3 -38.2,-47 -7.8,-13.7 -13.5,-28.6 -18,-43.8 -4.1,-15.2 -5.8,-31 -7.4,-46.6 -3.1,-33.8 -4.2,-67.8 -4,-101.8 0.1,-19.3 0.1,-38.5 0.1,-57.7 z"
   id="path4"
   style="fill:#ffffff" />

		</g>

	</g>

	<g
   id="g9">
		<path
   class="st1"
   d="m 793.8,37.7 c 21,-26.9 64.5,-31.5 90.3,-8.9 10.5,8.9 17.9,21.1 21.7,34.3 47.7,164.2 95.7,328.3 143.3,492.5 -28.2,0 -56.3,-0.1 -84.5,0 -13.3,-45.3 -26.3,-90.6 -39.4,-135.9 -54.5,-0.1 -108.9,0 -163.3,-0.1 -13.3,45.3 -26.5,90.6 -39.6,136 -28,-0.1 -56,0 -84,-0.1 C 683.6,399 729,242.4 774.6,85.8 780,69.4 782,51.1 793.8,37.7 m 49.8,100.6 c -20,68 -39.5,136.2 -59.4,204.2 39.6,0.2 79.1,0.1 118.7,0.1 -19.8,-68.1 -39.5,-136.2 -59.3,-204.3 z"
   id="path5"
   style="fill:#353535" />

		<path
   class="st1"
   d="m 1387.1,41.2 c 14.7,-21.3 43,-31.6 68,-25 22.9,5.3 40.4,25 46.4,47.2 47.7,164.1 95.5,328.1 143.2,492.2 -28.2,0.2 -56.4,0 -84.6,0.1 -13.1,-45.3 -26.1,-90.7 -39.3,-136 -54.4,0 -108.7,-0.1 -163.1,0 -13,45.3 -26.4,90.6 -39.4,135.9 -28,0 -55.9,0 -83.9,0 45.3,-157.5 91.2,-314.9 136.8,-472.3 4.8,-14.1 6.7,-29.8 15.9,-42.1 m -6.9,301.4 c 39.4,0.1 78.8,0 118.2,0 -19.6,-68.3 -39.5,-136.4 -59.1,-204.6 -19.6,68.2 -39.5,136.4 -59.1,204.6 z"
   id="path6"
   style="fill:#353535" />

		<path
   class="st1"
   d="m 986.1,15.4 c 101.9,0 203.8,0 305.6,0 0,27.5 0,54.9 0,82.4 -37.5,0 -75,0 -112.5,0 0,152.6 0,305.2 0,457.8 -26.9,0 -53.7,0 -80.6,0 0,-152.6 0,-305.2 0,-457.8 -37.5,-0.1 -75,0 -112.5,0 0,-27.5 -0.1,-54.9 0,-82.4 z"
   id="path7"
   style="fill:#353535" />

		<path
   class="st1"
   d="m 1734.3,18.7 c 7.7,-2.7 16,-3.6 24.2,-3.4 32.1,0.1 64.3,0 96.4,0 54.1,1 105.7,34.6 129.1,83.2 16.2,31.6 17.9,68.4 13.8,103.1 -2.8,36.3 -18.1,72.6 -46,96.7 -14.7,13.1 -33.1,21.1 -48.9,32.8 -8.7,6.6 -9.1,19.4 -4.6,28.6 42.6,65.8 87,130.6 130.5,195.9 -31.8,0.1 -63.7,-0.1 -95.5,0.1 -41.7,-62.6 -82.9,-125.5 -124.4,-188.2 -12.2,-17.8 -15.5,-41.5 -8.2,-61.8 5.7,-15.6 19.4,-27 34.6,-32.9 29,-11.1 57.6,-28.5 73.7,-55.9 12.2,-20.6 11.6,-46 6.1,-68.5 -6.4,-29.2 -34.9,-52.2 -65,-51.2 -20.8,0.1 -41.6,-0.1 -62.4,0.1 -9.4,-0.2 -18.3,8 -18.1,17.5 -0.1,147 0,293.9 0,440.9 -27.1,-0.1 -54.1,0 -81.2,0 -0.1,-158.2 0.1,-316.4 -0.1,-474.7 0,-27.8 19.7,-53.9 46,-62.3 z"
   id="path8"
   style="fill:#353535" />

		<path
   class="st1"
   d="m 2071.3,15.4 c 28.5,0 56.9,0 85.4,0 0,180.1 0.1,360.2 -0.1,540.3 -28.4,-0.1 -56.9,0 -85.4,0 0.1,-180.2 0.1,-360.3 0.1,-540.3 z"
   id="path9"
   style="fill:#353535" />

	</g>

	<g
   id="g17">
		<g
   id="g12">
			<path
   class="st3"
   d="m 2478.8,198.5 c 29,0 52.6,-23.5 52.6,-52.6 0,-29.1 -23.5,-52.6 -52.6,-52.6 -29,0 -52.6,23.5 -52.6,52.6 0,29.1 23.5,52.6 52.6,52.6 z m 0,-70.4 c 9.8,0 17.8,8 17.8,17.8 0,9.8 -8,17.8 -17.8,17.8 -9.8,0 -17.8,-8 -17.8,-17.8 0,-9.8 7.9,-17.8 17.8,-17.8 z"
   id="path10"
   style="fill:#9f3a35" />

			<path
   class="st3"
   d="m 2614.7,207.4 c 8.1,-18.5 12.3,-38.5 12.3,-59.1 C 2627,66.5 2560.5,0 2478.8,0 c -81.7,0 -148.3,66.5 -148.3,148.3 0,20.6 4.2,40.6 12.3,59.1 -44.9,39 -70.9,95.1 -70.9,155.7 0,114 92.8,206.8 206.8,206.8 114,0 206.8,-92.8 206.8,-206.8 0.1,-60.6 -25.9,-116.8 -70.8,-155.7 z m -135.9,327.7 c -95,0 -172.1,-77 -172.1,-172.1 0,-61.9 32.8,-115.9 81.8,-146.3 -14.5,-19.1 -23.2,-42.8 -23.2,-68.6 0,-62.7 50.8,-113.5 113.5,-113.5 62.7,0 113.5,50.8 113.5,113.5 0,25.8 -8.7,49.5 -23.2,68.6 49,30.3 81.8,84.4 81.8,146.3 -0.1,95.1 -77.1,172.1 -172.1,172.1 z"
   id="path11"
   style="fill:#9f3a35" />

			<path
   class="st3"
   d="m 2478.8,263.2 c -56.8,0 -102.8,46 -102.8,102.8 0,56.8 46,102.8 102.8,102.8 56.8,0 102.8,-46 102.8,-102.8 0,-56.8 -46.1,-102.8 -102.8,-102.8 z m 0,170.7 c -37.5,0 -68,-30.5 -68,-68 0,-37.5 30.5,-68 68,-68 37.5,0 68,30.5 68,68 0,37.5 -30.5,68 -68,68 z"
   id="path12"
   style="fill:#9f3a35" />

		</g>

		<g
   id="g14">
			<path
   class="st3"
   d="m 2974.9,0 c -157.1,0 -285,127.8 -285,285 0,157.1 127.8,285 285,285 157.1,0 284.9,-127.8 284.9,-285 C 3259.9,127.8 3132,0 2974.9,0 Z m 0,535.2 c -138,0 -250.2,-112.3 -250.2,-250.2 0,-138 112.3,-250.2 250.2,-250.2 137.9,0 250.2,112.2 250.2,250.2 0,137.9 -112.2,250.2 -250.2,250.2 z"
   id="path13"
   style="fill:#9f3a35" />

			<path
   class="st3"
   d="m 2974.9,101 c -101.4,0 -184,82.5 -184,184 0,101.4 82.5,184 184,184 101.4,0 184,-82.5 184,-184 0,-101.5 -82.6,-184 -184,-184 z m 0,333.2 c -82.3,0 -149.3,-67 -149.3,-149.2 0,-82.3 67,-149.2 149.3,-149.2 82.3,0 149.2,67 149.2,149.2 0,82.3 -66.9,149.2 -149.2,149.2 z"
   id="path14"
   style="fill:#9f3a35" />

		</g>

		<g
   id="g16">
			<path
   class="st3"
   d="m 3555.1,0 c -157.1,0 -285,127.8 -285,285 0,157.1 127.8,285 285,285 C 3712.2,570 3840,442.2 3840,285 3840,127.8 3712.2,0 3555.1,0 Z m 0,535.2 c -138,0 -250.2,-112.3 -250.2,-250.2 0,-138 112.3,-250.2 250.2,-250.2 137.9,0 250.2,112.2 250.2,250.2 0,137.9 -112.3,250.2 -250.2,250.2 z"
   id="path15"
   style="fill:#9f3a35" />

			<path
   class="st3"
   d="m 3555.1,101 c -101.4,0 -184,82.5 -184,184 0,101.4 82.5,184 184,184 101.4,0 184,-82.5 184,-184 -0.1,-101.5 -82.6,-184 -184,-184 z m 0,333.2 c -82.3,0 -149.3,-67 -149.3,-149.2 0,-82.3 67,-149.2 149.3,-149.2 82.3,0 149.2,67 149.2,149.2 0,82.3 -67,149.2 -149.2,149.2 z"
   id="path16"
   style="fill:#9f3a35" />

		</g>

	</g>

</g>
  </g>
</svg>
