<?xml version="1.0" encoding="UTF-8" standalone="no"?>
<!-- Created with Inkscape (http://www.inkscape.org/) -->

<svg
   width="1015.9471mm"
   height="219.60802mm"
   viewBox="0 0 1015.9471 219.60802"
   version="1.1"
   id="svg1"
   inkscape:version="1.3.2 (091e20e, 2023-11-25, custom)"
   sodipodi:docname="atari5200.svg"
   xmlns:inkscape="http://www.inkscape.org/namespaces/inkscape"
   xmlns:sodipodi="http://sodipodi.sourceforge.net/DTD/sodipodi-0.dtd"
   xmlns="http://www.w3.org/2000/svg"
   xmlns:svg="http://www.w3.org/2000/svg">
  <sodipodi:namedview
     id="namedview1"
     pagecolor="#ffffff"
     bordercolor="#000000"
     borderopacity="0.25"
     inkscape:showpageshadow="2"
     inkscape:pageopacity="0.0"
     inkscape:pagecheckerboard="0"
     inkscape:deskcolor="#d1d1d1"
     inkscape:document-units="mm"
     inkscape:zoom="0.28645984"
     inkscape:cx="1490.6103"
     inkscape:cy="427.63411"
     inkscape:window-width="3840"
     inkscape:window-height="2054"
     inkscape:window-x="-11"
     inkscape:window-y="-11"
     inkscape:window-maximized="1"
     inkscape:current-layer="layer1" />
  <defs
     id="defs1" />
  <g
     inkscape:label="Layer 1"
     inkscape:groupmode="layer"
     id="layer1"
     transform="translate(348.19167,2.6458333)">
    <g
       id="g13"
       transform="matrix(0.26458333,0,0,0.26458333,-348.19167,-2.6419807)">
	<g
   id="g9">
		<g
   id="g8">
			<g
   id="g3">
				<path
   class="st3"
   d="m 368.3,1.8 c 20.9,-0.1 41.8,0 62.8,0 0.1,49.2 0,98.4 0,147.6 0.2,41.1 -1,82.1 -2.6,123.1 -2.8,59.2 -6.5,118.6 -16.3,177.1 -6.7,40.4 -20.7,79.3 -38,116.3 -28.3,59.6 -72.7,110 -122.6,152.4 -44.7,39.3 -97.9,67.9 -154,87.3 -31.7,10.9 -64.4,19.3 -97.6,24 0,-41.2 0,-82.5 0,-123.8 40,-6 78.5,-20.2 114.2,-39 42.4,-22.4 80.5,-52.6 112.7,-88.1 33.2,-36.7 59.6,-79.2 79.7,-124.2 23.6,-51.9 36.3,-107.9 44.9,-163.9 10.8,-71.3 15.3,-143.4 16.9,-215.4 0,-24.6 -0.2,-49 -0.1,-73.4 z"
   id="path1"
   style="fill:#6187e5" />

				<path
   class="st3"
   d="m 456.3,1.9 c 38.5,-0.2 77,0 115.5,-0.1 0,275.9 0,551.8 0,827.8 -38.4,0.1 -76.9,-0.2 -115.3,0.1 -0.5,-88 -0.1,-176 -0.2,-263.9 0,-188 0.1,-376 0,-563.9 z"
   id="path2"
   style="fill:#6187e5" />

				<path
   class="st3"
   d="m 597.5,1.8 c 20.8,0 41.6,0 62.4,0 -0.7,84.1 2.2,168.4 12.2,252 8.2,64.9 19.8,130.3 45.6,190.8 24.5,58.5 59.8,112.9 105.9,156.8 44,41.9 97.2,74.2 155.1,92.7 16.2,5.2 32.7,9.2 49.5,11.7 0,41.2 0,82.5 0,123.7 -33,-4.5 -65.3,-13 -96.8,-23.7 -37.5,-13 -73.8,-29.9 -107.1,-51.6 -24.3,-15.7 -46.4,-34.4 -67.7,-53.9 -35,-32.3 -66.3,-69 -89.9,-110.5 -18.4,-32.3 -31.8,-67.3 -42.4,-103 -9.6,-35.8 -13.8,-72.9 -17.5,-109.7 -7.2,-79.6 -9.9,-159.6 -9.4,-239.6 0.1,-45.3 0.1,-90.5 0.1,-135.7 z"
   id="path3"
   style="fill:#6187e5" />

			</g>

			<path
   class="st3"
   d="m 1407.9,36 c 32.2,-41.2 98.8,-48.2 138.3,-13.7 16.2,13.6 27.5,32.4 33.3,52.6 73.1,251.6 146.6,503.1 219.6,754.8 -43.2,0 -86.3,-0.1 -129.5,0 -20.4,-69.4 -40.2,-138.9 -60.3,-208.3 -83.5,-0.2 -166.9,0 -250.3,-0.1 -20.4,69.4 -40.6,138.9 -60.7,208.4 -42.9,-0.1 -85.8,0 -128.8,-0.1 69.5,-240 139,-480.1 208.8,-720 8.4,-25.1 11.5,-53.1 29.6,-73.6 m 76.2,154.2 c -30.6,104.2 -60.6,208.7 -91,313 60.7,0.3 121.3,0.1 181.9,0.1 -30.3,-104.4 -60.5,-208.8 -90.9,-313.1 z"
   id="path4"
   style="fill:#6187e5" />

			<path
   class="st3"
   d="m 2317.1,41.4 c 22.5,-32.6 66,-48.5 104.2,-38.4 35.1,8.1 61.9,38.3 71.1,72.3 73.1,251.4 146.4,502.8 219.4,754.2 -43.2,0.3 -86.4,0 -129.6,0.2 -20.1,-69.4 -40,-139 -60.2,-208.4 -83.3,0 -166.6,-0.1 -249.9,0.1 -19.9,69.5 -40.5,138.8 -60.4,208.3 -42.9,0 -85.7,0 -128.6,0 69.4,-241.4 139.7,-482.5 209.7,-723.7 7.3,-21.8 10.2,-45.8 24.3,-64.6 m -10.5,461.9 c 60.4,0.1 120.8,0 181.2,0 -30.1,-104.6 -60.6,-209 -90.5,-313.6 -30.3,104.5 -60.7,209 -90.7,313.6 z"
   id="path5"
   style="fill:#6187e5" />

			<path
   class="st3"
   d="m 1702.5,1.7 c 156.1,0 312.2,0 468.4,0 0,42.1 0,84.2 0,126.3 -57.5,0 -114.9,-0.1 -172.4,0 0,233.9 0,467.7 0,701.6 -41.2,0 -82.3,0 -123.5,0 0,-233.9 0,-467.7 0,-701.6 -57.5,-0.1 -114.9,0 -172.4,0 -0.1,-42.1 -0.1,-84.1 -0.1,-126.3 z"
   id="path6"
   style="fill:#6187e5" />

			<path
   class="st3"
   d="m 2849.1,6.9 c 11.9,-4.1 24.5,-5.5 37.1,-5.2 49.2,0.2 98.5,0 147.7,0.1 82.9,1.5 162,53 197.9,127.6 24.8,48.4 27.4,104.8 21.1,158 -4.3,55.6 -27.7,111.3 -70.4,148.2 -22.6,20.1 -50.7,32.3 -74.9,50.3 -13.3,10.1 -13.9,29.7 -7.1,43.8 65.3,100.9 133.3,200.2 199.9,300.2 -48.8,0.1 -97.6,-0.1 -146.4,0.1 -63.9,-95.9 -127.1,-192.3 -190.7,-288.4 -18.7,-27.3 -23.8,-63.6 -12.6,-94.7 8.7,-23.9 29.7,-41.4 53,-50.5 44.5,-17 88.3,-43.6 112.9,-85.6 18.7,-31.5 17.8,-70.4 9.3,-105 -9.9,-44.8 -53.5,-80.1 -99.7,-78.5 -31.9,0.2 -63.8,-0.1 -95.6,0.1 -14.4,-0.3 -28,12.2 -27.8,26.8 -0.2,225.2 0.1,450.5 -0.1,675.7 -41.5,-0.1 -82.9,0 -124.4,0 -0.1,-242.5 0.1,-484.9 -0.1,-727.4 0.4,-42.7 30.7,-82.7 70.9,-95.6 z"
   id="path7"
   style="fill:#6187e5" />

			<path
   class="st3"
   d="m 3365.6,1.7 c 43.6,0 87.3,0 130.9,0 0,276 0.1,552 -0.1,828 -43.6,-0.1 -87.2,0 -130.9,0 0.1,-276 0.1,-552 0.1,-828 z"
   id="path8"
   style="fill:#6187e5" />

		</g>

	</g>

	<g
   id="g12">
		<path
   class="st3"
   d="m 3620.2,688 h 36.7 v 80 l 42.5,7.6 c -4.1,-6.4 -9,-14.8 -9,-33.5 0,-48.6 40.5,-71.9 72.2,-71.9 35.2,0 77.2,27.1 77.2,80.1 0,41.6 -25.9,73.7 -63.2,79.5 v -43.7 c 14.9,-4.7 25,-19.2 25,-34.6 0,-20.4 -17.2,-37.8 -37.9,-37.8 -19.8,0 -37.9,15.1 -37.9,38.1 0,10.2 3.5,23.9 20.4,33.5 l -8.7,35.2 -117.3,-18.9 z"
   id="path9"
   style="fill:#6187e5" />

		<path
   class="st3"
   d="m 3801.6,646.3 c -18.9,-21 -37.6,-41.9 -56.5,-62.9 -18.9,-21.5 -33.8,-38.7 -58.5,-39 -21.2,0 -32.3,13.4 -32.3,31.2 0,21 18.9,29.7 41.1,30 v 41.6 c -16.6,-0.6 -34.4,-3.2 -50.4,-15.1 -24.2,-16.9 -28.8,-44.8 -28.8,-60.3 0,-45.1 31.1,-70.8 66.7,-70.8 25,0.3 42.8,9.3 67,34.7 16.3,16.9 32.6,34.1 49.2,51.2 v -87.1 h 36.7 v 146.5 z"
   id="path10"
   style="fill:#6187e5" />

		<path
   class="st3"
   d="m 3729.6,475.7 c -69,0 -113.6,-53 -113.6,-113 0,-65.2 50.7,-113.3 111.8,-113.3 61.1,0 111.8,47.7 111.8,113.6 0,66.1 -52.1,112.7 -109.8,112.7 z m -1.7,-43.3 c 39.3,0 73.7,-28.2 73.7,-70.2 0,-43.7 -37.9,-69.3 -73.4,-69.3 -36.1,0 -73.9,25.6 -73.9,69.6 0,43.1 35.5,69.9 73.4,69.9 z"
   id="path11"
   style="fill:#6187e5" />

		<path
   class="st3"
   d="m 3729.6,228 c -69,0 -113.6,-53 -113.6,-113 0,-65.2 50.7,-113.3 111.8,-113.3 61.1,0 111.8,47.8 111.8,113.6 0,66.1 -52.1,112.7 -109.8,112.7 z m -1.7,-43.4 c 39.3,0 73.7,-28.2 73.7,-70.2 0,-43.7 -37.9,-69.3 -73.4,-69.3 -36.1,0 -73.9,25.6 -73.9,69.6 0,43.1 35.5,69.9 73.4,69.9 z"
   id="path12"
   style="fill:#6187e5" />

	</g>

</g>
  </g>
</svg>
