<?xml version="1.0" encoding="UTF-8" standalone="no"?>
<!-- Created with Inkscape (http://www.inkscape.org/) -->

<svg
   width="1016mm"
   height="167.74586mm"
   viewBox="0 0 1016 167.74586"
   version="1.1"
   id="svg1"
   inkscape:version="1.3.2 (091e20e, 2023-11-25, custom)"
   sodipodi:docname="atarist.svg"
   xmlns:inkscape="http://www.inkscape.org/namespaces/inkscape"
   xmlns:sodipodi="http://sodipodi.sourceforge.net/DTD/sodipodi-0.dtd"
   xmlns="http://www.w3.org/2000/svg"
   xmlns:svg="http://www.w3.org/2000/svg">
  <sodipodi:namedview
     id="namedview1"
     pagecolor="#ffffff"
     bordercolor="#000000"
     borderopacity="0.25"
     inkscape:showpageshadow="2"
     inkscape:pageopacity="0.0"
     inkscape:pagecheckerboard="0"
     inkscape:deskcolor="#d1d1d1"
     inkscape:document-units="mm"
     inkscape:zoom="0.40511539"
     inkscape:cx="1056.4891"
     inkscape:cy="-233.26687"
     inkscape:window-width="3840"
     inkscape:window-height="2054"
     inkscape:window-x="-11"
     inkscape:window-y="-11"
     inkscape:window-maximized="1"
     inkscape:current-layer="layer1" />
  <defs
     id="defs1" />
  <g
     inkscape:label="Layer 1"
     inkscape:groupmode="layer"
     id="layer1"
     transform="translate(402.96042,-64.558333)">
    <g
       id="g12"
       transform="matrix(0.26458333,0,0,0.26458333,-402.96042,64.558372)">
	<g
   id="g3">
		<g
   id="g2">
			<path
   class="st0"
   d="m 2929,405.1 11.4,8.9 c 39.8,30.8 87.7,56 138.9,56 21.9,0 56.8,-8.9 56.8,-36.6 0,-27.6 -29.2,-30 -49.5,-34.1 l -44.7,-8.1 C 2955,375.8 2882,324.6 2882,228.8 2882,83.5 3014.4,2.3 3147.5,2.3 c 69.8,0 134,17 194.1,53.6 l -60.1,156.7 c -38.2,-26 -81.2,-46.3 -129.1,-46.3 -19.5,0 -47.9,7.3 -47.9,32.5 0,22.7 27.6,26 44.6,30 l 50.4,11.4 c 94.2,21.1 162.4,71.5 162.4,175.4 0,146.2 -133.2,218.4 -265.5,218.4 -77.2,0 -166.5,-21.1 -235.5,-56 z"
   id="path1"
   style="fill:#9b9b9b" />

			<path
   class="st0"
   d="M 3372.3,12 H 3840 v 171.8 l -122.6,0.3 V 624.3 H 3494.9 V 184.1 l -122.6,-0.3 z"
   id="path2"
   style="fill:#9b9b9b" />

		</g>

	</g>

	<g
   id="g11">
		<g
   id="g10">
			<g
   id="g5">
				<path
   class="st0"
   d="m 281.3,1.4 c 16,-0.1 32,0 47.9,0 0.1,37.6 0,75.1 0,112.7 0.2,31.4 -0.7,62.7 -2,94 -2.1,45.2 -5,90.6 -12.5,135.3 -5.1,30.8 -15.8,60.6 -29,88.8 -21.6,45.5 -55.5,84 -93.6,116.4 -34.1,30 -74.8,51.9 -117.6,66.7 C 50.3,623.5 25.4,630 0,633.5 0,602 0,570.5 0,539 c 30.6,-4.6 59.9,-15.4 87.2,-29.8 32.4,-17.1 61.5,-40.1 86,-67.3 25.3,-28 45.5,-60.5 60.8,-94.9 18,-39.6 27.7,-82.4 34.3,-125.2 8.2,-54.4 11.7,-109.5 12.9,-164.5 0.2,-18.6 0.1,-37.3 0.1,-55.9 z"
   id="path3"
   style="fill:#9b9b9b" />

				<path
   class="st0"
   d="m 348.6,1.4 c 29.4,-0.2 58.8,0 88.2,-0.1 0,210.7 0,421.4 0,632.2 -29.3,0.1 -58.7,-0.1 -88,0.1 -0.4,-67.2 -0.1,-134.4 -0.2,-201.6 0,-143.5 0.1,-287 0,-430.6 z"
   id="path4"
   style="fill:#9b9b9b" />

				<path
   class="st0"
   d="m 456.4,1.4 c 15.9,0 31.8,0 47.7,0 -0.5,64.2 1.7,128.6 9.3,192.5 6.3,49.6 15.1,99.5 34.9,145.7 18.7,44.7 45.7,86.2 80.9,119.7 33.6,32 74.3,56.6 118.5,70.8 12.3,3.9 25,7 37.8,8.9 0,31.5 0,63 0,94.5 -25.2,-3.4 -49.9,-9.9 -74,-18.1 C 682.9,605.4 655.2,592.5 629.7,576 611.1,564 594.2,549.8 578,534.8 551.3,510.1 527.3,482.1 509.3,450.4 495.3,425.7 485,399 477,371.7 469.6,344.3 466.5,316 463.6,287.9 458.1,227.1 456,166 456.4,104.9 c 0,-34.5 0,-69 0,-103.5 z"
   id="path5"
   style="fill:#9b9b9b" />

			</g>

			<path
   class="st1"
   d="M 1075.4,27.5 C 1100,-4 1150.9,-9.4 1181.1,17 c 12.3,10.4 21,24.7 25.4,40.2 55.9,192.2 112,384.3 167.7,576.5 -33,0 -65.9,-0.1 -98.9,0 -15.5,-53 -30.7,-106.1 -46.1,-159.1 -63.7,-0.1 -127.5,0 -191.2,-0.1 -15.6,53 -31,106.1 -46.3,159.2 -32.8,-0.1 -65.6,0 -98.4,-0.1 53.1,-183.3 106.3,-366.6 159.6,-549.9 6.3,-19.1 8.7,-40.6 22.5,-56.2 m 58.2,117.7 c -23.4,79.6 -46.3,159.4 -69.5,239 46.3,0.2 92.6,0.1 138.9,0.1 -23.1,-79.6 -46.2,-159.4 -69.4,-239.1 z"
   id="path6"
   style="fill:#4fa1d5" />

			<path
   class="st1"
   d="m 1769.8,31.6 c 17.2,-24.9 50.4,-37 79.6,-29.3 26.8,6.2 47.2,29.2 54.3,55.2 55.8,192 111.8,384 167.6,576 -33,0.3 -66,0 -99,0.1 -15.4,-53 -30.5,-106.1 -46,-159.2 -63.6,0 -127.2,-0.1 -190.9,0.1 -15.2,53.1 -30.9,106 -46.1,159.1 -32.8,0 -65.5,0 -98.2,0 53,-184.3 106.7,-368.5 160.2,-552.7 5.6,-16.6 7.7,-34.9 18.5,-49.3 m -8,352.8 c 46.1,0.1 92.2,0 138.4,0 -23,-79.9 -46.3,-159.7 -69.2,-239.5 -23,79.8 -46.3,159.6 -69.2,239.5 z"
   id="path7"
   style="fill:#4fa1d5" />

			<path
   class="st1"
   d="m 1300.4,1.3 c 119.3,0 238.5,0 357.7,0 0,32.2 0,64.3 0,96.5 -43.9,0 -87.8,-0.1 -131.7,0 0,178.6 0,357.2 0,535.8 -31.4,0 -62.9,0 -94.3,0 0,-178.6 0,-357.2 0,-535.8 -43.9,-0.1 -87.8,0 -131.7,0 0,-32.2 0,-64.3 0,-96.5 z"
   id="path8"
   style="fill:#4fa1d5" />

			<path
   class="st1"
   d="m 2176.2,5.3 c 9.1,-3.1 18.7,-4.2 28.3,-4 37.6,0.1 75.2,0 112.8,0.1 63.3,1.2 123.7,40.5 151.1,97.4 19,37 20.9,80 16.1,120.6 -3.3,42.5 -21.1,85 -53.8,113.2 -17.2,15.4 -38.7,24.7 -57.2,38.4 -10.1,7.7 -10.7,22.7 -5.4,33.5 49.9,77 101.8,152.9 152.7,229.2 -37.3,0.1 -74.5,-0.1 -111.8,0.1 -48.8,-73.3 -97,-146.9 -145.6,-220.3 -14.3,-20.9 -18.2,-48.5 -9.6,-72.4 6.7,-18.3 22.7,-31.6 40.4,-38.6 34,-13 67.5,-33.3 86.3,-65.4 14.3,-24.1 13.6,-53.8 7.1,-80.2 -7.5,-34.2 -40.9,-61.1 -76.1,-60 -24.4,0.2 -48.7,-0.1 -73,0.1 -11,-0.3 -21.4,9.3 -21.2,20.5 -0.1,172 0.1,344 -0.1,516.1 -31.7,-0.1 -63.3,0 -95,0 -0.1,-185.2 0.1,-370.4 -0.1,-555.6 0.2,-32.3 23.3,-62.9 54.1,-72.7 z"
   id="path9"
   style="fill:#4fa1d5" />

			<path
   class="st1"
   d="m 2570.6,1.3 c 33.3,0 66.6,0 100,0 0,210.8 0.1,421.6 -0.1,632.3 -33.3,-0.1 -66.6,0 -99.9,0 0,-210.7 0,-421.5 0,-632.3 z"
   id="path10"
   style="fill:#4fa1d5" />

		</g>

	</g>

</g>
  </g>
</svg>
