<?xml version="1.0" encoding="UTF-8" standalone="no"?>
<!-- Created with Inkscape (http://www.inkscape.org/) -->

<svg
   width="1015.7354mm"
   height="142.24001mm"
   viewBox="0 0 1015.7354 142.24001"
   version="1.1"
   id="svg1"
   inkscape:version="1.3.2 (091e20e, 2023-11-25, custom)"
   sodipodi:docname="atomiswave.svg"
   xmlns:inkscape="http://www.inkscape.org/namespaces/inkscape"
   xmlns:sodipodi="http://sodipodi.sourceforge.net/DTD/sodipodi-0.dtd"
   xmlns="http://www.w3.org/2000/svg"
   xmlns:svg="http://www.w3.org/2000/svg">
  <sodipodi:namedview
     id="namedview1"
     pagecolor="#ffffff"
     bordercolor="#000000"
     borderopacity="0.25"
     inkscape:showpageshadow="2"
     inkscape:pageopacity="0.0"
     inkscape:pagecheckerboard="0"
     inkscape:deskcolor="#d1d1d1"
     inkscape:document-units="mm"
     inkscape:zoom="0.40511539"
     inkscape:cx="979.96771"
     inkscape:cy="588.72115"
     inkscape:window-width="3840"
     inkscape:window-height="2054"
     inkscape:window-x="-11"
     inkscape:window-y="-11"
     inkscape:window-maximized="1"
     inkscape:current-layer="layer1" />
  <defs
     id="defs1">
    <linearGradient
       id="SVGID_1_"
       gradientUnits="userSpaceOnUse"
       x1="130.7495"
       y1="537.59491"
       x2="130.7495"
       y2="0">
			<stop
   offset="0"
   style="stop-color:#EF5023"
   id="stop1" />

			<stop
   offset="0.2217"
   style="stop-color:#E04620"
   id="stop2" />

			<stop
   offset="0.6488"
   style="stop-color:#B82C16"
   id="stop3" />

			<stop
   offset="1"
   style="stop-color:#92140E"
   id="stop4" />

		</linearGradient>
    <linearGradient
       id="SVGID_2_"
       gradientUnits="userSpaceOnUse"
       x1="357.3204"
       y1="444.53561"
       x2="357.3204"
       y2="51.2813">
			<stop
   offset="0"
   style="stop-color:#EF5023"
   id="stop5" />

			<stop
   offset="0.2217"
   style="stop-color:#E04620"
   id="stop6" />

			<stop
   offset="0.6488"
   style="stop-color:#B82C16"
   id="stop7" />

			<stop
   offset="1"
   style="stop-color:#92140E"
   id="stop8" />

		</linearGradient>
    <linearGradient
       id="SVGID_3_"
       gradientUnits="userSpaceOnUse"
       x1="527.81281"
       y1="393.26669"
       x2="527.81281"
       y2="102.5609">
			<stop
   offset="0"
   style="stop-color:#EF5023"
   id="stop9" />

			<stop
   offset="0.2217"
   style="stop-color:#E04620"
   id="stop10" />

			<stop
   offset="0.6488"
   style="stop-color:#B82C16"
   id="stop11" />

			<stop
   offset="1"
   style="stop-color:#92140E"
   id="stop12" />

		</linearGradient>
    <linearGradient
       id="SVGID_4_"
       gradientUnits="userSpaceOnUse"
       x1="252.5672"
       y1="444.53561"
       x2="252.5672"
       y2="0.001777428">
			<stop
   offset="0"
   style="stop-color:#008039"
   id="stop13" />

			<stop
   offset="0.1163"
   style="stop-color:#06833D"
   id="stop14" />

			<stop
   offset="0.266"
   style="stop-color:#168B47"
   id="stop15" />

			<stop
   offset="0.4338"
   style="stop-color:#309859"
   id="stop16" />

			<stop
   offset="0.615"
   style="stop-color:#55AA72"
   id="stop17" />

			<stop
   offset="0.8068"
   style="stop-color:#84C191"
   id="stop18" />

			<stop
   offset="1"
   style="stop-color:#BCDCB6"
   id="stop19" />

		</linearGradient>
    <linearGradient
       id="SVGID_5_"
       gradientUnits="userSpaceOnUse"
       x1="448.62781"
       y1="393.26141"
       x2="448.62781"
       y2="51.2813">
			<stop
   offset="0"
   style="stop-color:#008039"
   id="stop20" />

			<stop
   offset="0.1163"
   style="stop-color:#06833D"
   id="stop21" />

			<stop
   offset="0.266"
   style="stop-color:#168B47"
   id="stop22" />

			<stop
   offset="0.4338"
   style="stop-color:#309859"
   id="stop23" />

			<stop
   offset="0.615"
   style="stop-color:#55AA72"
   id="stop24" />

			<stop
   offset="0.8068"
   style="stop-color:#84C191"
   id="stop25" />

			<stop
   offset="1"
   style="stop-color:#BCDCB6"
   id="stop26" />

		</linearGradient>
  </defs>
  <g
     inkscape:label="Layer 1"
     inkscape:groupmode="layer"
     id="layer1"
     transform="translate(402.96042,-77.258333)">
    <g
       id="g37"
       transform="matrix(0.26458333,0,0,0.26458333,-402.96042,77.258333)">
	<g
   id="g26">
		<linearGradient
   id="linearGradient30"
   gradientUnits="userSpaceOnUse"
   x1="130.7495"
   y1="537.59491"
   x2="130.7495"
   y2="0">
			<stop
   offset="0"
   style="stop-color:#EF5023"
   id="stop27" />

			<stop
   offset="0.2217"
   style="stop-color:#E04620"
   id="stop28" />

			<stop
   offset="0.6488"
   style="stop-color:#B82C16"
   id="stop29" />

			<stop
   offset="1"
   style="stop-color:#92140E"
   id="stop30" />

		</linearGradient>

		<polygon
   class="st1"
   points="134.4,537.6 0,537.6 127.1,0 261.5,0 "
   id="polygon4"
   style="fill:url(#SVGID_1_)" />

		<linearGradient
   id="linearGradient34"
   gradientUnits="userSpaceOnUse"
   x1="357.3204"
   y1="444.53561"
   x2="357.3204"
   y2="51.2813">
			<stop
   offset="0"
   style="stop-color:#EF5023"
   id="stop31" />

			<stop
   offset="0.2217"
   style="stop-color:#E04620"
   id="stop32" />

			<stop
   offset="0.6488"
   style="stop-color:#B82C16"
   id="stop33" />

			<stop
   offset="1"
   style="stop-color:#92140E"
   id="stop34" />

		</linearGradient>

		<polygon
   class="st2"
   points="336.6,51.3 243.6,444.5 378,444.5 471,51.3 "
   id="polygon8"
   style="fill:url(#SVGID_2_)" />

		<linearGradient
   id="linearGradient38"
   gradientUnits="userSpaceOnUse"
   x1="527.81281"
   y1="393.26669"
   x2="527.81281"
   y2="102.5609">
			<stop
   offset="0"
   style="stop-color:#EF5023"
   id="stop35" />

			<stop
   offset="0.2217"
   style="stop-color:#E04620"
   id="stop36" />

			<stop
   offset="0.6488"
   style="stop-color:#B82C16"
   id="stop37" />

			<stop
   offset="1"
   style="stop-color:#92140E"
   id="stop38" />

		</linearGradient>

		<polygon
   class="st3"
   points="495,102.6 426.3,393.3 560.6,393.3 629.4,102.6 "
   id="polygon12"
   style="fill:url(#SVGID_3_)" />

		<linearGradient
   id="linearGradient45"
   gradientUnits="userSpaceOnUse"
   x1="252.5672"
   y1="444.53561"
   x2="252.5672"
   y2="0.001777428">
			<stop
   offset="0"
   style="stop-color:#008039"
   id="stop39" />

			<stop
   offset="0.1163"
   style="stop-color:#06833D"
   id="stop40" />

			<stop
   offset="0.266"
   style="stop-color:#168B47"
   id="stop41" />

			<stop
   offset="0.4338"
   style="stop-color:#309859"
   id="stop42" />

			<stop
   offset="0.615"
   style="stop-color:#55AA72"
   id="stop43" />

			<stop
   offset="0.8068"
   style="stop-color:#84C191"
   id="stop44" />

			<stop
   offset="1"
   style="stop-color:#BCDCB6"
   id="stop45" />

		</linearGradient>

		<polygon
   class="st4"
   points="261.5,0 127.1,0 243.6,444.5 378,444.5 "
   id="polygon19"
   style="fill:url(#SVGID_4_)" />

		<linearGradient
   id="linearGradient52"
   gradientUnits="userSpaceOnUse"
   x1="448.62781"
   y1="393.26141"
   x2="448.62781"
   y2="51.2813">
			<stop
   offset="0"
   style="stop-color:#008039"
   id="stop46" />

			<stop
   offset="0.1163"
   style="stop-color:#06833D"
   id="stop47" />

			<stop
   offset="0.266"
   style="stop-color:#168B47"
   id="stop48" />

			<stop
   offset="0.4338"
   style="stop-color:#309859"
   id="stop49" />

			<stop
   offset="0.615"
   style="stop-color:#55AA72"
   id="stop50" />

			<stop
   offset="0.8068"
   style="stop-color:#84C191"
   id="stop51" />

			<stop
   offset="1"
   style="stop-color:#BCDCB6"
   id="stop52" />

		</linearGradient>

		<polygon
   class="st5"
   points="560.6,393.3 471,51.3 336.6,51.3 426.3,393.3 "
   id="polygon26"
   style="fill:url(#SVGID_5_)" />

	</g>

	<g
   id="g36">
		<g
   id="g35">
			<path
   d="m 1289.1,139.8 10,-37.2 H 987.5 l 3.5,37.2 h 100.1 l -51.4,217.3 c -4.3,18.3 9.6,35.9 28.4,35.9 h 60.2 l 59.9,-253.2 z"
   id="path26" />

			<path
   d="m 2812.5,102.8 -59.8,253 h -46.6 l 59.8,-253.1 h -97.1 l -59.9,253.1 h -46.6 l 59.9,-253.2 h -97.1 l -60.2,254.6 c -4.3,18.3 9.6,35.9 28.4,35.9 l 347.7,0.1 68.7,-290.4 z"
   id="path27" />

			<path
   d="m 3435.7,102.7 -59.8,253.1 H 3340 L 3316.9,102.6 H 3222 l 24.1,263.9 c 1.4,15 14,26.5 29,26.5 l 189.1,0.2 68.7,-290.4 h -97.2 z"
   id="path28" />

			<path
   d="m 3621.9,102.6 -42.4,0.2 -60.2,254.5 c -4.3,18.3 9.6,35.9 28.4,35.9 h 60.2 l 162.4,-0.2 8.8,-37.2 H 3616.7 L 3643.1,244 h 143.7 l 8.8,-37.2 H 3652 l 15.8,-67 h 162.4 l 8.8,-37.1 z"
   id="path29" />

			<path
   d="m 1334.4,102.9 -60.2,254.5 c -4.3,18.3 9.6,35.9 28.4,35.9 L 1527,393 1587.2,138.5 c 4.3,-18.3 -9.6,-35.9 -28.4,-35.9 z m 37.3,252.9 51.1,-216 h 66.9 l -51.1,216 z"
   id="path30" />

			<path
   d="M 1642.3,102.6 1573.6,393 h 97.1 l 59.9,-253.2 h 46.6 l -59.9,253.3 h 97.1 l 59.9,-253.3 h 46.6 L 1861,393.2 h 97.1 l 60.2,-254.6 c 4.3,-18.3 -9.6,-35.9 -28.4,-35.9 z"
   id="path31" />

			<path
   d="m 2073.5,102.8 -60.2,254.5 c -4.3,18.3 9.6,35.9 28.4,35.9 h 60.2 l 68.7,-290.4 z"
   id="path32" />

			<path
   d="M 740.2,102.6 671.5,393 h 97.1 l 17.8,-75.5 h 94.1 l 6.9,75.5 h 94.9 L 958.2,129.1 c -1.4,-15 -14,-26.5 -29.1,-26.5 z m 55.1,177.6 33.2,-140.5 h 35.9 l 12.8,140.5 z"
   id="path33" />

			<path
   d="M 2956.6,102.6 2887.9,393 h 97.1 l 17.9,-75.5 h 94.1 l 6.9,75.5 h 94.9 l -24.1,-263.9 c -1.4,-15 -14,-26.5 -29.1,-26.5 z m 55.1,177.6 33.2,-140.5 h 35.9 l 12.8,140.5 z"
   id="path34" />

			<path
   d="m 2289.8,206.8 15.8,-67 h 164 l 8.8,-37.2 -261.3,0.3 -24.9,105.2 c -4.3,18.3 9.6,35.9 28.4,35.9 h 127.1 l -26.4,111.8 h -164 l -8.9,37.2 h 261.3 l 35.5,-150.3 c 4.3,-18.3 -9.6,-35.9 -28.4,-35.9 z"
   id="path35" />

		</g>

	</g>

</g>
  </g>
</svg>
