<?xml version="1.0" encoding="UTF-8" standalone="no"?>
<svg
   width="3839"
   height="939.38611"
   version="1.1"
   id="svg56"
   sodipodi:docname="bbcmicro.svg"
   xml:space="preserve"
   inkscape:version="1.4 (86a8ad7, 2024-10-11)"
   xmlns:inkscape="http://www.inkscape.org/namespaces/inkscape"
   xmlns:sodipodi="http://sodipodi.sourceforge.net/DTD/sodipodi-0.dtd"
   xmlns:xlink="http://www.w3.org/1999/xlink"
   xmlns="http://www.w3.org/2000/svg"
   xmlns:svg="http://www.w3.org/2000/svg"><sodipodi:namedview
     id="namedview56"
     pagecolor="#ffffff"
     bordercolor="#000000"
     borderopacity="0.25"
     inkscape:showpageshadow="2"
     inkscape:pageopacity="0.0"
     inkscape:pagecheckerboard="0"
     inkscape:deskcolor="#d1d1d1"
     inkscape:zoom="0.37749999"
     inkscape:cx="1961.5895"
     inkscape:cy="278.1457"
     inkscape:window-width="3840"
     inkscape:window-height="2054"
     inkscape:window-x="-11"
     inkscape:window-y="-11"
     inkscape:window-maximized="1"
     inkscape:current-layer="svg56" /><style
     type="text/css"
     id="style1">rect{fill:#262421}circle{fill:#e6dbc4}path{stroke:#e6dbc4;stroke-width:22;fill:none}</style><defs
     id="defs12"><rect
       x="-945.93091"
       y="-37.462612"
       width="628.73694"
       height="255.00465"
       id="rect58" /><rect
       x="-986.20325"
       y="-25.287262"
       width="822.30432"
       height="154.53326"
       id="rect56" /><circle
       id="x"
       cx="10"
       cy="10"
       r="3.5999999" /><g
       id="y"><use
         xlink:href="#x"
         id="use1" /><use
         xlink:href="#x"
         x="10"
         id="use2" /><use
         xlink:href="#x"
         x="20"
         id="use3" /><use
         xlink:href="#x"
         x="30"
         id="use4" /></g><g
       id="z"><use
         xlink:href="#y"
         id="use5" /><use
         xlink:href="#x"
         x="40"
         id="use6" /></g><path
       id="c"
       d="m 125,100 c 0,-17 -8,-25 -25,-25 -17,0 -25,8 -25,25 0,17 8,25 25,25 17,0 25,-8 25,-25 z"
       transform="scale(0.1)" /><g
       id="d"><use
         xlink:href="#c"
         id="use7" /><use
         xlink:href="#c"
         x="5"
         y="5"
         id="use8" /></g><g
       id="e"><use
         xlink:href="#d"
         id="use9" /><use
         xlink:href="#d"
         x="10"
         y="10"
         id="use10" /><use
         xlink:href="#d"
         x="20"
         y="20"
         id="use11" /><use
         xlink:href="#c"
         x="30"
         y="30"
         id="use12" /></g></defs><rect
     width="3839"
     height="939.38611"
     id="rect12"
     x="0"
     y="0"
     style="stroke-width:17.3357" /><g
     id="g48"
     style="fill:#e6dbc4;fill-opacity:1"
     transform="matrix(0.80821054,0,0,0.80821054,-6.2420554e-6,0)"><path
       id="path18"
       style="font-size:51.1006px;font-family:'Courier New';-inkscape-font-specification:'Courier New';white-space:pre;fill:#e6dbc4;fill-opacity:1;stroke:#e6dbc4;stroke-width:1.08977;stroke-linejoin:round;stroke-dasharray:none;stroke-opacity:1;paint-order:stroke fill markers"
       d="m -250.65965,91.011699 c -1.0594,0 -2.04419,0.274557 -2.95448,0.823873 -3.8,2.279992 -4.16547,9.436568 -0.16481,12.500958 0.36884,0.2825 0.83583,0.52969 1.40084,0.74156 0.73766,0.27468 1.46354,0.41193 2.17764,0.41193 0.82399,0 1.63617,-0.18031 2.43659,-0.54129 0.80828,-0.36883 1.53417,-0.91418 2.17766,-1.63614 0.33744,-0.36883 0.50605,-0.6438 0.50605,-0.82429 0,-0.13341 -0.0429,-0.24307 -0.12936,-0.32943 -0.0864,-0.0864 -0.20019,-0.12936 -0.34146,-0.12936 -0.16478,0 -0.31399,0.0823 -0.44739,0.24712 -0.6278,0.7455 -1.27907,1.30256 -1.95395,1.6714 -0.66703,0.36881 -1.42404,0.55332 -2.27155,0.55332 -1.41254,0 -2.65263,-0.5416 -3.71989,-1.62455 -2.04423,-2.23809 -2.47453,-6.592507 -0.0352,-9.475362 0.29818,-0.353127 0.69832,-0.651508 1.20055,-0.894781 0.67488,-0.337436 1.39303,-0.506056 2.15423,-0.506056 1.16141,0 2.19739,0.348939 3.10769,1.047356 0.67487,0.510078 1.03172,1.094931 1.07098,1.754107 0.0157,0.211883 0.0666,0.364826 0.15299,0.458997 0.0942,0.09417 0.20805,0.141183 0.34146,0.141183 0.1491,0 0.2667,-0.05098 0.35306,-0.153001 0.0942,-0.102009 0.14139,-0.274603 0.14139,-0.517874 v -2.742587 c 0,-0.23542 -0.0473,-0.404254 -0.14139,-0.506268 -0.0863,-0.102009 -0.20396,-0.152998 -0.35306,-0.152998 -0.14909,0 -0.27093,0.051 -0.36509,0.152998 -0.0864,0.10201 -0.12936,0.270848 -0.12936,0.506268 v 0.69451 c -1.1771,-1.11433 -2.58186,-1.671593 -4.21411,-1.671593 z m 29.4695,0 c -1.59302,0 -2.99756,0.674906 -4.21391,2.024652 -1.20851,1.34975 -1.81279,3.08779 -1.81279,5.214416 0,2.118743 0.60428,3.857233 1.81279,5.214823 1.21635,1.34974 2.62089,2.02443 4.21391,2.02443 1.07508,0 2.07971,-0.31404 3.01354,-0.94183 0.94169,-0.62778 1.67928,-1.50266 2.2129,-2.62484 0.53361,-1.13002 0.80023,-2.354255 0.80023,-3.672583 0,-1.326194 -0.27037,-2.55022 -0.81184,-3.672397 -0.53362,-1.122174 -1.26744,-1.997251 -2.20129,-2.625041 -0.93383,-0.627785 -1.93846,-0.94163 -3.01354,-0.94163 z m 15.02027,0 c -1.05933,3.7e-5 -2.04424,0.274594 -2.95446,0.823873 -3.80004,2.280015 -4.16522,9.436638 -0.16461,12.500958 0.36883,0.2825 0.83562,0.52969 1.40063,0.74156 0.73765,0.27468 1.46355,0.41193 2.17766,0.41193 0.82396,0 1.63595,-0.18031 2.43636,-0.54129 0.80828,-0.36883 1.53418,-0.91418 2.17767,-1.63614 0.33743,-0.36883 0.50625,-0.6438 0.50625,-0.82429 0,-0.13341 -0.0429,-0.24307 -0.12936,-0.32943 -0.0864,-0.0864 -0.2002,-0.12936 -0.34144,-0.12936 -0.16481,0 -0.31378,0.0823 -0.44719,0.24712 -0.62779,0.7455 -1.27907,1.30256 -1.95395,1.6714 -0.66702,0.36881 -1.42448,0.55332 -2.27199,0.55332 -1.41251,0 -2.65242,-0.5416 -3.71966,-1.62455 -2.04436,-2.2381 -2.47473,-6.592541 -0.0355,-9.475362 0.2982,-0.353127 0.69855,-0.651508 1.20078,-0.894781 0.67487,-0.337436 1.39304,-0.506056 2.15422,-0.506056 1.16142,0 2.19716,0.348939 3.10746,1.047356 0.67487,0.510078 1.03173,1.094931 1.07099,1.754107 0.0157,0.211883 0.0668,0.364826 0.15322,0.458997 0.0941,0.09417 0.20784,0.141183 0.34124,0.141183 0.14911,0 0.26692,-0.05098 0.35328,-0.153001 0.0941,-0.102009 0.14118,-0.274603 0.14118,-0.517874 v -2.742587 c 0,-0.23542 -0.0471,-0.404254 -0.14118,-0.506268 -0.0864,-0.102009 -0.20417,-0.152998 -0.35328,-0.152998 -0.14909,0 -0.27071,0.051 -0.36487,0.152998 -0.0864,0.10201 -0.12959,0.270848 -0.12959,0.506268 v 0.69451 c -1.17705,-1.114281 -2.58154,-1.671544 -4.21369,-1.671593 z m 14.13099,0 c -1.59301,0 -2.99778,0.674906 -4.21412,2.024652 -1.2085,1.34975 -1.81257,3.08779 -1.81257,5.214416 0,2.118743 0.60407,3.857233 1.81257,5.214823 1.21634,1.34974 2.62111,2.02443 4.21412,2.02443 1.07509,0 2.07948,-0.31404 3.01334,-0.94183 0.94167,-0.62778 1.67927,-1.50266 2.2129,-2.62484 0.5336,-1.13002 0.80044,-2.354255 0.80044,-3.672583 0,-1.326194 -0.27058,-2.55022 -0.81205,-3.672397 -0.53362,-1.122174 -1.26746,-1.997251 -2.20129,-2.625041 -0.93386,-0.627785 -1.93825,-0.94163 -3.01334,-0.94163 z m 108.179783,0 c -1.357597,0 -2.452489,0.372761 -3.284309,1.118264 -0.823973,0.745498 -1.23602,1.63625 -1.23602,2.672101 0,1.0437 0.361059,1.848155 1.083023,2.413164 0.721953,0.56501 1.902934,0.984579 3.543033,1.259233 1.192798,0.204021 1.97761,0.388537 2.354286,0.55333 0.541468,0.235418 0.949544,0.557204 1.224202,0.965264 0.274656,0.400205 0.411937,0.859265 0.411937,1.377185 0,0.84751 -0.360851,1.58115 -1.082811,2.20108 -0.714112,0.61994 -1.691158,0.93003 -2.931038,0.93003 -1.239885,0 -2.228838,-0.29421 -2.966492,-0.88277 -0.729804,-0.5964 -1.114059,-1.25562 -1.153297,-1.97759 -0.0079,-0.21189 -0.05884,-0.36483 -0.152998,-0.45899 -0.08632,-0.0942 -0.200201,-0.14139 -0.341452,-0.14139 -0.149098,0 -0.270706,0.051 -0.364877,0.15299 -0.0863,0.10202 -0.129573,0.27462 -0.129573,0.51789 v 2.73097 c 0,0.23542 0.04722,0.4043 0.141392,0.50627 0.09417,0.10202 0.211807,0.153 0.353058,0.153 0.1491,0 0.266742,-0.051 0.353059,-0.153 0.09417,-0.10192 0.141391,-0.27085 0.141391,-0.50627 v -0.56514 c 1.02801,1.0751 2.401216,1.6127 4.119789,1.6127 1.530235,0 2.746729,-0.39637 3.649184,-1.18895 0.902449,-0.80044 1.353355,-1.76535 1.353355,-2.89537 0,-0.73766 -0.176351,-1.37747 -0.529482,-1.918905 -0.345284,-0.541468 -0.859298,-0.965232 -1.542019,-1.27127 -0.510078,-0.227568 -1.436138,-0.451145 -2.778038,-0.670875 -0.800433,-0.133408 -1.38904,-0.25877 -1.765715,-0.376483 -0.376674,-0.125559 -0.714124,-0.286658 -1.012326,-0.482844 -0.298197,-0.204027 -0.537446,-0.466884 -0.717935,-0.78863 -0.180487,-0.321743 -0.270755,-0.678833 -0.270755,-1.071204 0,-0.761193 0.321779,-1.420431 0.965265,-1.977591 0.643482,-0.565014 1.51062,-0.847297 2.601405,-0.847297 1.035852,0 1.871651,0.262856 2.507285,0.78863 0.643481,0.525775 0.984695,1.118351 1.023932,1.777532 0.0079,0.211881 0.05509,0.364615 0.141392,0.458786 0.09417,0.09417 0.211808,0.141391 0.353058,0.141391 0.149099,0 0.266742,-0.05098 0.353059,-0.152998 0.09417,-0.10201 0.141392,-0.270848 0.141392,-0.506269 v -2.518891 c 0,-0.23542 -0.04722,-0.404254 -0.141392,-0.506268 -0.08631,-0.102009 -0.20396,-0.152998 -0.353059,-0.152998 -0.149097,0 -0.270705,0.051 -0.364876,0.152998 -0.08631,0.10201 -0.129574,0.270848 -0.129574,0.506268 v 0.329634 c -0.996609,-0.871059 -2.185322,-1.306717 -3.566459,-1.306717 z m 24.378332,0 c -1.357597,0 -2.452282,0.372761 -3.284097,1.118264 -0.82398,0.745498 -1.236021,1.63625 -1.236021,2.672101 0,1.0437 0.361064,1.848155 1.083022,2.413164 0.721955,0.56501 1.902935,0.984579 3.543034,1.259233 1.192799,0.204021 1.977609,0.388537 2.354285,0.55333 0.541469,0.235418 0.949548,0.557204 1.224204,0.965264 0.274662,0.400205 0.411937,0.859265 0.411937,1.377185 0,0.84751 -0.360851,1.58115 -1.082811,2.20108 -0.714107,0.61994 -1.691364,0.93003 -2.93125,0.93003 -1.239891,0 -2.228421,-0.29421 -2.966069,-0.88277 -0.729808,-0.5964 -1.114483,-1.25562 -1.15372,-1.97759 -0.0079,-0.21189 -0.05883,-0.36483 -0.152998,-0.45899 -0.08632,-0.0942 -0.199985,-0.14139 -0.34124,-0.14139 -0.149099,0 -0.27092,0.051 -0.365088,0.15299 -0.0863,0.10202 -0.129363,0.27462 -0.129363,0.51789 v 2.73097 c 0,0.23542 0.04699,0.4043 0.141181,0.50627 0.09417,0.10202 0.212023,0.153 0.35327,0.153 0.149098,0 0.266741,-0.051 0.353058,-0.153 0.09417,-0.10192 0.14118,-0.27085 0.14118,-0.50627 v -0.56514 c 1.028005,1.0751 2.401217,1.6127 4.119789,1.6127 1.53024,0 2.746735,-0.39637 3.649185,-1.18895 0.902447,-0.80044 1.353566,-1.76535 1.353566,-2.89537 0,-0.73766 -0.176562,-1.37747 -0.529693,-1.918905 -0.345289,-0.541468 -0.859083,-0.965232 -1.541808,-1.27127 -0.510077,-0.227568 -1.436138,-0.451145 -2.77804,-0.670875 -0.800433,-0.133408 -1.389039,-0.25877 -1.765715,-0.376483 -0.376676,-0.125559 -0.714123,-0.286658 -1.012324,-0.482844 -0.298202,-0.204027 -0.537655,-0.466884 -0.718146,-0.78863 -0.18049,-0.321743 -0.270756,-0.678833 -0.270756,-1.071204 0,-0.761193 0.321783,-1.420431 0.965266,-1.977591 0.643486,-0.565014 1.510623,-0.847297 2.601405,-0.847297 1.035858,0 1.871855,0.262856 2.507494,0.78863 0.643481,0.525775 0.984698,1.118351 1.023933,1.777532 0.0079,0.211881 0.05508,0.364615 0.141392,0.458786 0.09417,0.09417 0.211813,0.141391 0.353059,0.141391 0.149098,0 0.266741,-0.05098 0.353059,-0.152998 0.09417,-0.10201 0.141181,-0.270848 0.141181,-0.506269 v -2.518891 c 0,-0.23542 -0.047,-0.404254 -0.141181,-0.506268 -0.08632,-0.102009 -0.203961,-0.152998 -0.353059,-0.152998 -0.149099,0 -0.270917,0.051 -0.365086,0.152998 -0.0863,0.10201 -0.129365,0.270848 -0.129365,0.506268 v 0.329634 c -0.996616,-0.871059 -2.185533,-1.306717 -3.56667,-1.306717 z m -221.109285,0.317817 c -0.23544,0 -0.40398,0.04723 -0.50606,0.141391 -0.10202,0.08632 -0.153,0.203959 -0.153,0.353059 0,0.149098 0.0509,0.270717 0.153,0.364876 0.10202,0.08631 0.27062,0.129574 0.50606,0.129574 h 0.62403 v 11.794404 h -0.8357 c -0.23541,0 -0.4043,0.0473 -0.50628,0.1414 -0.10201,0.0863 -0.15299,0.20397 -0.15299,0.35306 0,0.14126 0.051,0.2589 0.15299,0.35306 0.10192,0.0942 0.27087,0.14139 0.50628,0.14139 h 3.64898 c 0.23541,0 0.40418,-0.0473 0.50626,-0.14139 0.10202,-0.0942 0.15299,-0.2118 0.15299,-0.35306 0,-0.14909 -0.0509,-0.2667 -0.15299,-0.35306 -0.10202,-0.0941 -0.27085,-0.1414 -0.50626,-0.1414 h -1.82439 V 92.318416 h 0.18824 l 3.80219,8.651494 h 1.12987 l 3.73147,-8.651494 h 0.21189 v 11.794404 h -1.8246 c -0.24326,0 -0.4159,0.0473 -0.51787,0.1414 -0.10202,0.0863 -0.153,0.20397 -0.153,0.35306 0,0.14126 0.051,0.2589 0.153,0.35306 0.10987,0.0942 0.28246,0.14139 0.51787,0.14139 h 3.63738 c 0.24325,0 0.41579,-0.0473 0.51788,-0.14139 0.10202,-0.0942 0.15299,-0.2118 0.15299,-0.35306 0,-0.14909 -0.051,-0.2667 -0.15299,-0.35306 -0.10202,-0.0941 -0.27463,-0.1414 -0.51788,-0.1414 h -0.82408 V 92.318416 h 0.61199 c 0.24327,0 0.4161,-0.04325 0.51808,-0.129574 0.10202,-0.09416 0.153,-0.215778 0.153,-0.364876 0,-0.1491 -0.051,-0.266731 -0.153,-0.353059 -0.10191,-0.09417 -0.27481,-0.141391 -0.51808,-0.141391 h -2.42478 l -3.68421,8.522339 -3.7433,-8.522339 z m 15.37312,0 c -0.23541,0 -0.40408,0.04723 -0.50606,0.141391 -0.10202,0.08632 -0.15299,0.203959 -0.15299,0.353059 0,0.149098 0.0509,0.270717 0.15299,0.364876 0.10191,0.08631 0.27065,0.129574 0.50606,0.129574 h 2.51847 v 11.794404 h -2.51847 c -0.23541,0 -0.40408,0.0473 -0.50606,0.1414 -0.10202,0.0863 -0.15299,0.20397 -0.15299,0.35306 0,0.14126 0.0509,0.2589 0.15299,0.35306 0.10191,0.0942 0.27065,0.14139 0.50606,0.14139 h 6.02521 c 0.23543,0 0.40418,-0.0473 0.50627,-0.14139 0.10202,-0.0942 0.153,-0.2118 0.153,-0.35306 0,-0.14909 -0.051,-0.2667 -0.153,-0.35306 -0.10202,-0.0941 -0.27084,-0.1414 -0.50627,-0.1414 h -2.51805 V 92.318416 h 2.51805 c 0.23543,0 0.40418,-0.04325 0.50627,-0.129574 0.10202,-0.09416 0.153,-0.215778 0.153,-0.364876 0,-0.1491 -0.051,-0.266731 -0.153,-0.353059 -0.10202,-0.09417 -0.27084,-0.141391 -0.50627,-0.141391 z m 23.78639,0 c -0.23543,0 -0.4042,0.04723 -0.50627,0.141391 -0.10202,0.08632 -0.15301,0.203959 -0.15301,0.353059 0,0.149098 0.051,0.270717 0.15301,0.364876 0.10192,0.08631 0.27084,0.129574 0.50627,0.129574 h 1.32993 v 11.794404 h -1.32993 c -0.23543,0 -0.4042,0.0473 -0.50627,0.1414 -0.10202,0.0863 -0.15301,0.20397 -0.15301,0.35306 0,0.14126 0.051,0.2589 0.15301,0.35306 0.10192,0.0942 0.27084,0.14139 0.50627,0.14139 h 4.14342 c 0.24328,0 0.4159,-0.0473 0.51787,-0.14139 0.10202,-0.0942 0.15301,-0.2118 0.15301,-0.35306 0,-0.14909 -0.051,-0.2667 -0.15301,-0.35306 -0.10191,-0.0941 -0.27459,-0.1414 -0.51787,-0.1414 h -1.82459 v -5.155515 h 3.14292 c 0.87105,0.41589 1.63998,0.99635 2.307,1.741865 0.67489,0.74548 1.62433,2.21315 2.84853,4.40256 h 1.31854 c 0.23544,0 0.40408,-0.0473 0.50606,-0.14139 0.10202,-0.0942 0.15299,-0.2118 0.15299,-0.35306 0,-0.14909 -0.051,-0.2667 -0.15299,-0.35306 -0.10192,-0.0941 -0.27062,-0.1414 -0.50606,-0.1414 h -0.75338 c -1.10648,-1.89906 -1.91072,-3.15463 -2.41295,-3.76673 -0.50225,-0.61207 -1.10653,-1.161414 -1.81279,-1.647932 1.2242,-0.415901 2.09507,-0.933682 2.613,-1.553627 0.52579,-0.627791 0.78886,-1.294962 0.78886,-2.001227 0,-0.980921 -0.42375,-1.859757 -1.27127,-2.636647 -0.83967,-0.784734 -1.87562,-1.177141 -3.10767,-1.177141 z m 58.63258,0 c -0.23541,0 -0.40409,0.04723 -0.50605,0.141391 -0.10202,0.08632 -0.153,0.203959 -0.153,0.353059 0,0.149098 0.0509,0.270717 0.153,0.364876 0.10202,0.08631 0.27064,0.129574 0.50605,0.129574 h 0.62382 v 11.794404 h -0.83548 c -0.23542,0 -0.4043,0.0473 -0.50627,0.1414 -0.10202,0.0863 -0.15299,0.20397 -0.15299,0.35306 0,0.14126 0.051,0.2589 0.15299,0.35306 0.10192,0.0942 0.27085,0.14139 0.50627,0.14139 h 3.64897 c 0.23543,0 0.40408,-0.0473 0.50606,-0.14139 0.10202,-0.0942 0.15321,-0.2118 0.15321,-0.35306 0,-0.14909 -0.0511,-0.2667 -0.15321,-0.35306 -0.10192,-0.0941 -0.27063,-0.1414 -0.50606,-0.1414 h -1.82459 V 92.318416 h 0.18846 l 3.80217,8.651494 h 1.12988 l 3.73149,-8.651494 h 0.21167 v 11.794404 h -1.82438 c -0.24327,0 -0.41591,0.0473 -0.51788,0.1414 -0.10202,0.0863 -0.153,0.20397 -0.153,0.35306 0,0.14126 0.0509,0.2589 0.153,0.35306 0.10985,0.0942 0.28246,0.14139 0.51788,0.14139 h 3.63735 c 0.24327,0 0.41571,-0.0473 0.51767,-0.14139 0.10202,-0.0942 0.15323,-0.2118 0.15323,-0.35306 0,-0.14909 -0.0512,-0.2667 -0.15323,-0.35306 -0.10191,-0.0941 -0.2744,-0.1414 -0.51767,-0.1414 h -0.82408 V 92.318416 h 0.612 c 0.24328,0 0.41611,-0.04325 0.51809,-0.129574 0.10202,-0.09416 0.153,-0.215778 0.153,-0.364876 0,-0.1491 -0.0509,-0.266731 -0.153,-0.353059 -0.10192,-0.09417 -0.27481,-0.141391 -0.51809,-0.141391 h -2.42477 l -3.68443,8.522339 -3.7431,-8.522339 z m 15.43476,0 c -0.23542,0 -0.40409,0.04723 -0.50607,0.141391 -0.10202,0.08632 -0.15319,0.203959 -0.15319,0.353059 0,0.149098 0.0512,0.270717 0.15319,0.364876 0.10192,0.08631 0.27065,0.129574 0.50607,0.129574 h 1.33014 v 11.794404 h -1.33014 c -0.23542,0 -0.40409,0.0473 -0.50607,0.1414 -0.10202,0.0863 -0.15319,0.20397 -0.15319,0.35306 0,0.14126 0.0512,0.2589 0.15319,0.35306 0.10192,0.0942 0.27065,0.14139 0.50607,0.14139 h 5.70908 c 0.23542,0 0.40408,-0.0473 0.50606,-0.14139 0.10202,-0.0942 0.15299,-0.2118 0.15299,-0.35306 0,-0.14909 -0.0509,-0.2667 -0.15299,-0.35306 -0.10192,-0.0941 -0.27064,-0.1414 -0.50606,-0.1414 h -3.39004 v -4.661275 h 3.09586 c 0.67488,0 1.23965,-0.07441 1.6948,-0.223484 0.6278,-0.20402 1.23605,-0.525827 1.8246,-0.965265 0.39236,-0.290343 0.72586,-0.690699 1.0005,-1.200778 0.28251,-0.510078 0.42376,-1.082804 0.42376,-1.718442 0,-1.075091 -0.43149,-2.013061 -1.29469,-2.813494 -0.85537,-0.800432 -1.96195,-1.200566 -3.31956,-1.200566 z m 13.33667,0 c -0.23544,0 -0.40009,0.03929 -0.49424,0.117756 -0.10992,0.102009 -0.16504,0.227594 -0.16504,0.376694 0,0.149098 0.051,0.270717 0.15299,0.364876 0.10192,0.08631 0.27085,0.129574 0.50629,0.129574 h 0.83568 v 8.262984 c 0,0.94168 0.23925,1.80506 0.71793,2.58979 0.47868,0.7769 1.05958,1.35757 1.74229,1.74209 0.68272,0.38452 1.46358,0.57674 2.34248,0.57674 1.3105,0 2.4288,-0.47096 3.35479,-1.41264 0.92599,-0.94169 1.38901,-2.10699 1.38901,-3.49598 v -8.262984 h 0.83569 c 0.23543,0 0.40409,-0.04325 0.50607,-0.129574 0.10202,-0.09416 0.15298,-0.215778 0.15298,-0.364876 0,-0.1491 -0.051,-0.266731 -0.15298,-0.353059 -0.10192,-0.09417 -0.27064,-0.141391 -0.50607,-0.141391 h -3.64918 c -0.23543,0 -0.40409,0.04723 -0.50606,0.141391 -0.10202,0.08632 -0.153,0.203959 -0.153,0.353059 0,0.149098 0.051,0.270717 0.153,0.364876 0.10192,0.08631 0.27063,0.129574 0.50606,0.129574 h 1.82459 v 8.262984 c 0,0.7769 -0.20414,1.4754 -0.6122,2.09534 -0.40022,0.61996 -0.87098,1.07902 -1.41245,1.37722 -0.53364,0.2982 -1.12621,0.44739 -1.77754,0.44739 -1.02017,0 -1.90296,-0.38071 -2.64846,-1.14192 -0.74549,-0.7612 -1.11827,-1.68725 -1.11827,-2.77803 v -8.262984 h 1.82461 c 0.23542,0 0.40397,-0.04325 0.50604,-0.129574 0.10202,-0.09416 0.15322,-0.215778 0.15322,-0.364876 0,-0.1491 -0.0512,-0.266731 -0.15322,-0.353059 -0.10191,-0.09417 -0.27062,-0.141391 -0.50604,-0.141391 z m 15.16757,0 v 4.414179 c 0,0.243262 0.0473,0.41586 0.14139,0.517874 0.0942,0.10202 0.2118,0.153 0.35306,0.153 0.1491,0 0.26671,-0.051 0.35305,-0.153 0.0941,-0.102009 0.14139,-0.274612 0.14139,-0.517874 v -3.425279 h 4.0491 v 11.794404 h -1.69417 c -0.23542,0 -0.40409,0.0473 -0.50606,0.1414 -0.10202,0.0863 -0.15321,0.20397 -0.15321,0.35306 0,0.14126 0.0511,0.2589 0.15321,0.35306 0.10191,0.0942 0.27064,0.14139 0.50606,0.14139 h 4.38886 c 0.23542,0 0.4045,-0.0473 0.50647,-0.14139 0.10202,-0.0942 0.15278,-0.2118 0.15278,-0.35306 0,-0.14909 -0.0508,-0.2667 -0.15278,-0.35306 -0.10192,-0.0941 -0.27105,-0.1414 -0.50647,-0.1414 h -1.69418 V 92.318416 h 4.04929 v 3.425279 c 0,0.243262 0.0431,0.41586 0.12959,0.517874 0.0941,0.10202 0.21557,0.153 0.36466,0.153 0.14911,0 0.26692,-0.051 0.35328,-0.153 0.0941,-0.102009 0.14118,-0.274612 0.14118,-0.517874 v -4.414179 z m 14.69634,0 c -0.23542,0 -0.40408,0.04723 -0.50605,0.141391 -0.10202,0.08632 -0.153,0.203959 -0.153,0.353059 0,0.149098 0.051,0.270717 0.153,0.364876 0.10191,0.08631 0.27063,0.129574 0.50605,0.129574 h 1.33014 v 11.794404 h -1.33014 c -0.23542,0 -0.40408,0.0473 -0.50605,0.1414 -0.10202,0.0863 -0.153,0.20397 -0.153,0.35306 0,0.14126 0.051,0.2589 0.153,0.35306 0.10191,0.0942 0.27063,0.14139 0.50605,0.14139 h 10.91189 v -3.90813 c 0,-0.23541 -0.0473,-0.40407 -0.14139,-0.50605 -0.0863,-0.10202 -0.20397,-0.15321 -0.35305,-0.15321 -0.14911,0 -0.27095,0.0512 -0.3651,0.15321 -0.0864,0.10191 -0.12935,0.27064 -0.12935,0.50605 v 2.91922 h -7.60416 v -5.661782 h 3.54325 v 1.118057 c 0,0.23541 0.0471,0.40428 0.14116,0.506255 0.0942,0.10202 0.21599,0.15299 0.3651,0.15299 0.14124,0 0.25889,-0.051 0.35305,-0.15299 0.0942,-0.101915 0.14119,-0.270845 0.14119,-0.506255 v -3.225223 c 0,-0.23542 -0.0471,-0.404034 -0.14119,-0.506058 -0.0941,-0.102009 -0.21181,-0.152998 -0.35305,-0.152998 -0.14911,0 -0.27093,0.05098 -0.3651,0.152998 -0.0942,0.10202 -0.14116,0.270638 -0.14116,0.506058 v 1.118476 h -3.54325 v -5.143932 h 7.08628 v 2.412953 c 0,0.235419 0.043,0.404244 0.12936,0.506267 0.0941,0.102009 0.21599,0.153001 0.36509,0.153001 0.14909,0 0.2667,-0.05099 0.35305,-0.153001 0.0942,-0.10202 0.14118,-0.270848 0.14118,-0.506267 v -3.401853 z m 14.46674,0 c -0.23543,0 -0.40429,0.04723 -0.50626,0.141391 -0.10202,0.08632 -0.15301,0.203959 -0.15301,0.353059 0,0.149098 0.051,0.270717 0.15301,0.364876 0.10191,0.08631 0.27083,0.129574 0.50626,0.129574 h 1.32995 v 11.794404 h -1.32995 c -0.23543,0 -0.40429,0.0473 -0.50626,0.1414 -0.10202,0.0863 -0.15301,0.20397 -0.15301,0.35306 0,0.14126 0.051,0.2589 0.15301,0.35306 0.10191,0.0942 0.27083,0.14139 0.50626,0.14139 h 4.14344 c 0.24327,0 0.41569,-0.0473 0.51766,-0.14139 0.10202,-0.0942 0.1532,-0.2118 0.1532,-0.35306 0,-0.14909 -0.0512,-0.2667 -0.1532,-0.35306 -0.10191,-0.0941 -0.27439,-0.1414 -0.51766,-0.1414 h -1.8246 v -5.155515 h 3.14291 c 0.87104,0.41589 1.64001,0.99635 2.30702,1.741865 0.67484,0.74548 1.62416,2.21315 2.848307,4.40256 h 1.318326 c 0.235407,0 0.404302,-0.0473 0.506261,-0.14139 0.10202,-0.0942 0.153005,-0.2118 0.153005,-0.35306 0,-0.14909 -0.05098,-0.2667 -0.153005,-0.35306 -0.10202,-0.0941 -0.270854,-0.1414 -0.506261,-0.1414 h -0.753171 c -1.106461,-1.89906 -1.910742,-3.15463 -2.412962,-3.76673 -0.50222,-0.61207 -1.10652,-1.161414 -1.81277,-1.647932 1.22416,-0.415901 2.0951,-0.933682 2.61301,-1.553627 0.525758,-0.627791 0.788844,-1.294962 0.788844,-2.001227 0,-0.980921 -0.423765,-1.859757 -1.271274,-2.636647 -0.83964,-0.784734 -1.87566,-1.177141 -3.10765,-1.177141 z m 32.755503,0 c -0.235424,0 -0.404255,0.04723 -0.506269,0.141391 -0.102019,0.08632 -0.152999,0.203959 -0.152999,0.353059 0,0.149098 0.05098,0.270717 0.152999,0.364876 0.10201,0.08631 0.270845,0.129574 0.506269,0.129574 h 0.588572 l 4.343483,6.568194 v 5.22621 h -2.566162 c -0.243273,0 -0.415863,0.0473 -0.517877,0.1414 -0.09418,0.0863 -0.141179,0.20397 -0.141179,0.35306 0,0.14126 0.05098,0.2589 0.152997,0.35306 0.10202,0.0942 0.270638,0.14139 0.506059,0.14139 h 6.132832 c 0.23542,0 0.404044,-0.0473 0.506058,-0.14139 0.102008,-0.0942 0.152998,-0.2118 0.152998,-0.35306 0,-0.14909 -0.051,-0.2667 -0.152998,-0.35306 -0.10201,-0.0941 -0.270638,-0.1414 -0.506058,-0.1414 h -2.566163 v -5.22621 l 4.272998,-6.568194 h 0.588362 c 0.235423,0 0.404253,-0.04325 0.506266,-0.129574 0.102009,-0.09416 0.152999,-0.215778 0.152999,-0.364876 0,-0.1491 -0.05098,-0.266731 -0.152999,-0.353059 -0.102008,-0.09417 -0.270843,-0.141391 -0.506266,-0.141391 h -2.707134 c -0.243271,0 -0.416073,0.04723 -0.518086,0.141391 -0.102009,0.08632 -0.152999,0.203959 -0.152999,0.353059 0,0.149098 0.05098,0.270717 0.152999,0.364876 0.10201,0.08631 0.274815,0.129574 0.518086,0.129574 h 0.965055 l -3.613731,5.567686 -3.696034,-5.567686 h 0.976872 c 0.23542,0 0.404256,-0.04325 0.506269,-0.129574 0.10201,-0.09416 0.152999,-0.215778 0.152999,-0.364876 0,-0.1491 -0.05099,-0.266731 -0.152999,-0.353059 -0.102009,-0.09417 -0.270849,-0.141391 -0.506269,-0.141391 z m 25.315741,0 v 4.414179 c 0,0.243262 0.04723,0.41586 0.141392,0.517874 0.09417,0.10202 0.211808,0.153 0.353058,0.153 0.1491,0 0.266731,-0.051 0.353059,-0.153 0.09417,-0.102009 0.141391,-0.274612 0.141391,-0.517874 v -3.425279 h 4.049304 v 11.794404 h -1.694385 c -0.235426,0 -0.404045,0.0473 -0.506057,0.1414 -0.10201,0.0863 -0.152999,0.20397 -0.152999,0.35306 0,0.14126 0.05098,0.2589 0.152999,0.35306 0.102009,0.0942 0.270631,0.14139 0.506057,0.14139 h 4.389067 c 0.235424,0 0.404255,-0.0473 0.506269,-0.14139 0.10202,-0.0942 0.152998,-0.2118 0.152998,-0.35306 0,-0.14909 -0.05096,-0.2667 -0.152998,-0.35306 -0.10201,-0.0941 -0.270845,-0.1414 -0.506269,-0.1414 h -1.694174 V 92.318416 h 4.049303 v 3.425279 c 0,0.243262 0.04304,0.41586 0.129363,0.517874 0.09417,0.10202 0.215988,0.153 0.365089,0.153 0.149098,0 0.266741,-0.051 0.353058,-0.153 0.09417,-0.102009 0.14118,-0.274612 0.14118,-0.517874 v -4.414179 z m 14.914343,0 c -0.23542,0 -0.404043,0.04723 -0.506058,0.141391 -0.102009,0.08632 -0.153,0.203959 -0.153,0.353059 0,0.149098 0.05101,0.270717 0.153,0.364876 0.102009,0.08631 0.270638,0.129574 0.506058,0.129574 h 1.33014 v 11.794404 h -1.33014 c -0.23542,0 -0.404043,0.0473 -0.506058,0.1414 -0.102009,0.0863 -0.153,0.20397 -0.153,0.35306 0,0.14126 0.05101,0.2589 0.153,0.35306 0.102009,0.0942 0.270638,0.14139 0.506058,0.14139 h 10.911888 v -3.90813 c 0,-0.23541 -0.04722,-0.40407 -0.141393,-0.50605 -0.08633,-0.10202 -0.203958,-0.15321 -0.353058,-0.15321 -0.149098,0 -0.270706,0.0512 -0.364877,0.15321 -0.0863,0.10191 -0.129573,0.27064 -0.129573,0.50605 v 2.91922 h -7.603944 v -5.661782 h 3.543033 v 1.118057 c 0,0.23541 0.04722,0.40428 0.141392,0.506255 0.09417,0.10202 0.215778,0.15299 0.364876,0.15299 0.141256,0 0.258889,-0.051 0.353059,-0.15299 0.09417,-0.101915 0.141393,-0.270845 0.141393,-0.506255 v -3.225223 c 0,-0.23542 -0.04722,-0.404034 -0.141393,-0.506058 -0.09417,-0.102009 -0.211803,-0.152998 -0.353059,-0.152998 -0.149098,0 -0.270707,0.05098 -0.364876,0.152998 -0.09418,0.10202 -0.141392,0.270638 -0.141392,0.506058 v 1.118476 h -3.543033 v -5.143932 h 7.086068 v 2.412953 c 0,0.235419 0.04304,0.404244 0.129364,0.506267 0.09417,0.102009 0.215988,0.153001 0.365087,0.153001 0.149098,0 0.266731,-0.05099 0.353059,-0.153001 0.09417,-0.10202 0.14118,-0.270848 0.14118,-0.506267 v -3.401853 z m 14.579011,0 c -0.235421,0 -0.404045,0.04723 -0.506059,0.141391 -0.102009,0.08632 -0.152998,0.203959 -0.152998,0.353059 0,0.149098 0.051,0.270717 0.152998,0.364876 0.102009,0.08631 0.270638,0.129574 0.506059,0.129574 h 0.623812 v 11.794404 h -0.83548 c -0.235419,0 -0.404255,0.0473 -0.506267,0.1414 -0.10201,0.0863 -0.153,0.20397 -0.153,0.35306 0,0.14126 0.05099,0.2589 0.153,0.35306 0.102008,0.0942 0.270848,0.14139 0.506267,0.14139 h 3.648974 c 0.235421,0 0.404044,-0.0473 0.506057,-0.14139 0.102009,-0.0942 0.15321,-0.2118 0.15321,-0.35306 0,-0.14909 -0.05121,-0.2667 -0.15321,-0.35306 -0.10201,-0.0941 -0.270636,-0.1414 -0.506057,-0.1414 h -1.824592 V 92.318416 h 0.188453 l 3.801972,8.651494 h 1.130081 l 3.731487,-8.651494 h 0.211666 v 11.794404 h -1.82438 c -0.243273,0 -0.415862,0.0473 -0.517876,0.1414 -0.102009,0.0863 -0.152998,0.20397 -0.152998,0.35306 0,0.14126 0.05099,0.2589 0.152998,0.35306 0.109865,0.0942 0.28245,0.14139 0.517876,0.14139 h 3.6373656 c 0.243273,0 0.415652,-0.0473 0.5176639,-0.14139 0.1020099,-0.0942 0.1532103,-0.2118 0.1532103,-0.35306 0,-0.14909 -0.051196,-0.2667 -0.1532103,-0.35306 -0.1020089,-0.0941 -0.2743909,-0.1414 -0.5176639,-0.1414 H -10.466018 V 92.318416 h 0.6119969 c 0.243271,0 0.4160712,-0.04325 0.5180861,-0.129574 0.1020089,-0.09416 0.1529977,-0.215778 0.1529977,-0.364876 0,-0.1491 -0.051005,-0.266731 -0.1529977,-0.353059 -0.1020089,-0.09417 -0.2748151,-0.141391 -0.5180861,-0.141391 h -2.4247699 l -3.684427,8.522339 -3.743094,-8.522339 z m -199.058858,0.671085 c 1.48314,0 2.6917,0.63938 3.62553,1.918501 0.93385,1.279121 1.40085,2.722964 1.40085,4.331665 0,1.616508 -0.467,3.064553 -1.40085,4.343683 -0.93383,1.27127 -2.14239,1.9069 -3.62553,1.9069 -1.29482,0 -2.46013,-0.58087 -3.49599,-1.7423 -1.02799,-1.16925 -1.5418,-2.67204 -1.5418,-4.508283 0,-1.726413 0.49039,-3.197625 1.47133,-4.413968 0.98875,-1.224188 2.17747,-1.836198 3.56646,-1.836198 z m 29.15126,0 c 1.48315,0 2.69151,0.63938 3.62533,1.918501 0.93385,1.279121 1.40085,2.722964 1.40085,4.331665 0,1.616508 -0.467,3.064553 -1.40085,4.343683 -0.93382,1.27127 -2.14218,1.9069 -3.62533,1.9069 -1.29482,0 -2.46013,-0.58087 -3.49598,-1.7423 -1.02799,-1.16925 -1.542,-2.67204 -1.542,-4.508283 0,-1.726413 0.4904,-3.197625 1.47131,-4.413968 0.98877,-1.224188 2.17767,-1.836198 3.56667,-1.836198 z m -47.07283,0.317815 h 3.63716 c 0.94953,0 1.75397,0.298166 2.41316,0.894569 0.66702,0.596401 1.0005,1.224078 1.0005,1.88326 0,0.439453 -0.16089,0.871143 -0.48263,1.294899 -0.3139,0.423759 -0.82393,0.792549 -1.5302,1.106446 -0.69842,0.313897 -1.47926,0.470815 -2.34247,0.470815 h -2.69552 z m 74.06755,0 h 3.51961 c 1.02017,0 1.86368,0.30987 2.53071,0.929812 0.66702,0.619943 1.0003,1.318459 1.0003,2.095348 0,0.48654 -0.14898,0.965236 -0.44719,1.436079 -0.29034,0.470841 -0.75713,0.870766 -1.40062,1.200357 -0.63564,0.321737 -1.31849,0.482843 -2.04828,0.482843 h -3.15453 z m 57.66712,0 h 3.63695 c 0.9495,0 1.75399,0.298166 2.41316,0.894569 0.66701,0.596401 1.0005,1.224078 1.0005,1.88326 0,0.439453 -0.16069,0.871143 -0.48242,1.294899 -0.3139,0.423759 -0.82416,0.792549 -1.53042,1.106446 -0.69839,0.313897 -1.47906,0.470815 -2.34225,0.470815 h -2.69552 z"
       transform="matrix(9.6863907,0,0,9.6863907,3781.6192,0)" /><path
       id="path47"
       style="font-size:31.7554px;font-family:'Courier New';-inkscape-font-specification:'Courier New';white-space:pre;fill:#e6dbc4;fill-opacity:1;stroke:#e6dbc4;stroke-width:0.80024;stroke-linejoin:round;stroke-dasharray:none;stroke-opacity:1;paint-order:stroke fill markers"
       d="m -237.63571,8.6090305 c -0.89471,0 -1.61627,0.245836 -2.16443,0.7371583 -0.54314,0.4913219 -0.81462,1.0783822 -0.81462,1.7610582 0,0.687843 0.23801,1.21772 0.71384,1.590098 0.47585,0.372362 1.25393,0.649214 2.33475,0.830239 0.78619,0.134455 1.30354,0.256014 1.55179,0.364622 0.35676,0.155154 0.62572,0.367235 0.8067,0.636164 0.18102,0.263764 0.27155,0.566159 0.27155,0.907497 0,0.558551 -0.23807,1.042209 -0.71384,1.450786 -0.4706,0.408569 -1.11439,0.612841 -1.9316,0.612841 -0.81709,0 -1.46857,-0.193926 -1.95472,-0.581815 -0.48102,-0.393055 -0.73438,-0.827544 -0.76028,-1.303353 -0.005,-0.139639 -0.039,-0.240502 -0.101,-0.302568 -0.057,-0.06209 -0.13197,-0.09309 -0.2251,-0.09309 -0.0984,0 -0.17818,0.03375 -0.24032,0.100995 -0.0569,0.06724 -0.0854,0.180971 -0.0854,0.341301 v 1.79979 c 0,0.155154 0.0311,0.266148 0.0931,0.333387 0.0622,0.06724 0.13967,0.100996 0.2328,0.100996 0.0984,0 0.17569,-0.03376 0.23261,-0.100996 0.062,-0.06724 0.0931,-0.178233 0.0931,-0.333387 v -0.372327 c 0.67746,0.708536 1.58257,1.06284 2.7152,1.06284 1.0085,0 1.81023,-0.261453 2.40493,-0.783803 0.5948,-0.527528 0.89208,-1.163542 0.89208,-1.908282 0,-0.486155 -0.11635,-0.907561 -0.349,-1.264414 -0.22757,-0.356862 -0.56625,-0.636036 -1.01621,-0.837736 -0.33613,-0.149983 -0.94665,-0.297478 -1.831,-0.442296 -0.52753,-0.08792 -0.91538,-0.170847 -1.16364,-0.248427 -0.24825,-0.08275 -0.47065,-0.18868 -0.6672,-0.317976 -0.19649,-0.13446 -0.35415,-0.307713 -0.4731,-0.519761 -0.11896,-0.212045 -0.17847,-0.447325 -0.17847,-0.705922 0,-0.50167 0.21212,-0.936157 0.63617,-1.3033543 0.42418,-0.3723765 0.99548,-0.558491 1.71441,-0.558491 0.68263,0 1.23349,0.1734492 1.65236,0.5199677 0.42405,0.3465036 0.64908,0.7368916 0.67489,1.1713306 0.005,0.139639 0.0361,0.240294 0.0931,0.302361 0.0622,0.06209 0.13968,0.09328 0.23281,0.09328 0.0983,0 0.17578,-0.03376 0.2328,-0.100996 0.0621,-0.06724 0.0931,-0.178444 0.0931,-0.333595 v -1.66005 c 0,-0.1551499 -0.031,-0.2663662 -0.0931,-0.3335953 -0.057,-0.06727 -0.13448,-0.1009946 -0.2328,-0.1009946 -0.0984,0 -0.17818,0.033753 -0.24031,0.1009946 -0.057,0.067229 -0.0856,0.1784454 -0.0856,0.3335953 v 0.217191 c -0.65681,-0.5740627 -1.44015,-0.8612675 -2.35038,-0.8612675 z m 41.02786,0 c -1.04996,0 -1.97589,0.4448242 -2.77746,1.3343812 -0.79655,0.8895433 -1.19467,2.0351833 -1.19467,3.4367403 0,1.396394 0.39812,2.542019 1.19467,3.436741 0.80157,0.889554 1.7275,1.334382 2.77746,1.334382 0.70845,0 1.37055,-0.207011 1.98594,-0.620755 0.6206,-0.413744 1.10677,-0.990472 1.45849,-1.730031 0.35171,-0.744741 0.52726,-1.551471 0.52726,-2.420337 0,-0.87403 -0.17829,-1.680762 -0.53517,-2.420336 -0.35171,-0.739559 -0.83516,-1.3162846 -1.45058,-1.7300316 -0.61539,-0.4137471 -1.27749,-0.6207539 -1.98594,-0.6207539 z m 28.25377,0 c -0.69825,0 -1.34733,0.1810529 -1.94722,0.5430815 -2.47101,1.482719 -2.80538,6.173131 -0.1085,8.23889 0.24305,0.186183 0.55051,0.348887 0.92291,0.488523 0.48616,0.181015 0.96482,0.27154 1.43539,0.27154 0.54307,0 1.07819,-0.119016 1.60569,-0.356917 0.53266,-0.243073 1.01111,-0.602443 1.43518,-1.07825 0.22239,-0.243071 0.33359,-0.423915 0.33359,-0.542873 0,-0.08792 -0.0285,-0.160504 -0.0853,-0.2174 -0.0569,-0.05691 -0.13187,-0.08517 -0.2249,-0.08517 -0.10858,0 -0.20693,0.05405 -0.29485,0.162634 -0.41372,0.49132 -0.84296,0.858706 -1.28775,1.101781 -0.43958,0.243074 -0.93863,0.364623 -1.49722,0.364623 -0.93085,0 -1.74805,-0.35705 -2.45136,-1.070755 -1.34714,-1.474807 -1.63111,-4.344664 -0.0233,-6.244814 0.1965,-0.2327373 0.46025,-0.4291886 0.79131,-0.5895176 0.44474,-0.2223912 0.91787,-0.3335956 1.41953,-0.3335956 0.7654,0 1.44814,0.230232 2.04801,0.6905129 0.44483,0.3361693 0.68014,0.7214923 0.70593,1.1559223 0.0105,0.139638 0.044,0.240503 0.10101,0.302569 0.062,0.06209 0.13697,0.09309 0.2249,0.09309 0.0983,0 0.17599,-0.03376 0.23281,-0.100995 0.0621,-0.06724 0.093,-0.180971 0.093,-0.3413 V 9.253107 c 0,-0.155149 -0.031,-0.2663665 -0.093,-0.3335953 -0.0568,-0.06727 -0.1346,-0.1009946 -0.23281,-0.1009946 -0.0982,0 -0.17852,0.033753 -0.24053,0.1009946 -0.0569,0.067229 -0.0854,0.1784463 -0.0854,0.3335953 v 0.4577044 c -0.77574,-0.7343897 -1.70136,-1.1017809 -2.77704,-1.1017809 z m 19.44785,0 c -0.89471,0 -1.61623,0.245836 -2.1644,0.7371583 -0.54302,0.4913219 -0.81441,1.0783822 -0.81441,1.7610582 0,0.687843 0.23783,1.21772 0.71362,1.590098 0.47585,0.372362 1.25403,0.649214 2.33496,0.830239 0.78609,0.134455 1.30332,0.256014 1.55158,0.364622 0.35689,0.155154 0.62573,0.367235 0.80671,0.636164 0.18107,0.263764 0.27153,0.566159 0.27153,0.907497 0,0.558551 -0.23784,1.042209 -0.71364,1.450786 -0.47067,0.408569 -1.11445,0.612841 -1.93159,0.612841 -0.81716,0 -1.46877,-0.193926 -1.95493,-0.581815 -0.48102,-0.393055 -0.73446,-0.827544 -0.76026,-1.303353 -0.005,-0.139639 -0.0389,-0.240502 -0.10101,-0.302568 -0.0568,-0.06209 -0.13186,-0.09309 -0.22489,-0.09309 -0.0983,0 -0.17829,0.03375 -0.2403,0.100995 -0.057,0.06724 -0.0853,0.180971 -0.0853,0.341301 v 1.79979 c 0,0.155154 0.0309,0.266148 0.0931,0.333387 0.062,0.06724 0.13981,0.100996 0.23282,0.100996 0.0983,0 0.1758,-0.03376 0.2326,-0.100996 0.0622,-0.06724 0.0931,-0.178233 0.0931,-0.333387 v -0.372327 c 0.67749,0.708536 1.58279,1.06284 2.7154,1.06284 1.0085,0 1.80994,-0.261453 2.40472,-0.783803 0.59471,-0.527528 0.89229,-1.163542 0.89229,-1.908282 0,-0.486155 -0.11646,-0.907561 -0.3492,-1.264414 -0.22759,-0.356862 -0.56629,-0.636036 -1.01619,-0.837736 -0.33623,-0.149983 -0.94667,-0.297478 -1.83104,-0.442296 -0.52754,-0.08792 -0.91517,-0.170847 -1.16341,-0.248427 -0.24824,-0.08275 -0.47071,-0.18868 -0.6672,-0.317976 -0.19659,-0.13446 -0.35435,-0.307713 -0.47332,-0.519761 -0.1189,-0.212045 -0.17845,-0.447325 -0.17845,-0.705922 0,-0.50167 0.21201,-0.936157 0.63616,-1.3033543 0.42403,-0.3723765 0.99558,-0.558491 1.71441,-0.558491 0.68275,0 1.23345,0.1734492 1.65236,0.5199677 0.42415,0.3465036 0.64931,0.7368916 0.67511,1.1713306 0.005,0.139639 0.0361,0.240294 0.0931,0.302361 0.0621,0.06209 0.1396,0.09328 0.23261,0.09328 0.0983,0 0.17581,-0.03376 0.2326,-0.100996 0.0622,-0.06724 0.0933,-0.178444 0.0933,-0.333595 v -1.66005 c 0,-0.1551499 -0.0311,-0.2663662 -0.0933,-0.3335953 -0.0568,-0.06727 -0.13437,-0.1009946 -0.2326,-0.1009946 -0.0983,0 -0.17837,0.033753 -0.2405,0.1009946 -0.0569,0.067229 -0.0854,0.1784454 -0.0854,0.3335953 v 0.217191 c -0.65685,-0.5740627 -1.44034,-0.8612675 -2.35058,-0.8612675 z m 33.40891,0 c -0.72404,0 -1.39384,0.1787344 -2.00929,0.5355851 -2.73225,1.5842964 -2.97593,7.3256004 0.51976,8.6963864 0.53271,0.206869 1.14804,0.310273 1.84624,0.310273 0.49134,0 0.98278,-0.07005 1.4741,-0.209695 0.49648,-0.13964 0.99302,-0.346441 1.48951,-0.620546 V 14.52837 h -2e-4 c -0.21847,-0.138371 0.41401,-0.0078 0.46562,-0.02332 0.0518,-0.02069 0.0983,-0.05931 0.13951,-0.116195 0.0414,-0.05689 0.0621,-0.119134 0.0621,-0.186374 0,-0.09825 -0.0335,-0.175715 -0.1008,-0.2326 -0.0673,-0.06211 -0.17845,-0.09309 -0.3336,-0.09309 l -3.13417,-0.008 c -0.15516,0 -0.26639,0.03102 -0.33359,0.09309 -0.0674,0.06206 -0.1008,0.142249 -0.1008,0.240514 0,0.09826 0.0335,0.178447 0.1008,0.240513 0.0673,0.05692 0.17843,0.08538 0.33359,0.08538 h 2.24208 v 2.412423 c -0.4499,0.206873 -0.84308,0.351837 -1.17924,0.434589 -0.3362,0.08276 -0.70081,0.124109 -1.09387,0.124109 -1.16364,0 -2.0765,-0.318011 -2.73852,-0.95414 -1.73019,-1.662591 -1.25419,-5.797489 0.77589,-6.8888906 0.48612,-0.2637635 1.02913,-0.3956499 1.62904,-0.3956499 0.63615,0 1.22318,0.1396968 1.76105,0.4189729 0.54308,0.2792753 0.83006,0.6386436 0.86106,1.0782496 0.005,0.149985 0.0365,0.25613 0.0933,0.318185 0.0621,0.05691 0.13697,0.08517 0.22491,0.08517 0.0931,0 0.17068,-0.03102 0.2328,-0.09309 0.0622,-0.06724 0.093,-0.180975 0.093,-0.341299 v -1.47381 c 0,-0.1551499 -0.031,-0.2663662 -0.093,-0.3335953 -0.062,-0.06727 -0.13967,-0.1009946 -0.2328,-0.1009946 -0.0724,0 -0.13695,0.020725 -0.19387,0.062054 -0.0569,0.03619 -0.0959,0.080304 -0.11663,0.1320222 -0.0155,0.051717 -0.0231,0.2042875 -0.0231,0.4577046 -0.72404,-0.5740627 -1.61096,-0.8612669 -2.66085,-0.8612675 z m 13.185,0 c -0.69815,0 -1.34726,0.1810507 -1.94717,0.5430815 -2.47125,1.482664 -2.80495,6.173606 -0.1085,8.23889 0.24308,0.186184 0.55054,0.348886 0.92288,0.488523 0.48614,0.181016 0.9647,0.27154 1.43535,0.27154 0.54301,0 1.07814,-0.119014 1.60569,-0.356917 0.532734,-0.243074 1.011256,-0.602231 1.435378,-1.078042 0.222396,-0.243072 0.333604,-0.424122 0.333604,-0.543081 0,-0.08792 -0.02864,-0.160296 -0.08541,-0.217191 -0.05687,-0.05691 -0.131981,-0.08538 -0.225108,-0.08538 -0.108619,0 -0.20673,0.05424 -0.294659,0.162842 -0.413767,0.491321 -0.843145,0.858496 -1.287945,1.101573 -0.43959,0.243075 -0.93867,0.364623 -1.4972,0.364623 -0.93092,0 -1.74791,-0.356837 -2.4513,-1.070546 -1.34723,-1.475073 -1.63084,-4.345215 -0.0233,-6.245023 0.19653,-0.2327383 0.4603,-0.4291876 0.79127,-0.5895176 0.44481,-0.2223926 0.91788,-0.3335957 1.41953,-0.3335957 0.76541,0 1.44823,0.2302293 2.04818,0.690513 0.444774,0.3361723 0.679808,0.7214903 0.705727,1.1559223 0.0105,0.139639 0.04424,0.240502 0.101006,0.302569 0.06207,0.06209 0.137189,0.09309 0.225107,0.09309 0.09825,0 0.175685,-0.03376 0.232599,-0.100995 0.06207,-0.06724 0.09336,-0.18097 0.09336,-0.3413 V 9.253107 c 0,-0.1551499 -0.03119,-0.2663662 -0.09336,-0.3335953 -0.05687,-0.06727 -0.134386,-0.1009946 -0.232599,-0.1009946 -0.09835,0 -0.178508,0.033753 -0.240507,0.1009946 -0.05708,0.067229 -0.08541,0.1784454 -0.08541,0.3335953 v 0.4577044 h -2.04e-4 c -0.775829,-0.7343941 -1.701279,-1.1017809 -2.777039,-1.1017809 z m 9.228202,0 c -1.049861,0 -1.9758,0.4448242 -2.777462,1.3343812 -0.796455,0.8895433 -1.194455,2.0351833 -1.194455,3.4367403 0,1.396394 0.398,2.542019 1.194455,3.436741 0.801662,0.889554 1.727601,1.334382 2.777462,1.334382 0.708566,0 1.370281,-0.207011 1.98574,-0.620755 0.620622,-0.413744 1.10682,-0.990472 1.458492,-1.730031 0.351671,-0.744741 0.527672,-1.551471 0.527672,-2.420337 0,-0.87403 -0.178528,-1.680762 -0.535377,-2.420336 -0.35166,-0.739559 -0.83532,-1.3162846 -1.450787,-1.7300316 -0.615459,-0.4137471 -1.277174,-0.6207539 -1.98574,-0.6207539 z m 27.916639,0 c -1.049903,0 -1.975642,0.4448242 -2.777254,1.3343812 -0.796479,0.8895433 -1.194655,2.0351833 -1.194655,3.4367403 0,1.396394 0.398176,2.542019 1.194655,3.436741 0.801612,0.889554 1.727351,1.334382 2.777254,1.334382 0.708509,0 1.370535,-0.207011 1.985954,-0.620755 0.620621,-0.413744 1.10682,-0.990472 1.458491,-1.730031 0.351706,-0.744741 0.527464,-1.551471 0.527464,-2.420337 0,-0.87403 -0.178284,-1.680762 -0.535169,-2.420336 -0.35167,-0.739559 -0.835344,-1.3162846 -1.450786,-1.7300316 -0.615419,-0.4137471 -1.277445,-0.6207539 -1.985954,-0.6207539 z m 42.641069,0 c -1.04988,0 -1.975828,0.4448242 -2.777462,1.3343812 -0.796457,0.8895433 -1.194447,2.0351833 -1.194447,3.4367403 0,1.396394 0.39799,2.542019 1.194447,3.436741 0.801634,0.889554 1.727582,1.334382 2.777462,1.334382 0.708533,0 1.370501,-0.207011 1.985956,-0.620755 0.620621,-0.413744 1.106796,-0.990472 1.458489,-1.730031 0.351684,-0.744741 0.527464,-1.551471 0.527464,-2.420337 0,-0.87403 -0.178527,-1.680762 -0.535376,-2.420336 -0.351694,-0.739559 -0.835136,-1.3162846 -1.450577,-1.7300316 -0.615455,-0.4137471 -1.277423,-0.6207539 -1.985956,-0.6207539 z m -137.71289,2.082e-4 c -0.15518,0 -0.26627,0.031014 -0.3336,0.093082 -0.0674,0.056893 -0.1008,0.1345418 -0.1008,0.2328086 0,0.09309 0.0335,0.1705443 0.1008,0.2326006 0.0673,0.062068 0.17842,0.09329 0.3336,0.09329 h 0.63283 c -0.0241,0.077134 -0.0469,0.1512778 -0.0904,0.209278 l -2.87804,7.7730641 h -0.50414 c -0.15516,0 -0.26639,0.03102 -0.33361,0.09309 -0.0674,0.05689 -0.10101,0.13475 -0.10101,0.233017 0,0.0931 0.0336,0.170545 0.10101,0.2326 0.0673,0.06207 0.17845,0.09308 0.33361,0.09308 h 2.43574 c 0.1551,0 0.26638,-0.03102 0.3336,-0.09308 0.0674,-0.06206 0.1008,-0.139506 0.1008,-0.2326 0,-0.09827 -0.0335,-0.176133 -0.1008,-0.233017 -0.0673,-0.06207 -0.1785,-0.09309 -0.3336,-0.09309 h -1.2488 l 0.87648,-2.381396 h 4.28218 l 0.8923,2.381396 h -1.2413 c -0.1603,0 -0.27421,0.03102 -0.34152,0.09309 -0.0673,0.05689 -0.10059,0.13475 -0.10059,0.233017 0,0.0931 0.0333,0.170545 0.10059,0.2326 0.0674,0.06207 0.18122,0.09308 0.34152,0.09308 h 2.42823 c 0.15516,0 0.26629,-0.03102 0.33361,-0.09308 0.0674,-0.06206 0.1008,-0.139506 0.1008,-0.2326 0,-0.09827 -0.0335,-0.176133 -0.1008,-0.233017 -0.0674,-0.06207 -0.17845,-0.09309 -0.33361,-0.09309 h -0.50455 l -3.01361,-7.9823421 h 0.57224 c 0.15512,0 0.26638,-0.031223 0.33359,-0.09329 0.0674,-0.062057 0.10081,-0.1395066 0.10081,-0.2326006 0,-0.098265 -0.0335,-0.1759246 -0.10081,-0.2328086 -0.0673,-0.062068 -0.17847,-0.093082 -0.33359,-0.093082 z m -120.93208,0.2092781 c -0.15512,0 -0.2665,0.031018 -0.33359,0.093082 -0.0674,0.056882 -0.1008,0.1347629 -0.1008,0.2330169 0,0.098267 0.0334,0.1784654 0.1008,0.2405135 0.0672,0.056927 0.17847,0.085169 0.33359,0.085169 h 0.87668 v 7.7730648 h -0.87668 c -0.15512,0 -0.2665,0.03102 -0.33359,0.09309 -0.0674,0.05689 -0.1008,0.134751 -0.1008,0.233017 0,0.0931 0.0334,0.170545 0.1008,0.2326 0.0672,0.06207 0.17847,0.09308 0.33359,0.09308 h 4.87192 c 0.50167,0 0.96454,-0.126614 1.38873,-0.380033 0.4292,-0.253419 0.74716,-0.558559 0.95393,-0.915409 0.20695,-0.362029 0.31048,-0.760426 0.31048,-1.194863 0,-0.486144 -0.15777,-0.930771 -0.47331,-1.334174 -0.31542,-0.403401 -0.81193,-0.726687 -1.48954,-0.969758 0.85337,-0.491322 1.28004,-1.135146 1.28004,-1.931605 0,-0.630961 -0.25599,-1.1792043 -0.76797,-1.6446542 -0.50685,-0.4706444 -1.16635,-0.7061308 -1.97826,-0.7061308 z m 9.54204,0 c -0.15512,0 -0.26648,0.031018 -0.3338,0.093082 -0.0674,0.056882 -0.10059,0.1347629 -0.10059,0.2330169 0,0.098267 0.0334,0.1784654 0.10059,0.2405135 0.0674,0.056927 0.17868,0.085169 0.3338,0.085169 h 0.87668 v 7.7730648 h -0.87668 c -0.15512,0 -0.26648,0.03102 -0.3338,0.09309 -0.0674,0.05689 -0.10059,0.134751 -0.10059,0.233017 0,0.0931 0.0334,0.170545 0.10059,0.2326 0.0674,0.06207 0.17868,0.09308 0.3338,0.09308 h 2.73061 c 0.16041,0 0.27408,-0.03102 0.34129,-0.09308 0.0674,-0.06206 0.10101,-0.139506 0.10101,-0.2326 0,-0.09827 -0.0336,-0.176132 -0.10101,-0.233017 -0.0672,-0.06207 -0.18088,-0.09309 -0.34129,-0.09309 h -1.20235 v -3.397592 h 2.07112 c 0.57413,0.274109 1.081,0.656686 1.52053,1.148009 0.44486,0.491323 1.07071,1.458426 1.87747,2.901364 h 0.86897 c 0.15513,0 0.26628,-0.03102 0.3336,-0.09309 0.0674,-0.06206 0.1008,-0.139506 0.1008,-0.2326 0,-0.09826 -0.0335,-0.176133 -0.1008,-0.233017 -0.0674,-0.06207 -0.17847,-0.09309 -0.3336,-0.09309 h -0.49664 c -0.72925,-1.251578 -1.25919,-2.07899 -1.59009,-2.482391 -0.33106,-0.403399 -0.72936,-0.765294 -1.19487,-1.085955 0.80689,-0.274095 1.38094,-0.615529 1.72232,-1.02411 0.34655,-0.413745 0.51956,-0.853508 0.51956,-1.318972 0,-0.646475 -0.27911,-1.225512 -0.83773,-1.7375276 -0.55335,-0.5171815 -1.23603,-0.7758908 -2.04801,-0.7758908 z m 9.71341,0 c -0.15512,0 -0.26648,0.031018 -0.3338,0.093082 -0.0673,0.056882 -0.10059,0.1347629 -0.10059,0.2330169 0,0.098267 0.0333,0.1784654 0.10059,0.2405135 0.0674,0.056927 0.17868,0.085169 0.3338,0.085169 h 1.31961 v 7.7730648 h -1.31961 c -0.15512,0 -0.26648,0.03102 -0.3338,0.09309 -0.0673,0.05689 -0.10059,0.134751 -0.10059,0.233017 0,0.0931 0.0333,0.170545 0.10059,0.2326 0.0674,0.06207 0.17868,0.09308 0.3338,0.09308 h 3.29099 c 0.15511,0 0.26648,-0.03102 0.33358,-0.09308 0.0674,-0.06206 0.1008,-0.139506 0.1008,-0.2326 0,-0.09827 -0.0334,-0.176132 -0.1008,-0.233017 -0.0672,-0.06207 -0.17847,-0.09309 -0.33358,-0.09309 h -1.31961 V 9.470298 h 1.31961 c 0.15511,0 0.26648,-0.028272 0.33358,-0.085169 0.0674,-0.062048 0.1008,-0.1422462 0.1008,-0.2405135 0,-0.098253 -0.0334,-0.1761347 -0.1008,-0.2330169 -0.0672,-0.062094 -0.17847,-0.093082 -0.33358,-0.093082 z m 5.68883,0 v 2.9092762 c 0,0.160331 0.0311,0.274073 0.0933,0.3413 0.0619,0.06728 0.13958,0.100996 0.23261,0.100996 0.0983,0 0.176,-0.03377 0.2328,-0.100996 0.0622,-0.06724 0.093,-0.180969 0.093,-0.3413 V 9.470298 h 2.66877 v 7.773064 h -0.77652 c -0.15516,0 -0.26628,0.03102 -0.33359,0.09309 -0.0674,0.05689 -0.101,0.13475 -0.101,0.233017 0,0.0931 0.0338,0.170545 0.101,0.2326 0.0674,0.06207 0.17843,0.09308 0.33359,0.09308 h 2.21231 c 0.15511,0 0.26649,-0.03102 0.33359,-0.09308 0.0674,-0.06206 0.10101,-0.139506 0.10101,-0.2326 0,-0.09827 -0.0336,-0.176133 -0.10101,-0.233017 -0.0672,-0.06207 -0.17848,-0.09309 -0.33359,-0.09309 h -0.77652 V 9.470298 h 2.66877 v 2.257495 c 0,0.160332 0.0284,0.274073 0.0852,0.3413 0.0621,0.06728 0.14218,0.100996 0.24051,0.100996 0.0984,0 0.1759,-0.03377 0.23281,-0.100996 0.0622,-0.06724 0.0933,-0.180968 0.0933,-0.3413 V 8.8185168 Z m 9.72132,0 c -0.15512,0 -0.26639,0.031018 -0.33359,0.093082 -0.0673,0.056882 -0.1008,0.1347629 -0.1008,0.2330169 0,0.098267 0.0335,0.1784654 0.1008,0.2405135 0.0673,0.056927 0.17847,0.085169 0.33359,0.085169 h 1.31981 v 7.7730648 h -1.31981 c -0.15512,0 -0.26639,0.03102 -0.33359,0.09309 -0.0673,0.05689 -0.1008,0.134751 -0.1008,0.233017 0,0.0931 0.0335,0.170545 0.1008,0.2326 0.0673,0.06207 0.17847,0.09308 0.33359,0.09308 h 3.2912 c 0.15511,0 0.26594,-0.03102 0.33317,-0.09308 0.0674,-0.06206 0.10101,-0.139506 0.10101,-0.2326 0,-0.09827 -0.0336,-0.176132 -0.10101,-0.233017 -0.0672,-0.06207 -0.17806,-0.09309 -0.33317,-0.09309 h -1.31982 V 9.470298 h 1.31982 c 0.15511,0 0.26594,-0.028272 0.33317,-0.085169 0.0674,-0.062048 0.10101,-0.1422462 0.10101,-0.2405135 0,-0.098253 -0.0336,-0.1761347 -0.10101,-0.2330169 -0.0672,-0.062094 -0.17806,-0.093082 -0.33317,-0.093082 z m 14.32461,0 c -0.16029,0 -0.27418,0.031018 -0.3413,0.093082 -0.0674,0.056882 -0.1008,0.1347629 -0.1008,0.2330169 0,0.098267 0.0334,0.1784654 0.1008,0.2405135 0.0672,0.056927 0.18101,0.085169 0.3413,0.085169 h 0.40336 v 7.7730648 h -0.73675 c -0.1552,0 -0.26648,0.03102 -0.33379,0.09309 -0.0674,0.05689 -0.1008,0.134751 -0.1008,0.233017 0,0.0931 0.0335,0.170545 0.1008,0.2326 0.0673,0.06207 0.17859,0.09308 0.33379,0.09308 h 2.26521 c 0.15513,0 0.26618,-0.03102 0.33338,-0.09308 0.0674,-0.06206 0.1008,-0.139506 0.1008,-0.2326 0,-0.09827 -0.0334,-0.176132 -0.1008,-0.233017 -0.0672,-0.06207 -0.17825,-0.09309 -0.33338,-0.09309 h -0.87668 v -3.739102 h 4.32092 v 3.739101 h -0.86877 c -0.16029,0 -0.27398,0.03102 -0.34131,0.09309 -0.062,0.05689 -0.0933,0.13475 -0.0933,0.233017 0,0.0931 0.0335,0.170545 0.10081,0.2326 0.0674,0.06207 0.17868,0.09308 0.3338,0.09308 h 2.2652 c 0.15512,0 0.26628,-0.03102 0.3336,-0.09308 0.0673,-0.06206 0.1008,-0.139506 0.1008,-0.2326 0,-0.09827 -0.0336,-0.176133 -0.1008,-0.233017 -0.0674,-0.06207 -0.17848,-0.09309 -0.3336,-0.09309 h -0.73715 V 9.470298 h 0.40356 c 0.16044,0 0.27407,-0.028272 0.3413,-0.085169 0.0674,-0.062048 0.1008,-0.1422462 0.1008,-0.2405135 0,-0.098253 -0.0334,-0.1761347 -0.1008,-0.2330169 -0.0673,-0.062094 -0.18086,-0.093082 -0.3413,-0.093082 h -1.93161 c -0.16029,0 -0.27397,0.031018 -0.34129,0.093082 -0.062,0.056882 -0.0933,0.1347629 -0.0933,0.2330169 0,0.098267 0.0335,0.1784654 0.1008,0.2405135 0.0674,0.056927 0.17868,0.085169 0.33381,0.085169 h 0.86876 v 3.38239 h -4.32092 v -3.38239 h 0.87647 c 0.15513,0 0.26619,-0.028272 0.3334,-0.085169 0.0674,-0.062048 0.101,-0.1422462 0.101,-0.2405135 0,-0.098253 -0.0336,-0.1761347 -0.101,-0.2330169 -0.0672,-0.062094 -0.17827,-0.093082 -0.3334,-0.093082 z m 12.83551,0 c -0.15521,0 -0.26637,0.031018 -0.3336,0.093082 -0.0674,0.056882 -0.101,0.1347629 -0.101,0.2330169 0,0.098267 0.0336,0.1784654 0.101,0.2405135 0.0673,0.056927 0.17839,0.085169 0.3336,0.085169 h 0.87648 v 7.7730648 h -0.87648 c -0.15521,0 -0.26637,0.03102 -0.3336,0.09309 -0.0674,0.05689 -0.101,0.134751 -0.101,0.233017 0,0.0931 0.0336,0.170545 0.101,0.2326 0.0673,0.06207 0.17839,0.09308 0.3336,0.09308 h 4.87171 c 0.50167,0 0.96447,-0.126614 1.38852,-0.380033 0.42929,-0.253419 0.74744,-0.558559 0.95435,-0.915409 0.20682,-0.362029 0.31027,-0.760426 0.31027,-1.194863 0,-0.486144 -0.15781,-0.930771 -0.47332,-1.334174 -0.31544,-0.403401 -0.81205,-0.726687 -1.48952,-0.969758 0.85326,-0.491322 1.28025,-1.135146 1.28025,-1.931605 0,-0.630961 -0.2562,-1.1792043 -0.7682,-1.6446542 -0.50682,-0.4706444 -1.16629,-0.7061308 -1.97825,-0.7061308 z m 9.54183,0 c -0.15511,0 -0.26638,0.031018 -0.33358,0.093082 -0.0673,0.056882 -0.1008,0.1347629 -0.1008,0.2330169 0,0.098267 0.0335,0.1784654 0.1008,0.2405135 0.0673,0.056927 0.17847,0.085169 0.33358,0.085169 h 0.87667 v 7.7730648 h -0.87667 c -0.15511,0 -0.26638,0.03102 -0.33358,0.09309 -0.0673,0.05689 -0.1008,0.134751 -0.1008,0.233017 0,0.0931 0.0335,0.170545 0.1008,0.2326 0.0673,0.06207 0.17847,0.09308 0.33358,0.09308 h 2.73083 c 0.16028,0 0.27387,-0.03102 0.34108,-0.09308 0.0673,-0.06206 0.10101,-0.139506 0.10101,-0.2326 0,-0.09827 -0.0337,-0.176132 -0.10101,-0.233017 -0.0673,-0.06207 -0.1808,-0.09309 -0.34108,-0.09309 h -1.20258 v -3.397592 h 2.07134 c 0.57401,0.274109 1.08087,0.656686 1.52054,1.148009 0.4447,0.491323 1.07039,1.458426 1.87726,2.901364 h 0.86877 c 0.1552,0 0.26637,-0.03102 0.33359,-0.09309 0.0674,-0.06206 0.10101,-0.139506 0.10101,-0.2326 0,-0.09826 -0.0336,-0.176133 -0.10101,-0.233017 -0.0673,-0.06207 -0.17839,-0.09309 -0.33359,-0.09309 h -0.49623 c -0.72919,-1.251578 -1.25951,-2.07899 -1.59053,-2.482391 -0.33104,-0.403399 -0.72898,-0.765294 -1.19444,-1.085955 0.80684,-0.274095 1.38077,-0.615529 1.72212,-1.02411 0.34656,-0.413745 0.51956,-0.853508 0.51956,-1.318972 0,-0.646475 -0.27922,-1.225512 -0.83774,-1.7375276 -0.55343,-0.5171815 -1.23596,-0.7758908 -2.04801,-0.7758908 z m 21.41507,0 c -0.15519,0 -0.26604,0.031014 -0.33338,0.093082 -0.0674,0.056893 -0.10101,0.13475 -0.10101,0.2330169 0,0.09309 0.0337,0.1705445 0.10101,0.2326005 0.0673,0.062068 0.17819,0.093081 0.33338,0.093081 h 0.485 l -2.87826,7.7730628 h -0.50414 c -0.15514,0 -0.26626,0.03102 -0.33358,0.09309 -0.0674,0.05689 -0.10101,0.13475 -0.10101,0.233017 0,0.0931 0.0337,0.170545 0.10101,0.2326 0.0674,0.06207 0.17844,0.09308 0.33358,0.09308 h 2.43596 c 0.15514,0 0.26626,-0.03102 0.33359,-0.09308 0.0674,-0.06206 0.10081,-0.139506 0.10081,-0.2326 0,-0.09826 -0.0336,-0.176133 -0.10081,-0.233017 -0.0674,-0.06207 -0.17845,-0.09309 -0.33359,-0.09309 h -1.24902 l 0.87647,-2.381395 h 4.28239 l 0.89209,2.381395 h -1.2413 c -0.1603,0 -0.27387,0.03102 -0.34108,0.09309 -0.0674,0.05689 -0.10101,0.13475 -0.10101,0.233017 0,0.0931 0.0336,0.170545 0.10101,0.2326 0.0672,0.06207 0.18078,0.09308 0.34108,0.09308 h 2.42826 c 0.15516,0 0.26649,-0.03102 0.33359,-0.09308 0.0674,-0.06206 0.1008,-0.139506 0.1008,-0.2326 0,-0.09826 -0.0334,-0.176133 -0.1008,-0.233017 -0.0672,-0.06207 -0.17843,-0.09309 -0.33359,-0.09309 h -0.50413 l -2.9347,-7.7730628 h 0.55058 c 0.15513,0 0.26638,-0.031014 0.3336,-0.093081 0.0674,-0.062057 0.1008,-0.1395065 0.1008,-0.2326005 0,-0.098265 -0.0335,-0.1761329 -0.1008,-0.2330169 -0.0673,-0.062067 -0.17847,-0.093082 -0.3336,-0.093082 z m 7.2733,0 c -0.15513,0 -0.26638,0.031018 -0.3336,0.093082 -0.0673,0.056882 -0.1008,0.1347629 -0.1008,0.2330169 0,0.098267 0.0335,0.1784654 0.1008,0.2405135 0.0673,0.056927 0.17847,0.085169 0.3336,0.085169 h 0.55079 v 7.7730648 h -0.55079 c -0.15513,0 -0.26638,0.03102 -0.3336,0.09309 -0.0673,0.05689 -0.1008,0.134751 -0.1008,0.233017 0,0.0931 0.0335,0.170545 0.1008,0.2326 0.0673,0.06207 0.17847,0.09308 0.3336,0.09308 h 3.5065 c 0.6723,0 1.26448,-0.170508 1.77648,-0.511848 0.6878,-0.465465 1.17926,-1.011159 1.4741,-1.636948 0.29479,-0.625785 0.44209,-1.272354 0.44209,-1.939519 v -0.89979 c 0,-0.543041 -0.0749,-1.013833 -0.22489,-1.412054 -0.21197,-0.548219 -0.52249,-1.067747 -0.93104,-1.5590693 -0.23792,-0.2896213 -0.58428,-0.5483309 -1.0393,-0.7758898 -0.45002,-0.227559 -0.94927,-0.3415083 -1.49744,-0.3415083 z m 37.19047,0 v 2.9092762 c 0,0.160331 0.0311,0.274073 0.0933,0.3413 0.0621,0.06728 0.13957,0.100996 0.2326,0.100996 0.0983,0 0.17577,-0.03377 0.23259,-0.100996 0.0622,-0.06724 0.0931,-0.180969 0.0931,-0.3413 V 9.470298 h 2.66876 v 7.773064 h -0.77672 c -0.15519,0 -0.26625,0.03102 -0.33359,0.09309 -0.0674,0.05689 -0.10081,0.13475 -0.10081,0.233017 0,0.0931 0.0335,0.170545 0.10081,0.2326 0.0673,0.06207 0.1784,0.09308 0.33359,0.09308 h 2.21272 c 0.15513,0 0.26638,-0.03102 0.3336,-0.09308 0.0674,-0.06206 0.10081,-0.139506 0.10081,-0.2326 0,-0.09827 -0.0335,-0.176133 -0.10081,-0.233017 -0.0673,-0.06207 -0.17847,-0.09309 -0.3336,-0.09309 h -0.77673 V 9.470298 h 2.66878 v 2.257495 c 0,0.160332 0.0284,0.274073 0.0852,0.3413 0.0621,0.06728 0.14217,0.100996 0.24051,0.100996 0.0984,0 0.1759,-0.03377 0.23281,-0.100996 0.0622,-0.06724 0.0933,-0.180968 0.0933,-0.3413 V 8.8185168 Z m 9.72133,0 c -0.15512,0 -0.26638,0.031018 -0.3336,0.093082 -0.0673,0.056882 -0.1008,0.1347629 -0.1008,0.2330169 0,0.098267 0.0335,0.1784654 0.1008,0.2405135 0.0673,0.056927 0.17848,0.085169 0.3336,0.085169 h 1.3196 v 7.7730648 h -1.3196 c -0.15512,0 -0.26638,0.03102 -0.3336,0.09309 -0.0673,0.05689 -0.1008,0.134751 -0.1008,0.233017 0,0.0931 0.0335,0.170545 0.1008,0.2326 0.0673,0.06207 0.17848,0.09308 0.3336,0.09308 h 3.29098 c 0.15513,0 0.26638,-0.03102 0.3336,-0.09308 0.0674,-0.06206 0.1008,-0.139506 0.1008,-0.2326 0,-0.09827 -0.0335,-0.176132 -0.1008,-0.233017 -0.0672,-0.06207 -0.17847,-0.09309 -0.3336,-0.09309 h -1.3196 V 9.470298 h 1.3196 c 0.15513,0 0.26638,-0.028272 0.3336,-0.085169 0.0674,-0.062048 0.1008,-0.1422462 0.1008,-0.2405135 0,-0.098253 -0.0335,-0.1761347 -0.1008,-0.2330169 -0.0672,-0.062094 -0.17847,-0.093082 -0.3336,-0.093082 z m 5.43248,0 c -0.15518,0 -0.26637,0.031018 -0.3336,0.093082 -0.0674,0.056882 -0.101,0.1347629 -0.101,0.2330169 0,0.098267 0.0337,0.1784654 0.101,0.2405135 0.0672,0.056927 0.17842,0.085169 0.3336,0.085169 h 0.87647 v 7.7730648 h -0.54287 c -0.16029,0 -0.2743,0.03102 -0.3415,0.09309 -0.0674,0.05689 -0.1008,0.134751 -0.1008,0.233017 0,0.0931 0.0335,0.170545 0.1008,0.2326 0.0673,0.06207 0.18121,0.09308 0.3415,0.09308 h 2.39701 c 0.16031,0 0.27419,-0.03102 0.34152,-0.09308 0.0673,-0.06206 0.1006,-0.139506 0.1006,-0.2326 0,-0.09827 -0.0334,-0.176132 -0.1006,-0.233017 -0.0673,-0.06207 -0.18121,-0.09309 -0.34152,-0.09309 h -1.20236 V 9.7728664 l 4.80194,8.1222776 h 0.83775 V 9.470298 h 0.55078 c 0.15518,0 0.26638,-0.028272 0.33359,-0.085169 0.0674,-0.062048 0.101,-0.1422462 0.101,-0.2405135 0,-0.098253 -0.0337,-0.1761347 -0.101,-0.2330169 -0.0673,-0.062094 -0.17841,-0.093082 -0.33359,-0.093082 h -2.40473 c -0.16034,0 -0.27406,0.031018 -0.34129,0.093082 -0.0622,0.056882 -0.0933,0.1347629 -0.0933,0.2330169 0,0.098267 0.0337,0.1784654 0.10101,0.2405135 0.0673,0.056927 0.17843,0.085169 0.3336,0.085169 h 1.20237 v 7.486114 l -4.80966,-8.1378952 z m 41.330899,0 c -0.155165,0 -0.266335,0.031018 -0.333595,0.093082 -0.0673,0.056882 -0.100996,0.1347629 -0.100996,0.2330169 0,0.098267 0.0338,0.1784654 0.100996,0.2405135 0.06727,0.056927 0.17843,0.085169 0.333595,0.085169 h 0.876677 v 7.7730648 h -0.876677 c -0.155165,0 -0.266335,0.03102 -0.333595,0.09309 -0.0673,0.05689 -0.100996,0.134751 -0.100996,0.233017 0,0.0931 0.0338,0.170545 0.100996,0.2326 0.06727,0.06207 0.17843,0.09308 0.333595,0.09308 h 2.730819 c 0.160346,0 0.274095,-0.03102 0.341299,-0.09308 0.06734,-0.06206 0.100782,-0.139506 0.100782,-0.2326 0,-0.09827 -0.03352,-0.176132 -0.100782,-0.233017 -0.06721,-0.06207 -0.180953,-0.09309 -0.341299,-0.09309 h -1.20236 v -3.397592 h 2.071123 c 0.574103,0.274109 1.080974,0.656686 1.520547,1.148009 0.444806,0.491323 1.070473,1.458426 1.877253,2.901364 h 0.868764 c 0.155178,0 0.266346,-0.03102 0.333595,-0.09309 0.06727,-0.06206 0.100996,-0.139506 0.100996,-0.2326 0,-0.09826 -0.03378,-0.176133 -0.100996,-0.233017 -0.06726,-0.06207 -0.178417,-0.09309 -0.333595,-0.09309 h -0.496228 c -0.729224,-1.251578 -1.259522,-2.07899 -1.590512,-2.482391 -0.330979,-0.403399 -0.728959,-0.765294 -1.194448,-1.085955 0.806813,-0.274095 1.38076,-0.615529 1.72212,-1.02411 0.346492,-0.413745 0.519758,-0.853508 0.519758,-1.318972 0,-0.646475 -0.279378,-1.225512 -0.837945,-1.7375276 -0.553354,-0.5171815 -1.236039,-0.7758908 -2.048008,-0.7758908 z m 9.554114,0 c -0.155168,0 -0.266149,0.031018 -0.333386,0.093082 -0.06733,0.056882 -0.100996,0.1347629 -0.100996,0.2330169 0,0.098267 0.03378,0.1784654 0.100996,0.2405135 0.06725,0.056927 0.178218,0.085169 0.333386,0.085169 h 0.876677 v 7.7730648 h -0.876677 c -0.155168,0 -0.266149,0.03102 -0.333386,0.09309 -0.06733,0.05689 -0.100996,0.134751 -0.100996,0.233017 0,0.0931 0.03378,0.170545 0.100996,0.2326 0.06725,0.06207 0.178218,0.09308 0.333386,0.09308 h 2.848054 c 0.155144,0 0.266391,-0.03102 0.333596,-0.09308 0.06731,-0.06206 0.100995,-0.139506 0.100995,-0.2326 0,-0.09827 -0.03375,-0.176132 -0.100995,-0.233017 -0.06721,-0.06207 -0.178452,-0.09309 -0.333596,-0.09309 h -1.319595 v -3.071909 h 2.040095 c 0.444797,0 0.817446,-0.04894 1.1174,-0.147224 0.413747,-0.13447 0.81447,-0.346544 1.202358,-0.636164 0.258591,-0.191367 0.478241,-0.455127 0.659277,-0.791299 0.186167,-0.336173 0.279246,-0.713895 0.279246,-1.132808 0,-0.708536 -0.28444,-1.326614 -0.853354,-1.8541426 -0.563713,-0.52752 -1.293021,-0.7912994 -2.187736,-0.7912994 z m 18.362739,0 c -0.155167,0 -0.26638,0.031018 -0.333595,0.093082 -0.06728,0.056882 -0.100996,0.1347629 -0.100996,0.2330169 0,0.098267 0.03374,0.1784654 0.100996,0.2405135 0.06723,0.056927 0.178428,0.085169 0.333595,0.085169 h 0.876676 v 7.7730648 h -0.876676 c -0.155167,0 -0.26638,0.03102 -0.333595,0.09309 -0.06728,0.05689 -0.100996,0.134751 -0.100996,0.233017 0,0.0931 0.03374,0.170545 0.100996,0.2326 0.06723,0.06207 0.178428,0.09308 0.333595,0.09308 h 2.730609 c 0.160322,0 0.27405,-0.03102 0.341301,-0.09308 0.0673,-0.06206 0.100996,-0.139506 0.100996,-0.2326 0,-0.09827 -0.03378,-0.176132 -0.100996,-0.233017 -0.06726,-0.06207 -0.180979,-0.09309 -0.341301,-0.09309 h -1.202359 v -3.397592 h 2.071331 c 0.574058,0.274109 1.080941,0.656686 1.520546,1.148009 0.444774,0.491323 1.070442,1.458426 1.877255,2.901364 h 0.868763 c 0.155166,0 0.26638,-0.03102 0.333595,-0.09309 0.06731,-0.06206 0.100995,-0.139506 0.100995,-0.2326 0,-0.09826 -0.03376,-0.176133 -0.100995,-0.233017 -0.06723,-0.06207 -0.178429,-0.09309 -0.333595,-0.09309 h -0.496436 c -0.729236,-1.251578 -1.259279,-2.07899 -1.590305,-2.482391 -0.330979,-0.403399 -0.729408,-0.765294 -1.194863,-1.085955 0.806781,-0.274095 1.380991,-0.615529 1.722328,-1.02411 0.346492,-0.413745 0.519758,-0.853508 0.519758,-1.318972 0,-0.646475 -0.279193,-1.225512 -0.837737,-1.7375276 -0.553388,-0.5171815 -1.236247,-0.7758908 -2.048217,-0.7758908 z m 18.374817,0 v 2.9092762 c 0,0.160331 0.03102,0.274073 0.09308,0.3413 0.06207,0.06728 0.139516,0.100996 0.232602,0.100996 0.09828,0 0.175716,-0.03377 0.232599,-0.100996 0.06208,-0.06724 0.09308,-0.180969 0.09308,-0.3413 V 9.470298 h 2.668764 v 7.773064 h -0.776515 c -0.155156,0 -0.266379,0.03102 -0.333595,0.09309 -0.06731,0.05689 -0.100996,0.13475 -0.100996,0.233017 0,0.0931 0.03376,0.170545 0.100996,0.2326 0.06723,0.06207 0.178439,0.09308 0.333595,0.09308 h 2.212724 c 0.155156,0 0.266357,-0.03102 0.333595,-0.09308 0.06731,-0.06206 0.100578,-0.139506 0.100578,-0.2326 0,-0.09827 -0.03335,-0.176133 -0.100578,-0.233017 -0.06725,-0.06207 -0.178439,-0.09309 -0.333595,-0.09309 h -0.776724 V 9.470298 h 2.668557 v 2.257495 c 0,0.160332 0.02848,0.274073 0.08538,0.3413 0.06207,0.06728 0.14226,0.100996 0.240514,0.100996 0.09824,0 0.175704,-0.03377 0.232599,-0.100996 0.06208,-0.06724 0.09328,-0.180968 0.09328,-0.3413 V 8.8185168 Z m 9.721119,0 c -0.155155,0 -0.266369,0.031018 -0.333596,0.093082 -0.06732,0.056882 -0.100995,0.1347629 -0.100995,0.2330169 0,0.098267 0.03376,0.1784654 0.100995,0.2405135 0.06724,0.056927 0.178441,0.085169 0.333596,0.085169 h 1.319596 v 7.7730648 h -1.319596 c -0.155155,0 -0.266369,0.03102 -0.333596,0.09309 -0.06732,0.05689 -0.100995,0.134751 -0.100995,0.233017 0,0.0931 0.03376,0.170545 0.100995,0.2326 0.06724,0.06207 0.178441,0.09308 0.333596,0.09308 h 3.290974 c 0.155157,0 0.266369,-0.03102 0.333596,-0.09308 0.06732,-0.06206 0.100782,-0.139506 0.100782,-0.2326 0,-0.09827 -0.03357,-0.176132 -0.100782,-0.233017 -0.06724,-0.06207 -0.178439,-0.09309 -0.333596,-0.09309 h -1.319596 V 9.470298 h 1.319596 c 0.155157,0 0.266369,-0.028272 0.333596,-0.085169 0.06732,-0.062048 0.100782,-0.1422462 0.100782,-0.2405135 0,-0.098253 -0.03357,-0.1761347 -0.100782,-0.2330169 -0.06724,-0.062094 -0.178439,-0.093082 -0.333596,-0.093082 z m 14.447886,0 c -0.155154,0 -0.266368,0.031018 -0.333595,0.093082 -0.06732,0.056882 -0.100996,0.1347629 -0.100996,0.2330169 0,0.098267 0.03376,0.1784654 0.100996,0.2405135 0.06724,0.056927 0.178441,0.085169 0.333595,0.085169 h 0.876678 v 7.7730648 h -0.543083 c -0.160321,0 -0.274258,0.03102 -0.341507,0.09309 -0.06732,0.05689 -0.100782,0.134751 -0.100782,0.233017 0,0.0931 0.03356,0.170545 0.100782,0.2326 0.06725,0.06207 0.181186,0.09308 0.341507,0.09308 h 2.397225 c 0.16032,0 0.273853,-0.03102 0.341091,-0.09308 0.06727,-0.06206 0.100996,-0.139506 0.100996,-0.2326 0,-0.09827 -0.03377,-0.176132 -0.100996,-0.233017 -0.06725,-0.06207 -0.180771,-0.09309 -0.341091,-0.09309 h -1.202777 V 9.7728664 l 4.802155,8.1222776 h 0.8377369 V 9.470298 h 0.5509951 c 0.1551554,0 0.2661598,-0.028272 0.3333882,-0.085169 0.06728,-0.062048 0.1009956,-0.1422462 0.1009956,-0.2405135 0,-0.098253 -0.033757,-0.1761347 -0.1009956,-0.2330169 -0.067239,-0.062094 -0.1782328,-0.093082 -0.3333882,-0.093082 h -2.405138 c -0.160323,0 -0.273866,0.031018 -0.341093,0.093082 -0.06209,0.056882 -0.09309,0.1347629 -0.09309,0.2330169 0,0.098267 0.03335,0.1784654 0.100578,0.2405135 0.06724,0.056927 0.178439,0.085169 0.333596,0.085169 h 1.202568 v 7.486114 l -4.809861,-8.1378952 z m -30.036286,0.00395 c -0.15519,0 -0.266261,0.031014 -0.333595,0.093081 -0.06734,0.056893 -0.100995,0.1347501 -0.100995,0.233017 0,0.093091 0.03376,0.1705445 0.100995,0.2326005 0.06724,0.062068 0.178405,0.093082 0.333595,0.093082 h 0.542665 l -2.876583,7.7691077 h -0.504349 c -0.155155,0 -0.26638,0.03102 -0.333597,0.09309 -0.06732,0.05689 -0.100995,0.13475 -0.100995,0.233017 0,0.0931 0.03377,0.170545 0.100995,0.2326 0.06723,0.06207 0.178442,0.09309 0.333597,0.09309 h 2.435954 c 0.155131,0 0.266368,-0.03102 0.333595,-0.09309 0.06731,-0.06206 0.100577,-0.139506 0.100577,-0.2326 0,-0.09826 -0.03335,-0.176133 -0.100577,-0.233017 -0.06724,-0.06207 -0.178464,-0.09309 -0.333595,-0.09309 h -1.249004 l 0.876469,-2.381396 h 4.282389 l 0.892086,2.381396 h -1.241299 c -0.160311,0 -0.273843,0.03102 -0.341092,0.09309 -0.06731,0.05689 -0.100995,0.13475 -0.100995,0.233017 0,0.0931 0.03378,0.170545 0.100995,0.2326 0.06726,0.06207 0.180781,0.09309 0.341092,0.09309 h 2.42825 c 0.155167,0 0.266356,-0.03102 0.333594,-0.09309 0.06732,-0.06206 0.100781,-0.139506 0.100781,-0.2326 0,-0.09826 -0.03356,-0.176133 -0.100781,-0.233017 -0.06725,-0.06207 -0.178427,-0.09309 -0.333594,-0.09309 h -0.504142 L -44.86668,9.4742473 h 0.489982 c 0.155117,0 0.266375,-0.031014 0.333596,-0.093082 0.06733,-0.062057 0.100578,-0.1395065 0.100578,-0.2326005 0,-0.098265 -0.03335,-0.1761329 -0.100578,-0.233017 -0.06724,-0.062067 -0.178479,-0.093081 -0.333596,-0.093081 z M -196.60785,9.2608117 c 0.9774,0 1.77386,0.4214067 2.3893,1.2644143 0.61542,0.843007 0.92311,1.794707 0.92311,2.854926 0,1.065389 -0.30769,2.019418 -0.92311,2.862423 -0.61544,0.83783 -1.4119,1.256919 -2.3893,1.256919 -0.85339,0 -1.62165,-0.382579 -2.30435,-1.14801 -0.6775,-0.7706 -1.016,-1.761127 -1.016,-2.971332 0,-1.137795 0.32309,-2.107443 0.96956,-2.909068 0.65161,-0.8067996 1.43532,-1.2102723 2.35079,-1.2102723 z m 103.523732,0 c 0.977472,0 1.773877,0.4214067 2.389304,1.2644143 0.615455,0.843007 0.923114,1.794707 0.923114,2.854926 0,1.065389 -0.307659,2.019418 -0.923114,2.862423 -0.615427,0.83783 -1.411832,1.256919 -2.389304,1.256919 -0.853332,0 -1.621475,-0.382579 -2.304149,-1.14801 -0.677499,-0.7706 -1.016398,-1.761127 -1.016398,-2.971332 0,-1.137795 0.32326,-2.107443 0.969756,-2.909068 0.65168,-0.8067996 1.435389,-1.2102723 2.350791,-1.2102723 z m 27.916639,0 c 0.977448,0 1.773856,0.4214067 2.389309,1.2644143 0.615432,0.843007 0.923322,1.794707 0.923322,2.854926 0,1.065389 -0.30789,2.019418 -0.923322,2.862423 -0.615453,0.83783 -1.411861,1.256919 -2.389309,1.256919 -0.853387,0 -1.621465,-0.382579 -2.30414,-1.14801 -0.677517,-0.7706 -1.016195,-1.761127 -1.016195,-2.971332 0,-1.137795 0.323291,-2.107443 0.969758,-2.909068 0.651661,-0.8067996 1.435148,-1.2102723 2.350577,-1.2102723 z m 42.641069,0 c 0.97747,0 1.773881,0.4214067 2.38931,1.2644143 0.615442,0.843007 0.923114,1.794707 0.923114,2.854926 0,1.065389 -0.307672,2.019418 -0.923114,2.862423 -0.615429,0.83783 -1.41184,1.256919 -2.38931,1.256919 -0.853341,0 -1.621245,-0.382579 -2.303932,-1.14801 -0.677495,-0.7706 -1.016404,-1.761127 -1.016404,-2.971332 0,-1.137795 0.323278,-2.107443 0.969759,-2.909068 0.651636,-0.8067996 1.435172,-1.2102723 2.350577,-1.2102723 z M -279.64332,9.470298 h 2.58358 c 0.61547,0 1.11451,0.1732544 1.49722,0.5197587 0.3827,0.3413373 0.57411,0.7163183 0.57411,1.1248963 0,0.284443 -0.0879,0.563627 -0.26382,0.837736 -0.1758,0.27411 -0.4214,0.483641 -0.73696,0.628459 -0.40854,0.181009 -0.85856,0.27154 -1.3498,0.27154 h -2.30433 z m 9.54224,0 h 2.39722 c 0.62579,0 1.15578,0.1964634 1.59029,0.589518 0.43954,0.393056 0.6595,0.806667 0.6595,1.241092 0,0.289623 -0.1061,0.574289 -0.31819,0.853563 -0.20678,0.279276 -0.54319,0.522364 -1.0087,0.729245 -0.4602,0.206861 -0.97469,0.310273 -1.54367,0.310273 h -1.77645 z m 52.28348,0 h 2.58337 c 0.61546,0 1.11475,0.1732544 1.49744,0.5197587 0.38271,0.3413373 0.57389,0.7163183 0.57389,1.1248963 0,0.284443 -0.0878,0.563627 -0.26383,0.837736 -0.17582,0.27411 -0.42153,0.483641 -0.73696,0.628459 -0.40866,0.181009 -0.85847,0.27154 -1.34978,0.27154 h -2.30413 z m 9.54202,0 h 2.39701 c 0.6258,0 1.15603,0.1964634 1.59052,0.589518 0.43954,0.393056 0.65928,0.806667 0.65928,1.241092 0,0.289623 -0.10598,0.574289 -0.31798,0.853563 -0.20687,0.279276 -0.54307,0.522364 -1.00849,0.729245 -0.46029,0.206861 -0.9747,0.310273 -1.54366,0.310273 h -1.77668 z m 21.0465,0 h 0.2405 l 1.80001,4.740095 h -3.78574 z m 7.3162,0 h 2.36597 c 0.41898,0 0.80954,0.095596 1.17154,0.2869504 0.362,0.1861873 0.63619,0.3931956 0.82233,0.6207536 0.34137,0.413746 0.60516,0.850775 0.7913,1.311059 0.12931,0.31548 0.19366,0.674854 0.19366,1.07825 v 1.179038 c 0,0.486142 -0.12153,0.980151 -0.36462,1.481812 -0.23792,0.496502 -0.59709,0.923172 -1.07804,1.280033 -0.47576,0.356849 -0.98787,0.535168 -1.53617,0.535168 h -2.36597 z m 20.89093,0 h 0.24052 l 1.8,4.740095 h -3.78576 z m 73.110128,0 h 2.397014 c 0.625799,0 1.155876,0.1964634 1.590305,0.589518 0.439617,0.393056 0.659278,0.806667 0.659278,1.241092 0,0.289623 -0.105904,0.574289 -0.317979,0.853563 -0.206851,0.279276 -0.543002,0.522364 -1.008491,0.729245 -0.460274,0.206861 -0.974976,0.310273 -1.543867,0.310273 h -1.77626 z m 9.554114,0 h 2.319341 c 0.672352,0 1.228348,0.2042594 1.667977,0.612841 0.439582,0.408566 0.659694,0.868818 0.659694,1.380818 0,0.32066 -0.09854,0.636136 -0.295071,0.946437 -0.191348,0.310314 -0.499022,0.574294 -0.923115,0.791509 -0.418891,0.212045 -0.868801,0.317768 -1.349791,0.317768 h -2.079035 z m 18.36253,0 h 2.397013 c 0.625799,0 1.155888,0.1964634 1.590304,0.589518 0.439619,0.393056 0.659487,0.806667 0.659487,1.241092 0,0.289623 -0.106144,0.574289 -0.318185,0.853563 -0.206884,0.279276 -0.54284,0.522364 -1.008283,0.729245 -0.460309,0.206861 -0.975187,0.310273 -1.544076,0.310273 h -1.77626 z m 12.196847,0.00395 h 0.243221 l 1.79854,4.736138 h -3.785745 z m -233.844989,4.037926 h 2.34327 c 0.71894,0 1.28234,0.08019 1.69088,0.240514 0.40869,0.160322 0.72657,0.39541 0.95414,0.705714 0.23277,0.31031 0.34922,0.63105 0.34922,0.962055 0,0.294787 -0.08,0.579044 -0.24031,0.853146 -0.16044,0.274109 -0.39573,0.504533 -0.70611,0.690721 -0.31025,0.186183 -0.67487,0.279037 -1.09388,0.279037 h -3.29721 z m 61.82572,0 h 2.34285 c 0.71893,0 1.28244,0.08019 1.6911,0.240514 0.40856,0.160322 0.72675,0.39541 0.95435,0.705714 0.23276,0.31031 0.349,0.63105 0.349,0.962055 0,0.294787 -0.0802,0.579044 -0.2405,0.853146 -0.16031,0.274109 -0.39558,0.504533 -0.70593,0.690721 -0.3103,0.186183 -0.6748,0.279037 -1.09367,0.279037 h -3.2972 z"
       transform="matrix(9.6863907,0,0,9.6863907,3781.6192,0)" /></g><g
     transform="matrix(7.8286431,0,0,7.8286431,3056.3445,0)"
     id="g145"
     inkscape:label="g1"
     style="fill:#e6dbc4;fill-opacity:1;stroke:none;stroke-width:0;stroke-dasharray:none;stroke-opacity:1"><circle
       id="circle48"
       cx="50"
       cy="10"
       r="3.5999999"
       style="fill:#e6dbc4;fill-opacity:1;stroke:none;stroke-width:0;stroke-dasharray:none;stroke-opacity:1" /><circle
       id="circle49"
       cx="50"
       cy="20"
       r="3.5999999"
       style="fill:#e6dbc4;fill-opacity:1;stroke:none;stroke-width:0;stroke-dasharray:none;stroke-opacity:1" /><circle
       id="circle50"
       cx="50"
       cy="40"
       r="3.5999999"
       style="fill:#e6dbc4;fill-opacity:1;stroke:none;stroke-width:0;stroke-dasharray:none;stroke-opacity:1" /><circle
       id="circle51"
       cx="50"
       cy="10"
       r="3.5999999"
       transform="rotate(-90,95.000003,14.999999)"
       style="fill:#e6dbc4;fill-opacity:1;stroke:none;stroke-width:0;stroke-dasharray:none;stroke-opacity:1" /><circle
       id="circle52"
       cx="40"
       cy="10"
       r="3.5999999"
       transform="rotate(-90,95.000003,14.999999)"
       style="fill:#e6dbc4;fill-opacity:1;stroke:none;stroke-width:0;stroke-dasharray:none;stroke-opacity:1" /><circle
       id="circle53"
       cx="30"
       cy="10"
       r="3.5999999"
       transform="rotate(-90,95.000003,14.999999)"
       style="fill:#e6dbc4;fill-opacity:1;stroke:none;stroke-width:0;stroke-dasharray:none;stroke-opacity:1" /><circle
       id="circle54"
       cx="20"
       cy="10"
       r="3.5999999"
       transform="rotate(-90,95.000003,14.999999)"
       style="fill:#e6dbc4;fill-opacity:1;stroke:none;stroke-width:0;stroke-dasharray:none;stroke-opacity:1" /><circle
       id="circle55"
       cx="10"
       cy="10"
       r="3.5999999"
       transform="rotate(-90,95.000003,14.999999)"
       style="fill:#e6dbc4;fill-opacity:1;stroke:none;stroke-width:0;stroke-dasharray:none;stroke-opacity:1" /><circle
       id="circle56"
       cx="15"
       cy="45"
       r="3.5999999"
       style="fill:#e6dbc4;fill-opacity:1;stroke:none;stroke-width:0;stroke-dasharray:none;stroke-opacity:1" /><circle
       id="circle57"
       cx="15"
       cy="15"
       r="3.5999999"
       transform="matrix(-1,0,0,1,100,0)"
       style="fill:#e6dbc4;fill-opacity:1;stroke:none;stroke-width:0;stroke-dasharray:none;stroke-opacity:1" /><circle
       id="circle58"
       cx="45"
       cy="15"
       r="3.5999999"
       transform="matrix(-1,0,0,1,100,0)"
       style="fill:#e6dbc4;fill-opacity:1;stroke:none;stroke-width:0;stroke-dasharray:none;stroke-opacity:1" /><circle
       id="circle59"
       cx="10"
       cy="10"
       r="3.5999999"
       transform="matrix(-1,0,0,1,100,0)"
       style="fill:#e6dbc4;fill-opacity:1;stroke:none;stroke-width:0;stroke-dasharray:none;stroke-opacity:1" /><circle
       id="circle60"
       cx="20"
       cy="10"
       r="3.5999999"
       transform="matrix(-1,0,0,1,100,0)"
       style="fill:#e6dbc4;fill-opacity:1;stroke:none;stroke-width:0;stroke-dasharray:none;stroke-opacity:1" /><circle
       id="circle61"
       cx="30"
       cy="10"
       r="3.5999999"
       transform="matrix(-1,0,0,1,100,0)"
       style="fill:#e6dbc4;fill-opacity:1;stroke:none;stroke-width:0;stroke-dasharray:none;stroke-opacity:1" /><circle
       id="circle62"
       cx="40"
       cy="10"
       r="3.5999999"
       transform="matrix(-1,0,0,1,100,0)"
       style="fill:#e6dbc4;fill-opacity:1;stroke:none;stroke-width:0;stroke-dasharray:none;stroke-opacity:1" /><circle
       id="circle63"
       cx="30"
       cy="20"
       r="3.5999999"
       transform="matrix(-1,0,0,1,100,0)"
       style="fill:#e6dbc4;fill-opacity:1;stroke:none;stroke-width:0;stroke-dasharray:none;stroke-opacity:1" /><circle
       id="circle64"
       cx="25"
       cy="25"
       r="3.5999999"
       transform="matrix(-1,0,0,1,100,0)"
       style="fill:#e6dbc4;fill-opacity:1;stroke:none;stroke-width:0;stroke-dasharray:none;stroke-opacity:1" /><circle
       id="circle65"
       cx="35"
       cy="25"
       r="3.5999999"
       transform="matrix(-1,0,0,1,100,0)"
       style="fill:#e6dbc4;fill-opacity:1;stroke:none;stroke-width:0;stroke-dasharray:none;stroke-opacity:1" /><circle
       id="circle66"
       cx="30"
       cy="30"
       r="3.5999999"
       transform="matrix(-1,0,0,1,100,0)"
       style="fill:#e6dbc4;fill-opacity:1;stroke:none;stroke-width:0;stroke-dasharray:none;stroke-opacity:1" /><circle
       id="circle67"
       cx="15"
       cy="15"
       r="3.5999999"
       transform="matrix(-1,0,0,1,100,20)"
       style="fill:#e6dbc4;fill-opacity:1;stroke:none;stroke-width:0;stroke-dasharray:none;stroke-opacity:1" /><circle
       id="circle68"
       cx="45"
       cy="15"
       r="3.5999999"
       transform="matrix(-1,0,0,1,100,20)"
       style="fill:#e6dbc4;fill-opacity:1;stroke:none;stroke-width:0;stroke-dasharray:none;stroke-opacity:1" /><circle
       id="circle69"
       cx="20"
       cy="40"
       r="3.5999999"
       transform="matrix(-1,0,0,1,100,0)"
       style="fill:#e6dbc4;fill-opacity:1;stroke:none;stroke-width:0;stroke-dasharray:none;stroke-opacity:1" /><circle
       id="circle70"
       cx="25"
       cy="45"
       r="3.5999999"
       transform="matrix(-1,0,0,1,100,0)"
       style="fill:#e6dbc4;fill-opacity:1;stroke:none;stroke-width:0;stroke-dasharray:none;stroke-opacity:1" /><circle
       id="circle71"
       cx="10"
       cy="10"
       r="3.5999999"
       transform="matrix(0,-1,-1,0,100,60)"
       style="fill:#e6dbc4;fill-opacity:1;stroke:none;stroke-width:0;stroke-dasharray:none;stroke-opacity:1" /><circle
       id="circle72"
       cx="20"
       cy="10"
       r="3.5999999"
       transform="matrix(0,-1,-1,0,100,60)"
       style="fill:#e6dbc4;fill-opacity:1;stroke:none;stroke-width:0;stroke-dasharray:none;stroke-opacity:1" /><circle
       id="circle73"
       cx="30"
       cy="10"
       r="3.5999999"
       transform="matrix(0,-1,-1,0,100,60)"
       style="fill:#e6dbc4;fill-opacity:1;stroke:none;stroke-width:0;stroke-dasharray:none;stroke-opacity:1" /><circle
       id="circle74"
       cx="40"
       cy="10"
       r="3.5999999"
       transform="matrix(0,-1,-1,0,100,60)"
       style="fill:#e6dbc4;fill-opacity:1;stroke:none;stroke-width:0;stroke-dasharray:none;stroke-opacity:1" /><circle
       id="circle75"
       cx="40"
       cy="10"
       r="3.5999999"
       transform="rotate(-90,30,30)"
       style="fill:#e6dbc4;fill-opacity:1;stroke:none;stroke-width:0;stroke-dasharray:none;stroke-opacity:1" /><circle
       id="circle76"
       cx="30"
       cy="10"
       r="3.5999999"
       transform="rotate(-90,30,30)"
       style="fill:#e6dbc4;fill-opacity:1;stroke:none;stroke-width:0;stroke-dasharray:none;stroke-opacity:1" /><circle
       id="circle77"
       cx="20"
       cy="10"
       r="3.5999999"
       transform="rotate(-90,30,30)"
       style="fill:#e6dbc4;fill-opacity:1;stroke:none;stroke-width:0;stroke-dasharray:none;stroke-opacity:1" /><circle
       id="circle78"
       cx="10"
       cy="10"
       r="3.5999999"
       transform="rotate(-90,30,30)"
       style="fill:#e6dbc4;fill-opacity:1;stroke:none;stroke-width:0;stroke-dasharray:none;stroke-opacity:1" /><circle
       id="circle79"
       cx="25"
       cy="45"
       r="3.5999999"
       style="fill:#e6dbc4;fill-opacity:1;stroke:none;stroke-width:0;stroke-dasharray:none;stroke-opacity:1" /><circle
       id="circle80"
       cx="20"
       cy="40"
       r="3.5999999"
       style="fill:#e6dbc4;fill-opacity:1;stroke:none;stroke-width:0;stroke-dasharray:none;stroke-opacity:1" /><circle
       id="circle81"
       cx="45"
       cy="15"
       r="3.5999999"
       transform="translate(0,20)"
       style="fill:#e6dbc4;fill-opacity:1;stroke:none;stroke-width:0;stroke-dasharray:none;stroke-opacity:1" /><circle
       id="circle82"
       cx="15"
       cy="15"
       r="3.5999999"
       transform="translate(0,20)"
       style="fill:#e6dbc4;fill-opacity:1;stroke:none;stroke-width:0;stroke-dasharray:none;stroke-opacity:1" /><circle
       id="circle83"
       cx="30"
       cy="30"
       r="3.5999999"
       style="fill:#e6dbc4;fill-opacity:1;stroke:none;stroke-width:0;stroke-dasharray:none;stroke-opacity:1" /><circle
       id="circle84"
       cx="35"
       cy="25"
       r="3.5999999"
       style="fill:#e6dbc4;fill-opacity:1;stroke:none;stroke-width:0;stroke-dasharray:none;stroke-opacity:1" /><circle
       id="circle85"
       cx="25"
       cy="25"
       r="3.5999999"
       style="fill:#e6dbc4;fill-opacity:1;stroke:none;stroke-width:0;stroke-dasharray:none;stroke-opacity:1" /><circle
       id="circle86"
       cx="30"
       cy="20"
       r="3.5999999"
       style="fill:#e6dbc4;fill-opacity:1;stroke:none;stroke-width:0;stroke-dasharray:none;stroke-opacity:1" /><circle
       id="circle87"
       cx="40"
       cy="10"
       r="3.5999999"
       style="fill:#e6dbc4;fill-opacity:1;stroke:none;stroke-width:0;stroke-dasharray:none;stroke-opacity:1" /><circle
       id="circle88"
       cx="30"
       cy="10"
       r="3.5999999"
       style="fill:#e6dbc4;fill-opacity:1;stroke:none;stroke-width:0;stroke-dasharray:none;stroke-opacity:1" /><circle
       id="circle89"
       cx="20"
       cy="10"
       r="3.5999999"
       style="fill:#e6dbc4;fill-opacity:1;stroke:none;stroke-width:0;stroke-dasharray:none;stroke-opacity:1" /><circle
       id="circle90"
       cx="10"
       cy="10"
       r="3.5999999"
       style="fill:#e6dbc4;fill-opacity:1;stroke:none;stroke-width:0;stroke-dasharray:none;stroke-opacity:1" /><circle
       id="circle91"
       cx="45"
       cy="15"
       r="3.5999999"
       style="fill:#e6dbc4;fill-opacity:1;stroke:none;stroke-width:0;stroke-dasharray:none;stroke-opacity:1" /><circle
       id="circle92"
       cx="15"
       cy="15"
       r="3.5999999"
       style="fill:#e6dbc4;fill-opacity:1;stroke:none;stroke-width:0;stroke-dasharray:none;stroke-opacity:1" /><circle
       id="circle93"
       cx="10"
       cy="10"
       r="3.5999999"
       transform="translate(9.9999993,40)"
       style="fill:#e6dbc4;fill-opacity:1;stroke:none;stroke-width:0;stroke-dasharray:none;stroke-opacity:1" /><circle
       id="circle94"
       cx="20"
       cy="10"
       r="3.5999999"
       transform="translate(9.9999993,40)"
       style="fill:#e6dbc4;fill-opacity:1;stroke:none;stroke-width:0;stroke-dasharray:none;stroke-opacity:1" /><circle
       id="circle95"
       cx="30"
       cy="10"
       r="3.5999999"
       transform="translate(9.9999993,40)"
       style="fill:#e6dbc4;fill-opacity:1;stroke:none;stroke-width:0;stroke-dasharray:none;stroke-opacity:1" /><circle
       id="circle96"
       cx="40"
       cy="10"
       r="3.5999999"
       transform="translate(9.9999993,40)"
       style="fill:#e6dbc4;fill-opacity:1;stroke:none;stroke-width:0;stroke-dasharray:none;stroke-opacity:1" /><circle
       id="circle97"
       cx="50"
       cy="10"
       r="3.5999999"
       transform="translate(9.9999993,40)"
       style="fill:#e6dbc4;fill-opacity:1;stroke:none;stroke-width:0;stroke-dasharray:none;stroke-opacity:1" /><circle
       id="circle98"
       cx="70"
       cy="50"
       r="3.5999999"
       style="fill:#e6dbc4;fill-opacity:1;stroke:none;stroke-width:0;stroke-dasharray:none;stroke-opacity:1" /><circle
       id="circle99"
       cx="10"
       cy="10"
       r="3.5999999"
       transform="translate(5.0000048,45)"
       style="fill:#e6dbc4;fill-opacity:1;stroke:none;stroke-width:0;stroke-dasharray:none;stroke-opacity:1" /><circle
       id="circle100"
       cx="20"
       cy="10"
       r="3.5999999"
       transform="translate(5.0000048,45)"
       style="fill:#e6dbc4;fill-opacity:1;stroke:none;stroke-width:0;stroke-dasharray:none;stroke-opacity:1" /><circle
       id="circle101"
       cx="30"
       cy="10"
       r="3.5999999"
       transform="translate(5.0000048,45)"
       style="fill:#e6dbc4;fill-opacity:1;stroke:none;stroke-width:0;stroke-dasharray:none;stroke-opacity:1" /><circle
       id="circle102"
       cx="40"
       cy="10"
       r="3.5999999"
       transform="translate(5.0000048,45)"
       style="fill:#e6dbc4;fill-opacity:1;stroke:none;stroke-width:0;stroke-dasharray:none;stroke-opacity:1" /><circle
       id="circle103"
       cx="10"
       cy="10"
       r="3.5999999"
       transform="translate(0,50.000001)"
       style="fill:#e6dbc4;fill-opacity:1;stroke:none;stroke-width:0;stroke-dasharray:none;stroke-opacity:1" /><circle
       id="circle104"
       cx="20"
       cy="10"
       r="3.5999999"
       transform="translate(0,50.000001)"
       style="fill:#e6dbc4;fill-opacity:1;stroke:none;stroke-width:0;stroke-dasharray:none;stroke-opacity:1" /><circle
       id="circle105"
       cx="30"
       cy="10"
       r="3.5999999"
       transform="translate(0,50.000001)"
       style="fill:#e6dbc4;fill-opacity:1;stroke:none;stroke-width:0;stroke-dasharray:none;stroke-opacity:1" /><circle
       id="circle106"
       cx="40"
       cy="10"
       r="3.5999999"
       transform="translate(0,50.000001)"
       style="fill:#e6dbc4;fill-opacity:1;stroke:none;stroke-width:0;stroke-dasharray:none;stroke-opacity:1" /><circle
       id="circle107"
       cx="50"
       cy="10"
       r="3.5999999"
       transform="translate(0,50.000001)"
       style="fill:#e6dbc4;fill-opacity:1;stroke:none;stroke-width:0;stroke-dasharray:none;stroke-opacity:1" /><circle
       id="circle108"
       cx="10"
       cy="10"
       r="3.5999999"
       transform="translate(5.0000048,55)"
       style="fill:#e6dbc4;fill-opacity:1;stroke:none;stroke-width:0;stroke-dasharray:none;stroke-opacity:1" /><circle
       id="circle109"
       cx="20"
       cy="10"
       r="3.5999999"
       transform="translate(5.0000048,55)"
       style="fill:#e6dbc4;fill-opacity:1;stroke:none;stroke-width:0;stroke-dasharray:none;stroke-opacity:1" /><circle
       id="circle110"
       cx="30"
       cy="10"
       r="3.5999999"
       transform="translate(5.0000048,55)"
       inkscape:label="use678"
       style="fill:#e6dbc4;fill-opacity:1;stroke:none;stroke-width:0;stroke-dasharray:none;stroke-opacity:1" /><circle
       id="circle111"
       cx="40"
       cy="10"
       r="3.5999999"
       transform="translate(5.0000048,55)"
       style="fill:#e6dbc4;fill-opacity:1;stroke:none;stroke-width:0;stroke-dasharray:none;stroke-opacity:1" /><circle
       id="circle112"
       cx="10"
       cy="10"
       r="3.5999999"
       transform="translate(9.9999993,60)"
       style="fill:#e6dbc4;fill-opacity:1;stroke:none;stroke-width:0;stroke-dasharray:none;stroke-opacity:1" /><circle
       id="circle113"
       cx="20"
       cy="10"
       r="3.5999999"
       transform="translate(9.9999993,60)"
       style="fill:#e6dbc4;fill-opacity:1;stroke:none;stroke-width:0;stroke-dasharray:none;stroke-opacity:1" /><circle
       id="circle114"
       cx="30"
       cy="10"
       r="3.5999999"
       transform="translate(9.9999993,60)"
       style="fill:#e6dbc4;fill-opacity:1;stroke:none;stroke-width:0;stroke-dasharray:none;stroke-opacity:1" /><circle
       id="circle115"
       cx="40"
       cy="10"
       r="3.5999999"
       transform="translate(9.9999993,60)"
       style="fill:#e6dbc4;fill-opacity:1;stroke:none;stroke-width:0;stroke-dasharray:none;stroke-opacity:1" /><circle
       id="circle116"
       cx="10"
       cy="10"
       r="3.5999999"
       transform="translate(15.000004,65)"
       style="fill:#e6dbc4;fill-opacity:1;stroke:none;stroke-width:0;stroke-dasharray:none;stroke-opacity:1" /><circle
       id="circle117"
       cx="20"
       cy="10"
       r="3.5999999"
       transform="translate(15.000004,65)"
       style="fill:#e6dbc4;fill-opacity:1;stroke:none;stroke-width:0;stroke-dasharray:none;stroke-opacity:1" /><circle
       id="circle118"
       cx="30"
       cy="10"
       r="3.5999999"
       transform="translate(15.000004,65)"
       style="fill:#e6dbc4;fill-opacity:1;stroke:none;stroke-width:0;stroke-dasharray:none;stroke-opacity:1" /><circle
       id="circle119"
       cx="40"
       cy="10"
       r="3.5999999"
       transform="translate(15.000004,65)"
       style="fill:#e6dbc4;fill-opacity:1;stroke:none;stroke-width:0;stroke-dasharray:none;stroke-opacity:1" /><circle
       id="circle120"
       cx="10"
       cy="10"
       r="3.5999999"
       transform="translate(19.999999,70)"
       style="fill:#e6dbc4;fill-opacity:1;stroke:none;stroke-width:0;stroke-dasharray:none;stroke-opacity:1" /><circle
       id="circle121"
       cx="20"
       cy="10"
       r="3.5999999"
       transform="translate(19.999999,70)"
       style="fill:#e6dbc4;fill-opacity:1;stroke:none;stroke-width:0;stroke-dasharray:none;stroke-opacity:1" /><circle
       id="circle122"
       cx="30"
       cy="10"
       r="3.5999999"
       transform="translate(19.999999,70)"
       style="fill:#e6dbc4;fill-opacity:1;stroke:none;stroke-width:0;stroke-dasharray:none;stroke-opacity:1" /><circle
       id="circle123"
       cx="40"
       cy="10"
       r="3.5999999"
       transform="translate(19.999999,70)"
       style="fill:#e6dbc4;fill-opacity:1;stroke:none;stroke-width:0;stroke-dasharray:none;stroke-opacity:1" /><circle
       id="circle124"
       cx="10"
       cy="10"
       r="3.5999999"
       transform="translate(25.000003,75)"
       style="fill:#e6dbc4;fill-opacity:1;stroke:none;stroke-width:0;stroke-dasharray:none;stroke-opacity:1" /><circle
       id="circle125"
       cx="20"
       cy="10"
       r="3.5999999"
       transform="translate(25.000003,75)"
       style="fill:#e6dbc4;fill-opacity:1;stroke:none;stroke-width:0;stroke-dasharray:none;stroke-opacity:1" /><circle
       id="circle126"
       cx="30"
       cy="10"
       r="3.5999999"
       transform="translate(25.000003,75)"
       style="fill:#e6dbc4;fill-opacity:1;stroke:none;stroke-width:0;stroke-dasharray:none;stroke-opacity:1" /><circle
       id="circle127"
       cx="40"
       cy="10"
       r="3.5999999"
       transform="translate(25.000003,75)"
       style="fill:#e6dbc4;fill-opacity:1;stroke:none;stroke-width:0;stroke-dasharray:none;stroke-opacity:1" /><circle
       id="circle128"
       cx="10"
       cy="10"
       r="3.5999999"
       transform="translate(29.999998,80)"
       style="fill:#e6dbc4;fill-opacity:1;stroke:none;stroke-width:0;stroke-dasharray:none;stroke-opacity:1" /><circle
       id="circle129"
       cx="20"
       cy="10"
       r="3.5999999"
       transform="translate(29.999998,80)"
       style="fill:#e6dbc4;fill-opacity:1;stroke:none;stroke-width:0;stroke-dasharray:none;stroke-opacity:1" /><circle
       id="circle130"
       cx="30"
       cy="10"
       r="3.5999999"
       transform="translate(29.999998,80)"
       style="fill:#e6dbc4;fill-opacity:1;stroke:none;stroke-width:0;stroke-dasharray:none;stroke-opacity:1" /><circle
       id="circle131"
       cx="40"
       cy="10"
       r="3.5999999"
       transform="translate(29.999998,80)"
       style="fill:#e6dbc4;fill-opacity:1;stroke:none;stroke-width:0;stroke-dasharray:none;stroke-opacity:1" /><circle
       id="circle132"
       cx="50"
       cy="10"
       r="3.5999999"
       transform="rotate(90,20,64.999999)"
       style="fill:#e6dbc4;fill-opacity:1;stroke:none;stroke-width:0;stroke-dasharray:none;stroke-opacity:1" /><circle
       id="circle133"
       cx="50"
       cy="20"
       r="3.5999999"
       transform="rotate(90,20,64.999999)"
       style="fill:#e6dbc4;fill-opacity:1;stroke:none;stroke-width:0;stroke-dasharray:none;stroke-opacity:1" /><circle
       id="circle134"
       cx="40"
       cy="100"
       r="3.5999999"
       style="fill:#e6dbc4;fill-opacity:1;stroke:none;stroke-width:0;stroke-dasharray:none;stroke-opacity:1" /><circle
       id="circle135"
       cx="50"
       cy="40"
       r="3.5999999"
       transform="rotate(90,20,64.999999)"
       style="fill:#e6dbc4;fill-opacity:1;stroke:none;stroke-width:0;stroke-dasharray:none;stroke-opacity:1" /><circle
       id="circle136"
       cx="60"
       cy="100"
       r="3.5999999"
       style="fill:#e6dbc4;fill-opacity:1;stroke:none;stroke-width:0;stroke-dasharray:none;stroke-opacity:1" /><circle
       id="circle137"
       cx="80"
       cy="100"
       r="3.5999999"
       style="fill:#e6dbc4;fill-opacity:1;stroke:none;stroke-width:0;stroke-dasharray:none;stroke-opacity:1" /><circle
       id="circle138"
       cx="10"
       cy="10"
       r="3.5999999"
       transform="translate(5.0000048,95)"
       style="fill:#e6dbc4;fill-opacity:1;stroke:none;stroke-width:0;stroke-dasharray:none;stroke-opacity:1" /><circle
       id="circle139"
       cx="20"
       cy="10"
       r="3.5999999"
       transform="translate(5.0000048,95)"
       style="fill:#e6dbc4;fill-opacity:1;stroke:none;stroke-width:0;stroke-dasharray:none;stroke-opacity:1" /><circle
       id="circle140"
       cx="30"
       cy="10"
       r="3.5999999"
       transform="translate(5.0000048,95)"
       style="fill:#e6dbc4;fill-opacity:1;stroke:none;stroke-width:0;stroke-dasharray:none;stroke-opacity:1" /><circle
       id="circle141"
       cx="40"
       cy="10"
       r="3.5999999"
       transform="translate(5.0000048,95)"
       style="fill:#e6dbc4;fill-opacity:1;stroke:none;stroke-width:0;stroke-dasharray:none;stroke-opacity:1" /><circle
       id="circle142"
       cx="50"
       cy="10"
       r="3.5999999"
       transform="translate(5.0000048,95)"
       style="fill:#e6dbc4;fill-opacity:1;stroke:none;stroke-width:0;stroke-dasharray:none;stroke-opacity:1" /><circle
       id="circle143"
       cx="65"
       cy="105"
       r="3.5999999"
       style="fill:#e6dbc4;fill-opacity:1;stroke:none;stroke-width:0;stroke-dasharray:none;stroke-opacity:1" /><circle
       id="circle144"
       cx="85"
       cy="105"
       r="3.5999999"
       style="fill:#e6dbc4;fill-opacity:1;stroke:none;stroke-width:0;stroke-dasharray:none;stroke-opacity:1" /><circle
       id="circle145"
       cx="90"
       cy="110"
       r="3.5999999"
       inkscape:label="use55"
       style="fill:#e6dbc4;fill-opacity:1;stroke:none;stroke-width:0;stroke-dasharray:none;stroke-opacity:1" /></g></svg>
