<?xml version="1.0" encoding="UTF-8" standalone="no"?>
<!-- Created with Inkscape (http://www.inkscape.org/) -->

<svg
   width="1015.7354mm"
   height="101.44127mm"
   viewBox="0 0 1015.7354 101.44127"
   version="1.1"
   id="svg1"
   inkscape:version="1.3.2 (091e20e, 2023-11-25, custom)"
   sodipodi:docname="c128.svg"
   xmlns:inkscape="http://www.inkscape.org/namespaces/inkscape"
   xmlns:sodipodi="http://sodipodi.sourceforge.net/DTD/sodipodi-0.dtd"
   xmlns="http://www.w3.org/2000/svg"
   xmlns:svg="http://www.w3.org/2000/svg">
  <sodipodi:namedview
     id="namedview1"
     pagecolor="#ffffff"
     bordercolor="#000000"
     borderopacity="0.25"
     inkscape:showpageshadow="2"
     inkscape:pageopacity="0.0"
     inkscape:pagecheckerboard="0"
     inkscape:deskcolor="#d1d1d1"
     inkscape:document-units="mm"
     inkscape:zoom="0.57291968"
     inkscape:cx="1886.8264"
     inkscape:cy="206.83528"
     inkscape:window-width="3840"
     inkscape:window-height="2054"
     inkscape:window-x="-11"
     inkscape:window-y="-11"
     inkscape:window-maximized="1"
     inkscape:current-layer="layer1" />
  <defs
     id="defs1" />
  <g
     inkscape:label="Layer 1"
     inkscape:groupmode="layer"
     id="layer1"
     transform="translate(402.96042,-97.895833)">
    <g
       id="g18"
       transform="matrix(0.26458333,0,0,0.26458333,-402.96042,97.895833)">
	<g
   id="g17">
		<g
   id="g4">
			<path
   id="path5_00000062893375503859250500000015975418197646993845_"
   class="st39"
   d="M 3647.3,0 C 3752.7,0 3839,86.3 3839,191.7 v 0 c 0,105.5 -86.3,191.7 -191.7,191.7 H 191.7 C 86.3,383.5 0,297.2 0,191.7 v 0 C 0,86.3 86.3,0 191.7,0 Z"
   style="clip-rule:evenodd;fill:#3e3632;fill-rule:evenodd" />

			<g
   id="g3">
				<polygon
   id="polygon7_00000157281540878549316720000011682783555064269758_"
   class="st34"
   points="2114.1,83.5 2114.1,55.5 2953.2,55.5 2953.2,83.5 "
   style="clip-rule:evenodd;fill:#f20029;fill-rule:evenodd" />

				<polygon
   class="st31"
   points="2114.1,144.7 2114.1,116.6 2953.2,116.6 2953.2,144.7 "
   id="polygon1"
   style="clip-rule:evenodd;fill:#fd7801;fill-rule:evenodd" />

				<polygon
   class="st27"
   points="2114.1,205.8 2114.1,177.7 2953.2,177.7 2953.2,205.8 "
   id="polygon2"
   style="clip-rule:evenodd;fill:#f2f540;fill-rule:evenodd" />

				<polygon
   class="st22"
   points="2114.1,266.9 2114.1,238.9 2953.2,238.9 2953.2,266.9 "
   id="polygon3"
   style="clip-rule:evenodd;fill:#48cc31;fill-rule:evenodd" />

				<polygon
   id="polygon15_00000016049087271351280260000007417423160276566169_"
   class="st38"
   points="2114.1,328 2114.1,300 2953.2,300 2953.2,328 "
   style="clip-rule:evenodd;fill:#14a3fd;fill-rule:evenodd" />

			</g>

		</g>

		<g
   id="g12">
			<path
   class="st37"
   d="m 505.9,182.5 c -1.8,-16.4 -20,-15.9 -32.8,-15.9 -7,0 -21.5,0.2 -27.2,4.9 -5.4,4.4 -5.4,16.2 -5.4,22.4 0,6.1 0.2,14.1 4.9,18.6 5.7,5.4 21.1,5.9 28.3,5.9 4.9,0 9.7,0 14.5,-0.7 9.9,-1.3 15.8,-4.2 17.3,-14.8 H 546 c -0.4,11.9 -1.1,23.3 -9.9,32.3 -9.2,9.7 -23.3,11.7 -36.2,12.3 -9.7,0.4 -19.1,0.7 -28.7,0.7 -17.3,0 -42,0.4 -56.8,-9.9 -14.3,-10.1 -13.7,-31.2 -13.7,-46.7 0,-15.3 -0.2,-33.4 12.5,-44.2 13.9,-11.7 42.9,-10.8 59.9,-10.8 17.1,0 46.7,-0.7 60.8,10.8 3.8,3.1 6.3,6.3 8.3,11 3.3,7.9 3.6,15.5 3.8,24 z"
   id="path4"
   style="fill:#ffffff" />

			<path
   class="st37"
   d="m 714.2,211.3 c -0.9,10.3 -3.6,19.5 -11.7,26.5 -13.7,11.9 -46.1,10.5 -62.8,10.5 -17.5,0 -48.5,1.6 -62.8,-10.5 -4,-3.3 -6.5,-7 -8.5,-11.7 -4.4,-11 -3.8,-25 -3.8,-36.6 0,-5.9 0,-11.9 0.7,-17.8 0.9,-10.1 4.7,-19.1 13,-25.4 13.4,-10.3 45.6,-9.7 61.5,-9.7 16.2,0 47.8,-0.7 61.5,9.7 3.8,2.9 6.3,5.9 8.5,10.1 5.9,10.3 5.2,23.5 5.2,35.1 -0.1,6.6 -0.3,13.3 -0.8,19.8 z m -44,-38.9 c -5.9,-5.7 -22.9,-5.9 -30.3,-5.9 -7.2,0 -14.5,0.2 -21.5,1.6 -13.9,2.7 -14.1,13.4 -14.1,25.6 0,5.9 -0.2,13.7 4,18.2 6.1,6.5 23.5,6.5 31.6,6.5 7.7,0 15.8,0 23.1,-2 12.3,-3.3 12.1,-14.5 12.1,-25.6 0.1,-5.9 -0.2,-13.8 -4.9,-18.4 z"
   id="path5"
   style="fill:#ffffff" />

			<path
   class="st37"
   d="m 928.6,245.7 v -49.6 c 0,-22.9 -2.4,-29.4 -27,-29.4 -27.4,0 -29.4,10.8 -29.4,35.3 v 43.7 h -39.7 v -49.6 -7.4 c 0,-19.3 -8.3,-22 -26.3,-22 -28.3,0 -30.1,10.1 -30.1,35.3 v 43.7 H 736.4 V 139.5 H 774 v 16 h 1.8 c 7.4,-16.4 27.2,-18.6 43.1,-18.6 20.2,0 38,3.3 48.3,22.2 8.1,-19.8 27,-22.2 46.1,-22.2 15.5,0 32.7,1.8 44,13.7 3.8,4 6.8,8.3 8.3,13.7 3.1,10.3 2.9,21.3 2.9,31.9 v 49.6 h -39.9 z"
   id="path6"
   style="fill:#ffffff" />

			<path
   class="st37"
   d="m 1183.5,245.7 v -49.6 c 0,-22.9 -2.4,-29.4 -27,-29.4 -27.4,0 -29.4,10.8 -29.4,35.3 v 43.7 h -39.7 v -49.6 -7.4 c 0,-19.3 -8.3,-22 -26.3,-22 -28.3,0 -30.1,10.1 -30.1,35.3 v 43.7 H 991.3 V 139.5 h 37.5 v 16 h 1.8 c 7.4,-16.4 27.2,-18.6 43.1,-18.6 20.2,0 38,3.3 48.3,22.2 8.1,-19.8 27,-22.2 46.1,-22.2 15.5,0 32.7,1.8 44,13.7 3.8,4 6.8,8.3 8.3,13.7 3.1,10.3 2.9,21.3 2.9,31.9 v 49.6 h -39.9 v -0.1 z"
   id="path7"
   style="fill:#ffffff" />

			<path
   class="st37"
   d="m 1393.7,211.3 c -0.9,10.3 -3.6,19.5 -11.7,26.5 -13.7,11.9 -46.1,10.5 -62.8,10.5 -17.5,0 -48.5,1.6 -62.8,-10.5 -4,-3.3 -6.5,-7 -8.5,-11.7 -4.4,-11 -3.8,-25 -3.8,-36.6 0,-5.9 0,-11.9 0.7,-17.8 0.9,-10.1 4.7,-19.1 13,-25.4 13.4,-10.3 45.6,-9.7 61.5,-9.7 16.2,0 47.8,-0.7 61.5,9.7 3.8,2.9 6.3,5.9 8.5,10.1 5.9,10.3 5.2,23.5 5.2,35.1 -0.2,6.6 -0.4,13.3 -0.8,19.8 z m -44,-38.9 c -5.9,-5.7 -22.9,-5.9 -30.3,-5.9 -7.2,0 -14.5,0.2 -21.5,1.6 -13.9,2.7 -14.1,13.4 -14.1,25.6 0,5.9 -0.2,13.7 4,18.2 6.1,6.5 23.5,6.5 31.6,6.5 7.7,0 15.8,0 23.1,-2 12.3,-3.3 12.1,-14.5 12.1,-25.6 0,-5.9 -0.2,-13.8 -4.9,-18.4 z"
   id="path8"
   style="fill:#ffffff" />

			<path
   class="st37"
   d="m 1525.7,245.7 v -13.9 h -2 c -2.7,4.4 -4.7,7.4 -9.2,10.1 -9.9,6.1 -26.5,6.5 -37.7,6.5 -16.4,0 -38.6,0.2 -51.6,-11.2 -11.7,-10.3 -11.4,-30.7 -11.4,-45.2 0,-16.6 0.4,-36.8 15.8,-47.2 13.4,-9 32.3,-8.1 47.8,-8.1 11.7,0 24.4,-0.2 34.7,5.9 5.2,2.9 7,5.9 9.9,11 h 1.6 V 96 h 39.7 v 149.7 z m -4,-69.2 c -4.7,-10.8 -21.8,-9.9 -31.4,-9.9 -9.9,0 -29.9,-1.1 -34.7,10.1 -1.8,4.4 -2,10.3 -2,15.1 0,6.3 -0.2,16 4.4,20.9 5.4,5.9 22.6,5.9 29.9,5.9 8.1,0 18,-0.4 25.6,-2.9 10.8,-3.3 10.5,-13.7 10.5,-23.3 -0.1,-5.1 -0.3,-11.2 -2.3,-15.9 z"
   id="path9"
   style="fill:#ffffff" />

			<path
   class="st37"
   d="m 1734.5,211.3 c -0.9,10.3 -3.6,19.5 -11.7,26.5 -13.7,11.9 -46.1,10.5 -62.8,10.5 -17.5,0 -48.5,1.6 -62.8,-10.5 -4,-3.3 -6.5,-7 -8.5,-11.7 -4.4,-11 -3.8,-25 -3.8,-36.6 0,-5.9 0,-11.9 0.7,-17.8 0.9,-10.1 4.7,-19.1 13,-25.4 13.4,-10.3 45.6,-9.7 61.5,-9.7 16.2,0 47.8,-0.7 61.5,9.7 3.8,2.9 6.3,5.9 8.5,10.1 5.9,10.3 5.2,23.5 5.2,35.1 -0.1,6.6 -0.4,13.3 -0.8,19.8 z m -44,-38.9 c -5.9,-5.7 -22.9,-5.9 -30.3,-5.9 -7.2,0 -14.5,0.2 -21.5,1.6 -13.9,2.7 -14.1,13.4 -14.1,25.6 0,5.9 -0.2,13.7 4,18.2 6.1,6.5 23.5,6.5 31.6,6.5 7.7,0 15.8,0 23.1,-2 12.3,-3.3 12.1,-14.5 12.1,-25.6 0,-5.9 -0.2,-13.8 -4.9,-18.4 z"
   id="path10"
   style="fill:#ffffff" />

			<path
   class="st37"
   d="m 1879.8,186.6 h -37.3 c 0,-15.8 -5.2,-20 -20.9,-20 -24.4,0 -25.2,15.5 -25.2,35.1 v 44 h -39.7 V 139.5 h 37.5 v 16 h 1.8 c 9.2,-16.4 24,-18.6 41.3,-18.6 12.3,0 27.2,1.6 35.5,11.9 7.4,9.2 7.2,22.4 7.2,33.6 0,1.3 -0.2,2.9 -0.2,4.2 z"
   id="path11"
   style="fill:#ffffff" />

			<path
   class="st37"
   d="m 2038.4,201.2 h -103.7 c 0,6.1 -0.2,13 4.9,17.3 5.4,4.2 20.4,4.4 27,4.4 6.5,0 24.6,0.2 29,-4.4 1.8,-1.8 2.2,-4.2 2.7,-6.8 h 39.5 c -0.9,10.1 -2.9,18 -10.5,25 -13.7,12.3 -46.5,11.7 -63.7,11.7 -15.8,0 -42,0.2 -55.1,-9.9 -4,-3.1 -6.8,-6.8 -9,-11.2 -4.9,-10.3 -4.4,-23.1 -4.4,-34.1 0,-6.8 0,-13.4 0.7,-20 1.1,-10.8 4.7,-20.4 13.7,-27 13.9,-10.1 41.7,-9.4 58.2,-9.4 15.1,0 31.4,-0.4 46.1,3.8 23.5,7 25.2,28.5 25.2,49.8 -0.4,3.7 -0.4,7.2 -0.6,10.8 z M 1998.6,177 c 0,-4 -0.2,-7.2 -3.1,-10.3 -4.7,-5.2 -20.9,-5.2 -27.4,-5.2 -6.1,0 -12.1,0 -18,0.9 -11.2,1.6 -15.3,5.9 -15.5,17.1 h 63.9 V 177 Z"
   id="path12"
   style="fill:#ffffff" />

		</g>

		<g
   id="g14">
			<path
   class="st37"
   d="m 129.3,191.7 c 0,-34.4 28,-62.4 62.4,-62.4 11,0 21.4,2.9 30.4,8 V 78 c -9.7,-2.6 -19.9,-4 -30.4,-4 -65.1,0 -117.8,52.7 -117.8,117.8 0,65.1 52.7,117.8 117.8,117.8 10.5,0 20.7,-1.4 30.4,-4 v -59.3 c -9,5.1 -19.4,8 -30.4,8 -34.4,-0.1 -62.4,-28.1 -62.4,-62.6 z"
   id="path13"
   style="fill:#ffffff" />

			<polygon
   class="st37"
   points="222.2,187.5 277.7,187.5 324.9,140.3 222.2,140.3 "
   id="polygon13"
   style="fill:#ffffff" />

			<polygon
   class="st37"
   points="222.2,196.1 222.2,243.1 324.9,243.1 277.7,196.1 "
   id="polygon14"
   style="fill:#ffffff" />

		</g>

		<g
   id="g16">
			<path
   class="st37"
   d="M 3112.7,288.7 V 144.8 h -15.2 l -57.5,48.5 -32.7,-38.3 70.9,-61 h 94 v 194.8 h -59.5 z"
   id="path14"
   style="fill:#ffffff" />

			<path
   class="st37"
   d="m 3212.3,288.7 c 0,-7.6 -0.6,-15.5 -0.6,-23 0,-15.8 -0.3,-31.5 2.3,-47 5.3,-32.4 33.2,-36.5 61.3,-38.8 l 73.5,-5.9 c 9.3,-0.9 19.6,-0.9 28.6,-4 8.5,-2.9 8.5,-7.9 8.5,-16.1 0,-5.6 0,-11.7 -4.9,-15.2 -7.3,-5.6 -38.8,-4 -47.3,-4 -17.8,0 -37.1,-0.9 -54.9,2 -13.4,2 -11.9,11.7 -11.9,23.3 v 6.5 h -57.5 v -7.9 c 0,-16.1 0.3,-38.3 12.2,-50.8 13.4,-14 43.2,-14.5 61,-15.5 12.5,-0.6 25.2,-0.6 37.7,-0.6 h 5.6 l 48.2,0.3 c 18.7,0 42.6,0.3 56.7,14.5 10.8,11.1 10.8,33.2 10.8,47.6 0,14.5 -0.3,30.1 -8.5,42.9 -10.8,17.3 -41.4,19.6 -59.6,20.7 -14,0.9 -27.8,1.7 -41.7,2.6 -11.1,0.6 -22.2,1.4 -33.2,2.3 -4.9,0.3 -17.5,1.2 -22.2,2.9 -9.3,3.5 -9.3,9.9 -9.3,18.4 h 177.8 v 44.6 h -232.5 v 0.2 z"
   id="path15"
   style="fill:#ffffff" />

			<path
   class="st37"
   d="m 3690.7,279.1 c -19.3,14 -65.7,11.9 -88.8,11.9 h -26.6 c -23.9,0 -63.3,1.7 -83.7,-11.9 -13.7,-9.3 -14.8,-28 -14.8,-43.2 0,-12.8 1.2,-26.6 10.5,-36.2 7,-7.3 17.8,-8.8 27.5,-10.5 -4.3,-0.3 -9.1,-0.6 -13.4,-1.7 -19.6,-5.3 -22.2,-24.5 -22.2,-42 0,-28.3 8.5,-45 38,-49.6 24.2,-3.8 49.6,-4 74.1,-4 13.4,0 26.9,0.3 40.3,0.9 17.2,0.9 41.7,1.4 56.4,11.4 13.4,9.1 15.5,27.5 15.5,42.3 0,11.4 -1.4,24.5 -9.1,33.2 -7,8.2 -16.4,9.1 -26.6,9.6 10.5,1.7 19.6,2.9 27.5,10.5 10.2,9.6 10.5,26.6 10.5,39.7 -0.2,14.5 -2.3,30.5 -15.1,39.6 z m -45.2,-63.3 c -4.3,-4.3 -20.4,-4 -26,-4 -10.5,-0.3 -21,-0.6 -31.5,-0.6 -9.6,0 -43.7,-0.9 -50.2,3.8 -4.3,3.2 -4.3,10.5 -4.3,15.5 0,4.3 0.3,9.3 3.8,12.5 6.7,5.9 42.6,4.3 51.1,4.3 10.2,0 20.4,-0.3 30.6,-0.6 7.3,0 24.8,0.9 28.6,-7.6 1.4,-3.2 1.4,-7.6 1.4,-11.1 0,-4 -0.3,-9.4 -3.5,-12.2 z m -26,-79.7 c -11.7,-0.3 -23,-0.6 -34.7,-0.6 -11.9,0 -24.5,-0.3 -36.5,1.4 -9.9,1.4 -12.5,6.7 -12.5,16.4 0,10.2 3.5,13.7 13.4,14.8 20.7,2 42.9,1.2 63.6,1.2 6.7,0 26.3,0 30.9,-4.6 2.9,-2.9 2.9,-8.5 2.9,-12.2 0.1,-17 -13.7,-16.1 -27.1,-16.4 z"
   id="path16"
   style="fill:#ffffff" />

		</g>

	</g>

</g>
  </g>
</svg>
