<?xml version="1.0" encoding="UTF-8" standalone="no"?>
<!-- Created with Inkscape (http://www.inkscape.org/) -->

<svg
   width="1015.7356mm"
   height="91.916252mm"
   viewBox="0 0 1015.7356 91.916252"
   version="1.1"
   id="svg1"
   inkscape:version="1.3.2 (091e20e, 2023-11-25, custom)"
   sodipodi:docname="c16.svg"
   xmlns:inkscape="http://www.inkscape.org/namespaces/inkscape"
   xmlns:sodipodi="http://sodipodi.sourceforge.net/DTD/sodipodi-0.dtd"
   xmlns="http://www.w3.org/2000/svg"
   xmlns:svg="http://www.w3.org/2000/svg">
  <sodipodi:namedview
     id="namedview1"
     pagecolor="#ffffff"
     bordercolor="#000000"
     borderopacity="0.25"
     inkscape:showpageshadow="2"
     inkscape:pageopacity="0.0"
     inkscape:pagecheckerboard="0"
     inkscape:deskcolor="#d1d1d1"
     inkscape:document-units="mm"
     inkscape:zoom="0.2025577"
     inkscape:cx="-1535.365"
     inkscape:cy="1286.0533"
     inkscape:window-width="3840"
     inkscape:window-height="2054"
     inkscape:window-x="-11"
     inkscape:window-y="-11"
     inkscape:window-maximized="1"
     inkscape:current-layer="layer1" />
  <defs
     id="defs1" />
  <g
     inkscape:label="Layer 1"
     inkscape:groupmode="layer"
     id="layer1"
     transform="translate(402.96042,-102.65833)">
    <g
       id="g35"
       transform="matrix(0.26458333,0,0,0.26458333,-402.96042,102.65833)">
	<g
   id="g34">
		<g
   id="g22">
			<g
   id="g12">
				<g
   id="g7">
					<g
   id="g6">
						<g
   id="g5">
							<polygon
   class="st0"
   points="2403.4,52.2 2431.2,52.2 2431.2,295.3 2403.4,295.3 "
   id="polygon1"
   style="clip-rule:evenodd;fill:#002684;fill-rule:evenodd" />

							<polygon
   class="st1"
   points="2465,52.2 2492.8,52.2 2492.8,295.3 2465,295.3 "
   id="polygon2"
   style="clip-rule:evenodd;fill:#12506f;fill-rule:evenodd" />

							<polygon
   class="st21"
   points="2526.7,52.2 2554.5,52.2 2554.5,295.3 2526.7,295.3 "
   id="polygon3"
   style="clip-rule:evenodd;fill:#24795b;fill-rule:evenodd" />

							<polygon
   class="st3"
   points="2588.4,52.2 2616.1,52.2 2616.1,295.3 2588.4,295.3 "
   id="polygon4"
   style="clip-rule:evenodd;fill:#36a346;fill-rule:evenodd" />

							<polygon
   class="st22"
   points="2650,52.2 2677.8,52.2 2677.8,295.3 2650,295.3 "
   id="polygon5"
   style="clip-rule:evenodd;fill:#48cc31;fill-rule:evenodd" />

						</g>

					</g>

				</g>

				<g
   id="g8">
					<polygon
   class="st23"
   points="2711.6,52.2 2739.5,52.2 2739.5,295.3 2711.6,295.3 "
   id="polygon7"
   style="clip-rule:evenodd;fill:#6ad434;fill-rule:evenodd" />

				</g>

				<g
   id="g9">
					<polygon
   class="st24"
   points="2773.3,52.2 2801.1,52.2 2801.1,295.3 2773.3,295.3 "
   id="polygon8"
   style="clip-rule:evenodd;fill:#8bdc37;fill-rule:evenodd" />

				</g>

				<g
   id="g10">
					<polygon
   class="st25"
   points="2835,52.2 2862.8,52.2 2862.8,295.3 2835,295.3 "
   id="polygon9"
   style="clip-rule:evenodd;fill:#aee53a;fill-rule:evenodd" />

				</g>

				<g
   id="g11">
					<polygon
   class="st26"
   points="2896.6,52.2 2924.4,52.2 2924.4,295.3 2896.6,295.3 "
   id="polygon10"
   style="clip-rule:evenodd;fill:#d0ed3d;fill-rule:evenodd" />

				</g>

			</g>

			<g
   id="g17">
				<g
   id="g13">
					<polygon
   class="st27"
   points="2958.2,52.2 2986,52.2 2986,295.3 2958.2,295.3 "
   id="polygon12"
   style="clip-rule:evenodd;fill:#f2f540;fill-rule:evenodd" />

				</g>

				<g
   id="g14">
					<polygon
   class="st28"
   points="3019.9,52.2 3047.7,52.2 3047.7,295.3 3019.9,295.3 "
   id="polygon13"
   style="clip-rule:evenodd;fill:#f5d630;fill-rule:evenodd" />

				</g>

				<g
   id="g15">
					<polygon
   class="st29"
   points="3081.6,52.2 3109.4,52.2 3109.4,295.3 3081.6,295.3 "
   id="polygon14"
   style="clip-rule:evenodd;fill:#f8b621;fill-rule:evenodd" />

				</g>

				<g
   id="g16">
					<polygon
   class="st30"
   points="3143.2,52.2 3171,52.2 3171,295.3 3143.2,295.3 "
   id="polygon15"
   style="clip-rule:evenodd;fill:#fa9711;fill-rule:evenodd" />

				</g>

			</g>

			<g
   id="g21">
				<g
   id="g20">
					<polygon
   class="st31"
   points="3204.9,52.2 3232.7,52.2 3232.7,295.3 3204.9,295.3 "
   id="polygon17"
   style="clip-rule:evenodd;fill:#fd7801;fill-rule:evenodd" />

					<polygon
   class="st32"
   points="3266.5,52.2 3294.3,52.2 3294.3,295.3 3266.5,295.3 "
   id="polygon18"
   style="clip-rule:evenodd;fill:#f9500e;fill-rule:evenodd" />

					<polygon
   class="st33"
   points="3328.2,52.2 3356,52.2 3356,295.3 3328.2,295.3 "
   id="polygon19"
   style="clip-rule:evenodd;fill:#f6281c;fill-rule:evenodd" />

					<polygon
   class="st34"
   points="3389.8,52.2 3417.6,52.2 3417.6,295.3 3389.8,295.3 "
   id="polygon20"
   style="clip-rule:evenodd;fill:#f20029;fill-rule:evenodd" />

				</g>

			</g>

		</g>

		<g
   id="g31">
			<g
   id="g30">
				<path
   class="st35"
   d="m 538.2,161.9 c -2.2,-20.5 -24.3,-20 -39.8,-20 -8.5,0 -26.2,0.3 -33,6.2 -6.5,5.6 -6.5,20.3 -6.5,28.1 0,7.6 0.3,17.7 6,23.4 6.8,6.8 25.7,7.3 34.4,7.3 6,0 11.7,0 17.7,-0.8 12,-1.7 19.1,-5.3 21,-18.6 h 49 c -0.5,14.9 -1.4,29.3 -12,40.5 -11.2,12.1 -28.4,14.6 -43.9,15.5 -11.7,0.6 -23.2,0.8 -34.9,0.8 -21,0 -51,0.6 -69,-12.4 -17.5,-12.7 -16.6,-39.1 -16.6,-58.5 0,-19.1 -0.3,-41.9 15.3,-55.4 16.9,-14.6 52.1,-13.5 72.9,-13.5 20.8,0 56.8,-0.8 74,13.5 4.6,3.9 7.6,7.9 10.1,13.8 4.1,9.9 4.4,19.4 4.6,30.1 z"
   id="path22"
   style="fill:#002684" />

				<path
   class="st35"
   d="m 784.3,197.8 c -1.1,12.9 -4.4,24.5 -14.2,33.2 -16.6,14.9 -55.9,13.2 -76.4,13.2 -21.3,0 -58.9,2 -76.4,-13.2 -4.9,-4.2 -7.9,-8.7 -10.4,-14.6 -5.5,-13.8 -4.6,-31.2 -4.6,-45.9 0,-7.3 0,-14.9 0.8,-22.2 1.1,-12.7 5.7,-23.9 15.8,-31.8 16.4,-12.9 55.4,-12.1 74.8,-12.1 19.6,0 58.1,-0.8 74.8,12.1 4.6,3.7 7.6,7.3 10.4,12.7 7.1,12.9 6.3,29.5 6.3,43.9 -0.1,8.2 -0.3,16.7 -0.9,24.7 z m -53.5,-48.5 c -7.1,-7 -27.8,-7.3 -36.8,-7.3 -8.7,0 -17.7,0.3 -26.2,2 -16.9,3.4 -17.2,16.9 -17.2,32.1 0,7.3 -0.3,17.2 4.9,22.8 7.4,8.2 28.7,8.2 38.5,8.2 9.3,0 19.1,0 28.1,-2.5 15,-4.2 14.7,-18.3 14.7,-32.1 0,-7.8 -0.2,-17.6 -6,-23.2 z"
   id="path23"
   style="fill:#002684" />

				<path
   class="st35"
   d="m 1037.8,240.9 v -62.2 c 0,-28.7 -3,-36.9 -32.7,-36.9 -33.3,0 -35.8,13.5 -35.8,44.2 v 54.9 H 921 v -62.2 -9.3 c 0,-24.2 -10.1,-27.6 -31.9,-27.6 -34.4,0 -36.6,12.7 -36.6,44.2 v 54.9 h -48.3 v -133 h 45.5 v 20 h 2.2 c 9,-20.5 33,-23.4 52.4,-23.4 24.6,0 46.1,4.2 58.7,27.9 9.8,-24.8 32.7,-27.9 55.9,-27.9 18.8,0 39.8,2.3 53.5,17.2 4.6,5.1 8.2,10.4 10.1,17.2 3.8,12.9 3.5,26.7 3.5,40 V 241 h -48.2 z"
   id="path24"
   style="fill:#002684" />

				<path
   class="st35"
   d="m 1340.5,240.9 v -62.2 c 0,-28.7 -3,-36.9 -32.7,-36.9 -33.3,0 -35.8,13.5 -35.8,44.2 v 54.9 h -48.3 v -62.2 -9.3 c 0,-24.2 -10.1,-27.6 -31.9,-27.6 -34.4,0 -36.6,12.7 -36.6,44.2 v 54.9 h -48.3 v -133 h 45.6 v 20 h 2.2 c 9,-20.5 33,-23.4 52.4,-23.4 24.6,0 46.1,4.2 58.7,27.9 9.8,-24.8 32.7,-27.9 55.9,-27.9 18.8,0 39.8,2.3 53.5,17.2 4.6,5.1 8.2,10.4 10.1,17.2 3.8,12.9 3.5,26.7 3.5,40 V 241 h -48.3 z"
   id="path25"
   style="fill:#002684" />

				<path
   class="st35"
   d="m 1588.8,197.8 c -1.1,12.9 -4.4,24.5 -14.2,33.2 -16.6,14.9 -55.9,13.2 -76.4,13.2 -21.3,0 -58.9,2 -76.4,-13.2 -4.9,-4.2 -7.9,-8.7 -10.4,-14.6 -5.5,-13.8 -4.6,-31.2 -4.6,-45.9 0,-7.3 0,-14.9 0.8,-22.2 1.1,-12.7 5.7,-23.9 15.8,-31.8 16.4,-12.9 55.4,-12.1 74.8,-12.1 19.6,0 58.1,-0.8 74.8,12.1 4.6,3.7 7.6,7.3 10.4,12.7 7.1,12.9 6.3,29.5 6.3,43.9 -0.1,8.2 -0.4,16.7 -0.9,24.7 z m -53.5,-48.5 c -7.1,-7 -27.8,-7.3 -36.8,-7.3 -8.7,0 -17.7,0.3 -26.2,2 -16.9,3.4 -17.2,16.9 -17.2,32.1 0,7.3 -0.3,17.2 4.9,22.8 7.4,8.2 28.7,8.2 38.5,8.2 9.3,0 19.1,0 28.1,-2.5 15,-4.2 14.7,-18.3 14.7,-32.1 0,-7.8 -0.3,-17.6 -6,-23.2 z"
   id="path26"
   style="fill:#002684" />

				<path
   class="st35"
   d="m 1742.1,240.9 v -17.4 h -2.5 c -3.3,5.6 -5.7,9.3 -11.2,12.7 -12,7.6 -32.2,8.2 -45.8,8.2 -19.9,0 -46.9,0.3 -62.8,-14.1 -14.2,-12.9 -13.9,-38.6 -13.9,-56.6 0,-20.8 0.5,-46.2 19.1,-59.1 16.4,-11.3 39.3,-10.1 58.1,-10.1 14.2,0 29.7,-0.3 42.3,7.3 6.3,3.7 8.5,7.3 12,13.8 h 1.9 V 53.3 h 48.3 V 241 h -45.5 z m -4.9,-86.6 c -5.7,-13.5 -26.5,-12.4 -38.2,-12.4 -12,0 -36.3,-1.4 -42.3,12.7 -2.2,5.6 -2.5,12.9 -2.5,18.9 0,7.9 -0.3,20 5.5,26.2 6.5,7.3 27.6,7.3 36.3,7.3 9.8,0 21.8,-0.6 31.1,-3.7 13.1,-4.2 12.8,-17.2 12.8,-29.3 0,-6.2 -0.3,-13.8 -2.7,-19.7 z"
   id="path27"
   style="fill:#002684" />

				<path
   class="st35"
   d="m 1988.8,197.8 c -1.1,12.9 -4.4,24.5 -14.2,33.2 -16.6,14.9 -55.9,13.2 -76.4,13.2 -21.3,0 -58.9,2 -76.4,-13.2 -4.9,-4.2 -7.9,-8.7 -10.4,-14.6 -5.5,-13.8 -4.6,-31.2 -4.6,-45.9 0,-7.3 0,-14.9 0.8,-22.2 1.1,-12.7 5.7,-23.9 15.8,-31.8 16.4,-12.9 55.4,-12.1 74.8,-12.1 19.6,0 58.1,-0.8 74.8,12.1 4.6,3.7 7.6,7.3 10.4,12.7 7.1,12.9 6.3,29.5 6.3,43.9 -0.1,8.2 -0.4,16.7 -0.9,24.7 z m -53.5,-48.5 c -7.1,-7 -27.8,-7.3 -36.8,-7.3 -8.7,0 -17.7,0.3 -26.2,2 -16.9,3.4 -17.2,16.9 -17.2,32.1 0,7.3 -0.3,17.2 4.9,22.8 7.4,8.2 28.7,8.2 38.5,8.2 9.3,0 19.1,0 28.1,-2.5 15,-4.2 14.7,-18.3 14.7,-32.1 0,-7.8 -0.3,-17.6 -6,-23.2 z"
   id="path28"
   style="fill:#002684" />

				<path
   class="st35"
   d="m 2158.2,167 h -45.3 c 0,-19.7 -6.3,-25 -25.4,-25 -29.7,0 -30.6,19.4 -30.6,43.9 V 241 h -48.3 V 107.9 h 45.6 v 20 h 2.2 c 11.2,-20.5 29.2,-23.4 50.2,-23.4 15,0 33,2 43.1,14.9 9,11.5 8.7,28.1 8.7,42.2 0.1,1.7 -0.2,3.7 -0.2,5.4 z"
   id="path29"
   style="fill:#002684" />

				<path
   class="st35"
   d="m 2343.8,185.3 h -126.1 c 0,7.6 -0.3,16.3 6,21.7 6.5,5.3 24.8,5.6 32.7,5.6 7.9,0 30,0.3 35.2,-5.6 2.2,-2.3 2.7,-5.3 3.3,-8.4 h 48 c -1.1,12.7 -3.5,22.5 -12.8,31.2 -16.6,15.5 -56.5,14.6 -77.5,14.6 -19.1,0 -51,0.3 -66.9,-12.4 -4.9,-3.9 -8.2,-8.4 -10.9,-14.1 -6,-12.9 -5.5,-29 -5.5,-42.8 0,-8.4 0,-16.9 0.8,-25 1.4,-13.5 5.7,-25.6 16.6,-33.8 16.9,-12.7 50.8,-11.8 70.7,-11.8 18.3,0 38.2,-0.6 55.9,4.8 28.7,8.7 30.6,35.7 30.6,62.5 0.2,4.5 0.2,9 -0.1,13.5 z m -48.3,-30.4 c 0,-5.1 -0.3,-9 -3.8,-12.9 -5.7,-6.5 -25.4,-6.5 -33.3,-6.5 -7.4,0 -14.7,0 -21.8,1.1 -13.6,2 -18.6,7.3 -18.8,21.4 h 77.8 z"
   id="path30"
   style="fill:#002684" />

			</g>

		</g>

		<g
   id="g32">
			<path
   class="st35"
   d="m 79.1,173.7 c 0,-50.8 40.1,-92.1 89.3,-92.1 15.8,0 30.7,4.3 43.5,11.7 V 5.9 C 198,2.1 183.5,0 168.4,0 75.4,0 0,77.7 0,173.7 c 0,96 75.4,173.7 168.4,173.7 15.1,0 29.7,-2.1 43.5,-5.9 V 254 c -12.9,7.5 -27.7,11.7 -43.5,11.7 -49.2,-0.1 -89.3,-41.4 -89.3,-92 z"
   id="path31"
   style="fill:#002684" />

			<polygon
   class="st35"
   points="211.9,167.3 291.3,167.3 358.6,97.9 211.9,97.9 "
   id="polygon31"
   style="fill:#002684" />

			<polygon
   class="st36"
   points="211.9,180 211.9,249.3 358.6,249.3 291.3,180 "
   id="polygon32"
   style="fill:#f20029" />

		</g>

		<g
   id="g33">
			<path
   class="st35"
   d="M 3461.3,295.3 V 52.4 h 75.3 v 242.9 z"
   id="path32"
   style="fill:#002684" />

			<path
   class="st35"
   d="m 3771.9,120.5 c 0,-3.6 -0.4,-8.7 -3.5,-11.3 -3.2,-2.5 -8.1,-2.9 -11.7,-3.3 -18.4,-1.8 -37.5,-1.8 -56.2,-1.8 -17.3,0 -36,0 -53,3.3 -3.9,0.7 -7.4,1.8 -10.6,4.4 -8.1,6.6 -7.4,24.8 -7.4,34.3 v 9.5 4 c 4.2,-4.4 8.5,-8 13.8,-10.9 19.8,-11.7 59.4,-10.6 81.6,-10.6 24,0 53.4,0.4 76.3,8 8.5,2.9 15.5,6.9 21.9,13.5 14.1,14.2 14.5,41.5 14.5,60.5 0,34.6 -5.7,65.6 -43.1,73.2 -14.5,2.9 -29.3,4 -43.8,4.4 -21.2,0.4 -42.1,0.7 -63.3,0.7 -29.7,0 -85.2,1.8 -107.8,-19.3 -16.3,-14.9 -17.3,-44.1 -18,-64.9 -0.4,-16 -0.7,-32.4 -0.7,-48.5 0,-29.2 -3.2,-76.5 20.1,-97.3 22.3,-20 98.2,-18.9 126.2,-18.9 15.5,0 31.1,0 46.6,0.7 21.6,0.7 58,1.8 74.2,18.9 11.3,12 11,35.7 11,51.4 0,0 -67.1,0 -67.1,0 z m -20.5,74.3 c -19.1,-2.9 -39.6,-2.2 -59,-2.2 -14.1,0 -28.6,-0.7 -42.8,1.5 -13.8,2.2 -19.1,10.9 -19.1,24.8 0,6.2 1.4,14.2 5.7,19 7.1,7.7 47,5.8 56.2,5.8 12.4,0 24.4,-0.4 36.8,-0.7 8.8,-0.4 26.9,0.7 33.9,-6.2 4.2,-4.4 4.9,-12.4 4.9,-18.2 0,-13.6 -2.9,-21.7 -16.6,-23.8 z"
   id="path33"
   style="fill:#002684" />

		</g>

	</g>

</g>
  </g>
</svg>
