<?xml version="1.0" encoding="UTF-8" standalone="no"?>
<!-- Created with Inkscape (http://www.inkscape.org/) -->

<svg
   version="1.1"
   id="svg1"
   width="3839"
   height="1382.3406"
   viewBox="0 0 3839 1382.3406"
   sodipodi:docname="cavestory.svg"
   inkscape:version="1.4 (86a8ad7, 2024-10-11)"
   xmlns:inkscape="http://www.inkscape.org/namespaces/inkscape"
   xmlns:sodipodi="http://sodipodi.sourceforge.net/DTD/sodipodi-0.dtd"
   xmlns="http://www.w3.org/2000/svg"
   xmlns:svg="http://www.w3.org/2000/svg">
  <defs
     id="defs1">
    <inkscape:path-effect
       effect="fill_between_many"
       method="originald"
       linkedpaths="#path1,0,1"
       id="path-effect1"
       is_visible="true"
       lpeversion="0"
       join="true"
       close="true"
       autoreverse="true" />
  </defs>
  <sodipodi:namedview
     id="namedview1"
     pagecolor="#ffffff"
     bordercolor="#000000"
     borderopacity="0.25"
     inkscape:showpageshadow="2"
     inkscape:pageopacity="0.0"
     inkscape:pagecheckerboard="true"
     inkscape:deskcolor="#d1d1d1"
     inkscape:zoom="0.44716243"
     inkscape:cx="3044.7549"
     inkscape:cy="-185.61488"
     inkscape:window-width="3840"
     inkscape:window-height="2054"
     inkscape:window-x="-11"
     inkscape:window-y="-11"
     inkscape:window-maximized="1"
     inkscape:current-layer="svg1" />
  <path
     d="M 0,691.17026 C 0,0 0,0 1919.5,0 3839,0 3839,0 3839,691.17026 c 0,691.17024 0,691.17024 -1919.5,691.17024 C 0,1382.3405 0,1382.3405 0,691.17026 Z"
     id="path2"
     style="fill:#ffffff"
     inkscape:original-d="M 0,0"
     inkscape:path-effect="#path-effect1" />
  <path
     style="fill:#000000"
     d="M 0,92 C 0,0 0,0 255.5,0 511,0 511,0 511,92 c 0,92 0,92 -255.5,92 C 0,184 0,184 0,92 Z m 341.56227,77.94151 c 4.80158,-4.51086 1.85782,-9.6976 -5.84717,-10.30239 C 329.16807,159.12522 327.46353,156 333.73028,156 c 3.67547,0 6.68595,-2.72807 6.26972,-6.53836 -0.46044,-4.21498 1.0272,-2.21316 2.19738,-3.5889 2.47514,-2.90993 -8.40549,-3.0025 -11.93473,-2.37675 -4.2589,0.75512 -5.92582,5.11711 -3.79566,9.07257 1.40717,2.61296 1.55686,3.69778 0.65944,4.7791 -0.63851,0.76936 -0.8736,2.14764 -0.5224,3.06284 0.36733,0.95725 -0.1004,2.4805 -1.10127,3.58645 -6.11495,6.75694 9.17162,12.41539 16.05951,5.94456 z m -12.5517,-1.42878 c -2.86147,-3.44785 2.91891,-6.63064 8.31571,-4.57878 4.97249,1.89054 2.6295,6.06605 -3.40384,6.06605 -2.03499,0 -4.22885,-0.66428 -4.91187,-1.48727 z m 1.6561,-15.1794 c -1.38216,-1.38216 -0.67105,-7.11767 0.96008,-7.74359 2.1538,-0.82649 4.37325,1.11863 4.37325,3.8327 0,3.39401 -3.3752,5.86902 -5.33333,3.91089 z M 75.633448,163.36965 C 85.806284,158.54232 82.277546,143 71.008711,143 c -10.139205,0 -12.273549,17.1197 -2.620594,21.01993 2.99089,1.20846 3.407047,1.17111 7.245331,-0.65028 z M 68.500901,160.001 C 64.471454,155.54851 67.022902,145 72.129307,145 c 2.70885,0 5.194581,5.54857 4.570429,10.20197 -0.894436,6.66852 -4.563438,8.81609 -8.198835,4.79903 z m 203.293729,2.34258 c 5.06022,-3.19357 5.46841,-13.00024 0.71144,-17.09202 -8.33182,-7.16672 -20.00736,3.18295 -15.12967,13.41156 2.75757,5.78269 8.68842,7.29662 14.41823,3.68046 z m -9.23793,-2.56609 c -3.00976,-4.29703 -1.18504,-13.84022 2.79282,-14.60629 3.38852,-0.65256 5.65048,2.68157 5.65048,8.3288 0,7.66376 -4.91354,11.31692 -8.4433,6.27749 z m 56.6933,1.11033 C 325.39893,154.36018 321.11215,143 312.5,143 c -10.60868,0 -13.46908,17.05426 -3.5,20.86764 3.60473,1.37888 7.10186,0.36222 10.25,-2.97982 z m -10.25045,-0.38837 C 305.42535,156.19281 307.89367,145 312.41759,145 c 2.61135,0 5.08241,4.13269 5.08241,8.5 0,6.69131 -5.20155,10.97438 -8.50045,6.99945 z M 50.610493,162.38054 C 67.370076,154.4276 59.922281,135 40.113845,135 c -8.284207,0 -9.328267,0.39151 -6.520052,2.44492 2.813414,2.05722 3.224808,20.87375 0.507244,23.2006 C 32.945467,161.63495 32,162.79447 32,163.22224 c 0,1.5167 15.077571,0.83478 18.610493,-0.8417 z M 40.431618,159.6824 c -1.680873,-4.38029 0.100901,-22.18703 2.250697,-22.49308 9.471402,-1.34838 15.368621,14.9689 7.792236,21.56068 -2.888063,2.51274 -9.211226,3.09979 -10.042933,0.9324 z M 105,162.36842 C 105,161.61579 104.55,161 104,161 c -0.58824,0 -1,-3.5 -1,-8.5 0,-4.675 -0.3375,-8.55131 -0.75,-8.61402 -6.764374,-1.02837 -9.066507,0.15339 -5.358409,2.75064 C 101.49232,149.8591 98.970049,161 93.639757,161 91,161 91,161 91,152.60699 c 0,-9.07372 -0.358367,-9.64844 -5.406335,-8.6702 -2.620984,0.50791 -2.743712,0.69796 -1.25,1.93565 1.213726,1.0057 1.656335,3.01721 1.656335,7.5275 0,9.27631 1.124989,10.3369 10.964542,10.3369 6.132568,0 8.035458,-0.32406 8.035458,-1.36842 z m 11.42997,0.74489 c 0.30141,-0.48768 -0.12204,-1.44278 -0.94098,-2.12245 C 113.52429,159.36031 113.5323,155 115.5,155 c 0.825,0 1.5,0.36206 1.5,0.80458 0,1.81093 6.9216,8.19542 8.88487,8.19542 3.04857,0 2.66479,-1.05486 -2.38487,-6.55498 -5.45451,-5.94109 -5.46711,-6.1946 -0.49072,-9.87605 4.39974,-3.25486 4.34443,-3.96333 -0.32818,-4.20386 -4.05457,-0.20871 -5.08717,0.44068 -3.58288,2.25323 0.9563,1.15228 0.73119,1.93434 -1.12576,3.91098 C 114.37982,153.3535 114,152.68141 114,142.5 c 0,-9.5 0,-9.5 -3.5,-9.5 -3.57521,0 -4.69832,1.32618 -2,2.36163 1.78625,0.68544 2.25242,25.05532 0.5,26.13837 -0.55,0.33992 -1,1.04148 -1,1.55902 0,1.19436 7.69474,1.24392 8.42997,0.0543 z M 141.8,162.8 c 0.93333,-0.93333 1.46667,-0.93333 2.4,0 2.67743,2.67743 7.82932,0.99487 5.34825,-1.74669 -0.9532,-1.05327 -1.55838,-4.36248 -1.75219,-9.58115 -0.29546,-7.95596 -0.3019,-7.97283 -3.16788,-8.30034 -3.81763,-0.43626 -5.51517,1.28311 -2.73554,2.77072 2.62229,1.40341 3.12185,11.97062 0.6624,14.01178 -4.0829,3.38851 -6.02655,1.02995 -6.55504,-7.95432 -0.5,-8.5 -0.5,-8.5 -3.49254,-8.17413 -3.80434,0.41427 -4.44555,1.06965 -2.24913,2.29882 1.37765,0.77097 1.74167,2.3366 1.74167,7.49074 0,9.46381 4.9147,14.06987 9.8,9.18457 z m 22.93033,-0.4729 c 0.21172,-0.64509 -0.6535,-1.32009 -1.9227,-1.5 C 159.0179,160.28991 158.67919,146 162.45619,146 c 3.14009,0 3.37993,-1.74181 0.30024,-2.18045 -1.60651,-0.22881 -2.39016,-1.1714 -2.75982,-3.31955 -0.73595,-4.27668 -4.49661,-4.29164 -4.49661,-0.0179 0,2.04346 -0.55083,3.08951 -1.75,3.32333 C 151.61455,144.2218 151.41199,146 153.5,146 c 1.19181,0 1.5,1.45175 1.5,7.06574 0,9.49597 7.35564,16.4971 9.73033,9.26136 z m 15.3779,0.075 C 184.09615,158.79303 180.53667,151 174.90033,151 c -2.4156,0 -4.21451,-3.28582 -2.65353,-4.8468 1.71974,-1.71974 3.43908,-1.40674 5.71976,1.04128 2.42812,2.60628 4.24859,1.41086 2.96118,-1.94448 -0.71333,-1.85917 -1.62363,-2.25 -5.24053,-2.25 -8.7221,0 -10.72004,7.80287 -2.95329,11.53392 5.84925,2.80991 6.90573,3.99043 5.30125,5.9237 -1.87752,2.26227 -4.81334,1.88478 -7.44759,-0.95762 C 167.61803,156.2958 167,156.35323 167,159.83333 c 0,4.34384 9.16269,6.13938 13.10823,2.56873 z m 16.89682,0.59524 c 1.25242,-0.67028 2.07903,-0.67028 2.49328,0 0.96709,1.56478 6.50167,1.23253 6.50167,-0.39031 0,-0.76616 -0.71466,-1.66725 -1.58814,-2.00244 -1.28973,-0.49492 -1.53136,-1.97118 -1.286,-7.85699 0.35841,-8.59767 -0.0774,-9.55506 -4.08183,-8.96733 -3.10801,0.45616 -4.29844,2.21977 -1.49834,2.21977 2.35808,0 1.64724,12.85594 -0.79569,14.39049 -3.54896,2.22931 -5.23707,-0.37573 -5.37546,-8.29524 -0.13762,-7.87554 -0.34681,-8.35645 -3.83832,-8.82403 -2.94175,-0.39395 -4.02854,1.0753 -2.02521,2.73792 1.02353,0.84945 1.48899,3.15982 1.48899,7.3908 0,9.22236 3.83391,12.90005 10.00505,9.59736 z m 32.49932,-0.004 c 0.34231,-0.55389 -0.19363,-1.30856 -1.19099,-1.67706 -2.90978,-1.07509 -3.28189,-2.34242 -3.29807,-11.23255 -0.0183,-10.04243 0.43082,-9.80201 4.98448,2.66842 4.46515,12.22803 4.73647,12.23296 9.48039,0.17212 C 244.5258,140.09599 245,139.92749 245,150.96242 c 0,8.68464 -0.10761,9.12949 -2.46864,10.20525 -3.76484,1.71537 -2.17622,2.62888 4.46294,2.56634 6.49229,-0.0612 7.01102,-0.42875 4.11007,-2.91261 -2.70083,-2.31253 -2.58217,-21.26767 0.14563,-23.26227 2.82159,-2.06318 2.05428,-2.68866 -2.89996,-2.36392 -4.64997,0.30479 -4.64997,0.30479 -8.13187,9.55479 -4.01483,10.66576 -4.35229,10.89366 -6.66353,4.5 -5.03262,-13.92193 -4.88132,-13.71902 -10.47811,-14.05226 -5.07307,-0.30205 -6.92219,1.0817 -3.07653,2.30226 1.83881,0.58362 2,1.51303 2,11.5322 0,9.87398 -0.18783,10.99796 -2,11.9678 -1.1,0.5887 -2,1.50453 -2,2.03518 0,1.28531 10.7082,1.24598 11.50437,-0.0422 z m 57.96451,0.0574 c 0.28001,-0.45306 -0.16095,-1.37982 -0.97989,-2.05949 C 282.56243,157.73211 285.38548,146 290.09618,146 c 3.66148,0 5.63549,12.31795 2.40382,15 -2.55669,2.12187 -1.67856,3 3,3 4.22595,0 5.76563,-1.09977 3.5,-2.5 -0.55,-0.33992 -1,-3.74148 -1,-7.55902 0,-9.19907 -5.19978,-14.3412 -9.82496,-9.71602 -0.86923,0.86923 -1.72592,0.92754 -2.95,0.2008 -0.94877,-0.56329 -3.07504,-0.73521 -4.72504,-0.38205 -2.44482,0.52328 -2.67615,0.7835 -1.25,1.40619 1.97734,0.86334 2.6857,15.5501 0.75,15.5501 -0.55,0 -1,0.62195 -1,1.38212 0,1.52681 7.56913,2.12405 8.46888,0.66823 z M 355.8,162.8 c 0.93333,-0.93333 1.46667,-0.93333 2.4,0 1.65804,1.65804 5.8,1.52021 5.8,-0.19301 0,-0.76616 -0.675,-1.65203 -1.5,-1.96862 -1.12689,-0.43242 -1.5,-2.24283 -1.5,-7.27824 0,-9.64781 -5.11421,-13.47057 -11.77749,-8.80343 C 346.38926,146.54118 346.24788,150 349,150 c 1.34363,0 2,-0.66667 2,-2.03138 0,-2.51746 2.52079,-3.61121 4.51273,-1.95805 2.76819,2.29739 1.6239,4.42093 -3.76629,6.98943 -5.55296,2.64606 -7.36805,6.34115 -4.69625,9.56047 1.44891,1.74584 7.0891,1.90024 8.74981,0.23953 z m -5.42697,-3.27027 C 349.59879,157.51207 352.67617,154 355.21835,154 c 3.41173,0 2.02472,6.41453 -1.47404,6.81697 -1.82013,0.20936 -2.96467,-0.22766 -3.37128,-1.28724 z m 27.59894,3.50875 c 1.50151,-0.94956 1.26196,-1.1171 -3.72197,-2.60303 C 371.4001,159.58577 372.65495,146 375.58333,146 c 1.62736,0 2.42559,-0.46257 2.15705,-1.25 -0.23446,-0.6875 -1.36672,-1.11434 -2.51614,-0.94853 -1.70854,0.24647 -2.14772,-0.29941 -2.40704,-2.99181 C 372.3721,136.18844 369,135.49112 369,140.0203 c 0,2.32594 -0.53111,3.30583 -2,3.68995 -1.1,0.28766 -2,0.92053 -2,1.40638 0,0.48585 0.9,0.88337 2,0.88337 1.84158,0 2,0.66667 2,8.41667 0,5.79766 0.38896,8.57361 1.25,8.92105 2.09165,0.844 6.16375,0.6862 7.72197,-0.29924 z M 390.8,162.8 c 0.93333,-0.93333 1.46667,-0.93333 2.4,0 1.4678,1.4678 5.8,1.59374 5.8,0.16862 0,-0.56727 -0.675,-1.29041 -1.5,-1.60699 -1.13746,-0.43649 -1.5,-2.28302 -1.5,-7.63988 C 396,145.68319 394.47145,143 389.89207,143 c -5.256,0 -9.97126,3.44482 -8.3363,6.09024 1.12009,1.81234 4.44423,0.97339 4.44423,-1.12162 0,-2.51746 2.52079,-3.61121 4.51273,-1.95805 2.57703,2.13874 1.64327,3.87669 -3.47682,6.47124 -6.62927,3.3593 -7.96767,6.23488 -4.77919,10.26819 1.25891,1.59248 6.96739,1.62589 8.54328,0.05 z m -5.49973,-3.4599 c -0.67722,-1.7648 4.36716,-6.66367 5.89151,-5.72157 1.22453,0.7568 0.96682,4.82287 -0.39178,6.18147 -1.72893,1.72893 -4.75697,1.47572 -5.49973,-0.4599 z M 411,162.96862 c 0,-0.56727 -0.675,-1.29041 -1.5,-1.60699 -1.11266,-0.42697 -1.5,-2.19483 -1.5,-6.84617 0,-6.8725 1.67297,-9.81936 3.98977,-7.02779 1.94988,2.34947 4.01023,1.82591 4.01023,-1.01905 0,-3.04493 -2.50499,-4.25885 -5.25036,-2.54434 -1.42405,0.88933 -2.2914,0.93396 -3.06754,0.15782 -1.42007,-1.42007 -5.37453,-1.38877 -6.26348,0.0496 -0.38468,0.62242 0.0388,1.54478 0.94098,2.04969 C 404.23217,147.22931 404.82728,161 403,161 c -0.55,0 -1,0.675 -1,1.5 0,1.11111 1.16667,1.5 4.5,1.5 2.475,0 4.5,-0.46412 4.5,-1.03138 z M 427,162.5 c 0,-0.825 -0.43248,-1.5 -0.96107,-1.5 -0.52858,0 -1.09108,-3.9375 -1.25,-8.75 -0.27548,-8.34253 -0.39908,-8.76558 -2.65427,-9.08466 -3.22366,-0.45611 -5.2489,1.61264 -2.88466,2.94663 2.42363,1.3675 2.58231,14.35466 0.18662,15.27398 C 416.74668,162.41817 418.93869,164 423.05902,164 425.89545,164 427,163.57959 427,162.5 Z m 28.79194,-22.28324 c 5.09953,-3.34134 9.69017,-11.81355 20.60645,-38.02997 9.82131,-23.586739 11.00771,-25.828314 14.67361,-27.724021 5.97236,-3.088428 3.53407,-4.866527 -6.57567,-4.795253 -9.88614,0.0697 -13.07285,2.189742 -6.6546,4.427154 4.49444,1.566773 4.41247,2.398163 -1.69655,17.207506 -6.14488,14.896264 -6.52659,15.257664 -9.14628,8.659552 -0.97431,-2.45395 -3.62714,-8.934722 -5.8952,-14.401715 -4.16346,-10.035773 -4.21798,-11.074813 -0.61518,-11.724432 7.29302,-1.315 2.24243,-3.719654 -8.44774,-4.022084 -14.54865,-0.411586 -17.15575,0.92941 -9.43718,4.854145 7.13648,3.628756 22.55319,42.742558 19.42365,49.279858 -5.68685,11.87932 -7.59317,13.33273 -11.8734,9.0525 -5.56993,-5.56992 -12.26803,-1.67305 -9.50419,5.52941 1.60661,4.18676 9.91475,5.11256 15.14228,1.68735 z M 424.5,135.91667 c 0,-1.74445 -0.55251,-2.41667 -1.9863,-2.41667 -2.34654,0 -3.33915,3.36238 -1.36209,4.61392 2.06874,1.30957 3.34839,0.46986 3.34839,-2.19725 z M 59.77437,118.47436 c 8.946081,-2.6567 19.601504,-13.44651 17.832239,-18.05714 -0.903012,-2.353209 -3.28946,-1.597099 -4.547849,1.44092 C 62.892543,126.40156 32,112.37287 32,83.212843 32,49.286431 61.516337,38.436771 70.599843,69.024254 c 2.814339,9.476907 4.84842,6.609333 5.182058,-7.305476 C 76.08646,49.016728 75.138428,46.754774 71.057913,50.447589 69.297477,52.040762 68.940999,52.005102 64.845159,49.826094 54.602513,44.376955 36.796293,48.390037 28.890913,57.929291 6.5723204,84.860663 28.461618,127.77325 59.77437,118.47436 Z M 215,116.94503 c 4.85471,-2.45478 10.41349,-8.42511 9.66367,-10.37912 -0.83067,-2.16468 -3.40205,-1.96556 -4.12734,0.31961 -3.5905,11.31267 -23.03534,8.08679 -26.4349,-4.38552 C 191.46735,92.836092 191.10311,93.086429 208.25,92.776046 223.5,92.5 223.5,92.5 223.39661,86.942034 222.98955,65.060852 194.52687,62.132526 185.08091,83 175.52296,104.1149 195.51532,126.79745 215,116.94503 Z M 193.42746,88.083333 C 189.43037,84.187141 198.01048,73 204.99579,73 c 5.37314,0 11.95003,11.396187 8.53908,14.796195 -0.74238,0.740008 -19.36992,1.006013 -20.10741,0.287138 z m 98.79904,28.496277 c 5.79908,-2.77807 10.50764,-8.62391 11.3224,-14.05715 1.94596,-12.976605 -3.55382,-19.38113 -22.86491,-26.626277 -17.12596,-6.425329 -16.71542,-25.30671 0.51425,-23.651157 6.98128,0.670813 12.82005,7.212503 15.17775,17.004974 1.60547,6.668116 4.62493,3.395344 4.613,-5 -0.0195,-13.730891 -1.8802,-18.486018 -5.37875,-13.745685 -0.97611,1.322583 -1.60525,1.258669 -5.20774,-0.529054 C 275.49357,42.57677 258.85714,51.291607 258.85714,66.5 c 0,9.53759 4.03018,14.204042 16.82522,19.481551 C 292.14408,92.771441 294,94.445073 294,102.50008 c 0,17.75136 -22.35683,16.79696 -30.73495,-1.31206 -2.81908,-6.093335 -7.51257,-10.418335 -6.44394,-5.93802 0.0984,0.4125 0.17889,5.48912 0.17889,11.28138 0,11.03183 1.45444,14.30278 4.50485,10.1311 1.50815,-2.06251 2.36556,-2.0727 6.36865,-0.0757 6.91046,3.44739 17.14808,3.44438 24.353,-0.007 z m -187.18666,0.40007 c 2.17809,-1.11118 3.96016,-2.46118 3.96016,-3 0,-1.79613 1.81424,-1.01159 4.97884,2.15301 2.92169,2.92169 3.47738,3.09186 8.25035,2.52657 C 129.225,117.83071 131.96632,114 125.56343,114 121.04997,114 120.5,111.88797 120.5,94.55517 c 0,-17.898309 -0.54294,-19.781358 -6.80433,-23.599173 -11.52329,-7.026191 -34.680541,4.916274 -26.124241,13.472574 3.94938,3.949381 9.699087,0.01327 8.727395,-5.974559 -0.712697,-4.391841 0.474009,-5.416928 6.296186,-5.438699 5.4577,-0.02041 7.61206,2.436489 8.18399,9.333304 0.48741,5.877537 1.17359,5.209299 -9.029,8.792939 C 87.298882,96.217482 84,99.258538 84,107.50429 c 0,9.93781 10.693521,14.75368 21.03984,9.47539 z m -9.402858,-5.08757 C 90.702464,104.8471 99.938666,92 109.93807,92 c 2.46617,0 1.27097,16.45499 -1.3758,18.94151 -3.70338,3.47914 -10.789213,4.00027 -12.925288,0.9506 z M 159,115.3301 c 0,-6.23213 16.85228,-39.943238 20.69882,-41.405692 C 184.77928,71.99282 181.64107,70.5 172.5,70.5 c -9.84246,0 -12.03752,1.412915 -6.06922,3.906632 1.96307,0.820223 3.55341,2.076777 3.53408,2.792341 -0.054,1.999633 -10.6733,26.206627 -11.6254,26.500437 -0.65442,0.20195 -7.98435,-16.383872 -11.85734,-26.830231 -0.43972,-1.186022 0.25491,-1.930459 2.54682,-2.729422 5.96055,-2.077859 3.00191,-3.619465 -7.53882,-3.928126 -12.15757,-0.356006 -17.35894,2.098573 -8.92992,4.214121 2.95967,0.742831 4.33958,3.373073 13.52104,25.772428 3.89727,9.50792 7.58659,17.59652 8.19847,17.97469 C 155.8479,119.14206 159,117.24373 159,115.3301 Z m 176.5,2.33526 c 7.10452,-1.84157 7.34513,-5.33271 0.33304,-4.83232 -6.73057,0.48031 -8.79291,-1.84079 -8.95894,-10.08304 -0.58033,-28.808146 -0.94974,-27.221386 6.41289,-27.54569 10.37189,-0.456854 10.34114,-4.953997 -0.037,-5.40862 C 326.5,69.5 326.5,69.5 326.5,62.5 c 0,-11.204693 -8.83647,-11.019658 -9.29269,0.194588 -0.29269,7.194588 -0.29269,7.194588 -4.5,7.5 -6.20945,0.450749 -6.17509,4.163038 0.0427,4.61291 4.25,0.307498 4.25,0.307498 4.25,17.600777 0,25.949265 2.52591,29.397755 18.5,25.257085 z m 43,-0.56521 c 8.83104,-4.09744 13.46777,-12.60011 13.48918,-24.735958 0.0533,-30.187888 -42.99555,-31.465522 -46.48738,-1.379687 -2.29013,19.731915 15.83694,34.078155 32.9982,26.115645 z m -14.23031,-2.56004 C 353.28575,109.68791 352.32039,80.022642 362.96727,74.516927 374.00255,68.810359 381.5,76.894543 381.5,94.5 c 0,15.61613 -7.49958,24.33869 -17.23031,20.04011 z m 60.5476,1.74965 c -0.19904,-1.03351 -1.69257,-1.98904 -3.77447,-2.41484 -6.51412,-1.33228 -9.50097,-27.208881 -3.95452,-34.260041 1.78094,-2.264107 7.68006,-6.226307 8.02572,-5.390559 0.0627,0.151624 0.2688,1.617888 0.45797,3.258364 C 426.46645,85.239262 436,83.883754 436,76 436,68.073959 424.96047,66.717871 418.59501,73.861984 415.93269,76.849974 415,76.535584 415,72.650186 415,69.367972 401.84278,68.063438 398.63713,71.027813 397.44909,72.126436 398.76853,74 400.73028,74 405.40632,74 406,76.304443 406,94.454988 406,112.12487 405.60272,114 401.85902,114 c -2.02452,0 -3.24997,1.55842 -2.35902,3 1.21002,1.95786 25.69881,1.27086 25.31729,-0.71024 z M 236,83.185212 c 0,-0.448133 1.55429,-1.555979 3.45399,-2.461879 2.88713,-1.376776 3.36192,-1.407172 2.89301,-0.185212 C 242.03846,81.342154 242.23538,82 242.7846,82 c 0.54922,0 1.28094,-1.125 1.62604,-2.5 0.34511,-1.375 1.06889,-2.5 1.60841,-2.5 1.75461,0 1.03507,-1.900669 -1.16536,-3.078302 -1.94184,-1.03924 -2.09086,-0.936641 -1.56429,1.076957 0.52586,2.010891 0.29877,2.168978 -2.35369,1.638486 C 238.83261,76.216523 238,76.43799 238,77.418011 c 0,2.490725 -3.08542,2.694795 -5.05456,0.334308 C 230.831,75.217646 230.5242,74 232,74 c 0.55,0 1,-0.752067 1,-1.671259 0,-3.184386 2.89986,-5.219251 6.58553,-4.621149 4.50256,0.730666 4.5092,-1.279638 0.007,-2.124253 -3.12074,-0.585454 -6.31586,0.285865 -12.71458,3.467304 -1.19608,0.594691 -1.92434,0.142973 -2.77324,-1.720153 -0.78779,-1.729004 -1.66188,-2.330664 -2.76887,-1.905874 -0.88971,0.341415 -2.72519,-0.104925 -4.07883,-0.991868 -1.35365,-0.886942 -3.3163,-1.389002 -4.36146,-1.115688 -1.13149,0.295892 -2.28225,-0.173429 -2.84445,-1.160063 -0.85273,-1.496534 -1.16186,-1.441798 -3.19208,0.565225 -2.90089,2.867726 -2.67613,3.019668 6.48131,4.381669 C 222.92957,68.530111 227,71.626498 227,77.494829 c 0,2.851406 0.45553,3.811534 2,4.215422 1.1,0.287656 2,0.920528 2,1.40638 C 231,83.602484 232.125,84 233.5,84 c 1.375,0 2.5,-0.366654 2.5,-0.814788 z m 20.79239,-7.186116 c 0.50692,-4.335918 -2.37662,-7.168585 -3.2499,-3.192565 C 252.67376,76.761839 251,76.998921 251,73.166667 c 0,-3.586202 -0.77825,-4.35571 -3.13148,-3.096299 C 245.62594,71.270558 245.4084,73 247.5,73 c 0.90476,0 1.5,0.925926 1.5,2.333333 0,4.538282 7.26705,5.159161 7.79239,0.665763 z M 192.75047,68.25 C 192.97938,67.5625 192.55418,67 191.80557,67 190.13166,67 187,63.478079 187,61.595558 c 0,-1.665544 1.30521,-2.218862 7.38445,-3.130501 2.55208,-0.382708 4.88617,-1.093908 5.18686,-1.580445 0.99949,-1.617203 -7.55022,-0.915347 -19.82303,1.627299 -12.17065,2.521481 -15.49823,2.301581 -12.8816,-0.85127 0.98997,-1.192845 0.28477,-1.536214 -4.34238,-2.114338 C 153.76913,54.452417 156.99152,52 167.18402,52 c 2.24826,0 3.68075,-0.409793 3.34297,-0.956326 -0.32507,-0.525979 -1.36413,-0.714244 -2.30902,-0.418365 -1.42335,0.445705 -1.38508,0.266722 0.22316,-1.043674 1.06762,-0.869899 3.76762,-1.585546 6,-1.590327 6.62958,-0.0142 14.78917,-1.23094 13.51903,-2.015931 -1.39971,-0.865066 -1.42833,-7.931065 -0.0698,-17.225377 0.37646,-2.575453 6.22539,-0.601481 5.92605,2 -0.25966,2.256725 -0.76485,2.709729 -2.81642,2.525492 -1.45798,-0.130931 -1.87479,0.04089 -1,0.412229 2.79391,1.185991 3.93629,3.79487 3.9682,9.062279 0.0184,3.032476 0.48238,5.25 1.09855,5.25 1.65002,0 8.46681,-6.799771 7.64284,-7.623745 -0.40175,-0.401748 -1.98788,0.474244 -3.52474,1.946647 -4.10396,3.931843 -4.33366,3.553881 -3.99458,-6.572902 C 195.66915,21.448318 184.80875,21.17644 184,35.469864 c -0.5,8.836749 -0.5,8.836749 -8.5,9.251754 -6.78078,0.351757 -8.38934,0.785599 -10.55472,2.846693 -2.15977,2.055764 -3.55112,2.4338 -9,2.445344 C 148.83529,50.028718 145,50.765612 145,52.116631 145,52.602484 146.69175,53 148.75945,53 c 2.67645,0 4.11927,0.576151 5.00848,2 0.91277,1.46158 2.33202,2 5.27193,2 2.95867,0 4.16597,0.462953 4.56368,1.75 1.32591,4.290867 1.98638,4.642657 9.40884,5.011486 5.25261,0.261007 7.6929,0.820784 8.52219,1.954899 0.63911,0.874041 1.58037,1.330612 2.09168,1.014602 0.51132,-0.316009 2.04209,0.286834 3.40171,1.339652 2.6868,2.080511 5.06469,2.155041 5.72251,0.179361 z m 5.31527,-1.285184 c 2.87448,-1.538373 2.37213,-3.121447 -0.56574,-1.782862 -1.375,0.626492 -2.5,1.516844 -2.5,1.978561 0,1.105029 0.72135,1.058982 3.06574,-0.195699 z M 258.77083,54.8125 C 258.15276,52.958277 256,52.65074 256,54.416667 256,55.2875 256.7125,56 257.58333,56 c 0.87084,0 1.40521,-0.534375 1.1875,-1.1875 z M 223.93426,53 C 225.07042,53 226,52.541427 226,51.980948 c 0,-1.397235 -5.12118,-0.10961 -7,1.760017 -1.33122,1.324712 -1.25423,1.367003 0.68426,0.37585 C 220.8856,53.502567 222.7981,53 223.93426,53 Z M 254,53.200888 c 0,-1.856851 -6.85424,-3.351867 -9.21706,-2.010384 -2.38338,1.353157 -2.09087,1.450792 7.96706,2.659302 0.6875,0.08261 1.25,-0.209406 1.25,-0.648918 z m 63.34577,-5.415109 c 0.61175,-2.339343 -0.83987,-3.917141 -2.88268,-3.133242 -0.9285,0.356299 -0.95007,1.046006 -0.0907,2.899677 1.40152,3.023047 2.22694,3.087886 2.97336,0.233565 z m -9.82121,0.02108 c 2.12552,-0.968453 2.78326,-0.926827 3.49268,0.221039 0.48071,0.777802 1.16854,1.119655 1.52852,0.759676 C 313.68555,47.647788 311.96847,46 309.64098,46 308.40844,46 306.86,45.46 306.2,44.8 305.36419,43.964188 305,43.939367 305,44.71821 c 0,0.615016 -0.27314,1.830016 -0.60699,2.7 -0.72758,1.896043 -0.29473,1.949761 3.13155,0.388643 z m -88.97219,-3.641844 c -0.65673,-2.069176 4.37569,-4.244553 10.53586,-4.554364 2.40563,-0.120986 3.49816,-0.701458 3.74641,-1.990502 0.29978,-1.556628 -0.10253,-1.72022 -2.78274,-1.131548 -7.80661,1.714619 -11.88296,-14.21477 -4.74278,-18.533633 4.18536,-2.531586 4.08642,-2.699389 -1.28713,-2.183059 C 220.67739,16.093283 219,15.877954 219,15.127229 c 0,-0.693629 2.21179,-1.166985 5.75,-1.230581 5.72361,-0.102879 5.73279,-0.107924 2,-1.09934 -2.66865,-0.708785 -3.75,-1.544059 -3.75,-2.8966474 0,-2.3025284 1.55189,-2.5107879 2.39219,-0.321024 0.4426,1.1534114 1.37286,1.4112404 3.44764,0.9555424 1.94722,-0.427681 3.24489,-0.138025 4.12327,0.920363 C 233.66809,12.304994 234.89135,13 235.68146,13 c 0.79012,0 1.17739,0.419374 0.8606,0.931942 -0.31678,0.512567 0.66916,1.075067 2.19099,1.25 4.59517,0.52821 4.34984,4.443466 -0.41077,6.555283 -3.70483,1.64347 -3.74018,1.706097 -1.15061,2.038038 2.6077,0.334264 2.65823,0.472762 2.1101,5.783601 C 238.89635,33.293258 239.07775,35 239.8601,35 240.48704,35 241,34.62542 241,34.1676 c 0,-0.45782 2.1375,-1.24532 4.75,-1.75 4.6997,-0.907883 4.75096,-0.959957 4.84108,-4.9176 0.20056,-8.807896 0.38422,-9.924699 1.45591,-8.853009 0.94031,0.940305 1.5612,4.663555 1.85156,11.103009 0.11118,2.465692 2.10145,3.176013 2.10145,0.75 0,-0.825 0.45,-1.5 1,-1.5 1.61696,0 1.17027,5.99743 -0.49426,6.63617 -2.56055,0.982575 -0.58276,2.329234 2.51187,1.710308 2.47842,-0.495683 3.08837,-0.197918 3.88462,1.89637 C 264.03518,42.22273 265.78941,43 271.38179,43 c 2.32001,0 4.64571,0.396447 5.16821,0.880993 1.33912,1.241851 15.15241,2.409531 15.81532,1.336919 0.63508,-1.027583 -12.70445,-3.234214 -19.49288,-3.22452 -5.16793,0.0074 -7.40895,-1.727643 -6.38767,-4.945404 C 267.05693,35.245256 266.70756,35 263.56739,35 260.17082,35 260,34.835741 260,31.569551 c 0,-2.796154 -0.41603,-3.489535 -2.25,-3.75 C 255.74236,27.534421 255.46784,26.8537 255.20141,21.5 254.75471,12.523832 249,8.8119583 249,17.5 c 0,2.475 -0.45,4.5 -1,4.5 -0.55,0 -1,1.747516 -1,3.883369 0,3.145717 -0.41287,3.991335 -2.17354,4.451762 -4.182,1.093616 -5.21669,-2.750717 -2.16941,-8.060292 C 244.51479,19.037911 243.86389,14 241.58794,14 240.83226,14 239.95496,13.325 239.63837,12.5 239.32179,11.675 238.20375,11 237.15383,11 236.10391,11 234.68469,10.325 234,9.5 233.31531,8.675 231.55021,8 230.07756,8 228.6049,8 226.9119,7.5119008 226.31534,6.9153351 224.08661,4.6866116 220.5,6.2673028 220.5,9.4782692 c 0,2.1886708 -0.53024,3.0760438 -2,3.3470648 -1.1,0.202837 -2.40843,0.756044 -2.90762,1.229349 -1.10403,1.046787 1.0978,3.976146 2.75353,3.663346 1.34019,-0.253186 2.66647,21.164302 1.36029,21.966582 C 218.48734,40.433254 216,37.968734 216,36.012414 216,35.053931 215.08255,33.103373 213.96123,31.677842 211.29555,28.288979 208,30.524847 208,35.722241 208,38.333333 207.59322,39 206,39 c -2.39796,0 -2.50986,0.632999 -0.47212,2.670736 C 207.82141,43.96427 210,41.62928 210,36.877555 210,34.168088 210.43409,33 211.44098,33 c 2.13019,0 2.78449,1.626286 2.86747,7.127272 0.0549,3.637867 0.41938,4.80741 1.38304,4.437622 C 216.41117,44.288725 217,44.498646 217,45.031385 217,45.564123 217.48032,46 218.06739,46 c 0.58706,0 0.8053,-0.825743 0.48498,-1.834985 z M 224,44.440983 c 0,-0.857459 -0.45,-1.280902 -1,-0.940983 -0.55,0.339919 -1,1.041476 -1,1.559017 C 222,45.576558 222.45,46 223,46 c 0.55,0 1,-0.701558 1,-1.559017 z m 47,0.513704 c 0,-0.661779 -1.37591,-0.796559 -3.75,-0.36734 C 262.06061,45.525551 261.92067,46 266.83333,46 269.125,46 271,45.529609 271,44.954687 Z m 26,-1.513704 c 0,-0.857459 -0.45,-1.280902 -1,-0.940983 -0.55,0.339919 -1,1.041476 -1,1.559017 C 295,44.576558 295.45,45 296,45 c 0.55,0 1,-0.701558 1,-1.559017 z M 237.57143,40.571429 C 239.61585,38.527004 239.33369,37.751048 237,39 c -1.1,0.588702 -2,1.504535 -2,2.035184 0,1.362342 0.90933,1.198345 2.57143,-0.463755 z"
     id="path1"
     sodipodi:nodetypes="ssssssssssssssssssssssssssssssssssssssssssssssssssssssssssssssssssssssssssssssssssssssssssssssssssssssssssssscsssssssssccssssssssssssscssscsssssssssssssccccsssssssssssccssssssssssssssssssssssssssssssssssssssssssssssssssssssssssssssssssssssssssssssssssssssssssssssssssssssssssscsssssssssssssssccsssssssssssssssssssssssssssssssssssssssssssssssssssssssssssssssssssssssssssssssssssssssssssssssssssssssssssssssssssssssssssssssssssssssssssssssssssssssssssssssssssssssssssssssssssssssssssssssssssssssssssssssssssssssssssssssssssssssssssssssssssssssssssss"
     transform="scale(7.5127202)" />
  <g
     id="g2" />
  <path
     id="rect1"
     style="fill:#ffffff;stroke:#606060;stroke-width:0;stroke-linejoin:round;paint-order:stroke fill markers"
     d="m 208.87593,937.7226 c 117.03264,-0.54172 2947.01217,-0.69432 3059.71187,0 7.1794,0.0442 7.3192,45.71206 0,45.85827 -110.4431,2.20629 -2941.25313,0.13676 -3059.71187,0 -7.60975,-0.009 -8.15774,-45.82051 0,-45.85827 z"
     sodipodi:nodetypes="sssss" />
</svg>
