<?xml version="1.0" encoding="UTF-8" standalone="no"?>
<!-- Created with Inkscape (http://www.inkscape.org/) -->

<svg
   width="1015.7354mm"
   height="144.56834mm"
   viewBox="0 0 1015.7354 144.56834"
   version="1.1"
   id="svg1"
   inkscape:version="1.3.2 (091e20e, 2023-11-25, custom)"
   sodipodi:docname="cdimono1.svg"
   xmlns:inkscape="http://www.inkscape.org/namespaces/inkscape"
   xmlns:sodipodi="http://sodipodi.sourceforge.net/DTD/sodipodi-0.dtd"
   xmlns="http://www.w3.org/2000/svg"
   xmlns:svg="http://www.w3.org/2000/svg">
  <sodipodi:namedview
     id="namedview1"
     pagecolor="#ffffff"
     bordercolor="#000000"
     borderopacity="0.25"
     inkscape:showpageshadow="2"
     inkscape:pageopacity="0.0"
     inkscape:pagecheckerboard="0"
     inkscape:deskcolor="#d1d1d1"
     inkscape:document-units="mm"
     inkscape:zoom="0.40511539"
     inkscape:cx="1782.2083"
     inkscape:cy="307.31985"
     inkscape:window-width="3840"
     inkscape:window-height="2054"
     inkscape:window-x="-11"
     inkscape:window-y="-11"
     inkscape:window-maximized="1"
     inkscape:current-layer="layer1" />
  <defs
     id="defs1" />
  <g
     inkscape:label="Layer 1"
     inkscape:groupmode="layer"
     id="layer1"
     transform="translate(402.96042,-76.2)">
    <g
       id="g10"
       transform="matrix(0.26458333,0,0,0.26458333,-402.96042,76.2)">
	<g
   id="g4">
		<path
   d="m 1093.6,135.3 c -31,0 -93.9,0.3 -94,0 v 273.4 h 76.5 l 0.4,-68.3 h 34.2 c 72.9,0 111.1,-35.2 111.1,-102.5 -0.2,-74.1 -47.9,-102.6 -128.2,-102.6 z m 0,153.7 h -17.1 V 186.6 c 4.6,-0.2 13.1,0 17.1,0 38.6,0 52.6,19.8 52.6,52.9 -0.1,34.3 -12,49.5 -52.6,49.5 z"
   id="path1" />

		<polygon
   points="410.1,246.4 410.1,135.3 487,135.3 487,408.7 410.1,408.7 410.1,297.6 333.2,297.6 333.2,408.7 256.3,408.7 256.3,135.3 333.2,135.3 333.2,246.4 "
   id="polygon1" />

		<polygon
   points="623.7,135.3 623.7,408.7 546.7,408.7 546.7,135.3 615.1,135.3 "
   id="polygon2" />

		<polygon
   points="683.5,135.3 760.3,135.3 760.3,357.5 837.2,357.5 828.1,408.7 683.5,408.7 "
   id="polygon3" />

		<rect
   x="862.90002"
   y="135.3"
   width="76.900002"
   height="273.39999"
   id="rect3" />

		<path
   d="m 1324.2,203.6 v 8.6 c 0,42 128.2,22.7 128.2,111.1 0,66.3 -45.7,85.4 -111.1,85.4 -25.7,0 -67.2,-4.8 -94,-8.5 v -59.8 c 23.6,12.2 68.2,17.1 94,17.1 28.9,0 34.2,-9 34.2,-25.7 0,-47.1 -128.2,-26.8 -128.2,-119.6 0,-53.8 52.7,-76.9 115.9,-76.9 44.8,0 51.7,4.1 72.1,8.6 v 51.2 c -18.2,-7.7 -43.7,-8.5 -68.3,-8.5 -22.6,0 -42.8,2.6 -42.8,17 z"
   id="path3" />

		<path
   d="m 94,135.3 c -31.1,0 -94,0.3 -94,0 v 273.4 h 76.5 l 0.4,-68.3 h 34.2 C 184,340.4 222.2,305.2 222.2,237.9 222.1,163.8 174.3,135.3 94,135.3 Z M 94,289 H 76.9 V 186.6 c 4.6,-0.2 13.1,0 17.1,0 38.6,0 52.6,19.8 52.6,52.9 -0.1,34.3 -12,49.5 -52.6,49.5 z"
   id="path4" />

	</g>

	<g
   id="g9">
		<rect
   x="1539.2"
   width="2299.8"
   height="546.40002"
   id="rect4"
   y="0" />

		<g
   id="g8">
			<rect
   x="3644.3"
   y="215.7"
   class="st0"
   width="87.099998"
   height="184.60001"
   id="rect5"
   style="fill:#ffffff" />

			<rect
   x="3644.3"
   y="126.2"
   class="st0"
   width="87.099998"
   height="62.400002"
   id="rect6"
   style="fill:#ffffff" />

			<path
   class="st0"
   d="m 2197,262.4 c -15.5,-15.3 -59.1,-25.6 -108.3,-25.6 -55.7,0 -115,13.9 -115,39.6 0,25.7 59.2,39.6 115,39.6 55.8,0 115,-13.9 115,-39.5 0,-5 -2.3,-9.7 -6.7,-14.1 z m -108.3,-8.2 c 50.6,0 81.6,12.9 81.6,22.2 0,9 -31.8,22.2 -81.6,22.2 -49.8,0 -81.6,-13.1 -81.6,-22.2 0,-9.3 31,-22.2 81.6,-22.2 z"
   id="path6"
   style="fill:#ffffff" />

			<path
   class="st0"
   d="m 2087.9,420.1 c -118.9,0 -230.8,-14.7 -315,-41.5 -85.9,-27.3 -133.3,-64.3 -133.3,-104.1 0,-39.8 47.3,-76.8 133.3,-104.1 84.2,-26.8 196.1,-41.5 315,-41.5 206.2,0 384.8,44.9 434.4,109.1 l 5.9,7.7 h -111.3 l -1.4,-1.4 c -45.9,-44.2 -177.5,-73.9 -327.6,-73.9 -186.1,0 -343.2,47.7 -343.2,104.1 0,56.4 157.2,104.1 343.2,104.1 150.1,0 281.7,-29.7 327.6,-73.9 l 1.4,-1.4 111.3,-0.2 -5.9,7.7 c -49.5,64.5 -228.2,109.3 -434.4,109.3 z"
   id="path7"
   style="fill:#ffffff" />

			<rect
   x="2557.3999"
   y="133.8"
   class="st0"
   width="87.099998"
   height="273.39999"
   id="rect7"
   style="fill:#ffffff" />

			<polygon
   class="st1"
   points="3587.8,265.6 3351.1,223 3351.1,308.2 "
   id="polygon7"
   style="fill:#e50300" />

			<path
   class="st0"
   d="m 3292.4,270.4 c 0,-86.2 -212.5,-136.7 -452.9,-136.7 h -221.6 v 40.7 h 221.6 c 188.8,0 341.8,39.2 341.8,96 v 0.1 c 0,56.7 -153,96 -341.8,96 h -221.6 v 40.7 h 221.6 c 240.4,0 452.9,-50.4 452.9,-136.7 z"
   id="path8"
   style="fill:#ffffff" />

		</g>

	</g>

</g>
  </g>
</svg>
