<?xml version="1.0" encoding="UTF-8" standalone="no"?>
<!-- Created with Inkscape (http://www.inkscape.org/) -->

<svg
   width="1015.7354mm"
   height="182.45667mm"
   viewBox="0 0 1015.7354 182.45667"
   version="1.1"
   id="svg1"
   inkscape:version="1.3.2 (091e20e, 2023-11-25, custom)"
   sodipodi:docname="channelf.svg"
   xmlns:inkscape="http://www.inkscape.org/namespaces/inkscape"
   xmlns:sodipodi="http://sodipodi.sourceforge.net/DTD/sodipodi-0.dtd"
   xmlns="http://www.w3.org/2000/svg"
   xmlns:svg="http://www.w3.org/2000/svg">
  <sodipodi:namedview
     id="namedview1"
     pagecolor="#ffffff"
     bordercolor="#000000"
     borderopacity="0.25"
     inkscape:showpageshadow="2"
     inkscape:pageopacity="0.0"
     inkscape:pagecheckerboard="0"
     inkscape:deskcolor="#d1d1d1"
     inkscape:document-units="mm"
     inkscape:zoom="0.28645984"
     inkscape:cx="-209.45344"
     inkscape:cy="-301.96205"
     inkscape:window-width="3840"
     inkscape:window-height="2054"
     inkscape:window-x="-11"
     inkscape:window-y="-11"
     inkscape:window-maximized="1"
     inkscape:current-layer="layer1" />
  <defs
     id="defs1" />
  <g
     inkscape:label="Layer 1"
     inkscape:groupmode="layer"
     id="layer1"
     transform="translate(402.96042,-57.15)">
    <g
       id="g28"
       transform="matrix(0.26458333,0,0,0.26458333,-402.96042,57.15)">
	<g
   id="g27">
		<g
   id="g20">
			<g
   id="g2">
				<rect
   x="2222.6001"
   y="94.800003"
   class="st0"
   width="127.4"
   height="502.10001"
   id="rect1"
   style="fill:#ffe000" />

			</g>

			<g
   id="g3">
				<polygon
   class="st0"
   points="2180.5,596.8 2180.5,94.8 2053.3,94.8 2053.3,366 1854.5,94.8 1752.7,94.8 1752.7,596.8 1880,596.8 1880,344.9 2064.7,596.8 "
   id="polygon1"
   style="fill:#ffe000" />

			</g>

			<g
   id="g4">
				<polygon
   class="st0"
   points="1710.7,596.8 1710.7,94.8 1583.4,94.8 1583.4,366 1384.5,94.8 1282.8,94.8 1282.8,596.8 1410,596.8 1410,344.9 1594.8,596.8 "
   id="polygon2"
   style="fill:#ffe000" />

			</g>

			<g
   id="g5">
				<rect
   x="2544.8"
   y="94.800003"
   class="st0"
   width="127.4"
   height="502.10001"
   id="rect3"
   style="fill:#ffe000" />

			</g>

			<g
   id="g6">
				<rect
   x="2248.6001"
   y="286.20001"
   class="st0"
   width="254.2"
   height="127.4"
   id="rect4"
   style="fill:#ffe000" />

			</g>

			<g
   id="g7">
				<rect
   x="2248.6001"
   y="94.800003"
   class="st0"
   width="254.2"
   height="127.4"
   id="rect5"
   style="fill:#ffe000" />

			</g>

			<g
   id="g8">
				<rect
   x="2248.6001"
   y="469.60001"
   class="st0"
   width="254.2"
   height="127.4"
   id="rect6"
   style="fill:#ffe000" />

			</g>

			<g
   id="g9">
				<rect
   x="2560.5"
   y="469.60001"
   class="st0"
   width="254.2"
   height="127.4"
   id="rect7"
   style="fill:#ffe000" />

			</g>

			<g
   id="g17">
				<g
   id="g10">
					<rect
   x="493.79999"
   y="278.10001"
   class="st0"
   width="254.2"
   height="127.3"
   id="rect8"
   style="fill:#ffe000" />

				</g>

				<g
   id="g11">
					<rect
   x="1113.4"
   y="94.800003"
   class="st0"
   width="127.3"
   height="502.10001"
   id="rect9"
   style="fill:#ffe000" />

				</g>

				<g
   id="g12">
					<rect
   x="684.29999"
   y="94.800003"
   class="st0"
   width="127.3"
   height="502.10001"
   id="rect10"
   style="fill:#ffe000" />

				</g>

				<g
   id="g13">
					<rect
   x="414.29999"
   y="94.800003"
   class="st0"
   width="127.4"
   height="502.10001"
   id="rect11"
   style="fill:#ffe000" />

				</g>

				<g
   id="g14">
					<rect
   x="972.70001"
   y="286.20001"
   class="st0"
   width="254.2"
   height="127.3"
   id="rect12"
   style="fill:#ffe000" />

				</g>

				<g
   id="g16">
					<g
   id="g15">
						<polygon
   class="st0"
   points="1155.8,94.8 1013.6,94.8 775.4,596.8 917.6,596.8 "
   id="polygon13"
   style="fill:#ffe000" />

					</g>

				</g>

			</g>

			<g
   id="g19">
				<g
   id="g18">
					<path
   class="st0"
   d="m 372.3,264.8 c -25.8,-34.9 -67.8,-53.6 -111,-53.6 -77.4,0 -129.7,59.4 -129.7,134.9 0,76.8 52.9,132.3 131.7,132.3 41.3,0 82.6,-20 109.1,-51.6 v 151.7 c -42,12.9 -72.3,22.6 -111.6,22.6 C 193,601.1 128.5,575.3 78.2,529.5 24.5,481 0,417.8 0,345.5 0,279 25.2,215.1 71.6,167.5 119.4,118.4 188.4,88.8 256.8,88.8 c 40.6,0 78.1,9 115.5,24.5 z"
   id="path16"
   style="fill:#ffe000" />

				</g>

			</g>

		</g>

		<g
   id="g26">
			<g
   id="g21">
				<path
   class="st1"
   d="m 3827,344.8 c 0,-98.4 -19.8,-188.4 -33.5,-238.8 -7.6,-27.9 -29.1,-49.9 -57,-57.6 C 3632.1,19.4 3468.6,12 3367,12 v 0 c -101.6,0 -265,7.4 -369.5,36.4 -27.8,7.7 -49.4,29.7 -57,57.6 -13.7,50.5 -33.5,140.5 -33.5,238.8 v 0 c 0,98.4 19.8,188.4 33.5,238.8 7.6,27.9 29.1,49.9 57,57.6 104.5,29 267.9,36.4 369.5,36.4 v 0 c 101.6,0 265,-7.4 369.5,-36.4 27.8,-7.7 49.4,-29.7 57,-57.6 13.7,-50.4 33.5,-140.4 33.5,-238.8 z"
   id="path19"
   style="fill:#ffffff" />

				<path
   d="m 3367,689.6 c -56.3,0 -249.4,-2.7 -372.7,-36.8 -31.7,-8.8 -56.7,-34.1 -65.4,-66.1 C 2916.2,540 2895,446.5 2895,344.8 c 0,-101.7 21.2,-195.3 33.9,-242 8.7,-32 33.7,-57.3 65.4,-66.1 C 3117.6,2.7 3310.7,0 3367,0 c 56.3,0 249.5,2.7 372.7,36.8 31.7,8.8 56.7,34.1 65.4,66.1 12.6,46.7 33.9,140.2 33.9,242 0,101.8 -21.2,195.3 -33.9,242 -8.7,32 -33.7,57.3 -65.4,66 -123.1,34.1 -316.4,36.7 -372.7,36.7 z M 3367,24 c -219.5,0 -335.8,27.6 -366.2,36 -23.5,6.5 -42.1,25.4 -48.6,49.2 -12.3,45.5 -33.1,136.7 -33.1,235.7 0,99 20.7,190.2 33.1,235.7 6.4,23.8 25.1,42.7 48.6,49.2 30.4,8.4 146.8,36 366.3,36 219.5,0 335.8,-27.5 366.3,-36 23.5,-6.5 42.1,-25.4 48.6,-49.2 12.3,-45.5 33.1,-136.7 33.1,-235.7 0,-99 -20.7,-190.2 -33.1,-235.7 C 3775.5,85.4 3756.9,66.5 3733.4,60 3702.9,51.6 3586.7,24 3367,24 Z"
   id="path20" />

			</g>

			<g
   id="g25">
				<g
   id="g22">
					<rect
   x="3207.7"
   y="67.199997"
   class="st2"
   width="127.7"
   height="555.29999"
   id="rect20"
   style="fill:#ff001f" />

				</g>

				<g
   id="g23">
					<rect
   x="3271.5"
   y="285"
   class="st2"
   width="254.89999"
   height="127.7"
   id="rect21"
   style="fill:#ff001f" />

				</g>

				<g
   id="g24">
					<rect
   x="3207.7"
   y="67.199997"
   class="st2"
   width="318.70001"
   height="127.7"
   id="rect22"
   style="fill:#ff001f" />

				</g>

			</g>

		</g>

	</g>

</g>
  </g>
</svg>
