<?xml version="1.0" encoding="UTF-8" standalone="no"?>
<!-- Created with Inkscape (http://www.inkscape.org/) -->

<svg
   width="1016mm"
   height="129.80782mm"
   viewBox="0 0 1016 129.80782"
   version="1.1"
   id="svg1"
   inkscape:version="1.3.2 (091e20e, 2023-11-25, custom)"
   sodipodi:docname="coco3.svg"
   xmlns:inkscape="http://www.inkscape.org/namespaces/inkscape"
   xmlns:sodipodi="http://sodipodi.sourceforge.net/DTD/sodipodi-0.dtd"
   xmlns="http://www.w3.org/2000/svg"
   xmlns:svg="http://www.w3.org/2000/svg">
  <sodipodi:namedview
     id="namedview1"
     pagecolor="#ffffff"
     bordercolor="#000000"
     borderopacity="0.25"
     inkscape:showpageshadow="2"
     inkscape:pageopacity="0.0"
     inkscape:pagecheckerboard="0"
     inkscape:deskcolor="#d1d1d1"
     inkscape:document-units="mm"
     inkscape:zoom="0.28645984"
     inkscape:cx="530.61539"
     inkscape:cy="-441.59768"
     inkscape:window-width="3840"
     inkscape:window-height="2054"
     inkscape:window-x="-11"
     inkscape:window-y="-11"
     inkscape:window-maximized="1"
     inkscape:current-layer="layer1" />
  <defs
     id="defs1" />
  <g
     inkscape:label="Layer 1"
     inkscape:groupmode="layer"
     id="layer1"
     transform="translate(402.96042,-83.608333)">
    <g
       id="g20"
       transform="matrix(0.26458333,0,0,0.26458333,-402.96042,83.638021)">
	<g
   id="g5">
		<path
   d="m 2626.2,49.1 v 135.4 h -58 V 49.1 h -80.9 V 2.7 h 219.9 V 49 h -81 z"
   id="path1" />

		<path
   d="m 2955.4,99.5 c -6,10.4 -16.6,12.8 -27.8,14.7 27.5,1.9 31.9,15.3 31.9,40.6 v 29.7 H 2905 c 0,-10.9 0.5,-22.3 -1.6,-33 -2.5,-12 -10.9,-13.1 -21.8,-13.1 h -91 v 46 h -55.3 V 2.7 H 2869 c 9.8,0 19.9,0.3 29.7,0.3 20.7,0.3 43.9,-1.9 56.1,18.5 7.1,11.7 6.5,28.1 6.5,41.1 0.1,12.1 0.3,26.2 -5.9,36.9 z m -72.2,-51.3 h -92.6 v 44.7 h 77.9 c 4.1,0 8.2,-0.3 12.3,-0.3 19.9,-0.5 25.3,-1.1 25.3,-22.9 0,-18.5 -4.7,-21.5 -22.9,-21.5 z"
   id="path2" />

		<path
   d="m 3198.5,172.8 c -13.1,14.2 -41.7,13.6 -59.4,13.9 -14.2,0.5 -28.3,0.5 -42.5,0.5 -23.7,0 -52.3,0.8 -75.5,-4.4 -8.7,-1.9 -16.3,-5.4 -22.6,-11.7 -9.3,-9 -10.4,-20.7 -10.4,-33 0,-4.6 0.3,-9.3 0.5,-13.9 h 53.4 c 0,4.1 0,7.9 1.4,11.7 0.8,2.5 1.9,4.1 4.1,5.7 5.2,4.1 20.7,3.5 26.7,3.5 7.9,0 15.5,0.3 23.4,0.3 9.8,0 19.3,-0.3 29.2,-0.3 6.8,0 24,0.8 28.6,-5.7 1.9,-3 1.9,-7.1 1.9,-10.4 0,-13.9 -10.9,-13.4 -22.1,-13.6 -29.2,-0.8 -58.3,-2.5 -87.5,-3.5 -15.8,-0.5 -36,-1.1 -47.4,-13.9 -9.5,-10.6 -10.4,-25.9 -10.4,-39.5 0,-32.4 8.4,-52.9 43.3,-56.4 23.4,-2.5 47.7,-2.2 71.4,-2.2 22.9,0 47.1,-0.5 69.5,4.9 24.8,6.3 30,22.6 30,46.3 V 60 h -53.7 v -2.7 c 0,-5.2 -0.5,-9 -5.2,-12 -5.2,-3.5 -17.4,-3.3 -23.4,-3.3 h -47.1 c -5.7,0 -21.8,-0.3 -26.7,3.3 -3.5,2.5 -4.4,6.8 -4.4,10.9 0,3.3 0.8,7.6 3.5,9.8 1.9,1.6 4.6,2.2 7.1,2.5 6.3,1.1 12.8,1.1 19.1,1.4 12.3,0.5 24.5,1.1 36.8,1.4 21,0.5 51,0.3 71.4,5.7 6.5,1.9 12.3,4.6 17.4,9.3 11.2,9.8 11.7,28.6 11.7,42.2 0.1,15.1 -1.2,32.6 -12.1,44.3 z"
   id="path3" />

		<path
   d="m 3564.5,175.5 c -18,13.1 -61.3,11.2 -82.8,11.2 h -24.8 c -22.3,0 -59.1,1.6 -78.2,-11.2 -12.8,-8.7 -13.9,-26.2 -13.9,-40.3 0,-12 1.1,-24.8 9.8,-33.8 6.5,-6.8 16.6,-8.2 25.6,-9.8 -4.1,-0.3 -8.4,-0.5 -12.5,-1.6 -18.3,-4.9 -20.7,-22.9 -20.7,-39.2 0,-26.4 7.9,-42 35.4,-46.3 22.6,-3.5 46.3,-3.8 69.2,-3.8 12.5,0 25.1,0.3 37.6,0.8 16.1,0.8 39,1.4 52.6,10.6 12.5,8.4 14.4,25.6 14.4,39.5 0,10.6 -1.4,22.9 -8.4,31.1 -6.5,7.6 -15.3,8.4 -24.8,9 9.8,1.6 18.3,2.7 25.6,9.8 9.5,9 9.8,24.8 9.8,37.1 0,13.5 -1.9,28.4 -13.9,36.9 z m -42.2,-59.1 c -4.1,-4.1 -19.1,-3.8 -24.3,-3.8 -9.8,-0.3 -19.6,-0.5 -29.4,-0.5 -9,0 -40.9,-0.8 -46.9,3.5 -4.1,3 -4.1,9.8 -4.1,14.4 0,4.1 0.3,8.7 3.5,11.7 6.3,5.5 39.8,4.1 47.7,4.1 9.5,0 19.1,-0.3 28.6,-0.5 6.8,0 23.2,0.8 26.7,-7.1 1.4,-3 1.4,-7.1 1.4,-10.4 0,-3.8 -0.2,-8.7 -3.2,-11.4 z M 3498,42 c -10.9,-0.3 -21.5,-0.5 -32.4,-0.5 -11.2,0 -22.9,-0.3 -34.1,1.4 -9.3,1.4 -11.7,6.3 -11.7,15.3 0,9.5 3.3,12.8 12.5,13.9 19.3,1.9 40.1,1.1 59.4,1.1 6.3,0 24.5,0 28.9,-4.4 2.7,-2.7 2.7,-7.9 2.7,-11.4 0,-16 -12.8,-15.2 -25.3,-15.4 z"
   id="path4" />

		<path
   d="m 3799.4,183.4 c -21.8,3.5 -51.2,3.3 -73.3,3.3 -13.6,0 -27,-0.3 -40.6,-0.5 -30,-0.5 -64.8,-1.6 -71.4,-37.9 -3,-16.9 -2.2,-37.3 -2.2,-54.5 0,-10.9 0,-21.5 0.3,-32.4 0.3,-15.3 1.4,-32.7 12.5,-44.4 7.4,-7.6 17.7,-11.4 28.1,-13.1 21.8,-3.5 51,-3.3 73.3,-3.3 13.4,0 27,0.5 40.3,0.8 46.6,1.1 73.6,6 73.6,59.9 v 64.8 c 0,30.3 -7.6,51.8 -40.6,57.3 z M 3773,51.2 c -6.3,-2.7 -15.5,-3 -22.3,-3 -10.9,0 -21.8,-0.3 -33,-0.3 -11.2,0 -23.4,-0.3 -34.3,2.2 -3.3,0.8 -6.5,1.9 -9,4.6 -7.4,7.6 -6.8,29.2 -6.8,39 0,9 -0.5,30.2 5.7,37.6 2.7,3.3 6,4.6 10.1,5.7 11.7,2.7 31.1,2.7 43.3,2.5 l 24,-0.5 c 6.8,-0.3 16.1,-0.3 22.3,-3.3 13.6,-6 11.7,-30 11.7,-42 0,-11.9 1.9,-36.2 -11.7,-42.5 z"
   id="path5" />

		<rect
   x="3249.1001"
   y="95.800003"
   width="72.300003"
   height="48.200001"
   id="rect5" />

	</g>

	<g
   id="g9">
		<path
   class="st11"
   d="m 3313,490.5 h -298.7 c -29.3,0 -53,-23.7 -53,-53 V 337 c 0,-29.3 23.7,-53 53,-53 H 3313 c 29.3,0 53,23.7 53,53 v 100.5 c 0,29.3 -23.8,53 -53,53 z"
   id="path6"
   style="fill:#1aaa4b" />

		<g
   id="g8">
			<path
   class="st10"
   d="m 2838.9,490.5 h -298.7 c -29.3,0 -53,-23.7 -53,-53 V 337 c 0,-29.3 23.7,-53 53,-53 h 298.7 c 29.3,0 53,23.7 53,53 v 100.5 c 0,29.3 -23.7,53 -53,53 z"
   id="path7"
   style="fill:#dd243c" />

			<path
   class="st12"
   d="m 3787,490.5 h -298.7 c -29.3,0 -53,-23.7 -53,-53 V 337 c 0,-29.3 23.7,-53 53,-53 H 3787 c 29.3,0 53,23.7 53,53 v 100.5 c 0,29.3 -23.7,53 -53,53 z"
   id="path8"
   style="fill:#1094d2" />

		</g>

	</g>

	<g
   id="g19">
		<path
   d="M 2364.9,490.5 H 53 c -29.3,0 -53,-23.7 -53,-53 V 53 C 0,23.7 23.7,0 53,0 h 2311.9 c 29.3,0 53,23.7 53,53 v 384.6 c 0,29.2 -23.7,52.9 -53,52.9 z"
   id="path9" />

		<g
   id="g18">
			<rect
   x="795.79999"
   y="162.2"
   class="st43"
   width="88.599998"
   height="222.3"
   id="rect9"
   style="fill:#ffffff" />

			<path
   class="st43"
   d="m 1264,194.4 v 71.2 c 0,16.7 -13.6,30.3 -30.3,30.3 h -24.5 v 88.6 h 46.3 c 53.6,0 97.1,-43.5 97.1,-97.1 v -71.2 c 0,-16.7 13.6,-30.3 30.3,-30.3 h 24.5 V 97.3 H 1361 c -53.6,0 -97,43.5 -97,97.1 z"
   id="path10"
   style="fill:#ffffff" />

			<path
   class="st43"
   d="M 1503.9,162.2 V 97.3 h -88.6 v 287.2 h 88.6 V 244.3 c 0,-6.6 5.3,-11.9 11.9,-11.9 v 0 c 6.6,0 11.9,5.3 11.9,11.9 v 140.2 h 88.6 V 225.6 c 0,-35 -28.4,-63.5 -63.5,-63.5 h -48.9 z"
   id="path11"
   style="fill:#ffffff" />

			<path
   class="st43"
   d="m 2305.6,384.5 -48.9,-128.3 43.2,-66 h -93.5 l -39.5,60.3 v 0 -153.2 h -70.2 v 287.2 h 70.2 v -60.4 c 0,-11.2 15.5,-14.1 19.5,-3.6 l 24.4,64 z"
   id="path12"
   style="fill:#ffffff" />

			<path
   class="st43"
   d="m 691.2,97.3 v 64.8 H 658 c -61.4,0 -111.2,49.8 -111.2,111.2 0,61.4 49.8,111.2 111.2,111.2 h 33.2 33.1 47.8 V 97.3 Z m -31.7,244.2 c -19.6,0 -35.5,-15.9 -35.5,-35.5 0,-19.6 15.9,-35.5 35.5,-35.5 19.6,0 35.5,15.9 35.5,35.5 -0.1,19.6 -16,35.5 -35.5,35.5 z"
   id="path13"
   style="fill:#ffffff" />

			<path
   class="st43"
   d="M 470.7,162.2 H 353.5 v 70.2 H 424 c 5.1,0 9.2,4.1 9.2,9.2 v 0 c 0,5.1 -4.1,9.2 -9.2,9.2 h -26.3 c -36.4,0 -67.2,28.6 -68.2,65 -1,37.8 29.3,68.7 66.8,68.7 h 36.9 12.4 64.8 11.4 12.4 V 225.6 c -0.1,-35 -28.5,-63.4 -63.5,-63.4 z M 423,341.5 c -19.6,0 -35.5,-15.9 -35.5,-35.5 0,-19.6 15.9,-35.5 35.5,-35.5 19.6,0 35.5,15.9 35.5,35.5 -0.1,19.6 -15.9,35.5 -35.5,35.5 z"
   id="path14"
   style="fill:#ffffff" />

			<path
   class="st43"
   d="m 1770.3,162.2 h -117.2 v 70.2 h 70.5 c 5.1,0 9.2,4.1 9.2,9.2 v 0 c 0,5.1 -4.1,9.2 -9.2,9.2 h -26.3 c -36.4,0 -67.2,28.6 -68.2,65 -1,37.8 29.3,68.7 66.8,68.7 h 36.9 12.4 64.8 11.4 12.4 V 225.6 c -0.1,-35 -28.5,-63.4 -63.5,-63.4 z m -47.7,179.3 c -19.6,0 -35.5,-15.9 -35.5,-35.5 0,-19.6 15.9,-35.5 35.5,-35.5 19.6,0 35.5,15.9 35.5,35.5 -0.1,19.6 -16,35.5 -35.5,35.5 z"
   id="path15"
   style="fill:#ffffff" />

			<path
   class="st43"
   d="m 279,262.6 c 32.9,-11.7 56.5,-43.2 56.5,-80.2 0,-47 -38.1,-85.1 -85.1,-85.1 -1.7,0 -130.5,0 -130.5,0 v 287.2 h 80.8 v -55.4 c 0,-10.2 13.9,-13.3 18.2,-4.1 l 27.9,59.4 h 89.3 z m -64.4,21 c -19.6,0 -35.5,-15.9 -35.5,-35.5 0,-19.6 15.9,-35.5 35.5,-35.5 19.6,0 35.5,15.9 35.5,35.5 0,19.6 -16,35.5 -35.5,35.5 z"
   id="path16"
   style="fill:#ffffff" />

			<path
   class="st43"
   d="m 1018.1,153.5 c -66.2,0 -119.8,53.7 -119.8,119.8 0,66.1 53.7,119.8 119.8,119.8 66.2,0 119.8,-53.7 119.8,-119.8 0,-66.1 -53.6,-119.8 -119.8,-119.8 z m 0,188 c -19.6,0 -35.5,-15.9 -35.5,-35.5 0,-19.6 15.9,-35.5 35.5,-35.5 19.6,0 35.5,15.9 35.5,35.5 0,19.6 -15.9,35.5 -35.5,35.5 z"
   id="path17"
   style="fill:#ffffff" />

			<path
   class="st43"
   d="m 1999.5,318.7 c -5.1,13.3 -18,22.7 -33.1,22.7 -19.6,0 -35.5,-15.9 -35.5,-35.5 0,-19.6 15.9,-35.5 35.5,-35.5 15.1,0 27.9,9.4 33.1,22.7 h 85.1 c 1.1,-6.5 1.7,-13.1 1.7,-19.9 0,-66.2 -53.7,-119.8 -119.8,-119.8 -66.2,0 -119.8,53.7 -119.8,119.8 0,66.1 53.7,119.8 119.8,119.8 50.1,0 93,-30.8 110.9,-74.4 h -77.9 z"
   id="path18"
   style="fill:#ffffff" />

		</g>

	</g>

</g>
  </g>
</svg>
