<?xml version="1.0" encoding="UTF-8" standalone="no"?>
<!-- Created with Inkscape (http://www.inkscape.org/) -->

<svg
   width="1015.7354mm"
   height="275.80322mm"
   viewBox="0 0 1015.7354 275.80322"
   version="1.1"
   id="svg1"
   inkscape:version="1.3.2 (091e20e, 2023-11-25, custom)"
   sodipodi:docname="daphne.svg"
   xmlns:inkscape="http://www.inkscape.org/namespaces/inkscape"
   xmlns:sodipodi="http://sodipodi.sourceforge.net/DTD/sodipodi-0.dtd"
   xmlns="http://www.w3.org/2000/svg"
   xmlns:svg="http://www.w3.org/2000/svg">
  <sodipodi:namedview
     id="namedview1"
     pagecolor="#ffffff"
     bordercolor="#000000"
     borderopacity="0.25"
     inkscape:showpageshadow="2"
     inkscape:pageopacity="0.0"
     inkscape:pagecheckerboard="0"
     inkscape:deskcolor="#d1d1d1"
     inkscape:document-units="mm"
     inkscape:zoom="0.28645984"
     inkscape:cx="1075.1943"
     inkscape:cy="36.654353"
     inkscape:window-width="3840"
     inkscape:window-height="2054"
     inkscape:window-x="-11"
     inkscape:window-y="-11"
     inkscape:window-maximized="1"
     inkscape:current-layer="layer1" />
  <defs
     id="defs1" />
  <g
     inkscape:label="Layer 1"
     inkscape:groupmode="layer"
     id="layer1"
     transform="translate(402.96042,-10.583334)">
    <g
       id="g50"
       transform="matrix(0.26458333,0,0,0.26458333,-402.96042,10.584879)">
	<g
   id="g44">
		<path
   class="st89"
   d="m 223.9,1013.6 -61,17.7 c -1.2,0.3 -2.4,0.7 -3.7,1 -1.3,0.3 -2.6,0.6 -4,0.9 -1.4,0.3 -2.8,0.6 -4.2,0.8 -1.4,0.3 -2.9,0.5 -4.5,0.8 l 61.6,-17.8 c 1.5,-0.2 2.9,-0.5 4.3,-0.7 1.4,-0.3 2.8,-0.5 4.1,-0.8 1.3,-0.3 2.6,-0.6 3.8,-0.9 1.2,-0.3 2.4,-0.6 3.6,-1 z"
   id="path1"
   style="fill:#70572b" />

		<path
   class="st89"
   d="M 2676.1,928.1 2649.8,914 c 0,-0.5 0.1,-0.9 0.1,-1.4 0,-0.5 0.1,-0.9 0.1,-1.4 0,-0.5 0.1,-0.9 0.1,-1.4 0,-0.5 0.1,-0.9 0.1,-1.4 l 26.3,13.9 c 0,0.5 -0.1,1 -0.1,1.5 0,0.5 -0.1,1 -0.1,1.5 0,0.5 -0.1,1 -0.1,1.5 0,0.5 -0.1,0.9 -0.1,1.3 z"
   id="path2"
   style="fill:#70572b" />

		<path
   class="st89"
   d="m 2438.3,915 -18,-13.7 c 0,-0.5 0,-0.9 0.1,-1.4 0,-0.5 0,-0.9 0.1,-1.4 0,-0.5 0,-0.9 0.1,-1.4 0.1,-0.5 0,-0.9 0.1,-1.4 l 18,13.5 c 0,0.5 0,1 -0.1,1.5 0,0.5 0,1 -0.1,1.5 0,0.5 0,1 -0.1,1.5 0,0.4 0,0.8 -0.1,1.3 z"
   id="path3"
   style="fill:#70572b" />

		<path
   class="st89"
   d="m 1348.2,892.6 -20.6,13.4 c -1.9,1.3 -4,2.4 -6.1,3.4 -2.2,1 -4.4,1.9 -6.7,2.7 -2.3,0.8 -4.8,1.4 -7.3,1.8 -2.5,0.5 -5.1,0.8 -7.7,0.9 l 21.5,-13.7 c 2.5,-0.1 5,-0.4 7.4,-0.9 2.4,-0.4 4.8,-1 7,-1.8 2.3,-0.7 4.4,-1.6 6.5,-2.6 2.1,-0.8 4.1,-1.9 6,-3.2 z"
   id="path4"
   style="fill:#70572b" />

		<path
   class="st89"
   d="m 2107.1,905 -6.5,-13.3 c 0,-0.5 0,-0.9 0,-1.4 0,-0.5 0,-0.9 0,-1.4 0,-0.5 0,-0.9 0,-1.4 0,-0.5 0,-0.9 0,-1.4 l 6.5,13.1 c 0,0.5 0,1 0,1.5 0,0.5 0,1 0,1.5 0,0.5 0,1 0,1.5 0,0.5 0,0.8 0,1.3 z"
   id="path5"
   style="fill:#70572b" />

		<path
   class="st89"
   d="m 2796.8,927.2 -30.5,-14.1 c 1.4,0.7 2.9,1.3 4.5,1.8 1.5,0.5 3.1,1 4.7,1.5 1.6,0.4 3.3,0.8 4.9,1.1 1.7,0.3 3.4,0.5 5.1,0.6 l 31.2,14.3 c -1.8,-0.1 -3.6,-0.4 -5.3,-0.7 -1.7,-0.3 -3.5,-0.7 -5.1,-1.1 -1.7,-0.4 -3.3,-0.9 -4.9,-1.5 -1.5,-0.6 -3.1,-1.2 -4.6,-1.9 z"
   id="path6"
   style="fill:#70572b" />

		<path
   class="st89"
   d="m 1581.9,876 -12.1,12.8 c -2.2,2.3 -4.6,4.4 -7.4,6.2 -2.7,1.9 -5.7,3.5 -8.8,4.9 -3.2,1.4 -6.5,2.5 -10.1,3.2 -3.5,0.8 -7.2,1.3 -11,1.4 l 13.4,-13.3 c 3.7,-0.1 7.2,-0.6 10.6,-1.3 3.4,-0.7 6.6,-1.8 9.7,-3.1 3.1,-1.3 5.9,-2.9 8.5,-4.7 2.7,-1.9 5.1,-3.9 7.2,-6.1 z"
   id="path7"
   style="fill:#70572b" />

		<path
   class="st89"
   d="m 2624.9,913.5 -24.5,-13.6 c 1.7,0.9 3.5,1.8 5.3,2.6 1.8,0.8 3.8,1.4 5.7,2 1.9,0.6 4,1 6.1,1.4 2.1,0.4 4.2,0.6 6.4,0.8 l 25.3,13.9 c -2.2,-0.1 -4.5,-0.4 -6.6,-0.8 -2.1,-0.4 -4.3,-0.9 -6.3,-1.5 -2,-0.6 -4,-1.3 -5.9,-2.1 -1.9,-0.8 -3.8,-1.7 -5.5,-2.7 z"
   id="path8"
   style="fill:#70572b" />

		<path
   class="st89"
   d="m 2281.2,889.2 -12.6,-12.8 c 2.1,2.1 4.5,4.1 7.1,5.8 2.6,1.7 5.4,3.3 8.4,4.5 3,1.3 6.2,2.3 9.5,3 3.3,0.7 6.8,1.2 10.4,1.3 l 13.8,13.3 c -3.7,-0.1 -7.3,-0.6 -10.8,-1.3 -3.5,-0.8 -6.8,-1.8 -9.9,-3.1 -3.1,-1.3 -6,-2.9 -8.7,-4.7 -2.5,-1.8 -5,-3.8 -7.2,-6 z"
   id="path9"
   style="fill:#70572b" />

		<path
   class="st89"
   d="m 3589.4,547 -58,-0.9 c 2.9,-2 4.8,-4.5 5.7,-7.2 0.9,-2.6 0.9,-5.4 0,-8.1 -0.9,-2.6 -2.7,-5 -5.2,-6.9 -2.6,-1.9 -5.9,-3.3 -9.9,-3.9 -13.9,-1.9 -27.8,-3.9 -41.7,-5.8 -13.9,-1.9 -27.8,-3.8 -41.7,-5.6 -13.9,-1.8 -27.8,-3.7 -41.8,-5.4 -13.9,-1.8 -27.8,-3.5 -41.8,-5.3 l 51.6,-0.8 c 14.4,1.8 28.8,3.6 43.3,5.5 14.5,1.9 28.8,3.7 43.3,5.6 14.4,1.9 28.8,3.8 43.2,5.8 14.4,2 28.8,3.9 43.2,6 4.2,0.6 7.6,2 10.3,4 2.6,2 4.5,4.5 5.4,7.2 0.9,2.7 1,5.6 0,8.3 -1,2.7 -2.9,5.4 -5.9,7.5 z"
   id="path10"
   style="fill:#70572b" />

		<path
   class="st89"
   d="m 1323.7,420.4 20.7,3.5 c -12.7,0.6 -25.4,1.3 -38.1,2 -12.7,0.7 -25.4,1.4 -38.1,2.1 -12.7,0.7 -25.4,1.5 -38.1,2.2 -12.7,0.8 -25.4,1.6 -38.1,2.4 -9.3,0.6 -16.9,2.6 -23.1,5.3 -6.2,2.7 -11,6.1 -14.6,9.4 -3.6,3.3 -6,6.5 -7.6,9 -1.6,2.5 -2.2,4 -2.2,4 l -27.9,-2.2 c 0,0 0.7,-1.6 2.3,-4.1 1.6,-2.5 4.1,-5.9 7.9,-9.3 3.7,-3.4 8.7,-6.9 15.1,-9.7 6.4,-2.8 14.3,-4.9 23.9,-5.5 13.2,-0.8 26.3,-1.7 39.5,-2.4 13.2,-0.8 26.3,-1.6 39.5,-2.3 13.2,-0.7 26.3,-1.5 39.5,-2.2 13.1,-0.9 26.3,-1.5 39.4,-2.2 z"
   id="path11"
   style="fill:#70572b" />

		<path
   class="st89"
   d="m 2438.6,909.2 -18,-13.5 c 0.2,0 0.4,0 0.7,0 0.2,0 0.4,0 0.7,0 0.2,0 0.4,0 0.7,0 0.3,0 0.4,0 0.7,0 6.2,0 12.1,-1 17.6,-2.8 5.4,-1.8 10.3,-4.4 14.5,-7.7 4.2,-3.3 7.6,-7.1 10.1,-11.5 2.5,-4.4 3.9,-9.2 4.2,-14.3 1.8,-36.4 3.6,-72.7 5.3,-109.1 1.8,-36.4 3.6,-72.7 5.3,-109.1 1.8,-36.4 3.6,-72.7 5.3,-109.1 1.8,-36.4 3.6,-72.7 5.3,-109.1 l 20.6,-3.5 c -1.8,37.7 -3.7,75.4 -5.5,113 -1.8,37.7 -3.7,75.4 -5.5,113 -1.8,37.7 -3.7,75.4 -5.5,113 -1.8,37.7 -3.7,75.4 -5.5,113 -0.3,5.3 -1.8,10.3 -4.3,14.8 -2.5,4.5 -6.1,8.5 -10.4,11.9 -4.3,3.4 -9.4,6.1 -15,7.9 -5.6,1.9 -11.8,2.9 -18.2,2.9 -0.2,0 -0.5,0 -0.7,0 -0.2,0 -0.5,0 -0.7,0 -0.2,0 -0.5,0 -0.7,0 -0.2,0 -0.8,0.2 -1,0.2 z"
   id="path12"
   style="fill:#70572b" />

		<path
   class="st89"
   d="m 2511.5,419.5 -20.6,3.5 c -18.3,-0.9 -36.6,-1.7 -54.9,-2.6 -18.3,-0.8 -36.6,-1.6 -54.9,-2.3 -18.3,-0.7 -36.6,-1.4 -54.9,-2 -18.3,-0.6 -36.6,-1.2 -54.9,-1.8 l 12.7,-3.8 c 19,0.6 37.9,1.2 56.9,1.8 19,0.7 37.9,1.4 56.9,2.1 19,0.7 37.9,1.5 56.9,2.4 19,0.9 37.8,1.8 56.8,2.7 z"
   id="path13"
   style="fill:#70572b" />

		<path
   class="st89"
   d="m 1959.2,394.5 -1.4,4.4 c -18.9,5.6 -37.7,11.2 -56.5,16.9 -18.8,5.7 -37.6,11.4 -56.3,17.2 -18.8,5.8 -37.5,11.6 -56.2,17.5 -18.7,5.9 -37.4,11.8 -56,17.8 l -6.7,-1.9 c 19.3,-6.2 38.7,-12.3 58,-18.4 19.4,-6.1 38.8,-12.1 58.2,-18.1 19.4,-6 38.9,-11.9 58.4,-17.8 19.5,-5.9 39,-11.8 58.5,-17.6 z"
   id="path14"
   style="fill:#70572b" />

		<path
   class="st89"
   d="M 2998.5,997.9 2961,981.3 c 34.4,-38.1 60.1,-76.8 78.5,-115.4 18.4,-38.6 29.3,-77.2 34.1,-115 4.8,-37.8 3.4,-74.7 -2.8,-110.1 -6.2,-35.4 -17.5,-69.3 -32.4,-100.9 -14.7,-31.6 -33.1,-60.9 -53.7,-87.2 -20.6,-26.3 -43.3,-49.5 -66.7,-69 -23.4,-19.5 -47.4,-35.2 -70.4,-46.3 -23.1,-11.2 -45.3,-17.8 -65,-19.1 l 31.1,-7.3 c 20.4,1.4 43.4,8.2 67.3,19.8 23.9,11.6 48.8,27.8 73,48 24.2,20.2 47.8,44.3 69.1,71.5 21.3,27.2 40.4,57.6 55.6,90.3 15.5,32.7 27.1,67.8 33.6,104.5 6.5,36.7 7.9,75 2.9,114.1 -5,39.1 -16.3,79.1 -35.4,119.1 -19,40.1 -45.7,80.2 -81.3,119.6 z"
   id="path15"
   style="fill:#70572b" />

		<path
   class="st89"
   d="m 3514.2,313.3 57.4,-7.5 c 2,-0.3 4.1,-0.5 6.2,-0.7 2.1,-0.2 4.2,-0.4 6.3,-0.5 2.1,-0.1 4.3,-0.2 6.5,-0.3 2.2,-0.1 4.4,-0.1 6.6,-0.1 2.7,0 5.4,0 8.1,0.1 2.7,0.1 5.5,0.3 8.3,0.5 2.8,0.2 5.6,0.5 8.5,0.8 2.9,0.3 5.7,0.7 8.6,1.1 32.3,4.6 55.4,14.7 71.8,27.1 16.4,12.4 26.2,27.3 31.9,41.6 5.7,14.3 7.4,28 7.6,38.1 0.2,10.1 -0.9,16.7 -0.9,16.7 l -63.3,3.2 c 0,0 1.1,-6.3 0.9,-16.1 -0.2,-9.8 -1.9,-23 -7.4,-36.8 -5.5,-13.8 -14.9,-28.1 -30.8,-40.2 -15.8,-12 -38.1,-21.7 -69.3,-26.2 -2.8,-0.4 -5.6,-0.7 -8.3,-1 -2.8,-0.3 -5.5,-0.5 -8.2,-0.7 -2.7,-0.2 -5.4,-0.3 -8,-0.4 -2.6,-0.1 -5.2,-0.1 -7.8,-0.1 -2.1,0 -4.3,0 -6.4,0.1 -2.1,0.1 -4.2,0.2 -6.2,0.3 -2.1,0.1 -4.1,0.3 -6.1,0.5 -2,0.2 -4,0.2 -6,0.5 z"
   id="path16"
   style="fill:#70572b" />

		<path
   class="st89"
   d="m 3816.8,300 -65.9,7.7 c 2.7,-0.3 5.4,-1.1 7.9,-2 2.5,-1 4.8,-2.1 6.7,-3.3 2,-1.2 3.6,-2.3 4.8,-3.1 1.2,-0.9 1.9,-1.5 2,-1.6 l 66.7,-8 c -0.1,0.1 -0.9,0.8 -2.1,1.7 -1.2,0.9 -2.9,2.1 -4.9,3.3 -2,1.2 -4.4,2.4 -7,3.4 -2.6,1 -5.3,1.6 -8.2,1.9 z"
   id="path17"
   style="fill:#70572b" />

		<path
   class="st89"
   d="m 2767.4,306.9 c -0.5,-2.9 -1.4,-5.6 -2.9,-8.1 -1.5,-2.5 -3.5,-4.7 -6.3,-6.7 -2.7,-2 -6.2,-3.8 -10.4,-5.4 -2.8,-1.1 -5.8,-2.1 -8.9,-3 -3.1,-0.8 -6.4,-1.6 -9.9,-2.1 -3.5,-0.6 -7.1,-1 -10.9,-1.3 -3.8,-0.3 -7.8,-0.4 -12,-0.4 l -27.3,8.4 c 4,0 7.9,0.1 11.6,0.4 3.7,0.3 7.2,0.7 10.6,1.2 3.4,0.5 6.5,1.2 9.6,2.1 3,0.8 5.9,1.8 8.6,2.9 4.1,1.5 7.4,3.3 10.1,5.2 2.6,1.9 4.6,4.1 6,6.5 1.4,2.4 2.3,5 2.8,7.8 0.5,2.8 0.5,5.9 0.3,9.1 -3.2,45.8 -6.4,91.6 -9.6,137.4 -3.2,45.8 -6.4,91.6 -9.6,137.4 -3.2,45.8 -6.4,91.6 -9.6,137.4 -3.2,45.8 -6.4,91.6 -9.6,137.4 -0.4,5 -1.9,9.7 -4.4,14 -2.5,4.2 -5.9,8 -10,11.2 -4.1,3.1 -9,5.7 -14.3,7.4 -5.3,1.7 -11.1,2.7 -17.2,2.7 -0.3,0 -0.6,0 -0.9,0 -0.3,0 -0.6,0 -1,0 -0.3,0 -0.6,0 -1,0 -0.4,0 -0.6,0 -1,-0.1 l 26.3,13.9 c 0.3,0 0.7,0 1,0.1 0.3,0 0.7,0 1,0 0.3,0 0.7,0 1,0 0.3,0 0.7,0 1,0 6.3,0 12.3,-1 17.8,-2.8 5.5,-1.8 10.5,-4.4 14.8,-7.7 4.3,-3.3 7.8,-7.2 10.4,-11.6 2.6,-4.4 4.1,-9.3 4.5,-14.5 3.3,-47.5 6.6,-94.9 9.9,-142.4 3.3,-47.5 6.6,-94.9 9.9,-142.4 3.3,-47.5 6.6,-94.9 9.9,-142.4 3.3,-47.5 6.6,-94.9 9.9,-142.4 0.3,-3.1 0.3,-6.3 -0.2,-9.2 z"
   id="path18"
   style="fill:#70572b" />

		<path
   class="st89"
   d="m 1555.3,262.9 12.6,9 c -0.9,-0.7 -2,-1.3 -3.2,-1.8 -1.2,-0.5 -2.4,-1 -3.8,-1.4 -1.4,-0.4 -2.8,-0.7 -4.4,-0.9 -1.6,-0.2 -3.2,-0.3 -5,-0.3 -1.9,0 -4,0.1 -6.2,0.4 -2.2,0.3 -4.5,0.7 -6.9,1.3 -2.4,0.6 -5,1.3 -7.7,2.2 -2.7,0.9 -5.5,2 -8.5,3.3 l -14.3,-8.9 c 3.1,-1.3 6,-2.5 8.8,-3.4 2.8,-1 5.5,-1.7 8,-2.3 2.5,-0.6 4.9,-1 7.2,-1.3 2.3,-0.3 4.4,-0.4 6.4,-0.4 1.8,0 3.6,0.1 5.2,0.3 1.6,0.2 3.1,0.5 4.5,0.9 1.4,0.4 2.7,0.9 3.9,1.5 1.3,0.5 2.4,1.1 3.4,1.8 z"
   id="path19"
   style="fill:#70572b" />

		<path
   class="st89"
   d="m 2117.4,253.6 -6.9,9.3 c -1.8,1.8 -12.3,11.2 -27,24.2 -14.7,13.1 -33.6,29.8 -52.2,46.3 -18.6,16.5 -37.1,32.9 -50.8,45.1 -13.7,12.2 -22.7,20.3 -22.6,20.4 l 1.4,-4.4 c -0.1,-0.1 9.2,-8.5 23.4,-21.1 14.2,-12.6 33.3,-29.5 52.6,-46.7 19.3,-17.2 38.9,-34.5 54.1,-48 15.2,-13.5 26.1,-23.2 28,-25.1 z"
   id="path20"
   style="fill:#70572b" />

		<path
   class="st89"
   d="m 3623,1025.3 -59.2,-17.5 c -47.7,-14.1 -94.8,-34.2 -138.2,-61.6 -43.4,-27.4 -83.1,-62 -115.6,-105.1 -32.6,-43.1 -58.1,-94.7 -73.3,-156 -15.2,-61.3 -20,-132.4 -11.2,-214.5 2.6,-23.2 7.4,-44.4 13.6,-63.6 6.2,-19.1 13.8,-36.2 21.9,-51 8.1,-14.9 16.8,-27.6 25.2,-38.2 8.4,-10.6 16.5,-18.9 23.5,-25 3.2,-2.8 5.4,-6.2 6.6,-9.8 1.2,-3.6 1.4,-7.4 0.7,-11.1 -0.7,-3.7 -2.4,-7.2 -4.9,-10.2 -2.5,-3 -5.9,-5.5 -10.1,-7.1 -1.2,-0.5 -2.4,-0.9 -3.7,-1.3 -1.3,-0.4 -2.5,-0.8 -3.8,-1.1 -1.3,-0.3 -2.6,-0.6 -4,-0.8 -1.3,-0.2 -2.7,-0.4 -4.1,-0.6 l 49.2,-9.7 c 1.4,0.2 2.9,0.4 4.2,0.6 1.4,0.3 2.8,0.5 4.1,0.9 1.4,0.3 2.7,0.7 4,1.1 1.3,0.4 2.6,0.9 3.8,1.3 4.3,1.7 7.8,4.2 10.4,7.4 2.6,3.1 4.3,6.7 5.1,10.5 0.8,3.8 0.5,7.8 -0.7,11.5 -1.2,3.7 -3.5,7.3 -6.9,10.2 -7.3,6.3 -15.7,14.9 -24.3,25.9 -8.6,11 -17.7,24.1 -26.1,39.5 -8.4,15.4 -16.3,33.1 -22.7,52.9 -6.4,19.8 -11.4,41.8 -14.1,65.8 -9.1,85 -4.1,158.7 11.6,222.2 15.7,63.5 42.2,117 75.9,161.7 33.8,44.7 74.8,80.5 119.8,108.8 45.1,28.5 94,49.3 143.3,63.9 z"
   id="path21"
   style="fill:#70572b" />

		<path
   class="st89"
   d="m 3335.6,241.1 -49.2,9.7 c 0.1,-0.5 0.1,-0.9 0.2,-1.4 0.1,-0.5 0.1,-0.9 0.2,-1.4 0.1,-0.5 0.1,-0.9 0.2,-1.4 0.1,-0.5 0.1,-0.9 0.2,-1.4 l 49.2,-9.9 c -0.1,0.5 -0.1,1 -0.2,1.5 -0.1,0.5 -0.1,1 -0.2,1.5 -0.1,0.5 -0.1,1 -0.2,1.5 -0.1,0.4 -0.2,0.9 -0.2,1.3 z"
   id="path22"
   style="fill:#70572b" />

		<path
   class="st89"
   d="m 3208.4,245.2 46.4,-9.9 c 1.1,-0.2 2.1,-0.4 3.2,-0.6 1.1,-0.2 2.2,-0.3 3.3,-0.4 1.1,-0.1 2.2,-0.2 3.4,-0.3 1.1,-0.1 2.3,-0.1 3.5,-0.1 0.6,0 1.2,0 1.9,0 0.6,0 1.2,0 1.9,0.1 0.6,0 1.3,0.1 1.9,0.1 0.6,0.1 1.3,0.1 1.9,0.2 l -47.1,10 c -0.6,-0.1 -1.2,-0.1 -1.8,-0.2 -0.6,-0.1 -1.2,-0.1 -1.8,-0.1 -0.6,0 -1.2,-0.1 -1.8,-0.1 -0.6,0 -1.2,0 -1.8,0 -1.1,0 -2.2,0 -3.3,0.1 -1.1,0.1 -2.2,0.1 -3.3,0.3 -1.1,0.1 -2.1,0.3 -3.2,0.4 -1.2,0.1 -2.3,0.3 -3.3,0.5 z"
   id="path23"
   style="fill:#70572b" />

		<path
   class="st89"
   d="m 3153.4,465.2 -42.9,1.9 c 1.7,-16.2 3.3,-32.4 5,-48.7 1.7,-16.2 3.3,-32.4 5,-48.7 1.7,-16.2 3.3,-32.4 5,-48.7 1.7,-16.2 3.3,-32.5 5,-48.7 0.5,-5.3 -0.3,-10.4 -2.4,-15.3 -2.1,-4.9 -5.3,-9.3 -9.5,-13.2 -4.2,-3.9 -9.3,-7.3 -15,-9.8 -5.8,-2.5 -12.2,-4.3 -19.1,-4.9 l 41.9,-10.5 c 7.2,0.7 13.8,2.5 19.8,5.1 6,2.6 11.3,6.1 15.6,10.1 4.3,4 7.7,8.7 9.8,13.7 2.1,5 3,10.4 2.5,15.8 -1.7,16.8 -3.5,33.6 -5.2,50.4 -1.7,16.8 -3.5,33.6 -5.2,50.4 -1.7,16.8 -3.5,33.6 -5.2,50.4 -1.6,17.1 -3.3,33.9 -5.1,50.7 z"
   id="path24"
   style="fill:#70572b" />

		<path
   class="st89"
   d="m 1313.4,215 21.1,10.6 c -76.7,6.6 -135.7,44.5 -178,100.7 -42.3,56.2 -67.8,130.9 -77.7,211.1 -9.9,80.2 -4.1,165.9 16.4,244.3 20.5,78.4 55.5,149.5 104.1,200.3 l -25.9,16.6 C 1123,945.9 1086.7,872.3 1065.6,791 c -21.2,-81.2 -27.2,-170 -16.9,-253.1 10.2,-83.1 36.7,-160.4 80.5,-218.7 43.8,-58.3 104.7,-97.4 184.2,-104.2 z"
   id="path25"
   style="fill:#70572b" />

		<path
   class="st89"
   d="m 3126.6,218.7 -41.9,10.5 c 0,-0.5 0.1,-0.9 0.1,-1.4 0,-0.5 0.1,-0.9 0.1,-1.4 0,-0.5 0.1,-0.9 0.1,-1.4 0,-0.5 0.1,-0.9 0.1,-1.4 l 41.9,-10.7 c -0.1,0.5 -0.1,1 -0.1,1.5 0,0.5 -0.1,1 -0.1,1.5 0,0.5 -0.1,1 -0.1,1.5 0,0.5 -0.1,0.8 -0.1,1.3 z"
   id="path26"
   style="fill:#70572b" />

		<path
   class="st89"
   d="m 28.5,210.7 65.7,10.8 c -1.1,-0.2 -2.1,-0.3 -3.2,-0.5 -1.1,-0.1 -2.2,-0.2 -3.2,-0.3 -1,-0.1 -2.2,-0.2 -3.3,-0.2 -1.1,0 -2.2,-0.1 -3.3,-0.1 -1.1,0 -2.2,0 -3.3,0.1 -1.1,0 -2.2,0.1 -3.4,0.2 -1.1,0.1 -2.3,0.2 -3.4,0.3 -1.1,0.1 -2.3,0.3 -3.4,0.5 L 0.9,210.7 c 1.2,-0.2 2.4,-0.4 3.6,-0.5 1.2,-0.1 2.4,-0.3 3.5,-0.3 1.2,-0.1 2.3,-0.2 3.5,-0.2 1.2,0 2.3,-0.1 3.5,-0.1 1.2,0 2.3,0 3.5,0.1 1.2,0.1 2.3,0.1 3.4,0.2 1.1,0.1 2.3,0.2 3.4,0.3 1,0.2 2.1,0.3 3.2,0.5 z"
   id="path27"
   style="fill:#70572b" />

		<path
   class="st89"
   d="m 1017.5,198.7 31.3,11.2 c -1.6,-0.6 -3.1,-1 -4.8,-1.5 -1.6,-0.4 -3.3,-0.8 -5,-1.1 -1.7,-0.3 -3.5,-0.5 -5.2,-0.7 -1.8,-0.1 -3.6,-0.2 -5.4,-0.2 -0.4,0 -0.8,0 -1.2,0 -0.4,0 -0.8,0 -1.3,0 -0.5,0 -0.8,0 -1.3,0.1 -0.5,0.1 -0.8,0.1 -1.3,0.1 l -32.2,-11.3 c 0.4,0 0.9,-0.1 1.3,-0.1 0.4,0 0.9,0 1.3,-0.1 0.4,-0.1 0.9,0 1.3,0 0.4,0 0.9,0 1.3,0 1.9,0 3.8,0.1 5.6,0.2 1.8,0.1 3.6,0.4 5.4,0.7 1.8,0.3 3.5,0.7 5.2,1.1 1.8,0.5 3.4,1.1 5,1.6 z"
   id="path28"
   style="fill:#70572b" />

		<path
   class="st89"
   d="m 1957.1,256.1 -1.3,9.2 c 0,0 -0.7,-1.1 -2.2,-2.9 -1.4,-1.9 -3.5,-4.5 -6.3,-7.7 -2.8,-3.2 -6.2,-7 -10.2,-11 -4,-4 -8.6,-8.3 -13.8,-12.6 -5.2,-4.3 -10.9,-8.5 -17.1,-12.6 -6.2,-4 -13,-7.8 -20.1,-11 -7.2,-3.2 -14.8,-5.9 -22.9,-7.8 -8.1,-1.9 -16.5,-2.9 -25.4,-2.9 -11.9,0.1 -23,1 -33.5,2.8 -10.4,1.8 -20.1,4.3 -29.1,7.7 -9,3.4 -17.2,7.6 -24.8,12.7 -7.5,5.1 -14.4,10.9 -20.5,17.6 -6.1,6.7 -11.6,13.9 -16.4,21.6 -4.8,7.7 -8.9,16 -12.2,24.8 -3.3,8.8 -5.8,18.1 -7.5,27.8 -1.7,9.8 -2.5,20.1 -2.5,30.9 0.9,42.1 1.7,84.3 2.6,126.4 0.9,42.1 1.7,84.3 2.6,126.4 0.9,42.1 1.7,84.3 2.6,126.4 0.9,42.1 1.7,84.3 2.6,126.4 0.1,5.2 1.5,10.2 3.9,14.7 2.4,4.5 5.9,8.5 10.1,11.9 4.2,3.4 9.3,6.1 14.8,8 5.6,1.9 11.7,2.9 18.1,2.9 l -5.2,13.1 c -6.6,0 -13.9,-1.1 -19.7,-3 -5.8,-2 -11,-4.8 -15.4,-8.3 -4.4,-3.5 -8,-7.7 -10.5,-12.4 -2.5,-4.7 -4,-9.8 -4.1,-15.2 -0.9,-43.7 -1.8,-87.3 -2.6,-131 -0.9,-43.7 -1.8,-87.3 -2.6,-131 -0.9,-43.7 -1.8,-87.3 -2.6,-131 -0.8,-43.7 -1.8,-87.3 -2.6,-131 -0.1,-11.2 0.8,-21.9 2.6,-32 1.8,-10.1 4.4,-19.8 7.8,-28.9 3.4,-9.1 7.7,-17.6 12.6,-25.6 5,-8 10.7,-15.5 17,-22.4 6.4,-6.9 13.4,-13 21.3,-18.3 7.8,-5.2 16.4,-9.6 25.7,-13.2 9.3,-3.5 19.4,-6.2 30.2,-8 10.8,-1.8 22.4,-2.8 34.7,-2.9 9.2,0 17.9,1.1 26.3,3 8.4,1.9 16.3,4.7 23.7,8 7.4,3.3 14.4,7.2 20.9,11.4 6.4,4.2 12.4,8.6 17.7,13 5.4,4.4 10.1,8.9 14.3,13 4.2,4.1 7.7,8 10.6,11.4 2.9,3.4 5.1,6.1 6.5,8 1.2,2.5 1.9,3.6 1.9,3.6 z"
   id="path29"
   style="fill:#70572b" />

		<path
   class="st89"
   d="m 2640.3,200.4 25.9,-11.5 c 1.9,-0.8 3.8,-1.6 5.8,-2.2 2,-0.6 4.1,-1.2 6.2,-1.6 2.1,-0.4 4.3,-0.8 6.5,-1 2.2,-0.2 4.5,-0.3 6.8,-0.3 0.4,0 0.7,0 1.1,0 0.4,0 0.7,0 1.1,0 0.4,0 0.7,0 1.1,0 0.4,0 0.7,0 1.1,0.1 l -27,11.7 c -0.3,0 -0.7,0 -1,-0.1 -0.3,0 -0.7,0 -1,0 -0.3,0 -0.7,0 -1,0 -0.3,0 -0.7,0 -1,0 -2.2,0 -4.4,0.1 -6.5,0.3 -2.1,0.2 -4.2,0.5 -6.3,1 -2.1,0.5 -4,0.9 -6,1.6 -2,0.7 -4,1.2 -5.8,2 z"
   id="path30"
   style="fill:#70572b" />

		<path
   class="st89"
   d="m 2514,366.9 -20.6,5.4 c 0.6,-12.3 1.2,-24.6 1.8,-36.9 0.6,-12.3 1.2,-24.6 1.8,-36.9 0.6,-12.3 1.2,-24.6 1.8,-36.9 0.6,-12.3 1.2,-24.6 1.8,-36.9 0.3,-5.3 -0.9,-10.4 -3.2,-15.1 -2.3,-4.7 -5.8,-9 -10.1,-12.7 -4.4,-3.7 -9.6,-6.8 -15.5,-9 -5.9,-2.2 -12.4,-3.6 -19.4,-3.9 l 19.2,-12.1 c 7.2,0.3 13.9,1.7 20.1,4 6.1,2.3 11.6,5.5 16.1,9.3 4.5,3.8 8.1,8.3 10.5,13.2 2.4,4.9 3.6,10.2 3.3,15.7 -0.6,12.8 -1.3,25.5 -1.9,38.3 -0.6,12.8 -1.3,25.5 -1.9,38.3 -0.6,12.8 -1.3,25.5 -1.9,38.3 -0.6,12.8 -1.2,25.2 -1.9,37.9 z"
   id="path31"
   style="fill:#70572b" />

		<path
   class="st89"
   d="m 2706.1,279.9 -27.3,8.4 c -0.5,0 6,-6.7 16,-16.6 10,-9.9 23.7,-23.2 37.4,-36.4 13.7,-13.2 27.5,-26.4 37.8,-36.4 10.4,-9.9 17.4,-16.5 17.5,-16.5 l 31.2,-12.2 c -0.1,0 -7.4,6.8 -18.1,17.1 -10.7,10.3 -25,24 -39.2,37.7 -14.2,13.7 -28.3,27.4 -38.7,37.7 -10.4,10.3 -17.2,17.2 -16.6,17.2 z"
   id="path32"
   style="fill:#70572b" />

		<path
   class="st89"
   d="m 1483.7,167.5 15.1,12.3 c -6.9,0.3 -13.5,1.6 -19.4,3.7 -5.9,2.2 -11.2,5.2 -15.6,8.8 -4.4,3.6 -7.9,7.9 -10.2,12.6 -2.3,4.7 -3.5,9.8 -3.3,15.1 0.5,12.3 1,24.6 1.5,37 0.5,12.4 1,24.6 1.5,36.9 0.5,12.3 1,24.6 1.5,36.9 0.5,12.3 1,24.6 1.5,37 0.2,4.2 0.3,8.5 0.5,12.7 0.2,4.2 0.3,8.5 0.5,12.7 0.2,4.2 0.3,8.5 0.5,12.7 0.2,4.2 0.3,8.5 0.5,12.7 1.5,36.4 2.9,72.8 4.4,109.2 1.5,36.4 2.9,72.8 4.4,109.2 1.5,36.4 3,72.8 4.4,109.2 1.4,36.4 3,72.8 4.4,109.2 0.2,5.2 1.7,10 4.1,14.4 2.4,4.4 5.9,8.3 10.1,11.6 4.2,3.3 9.1,5.9 14.6,7.8 5.2,1.7 10.9,2.7 16.9,2.8 l -11.3,13.3 c -10.3,2 -14.9,-1 -20.6,-2.9 -5.7,-1.9 -10.8,-4.6 -15.1,-8 -4.3,-3.4 -7.9,-7.5 -10.4,-12 -2.5,-4.6 -4,-9.6 -4.3,-14.9 -1.5,-37.7 -3.1,-75.4 -4.6,-113.1 -1.5,-37.7 -3.1,-75.4 -4.6,-113.1 -1.5,-37.7 -3.1,-75.4 -4.6,-113.1 -1.5,-37.7 -3.1,-75.4 -4.6,-113.1 -0.2,-4.4 -0.4,-8.8 -0.5,-13.2 -0.2,-4.4 -0.4,-8.8 -0.5,-13.2 -0.2,-4.4 -0.4,-8.8 -0.5,-13.2 -0.2,-4.4 -0.4,-8.8 -0.5,-13.2 -0.5,-12.8 -1,-25.5 -1.6,-38.3 -0.6,-12.8 -1,-25.5 -1.5,-38.3 -0.5,-12.8 -1,-25.5 -1.5,-38.3 -0.5,-12.8 -1,-25.5 -1.6,-38.3 -0.2,-5.5 1,-10.8 3.4,-15.6 2.4,-4.8 6.1,-9.3 10.6,-13.1 4.6,-3.8 10,-6.9 16.2,-9.2 6.3,-2.1 13,-3.4 20.2,-3.7 z"
   id="path33"
   style="fill:#70572b" />

		<path
   class="st89"
   d="m 2289,191.9 13.3,-11.8 c 2.3,-2.1 4.9,-4 7.8,-5.6 2.8,-1.7 5.9,-3.1 9.2,-4.3 3.3,-1.2 6.7,-2.1 10.3,-2.7 3.6,-0.6 7.4,-0.9 11.2,-0.9 0.2,0 0.4,0 0.6,0 0.2,0 0.4,0 0.6,0 0.2,0 0.4,0 0.6,0 0.2,0 0.4,0 0.6,0 l -14.7,12.3 c -0.2,0 -0.4,0 -0.6,0 -0.2,0 -0.4,0 -0.6,0 -0.2,0 -0.4,0 -0.6,0 -0.2,0 -0.4,0 -0.6,0 -3.7,0 -7.3,0.3 -10.8,0.9 -3.5,0.6 -6.8,1.5 -10,2.6 -3.2,1.1 -6.1,2.5 -8.9,4.1 -2.6,1.6 -5.1,3.4 -7.4,5.4 z"
   id="path34"
   style="fill:#70572b" />

		<path
   class="st89"
   d="m 2471.6,171.7 -19.2,12.1 c 0,-0.5 0,-0.9 0.1,-1.4 0,-0.5 0,-0.9 0.1,-1.4 0,-0.5 0,-0.9 0.1,-1.4 0,-0.5 0,-0.9 0.1,-1.4 l 19.2,-12.3 c 0,0.5 0,1 -0.1,1.5 0,0.5 0,1 -0.1,1.5 -0.1,0.5 0,1 -0.1,1.5 -0.1,0.5 -0.1,0.8 -0.1,1.3 z"
   id="path35"
   style="fill:#70572b" />

		<path
   class="st89"
   d="m 1483.5,161.7 15.1,12.5 c 0,0.5 0,0.9 0,1.4 0,0.5 0,0.9 0,1.4 0,0.5 0,0.9 0,1.4 0,0.5 0,0.9 0,1.4 l -15.1,-12.3 c 0,-0.5 0,-1 -0.1,-1.5 0,-0.5 0,-1 -0.1,-1.5 0,-0.5 0,-1 -0.1,-1.5 0.3,-0.4 0.3,-0.8 0.3,-1.3 z"
   id="path36"
   style="fill:#70572b" />

		<path
   class="st89"
   d="m 2107.2,899.2 -6.5,-13.1 c 6.6,0 12.9,-1 18.6,-2.9 5.7,-1.9 10.8,-4.6 15.1,-8 4.3,-3.4 7.8,-7.4 10.2,-11.9 2.4,-4.5 3.8,-9.5 3.9,-14.7 1.1,-53 2.1,-105.9 3.2,-158.9 1.1,-53 2.1,-105.9 3.2,-158.9 1.1,-53 2.1,-105.9 3.2,-158.9 1.1,-53 2.1,-105.9 3.2,-158.9 0.1,-5.3 -1.2,-10.4 -3.6,-15 -2.4,-4.6 -6,-8.9 -10.5,-12.4 -4.5,-3.5 -9.8,-6.5 -15.8,-8.5 -6,-2 -12.5,-3.2 -19.5,-3.3 l 6.9,-12.5 c 7.2,0.1 14,1.3 20.2,3.5 6.2,2.2 11.7,5.1 16.3,8.8 4.6,3.7 8.3,8 10.9,12.9 2.6,4.9 3.9,10.1 3.8,15.6 -1.1,54.9 -2.2,109.8 -3.3,164.6 -1.1,54.8 -2.2,109.8 -3.3,164.6 -1.1,54.9 -2.2,109.8 -3.3,164.6 -1.1,54.9 -2.2,109.7 -3.3,164.6 -0.1,5.4 -1.6,10.6 -4.1,15.2 -2.5,4.6 -6.1,8.9 -10.6,12.4 -4.5,3.5 -9.8,6.3 -15.7,8.3 -5.9,1.7 -12.4,2.8 -19.2,2.8 z"
   id="path37"
   style="fill:#70572b" />

		<path
   class="st89"
   d="m 2118.8,161 -6.9,12.5 c 0,-0.5 0,-0.9 0,-1.4 0,-0.5 0,-0.9 0,-1.4 0,-0.5 0,-0.9 0,-1.4 0,-0.5 0,-0.9 0,-1.4 l 6.9,-12.7 c 0,0.5 0,1 0,1.5 0,0.5 0,1 0,1.5 0,0.5 0,1 0,1.5 0,0.3 0,0.8 0,1.3 z"
   id="path38"
   style="fill:#70572b" />

		<path
   class="st89"
   d="M 929.1,326.5 C 928,312.8 926,298.7 923,284.1 920.1,269.5 916.2,254.4 911.6,238.7 906.9,223 901.4,206.6 895.2,189.3 888.9,172.1 881.9,154 874.1,135 l -37.6,-13.9 c 8,19.7 15.3,38.4 21.8,56.3 6.5,17.8 12.2,34.8 17,51.1 4.8,16.3 8.8,31.9 11.8,47 3,15.1 5.2,29.7 6.3,43.9 3.3,43.7 -1.2,94.9 -13.6,149.4 -12.4,54.5 -32.9,112.4 -61.8,169.5 -28.9,57 -66.1,113.2 -112.1,164.3 -46,51.1 -100.7,97.1 -164.5,133.8 -17.6,10.1 -33.6,19.3 -47.7,27.4 -14.1,8.1 -26.2,15 -36.2,20.7 -9.9,5.7 -17.7,10.1 -23,13 -5.3,3 -8,4.5 -8.1,4.5 l 51.8,-16.7 c 0,0 2.7,-1.5 7.8,-4.4 5.1,-2.9 12.6,-7.1 22.2,-12.6 9.6,-5.5 21.3,-12.2 34.9,-19.9 13.6,-7.8 29,-16.6 46,-26.4 61.6,-35.5 114.4,-79.9 158.8,-129.2 44.4,-49.3 80.3,-103.5 108.2,-158.6 27.9,-55 47.6,-110.9 59.6,-163.6 12.3,-52.5 16.5,-102 13.4,-144.1 z"
   id="path39"
   style="fill:#70572b" />

		<path
   class="st89"
   d="m 881,103.7 36.1,14.5 c -4.3,0.4 -8.4,1 -12.3,2 -4,0.9 -7.8,2.1 -11.4,3.6 -3.6,1.5 -7.1,3.1 -10.3,5 -3.2,1.9 -6.2,4 -8.9,6.2 l -37.6,-13.9 c 2.8,-2.4 5.9,-4.5 9.3,-6.5 3.4,-2 6.9,-3.7 10.6,-5.2 3.8,-1.5 7.7,-2.7 11.8,-3.7 4,-1 8.3,-1.6 12.7,-2 z"
   id="path40"
   style="fill:#70572b" />

		<path
   class="st89"
   d="m 880.4,97.8 36.1,14.7 c 0,0.5 0.1,0.9 0.1,1.4 0.1,0.5 0.1,0.9 0.2,1.4 0.1,0.5 0.1,0.9 0.2,1.4 0.1,0.5 0.1,0.9 0.1,1.4 L 881,103.7 c -0.1,-0.5 -0.1,-1 -0.2,-1.5 -0.1,-0.5 -0.1,-1 -0.2,-1.5 -0.1,-0.5 -0.1,-1 -0.2,-1.5 0.1,-0.4 0,-0.9 0,-1.4 z"
   id="path41"
   style="fill:#70572b" />

		<path
   class="st89"
   d="m 559.7,82.2 47.2,15.2 c -5.7,-1.8 -11.6,-3.5 -17.7,-4.9 -6.1,-1.4 -12.4,-2.6 -19,-3.6 -6.5,-1 -13.3,-1.7 -20.2,-2.2 -7,-0.5 -14.1,-0.8 -21.5,-0.8 -3.3,0 -6.6,0.1 -10,0.2 -3.4,0.1 -6.8,0.3 -10.2,0.5 -3.4,0.2 -7,0.5 -10.5,0.8 -3.5,0.3 -7.1,0.7 -10.8,1.1 -48,6 -84.3,18.6 -111.4,35.2 -27.1,16.6 -45.2,37.4 -56.9,59.8 -11.7,22.3 -17.1,46.2 -18.9,69 -1.8,22.9 -0.1,44.7 2.5,63.1 0.8,5.7 5.1,36.8 11.5,82.2 6.3,45.4 14.7,105.2 23.5,168.1 8.8,62.9 18,129.1 26.1,187.2 8.1,58.1 15.1,108.4 19.5,139.5 0.6,3.9 1.6,7.7 3,11.2 1.5,3.5 3.3,6.7 5.5,9.4 2.2,2.7 4.8,4.9 7.6,6.5 2.8,1.5 6,2.4 9.3,2.4 0.4,0 0.9,0 1.3,0 0.4,0 0.9,-0.1 1.3,-0.1 0.4,-0.1 0.9,-0.1 1.3,-0.2 0.5,-0.1 0.9,-0.2 1.4,-0.3 l -54.2,14.4 c -0.5,0.1 -0.9,0.2 -1.4,0.3 -0.5,0.1 -0.9,0.2 -1.4,0.2 -0.5,0.1 -0.9,0.1 -1.4,0.1 -0.5,0 -0.9,0 -1.4,0 -3.5,0 -6.7,-0.9 -9.7,-2.5 -2.9,-1.6 -5.6,-3.9 -7.9,-6.7 -2.3,-2.8 -4.2,-6.1 -5.7,-9.8 -1.5,-3.6 -2.6,-7.6 -3.1,-11.7 -4.5,-32.3 -11.8,-84.3 -20.2,-144.6 -8.4,-60.3 -18,-128.8 -27.1,-194 C 271,502 262.6,440.3 256,393.3 249.4,346.2 244.9,314 244.1,308.1 c -2.7,-19 -4.5,-41.7 -2.6,-65.4 1.9,-23.7 7.5,-48.4 19.6,-71.5 12.1,-23.1 30.8,-44.6 59,-61.9 C 348.3,92 385.7,79 435.5,72.8 c 3.8,-0.4 7.5,-0.8 11.1,-1.2 3.7,-0.3 7.3,-0.6 10.9,-0.8 3.6,-0.2 7.1,-0.4 10.6,-0.5 3.5,-0.1 6.9,-0.2 10.3,-0.2 7.7,0 15.1,0.3 22.3,0.8 7.2,0.5 14.2,1.3 20.9,2.3 6.8,1 13.3,2.3 19.6,3.7 6.4,1.6 12.6,3.3 18.5,5.3 z"
   id="path42"
   style="fill:#70572b" />

		<path
   class="st89"
   d="m 811.6,59.9 38.5,16 c 7.8,3.3 15.2,6.5 21.9,9.8 6.7,3.3 13,6.4 18.6,9.5 5.6,3.1 10.6,6.1 14.9,9 4.3,2.9 8,5.7 11,8.3 L 880.4,97.8 c -3.1,-2.7 -6.9,-5.6 -11.4,-8.6 -4.5,-3 -9.7,-6.1 -15.5,-9.4 -5.8,-3.2 -12.2,-6.5 -19.2,-9.9 -7,-3.2 -14.6,-6.6 -22.7,-10 z"
   id="path43"
   style="fill:#70572b" />

		<polygon
   class="st89"
   points="1510.5,905.3 1521.7,892 1521.9,897.9 1510.7,911.1 "
   id="polygon43"
   style="fill:#70572b" />

		<polygon
   class="st89"
   points="1743.3,899.2 1748.5,886.1 1748.6,891.9 1743.4,905.1 "
   id="polygon44"
   style="fill:#70572b" />

	</g>

	<g
   id="g49">
		<path
   class="st90"
   d="m 3396.4,555.9 c 2.5,-20.3 5.9,-39.9 10.1,-58.7 57.7,7.2 115.4,14.8 173,22.9 16.7,2.3 21.9,18.6 9.8,27 32,-18.1 64.3,-40.4 94.7,-65.2 C 3596.5,469 3508.9,457 3421.2,446 c 33.3,-93.6 98,-154.9 209.3,-139.3 129.4,18.6 110.4,123.7 110.4,123.6 45.3,-45.8 81.6,-95.4 98,-140.6 0,0 -14.7,12.5 -28.2,10.4 -125.6,-19.6 -251.3,-37.2 -377.3,-52.9 -16.4,-2 -32.7,-4 -49.1,-6 -16.1,-1.9 -32.1,-3.8 -48.2,-5.7 -0.2,1.9 -0.5,3.9 -0.7,5.8 5.7,0.7 11.2,2 16.2,4 17.3,6.7 21.4,27.9 7.9,39.6 -29,25.2 -76.4,87.8 -87.2,184.1 -39.1,364.2 181,519.5 392.5,567.5 -227.6,-76.1 -294.3,-267.8 -268.4,-480.6 z"
   id="path44"
   style="fill:#f4bc1e" />

		<path
   class="st90"
   d="m 2523.8,168.3 c -17.3,-0.8 -34.6,-1.7 -51.9,-2.4 -0.1,2 -0.2,3.9 -0.3,5.9 28.7,1.3 51.1,20.2 50,42.2 -2.5,51 -5,102 -7.5,153.1 -76.2,-3.7 -152.3,-6.7 -228.6,-9 1.5,-51.1 3.1,-102.1 4.6,-153.2 0.6,-22 24.4,-39.1 53.1,-38.1 0.1,-2 0.1,-3.9 0.2,-5.9 -17.3,-0.6 -34.6,-1.1 -52,-1.7 -40.2,-1.2 -80.4,-2.2 -120.5,-3 -17.3,-0.3 -34.7,-0.7 -52,-0.9 0,2 -0.1,3.9 -0.1,5.9 28.7,0.4 51.6,18.7 51.2,40.7 0,0 0,0 0,0 -4.4,219.5 -8.8,439 -13.2,658.5 0,0 0,0 0,0 -0.5,22 -22.7,39.3 -49.6,38.9 0,2 -0.1,3.9 -0.1,5.9 16.3,0.3 32.5,0.5 48.8,0.9 37.7,0.8 75.4,1.7 113.1,2.8 16.3,0.5 32.5,1 48.8,1.6 0.1,-2 0.1,-3.9 0.2,-5.9 -26.9,-0.9 -48.2,-19.4 -47.6,-41.3 4.5,-150.8 9,-301.7 13.5,-452.5 75.9,2.3 151.7,5.3 227.6,9 -7.4,150.7 -14.8,301.5 -22.2,452.2 0,0 0,0 0,0 -1.1,22 -23.8,38.7 -50.7,37.5 -0.1,2 -0.2,3.9 -0.3,5.9 16.3,0.7 32.5,1.5 48.8,2.3 37.7,1.8 75.4,3.9 113,6.1 16.2,1 32.5,1.9 48.7,3 0.1,-2 0.2,-3.9 0.4,-5.9 -26.9,-1.7 -47.7,-20.8 -46.4,-42.7 12.9,-219.2 25.8,-438.3 38.7,-657.5 0,0 0,0 0,0 1.3,-21.9 25.5,-38.4 54.2,-36.6 0.1,-2 0.2,-3.9 0.4,-5.9 -17.3,-1.1 -34.6,-2.1 -51.9,-3.2 -40.1,-2.6 -80.3,-4.8 -120.4,-6.7 z"
   id="path45"
   style="fill:#f4bc1e" />

		<path
   class="st90"
   d="m 3276.3,228.5 c -17.2,-1.9 -34.5,-3.8 -51.8,-5.6 -15.2,-1.6 -30.4,-3.2 -45.6,-4.8 -17.3,-1.8 -34.5,-3.5 -51.8,-5.2 -0.2,1.9 -0.4,3.9 -0.6,5.8 28.6,2.8 49.9,22.9 47.7,44.8 0,0 0,0 0,0 0,0 0,0 0,0 -6.9,67.2 -13.9,134.5 -20.8,201.7 -43.3,-121.2 -145.8,-233.6 -334.8,-294.9 -0.3,-0.2 -114.8,109.5 -114.5,109.7 17.5,-0.2 32,2.1 43.6,6.8 17,6.4 20.8,16.1 19.9,29.6 -13.3,189.8 -26.5,379.7 -39.8,569.5 0,0 0,0 0,0 v 0 c -1.5,21.9 -24.6,38.2 -51.5,36.4 -0.1,2 -0.3,3.9 -0.4,5.9 16.2,1.1 32.5,2.2 48.7,3.3 14.3,1 28.6,2 42.9,3.1 16.2,1.2 32.5,2.4 48.7,3.7 0.2,-1.9 0.3,-3.9 0.5,-5.8 -26.9,-2.1 -47.4,-21.5 -45.8,-43.4 0,0 0,0 0,0 14.2,-192.6 28.4,-385.3 42.5,-577.9 81.7,5.5 204.1,98.7 265,229.6 61.8,131 62.3,299.6 -80.2,457.3 89.9,-53.7 157.7,-137.6 178.8,-333.5 0,0 0,0 0,0 14.1,-132.1 28.2,-264.1 42.4,-396.2 2.3,-21.8 27.4,-37.1 56,-33.9 0.5,-2.1 0.7,-4.1 0.9,-6 z"
   id="path46"
   style="fill:#f4bc1e" />

		<path
   class="st90"
   d="m 1878.2,143 c -55.4,0.2 -121.2,15.9 -181.7,36 -103.6,34.3 -191.7,81.4 -191.7,81.4 1.1,1.8 2.1,3.6 3.2,5.3 37.1,-16.1 54.1,-3.1 54.5,9.8 5.9,195.8 11.8,391.7 17.7,587.5 0,0 0,0 0,0 0.6,22 -20.7,40.4 -47.6,41.3 0.1,2 0.1,3.9 0.2,5.9 16.3,-0.6 32.5,-1.1 48.8,-1.6 37.7,-1.1 75.4,-2.1 113.1,-2.8 16.3,-0.3 32.5,-0.6 48.8,-0.9 0,-2 -0.1,-3.9 -0.1,-5.9 0,0 0,0 0,0 -26.9,0.4 -49.1,-16.9 -49.6,-38.9 0,0 0,0 0,0 -3.5,-174.6 -7.1,-349.2 -10.6,-523.8 -0.2,-44.8 14.6,-81.2 40,-109 25.4,-27.7 62.5,-41.9 110.9,-42.3 73.7,-0.5 123.1,70.9 123,70.9 -27.6,39.7 -54.9,79.5 -82,119.3 -50.1,30 -99.7,60.4 -149.1,91 77.2,-24.7 155,-48.7 233.1,-71.9 -0.5,-0.3 150.5,-133.5 158.1,-140.9 0.4,0.4 -80.4,-110.9 -239,-110.4 z"
   id="path47"
   style="fill:#f4bc1e" />

		<path
   class="st90"
   d="m 1311.1,169.1 c -106.8,5.4 -213.6,12.2 -320.4,20.4 0.1,1.9 0.3,3.9 0.4,5.9 16.4,-1.3 31.4,3.5 41.6,11.8 10.4,8.6 10.8,23.8 1.4,33.5 -84.9,83.8 -236.6,578.3 139.2,758 -201.5,-210.8 -178,-756.4 140,-783.7 2.5,49.1 4.9,98.1 7.4,147.2 0.1,1.9 0.2,3.8 0.3,5.7 -57.2,2.9 -114.3,6.2 -171.4,9.9 v 0 c -13.6,24.8 -24.5,51.9 -32.9,80.4 0,0 10.6,-26.2 49.1,-28.7 52.6,-3.4 105.2,-6.4 157.9,-9 7.6,150.7 15.2,301.4 22.8,452.2 0,0 0,0 0,0 1.1,22 -19.9,40.8 -46.8,42.3 0.1,2 0.2,3.9 0.3,5.9 16.2,-0.9 32.5,-1.7 48.7,-2.6 37.7,-1.9 75.4,-3.6 113.1,-5.1 16.3,-0.7 32.5,-1.3 48.8,-1.9 -0.1,-2 -0.1,-3.9 -0.2,-5.9 -26.9,1 -49.5,-15.9 -50.4,-37.9 v 0 c -6.1,-150.8 -12.2,-301.6 -18.3,-452.4 -0.7,-17.5 -1.4,-35.1 -2.1,-52.6 -2.1,-51 -4.1,-102.1 -6.2,-153.1 0,0 0,0 0,0 -0.9,-21.9 21.6,-40.7 50.3,-41.8 -0.1,-2 -0.1,-3.9 -0.2,-5.9 -41.7,1.5 -83.4,3.2 -125.2,5.2 -15.7,0.7 -31.5,1.4 -47.2,2.2 z"
   id="path48"
   style="fill:#f4bc1e" />

		<path
   class="st90"
   d="M 880.4,97.8 C 834.8,57.5 627.9,-19.6 427.8,4.6 224.3,28.5 35.3,153.9 0,204.9 c 0.3,1.9 0.6,3.9 0.9,5.8 0,0 0,0 0,0 37.3,-5.9 71.1,12.4 75.5,40.6 37.6,246.1 75.2,492.3 112.7,738.4 4.3,28.4 -7.8,39.6 -42.7,45.1 0.4,2.5 0.8,5 1.2,7.6 92.9,-14.6 185.8,-28 278.9,-40.3 0,0 44.4,-25 114.8,-65.6 255.2,-147 365,-442.3 352,-617 -4.5,-57 -24.9,-119.6 -56.9,-198.4 11.3,-9.4 26.9,-15.9 44.5,-17.4 -0.1,-2 -0.3,-3.9 -0.5,-5.9 z M 726.6,392.5 C 724.2,551.1 621.4,780.3 366.9,932.7 346.8,944.7 330.6,927 327.6,906 309.6,776.9 244.2,308.1 244.2,308.1 233.5,232.1 236.5,97.6 435.6,72.8 692.5,42.7 728.3,281.1 726.6,392.5 Z"
   id="path49"
   style="fill:#f4bc1e" />

	</g>

</g>
  </g>
</svg>
