<?xml version="1.0" encoding="UTF-8" standalone="no"?>
<!-- Generator: Adobe Illustrator 25.0.0, SVG Export Plug-In . SVG Version: 6.00 Build 0)  -->

<svg
   version="1.1"
   id="Layer_1"
   x="0px"
   y="0px"
   viewBox="0 0 3839 1498.7706"
   xml:space="preserve"
   sodipodi:docname="dragon32.svg"
   width="3839"
   height="1498.7705"
   inkscape:version="1.4 (e7c3feb100, 2024-10-09)"
   xmlns:inkscape="http://www.inkscape.org/namespaces/inkscape"
   xmlns:sodipodi="http://sodipodi.sourceforge.net/DTD/sodipodi-0.dtd"
   xmlns:xlink="http://www.w3.org/1999/xlink"
   xmlns="http://www.w3.org/2000/svg"
   xmlns:svg="http://www.w3.org/2000/svg"><defs
   id="defs26"><linearGradient
     id="linearGradient15"
     inkscape:collect="always"><stop
       style="stop-color:#ea2427;stop-opacity:1;"
       offset="0.16"
       id="stop15" /><stop
       style="stop-color:#ffcc05;stop-opacity:1;"
       offset="0.52999997"
       id="stop17" /><stop
       style="stop-color:#6dbd46;stop-opacity:1;"
       offset="0.73000002"
       id="stop18" /><stop
       style="stop-color:#46a2da;stop-opacity:1;"
       offset="1"
       id="stop16" /></linearGradient><linearGradient
     inkscape:collect="always"
     xlink:href="#linearGradient15"
     id="linearGradient16"
     x1="249.5"
     y1="445.95001"
     x2="3395.2"
     y2="445.95001"
     gradientUnits="userSpaceOnUse" /></defs><sodipodi:namedview
   id="namedview26"
   pagecolor="#ffffff"
   bordercolor="#000000"
   borderopacity="0.25"
   inkscape:showpageshadow="2"
   inkscape:pageopacity="0.0"
   inkscape:pagecheckerboard="true"
   inkscape:deskcolor="#d1d1d1"
   inkscape:zoom="0.50260417"
   inkscape:cx="1920.9948"
   inkscape:cy="750.09326"
   inkscape:window-width="2494"
   inkscape:window-height="1371"
   inkscape:window-x="0"
   inkscape:window-y="0"
   inkscape:window-maximized="1"
   inkscape:current-layer="g15" />
<style
   type="text/css"
   id="style1">
	.st0{fill:#EC2224;}
	.st1{fill:#FFFFFF;}
	.st2{fill:url(#SVGID_1_);}
	.st3{fill:url(#SVGID_2_);}
	.st4{fill:url(#SVGID_3_);}
	.st5{fill:url(#SVGID_4_);}
	.st6{fill:url(#SVGID_5_);}
	.st7{fill:url(#SVGID_6_);}
	.st8{fill:url(#SVGID_7_);}
	.st9{fill:url(#SVGID_8_);}
	.st10{fill:url(#SVGID_9_);}
	.st11{fill:url(#SVGID_10_);}
	.st12{fill:url(#SVGID_11_);}
	.st13{fill:url(#SVGID_12_);}
	.st14{fill:url(#SVGID_13_);}
	.st15{fill:url(#SVGID_14_);}
	.st16{fill:url(#SVGID_15_);}
	.st17{fill:url(#SVGID_16_);}
	.st18{fill:url(#SVGID_17_);}
	.st19{fill:url(#SVGID_18_);}
	.st20{fill:url(#SVGID_19_);}
	.st21{fill:url(#SVGID_20_);}
	.st22{fill:url(#SVGID_21_);}
	.st23{fill:url(#SVGID_22_);}
	.st24{fill:url(#SVGID_23_);}
	.st25{fill:url(#SVGID_24_);}
	.st26{fill:url(#SVGID_25_);}
	.st27{fill:url(#SVGID_26_);}
	.st28{fill:url(#SVGID_27_);}
	.st29{fill:url(#SVGID_28_);}
	.st30{fill:url(#SVGID_29_);}
	.st31{fill:url(#SVGID_30_);}
	.st32{fill:url(#SVGID_31_);}
	.st33{fill:url(#SVGID_32_);}
	.st34{fill:url(#SVGID_33_);}
	.st35{fill:url(#SVGID_34_);}
	.st36{fill:url(#SVGID_35_);}
	.st37{fill:url(#SVGID_36_);}
	.st38{fill:url(#SVGID_37_);}
	.st39{fill:url(#SVGID_38_);}
</style>

<g
   id="g15"
   inkscape:label="g4"
   style="display:inline;stroke-width:1.00028653;stroke-dasharray:none"
   transform="scale(0.99971355)">
				
					<linearGradient
   id="linearGradient8"
   gradientUnits="userSpaceOnUse"
   x1="2353.7498"
   y1="3707.916"
   x2="5499.5034"
   y2="3707.916"
   gradientTransform="translate(-2104.2236,-3262.0186)">
					<stop
   offset="0.1596"
   style="stop-color:#EA2427"
   id="stop5" />
					<stop
   offset="0.5303"
   style="stop-color:#FFCC05"
   id="stop6" />
					<stop
   offset="0.7318"
   style="stop-color:#6DBD46"
   id="stop7" />
					<stop
   offset="1"
   style="stop-color:#46A2DA"
   id="stop8" />
				</linearGradient>
				
			<path
   id="path14"
   class="st1"
   d="m 2592.2992,802.39977 -202.3001,540.40093 h 109.801 l 202.3001,-540.40093 z m 329.3014,19.40009 c -153.9,0 -226.901,117.09956 -226.901,275.29954 0,123.6 62.1006,239.2014 214.6006,239.2014 119.9,0 206.6002,-62.1017 206.6002,-185.7017 0,-98.3 -71.5002,-160.39944 -168.3002,-160.39944 -45.5,0 -82.3009,7.89945 -116.3009,38.99944 5,-49.79999 32.5,-103.29911 87.4,-103.29911 15.9,0 28.9014,2.19976 39.0014,8.69976 10.9,8 18.1002,18.10006 21.0002,27.50006 v -0.0996 h 132.2 c -15.9,-98.3 -80.9003,-140.20031 -189.3003,-140.20031 z m -805.2014,0.0996 c -135.2,0 -221.0997,79.4998 -213.1997,217.49984 v -0.1 h 135.8006 c -1.4,-61.40008 18.1006,-103.2992 75.9006,-103.2992 34,0 60.6991,15.9004 60.6991,61.4004 0,36.9 -41.9003,57.0995 -67.9003,72.9995 -64.3,39 -136.6004,77.2986 -178.5004,135.7986 -24.5,34 -38.9982,75.9013 -36.0982,124.3013 h 435.699 V 1207.6995 H 2101.1995 V 1207 c 94.7,-57.8 220.4011,-98.3009 220.4011,-226.90089 0,-106.9 -83.1014,-158.19961 -205.2014,-158.19961 z m -432.7997,0.0996 c -56.4,0 -108.4003,13.70068 -146.7003,41.90068 -38.3,28.9 -62.1988,72.30056 -62.8988,131.50056 h 135.8006 c -1.4,-41.9 30.3988,-62.90083 69.3988,-62.90083 29.7,0 65.8001,12.30052 65.8001,44.10052 0,39.00001 -38.2998,45.49931 -68.5998,45.49931 -19.5,0 -31.1006,-2.1992 -41.9006,-2.8992 v 98.2996 c 10.8,-1.4 20.9006,-3.6006 41.9006,-3.6006 33.2,0 67.199,7.9012 67.199,52.0012 0,41.2 -25.999,56.3989 -67.199,56.3989 -25.3,0 -46.2996,-5.7989 -59.9996,-22.3989 -13.7,-13 -20.1997,-33.2997 -19.4997,-59.9997 h -137.3011 c -3.6,37.5 -2.8997,196.4997 223.3003,196.4997 164.8,0 210.9999,-96.7996 210.9999,-158.1996 0,-112 -82.4005,-112.0013 -82.4005,-117.8013 v -1.3989 c 0,-2.2 66.5014,-2.2008 66.5014,-107.70073 0,-42.6 -48.4013,-129.30071 -194.4013,-129.30071 z m 1693.1998,5.80049 -229.8002,267.30115 v 135.7987 h 223.3003 v 99.7004 h 150.3009 v -99.7004 h 67.9003 v -122.7989 h -67.9003 V 827.79962 Z m -6.4999,139.40126 V 1108.1005 H 3247.5006 Z M 2909.3998,1086.399 c 44.8,0 73.7008,31.1015 73.7008,66.5015 0,38.3 -30.3008,69.3987 -73.7008,69.3987 -39.8,0 -68.6994,-29.6987 -68.6994,-69.3987 0,-37.6 29.5994,-66.5015 68.6994,-66.5015 z"
   inkscape:label="path11"
   style="display:inline;stroke-width:1.00028653;stroke-dasharray:none;fill:#ffffff;fill-opacity:1" /><path
   id="path12"
   class="st0"
   d="m 939.39995,821.8995 c -49.5,0 -95.19922,26.4011 -119.99922,69.3011 l -38.40162,66.39988 -1.19956,1.99862 -84.60041,146.6006 h 52.601 L 858.80069,914.0001 c 16.6,-28.7 47.39962,-46.49965 80.49962,-46.49965 h 234.49879 l 26.4002,-45.60095 h -181.8002 z m -464.69952,2.60035 -44.60067,44.60067 h 22.9011 l 21.69957,-21.69958 21.69958,21.69958 h 23.00073 z M 303.89955,877.89991 330.20005,923.2 h 175.99964 c 33.6,0 63.70121,17.39965 80.60121,46.49965 16.8,29.1 16.8,63.90125 0,93.00125 l -16.90132,29.1998 c -8.1,14.1 -8.1,31.499 0,45.599 8.1,14.1 23.19959,22.7995 39.49959,22.7995 H 1131.199 c 33.6,0 63.7012,17.4016 80.6012,46.5016 14.8,25.7 16.6004,55.8002 5.3004,82.5002 l -27.2012,47.199 h 53.4001 l 8.0003,-13.8008 c 53.3,-92.4 -13.2992,-207.7998 -119.9992,-207.7998 H 849.4992 690.50053 609.50076 l 16.89938,-29.1997 c 53.3,-92.40015 -13.29922,-207.79979 -119.99922,-207.79979 h -1.30116 l -30.20005,30.20006 -30.20006,-30.20006 z m 635.5004,2.69999 c -28.4,0 -54.89951,15.30011 -69.19951,39.90011 l -38.30003,66.49951 -1.19957,2.00058 -67.70103,117.1996 h 23.39928 L 888.00046,930.29969 c 10.5,-18.2 29.89971,-29.39905 50.79971,-29.39905 h 215.80013 l 11.7006,-20.30074 h -147.9018 z m -0.50014,33.49983 c -16.3,0 -31.29996,8.6995 -39.39996,22.7995 l -97.7995,169.30047 h 52.59905 l 52.39978,-90.8991 h 181.80012 l 58.4015,-101.20087 z m -649.19964,5.20071 -40.20097,25.30022 69.50038,25.30021 -7.50019,-13.20104 h 196.20073 c 20.9,0 40.29971,11.201 50.79971,29.401 10.5,18.19997 10.5,40.49847 0,58.69847 l -16.89938,29.1998 c -14.4,25 -14.4,54.9017 0,79.9017 14.5,25 40.29951,39.9001 69.19951,39.9001 h 159.00063 362.89891 c 20.9,0 40.2997,11.1991 50.7997,29.3991 10.5,18.2 10.5,40.5004 0,58.7004 l -31.4993,54.5996 h 23.3993 l 24.9017,-43.1998 c 14.4,-25 14.4,-54.8999 0,-79.8999 -14.5,-25 -40.3015,-39.9001 -69.2015,-39.9001 H 609.29953 c -20.9,0 -40.2997,-11.201 -50.7997,-29.401 -10.5,-18.2 -10.5,-40.4984 0,-58.6984 l 16.89937,-29.3014 c 14.4,-24.9 14.4,-54.8002 0,-79.80021 -14.5,-25 -40.29951,-39.9001 -69.19951,-39.9001 h -206.6002 z m 67.40017,50.39921 26.3005,45.60095 h 124.29928 l -16.89937,29.1998 c -53.3,92.4 13.29921,207.7997 119.99921,207.7997 h 521.79984 l -48.5002,84.0007 h 52.601 l 35.2992,-61.2012 c 8.1,-14.1 8.1,-31.4993 0,-45.4993 -8.1,-14.1 -23.2,-22.7995 -39.4,-22.7995 H 610.79996 c -33.6,0 -63.69926,-17.4016 -80.59926,-46.5016 -16.8,-29.1 -16.8,-63.8993 0,-92.9993 l 16.89938,-29.1998 c 8.1,-14.1 8.1,-31.501 0,-45.60095 -8.1,-14.1 -23.19996,-22.7995 -39.39996,-22.7995 z m 248.79978,291.20055 -43.60038,75.5002 h 52.60101 l 43.59842,-75.5002 z m 67.80067,0 -43.60038,75.5002 h 23.39928 l 43.60038,-75.5002 z m 38.59895,0 -43.60038,75.5002 h 52.60101 l 43.60038,-75.5002 z"
   inkscape:label="path8"
   style="display:inline;stroke-width:1.00028653;stroke-dasharray:none;fill:#ec2224;fill-opacity:1" /><path
   id="path13"
   class="st1"
   d="m 3569.3994,156.30063 v 19.699 h 19.1012 v -19.699 z m -82,31.69853 v 16.19996 h 37.4013 v 0.30087 c -8.1,5 -11.5013,15.19956 -11.5013,24.39956 0,16 11.6007,31.70049 38.1007,31.70049 22,0 39.0991,-11.20084 39.0991,-34.30084 0,-9.2 -3.4999,-18.49986 -11.8999,-22.69986 v -0.29892 h 9.9013 v -15.30126 z m 64.4012,15.60018 c 12.7,0 25.9,6.10001 25.9,20.50001 0,14 -12.4009,20.2011 -25.1009,20.2011 -13.1,0 -26.5994,-5.40001 -26.5994,-20.50001 0,-12.4 9.7003,-20.2011 25.8003,-20.2011 z m -36.5007,64.9014 v 14.59989 h -21.9008 v 16.10031 h 21.9008 v 12.19881 0.0996 h 11.9996 v -12.19881 h 43.1998 c 12.2,-0.3 18.7007,-3.50074 18.7007,-20.30074 0,-3.6 -0.6006,-6.9991 -0.9006,-10.4991 h -12.4001 c 0.6,2.3 0.5998,4.49882 0.5998,6.79882 0,7.2 -3.3986,7.80107 -10.0986,7.80107 h -39.101 V 268.5007 Z m 57.8994,42.89901 v 51.39949 h -85.7999 v 17.70038 h 101.1012 v -69.09987 z m 4.2004,97.50058 c 0.3,1.7 0.3009,2.9992 0.3009,3.9992 0,3 -1.5016,3.79991 -5.5016,3.79991 h -37.6983 c -15.4,0 -21.2013,15.00136 -21.2013,29.30136 0,16.2 5.4999,32.1986 24.2999,33.2986 v -16.10031 c -7.9,-0.7 -11.599,-6.99836 -11.599,-16.09836 0,-6.5 1.4993,-15.10003 9.8993,-15.10003 9.5,0 8.1998,10.29885 10.2998,21.89885 1.6,13.6 4.5015,28.19948 22.8015,28.19948 14.3,0 21.3987,-11.89898 21.3987,-25.09898 0,-8.7 -2.6991,-18.99986 -8.8991,-25.39986 6.6,-1.3 8.8991,-5.99967 8.8991,-12.49967 0,-2.7 -0.8994,-7.80019 -1.7994,-10.20019 z m -25.5991,23.89943 h 11.9995 c 10.2,0 13.9005,11.00088 13.9005,18.10088 0,5.7 -2.1015,14.8988 -9.3015,14.8988 -8.5,0 -11.0988,-6.29909 -12.1988,-13.19909 -1.3,-7.1 -1.1997,-14.80059 -4.3997,-19.80059 z m -36.5007,56.79947 v 14.59989 h -21.9008 v 16.10031 h 21.9008 v 12.20076 0.0996 h 11.9996 v -12.20076 h 43.1998 c 12.2,-0.3 18.7007,-3.39879 18.7007,-20.29879 0,-3.6 -0.6006,-7.00105 -0.9006,-10.50105 h -12.4001 c 0.6,2.3 0.5998,4.50078 0.5998,6.80078 0,7.2 -3.3986,7.79911 -10.0986,7.79911 h -39.101 v -14.59989 z m 62.0998,45.10081 c 0.3,1.7 0.3009,2.99919 0.3009,3.99919 0,3 -1.5016,3.79992 -5.5016,3.79992 v -0.0996 h -37.6983 c -15.4,0 -21.2013,15.00136 -21.2013,29.30136 0,16.2 5.4999,32.1986 24.2999,33.2986 V 588.8992 c -7.9,-0.7 -11.599,-6.99836 -11.599,-16.09836 0,-6.6 1.4993,-15.20162 9.8993,-15.20162 9.5,0 8.1998,10.40044 10.2998,22.00044 1.6,13.6 4.5015,28.19948 22.8015,28.19948 14.3,0 21.3987,-11.89898 21.3987,-25.09898 0,-8.6 -2.6991,-18.90022 -8.8991,-25.30022 6.6,-1.3 8.8991,-5.99967 8.8991,-12.49967 0,-2.7 -0.8994,-7.80019 -1.7994,-10.20019 z m -25.5991,23.99906 h 11.9995 c 10.2,0 13.9005,11.00089 13.9005,18.10089 0,5.7 -2.1015,14.90075 -9.3015,14.90075 -8.5,0 -11.0988,-6.30104 -12.1988,-13.20104 -1.3,-7.1 -1.1997,-14.8006 -4.3997,-19.8006 z m -13.8008,58.60077 c -27.9,0 -50.6004,13.50067 -50.6004,44.60067 v 41.89872 h 101.1012 v -41.89872 c 0,-31.1 -22.6008,-44.60067 -50.5008,-44.60067 z m -0.1,17.70039 c 20.2,0 36.1001,5.8991 36.1001,33.6991 v 17.40147 H 3501.8 v -17.40147 c 0,-27.8 15.8002,-33.6991 36.1002,-33.6991 z"
   style="display:inline;stroke-width:1.00028653;stroke-dasharray:none;fill:#ffffff" /><path
   class="st2"
   d="M 510.4,188 H 249.5 V 703.9 H 479.3 C 659.2,703.9 743,603.5 743,445.2 743,315.1 682.3,188 510.4,188 Z M 470.6,571.6 H 408.5 V 320.2 h 50.6 c 114.9,0 125,90.3 125,122.8 0,48.4 -14.5,128.6 -113.5,128.6 z m 713.9,-106.9 c 52.8,-19.5 77.3,-75.9 77.3,-129.3 0,-97.5 -78,-147.4 -168.3,-147.4 H 790.7 v 515.9 h 159 v -180 h 84.5 c 62.9,0 67.2,51.3 71.5,100.4 2.2,26.7 5,53.5 13,79.5 h 158.9 c -14.4,-23.8 -15.2,-85.3 -17.3,-110.5 -5.8,-64.3 -32.5,-112 -75.8,-128.6 z M 1032.7,413.4 H 949.6 V 310.8 h 74.4 c 60.7,0 78.8,18.8 78.8,51.3 0,46.2 -40.5,51.3 -70.1,51.3 z m 458.8,-225.4 -190,515.9 h 159.7 l 23.1,-73.7 h 164 l 21.7,73.7 h 164.7 L 1646.9,188 Z m 27.5,331.6 49.9,-159 h 1.4 l 46.2,159 z m 588.1,10.8 h 70.1 c -7.9,38.3 -45.5,57.1 -82.4,57.1 -96.8,0 -116.3,-84.5 -116.3,-132.9 0,-35.4 -3.6,-150.3 105.5,-150.3 37.6,0 69.4,26.7 75.1,64.3 h 152.5 c -23.1,-121.4 -106.2,-192.9 -237.7,-192.9 -116.3,0 -254.3,78.8 -254.3,275.3 0,146.7 93.9,265.2 246.4,265.2 56.4,0 111.3,-19.5 146.7,-65 l 5.1,52.7 h 100.4 v -284 h -211 v 110.5 z m 515.1,-354.7 c -156.8,0 -261.5,112.7 -261.5,270.2 0,157.5 104.8,270.2 261.5,270.2 156.8,0 261.6,-112.7 261.6,-270.2 0,-157.5 -104.8,-270.2 -261.6,-270.2 z m 0,411.8 c -40.5,0 -102.6,-26.7 -102.6,-141.6 0,-114.9 62.1,-141.6 102.6,-141.6 40.5,0 102.6,26.7 102.6,141.6 0,114.9 -62.1,141.6 -102.6,141.6 z M 3245,188 v 276 h -1.5 L 3093.2,188 H 2930.6 V 703.9 H 3081 V 422.1 h 1.4 l 158.2,281.8 h 154.6 V 188 Z"
   id="path10"
   style="display:inline;stroke-width:1.00028653;stroke-dasharray:none;fill:url(#linearGradient16);fill-opacity:1" /><path
   id="path15"
   d="M 137.79924,0 C 61.699238,0 0,61.699238 0,137.79924 V 1361.4994 c 0,76 61.699238,137.7015 137.79924,137.7015 H 3702.1992 c 76.1,0 137.8008,-61.7015 137.9008,-137.7015 V 137.79924 C 3840.1,61.699238 3778.4008,0 3702.3008,0 Z M 3569.3994,156.30063 h 19.1012 v 19.699 h -19.1012 z m -1495.4987,19.40009 c 131.5,0 214.599,71.49901 237.699,192.89901 h -152.4988 c -5.7,-37.6 -37.5016,-64.29967 -75.1016,-64.29967 -109.1,0 -105.499,114.90086 -105.499,150.30086 0,48.4 19.499,132.8994 116.299,132.8994 36.9,0 74.5005,-18.80034 82.4005,-57.10034 h -70.0005 v -110.5004 h 210.9999 v 284.00127 h -100.3998 l -5.0992,-52.70064 c -35.4,45.5 -90.3002,64.99909 -146.7002,64.99909 -152.5,0 -246.4007,-118.49902 -246.4007,-265.19902 0,-196.5 138.0014,-275.29956 254.3014,-275.29956 z m 548.2996,0 c 156.8,0 261.6004,112.69849 261.6004,270.19849 0,157.5 -104.8004,270.20045 -261.6004,270.20045 -156.7,0 -261.5006,-112.70045 -261.5006,-270.20045 0,-157.5 104.7006,-270.19849 261.5006,-270.19849 z M 249.4992,187.99916 h 260.90091 c 171.9,0 232.59983,127.10063 232.59983,257.20063 0,158.3 -83.80054,258.70106 -263.70054,258.70106 H 249.4992 Z m 541.19995,0 h 302.80155 c 90.3,0 168.3002,49.9016 168.3002,147.4016 0,53.4 -24.5014,109.79876 -77.3014,129.29876 43.3,16.6 70.001,64.30129 75.801,128.60129 2.1,25.2 2.8998,86.69845 17.2998,110.49845 h -158.9009 c -8,-26 -10.7999,-52.79934 -12.9999,-79.49934 -4.3,-49.1 -8.599,-100.39985 -71.499,-100.39985 H 949.69978 V 703.90085 H 790.69915 Z m 700.80035,0 h 155.4 l 187.7999,515.90169 h -164.6995 l -21.6996,-73.7008 h -164.0001 l -23.1004,73.7008 h -159.7 z m 1439.0997,0 h 162.6013 l 150.2989,276.00094 h 1.5004 V 187.99916 h 150.1993 v 515.90169 h -154.599 L 3082.4005,422.09943 h -1.4008 v 281.80142 h -150.4005 z m 556.8002,0 h 101.1012 v 15.30126 h -9.9013 v 0.29892 c 8.4,4.2 11.8999,13.49986 11.8999,22.69986 0,23.1 -17.0991,34.30084 -39.0991,34.30084 -26.5,0 -38.1007,-15.70049 -38.1007,-31.70049 0,-9.2 3.4013,-19.39956 11.5013,-24.39956 v -0.30087 h -37.4013 z m 64.4012,15.60018 c -16.1,0 -25.8003,7.8011 -25.8003,20.2011 0,15.1 13.4994,20.50001 26.5994,20.50001 12.7,0 25.1009,-6.2011 25.1009,-20.2011 0,-14.4 -13.2,-20.50001 -25.9,-20.50001 z m -36.5007,64.9014 h 11.9996 v 14.59989 h 39.101 c 6.7,0 10.0986,-0.60107 10.0986,-7.80107 0,-2.3 2e-4,-4.49882 -0.5998,-6.79882 h 12.4001 c 0.3,3.5 0.9006,6.8991 0.9006,10.4991 0,16.8 -6.5007,20.00074 -18.7007,20.30074 h -43.1998 v 12.19881 h -11.9996 v -0.0996 -12.19881 h -21.9008 v -16.10031 h 21.9008 z m -893.0996,35.79932 c -40.5,0 -102.5997,26.69915 -102.5997,141.59915 0,114.9 62.0997,141.60111 102.5997,141.60111 40.5,0 102.5998,-26.70111 102.5998,-141.60111 0,-114.9 -62.0998,-141.59915 -102.5998,-141.59915 z m -1672.60016,6.49991 v 102.5997 h 83.09996 c 29.6,0 70.1002,-5.09985 70.1002,-51.29985 0,-32.5 -18.0999,-51.29985 -78.7999,-51.29985 z m 2623.59916,0.59978 h 15.3013 v 69.09987 h -101.1012 v -17.70038 h 85.7999 z m -3164.69947,8.79939 v 251.40014 h 62.09982 c 99,0 113.50126,-80.19934 113.50126,-128.59934 0,-32.5 -10.10065,-122.8008 -125.00065,-122.8008 z m 1160.40077,40.40025 -49.901,159.00062 h 97.5006 l -46.2008,-159.00062 z m 2008.4991,48.30094 h 11.2005 c 0.9,2.4 1.7994,7.50019 1.7994,10.20019 0,6.5 -2.2991,11.19967 -8.8991,12.49967 6.2,6.4 8.8991,16.69986 8.8991,25.39986 0,13.2 -7.0987,25.09898 -21.3987,25.09898 -18.3,0 -21.2015,-14.59948 -22.8015,-28.19948 -2.1,-11.6 -0.7998,-21.89885 -10.2998,-21.89885 -8.4,0 -9.8993,8.60003 -9.8993,15.10003 0,9.1 3.699,15.39836 11.599,16.09836 v 16.10031 c -18.8,-1.1 -24.2999,-17.0986 -24.2999,-33.2986 0,-14.3 5.8013,-29.30136 21.2013,-29.30136 h 37.6983 c 4,0 5.5016,-0.79991 5.5016,-3.79991 0,-1 -9e-4,-2.2992 -0.3009,-3.9992 z m -25.5991,23.89943 c 3.2,5 3.0997,12.70059 4.3997,19.80059 1.1,6.9 3.6988,13.19909 12.1988,13.19909 7.2,0 9.3015,-9.1988 9.3015,-14.8988 0,-7.1 -3.7005,-18.10088 -13.9005,-18.10088 z m -36.5007,56.79947 h 11.9996 v 14.59989 h 39.101 c 6.7,0 10.0986,-0.59911 10.0986,-7.79911 0,-2.3 2e-4,-4.50078 -0.5998,-6.80078 h 12.4001 c 0.3,3.5 0.9006,6.90105 0.9006,10.50105 0,16.9 -6.5007,19.99879 -18.7007,20.29879 h -43.1998 v 12.20076 h -11.9996 v -0.0996 -12.20076 h -21.9008 v -16.10031 h 21.9008 z m 62.0998,45.10081 h 11.2005 c 0.9,2.4 1.7994,7.50019 1.7994,10.20019 0,6.5 -2.2991,11.19967 -8.8991,12.49967 6.2,6.4 8.8991,16.70022 8.8991,25.30022 0,13.2 -7.0987,25.09898 -21.3987,25.09898 -18.3,0 -21.2015,-14.59948 -22.8015,-28.19948 -2.1,-11.6 -0.7998,-22.00044 -10.2998,-22.00044 -8.4,0 -9.8993,8.60162 -9.8993,15.20162 0,9.1 3.699,15.39836 11.599,16.09836 v 16.10031 c -18.8,-1.1 -24.2999,-17.0986 -24.2999,-33.2986 0,-14.3 5.8013,-29.30136 21.2013,-29.30136 h 37.6983 v 0.0996 c 4,0 5.5016,-0.79992 5.5016,-3.79992 0,-1 -9e-4,-2.29919 -0.3009,-3.99919 z m -25.5991,23.99906 c 3.2,5 3.0997,12.7006 4.3997,19.8006 1.1,6.9 3.6988,13.20104 12.1988,13.20104 7.2,0 9.3015,-9.20075 9.3015,-14.90075 0,-7.1 -3.7005,-18.10089 -13.9005,-18.10089 z m -13.8008,58.60077 c 27.9,0 50.5008,13.50067 50.5008,44.60067 v 41.89872 h -101.1012 v -41.89872 c 0,-31.1 22.7004,-44.60067 50.6004,-44.60067 z m -0.1,17.70039 c -20.3,0 -36.1002,5.8991 -36.1002,33.6991 v 17.40147 h 72.2003 v -17.40147 c 0,-27.8 -15.9001,-33.6991 -36.1001,-33.6991 z m -945.601,167.39951 h 109.801 l -202.3001,540.40093 h -109.801 z m 329.3014,19.40009 c 108.4,0 173.4003,41.90031 189.3003,140.20031 h -132.2 v 0.0996 c -2.9,-9.4 -10.1002,-19.50006 -21.0002,-27.50006 -10.1,-6.5 -23.1014,-8.69976 -39.0014,-8.69976 -54.9,0 -82.4,53.49913 -87.4,103.29915 34,-31.10002 70.8009,-38.99948 116.3009,-38.99948 96.8,0 168.3002,62.09948 168.3002,160.39948 0,123.6 -86.7002,185.7017 -206.6002,185.7017 -152.5,0 -214.6006,-115.6014 -214.6006,-239.2014 0,-158.2 73.001,-275.29958 226.901,-275.29958 z m -1982.20065,0.0996 h 78.99915 181.8002 l -26.4002,45.60095 H 939.30031 c -33.1,0 -63.89962,17.79965 -80.49962,46.49965 L 747.80014,1106.1997 h -52.601 l 84.60041,-146.60064 1.19956,-1.99862 38.40162,-66.39988 c 24.8,-42.9 70.49922,-69.3011 119.99922,-69.3011 z m 1176.99925,0 c 122.1,0 205.2014,51.29961 205.2014,158.19961 0,128.60003 -125.7011,169.10093 -220.4011,226.90093 v 0.6995 h 227.6004 v 122.8008 h -435.699 c -2.9,-48.4 11.5982,-90.3013 36.0982,-124.3013 41.9,-58.5 114.2004,-96.7986 178.5004,-135.7986 26,-15.9 67.9003,-36.0995 67.9003,-72.9995 0,-45.5 -26.6991,-61.4004 -60.6991,-61.4004 -57.8,0 -77.3006,41.89908 -75.9006,103.2992 h -135.8006 v 0.1 c -7.9,-138.00004 77.9997,-217.49984 213.1997,-217.49984 z m -432.7997,0.0996 c 146,0 194.4013,86.70071 194.4013,129.30071 0,105.49993 -66.5014,105.50073 -66.5014,107.70073 v 1.3989 c 0,5.8 82.4005,5.8013 82.4005,117.8013 0,61.4 -46.1999,158.1996 -210.9999,158.1996 -226.2,0 -226.9003,-158.9997 -223.3003,-196.4997 h 137.3011 c -0.7,26.7 5.7997,46.9997 19.4997,59.9997 13.7,16.6 34.6996,22.3989 59.9996,22.3989 41.2,0 67.199,-15.1989 67.199,-56.3989 0,-44.1 -33.999,-52.0012 -67.199,-52.0012 -21,0 -31.1006,2.2006 -41.9006,3.6006 v -98.2996 c 10.8,0.7 22.4006,2.8992 41.9006,2.8992 30.3,0 68.5998,-6.4993 68.5998,-45.49931 0,-31.8 -36.1001,-44.10052 -65.8001,-44.10052 -39,0 -70.7988,21.00083 -69.3988,62.90083 H 1474 c 0.7,-59.2 24.5988,-102.60056 62.8988,-131.50056 38.3,-28.2 90.3003,-41.90068 146.7003,-41.90068 z m -1208.89907,2.50072 44.70031,44.60067 h -23.00073 l -21.69958,-21.69958 -21.69957,21.69958 h -22.9011 z m 2902.09887,3.29977 h 143.801 v 280.30095 h 67.9003 v 122.7989 h -67.9003 v 99.7004 H 3370.299 v -99.7004 H 3146.9991 V 1095.1008 Z M 303.89955,877.89991 h 140.8001 l 30.20006,30.20006 30.20005,-30.20006 h 1.30116 c 106.7,0 173.29922,115.39961 119.99922,207.79979 l -16.89938,29.1997 h 80.99977 158.99867 281.8014 c 106.7,0 173.2992,115.3998 119.9992,207.7998 l -8.0003,13.8008 h -53.4001 l 27.2012,-47.199 c 11.3,-26.7 9.4996,-56.8002 -5.3004,-82.5002 -16.9,-29.1 -47.0012,-46.5016 -80.6012,-46.5016 H 609.39917 c -16.3,0 -31.39959,-8.6995 -39.49959,-22.7995 -8.1,-14.1 -8.1,-31.499 0,-45.599 l 16.90132,-29.1998 c 16.8,-29.1 16.8,-63.90125 0,-93.00125 -16.9,-29.1 -47.00121,-46.49965 -80.60121,-46.49965 H 330.20005 Z m 635.5004,2.69999 h 78.99915 147.9018 l -11.7006,20.30074 H 938.80017 c -20.9,0 -40.29971,11.19905 -50.79971,29.39905 L 786.39909,1106.1997 h -23.39928 l 67.70103,-117.1996 1.19957,-2.00058 38.30003,-66.49951 c 14.3,-24.6 40.79951,-39.90011 69.19951,-39.90011 z m -0.50014,33.49983 h 208.00099 l -58.4015,101.20087 H 906.69918 l -52.39978,90.8991 h -52.59905 l 97.7995,-169.30047 c 8.1,-14.1 23.09996,-22.7995 39.39996,-22.7995 z m -649.19964,5.20071 9.89932,17.09865 h 206.6002 c 28.9,0 54.69951,14.9001 69.19951,39.9001 14.4,25.00001 14.4,54.90021 0,79.80021 l -16.89937,29.3014 c -10.5,18.2 -10.5,40.4984 0,58.6984 10.5,18.2 29.8997,29.401 50.7997,29.401 h 521.79987 c 28.9,0 54.7015,14.9001 69.2015,39.9001 14.4,25 14.4,54.8999 0,79.8999 l -24.9017,43.1998 h -23.3993 l 31.4993,-54.5996 c 10.5,-18.2 10.5,-40.5004 0,-58.7004 -10.5,-18.2 -29.8997,-29.3991 -50.7997,-29.3991 H 769.80059 610.79996 c -28.9,0 -54.69951,-14.9001 -69.19951,-39.9001 -14.4,-25 -14.4,-54.9017 0,-79.9017 l 16.89938,-29.1998 c 10.5,-18.2 10.5,-40.4985 0,-58.69847 -10.5,-18.2 -29.89971,-29.401 -50.79971,-29.401 H 311.49939 l 7.50019,13.20104 -69.50038,-25.30021 z m 3080.59923,47.90044 -122.7988,140.89972 h 122.7988 z m -3013.19906,2.49877 h 150.59978 c 16.2,0 31.29996,8.6995 39.39996,22.7995 8.1,14.09995 8.1,31.50095 0,45.60095 l -16.89938,29.1998 c -16.8,29.1 -16.8,63.8993 0,92.9993 16.9,29.1 46.99926,46.5016 80.59926,46.5016 h 521.79984 c 16.2,0 31.3,8.6995 39.4,22.7995 8.1,14 8.1,31.3993 0,45.4993 l -35.2992,61.2012 h -52.601 l 48.5002,-84.0007 H 610.79996 c -106.7,0 -173.29921,-115.3997 -119.99921,-207.7997 l 16.89937,-29.1998 H 383.40084 Z M 2909.3998,1086.3991 c -39.1,0 -68.6994,28.9015 -68.6994,66.5015 0,39.7 28.8994,69.3987 68.6994,69.3987 43.4,0 73.7008,-31.0987 73.7008,-69.3987 0,-35.4 -28.9008,-66.5015 -73.7008,-66.5015 z M 605.90012,1260.9002 h 52.59905 l -43.59842,75.5002 h -52.60101 z m 67.80067,0 h 23.39928 l -43.60038,75.5002 h -23.39928 z m 38.59895,0 h 52.60101 l -43.60038,75.5002 h -52.60101 z"
   style="display:inline;stroke-width:1.00028653;stroke-dasharray:none;fill:#000000;fill-opacity:1"
   inkscape:label="path32" /></g></svg>
