<?xml version="1.0" encoding="UTF-8" standalone="no"?>
<!-- Created with Inkscape (http://www.inkscape.org/) -->

<svg
   width="1015.7883mm"
   height="174.4131mm"
   viewBox="0 0 1015.7883 174.4131"
   version="1.1"
   id="svg1"
   inkscape:version="1.3.2 (091e20e, 2023-11-25, custom)"
   sodipodi:docname="dreamcast.svg"
   xmlns:inkscape="http://www.inkscape.org/namespaces/inkscape"
   xmlns:sodipodi="http://sodipodi.sourceforge.net/DTD/sodipodi-0.dtd"
   xmlns="http://www.w3.org/2000/svg"
   xmlns:svg="http://www.w3.org/2000/svg">
  <sodipodi:namedview
     id="namedview1"
     pagecolor="#ffffff"
     bordercolor="#000000"
     borderopacity="0.25"
     inkscape:showpageshadow="2"
     inkscape:pageopacity="0.0"
     inkscape:pagecheckerboard="0"
     inkscape:deskcolor="#d1d1d1"
     inkscape:document-units="mm"
     inkscape:zoom="0.40511539"
     inkscape:cx="789.8984"
     inkscape:cy="341.8779"
     inkscape:window-width="3840"
     inkscape:window-height="2054"
     inkscape:window-x="-11"
     inkscape:window-y="-11"
     inkscape:window-maximized="1"
     inkscape:current-layer="layer1" />
  <defs
     id="defs1" />
  <g
     inkscape:label="Layer 1"
     inkscape:groupmode="layer"
     id="layer1"
     transform="translate(402.96042,-61.383333)">
    <g
       id="g9"
       transform="matrix(0.26458333,0,0,0.26458333,-402.9075,61.444601)">
	<g
   id="g8">
		<path
   d="m 854.1,134.5 c 0,-16.7 -3.2,-38.4 -10.6,-47.5 48.4,0 153.2,0.3 198.1,0.3 103.3,0 259.2,57.4 259.2,250.7 0,143.5 -110,250.3 -259.2,250.3 -32.7,0 -157.6,-0.4 -201.9,-0.4 9,-16.7 14.4,-39.5 14.4,-57.5 z m 74.3,404.6 c 47.7,6.2 91.7,8.1 131.5,2.4 38.5,-5.5 168,-33.4 167.2,-205.3 -0.7,-162.9 -101.4,-200.2 -178.9,-204.7 -40.4,-2.4 -79.5,-0.8 -119.8,6.2 z"
   id="path1" />

		<path
   d="m 1343.4,240.8 74.2,-11.6 c 0,15.2 0,59.7 0,65.4 19.1,-47 78.3,-84.9 162.5,-52.1 l -19.7,51.7 c -77.1,-36.5 -142.7,-4.5 -142.7,81.1 v 176.5 c 0,8.4 1.8,25.4 6.9,36.2 h -77.1 c 7.8,-9.5 11.4,-27.8 11.4,-36.2 V 297.2 c -0.1,-18.5 -3.9,-47.2 -15.5,-56.4 z"
   id="path2" />

		<path
   d="m 3690,276.2 c 0,4.8 0,210.2 0,225.5 0,70.8 48.8,89.7 85,89.7 15.3,0.7 37,-2.9 52,-6.2 l 9.3,-43.7 c -17.7,6.8 -38.1,8.3 -50.4,8.3 -22.7,0 -39.1,-15.1 -39.1,-38.6 0,-21.1 -0.5,-228.1 0,-234.7 h -0.2 c 3,0 50,-0.2 54.8,0 15.4,0.5 27.3,1.4 37.5,5.5 l 0.1,-41.2 c 0,0 -90.2,-0.1 -92.1,-0.1 l 0.4,-105.5 -68.4,18.9 c 9.4,8.8 12.5,34.6 12.5,51.6 0,0 -0.1,31.5 -0.1,35.3 -3.1,0 -37.8,0.2 -43.5,0.2 V 276 c 5.9,0.2 42.2,0.2 42.2,0.2 z"
   id="path3" />

		<path
   d="m 3394.4,514.8 c 29.4,21 75.5,39.6 109.4,39.6 46.9,0 80.6,-22.8 80.6,-65.8 0,-79.3 -181,-66.2 -181,-166.9 0,-68.1 60.9,-93.7 118.9,-93.7 18.7,0 61.2,4 88.3,14.5 l -0.2,46.5 c -24,-20.5 -60.8,-25.6 -84.9,-25.6 -38.4,0 -67.2,19.1 -67.2,56.5 0,54.8 180.8,51.6 180.8,164.2 0,72.8 -63,106.7 -132.5,106.7 -33.8,0 -69.1,-6 -98.4,-14.4 z"
   id="path4" />

		<path
   d="m 2302.3,276.9 c 0,-4.1 0.1,-41 0.1,-45.7 l -75.1,11.6 c 9,9.4 16,39.1 16,60.3 v 246.2 c 0,8.4 -3.6,28.8 -11.4,38.4 h 81.9 c -7.8,-9.5 -11.4,-30 -11.4,-38.4 V 364.1 c 0,-67.7 42,-91.6 83.7,-91.6 37.8,0 72,16.3 72,91.6 v 185.3 c 0,8.4 -3.6,28.8 -11.4,38.4 h 79.4 c -7.8,-9.5 -11.4,-30 -11.4,-38.4 V 364.1 c 0,-75.1 46.4,-91.6 84.3,-91.6 37.8,0 77.3,23.7 77.3,91.6 v 185.3 c 0,8.4 -3.6,28.8 -11.4,38.4 h 76.6 c -7.8,-9.5 -11.4,-30 -11.4,-38.4 V 328.9 c 0,-37.6 -38.4,-97.8 -127.9,-97.8 -52.1,0 -82.2,23.2 -105,43.1 -19.4,-22.7 -51,-43.9 -101.8,-43.9 -49.6,0 -78.9,29 -93.1,46.6 z"
   id="path5" />

		<path
   d="m 2125.1,392.5 c -10.7,10.1 -33.2,18 -56.4,21 -60.9,8 -113.7,18.1 -113.7,77.4 0,35.2 38.4,62.9 68.8,62.9 80.5,0 101.3,-58.1 101.3,-103.9 z M 1934.9,247.3 c 30.7,-12.3 80.3,-18 111.4,-18 79.4,0 132.2,39.6 132.2,131.8 v 152.7 c 0,28.3 0.4,55.1 10.5,73.9 h -63.8 l -2.3,-40.2 c -24.1,31.2 -53.1,45.2 -102,45.2 -96.7,0 -117.8,-66.1 -117.8,-97.8 0,-113.3 107.9,-114.7 154.7,-121.3 25.9,-3.7 59.2,-11 64.3,-35.3 8.3,-40.1 -20.4,-70.3 -79.1,-70.3 -43.1,0 -78.4,13.1 -107.9,30.8 v -51.5 z m 1371.7,145.2 c -10.7,10.1 -33.2,18 -56.4,21 -60.9,8 -113.6,18.1 -113.6,77.4 0,35.2 38.4,62.9 68.8,62.9 80.5,0 101.3,-58.1 101.3,-103.9 z M 3116.5,247.3 c 30.7,-12.3 80.4,-18 111.4,-18 79.3,0 132.1,39.6 132.1,131.8 v 152.7 c 0,28.3 -6.2,54.5 10.5,73.9 h -63.7 l -2.4,-40.2 c -24.2,31.2 -53,45.2 -102,45.2 -96.7,0 -117.8,-66.1 -117.8,-97.8 0,-113.3 107.9,-114.7 154.7,-121.3 26,-3.7 59.3,-11 64.3,-35.3 8.3,-40.1 -20.4,-70.3 -79.1,-70.3 -43.1,0 -78.3,13.1 -107.9,30.8 z"
   id="path6" />

		<path
   d="m 3048.6,294.1 c -23.9,-14 -61.7,-25 -88.1,-25 -92.6,0 -135,56.9 -135,138.9 0,81.2 41.5,143.4 132,143.4 31,0 73.3,-14 106,-34.1 l -13.3,59.7 c -33.4,10 -61.5,14.7 -98.6,14.7 -127.2,0 -186.8,-90.2 -186.8,-184.1 0,-103.8 80,-176.7 188.2,-176.7 47.3,0 81.8,11.6 95.8,15.6 z"
   id="path7" />

		<path
   d="m 1624.7,412.3 c 0.1,-8.6 1.2,-16.7 2.2,-24.6 H 1873 c 0,-84.6 -42.3,-157.1 -142.6,-157.1 -104.1,0 -165.8,81.4 -165.8,185.2 0,93.8 68.8,177.7 186.5,177.7 37.3,0 68.4,-9.1 102,-20.9 l 11.8,-60 c -28.7,23.7 -75.2,37.7 -117.1,37.7 -75.4,-0.3 -123.5,-54.8 -123.1,-138 z m 9.9,-62.2 c 8,-41.2 46.1,-83.1 91.7,-83.1 69.7,0 89.8,54.4 89.8,83.1 -0.1,0 -181.5,0.1 -181.5,0 z"
   id="path8" />

	</g>

	<path
   class="st0"
   d="m 452.6,8.9 c 27.6,4.1 55.8,13.8 70.5,18.3 29.7,9 77.7,37.2 94.7,50.7 8,6.4 24.9,23.1 31.5,31.5 6.4,8.2 18.6,26 26.3,36.8 12.4,18.1 26.9,45 39.3,69.7 13.8,27.6 14.8,35.7 18.9,58.8 l 9.1,40.7 c 0.8,7.1 1.5,32.8 -13.7,36.5 -15.2,3.6 -29.2,-3.4 -35.8,-13.5 -9.1,-14.2 -7.9,-34.3 -18.3,-57.3 C 667,262.5 663.5,235.5 650.7,216 l -10.1,-17 c -17.9,-27.5 -36.5,-49.4 -47.6,-63.6 -9.9,-12 -28.1,-28.2 -45.4,-39.8 -16,-9.8 -42,-20.8 -60.7,-26.5 -6,-2 -31.4,-9.4 -47.3,-11.5 -21.6,-2.4 -35.6,-5.9 -56,-7.3 -25.2,-1.7 -37.4,-4 -70,-0.2 -12.4,3.4 -32,4.7 -49.7,11.5 -14.3,5.9 -34.1,15.2 -53.6,26.7 -20.9,11.5 -52.7,34.9 -73.8,55 -21.2,22.7 -31.8,34.9 -46.5,63.6 -6.6,14.1 -19.1,36 -24.1,51.6 -3.5,15.8 -10.1,45.2 -8.9,59.5 0.5,25.6 -1.7,30.9 0.2,51.8 0.1,18.9 6.3,31.9 8.8,47.3 2.2,10.7 12.4,47.4 18.7,56 28.7,61.9 67.2,88.7 110.2,108 12.1,6.2 50,16.3 61,19.2 18.7,3.4 43.3,5.6 66.9,6.1 24.9,0.5 59.2,-2.9 80.1,-10.6 22.6,-8.3 48.7,-20.1 48.3,-19.7 10.5,-5.7 26.5,-15.2 31.4,-19.3 9.6,-6.2 15.4,-8.5 21,-14.5 8.2,-7.2 13.2,-11.3 19.4,-20.2 3.5,-5 9,-12.7 14.3,-19.5 5.7,-9.4 9,-19.4 14.7,-31.7 6.8,-18.3 5.6,-17.3 7,-36.6 1.2,-5.6 -0.1,-24.4 -1.1,-27.7 -3.1,-17.4 -2,-32.7 -6,-49.7 C 546.6,334 542,317 535.2,295 c -6.5,-24.6 -25.5,-47.5 -39.6,-63.8 -8.8,-10.2 -36.1,-34.1 -74.1,-49 -10.7,-3.6 -28.1,-7.7 -39.2,-9.6 -23.7,-2.5 -27.6,-0.9 -50.3,0.8 -7.8,1.3 -26,5 -32.6,7.4 -19.5,6.9 -26.7,11.2 -46.6,23.4 -9.2,5.3 -16.3,9.5 -25.8,18.4 -7.6,7 -12.9,18.9 -19.1,25.9 -8.4,11.4 -17.8,26.7 -24,43.1 -6.8,16.3 -9,39.4 -7.9,54.2 0,11.3 3.1,31.9 4.3,36.4 1.2,4.5 4.3,18.6 4.9,21.3 0.7,2.8 8,17.7 9,19.8 4.1,8.7 12,21.3 25.2,34.2 9.9,10.7 28.7,21.2 42.9,25.2 12.7,7 34.2,8.2 46,8.2 5.9,-0.4 20.7,-1.2 28.5,-3.1 15.8,-3.8 18.7,-3.9 35,-11 14.6,-6.8 24.5,-9.2 34.7,-16.7 0,0 14,-10.9 20.3,-19 3.4,-4.2 9.1,-24.3 8.1,-36.8 -0.5,-17 2.1,-26.7 -1.5,-40.7 -3.5,-14.1 -9.4,-30.3 -15.9,-40.3 -6.6,-10.2 -20.5,-20 -36.5,-27.9 -8.9,-4.4 -30.2,-8.5 -39.1,-9.5 -17,-2.1 -31.3,5.7 -40,14.6 -7.5,8.6 -22.4,26.5 -16.4,44.9 5.3,16.7 11.8,34.5 36.8,33.2 17.2,3.6 37.1,-1.5 43.7,1.4 9.9,5.5 13.5,17.9 10.1,26.5 -2.5,16.5 -18.4,18.6 -35.3,19.8 -15.2,2.6 -53.7,-4.9 -62.1,-11.2 -5.6,-3.4 -14.4,-11.5 -20.4,-16.9 -4.4,-4 -9.3,-12.7 -12.7,-19 -4.2,-7.7 -6.3,-13.4 -7.4,-18.5 -1.2,-6 -3.9,-17.4 -2.9,-28.8 0.7,-7.7 2.8,-11 4.8,-22.3 4.1,-12.8 9.1,-22.5 17.3,-33.6 10.7,-10.8 24.2,-23.7 37.4,-29.7 11.7,-6.2 32,-8.4 50.5,-7.3 15,1.4 32.7,3.3 44.4,7.2 20,7.2 25.8,8.6 42.3,19 13.9,8.6 27.9,24.4 35.7,37.6 16.6,34 26.2,71.7 19.2,122.8 -0.5,8.6 -3.3,16.9 -8.6,28.4 -4.9,10.5 -13.7,23.3 -26.7,32.8 -5.2,4.8 -13.5,10.9 -20.2,14.4 -9.5,5.7 -16,8.8 -26,13.9 -8.7,4.1 -19,8.8 -32.3,12.5 -14.5,5.7 -25.6,6 -43.6,8.6 -17.9,4.5 -66.7,1.3 -95.9,-11.6 -19.9,-8.3 -42.2,-23.1 -59.1,-41.1 -9.4,-9.9 -18.7,-27.8 -21.3,-31.4 -13.4,-26 -16.1,-50.3 -18.3,-55.4 -3,-7 -4.4,-22.6 -6.4,-33.3 -2.3,-12 -0.8,-62.2 11.2,-94.3 6.8,-12.8 10.8,-24.2 15.4,-30.3 8.3,-11.8 12.3,-19.2 19.3,-27.5 10.7,-12.8 18.4,-23.4 28.6,-30.8 26.4,-21.5 48.3,-32.7 78.2,-46.9 37.1,-15.1 48.1,-12 83.1,-11.4 15.8,0.1 38.7,5.1 50,7.2 20.9,2.8 32.9,7.8 47.1,11.8 15.2,4.2 23.9,11 36.3,18.5 10.3,6.6 22.3,15.6 30.2,23 20.3,14.9 30.2,30.6 42.6,49.9 2.3,3.2 17,34.8 19.4,43.5 1.1,4.4 4.4,17 6.6,24.4 2.8,11.7 4.1,22.1 7.2,35.3 2.8,13.7 7.5,39.3 9.4,63.3 3.4,20.6 -2.1,62.7 -5.3,75.5 -7.2,24.1 -19.8,53.5 -44.6,81.8 -10.6,12.5 -21.8,22.3 -34.8,32.8 -10,8.2 -18.5,13.1 -33.8,22.3 -20.8,12.4 -36.6,20.3 -65.9,31.8 -11.9,3.8 -26.9,8.8 -43,12.1 -31.3,2.9 -63.4,5.6 -98.5,1.4 -35.1,-4.2 -70.2,-14.1 -91,-20.4 -11.5,-4.3 -33.7,-13.5 -43,-18.7 -6.1,-3.1 -26.4,-16.9 -29.8,-20.3 -14,-8.6 -45.1,-37.9 -65.2,-65.2 C 53.8,523.8 38,498.4 34.5,487.3 25.4,468.5 19,445.8 15.3,436.2 11.4,413.5 4.7,398.9 2.1,376.3 2.4,371 1.1,358.3 -0.2,351.5 1.5,336 -0.8,321.3 2.3,304.4 5,290.1 8.6,284.2 9.5,271.2 c 0.8,-5.5 7.9,-22.2 9.9,-29.6 5.7,-12.2 7.2,-22.2 14.7,-35.8 10.8,-21.1 22.1,-45.6 39.4,-66.8 4.9,-6.6 19,-22.5 23.7,-27.9 11.3,-11.3 18,-13 30.7,-24.4 1.3,-0.8 9.8,-10.5 18.7,-13.8 C 161.3,61.6 174,57.4 188,47 c 28,-14 38.2,-18.7 66,-30.3 16.3,-5.6 38.8,-8.8 46.8,-11.9 15.4,-0.9 30.9,-5.9 47.1,-4.9 18.2,-0.2 36.4,1.1 54.6,2.8 12.4,0.9 28.4,1.5 50.1,6.2 z"
   id="path9"
   style="fill:#f05100" />

</g>
  </g>
</svg>
