<?xml version="1.0" encoding="UTF-8" standalone="no"?>
<!-- Created with Inkscape (http://www.inkscape.org/) -->

<svg
   width="1015.7354mm"
   height="202.23596mm"
   viewBox="0 0 1015.7354 202.23596"
   version="1.1"
   id="svg1"
   inkscape:version="1.3.2 (091e20e, 2023-11-25, custom)"
   sodipodi:docname="easyrpg.svg"
   xmlns:inkscape="http://www.inkscape.org/namespaces/inkscape"
   xmlns:sodipodi="http://sodipodi.sourceforge.net/DTD/sodipodi-0.dtd"
   xmlns="http://www.w3.org/2000/svg"
   xmlns:svg="http://www.w3.org/2000/svg">
  <sodipodi:namedview
     id="namedview1"
     pagecolor="#ffffff"
     bordercolor="#000000"
     borderopacity="0.25"
     inkscape:showpageshadow="2"
     inkscape:pageopacity="0.0"
     inkscape:pagecheckerboard="0"
     inkscape:deskcolor="#d1d1d1"
     inkscape:document-units="mm"
     inkscape:zoom="1.6204616"
     inkscape:cx="934.91881"
     inkscape:cy="186.0581"
     inkscape:window-width="3840"
     inkscape:window-height="2054"
     inkscape:window-x="-11"
     inkscape:window-y="-11"
     inkscape:window-maximized="1"
     inkscape:current-layer="layer1" />
  <defs
     id="defs1">
    <radialGradient
       id="SVGID_1_"
       cx="405.43951"
       cy="337.29099"
       r="226.5"
       gradientUnits="userSpaceOnUse">
      <stop
         offset="0"
         style="stop-color:#D8EDCA"
         id="stop9" />
      <stop
         offset="1"
         style="stop-color:#9EBF88"
         id="stop11" />
    </radialGradient>
    <radialGradient
       id="SVGID_2_"
       cx="410.16501"
       cy="300.78909"
       r="270.06439"
       gradientUnits="userSpaceOnUse">
      <stop
         offset="0"
         style="stop-color:#688C51"
         id="stop16" />
      <stop
         offset="0.4749"
         style="stop-color:#587B42"
         id="stop18" />
      <stop
         offset="1"
         style="stop-color:#42632D"
         id="stop20" />
    </radialGradient>
    <linearGradient
       id="SVGID_3_"
       gradientUnits="userSpaceOnUse"
       x1="265.50101"
       y1="95.265602"
       x2="380.50079"
       y2="330.26489">
      <stop
         offset="0"
         style="stop-color:#FFFFFF"
         id="stop25" />
      <stop
         offset="1"
         style="stop-color:#FFFFFF"
         id="stop27" />
    </linearGradient>
    <linearGradient
       id="SVGID_4_"
       gradientUnits="userSpaceOnUse"
       x1="265.51169"
       y1="95.2603"
       x2="380.5116"
       y2="330.25949">
      <stop
         offset="0"
         style="stop-color:#FFFFFF"
         id="stop32" />
      <stop
         offset="1"
         style="stop-color:#FFFFFF"
         id="stop34" />
    </linearGradient>
  </defs>
  <g
     inkscape:label="Layer 1"
     inkscape:groupmode="layer"
     id="layer1"
     transform="translate(142.34583,-99.218743)">
    <g
       id="layer3"
       style="opacity:0.940083"
       transform="matrix(0.57964484,0,0,0.57964484,316.35284,149.08457)">
      <g
         id="g41"
         transform="matrix(0.56647428,0,0,0.56647428,-857.00661,-99.52845)">
        <path
           d="m 682.256,371.344 c -5.95,-22.158 -15.966,-41.487 -30.027,-58.002 -4.224,-83.34 -48.864,-156.008 -114.702,-198.825 0.009,-0.362 0.03,-0.718 0.03,-1.083 0,-10.023 -4,-19.25 -12,-27.672 -30.406,-31.281 -67.406,-46.93 -111,-46.93 -43.203,0 -79.501,14.719 -108.899,44.156 -4.755,4.76 -9.119,9.704 -13.105,14.826 -85.685,40.38 -144.996,127.516 -144.996,228.518 0,5.421 0.191,10.797 0.527,16.133 -4.942,4.795 -8.571,11.083 -10.875,18.877 -11.887,41.973 -6.939,81.84 14.857,119.594 21.602,37.414 52.497,61.488 92.689,72.23 18.347,4.905 36.408,6.426 54.185,4.585 30.963,13.548 65.158,21.081 101.117,21.081 46.198,0 89.493,-12.417 126.745,-34.081 3.282,4.959 7.652,9.033 13.138,12.2 8.682,5.012 18.672,6.16 29.965,3.443 42.293,-10.691 74.346,-34.91 96.143,-72.664 21.6,-37.414 27.001,-76.207 16.208,-116.386 z"
           id="path5"
           style="fill:#ffffff;stroke:#2e3d25;stroke-width:30" />
        <circle
           cx="400.939"
           cy="326.79099"
           r="252.5"
           id="circle7"
           style="fill:#559338;stroke:#88ba68;stroke-width:5" />
        <radialGradient
           id="radialGradient2"
           cx="405.43951"
           cy="337.29099"
           r="226.5"
           gradientUnits="userSpaceOnUse">
          <stop
             offset="0"
             style="stop-color:#D8EDCA"
             id="stop1" />
          <stop
             offset="1"
             style="stop-color:#9EBF88"
             id="stop2" />
        </radialGradient>
        <circle
           cx="405.439"
           cy="337.29099"
           r="226.5"
           id="circle14"
           style="fill:url(#SVGID_1_);stroke:#b0d19b;stroke-width:5" />
        <radialGradient
           id="radialGradient5"
           cx="410.16501"
           cy="300.78909"
           r="270.06439"
           gradientUnits="userSpaceOnUse">
          <stop
             offset="0"
             style="stop-color:#688C51"
             id="stop3" />
          <stop
             offset="0.4749"
             style="stop-color:#587B42"
             id="stop4" />
          <stop
             offset="1"
             style="stop-color:#42632D"
             id="stop5" />
        </radialGradient>
        <path
           d="m 683.139,371.803 c -10.791,-40.186 -34.926,-71.087 -72.387,-92.716 -37.463,-21.629 -76.373,-27.125 -116.746,-16.479 -4.532,1.195 -8.94,2.567 -13.236,4.1 -3.688,-0.938 -7.661,-1.416 -11.932,-1.416 H 415.44 c -20,0 -37,-7.117 -51,-21.359 -14,-14.234 -21,-31.383 -21,-51.445 0,-20.047 6.992,-37.094 20.984,-51.133 13.984,-14.039 30.977,-21.063 50.969,-21.063 5.188,0 10.383,0.547 15.586,1.633 l -43.063,42.75 c -8.852,8.734 -13.273,18.055 -13.273,27.969 0,11.109 4.094,20.828 12.297,29.156 8.203,8.328 17.899,12.492 29.102,12.492 10,0 19.398,-4.031 28.203,-12.102 l 76.797,-75.203 c 11.594,-8.82 17.398,-19.852 17.398,-33.094 0,-10.023 -4,-19.25 -12,-27.672 -30.406,-31.281 -67.406,-46.93 -111,-46.93 -43.204,0 -79.5,14.719 -108.899,44.156 -29.406,29.438 -44.102,65.789 -44.102,109.047 0,43.258 14.695,79.703 44.102,109.344 3.539,3.568 7.181,6.917 10.92,10.055 1.031,3.403 2.527,6.821 4.51,10.256 l 26.699,46.245 c 10,17.32 12.336,35.602 7.002,54.846 -5.327,19.242 -16.678,33.879 -34.053,43.91 -17.361,10.023 -35.621,12.49 -54.775,7.393 -19.15,-5.092 -33.729,-16.295 -43.725,-33.609 -2.594,-4.492 -4.718,-9.264 -6.379,-14.314 l 58.554,15.92 c 11.99,3.297 22.272,2.467 30.858,-2.49 9.621,-5.555 15.991,-13.959 19.102,-25.227 3.111,-11.27 1.869,-21.748 -3.732,-31.449 -5,-8.66 -13.19,-14.785 -24.582,-18.375 L 193.414,336.093 c -13.436,-5.63 -25.891,-5.141 -37.359,1.48 -8.681,5.012 -14.671,13.089 -17.964,24.229 -11.887,41.973 -6.939,81.84 14.857,119.594 21.602,37.414 52.497,61.488 92.69,72.23 40.197,10.748 79.026,5.299 116.488,-16.33 37.461,-21.629 61.677,-52.578 72.643,-92.865 1.277,-4.691 2.324,-9.361 3.16,-14.012 2.413,-2.584 4.609,-5.572 6.578,-8.984 l 26.699,-46.244 c 10,-17.32 24.664,-28.484 43.998,-33.487 19.328,-5.007 37.678,-2.495 55.053,7.536 17.361,10.023 28.629,24.602 33.791,43.74 5.166,19.129 2.752,37.357 -7.244,54.67 -2.594,4.494 -5.666,8.719 -9.207,12.682 l -15.492,-58.668 c -3.137,-12.033 -8.998,-20.521 -17.584,-25.479 -9.621,-5.555 -20.084,-6.869 -31.398,-3.93 -11.314,2.941 -19.768,9.254 -25.369,18.957 -5,8.66 -6.209,18.814 -3.621,30.475 l 26.729,104.111 c 1.842,14.449 8.492,24.992 19.961,31.613 8.682,5.012 18.672,6.16 29.965,3.443 42.293,-10.691 74.346,-34.91 96.143,-72.664 21.6,-37.415 27.001,-76.208 16.208,-116.387 z"
           id="path23"
           style="fill:url(#SVGID_2_);stroke:#5b7749;stroke-width:5" />
        <g
           id="g39">
          <linearGradient
             id="linearGradient7"
             gradientUnits="userSpaceOnUse"
             x1="265.50101"
             y1="95.265602"
             x2="380.50079"
             y2="330.26489">
            <stop
               offset="0"
               style="stop-color:#FFFFFF"
               id="stop6" />
            <stop
               offset="1"
               style="stop-color:#FFFFFF"
               id="stop7" />
          </linearGradient>
          <path
             d="m 137.208,361.342 c 2.304,-7.794 5.933,-14.082 10.875,-18.877 -0.336,-5.336 -0.527,-10.712 -0.527,-16.133 0,-101.002 59.312,-188.137 144.996,-228.518 3.986,-5.122 8.351,-10.065 13.105,-14.826 29.398,-29.438 65.696,-44.156 108.899,-44.156 43.594,0 80.594,15.648 111,46.93 8,8.422 12,17.648 12,27.672 0,0.365 -0.021,0.721 -0.03,1.083 38.732,25.189 70.124,60.713 90.271,102.661 4.848,-1.429 9.706,-2.847 14.579,-4.247 -20.205,-43.096 -51.554,-79.922 -90.329,-106.736 -0.645,-4.527 -1.898,-8.962 -3.729,-13.166 -2.794,-6.44 -6.867,-12.316 -11.888,-17.597 l -0.094,-0.101 -0.024,-0.024 C 519.871,58.38 501.3,45.391 480.842,36.75 460.393,28.094 438.141,23.823 414.557,23.832 c -23.298,-0.007 -45.188,3.991 -65.264,12.139 -20.079,8.131 -38.266,20.397 -54.251,36.417 -4.306,4.312 -8.334,8.776 -12.082,13.389 -89.041,43.399 -150.392,134.821 -150.404,240.553 0,3.633 0.081,7.231 0.228,10.798 -4.501,5.817 -7.804,12.614 -9.961,19.961 l -0.026,0.088 -0.022,0.076 c -4.541,16.027 -6.863,31.98 -6.861,47.741 -0.026,28.904 7.877,57.024 23.162,83.44 0.408,0.707 0.827,1.4 1.242,2.1 3.559,-3.827 7.143,-7.616 10.762,-11.353 -20.948,-37.234 -25.575,-76.515 -13.872,-117.839 z"
             id="path30"
             style="opacity:0.25;fill:url(#SVGID_3_)" />
          <linearGradient
             id="linearGradient10"
             gradientUnits="userSpaceOnUse"
             x1="265.51169"
             y1="95.2603"
             x2="380.5116"
             y2="330.25949">
            <stop
               offset="0"
               style="stop-color:#FFFFFF"
               id="stop8" />
            <stop
               offset="1"
               style="stop-color:#FFFFFF"
               id="stop10" />
          </linearGradient>
          <path
             d="m 537.526,114.517 c 0.009,-0.362 0.03,-0.718 0.03,-1.083 0,-10.023 -4,-19.25 -12,-27.672 -30.406,-31.281 -67.406,-46.93 -111,-46.93 -43.203,0 -79.501,14.719 -108.899,44.156 -4.755,4.76 -9.119,9.704 -13.105,14.826 -85.685,40.38 -144.996,127.516 -144.996,228.518 0,5.421 0.191,10.797 0.527,16.133 -4.942,4.795 -8.571,11.083 -10.875,18.877 -11.703,41.324 -7.076,80.605 13.871,117.84 3.641,-3.76 7.321,-7.46 11.022,-11.129 122.778,-121.7 278.53,-194.236 451.114,-246.516 4.848,-1.468 9.707,-2.922 14.581,-4.359 -20.146,-41.948 -51.537,-77.471 -90.27,-102.661 z"
             id="path37"
             style="opacity:0.25;fill:url(#SVGID_4_)" />
        </g>
      </g>
      <path
         style="fill:#424241;fill-opacity:0.941176;stroke-width:2.23224"
         id="path7"
         d="m -212.41981,47.749479 v 18.759734 h -176.34686 c 1.66748,26.405158 9.62094,46.519857 23.8671,60.346327 14.24168,13.82874 34.08182,20.73975 59.51148,20.73975 14.7283,0 29.00794,-1.80589 42.83665,-5.41988 13.8265,-3.61177 27.54807,-9.03165 41.16917,-16.25962 v 36.27163 c -13.75728,5.83508 -27.86279,10.28394 -42.31653,13.33985 -14.45376,3.05595 -29.11287,4.58727 -43.98181,4.58727 -37.24489,0 -66.73946,-10.83753 -88.48816,-32.51704 -21.75096,-21.6795 -32.62195,-50.999948 -32.62195,-87.96582 0,-38.213688 10.3174,-68.5431094 30.95445,-90.988287 20.63705,-22.440678 48.46415,-33.664374 83.48351,-33.664374 31.40314,0 56.2457,10.109791 74.52106,30.329421 18.27309,20.219606 27.41189,47.702929 27.41189,82.441039 z m -38.35434,-11.257173 c -0.27903,-20.98083 -6.14757,-37.7270725 -17.61459,-50.236538 -11.46477,-12.507228 -26.64847,-18.759734 -45.54659,-18.759734 -21.40047,0 -38.53068,6.044902 -51.38169,18.136945 -12.85545,12.089805 -20.25532,29.112845 -22.19959,51.069145 z" />
      <path
         style="fill:#424241;fill-opacity:0.941176;stroke-width:2.23224"
         id="path9"
         d="M -37.305149,40.869708 V 174.06964 h -38.354337 v -35.43681 c -8.754828,14.17697 -19.666011,24.63278 -32.726834,31.3719 -13.0653,6.74136 -29.04591,10.10981 -47.94403,10.10981 -23.90282,0 -42.90811,-6.70343 -57.01138,-20.11472 -14.10551,-13.41129 -21.15717,-31.37411 -21.15717,-53.88624 0,-26.264508 8.78833,-46.066692 26.36944,-59.40655 17.57888,-13.342097 43.80769,-20.012026 78.68864,-20.012026 h 53.77912 v -3.752399 c 0,-17.645853 -5.803821,-31.2982248 -17.404771,-40.961568 -11.605399,-9.656677 -27.900769,-14.487241 -48.879339,-14.487241 -13.34209,0 -26.33596,1.600521 -38.97936,4.794848 -12.64785,3.198804 -24.80464,7.991415 -36.47923,14.382308 v -35.432306 c 14.03407,-5.419876 27.65297,-9.484789 40.85665,-12.194738 13.20148,-2.709926 26.05693,-4.064889 38.56192,-4.064889 33.76933,0 58.991392,8.757066 75.666203,26.266747 16.674835,17.507442 25.014478,44.0532242 25.014478,79.623942 z M -113.80619,56.71415 c -30.99019,0 -52.45985,3.542557 -64.41127,10.629909 -11.95363,7.08959 -17.9271,19.179394 -17.9271,36.271651 0,13.62113 4.48233,24.42293 13.44476,32.41434 8.96468,7.99142 21.15939,11.9849 36.58417,11.9849 21.26208,0 38.31862,-7.53604 51.174078,-22.61704 12.853219,-15.07655 19.282066,-35.122057 19.282066,-60.136512 v -8.54501 h -38.146704 z" />
      <path
         style="fill:#424241;fill-opacity:0.941176;stroke-width:2.23224"
         id="path11"
         d="m 126.49429,-52.513754 v 36.269415 c -10.83975,-5.556048 -22.09469,-9.723632 -33.769309,-12.507228 -11.672382,-2.779143 -23.764401,-4.169822 -36.269414,-4.169822 -19.040984,0 -33.320621,2.919768 -42.836649,8.754829 -9.5205036,5.837298 -14.27739827,14.5921498 -14.27739827,26.2667462 0,8.8932388 3.40193177,15.8756818 10.21472427,20.9495658 6.806078,5.073885 20.496404,9.902211 41.064263,14.485003 l 13.132254,2.919768 c 27.23555,5.837298 46.589049,14.072033 58.053829,24.699727 11.46477,10.632147 17.19716,25.467594 17.19716,44.50636 0,21.67727 -8.58296,38.84096 -25.74441,51.48436 -17.163667,12.64787 -40.751751,18.96957 -70.768658,18.96957 -12.507228,0 -25.534573,-1.21881 -39.0842735,-3.64749 C -10.143268,174.03614 -24.420667,170.38867 -39.43024,165.52239 V 125.918 c 14.174704,7.36863 28.139589,12.8912 41.8991083,16.57214 13.7573047,3.68321 27.3761757,5.52481 40.8566827,5.52481 18.063275,0 31.961181,-3.09166 41.68929,-9.27497 9.725846,-6.18329 14.592126,-14.90464 14.592126,-26.16184 0,-10.4223 -3.511294,-18.411501 -10.527238,-23.969764 C 82.061571,83.052328 66.670291,77.699432 42.908104,72.558568 L 29.566032,69.433434 C 5.8016066,64.431005 -11.362083,56.752104 -21.92056,46.398969 -32.483513,36.048072 -37.762764,21.837653 -37.762764,3.7721389 c 0,-21.9562999 7.781596,-38.9101469 23.344764,-50.8615649 15.5631686,-11.951394 37.657855,-17.927102 66.286322,-17.927102 14.174704,0 27.514562,1.042449 40.021814,3.127372 12.507224,2.080446 24.041194,5.20558 34.604154,9.375402 z" />
      <path
         style="fill:#424241;fill-opacity:0.941176;stroke-width:2.23224"
         id="path13"
         d="m 234.0324,195.74914 c -10.83753,27.79136 -21.4027,45.92607 -31.6844,54.40412 -10.28392,8.47582 -24.04344,12.71484 -41.27187,12.71484 H 130.4342 v -32.10184 h 22.51213 c 10.55848,0 18.75973,-2.5001 24.59703,-7.50256 5.8373,-5.00242 12.29965,-16.81543 19.387,-35.43678 l 6.87975,-17.50968 -94.42815,-229.710765 h 40.64681 l 72.95852,182.601605 72.95849,-182.601605 h 40.6446 z" />
      <path
         style="fill:#4d603d;fill-opacity:0.941176;stroke-width:2.23224"
         id="path15"
         d="M 395.92104,86.005574 V 174.06964 H 335.91623 V -58.636778 h 91.64903 c 30.64865,0 53.12059,5.145292 67.41137,15.431448 14.28188,10.286156 21.42949,26.552497 21.42949,48.783356 0,15.382351 -3.71444,28.005655 -11.14333,37.876626 -7.42889,9.873186 -18.6258,17.145831 -33.58849,21.820127 8.20571,1.870628 15.56093,6.105167 22.05675,12.70145 6.49135,6.600712 13.06306,16.601142 19.71514,30.003501 l 32.57728,66.08543 h -63.90675 l -28.36729,-57.81943 c -5.71677,-11.63667 -11.50942,-19.585675 -17.37798,-23.849239 -5.87304,-4.259111 -13.6948,-6.390917 -23.46084,-6.390917 z m 25.25109,-41.457137 c 12.56973,0 21.58576,-2.339386 27.04356,-7.01592 5.45338,-4.676534 8.17893,-12.364364 8.17893,-23.067943 0,-10.5986692 -2.72555,-18.1838281 -8.17893,-22.755453 -5.4578,-4.571625 -14.47383,-6.857437 -27.04356,-6.857437 h -25.25332 v 59.696753 z" />
      <path
         style="fill:#4d603d;fill-opacity:0.941176;stroke-width:2.23224"
         id="path17"
         d="m 549.79372,-58.636778 h 99.5958 c 29.61287,0 52.34377,6.573925 68.19267,19.717346 15.84442,13.147898 23.7644,31.8741541 23.7644,56.189912 0,24.418477 -7.9222,43.20276 -23.7644,56.343943 -15.8489,13.147898 -38.5798,19.71737 -68.19267,19.71737 h -39.59098 v 80.737847 h -60.00482 z m 60.00258,43.488462 v 64.993861 h 33.20009 c 11.63667,0 20.62589,-2.830478 26.96544,-8.493674 6.33508,-5.663171 9.50934,-13.690302 9.50934,-24.081391 0,-10.3888266 -3.17426,-18.3914083 -9.50934,-24.0032444 -6.33955,-5.6118596 -15.32877,-8.4177896 -26.96544,-8.4177896 H 609.7963 Z" />
      <path
         style="fill:#4d603d;fill-opacity:0.941176;stroke-width:2.23224"
         id="path19"
         d="m 960.99442,156.76978 c -14.96269,7.27486 -30.50131,12.72824 -46.6069,16.36453 -16.10562,3.63633 -32.7291,5.4556 -49.87714,5.4556 -38.75838,0 -69.46058,-10.83528 -92.11558,-32.49916 -22.65276,-21.6661 -33.97691,-51.044597 -33.97691,-88.142166 0,-37.508325 11.53176,-67.0185202 34.5997,-88.530587 23.06797,-21.507637 54.65413,-32.262551 94.76524,-32.262551 15.4828,0 30.31827,1.455419 44.50191,4.36402 14.18365,2.91084 27.55923,7.223525 40.13341,12.935818 V 2.6180656 C 939.431,-4.7594654 926.51973,-10.264178 913.68882,-13.902715 c -12.83538,-3.636323 -25.69753,-5.455591 -38.57977,-5.455591 -23.9006,0 -42.31656,6.678858 -55.25238,20.02985942 C 806.92083,14.024817 800.45182,33.119375 800.45182,57.950798 c 0,24.628296 6.23464,43.642512 18.70392,57.049332 12.4693,13.40236 30.1821,20.10577 53.15183,20.10577 6.23465,0 12.02509,-0.39064 17.37798,-1.16746 5.34845,-0.78127 10.15446,-2.00008 14.41803,-3.66532 V 85.074748 H 867.477 V 44.858736 h 93.51966 V 156.76978 Z" />
      <g
         id="g21"
         style="opacity:0.3;fill:#ffffff;fill-opacity:1"
         transform="matrix(2.2322387,0,0,2.2322387,-565.07112,-634.90261)">
        <path
           d="m 191.326,255.296 c -5.603,0 -11.362,0.607 -17.275,1.821 -5.915,1.214 -12.016,3.035 -18.303,5.463 v 15.875 c 5.229,-2.863 10.676,-5.011 16.342,-6.443 5.664,-1.432 11.486,-2.148 17.462,-2.148 9.399,0 16.699,2.164 21.897,6.49 5.197,4.328 7.797,10.444 7.797,18.35 v 1.681 h -24.092 c -15.626,0 -27.376,2.988 -35.251,8.965 -0.673,0.511 -1.307,1.05 -1.922,1.604 v -1.137 c 0,-15.563 -4.094,-27.874 -12.279,-36.933 -8.187,-9.058 -19.315,-13.587 -33.384,-13.587 -15.688,0 -28.154,5.028 -37.399,15.081 -9.245,10.055 -13.867,23.642 -13.867,40.761 0,6.486 0.758,12.438 2.252,17.874 4.784,-0.84 10.714,-1.854 17.619,-2.99 -1.02,-3.562 -1.67,-7.492 -1.942,-11.802 h 73.203 c -0.279,0.504 -0.543,1.019 -0.793,1.543 8.524,-1.083 17.378,-2.148 26.483,-3.169 5.625,-1.84 13.715,-2.763 24.285,-2.763 h 2.24 c 10.506,-1.008 21.221,-1.927 32.031,-2.724 v -4.374 c 0,-15.936 -3.735,-27.827 -11.206,-35.671 -7.472,-7.844 -18.77,-11.767 -33.898,-11.767 z m -111.785,45.57 c 0.871,-9.836 4.186,-17.462 9.945,-22.878 5.757,-5.417 13.431,-8.125 23.018,-8.125 8.466,0 15.268,2.802 20.404,8.404 5.136,5.604 7.765,13.105 7.891,22.505 z m 324.248,-42.71 0.137,-0.339 h -18.209 l -19.312,48.336 c 5.369,0.471 10.627,1.025 15.753,1.672 0.526,0.066 1.059,0.131 1.588,0.197 l 19.879,-49.458 v -0.409 h 0.164 z m -101.648,-0.339 0.262,0.636 c -2.589,-0.703 -5.288,-1.289 -8.096,-1.756 -5.603,-0.935 -11.579,-1.401 -17.929,-1.401 -12.825,0 -22.724,2.678 -29.695,8.031 -6.973,5.354 -10.458,12.949 -10.458,22.785 0,8.093 2.365,14.459 7.097,19.096 0.458,0.449 0.952,0.883 1.466,1.31 14.726,-0.99 29.573,-1.733 44.263,-2.138 -2.291,-0.659 -4.734,-1.272 -7.35,-1.833 l -5.883,-1.308 c -9.214,-2.054 -15.347,-4.216 -18.396,-6.489 -3.051,-2.272 -4.576,-5.4 -4.576,-9.385 0,-5.229 2.131,-9.151 6.396,-11.767 4.263,-2.614 10.66,-3.922 19.19,-3.922 5.603,0 11.019,0.623 16.248,1.868 5.229,1.246 10.272,3.113 15.128,5.603 v -0.679 l 11.349,27.608 c 6.02,0.063 11.973,0.198 17.841,0.412 l -18.647,-46.672 h -18.21 z m 172.74,7.252 c -6.402,-4.608 -16.469,-6.913 -30.199,-6.913 h -40.893 l -0.164,0.409 v 51.646 c 19.899,1.938 41.397,3.343 63.491,4.278 -0.868,-0.34 -1.76,-0.614 -2.675,-0.823 6.703,-2.095 11.719,-5.353 15.047,-9.775 3.328,-4.422 4.992,-10.077 4.992,-16.968 0,-9.959 -3.201,-17.245 -9.599,-21.854 z m -20.947,36.169 c -2.445,2.095 -6.484,3.143 -12.115,3.143 h -11.313 v -26.743 h 11.313 c 5.631,0 9.67,1.024 12.115,3.072 2.443,2.049 3.664,5.446 3.664,10.194 0,4.795 -1.221,8.24 -3.664,10.334 z m 120.67,-34.249 c -7.1,-5.888 -17.283,-8.833 -30.549,-8.833 h -44.617 v 57.368 c 26.091,0.577 52.332,0.563 77.152,0.056 5.767,-5.757 8.66,-13.558 8.66,-23.419 0,-10.892 -3.549,-19.282 -10.646,-25.172 z m -21.333,35.96 c -2.84,2.537 -6.867,3.805 -12.08,3.805 h -14.873 v -29.116 h 14.873 c 5.213,0 9.24,1.257 12.08,3.771 2.838,2.514 4.26,6.099 4.26,10.753 0,4.654 -1.422,8.25 -4.26,10.787 z m 88.483,1.571 v 8.396 c 15.918,-1.032 30.121,-2.297 41.895,-3.75 v -4.646 z m 3.42,-28.768 c 5.771,0 11.533,0.815 17.283,2.444 5.748,1.63 11.531,4.097 17.35,7.401 v -21.576 c -5.633,-2.559 -11.625,-4.491 -17.979,-5.795 -6.354,-1.303 -13,-1.955 -19.936,-1.955 -17.969,0 -32.119,4.818 -42.453,14.453 -10.334,9.637 -15.5,22.857 -15.5,39.66 0,1.715 0.067,3.384 0.176,5.025 9.521,-0.235 18.801,-0.544 27.752,-0.918 -0.092,-1.328 -0.139,-2.696 -0.139,-4.107 0,-11.124 2.898,-19.678 8.693,-25.66 5.796,-5.98 14.046,-8.972 24.753,-8.972 z"
           id="path23-3"
           style="fill:#ffffff;fill-opacity:1" />
      </g>
    </g>
    <g
       id="layer4"
       transform="matrix(0.57964484,0,0,0.57964484,67.806509,-222.87174)" />
  </g>
</svg>
