<?xml version="1.0" encoding="UTF-8" standalone="no"?>
<!-- Created with Inkscape (http://www.inkscape.org/) -->

<svg
   width="1015.7485mm"
   height="124.90979mm"
   viewBox="0 0 1015.7485 124.90979"
   version="1.1"
   id="svg1"
   inkscape:version="1.3.2 (091e20e, 2023-11-25, custom)"
   sodipodi:docname="famicom.svg"
   xmlns:inkscape="http://www.inkscape.org/namespaces/inkscape"
   xmlns:sodipodi="http://sodipodi.sourceforge.net/DTD/sodipodi-0.dtd"
   xmlns="http://www.w3.org/2000/svg"
   xmlns:svg="http://www.w3.org/2000/svg">
  <sodipodi:namedview
     id="namedview1"
     pagecolor="#ffffff"
     bordercolor="#000000"
     borderopacity="0.25"
     inkscape:showpageshadow="2"
     inkscape:pageopacity="0.0"
     inkscape:pagecheckerboard="0"
     inkscape:deskcolor="#d1d1d1"
     inkscape:document-units="mm"
     inkscape:zoom="0.40511539"
     inkscape:cx="1340.3589"
     inkscape:cy="378.90439"
     inkscape:window-width="3840"
     inkscape:window-height="2054"
     inkscape:window-x="-11"
     inkscape:window-y="-11"
     inkscape:window-maximized="1"
     inkscape:current-layer="layer1" />
  <defs
     id="defs1" />
  <g
     inkscape:label="Layer 1"
     inkscape:groupmode="layer"
     id="layer1"
     transform="translate(214.3125,-45.508333)">
    <g
       id="g3"
       transform="matrix(0.26458333,0,0,0.26458333,-214.3125,45.508333)">
	<g
   id="g2">
		<polygon
   class="st5"
   points="3805.8,432.1 3763.2,472.1 0,472.1 0,432.1 "
   id="polygon1"
   style="fill:#e33a25" />

		<path
   class="st5"
   d="m 1409.6,195.2 c -0.9,106.7 84.8,194.2 191.6,195.4 71.5,-0.3 136.8,-40.6 169.1,-104.3 l 0.8,-1.5 h -84.2 c -22.8,22.6 -53.5,35.4 -85.7,35.6 -69.1,-1.9 -123.6,-59.2 -121.7,-128.3 1.7,-66.5 55.3,-120.1 121.7,-121.7 31.8,0.1 62.3,12.7 84.8,35.2 l 85.1,0.2 -0.8,-1.5 C 1738,40.5 1672.7,0.3 1601.2,0 1494.3,1.1 1408.7,88.4 1409.6,195.2 Z m 365.3,1.1 c 2.1,105.8 89.5,189.9 195.4,187.8 105.8,-2.1 189.9,-89.5 187.8,-195.4 C 2156,84.5 2070.9,1 1966.6,0.9 1859.7,2.1 1774,89.5 1774.9,196.3 Z m 69.1,0 c 1.4,-67.6 57.4,-121.4 125,-120 67.6,1.4 121.4,57.4 120,125 -1.4,66.6 -55.8,120 -122.5,120 -68.3,-0.7 -123.1,-56.7 -122.5,-125 z M 3538.6,2.5 h -193.1 v 384.8 h 193.9 V 313.2 H 3418.1 V 236 h 121.3 V 161.9 H 3418.1 V 76.5 h 121.3 V 2.4 h -1.1 0.2 V 2.5 Z M 435,2.5 H 377.9 L 112.6,387.4 h 82.2 c 0,0 41,-59.7 41.5,-60.5 h 129.8 v 60.5 h 69.8 V 2.5 Z M 288,251.4 366.1,137.1 v 121.1 h -82.6 c 1.4,-2.2 4.5,-6.8 4.5,-6.8 z M 2572.7,2.6 h -81 c 0,0 -113,261.1 -114.8,265.3 C 2375,263.6 2261.6,2.6 2261.6,2.6 h -81.8 v 384.9 h 72.4 V 195.9 c 1.2,-0.3 6.9,-1.5 8.1,-1.9 l 84.1,193.5 h 64.7 c 0,0 83.3,-191.8 83.9,-193.4 1.2,0.2 6.9,1.5 8.2,1.7 v 191.5 h 72.4 V 2.6 Z m 532.3,0 h -71.8 v 259.8 c 0.4,27.5 -21.6,50.2 -49.2,50.6 -27.5,0.4 -50.2,-21.6 -50.6,-49.2 0,-0.4 0,-1 0,-1.4 V 2.6 h -72.7 v 259.8 c -1.1,67.7 52.9,123.5 120.6,124.6 67.7,1.1 123.5,-52.9 124.6,-120.6 0,-1.3 0,-2.6 0,-3.9 V 2.7 Z m 457.6,0.1 h -1.1 v 386.1 h 72.7 V 185.6 c 3.6,6.1 120,201.8 120,201.8 h 81.6 c 0,0 -81.9,-138.1 -83.1,-140.3 1.5,-0.5 4.8,-1.7 4.8,-1.7 64.9,-24.3 97.8,-96.5 73.6,-161.3 C 3813.3,36.4 3768.4,4.2 3717.5,2.6 Z m 155.1,73.9 c 27.4,1 49.2,23.6 48.9,51.1 0.4,27.5 -21.4,50.3 -48.9,50.8 h -83.4 V 76.6 Z M 2596.9,2.7 h -1 v 384.8 h 72.7 v -137 h 51.8 C 2788.8,249.2 2843.2,192.7 2842,124.3 2840.7,57.7 2787,4 2720.3,2.7 Z m 123.4,73.9 c 27.6,0.5 49.5,23.4 48.9,51 -0.5,26.8 -22.2,48.4 -48.9,48.9 h -51.8 v -100 h 51.8 z M 3324,2.7 h -197.2 v 73.9 h 62.6 v 310.8 h 72.7 V 76.6 H 3325 V 2.7 Z m -1957.1,0 h -75.2 c 0,0 -77.2,150.6 -79,154.1 -1.7,-3.4 -79,-154.1 -79,-154.1 h -76.9 l 119.5,236.5 -0.1,148.3 h 72.9 l 0.2,-148.7 c 0.1,0 118.5,-234.6 118.5,-234.6 l 0.8,-1.5 z m -329.8,0 h -71.6 v 384.7 h 170.9 v -74.1 h -98.3 V 2.7 Z m -94.7,0 h -68.1 v 384.7 h 69.1 V 2.7 Z m -91.3,0 H 770 c 0,0 -113,260.9 -114.8,265.1 L 540,2.7 h -81.7 v 384.7 h 72.4 V 195.8 c 1.2,-0.2 6.9,-1.5 8.1,-1.7 0.7,1.5 84.1,193.4 84.1,193.4 h 64.7 l 84,-193.4 c 1.2,0.3 6.9,1.5 8.1,1.9 v 191.5 h 72.4 V 2.7 Z m -652.7,0 H 0 V 387.4 H 73.9 V 235.9 H 199.4 V 162.3 H 73.9 V 73.6 H 199.4 V 2.8 Z"
   id="path1"
   style="fill:#e33a25" />

	</g>

</g>
  </g>
</svg>
