<?xml version="1.0" encoding="UTF-8" standalone="no"?>
<!-- Created with Inkscape (http://www.inkscape.org/) -->

<svg
   width="1016mm"
   height="179.73146mm"
   viewBox="0 0 1016 179.73146"
   version="1.1"
   id="svg1"
   inkscape:version="1.3.2 (091e20e, 2023-11-25, custom)"
   sodipodi:docname="fds.svg"
   xmlns:inkscape="http://www.inkscape.org/namespaces/inkscape"
   xmlns:sodipodi="http://sodipodi.sourceforge.net/DTD/sodipodi-0.dtd"
   xmlns="http://www.w3.org/2000/svg"
   xmlns:svg="http://www.w3.org/2000/svg">
  <sodipodi:namedview
     id="namedview1"
     pagecolor="#ffffff"
     bordercolor="#000000"
     borderopacity="0.25"
     inkscape:showpageshadow="2"
     inkscape:pageopacity="0.0"
     inkscape:pagecheckerboard="0"
     inkscape:deskcolor="#d1d1d1"
     inkscape:document-units="mm"
     inkscape:zoom="0.40511539"
     inkscape:cx="782.49311"
     inkscape:cy="-628.21607"
     inkscape:window-width="3840"
     inkscape:window-height="2054"
     inkscape:window-x="-11"
     inkscape:window-y="-11"
     inkscape:window-maximized="1"
     inkscape:current-layer="layer1" />
  <defs
     id="defs1" />
  <g
     inkscape:label="Layer 1"
     inkscape:groupmode="layer"
     id="layer1"
     transform="translate(402.96042,-58.7375)">
    <g
       id="g27"
       transform="matrix(0.26458333,0,0,0.26458333,-402.96042,58.7375)">
	<g
   id="g9">
		<g
   id="g2">
			<path
   class="st0"
   d="m 664.2,503.1 v -13 l 10.9,-7 c 31.3,-20 50,-53.9 50,-90.7 0,-36.8 -18.7,-70.6 -50,-90.7 l -10.9,-7 v -13 -213.8 c 0,-23.7 -19.3,-43.1 -43,-43.1 H 127.6 c -23.7,0 -43.1,19.3 -43.1,43.1 v 213.9 13 l -10.9,7 c -31.3,20 -49.9,53.9 -49.9,90.7 0,36.8 18.7,70.6 49.9,90.7 l 10.9,7 v 13 46.7 22.1 l -22.2,1.4 c -21.7,1.4 -38.6,19.3 -38.6,40.9 0,22.8 18.5,41.3 41.2,41.3 h 219.6 c 10.5,-39.8 46.8,-69.2 89.8,-69.2 43,0 79.4,29.4 89.8,69.2 h 219.6 c 22.8,0 41.2,-18.5 41.2,-41.3 0,-21.6 -17,-39.5 -38.7,-40.9 L 664,572 v -22.3 z"
   id="path1"
   style="fill:#fdbc1a" />

		</g>

		<g
   id="g5">
			<g
   id="g4">
				<g
   id="g3">
					<path
   d="m 519.4,153.1 c 28.8,0 55.9,11.2 76.2,31.6 20.4,20.4 31.6,47.4 31.6,76.3 0,28.8 -11.2,55.9 -31.6,76.2 -20.4,20.4 -47.5,31.6 -76.2,31.6 -28.7,0 -55.9,-11.2 -76.2,-31.6 -20.4,-20.4 -31.6,-47.5 -31.6,-76.2 0,-28.8 11.2,-55.9 31.6,-76.3 20.3,-20.4 47.4,-31.6 76.2,-31.6 m 0,-23.7 c -72.6,0 -131.5,58.9 -131.5,131.5 0,72.6 58.9,131.5 131.5,131.5 C 592,392.4 651,333.5 651,260.9 651,188.3 592.1,129.4 519.4,129.4 Z"
   id="path2" />

				</g>

			</g>

			<circle
   cx="430.29999"
   cy="260.89999"
   r="31.799999"
   id="circle3" />

		</g>

		<g
   id="g8">
			<g
   id="g7">
				<g
   id="g6">
					<path
   d="m 229.4,153.1 c 28.8,0 55.9,11.2 76.2,31.6 20.4,20.4 31.6,47.4 31.6,76.3 0,28.8 -11.2,55.9 -31.6,76.2 -20.4,20.4 -47.5,31.6 -76.2,31.6 -28.7,0 -55.9,-11.2 -76.2,-31.6 -20.4,-20.4 -31.6,-47.5 -31.6,-76.2 0,-28.8 11.2,-55.9 31.6,-76.3 20.3,-20.4 47.4,-31.6 76.2,-31.6 m 0,-23.7 c -72.6,0 -131.5,58.9 -131.5,131.5 0,72.6 58.9,131.5 131.5,131.5 72.6,0 131.5,-58.9 131.5,-131.5 0,-72.6 -58.9,-131.5 -131.5,-131.5 z"
   id="path4" />

				</g>

			</g>

			<circle
   cx="318.5"
   cy="260.89999"
   r="31.799999"
   id="circle6" />

		</g>

		<path
   d="m 621.2,24.8 c 23.7,0 43,19.3 43,43.1 v 213.9 13 l 10.9,7 c 31.3,20 50,53.9 50,90.7 0,36.8 -18.7,70.6 -50,90.7 l -10.9,7 v 13 46.7 22.1 l 22.2,1.4 c 21.7,1.4 38.7,19.3 38.7,40.9 0,22.8 -18.5,41.3 -41.2,41.3 H 464.2 c -10.5,-39.8 -46.8,-69.2 -89.8,-69.2 -43,0 -79.4,29.4 -89.8,69.2 H 64.9 c -22.8,0 -41.2,-18.5 -41.2,-41.3 0,-21.6 17,-39.5 38.6,-40.9 L 84.5,572 V 549.7 503 490 L 73.6,483 C 42.3,463 23.7,429.1 23.7,392.3 c 0,-36.8 18.7,-70.6 49.9,-90.7 l 10.9,-7 v -13 -213.7 c 0,-23.7 19.3,-43.1 43.1,-43.1 h 493.6 m 0,-23.7 H 127.6 C 90.7,1.1 60.8,31 60.8,67.9 V 281.8 C 24.4,305.2 0,345.9 0,392.4 0,439 24.4,479.7 60.9,503 v 46.7 C 26.9,551.9 0,579.8 0,614.3 c 0,35.9 29.1,65 64.9,65 h 240.2 c 0,-38.2 31,-69.2 69.2,-69.2 38.2,0 69.2,31 69.2,69.2 h 240.2 c 35.9,0 64.9,-29.1 64.9,-65 0,-34.5 -26.9,-62.4 -60.9,-64.5 v -46.7 c 36.5,-23.4 60.9,-64 60.9,-110.6 0,-46.6 -24.3,-87.3 -60.9,-110.6 V 67.9 C 687.9,31 658,1.1 621.2,1.1 Z"
   id="path7" />

	</g>

	<g
   id="g18">
		<path
   d="M 1028.2,222.1 H 827.7 v 457.1 h 200.6 c 38.1,0 69,-30.9 69,-69 V 291.1 c -0.1,-38.1 -31,-69 -69.1,-69 z m 45.4,388.1 c 0,25 -20.3,45.3 -45.3,45.3 h -177 V 245.7 h 176.9 c 25,0 45.3,20.3 45.3,45.3 v 319.2 z"
   id="path8" />

		<path
   d="m 1515.3,452.6 -116,-77.7 v -30.7 c 0,-7.2 6.4,-12.9 13.8,-11.6 5.8,1 9.8,6.4 9.8,12.3 v 18 7.1 l 123,82.6 V 291 c 0,-38.1 -30.9,-69 -69,-69 h -131.6 c -38.1,0 -69,30.9 -69,69 v 100.3 c 0,23 11.5,44.5 30.6,57.3 l 116,77.7 V 557 c 0,7.2 -6.4,12.8 -13.8,11.6 -5.8,-0.9 -9.8,-6.4 -9.8,-12.3 v -18 -7.1 l -123,-82.6 v 161.6 c 0,38.1 30.9,69 69,69 h 131.6 c 38.1,0 69,-30.9 69,-69 V 520.5 542.6 510 c 0,-23.1 -11.5,-44.6 -30.6,-57.4 z m 6.9,67.9 v 0 89.7 c 0,25 -20.3,45.3 -45.3,45.3 h -131.6 c -25,0 -45.3,-20.3 -45.3,-45.3 V 493.1 l 75.7,50.8 v 12.6 c 0,17.8 12.5,32.8 29.7,35.6 1.9,0.3 3.8,0.5 5.8,0.5 8.4,0 16.5,-3 23,-8.4 7.9,-6.8 12.5,-16.6 12.5,-27 v -30.7 -12.6 l -10.5,-7 -116,-77.7 c -12.6,-8.4 -20.1,-22.5 -20.1,-37.7 V 291.1 c 0,-25 20.3,-45.3 45.3,-45.3 H 1477 c 25,0 45.3,20.3 45.3,45.3 v 117.2 l -75.7,-50.8 v -12.6 c 0,-17.9 -12.5,-32.8 -29.7,-35.6 -1.9,-0.3 -3.8,-0.5 -5.8,-0.5 -8.4,0 -16.5,3 -23,8.4 -7.9,6.8 -12.5,16.6 -12.5,27 v 30.7 12.6 l 10.5,7 116,77.7 c 12.6,8.4 20.1,22.5 20.1,37.7 z"
   id="path9" />

		<path
   d="m 2864.4,452.6 -116,-77.7 v -30.7 c 0,-7.2 6.4,-12.9 13.8,-11.6 5.8,1 9.8,6.4 9.8,12.3 v 18 7.1 l 123,82.6 V 291 c 0,-38.1 -30.9,-69 -69,-69 h -131.6 c -38.1,0 -69,30.9 -69,69 v 100.3 c 0,23 11.5,44.5 30.6,57.3 l 116,77.7 V 557 c 0,7.2 -6.4,12.8 -13.8,11.6 -5.8,-0.9 -9.8,-6.4 -9.8,-12.3 v -18 -7.1 l -123,-82.6 v 161.6 c 0,38.1 30.9,69 69,69 H 2826 c 38.1,0 69,-30.9 69,-69 V 520.5 542.6 510 c -0.1,-23.1 -11.5,-44.6 -30.6,-57.4 z m 6.9,67.9 v 0 89.7 c 0,25 -20.3,45.3 -45.3,45.3 h -131.6 c -25,0 -45.3,-20.3 -45.3,-45.3 V 493.1 l 75.7,50.8 v 12.6 c 0,17.8 12.5,32.8 29.7,35.6 1.9,0.3 3.9,0.5 5.8,0.5 8.4,0 16.5,-3 23,-8.4 7.9,-6.8 12.5,-16.6 12.5,-27 v -30.7 -12.6 l -10.5,-7 -116,-77.7 c -12.6,-8.4 -20.1,-22.5 -20.1,-37.7 V 291.1 c 0,-25 20.3,-45.3 45.3,-45.3 h 131.6 c 25,0 45.3,20.3 45.3,45.3 v 117.2 l -75.6,-50.8 v -12.6 c 0,-17.9 -12.5,-32.8 -29.7,-35.6 -1.9,-0.3 -3.9,-0.5 -5.8,-0.5 -8.4,0 -16.5,3 -23,8.4 -7.9,6.8 -12.5,16.6 -12.5,27 v 30.7 12.6 l 10.5,7 116,77.7 c 12.6,8.4 20.1,22.5 20.1,37.7 z"
   id="path10" />

		<path
   d="m 2278,452.6 -116,-77.7 v -30.7 c 0,-7.2 6.4,-12.9 13.8,-11.6 5.8,1 9.8,6.4 9.8,12.3 v 18 7.1 l 123,82.6 V 291 c 0,-38.1 -30.9,-69 -69,-69 H 2108 c -38.1,0 -69,30.9 -69,69 v 100.3 c 0,23 11.5,44.5 30.6,57.3 l 116,77.7 V 557 c 0,7.2 -6.4,12.8 -13.8,11.6 -5.8,-0.9 -9.8,-6.4 -9.8,-12.3 v -18 -7.1 l -123,-82.6 v 161.6 c 0,38.1 30.9,69 69,69 h 131.6 c 38.1,0 69,-30.9 69,-69 V 520.5 542.6 510 c 0,-23.1 -11.5,-44.6 -30.6,-57.4 z m 7,67.9 v 0 89.7 c 0,25 -20.3,45.3 -45.3,45.3 H 2108 c -25,0 -45.3,-20.3 -45.3,-45.3 V 493.1 l 75.7,50.8 v 12.6 c 0,17.8 12.5,32.8 29.7,35.6 1.9,0.3 3.9,0.5 5.8,0.5 8.4,0 16.5,-3 23,-8.4 7.9,-6.8 12.5,-16.6 12.5,-27 v -30.7 -12.6 l -10.5,-7 -116,-77.7 c -12.6,-8.4 -20.1,-22.5 -20.1,-37.7 V 291.1 c 0,-25 20.3,-45.3 45.3,-45.3 h 131.6 c 25,0 45.3,20.3 45.3,45.3 v 117.2 l -75.6,-50.8 v -12.6 c 0,-17.9 -12.5,-32.8 -29.7,-35.6 -1.9,-0.3 -3.9,-0.5 -5.8,-0.5 -8.4,0 -16.5,3 -23,8.4 -7.9,6.8 -12.5,16.6 -12.5,27 v 30.7 12.6 l 10.5,7 116,77.7 c 12.6,8.4 20.1,22.5 20.1,37.7 z"
   id="path11" />

		<path
   d="m 1128.2,222.1 v 457.1 h 123 V 222.1 Z m 99.4,433.5 h -75.7 V 245.7 h 75.7 z"
   id="path12" />

		<path
   d="m 3098.8,222.1 h -123 -59.9 v 110.5 h 59.9 v 346.6 h 123 V 332.6 h 59.9 V 222.1 Z m 36.1,86.8 H 3075 v 346.7 h -75.7 V 308.9 h -59.9 v -63.2 h 195.4 z"
   id="path13" />

		<path
   d="M 959.5,308.9 H 927 v 283.6 h 32.5 c 21.2,0 38.4,-17.2 38.4,-38.4 V 347.3 c 0,-21.1 -17.2,-38.4 -38.4,-38.4 z m 14.8,245.2 c 0,8.2 -6.6,14.8 -14.8,14.8 h -8.8 V 332.6 h 8.8 c 8.2,0 14.8,6.6 14.8,14.8 z"
   id="path14" />

		<path
   d="m 1835.7,222.1 h -123 V 341.4 L 1689.1,365 V 222.1 h -123 v 457.1 h 123 V 536.3 l 23.6,23.6 v 119.3 h 123 V 508.9 l -58.2,-58.2 58.2,-58.2 z m -23.6,160.5 -68,68 68,68 v 136.9 h -75.7 V 550.1 l -70.9,-70.9 v 176.3 h -75.7 V 245.7 h 75.7 V 422 l 70.9,-70.9 V 245.7 h 75.7 z"
   id="path15" />

		<path
   d="m 2477.5,222.1 v 200.2 h -23.6 V 222.1 h -123 v 164.7 66.3 23.1 c 0,38.1 30.9,69 69,69 h 77.6 v 23.6 h -123 v 110.3 h 176.9 c 38.1,0 69,-30.9 69,-69 v -388 z m 99.3,388.1 c 0,25 -20.3,45.3 -45.3,45.3 h -153.3 v -63 h 99.3 23.7 v -23.7 -23.6 -23.7 h -23.7 -77.6 c -25,0 -45.3,-20.3 -45.3,-45.3 V 453.1 386.8 245.7 h 75.7 V 422.3 446 h 23.7 23.6 23.7 V 422.3 245.7 h 75.7 z"
   id="path16" />

		<path
   d="m 3301.9,332.6 h 90.2 V 222.1 H 3179 v 457.1 h 213.1 V 568.9 h -90.2 v -63 h 90.2 V 395.4 h -90.2 z m 66.5,86.5 v 63.2 h -90.2 v 110.3 h 90.2 v 63 H 3202.6 V 245.7 h 165.8 v 63.2 h -90.2 v 110.2 z"
   id="path17" />

		<path
   d="m 3771,222.1 h -93.9 c -17.4,0 -33.2,6.5 -45.4,17.1 -12.1,-10.6 -28,-17.1 -45.4,-17.1 h -162.9 v 457.1 h 123 V 344.5 c 0,-6.6 5.3,-11.9 11.9,-11.9 6.6,0 11.9,5.3 11.9,11.9 v 334.8 h 123 V 344.4 c 0,-6.6 5.3,-11.9 11.9,-11.9 6.6,0 11.9,5.3 11.9,11.9 v 334.8 h 123 V 291.1 c 0,-38.1 -30.9,-69 -69,-69 z m 45.3,433.5 h -75.7 V 345.7 c 0,-18.1 -12.9,-34.2 -30.9,-36.5 -21.7,-2.8 -40.2,14.1 -40.2,35.2 V 655.5 H 3594 V 345.7 c 0,-18.1 -12.9,-34.2 -30.9,-36.5 -21.7,-2.8 -40.2,14.1 -40.2,35.2 v 311.1 h -75.7 V 245.7 h 139.2 c 11.7,0 22.4,4.5 30.4,11.8 6.8,6.2 11.8,22.3 13.9,29.9 0.3,1.1 1.8,1.1 2.1,0 2.1,-7.6 7,-23.6 13.8,-29.9 8.1,-7.3 18.7,-11.8 30.4,-11.8 h 93.9 c 25,0 45.3,20.3 45.3,45.3 v 364.6 z"
   id="path18" />

	</g>

	<g
   id="g25">
		<path
   class="st0"
   d="m 2825.9,655.6 c 25,0 45.3,-20.3 45.3,-45.3 v -89.7 0 -10.5 c 0,-15.1 -7.5,-29.2 -20.1,-37.7 l -116,-77.7 -10.5,-7 v -12.6 -30.7 c 0,-10.4 4.6,-20.3 12.5,-27 6.5,-5.5 14.6,-8.4 23,-8.4 1.9,0 3.8,0.1 5.8,0.5 17.2,2.8 29.7,17.8 29.7,35.6 v 12.6 l 75.6,50.8 V 291.3 c 0,-25 -20.3,-45.3 -45.3,-45.3 h -131.6 c -25,0 -45.3,20.3 -45.3,45.3 v 100.3 c 0,15.1 7.5,29.2 20.1,37.7 l 116,77.7 10.5,7 v 12.6 30.7 c 0,10.4 -4.6,20.3 -12.5,27 -6.5,5.5 -14.6,8.4 -23,8.4 -1.9,0 -3.8,-0.2 -5.8,-0.5 -17.2,-2.8 -29.7,-17.8 -29.7,-35.6 V 544 l -75.7,-50.8 v 117.2 c 0,25 20.3,45.3 45.3,45.3 z"
   id="path19"
   style="fill:#fdbc1a" />

		<path
   class="st0"
   d="m 2239.6,655.6 c 25,0 45.3,-20.3 45.3,-45.3 v -89.7 0 -10.5 c 0,-15.1 -7.5,-29.2 -20.1,-37.7 l -116,-77.7 -10.5,-7 v -12.6 -30.7 c 0,-10.4 4.6,-20.3 12.5,-27 6.5,-5.5 14.6,-8.4 23,-8.4 1.9,0 3.8,0.1 5.8,0.5 17.2,2.8 29.7,17.8 29.7,35.6 v 12.6 l 75.6,50.8 V 291.3 c 0,-25 -20.3,-45.3 -45.3,-45.3 H 2108 c -25,0 -45.3,20.3 -45.3,45.3 v 100.3 c 0,15.1 7.5,29.2 20.1,37.7 l 116,77.7 10.5,7 v 12.6 30.7 c 0,10.4 -4.6,20.3 -12.5,27 -6.5,5.5 -14.6,8.4 -23,8.4 -1.9,0 -3.8,-0.2 -5.8,-0.5 -17.2,-2.8 -29.7,-17.8 -29.7,-35.6 V 544 l -75.7,-50.8 v 117.2 c 0,25 20.3,45.3 45.3,45.3 z"
   id="path20"
   style="fill:#fdbc1a" />

		<path
   class="st0"
   d="M 2576.8,610.2 V 245.7 h -75.7 V 422.3 446 h -23.7 -23.6 -23.7 V 422.3 245.7 h -75.7 v 141.1 66.3 23.1 c 0,25 20.3,45.3 45.3,45.3 h 77.6 23.7 v 23.7 23.6 23.7 h -23.7 -99.3 v 63 h 153.3 c 25.2,0.1 45.5,-20.3 45.5,-45.3 z"
   id="path21"
   style="fill:#fdbc1a" />

		<polygon
   class="st0"
   points="1665.5,422.1 1665.5,245.7 1589.8,245.7 1589.8,655.6 1665.5,655.6 1665.5,479.2 1736.4,550.2 1736.4,655.6 1812.1,655.6 1812.1,518.7 1744.1,450.7 1812.1,382.6 1812.1,245.7 1736.4,245.7 1736.4,351.1 "
   id="polygon21"
   style="fill:#fdbc1a" />

		<rect
   x="1151.9"
   y="245.7"
   class="st0"
   width="75.699997"
   height="409.79999"
   id="rect21"
   style="fill:#fdbc1a" />

		<path
   class="st0"
   d="m 1476.8,655.6 c 25,0 45.3,-20.3 45.3,-45.3 v -89.7 0 -10.5 c 0,-15.1 -7.5,-29.2 -20.1,-37.7 l -116,-77.7 -10.5,-7 v -12.6 -30.7 c 0,-10.4 4.6,-20.3 12.5,-27 6.5,-5.5 14.6,-8.4 23,-8.4 1.9,0 3.8,0.1 5.8,0.5 17.2,2.8 29.7,17.8 29.7,35.6 v 12.6 l 75.7,50.8 V 291.3 c 0,-25 -20.3,-45.3 -45.3,-45.3 h -131.6 c -25,0 -45.3,20.3 -45.3,45.3 v 100.3 c 0,15.1 7.5,29.2 20.1,37.7 l 116,77.7 10.5,7 v 12.6 30.7 c 0,10.4 -4.6,20.3 -12.5,27 -6.5,5.5 -14.6,8.4 -23,8.4 -1.9,0 -3.8,-0.2 -5.8,-0.5 -17.2,-2.8 -29.7,-17.8 -29.7,-35.6 V 544 l -75.7,-50.8 v 117.2 c 0,25 20.3,45.3 45.3,45.3 z"
   id="path22"
   style="fill:#fdbc1a" />

		<path
   class="st0"
   d="M 1073.6,610.2 V 291.1 c 0,-25 -20.3,-45.3 -45.3,-45.3 h -177 v 409.8 h 176.9 c 25,0 45.4,-20.4 45.4,-45.4 z m -75.7,-56.1 c 0,21.2 -17.2,38.4 -38.4,38.4 H 927 V 308.9 h 32.5 c 21.2,0 38.4,17.2 38.4,38.4 z"
   id="path23"
   style="fill:#fdbc1a" />

		<path
   class="st0"
   d="m 3740.7,345.7 v 309.9 h 75.7 V 291.1 c 0,-25 -20.3,-45.3 -45.3,-45.3 h -93.9 c -11.7,0 -22.4,4.5 -30.4,11.8 -6.9,6.2 -11.8,22.2 -13.8,29.9 -0.3,1.1 -1.8,1.1 -2.1,0 -2.1,-7.6 -7.1,-23.7 -13.9,-29.9 -8.1,-7.3 -18.7,-11.8 -30.4,-11.8 h -139.2 v 409.8 h 75.7 V 344.4 c 0,-21.1 18.5,-38 40.2,-35.2 17.9,2.3 30.9,18.4 30.9,36.5 v 309.9 h 75.7 V 344.4 c 0,-21.1 18.5,-38 40.2,-35.2 17.6,2.3 30.6,18.4 30.6,36.5 z"
   id="path24"
   style="fill:#fdbc1a" />

		<polygon
   class="st0"
   points="2999.4,655.6 3075.1,655.6 3075.1,308.9 3134.9,308.9 3134.9,245.7 2939.6,245.7 2939.6,308.9 2999.4,308.9 "
   id="polygon24"
   style="fill:#fdbc1a" />

		<polygon
   class="st0"
   points="3368.4,245.7 3202.6,245.7 3202.6,655.6 3368.4,655.6 3368.4,592.5 3278.2,592.5 3278.2,482.2 3368.4,482.2 3368.4,419.1 3278.2,419.1 3278.2,308.9 3368.4,308.9 "
   id="polygon25"
   style="fill:#fdbc1a" />

	</g>

	<g
   id="g26">
		<path
   d="m 1441.4,84.4 c -0.4,46.1 36.6,83.9 82.8,84.4 30.9,-0.1 59.1,-17.6 73.1,-45.1 l 0.3,-0.7 h -36.4 c -9.9,9.8 -23.1,15.3 -37,15.4 -29.8,-0.8 -53.4,-25.6 -52.6,-55.4 0.8,-28.7 23.9,-51.9 52.6,-52.6 13.7,0 26.9,5.5 36.6,15.2 l 36.8,0.1 -0.3,-0.7 c -14,-27.5 -42.2,-44.9 -73.1,-45 -46.1,0.5 -83.1,38.2 -82.8,84.4 z m 157.9,0.4 c 0.9,45.7 38.7,82 84.4,81.1 45.7,-0.9 82,-38.7 81.1,-84.4 -0.9,-45.1 -37.7,-81.1 -82.7,-81.2 -46.2,0.6 -83.2,38.4 -82.8,84.5 z m 29.8,0 c 0.6,-29.2 24.8,-52.4 54,-51.8 29.2,0.6 52.4,24.8 51.8,54 -0.6,28.8 -24.1,51.8 -52.9,51.8 -29.5,-0.3 -53.1,-24.5 -52.9,-54 z M 2361.2,1.1 h -83.4 v 166.2 h 83.8 v -32 h -52.4 V 102 h 52.4 V 70 h -52.4 V 33 h 52.4 V 1 Z m -1340.8,0 H 995.7 L 881.2,167.4 h 35.5 c 0,0 17.7,-25.8 17.9,-26.1 h 56.1 v 26.1 h 30.2 V 1.1 Z m -63.5,107.5 33.8,-49.4 v 52.3 H 955 c 0.6,-0.9 1.9,-2.9 1.9,-2.9 z m 987,-107.5 h -35 c 0,0 -48.8,112.8 -49.6,114.6 -0.8,-1.8 -49.8,-114.6 -49.8,-114.6 h -35.3 v 166.3 h 31.3 V 84.6 c 0.5,-0.1 3,-0.7 3.5,-0.8 l 36.3,83.6 h 27.9 c 0,0 36,-82.8 36.2,-83.5 0.5,0.1 3,0.7 3.5,0.8 v 82.7 h 31.3 V 1.1 Z m 230,0 h -31 v 112.2 c 0.2,11.9 -9.4,21.7 -21.2,21.9 -11.8,0.2 -21.7,-9.3 -21.9,-21.2 0,-0.2 0,-0.4 0,-0.6 V 1.1 h -31.4 v 112.2 c -0.5,29.3 22.8,53.3 52.1,53.8 29.3,0.5 53.3,-22.8 53.8,-52.1 0,-0.6 0,-1.1 0,-1.7 V 1.2 Z m 197.7,0.1 h -0.5 V 168 h 31.4 V 80.2 c 1.6,2.6 51.8,87.2 51.8,87.2 h 35.3 c 0,0 -35.4,-59.7 -35.9,-60.6 0.7,-0.2 2.1,-0.8 2.1,-0.8 28,-10.5 42.2,-41.7 31.8,-69.7 -7.7,-20.6 -27.1,-34.5 -49.1,-35.2 z m 66.9,31.9 c 11.9,0.4 21.2,10.2 21.1,22.1 0.2,11.9 -9.2,21.7 -21.1,22 h -36 v -44 h 36 z M 1954.4,1.2 h -0.4 v 166.2 h 31.4 v -59.2 h 22.4 c 29.6,-0.6 53.1,-25 52.5,-54.5 -0.5,-28.8 -23.7,-52 -52.5,-52.5 z m 53.3,31.9 c 11.9,0.2 21.4,10.1 21.2,22 -0.2,11.6 -9.6,20.9 -21.2,21.1 h -22.4 V 33.1 Z M 2268.5,1.2 h -85.2 v 31.9 h 27.1 v 134.3 h 31.4 V 33.1 H 2269 V 1.2 Z m -845.5,0 h -32.5 c 0,0 -33.4,65 -34.1,66.6 -0.8,-1.5 -34.1,-66.6 -34.1,-66.6 h -33.2 l 51.6,102.2 -0.1,64.1 h 31.5 l 0.1,-64.2 c 0.1,0 51.2,-101.3 51.2,-101.3 l 0.3,-0.7 z m -142.5,0 h -30.9 v 166.2 h 73.8 v -32 H 1281 V 1.2 Z m -40.9,0 h -29.4 V 167.4 H 1240 V 1.2 Z m -39.4,0 h -35 c 0,0 -48.8,112.7 -49.6,114.5 L 1065.8,1.2 h -35.3 v 166.2 h 31.3 V 84.6 c 0.5,-0.1 3,-0.7 3.5,-0.8 0.3,0.7 36.3,83.5 36.3,83.5 h 27.9 l 36.3,-83.5 c 0.5,0.1 3,0.7 3.5,0.8 v 82.7 h 31.3 V 1.2 Z m -282,0 h -85.7 v 166.2 h 31.9 v -65.5 h 54.2 V 70.1 H 864.4 V 31.8 h 54.2 V 1.2 Z"
   id="path25" />

	</g>

</g>
  </g>
</svg>
