<?xml version="1.0" encoding="UTF-8" standalone="no"?>
<!-- Created with Inkscape (http://www.inkscape.org/) -->

<svg
   width="1016mm"
   height="164.67667mm"
   viewBox="0 0 1016 164.67667"
   version="1.1"
   id="svg1"
   inkscape:version="1.3.2 (091e20e, 2023-11-25, custom)"
   sodipodi:docname="gameandwatch.svg"
   xmlns:inkscape="http://www.inkscape.org/namespaces/inkscape"
   xmlns:sodipodi="http://sodipodi.sourceforge.net/DTD/sodipodi-0.dtd"
   xmlns="http://www.w3.org/2000/svg"
   xmlns:svg="http://www.w3.org/2000/svg">
  <sodipodi:namedview
     id="namedview1"
     pagecolor="#ffffff"
     bordercolor="#000000"
     borderopacity="0.25"
     inkscape:showpageshadow="2"
     inkscape:pageopacity="0.0"
     inkscape:pagecheckerboard="0"
     inkscape:deskcolor="#d1d1d1"
     inkscape:document-units="mm"
     inkscape:zoom="0.57291968"
     inkscape:cx="1919.9899"
     inkscape:cy="311.562"
     inkscape:window-width="3840"
     inkscape:window-height="2054"
     inkscape:window-x="-11"
     inkscape:window-y="-11"
     inkscape:window-maximized="1"
     inkscape:current-layer="layer1" />
  <defs
     id="defs1" />
  <g
     inkscape:label="Layer 1"
     inkscape:groupmode="layer"
     id="layer1"
     transform="translate(402.96042,-66.145833)">
    <g
       id="g13"
       transform="matrix(0.26458333,0,0,0.26458333,-402.96042,66.145833)">
	<path
   class="st0"
   d="M 3724,16.8 H 116 C 61.3,16.8 16.8,61.3 16.8,116 v 390.4 c 0,54.7 44.5,99.2 99.2,99.2 h 3608 c 54.7,0 99.2,-44.5 99.2,-99.2 V 116 c 0,-54.7 -44.5,-99.2 -99.2,-99.2 z"
   id="path1"
   style="fill:#ffffff" />

	<g
   id="g11">
		<g
   id="path68_2_">
			<path
   d="m 439.5,235 c -25.8,-36.5 -68.2,-60.3 -116.3,-60.3 -78.6,0 -142.3,63.7 -142.3,142.3 0,78.6 63.7,142.3 142.3,142.3 57.1,0 106.3,-33.6 129,-82.1 H 326.6 v -64.7 h 200.6 c 0.1,1.5 0.1,3 0.1,4.5 0,20.9 -3.1,41.2 -9,60.2 -25.7,83.4 -103.3,144 -195.1,144 C 210.5,521.2 119,429.7 119,317 c 0,-112.8 91.4,-204.2 204.2,-204.2 83.6,0 155.4,50.3 187,122.2 z"
   id="path2" />

		</g>

		<g
   id="path70_2_">
			<path
   d="m 744,116.8 v 0 L 486,505.3 h 79.9 l 55.1,-83 h 123 v 83.1 h 66.5 V 116.8 Z m -78.9,239 78.9,-118.7 v 118.7 z"
   id="path3" />

		</g>

		<g
   id="path72_2_">
			<path
   d="m 1331.6,116.8 v 0 L 1153.7,384.6 V 116.8 h -66.5 v 0 l -258,388.5 H 909 l 178.1,-268.2 v 268.4 h 66.5 V 505 L 1331.5,237.1 V 505.5 H 1398 V 116.8 Z"
   id="path4" />

		</g>

		<g
   id="path74_2_">
			<path
   d="m 1654,183.4 v -66.6 h -202.1 v 388.8 l 66.5,-0.3 H 1654 V 438.7 H 1518.4 V 348.1 H 1654 V 281.6 H 1518.4 V 183.3 H 1654 Z"
   id="path5" />

		</g>

		<g
   id="path86_2_">
			<path
   d="m 2009.6,371.9 c 21.3,-48 53.4,-120.2 53.4,-120.2 h -65.3 l -34.4,77.5 -51.2,-47.3 c 23.4,-18.8 44,-42.6 44,-82.4 0,-21.3 -8.4,-41.4 -23.6,-56.7 -17.4,-17.3 -41.8,-27.3 -67.2,-27.3 -43.9,0 -89.4,31.4 -89.4,84 0,36.6 20.2,60.3 40.2,77.8 -37.1,26.3 -69.4,54.2 -69.4,111.9 0,32.7 11.8,62.5 33.3,84 21.7,21.7 51.9,33.6 85.2,33.6 63.1,0 94.4,-30.5 118.3,-77.7 l 77.4,71.5 40.5,-43.8 z M 1841.9,184.4 c 5.6,-5.6 14.7,-9.1 23.5,-9.1 9.4,0 18.9,3.8 25,9.8 4.2,4.2 6.2,8.9 6.2,14.5 0,16.8 -8,25.9 -30,42.1 -19.2,-15.4 -30.9,-26.1 -30.9,-42.1 0,-6 2,-11 6.2,-15.2 m 94.7,205.1 c -20.6,45.9 -35.2,57.8 -71.2,57.8 -17.7,0 -32.5,-5.6 -43.1,-16.1 -10.4,-10.4 -15.8,-24.9 -15.8,-41.8 0,-31.4 16.1,-43.8 55.8,-71.3 0.2,-0.1 0.4,-0.3 0.6,-0.4 l 74.9,69.2 z"
   id="path6" />

		</g>

		<g
   id="path76_2_">
			<path
   d="m 2774.9,116.9 v 0 l -258,388.5 h 79.9 l 55.1,-83 h 123 v 83.2 h 66.6 V 116.9 Z m -78.9,239 78.8,-118.7 v 118.7 z"
   id="path7" />

		</g>

		<g
   id="path78_2_">
			<path
   d="m 2230.5,505.6 v 0 l 177.8,-267.9 v 267.9 h 66.5 v 0 0 l 258,-388.5 H 2653 L 2474.9,385.3 V 116.9 h -66.5 v 0.5 L 2230.6,385.2 V 116.9 H 2164 v 388.7 z"
   id="path8" />

		</g>

		<g
   id="path80_2_">
			<path
   d="M 3656.6,116.9 V 273.4 H 3536.5 V 116.9 H 3470 v 388.7 h 66.5 V 340 h 120.1 v 165.6 h 66.6 V 116.9 Z"
   id="path9" />

		</g>

		<g
   id="path82_2_">
			<path
   d="m 3084.6,116.9 h -217.2 v 66.5 h 75.3 v 322.1 h 66.6 V 183.4 h 75.3 z"
   id="path10" />

		</g>

		<g
   id="path84_2_">
			<path
   d="m 3375.8,400.8 c -25.6,28.4 -62.5,46.2 -103.7,46.2 -77.1,0 -139.6,-62.5 -139.6,-139.5 0,-77.1 62.5,-139.6 139.6,-139.6 40.6,0 77.1,18.2 102.6,46.2 h 78 c -34.1,-64.8 -102.1,-110.6 -180.5,-110.6 -112.6,0 -203.9,91.3 -203.9,203.9 0,112.6 91.3,204 203.9,204 78.9,0 147.4,-45 181.3,-110.6 z"
   id="path11" />

		</g>

	</g>

	<g
   id="g12">
		<path
   d="M 3724,622.4 H 116 C 52,622.4 0,570.4 0,506.4 V 116 C 0,52 52,0 116,0 h 3608 c 64,0 116,52 116,116 v 390.4 c 0,64 -52,116 -116,116 z M 116,16.8 C 61.3,16.8 16.8,61.3 16.8,116 v 390.4 c 0,54.7 44.5,99.2 99.2,99.2 h 3608 c 54.7,0 99.2,-44.5 99.2,-99.2 V 116 c 0,-54.7 -44.5,-99.2 -99.2,-99.2 H 116 Z"
   id="path12" />

	</g>

</g>
  </g>
</svg>
