<?xml version="1.0" encoding="UTF-8" standalone="no"?>
<!-- Created with Inkscape (http://www.inkscape.org/) -->

<svg
   width="1015.7142mm"
   height="253.44437mm"
   viewBox="0 0 1015.7142 253.44437"
   version="1.1"
   id="svg1"
   inkscape:version="1.3.2 (091e20e, 2023-11-25, custom)"
   sodipodi:docname="gamegear.svg"
   xmlns:inkscape="http://www.inkscape.org/namespaces/inkscape"
   xmlns:sodipodi="http://sodipodi.sourceforge.net/DTD/sodipodi-0.dtd"
   xmlns="http://www.w3.org/2000/svg"
   xmlns:svg="http://www.w3.org/2000/svg">
  <sodipodi:namedview
     id="namedview1"
     pagecolor="#ffffff"
     bordercolor="#000000"
     borderopacity="0.25"
     inkscape:showpageshadow="2"
     inkscape:pageopacity="0.0"
     inkscape:pagecheckerboard="0"
     inkscape:deskcolor="#d1d1d1"
     inkscape:document-units="mm"
     inkscape:zoom="0.40511539"
     inkscape:cx="143.16909"
     inkscape:cy="-1124.371"
     inkscape:window-width="3840"
     inkscape:window-height="2054"
     inkscape:window-x="-11"
     inkscape:window-y="-11"
     inkscape:window-maximized="1"
     inkscape:current-layer="layer1" />
  <defs
     id="defs1" />
  <g
     inkscape:label="Layer 1"
     inkscape:groupmode="layer"
     id="layer1"
     transform="translate(402.96042,-21.695833)">
    <g
       id="g11"
       transform="matrix(0.26458333,0,0,0.26458333,-402.96279,21.695833)">
	<g
   id="g9">
		<g
   id="g4">
			<path
   d="M 3505.4,22.7 H 3326 c -24.6,0 -45.3,17.8 -48.9,42 l -48.4,322 c -4.4,29.8 18.7,56.7 48.9,56.7 h 28.4 136.3 l 12.6,-85 h -136.1 l 12.1,-80.4 h 114.3 l 12.5,-85 h -114.1 l 12.9,-85.8 h 136.4 z"
   id="path1" />

			<path
   d="m 2652.8,21.2 c -23.7,0 -47.5,12.6 -58.9,39.6 l -158.3,382.7 h 91.9 l 32.8,-79.2 h 97 l 7.1,79.2 h 85.2 L 2717.2,79.7 c -3.4,-37.6 -33.8,-58.5 -64.4,-58.5 z m -57.4,258.3 44.7,-107.9 9.6,107.9 z"
   id="path2" />

			<path
   d="M 3098.4,56 2999.2,264.1 2965.7,72 c -5.7,-32.8 -32.1,-49.3 -58.5,-49.3 -26.9,0 -53.8,16.9 -58.9,50.6 l -55.7,370.2 h 85.8 L 2909,241 l 29.2,167.5 c 4,22.9 23.2,35.5 42.4,35.5 15.2,0 30.5,-7.7 38.4,-24.4 l 77.9,-163.7 -28.2,187.6 h 85.9 L 3208,89.4 c 6.2,-40.6 -26.1,-66.8 -58.4,-66.8 -20,0.1 -40.2,10.2 -51.2,33.4 z"
   id="path3" />

			<path
   d="m 2449.1,108.7 c 0,0 -56.7,-108.7 -163.4,-108.7 -132.4,0 -219.8,132.7 -224.5,231.5 -8,169.4 125.6,221 183.8,221 117,0 181.4,-106.9 206.4,-190.5 7.9,-26.4 -11.9,-53 -39.5,-53 h -35.4 -97.3 l -35.1,84.9 h 99 c -21.8,39 -60.7,67.7 -106.4,67.7 -23.2,0 -92.8,-21 -87.9,-123.4 3.3,-68.7 57.6,-153 137,-153 52.7,0 87.8,62.8 87.8,62.8 z"
   id="path4" />

		</g>

		<g
   id="g8">
			<path
   d="m 3179.6,528.1 h -179.5 c -24.6,0 -45.3,17.8 -48.9,42 l -48.4,322 c -4.4,29.8 18.7,56.7 48.9,56.7 h 28.4 136.3 l 12.6,-85 h -136.1 l 12.1,-80.4 h 114.3 l 12.5,-85 h -114.1 l 12.9,-85.8 H 3167 Z"
   id="path5" />

			<path
   d="m 2866.4,614.1 c 0,0 -56.7,-108.7 -163.4,-108.7 -132.4,0 -219.8,132.7 -224.5,231.5 -8,169.4 125.6,221 183.8,221 117,0 181.4,-106.9 206.4,-190.5 7.9,-26.4 -11.9,-53 -39.5,-53 h -35.4 -97.3 l -35.2,85 h 99 c -21.8,39 -60.7,67.7 -106.4,67.7 -23.2,0 -92.8,-21 -87.9,-123.4 3.3,-68.7 57.6,-153 137,-153 52.7,0 87.8,62.8 87.8,62.8 z"
   id="path6" />

			<path
   d="m 3802,830.7 c 0,0 0,0 -1.1,-5.2 l -0.1,-0.2 c -0.8,-3.6 -2.1,-9.7 -4.3,-19.7 -5.4,-25.2 -24.4,-30.9 -24.4,-30.9 70.3,-39.3 66.8,-112.1 66.8,-116.9 0,-71.9 -67.2,-129.6 -122.8,-129.6 h -31 -43.9 c -24.3,0 -44.9,17.6 -48.8,41.5 L 3531.1,949 h 86 l 24.3,-150.1 h 38.6 c 16.2,0 30.1,11.3 33.5,27 l 26.6,123.2 h 87.4 z M 3692.7,713.8 h -37.5 l 16.2,-101 h 35.4 c 16.8,0 33.4,16.8 37.1,36.9 5.5,30 -17.6,64.1 -51.2,64.1 z"
   id="path7" />

			<path
   d="m 3385.2,526.6 c -23.6,0 -47.5,12.6 -58.9,39.6 L 3168,948.9 h 91.9 l 32.8,-79.2 h 97 l 7.1,79.2 h 85.2 l -32.4,-363.8 c -3.4,-37.6 -33.8,-58.5 -64.4,-58.5 z m -57.3,258.3 44.7,-107.9 9.6,107.9 z"
   id="path8" />

		</g>

	</g>

	<path
   class="st0"
   d="m 128.1,957.8 c -23.5,0 -44.7,-5.7 -62.9,-16.7 C 9.2,906.8 -11.8,825.5 6.4,711.9 23.6,604.3 73.8,478.4 147.6,357.3 210.5,254.3 283.8,165.5 359.4,100.5 435.8,34.7 507.3,0 566.1,0 c 23.5,0 44.7,5.7 62.9,16.7 56,34.3 77,115.6 58.8,229.2 -17.2,107.6 -67.4,233.5 -141.2,354.6 -62.9,103 -136.2,191.8 -211.8,256.8 -76.5,65.8 -148,100.5 -206.7,100.5 z"
   id="path9"
   style="fill:#d60700" />

	<path
   class="st1"
   d="m 776.5,957.8 c -23.5,0 -44.7,-5.7 -62.9,-16.7 -56,-34.3 -77,-115.6 -58.8,-229.2 C 672,604.3 722.2,478.4 796,357.3 858.9,254.3 932.2,165.5 1007.8,100.5 1084.3,34.7 1155.8,0 1214.6,0 c 23.5,0 44.7,5.7 62.9,16.7 56,34.3 77,115.6 58.8,229.2 -17.2,107.6 -67.4,233.5 -141.2,354.6 -62.9,103 -136.2,191.8 -211.8,256.8 -76.5,65.8 -148,100.5 -206.8,100.5 z"
   id="path10"
   style="fill:#00916d" />

	<path
   class="st2"
   d="m 1425,957.8 c -23.5,0 -44.7,-5.7 -62.9,-16.7 -56,-34.3 -77,-115.6 -58.8,-229.2 17.2,-107.6 67.4,-233.5 141.2,-354.6 62.9,-103 136.2,-191.8 211.8,-256.8 C 1732.7,34.7 1804.3,0 1863,0 c 23.5,0 44.7,5.7 62.9,16.7 28.6,17.4 48,46.8 58,87.4 28,115.8 -27,310.5 -140.5,496.4 -62.9,103 -136.2,191.8 -211.8,256.8 -76.3,65.8 -147.9,100.5 -206.6,100.5 z"
   id="path11"
   style="fill:#034693" />

</g>
  </g>
</svg>
