<?xml version="1.0" encoding="UTF-8" standalone="no"?>
<!-- Created with Inkscape (http://www.inkscape.org/) -->

<svg
   version="1.1"
   id="svg1"
   width="3839"
   height="707.38422"
   viewBox="0 0 3838.9999 707.3842"
   sodipodi:docname="gametank.svg"
   inkscape:version="1.4.3 (0d15f75042, 2025-12-25)"
   xmlns:inkscape="http://www.inkscape.org/namespaces/inkscape"
   xmlns:sodipodi="http://sodipodi.sourceforge.net/DTD/sodipodi-0.dtd"
   xmlns="http://www.w3.org/2000/svg"
   xmlns:svg="http://www.w3.org/2000/svg">
  <sodipodi:namedview
     id="namedview1"
     pagecolor="#ffffff"
     bordercolor="#000000"
     borderopacity="0.25"
     inkscape:showpageshadow="2"
     inkscape:pageopacity="0.0"
     inkscape:pagecheckerboard="0"
     inkscape:deskcolor="#d1d1d1"
     showgrid="false"
     inkscape:zoom="0.5"
     inkscape:cx="599"
     inkscape:cy="728"
     inkscape:window-width="2494"
     inkscape:window-height="1371"
     inkscape:window-x="0"
     inkscape:window-y="0"
     inkscape:window-maximized="1"
     inkscape:current-layer="layer1">
    <inkscape:grid
       id="grid12"
       units="px"
       originx="-7.7999928e-06"
       originy="0.15658475"
       spacingx="0.99999999"
       spacingy="1"
       empcolor="#0099e5"
       empopacity="0.30196078"
       color="#0099e5"
       opacity="0.14901961"
       empspacing="5"
       enabled="true"
       visible="false" />
  </sodipodi:namedview>
  <defs
     id="defs1">
    <inkscape:path-effect
       effect="offset"
       id="path-effect76"
       is_visible="true"
       lpeversion="1.3"
       linejoin_type="miter"
       unit="mm"
       offset="-2.5"
       miter_limit="4"
       attempt_force_join="false"
       update_on_knot_move="true" />
    <inkscape:path-effect
       effect="offset"
       id="path-effect50"
       is_visible="true"
       lpeversion="1.3"
       linejoin_type="miter"
       unit="mm"
       offset="-2.5"
       miter_limit="4"
       attempt_force_join="false"
       update_on_knot_move="true" />
    <inkscape:path-effect
       effect="fillet_chamfer"
       id="path-effect49"
       is_visible="true"
       lpeversion="1"
       nodesatellites_param="F,0,0,1,0,5.9999999,0,1 @ F,0,0,1,0,5.9999999,0,1 @ F,0,0,1,0,5.9999999,0,1 @ F,0,0,1,0,5.9999999,0,1 @ F,0,0,1,0,5.9999999,0,1 @ F,0,0,1,0,5.9999999,0,1 @ F,0,0,1,0,5.9999999,0,1 @ F,0,0,1,0,5.9999999,0,1 @ F,0,0,1,0,5.9999999,0,1 @ F,0,0,1,0,5.9999999,0,1 @ F,0,0,1,0,5.9999999,0,1 @ F,0,0,1,0,5.9999999,0,1 @ F,0,0,1,0,5.9999999,0,1"
       radius="7"
       unit="px"
       method="auto"
       mode="F"
       chamfer_steps="1"
       flexible="false"
       use_knot_distance="true"
       apply_no_radius="true"
       apply_with_radius="true"
       only_selected="false"
       hide_knots="false" />
    <inkscape:path-effect
       effect="offset"
       id="path-effect47"
       is_visible="true"
       lpeversion="1.3"
       linejoin_type="miter"
       unit="mm"
       offset="-2.5"
       miter_limit="4"
       attempt_force_join="false"
       update_on_knot_move="true" />
    <inkscape:path-effect
       effect="offset"
       id="path-effect46"
       is_visible="true"
       lpeversion="1.3"
       linejoin_type="miter"
       unit="mm"
       offset="-2.5"
       miter_limit="4"
       attempt_force_join="false"
       update_on_knot_move="true" />
    <inkscape:path-effect
       effect="offset"
       id="path-effect45"
       is_visible="true"
       lpeversion="1.3"
       linejoin_type="miter"
       unit="mm"
       offset="-2.5"
       miter_limit="4"
       attempt_force_join="false"
       update_on_knot_move="true" />
    <inkscape:path-effect
       effect="offset"
       id="path-effect44"
       is_visible="true"
       lpeversion="1.3"
       linejoin_type="miter"
       unit="mm"
       offset="-2.5"
       miter_limit="4"
       attempt_force_join="false"
       update_on_knot_move="true" />
    <inkscape:path-effect
       effect="offset"
       id="path-effect43"
       is_visible="true"
       lpeversion="1.3"
       linejoin_type="miter"
       unit="mm"
       offset="-2.5"
       miter_limit="4"
       attempt_force_join="false"
       update_on_knot_move="true" />
    <inkscape:path-effect
       effect="offset"
       id="path-effect42"
       is_visible="true"
       lpeversion="1.3"
       linejoin_type="miter"
       unit="mm"
       offset="-2.5"
       miter_limit="4"
       attempt_force_join="false"
       update_on_knot_move="true" />
    <inkscape:path-effect
       effect="offset"
       id="path-effect20"
       is_visible="true"
       lpeversion="1.3"
       linejoin_type="round"
       unit="mm"
       offset="-2.5"
       miter_limit="4"
       attempt_force_join="false"
       update_on_knot_move="true" />
    <inkscape:path-effect
       effect="fillet_chamfer"
       id="path-effect19"
       is_visible="true"
       lpeversion="1"
       nodesatellites_param="F,0,0,1,0,5.9999999,0,1 @ F,0,0,1,0,5.9999999,0,1 @ F,0,0,1,0,5.9999999,0,1 @ F,0,0,1,0,5.9999999,0,1 @ F,0,0,1,0,5.9999999,0,1 @ F,0,0,1,0,5.9999999,0,1 @ F,0,0,1,0,5.9999999,0,1 @ F,0,0,1,0,5.9999999,0,1 @ F,0,0,1,0,5.9999999,0,1 @ F,0,0,1,0,5.9999999,0,1 @ F,0,0,1,0,5.9999999,0,1 @ F,0,0,1,0,5.9999999,0,1 @ F,0,0,1,0,5.9999999,0,1"
       radius="7"
       unit="px"
       method="auto"
       mode="F"
       chamfer_steps="1"
       flexible="false"
       use_knot_distance="true"
       apply_no_radius="true"
       apply_with_radius="true"
       only_selected="false"
       hide_knots="false" />
    <inkscape:path-effect
       effect="fillet_chamfer"
       id="path-effect18"
       is_visible="true"
       lpeversion="1"
       nodesatellites_param="F,0,0,1,0,6.9999999,0,1 @ F,0,0,1,0,6.9999999,0,1 @ F,0,0,1,0,6.9999999,0,1 @ F,0,0,1,0,6.9999999,0,1 @ F,0,0,1,0,6.9999999,0,1 @ F,0,0,1,0,6.9999999,0,1 @ F,0,0,1,0,6.9999999,0,1 @ F,0,0,1,0,6.9999999,0,1 @ F,0,0,1,0,6.9999999,0,1 @ F,0,0,1,0,6.9999999,0,1"
       radius="7"
       unit="px"
       method="auto"
       mode="F"
       chamfer_steps="1"
       flexible="false"
       use_knot_distance="true"
       apply_no_radius="true"
       apply_with_radius="true"
       only_selected="false"
       hide_knots="false" />
    <inkscape:path-effect
       effect="fillet_chamfer"
       id="path-effect17"
       is_visible="true"
       lpeversion="1"
       nodesatellites_param="F,0,0,1,0,6.9999999,0,1 @ F,0,0,1,0,6.9999999,0,1 @ F,0,0,1,0,6.9999999,0,1 @ F,0,0,1,0,6.9999999,0,1 @ F,0,0,1,0,6.9999999,0,1 @ F,0,0,1,0,6.9999999,0,1 @ F,0,0,1,0,6.9999999,0,1 @ F,0,0,1,0,6.9999999,0,1 | F,0,0,1,0,6.9999999,0,1 @ F,0,0,1,0,6.9999999,0,1 @ F,0,0,1,0,6.9999999,0,1 @ F,0,0,1,0,6.9999999,0,1"
       radius="7"
       unit="px"
       method="auto"
       mode="F"
       chamfer_steps="1"
       flexible="false"
       use_knot_distance="true"
       apply_no_radius="true"
       apply_with_radius="true"
       only_selected="false"
       hide_knots="false" />
    <inkscape:path-effect
       effect="fillet_chamfer"
       id="path-effect16"
       is_visible="true"
       lpeversion="1"
       nodesatellites_param="F,0,0,1,0,6.9999999,0,1 @ F,0,0,1,0,6.9999999,0,1 @ F,0,0,1,0,6.9999999,0,1 @ F,0,0,1,0,6.9999999,0,1 @ F,0,0,1,0,6.9999999,0,1 @ F,0,0,1,0,6.9999999,0,1 @ F,0,0,1,0,6.9999999,0,1 @ F,0,0,1,0,6.9999999,0,1"
       radius="7"
       unit="px"
       method="auto"
       mode="F"
       chamfer_steps="1"
       flexible="false"
       use_knot_distance="true"
       apply_no_radius="true"
       apply_with_radius="true"
       only_selected="false"
       hide_knots="false" />
    <inkscape:path-effect
       effect="fillet_chamfer"
       id="path-effect15"
       is_visible="true"
       lpeversion="1"
       nodesatellites_param="F,0,0,1,0,6.9999999,0,1 @ F,0,0,1,0,6.9999999,0,1 @ F,0,0,1,0,6.9999999,0,1 @ F,0,0,1,0,6.9999999,0,1 @ F,0,0,1,0,6.9999999,0,1 @ F,0,0,1,0,6.9999999,0,1 @ F,0,0,1,0,6.9999999,0,1 @ F,0,0,1,0,6.9999999,0,1 @ F,0,0,1,0,6.9999999,0,1 @ F,0,0,1,0,6.9999999,0,1 @ F,0,0,1,0,6.9999999,0,1 @ F,0,0,1,0,6.9999999,0,1"
       radius="7"
       unit="px"
       method="auto"
       mode="F"
       chamfer_steps="1"
       flexible="false"
       use_knot_distance="true"
       apply_no_radius="true"
       apply_with_radius="true"
       only_selected="false"
       hide_knots="false" />
    <inkscape:path-effect
       effect="fillet_chamfer"
       id="path-effect14"
       is_visible="true"
       lpeversion="1"
       nodesatellites_param="F,0,0,1,0,6.9999999,0,1 @ F,0,0,1,0,6.9999999,0,1 @ F,0,0,1,0,6.9999999,0,1 @ F,0,0,1,0,6.9999999,0,1 @ F,0,0,1,0,6.9999999,0,1 @ F,0,0,1,0,6.9999999,0,1 @ F,0,0,1,0,6.9999999,0,1 @ F,0,0,1,0,6.9999999,0,1 @ F,0,0,1,0,6.9999999,0,1"
       radius="7"
       unit="px"
       method="auto"
       mode="F"
       chamfer_steps="1"
       flexible="false"
       use_knot_distance="true"
       apply_no_radius="true"
       apply_with_radius="true"
       only_selected="false"
       hide_knots="false" />
    <inkscape:path-effect
       effect="fillet_chamfer"
       id="path-effect13"
       is_visible="true"
       lpeversion="1"
       nodesatellites_param="F,0,0,1,0,6.9999999,0,1 @ F,0,0,1,0,6.9999999,0,1 @ F,0,0,1,0,6.9999999,0,1 @ F,0,0,1,0,6.9999999,0,1 @ F,0,0,1,0,6.9999999,0,1 @ F,0,0,1,0,6.9999999,0,1 @ F,0,0,1,0,6.9999999,0,1 @ F,0,0,1,0,6.9999999,0,1 | F,0,0,1,0,6.9999999,0,1 @ F,0,0,1,0,6.9999999,0,1 @ F,0,0,1,0,6.9999999,0,1 @ F,0,0,1,0,6.9999999,0,1"
       radius="7"
       unit="px"
       method="auto"
       mode="F"
       chamfer_steps="1"
       flexible="false"
       use_knot_distance="true"
       apply_no_radius="true"
       apply_with_radius="true"
       only_selected="false"
       hide_knots="false" />
    <inkscape:path-effect
       effect="fillet_chamfer"
       id="path-effect5"
       is_visible="true"
       lpeversion="1"
       nodesatellites_param="F,0,0,1,0,0.8892545,0,1 @ F,0,0,1,0,0.8892545,0,1 @ F,0,0,1,0,0.8892545,0,1 @ F,0,0,1,0,0.8892545,0,1 @ F,0,0,1,0,0.8892545,0,1 @ F,0,0,1,0,0.8892545,0,1 @ F,0,0,1,0,0.8892545,0,1 @ F,0,0,1,0,0.8892545,0,1 @ F,0,0,1,0,0.8892545,0,1 @ F,0,0,1,0,0.8892545,0,1 @ F,0,0,1,0,0.8892545,0,1 @ F,0,0,1,0,0.8892545,0,1 @ F,0,0,1,0,0.8892545,0,1 @ F,0,0,1,0,0.8892545,0,1 @ F,0,0,1,0,0.8892545,0,1 @ F,0,0,1,0,0.8892545,0,1"
       radius="7"
       unit="px"
       method="auto"
       mode="F"
       chamfer_steps="1"
       flexible="false"
       use_knot_distance="true"
       apply_no_radius="true"
       apply_with_radius="true"
       only_selected="false"
       hide_knots="false" />
    <inkscape:path-effect
       effect="fillet_chamfer"
       id="path-effect4"
       is_visible="true"
       lpeversion="1"
       nodesatellites_param="F,0,0,1,0,0,0,1 @ F,0,0,1,0,0,0,1 @ F,0,0,1,0,0,0,1 @ F,0,0,1,0,0,0,1 @ F,0,0,1,0,0,0,1 @ F,0,0,1,0,0,0,1 @ F,0,0,1,0,0,0,1 @ F,0,0,1,0,0,0,1 @ F,0,0,1,0,0,0,1 @ F,0,0,1,0,0,0,1 @ F,0,0,1,0,0,0,1 @ F,0,0,1,0,0,0,1 @ F,0,0,1,0,0,0,1 @ F,0,0,1,0,0,0,1 @ F,0,0,1,0,0,0,1 @ F,0,0,1,0,0,0,1"
       radius="0"
       unit="px"
       method="auto"
       mode="F"
       chamfer_steps="1"
       flexible="false"
       use_knot_distance="true"
       apply_no_radius="true"
       apply_with_radius="true"
       only_selected="false"
       hide_knots="false" />
    <inkscape:path-effect
       effect="fillet_chamfer"
       id="path-effect3"
       is_visible="true"
       lpeversion="1"
       nodesatellites_param="F,0,0,1,0,0,0,1 @ F,0,0,1,0,0,0,1 @ F,0,0,1,0,0,0,1 @ F,0,0,1,0,0,0,1 @ F,0,0,1,0,0,0,1 @ F,0,0,1,0,0,0,1 @ F,0,0,1,0,0,0,1 @ F,0,0,1,0,0,0,1 @ F,0,0,1,0,0,0,1 @ F,0,0,1,0,0,0,1 @ F,0,0,1,0,0,0,1 @ F,0,0,1,0,0,0,1 @ F,0,0,1,0,0,0,1 @ F,0,0,1,0,0,0,1 @ F,0,0,1,0,0,0,1 @ F,0,0,1,0,0,0,1"
       radius="1"
       unit="px"
       method="auto"
       mode="F"
       chamfer_steps="1"
       flexible="false"
       use_knot_distance="true"
       apply_no_radius="true"
       apply_with_radius="true"
       only_selected="false"
       hide_knots="false" />
  </defs>
  <g
     inkscape:groupmode="layer"
     id="layer1"
     inkscape:label="Image 1"
     transform="translate(0,0.15658475)">
    <path
       id="path1"
       style="opacity:1;fill:#4d4d4d;stroke-width:1;stroke-dasharray:none"
       d="M 1482.5039 -0.15658475 A 26.857166 26.857166 0 0 0 1455.6055 26.675446 L 1455.0059 679.94693 A 26.848325 26.848325 0 0 0 1481.8535 706.81998 L 1854.2363 706.81998 A 26.873 26.873 0 0 0 1881.1094 679.94693 L 1881.1094 557.09927 A 26.873 26.873 0 0 0 1854.2363 530.22623 L 1650.7695 530.22623 A 26.873 26.873 0 0 1 1623.8965 503.35318 L 1623.8965 438.09146 A 26.873 26.873 0 0 1 1650.7695 411.21842 L 1854.2363 411.21842 A 26.873 26.873 0 0 0 1881.1094 384.34537 L 1881.1094 326.75943 A 27.34432 27.34432 0 0 0 1854.2402 299.41959 L 1651.4727 295.8942 A 27.34432 27.34432 0 0 1 1624.6035 268.55435 L 1624.6035 191.7731 A 26.723459 26.723459 0 0 1 1651.4766 165.05045 L 1854.3613 166.18326 A 26.70349 26.70349 0 0 0 1881.2148 139.45865 L 1881.1309 27.318025 A 26.93368 26.93368 0 0 0 1854.2363 0.40396213 L 1482.5039 -0.15658475 z M 2468.1777 0.39810275 A 26.866322 26.866322 0 0 0 2441.3047 27.26529 L 2441.3047 679.91568 A 26.889236 26.889236 0 0 0 2468.1758 706.80435 L 2553.2383 706.85709 A 26.856654 26.856654 0 0 0 2580.1113 679.99967 L 2580.1113 392.07584 A 26.873 26.873 0 0 1 2606.9844 365.20279 L 2683.7637 365.20279 A 27.128758 27.128758 0 0 1 2710.8906 392.07388 L 2713.6191 679.91763 A 27.144827 27.144827 0 0 0 2740.7461 706.80435 L 2829.6465 706.85709 A 26.857093 26.857093 0 0 0 2856.5195 679.99967 L 2856.5195 27.370759 A 26.879798 26.879798 0 0 0 2829.6426 0.48989963 L 2468.1777 0.39810275 z M 514.42969 0.43130588 A 26.866322 26.866322 0 0 0 487.55664 27.29654 L 487.55273 679.94693 A 26.889236 26.889236 0 0 0 514.42578 706.83756 L 599.48828 706.88834 A 26.856654 26.856654 0 0 0 626.35938 680.03287 L 626.35938 392.10709 A 26.873 26.873 0 0 1 653.23242 365.23404 L 730.01367 365.23404 A 27.128758 27.128758 0 0 1 757.14062 392.10513 L 759.86719 679.94888 A 27.144827 27.144827 0 0 0 786.99414 706.8356 L 875.89453 706.88834 A 26.857093 26.857093 0 0 0 902.76758 680.03287 L 902.76758 27.402009 A 26.879798 26.879798 0 0 0 875.89453 0.52310275 L 514.42969 0.43130588 z M 26.873047 0.44497775 A 26.873 26.873 0 0 0 0 27.318025 L 0 679.94693 A 26.873 26.873 0 0 0 26.873047 706.81998 L 395.41797 706.81998 A 26.873 26.873 0 0 0 422.28906 679.94693 L 422.28906 334.43717 A 62.477941 62.477941 0 0 0 402.78125 289.0817 A 56.958718 56.958718 0 0 0 362.55469 276.43131 L 318.94336 276.43131 A 113.83583 113.83583 0 0 0 268.03516 288.44888 L 247.95703 298.48795 A 18.69667 18.69667 0 0 0 243.54492 328.8649 L 254.59766 339.20279 A 61.937902 61.937902 0 0 1 274.22266 384.43521 L 274.22266 491.32779 A 93.700672 93.700672 0 0 1 259.97852 540.98795 A 40.394158 40.394158 0 0 1 223.01953 556.45474 L 213.46484 556.2106 A 52.321077 52.321077 0 0 1 171.51172 533.28482 L 170.86133 532.32388 A 87.461499 87.461499 0 0 1 155.77148 483.21451 L 155.77148 238.40006 A 26.873 26.873 0 0 1 182.64453 211.52701 L 357.6875 211.52701 A 64.015733 64.015733 0 0 1 403.38086 230.70865 L 403.46875 230.79849 A 10.981962 10.981962 0 0 0 422.28906 223.10709 L 422.28906 27.318025 A 26.873 26.873 0 0 0 395.41797 0.44497775 L 26.873047 0.44497775 z M 2959.8691 0.44497775 A 26.873003 26.873003 0 0 0 2932.9961 27.318025 L 2932.9961 679.94693 A 26.806913 26.806913 0 0 0 2959.8691 706.75357 L 3037.8555 706.56217 A 26.633907 26.633907 0 0 0 3064.4219 679.62467 L 3061.0059 380.03873 A 6.6282197 6.6282197 0 0 1 3073.4668 376.81412 L 3238.8672 683.17349 A 45.047694 45.047694 0 0 0 3278.5059 706.81998 L 3324.5742 706.81998 A 26.873 26.873 0 0 0 3351.4473 679.94693 L 3351.4473 27.318025 A 26.873 26.873 0 0 0 3324.5742 0.44497775 L 3247.7949 0.44497775 A 26.873 26.873 0 0 0 3220.9219 27.318025 L 3220.9219 303.72623 A 6.9917826 6.9917826 0 0 1 3207.8242 307.13248 L 3049.7461 23.909821 A 45.774267 45.774267 0 0 0 3009.7754 0.44497775 L 2959.8691 0.44497775 z M 3439.7441 0.44497775 A 23.034 23.034 0 0 0 3416.7109 23.478181 L 3416.7109 683.78677 A 23.034 23.034 0 0 0 3439.7441 706.81998 L 3535.7188 706.81998 A 22.738251 22.738251 0 0 0 3558.4551 683.78873 L 3556.2773 515.25748 A 8.326338 8.326338 0 0 1 3570.9355 509.74185 L 3724.2305 689.3024 A 49.95114 49.95114 0 0 0 3762.2207 706.81998 L 3815.9668 706.81998 A 23.034 23.034 0 0 0 3839 683.78677 L 3839 579.65787 A 60.183133 60.183133 0 0 0 3823.6211 539.47623 L 3654.7168 351.14224 A 25.464875 25.464875 0 0 1 3654.8613 316.97818 L 3823.4766 132.15592 A 59.424673 59.424673 0 0 0 3839 92.105134 L 3839 23.478181 A 23.034 23.034 0 0 0 3815.9668 0.44497775 L 3750.7031 0.44497775 A 50.765354 50.765354 0 0 0 3712.5 17.778962 L 3573.373 176.76334 A 8.6181754 8.6181754 0 0 1 3558.2695 171.06217 L 3558.6875 23.478181 A 22.968794 22.968794 0 0 0 3535.7188 0.44497775 L 3439.7441 0.44497775 z M 1002.2402 1.0504465 A 26.882956 26.882956 0 0 0 975.35742 27.923493 L 975.11523 679.94693 A 26.863047 26.863047 0 0 0 1001.9785 706.81998 L 1067.2422 706.81998 A 26.873 26.873 0 0 0 1094.1152 679.94693 L 1094.1152 265.3356 A 6.9917822 6.9917822 0 0 1 1107.2129 261.9274 L 1173.1543 380.07388 A 14.998883 14.998883 0 0 0 1199.3477 380.07388 L 1265.2891 261.9274 A 6.9917822 6.9917822 0 0 1 1278.3867 265.3356 L 1278.3867 679.94693 A 26.873 26.873 0 0 0 1305.2598 706.81998 L 1362.8457 706.81998 A 26.882956 26.882956 0 0 0 1389.7285 679.94693 L 1389.9688 27.923493 A 26.863047 26.863047 0 0 0 1363.1055 1.0504465 L 1002.2402 1.0504465 z M 2349.2383 2.308259 L 1976.8125 2.3258371 A 26.874298 26.874298 0 0 0 1949.9395 29.200837 L 1949.9395 209.63248 A 26.873 26.873 0 0 0 1976.8125 236.50552 L 2042.0762 236.50552 A 26.911279 26.911279 0 0 1 2068.9863 263.37857 L 2069.5801 680.42349 A 26.843234 26.843234 0 0 0 2096.4922 707.22818 L 2230.459 706.88834 A 26.925544 26.925544 0 0 0 2257.3164 679.94693 L 2257.0762 263.37857 A 26.857463 26.857463 0 0 1 2283.9336 236.50552 L 2349.1973 236.50552 A 26.877757 26.877757 0 0 0 2376.0742 209.63248 L 2376.1055 29.179353 A 26.866945 26.866945 0 0 0 2349.2383 2.308259 z M 2610.2168 165.4899 L 2686.9961 165.4899 A 26.873 26.873 0 0 1 2713.8691 192.36295 L 2713.8691 246.10904 A 26.873 26.873 0 0 1 2686.9961 272.98209 L 2610.2168 272.98209 A 26.873 26.873 0 0 1 2583.3438 246.10904 L 2583.3438 192.36295 A 26.873 26.873 0 0 1 2610.2168 165.4899 z M 656.46875 165.52115 L 733.24805 165.52115 A 26.873 26.873 0 0 1 760.12109 192.3942 L 760.12109 246.14029 A 26.873 26.873 0 0 1 733.24805 273.01334 L 656.46875 273.01334 A 26.873 26.873 0 0 1 629.5957 246.14029 L 629.5957 192.3942 A 26.873 26.873 0 0 1 656.46875 165.52115 z " />
    <g
       id="g3"
       style="stroke:#999999">
      <path
         style="opacity:1;fill:#4d4d4d;stroke-width:6;stroke-dasharray:none;stroke:#999999;stroke-opacity:1"
         d="M 36.594162,37.062103 V 670.20012 H 385.71427 V 334.41918 c 0,-6.62111 -2.49947,-12.93458 -7.08274,-17.76589 -3.86443,-2.76298 -8.52972,-4.07733 -13.33915,-3.71841 l -1.35747,0.11786 h -44.9754 c -11.13569,0 -22.13963,2.38886 -32.16746,6.9647 15.44025,17.85869 24.02231,40.63452 24.02228,64.39391 V 491.3017 c 0,24.37678 -6.81426,48.32335 -19.77264,69.05672 l -0.94436,1.53455 -1.12143,1.4164 c -15.93907,20.72567 -41.13718,31.79934 -67.04994,29.74751 -0.43405,-0.0332 -0.86411,-0.0172 -1.29851,-0.0604 l -8.02711,-0.17829 c -28.7262,-0.73353 -55.27836,-15.31353 -71.35868,-39.01106 l -0.53121,-0.76731 c -14.05539,-20.712 -21.54333,-44.96125 -21.54333,-69.82402 V 238.38901 c 0,-35.12018 28.32937,-63.44955 63.44955,-63.44955 h 175.06176 c 9.58421,1e-5 19.00327,1.38974 28.03584,4.01355 V 37.062103 Z"
         id="path76"
         sodipodi:nodetypes="ccccccccccccccccc" />
      <path
         style="stroke:#999999;fill:#666666;stroke-width:6;stroke-opacity:1"
         d="M 58.401845,37.562103 l -21.307683,21.307683 M 37.094162,101.296193 l 63.734090,-63.734090 M 143.254659,37.562103 l -106.160497,106.160497 M 37.094162,186.149006 l 148.586903,-148.586903 M 228.107472,37.562103 l -191.013310,191.013310 M 37.094162,271.001820 l 233.439717,-233.439717 M 312.960286,37.562103 l -137.246718,137.246718 M 37.094162,313.428227 l 81.942319,-81.942319 M 355.386693,37.562103 l -136.877357,136.877357 M 37.094162,355.854634 l 81.572958,-81.572958 M 385.214270,50.160933 l -124.278527,124.278527 M 37.094162,398.281041 l 81.572958,-81.572958 M 385.214270,92.587340 l -81.852120,81.852120 M 37.094162,440.707448 l 81.572958,-81.572958 M 385.214270,135.013747 l -39.425713,39.425713 M 37.094162,483.133855 l 81.572958,-81.572958 M 118.667120,443.987303 l -81.572958,81.572958 M 37.094162,567.986668 l 81.617923,-81.617923 M 333.954497,313.552740 l -31.032665,31.032665 M 37.094162,610.413075 l 87.945299,-87.945299 M 374.860446,315.073199 l -63.712230,63.712230 M 37.094162,652.839482 l 101.735136,-101.735136 M 385.214270,347.145781 l -73.899940,73.899940 M 62.659931,669.700120 l 96.126883,-96.126883 M 385.214270,389.572188 l -73.899940,73.899940 M 105.086338,669.700120 l 81.121457,-81.121457 M 385.214270,431.998595 l -74.909309,74.909309 M 147.512745,669.700120 l 76.039061,-76.039061 M 385.214270,474.425002 l -195.275118,195.275118 M 232.365558,669.700120 l 152.848712,-152.848712 M 385.214270,559.277815 l -110.422305,110.422305 M 317.218372,669.700120 l 67.995898,-67.995898 M 385.214270,644.130629 l -25.569491,25.569491"
         id="path3" />
    </g>
    <g
       id="g4"
       style="stroke:#999999">
      <path
         id="path42"
         style="opacity:1;fill:#4d4d4d;stroke-width:6;stroke-dasharray:none;stroke:#999999;stroke-opacity:1"
         d="M 523.86602,36.742589 V 670.52998 l 66.1778,0.0384 V 392.10589 c -4e-5,-35.00474 28.18125,-63.18603 63.18602,-63.18603 h 76.78 c 34.92488,2e-5 63.11017,27.91919 63.44098,62.84113 l 2.64679,278.76987 70.35421,0.0384 V 36.832566 Z M 656.469,129.2085 h 76.78 c 35.00477,0 63.18602,28.18128 63.18602,63.18604 v 53.746 c 0,35.00477 -28.18125,63.18605 -63.18602,63.18604 h -76.78 c -35.00477,1e-5 -63.18602,-28.18127 -63.18602,-63.18604 v -53.746 c 0,-35.00476 28.18125,-63.18604 63.18602,-63.18604 z"
         sodipodi:nodetypes="cccccccccccccc" />
      <path
         style="stroke:#999999;fill:none;stroke-width:6"
         d="M 544.532108,37.248017 l -20.166088,20.166088 M 524.366020,99.840512 l 62.581355,-62.581355 M 629.362642,37.270297 l -104.996622,104.996622 M 524.366020,184.693325 l 147.411889,-147.411889 M 714.193175,37.292577 l -189.827155,189.827155 M 665.203659,128.708500 l 91.404783,-91.404783 M 592.782980,201.129179 l -68.416960,68.416960 M 707.630066,128.708500 l 91.393643,-91.393643 M 592.782980,243.555586 l -68.416960,68.416960 M 748.281455,130.483518 l 93.157521,-93.157521 M 601.082313,277.682659 l -76.716293,76.716293 M 776.040520,145.150860 l 89.911300,-89.911300 M 621.658210,299.533169 l -97.292190,97.292190 M 793.103721,170.514065 l 72.848099,-72.848099 M 653.848578,309.769209 l -22.468745,22.468745 M 524.366020,439.251767 l 68.995877,-68.995877 M 865.951820,140.092373 l -69.016800,69.016800 M 677.624333,328.419860 l 18.593280,-18.593280 M 589.543820,416.500373 l -65.177800,65.177800 M 796.685509,251.785091 l 69.266311,-69.266311 M 738.893528,309.577073 l -18.842787,18.842787 M 524.366020,524.104580 l 65.177800,-65.177800 M 865.951820,224.945187 l -109.255023,109.255023 M 524.366020,566.530987 l 65.177800,-65.177800 M 865.951820,267.371594 l -85.542270,85.542270 M 524.366020,608.957394 l 65.177800,-65.177800 M 865.951820,309.798001 l -72.746073,72.746073 M 524.366020,651.383801 l 65.177800,-65.177800 M 865.951820,352.224408 l -71.695642,71.695642 M 548.132167,670.044060 l 41.411653,-41.411653 M 865.951820,394.650815 l -71.296612,71.296612 M 795.054239,507.974803 l 70.897581,-70.897581 M 865.951820,479.503628 l -70.498551,70.498551 M 795.852299,592.029556 l 70.099521,-70.099521 M 865.951820,564.356442 l -69.700490,69.700490 M 802.700205,670.034464 l 63.251615,-63.251615 M 865.951820,649.209256 l -20.848352,20.848352"
         id="path4" />
    </g>
    <g
       id="g5"
       style="stroke:#999999">
      <path
         style="opacity:1;fill:#4d4d4d;stroke-width:6;stroke-dasharray:none;stroke:#999999;stroke-opacity:1"
         d="m 1011.674,37.364927 -0.2476,633.142593 h 46.3754 V 265.33554 c 10e-5,-44.50629 59.434,-59.95567 81.1213,-21.0995 l 47.3279,84.79541 47.3277,-84.79541 c 21.6874,-38.85635 81.1212,-23.40668 81.1213,21.0995 v 405.17198 h 38.7125 l 0.2472,-633.142593 z"
         id="path43"
         sodipodi:nodetypes="cccccccccc" />
      <path
         style="stroke:#999999;fill:#b3b3b3;stroke-width:6"
         d="M 1032.123680,37.864927 l -19.957680,19.957680 M 1012.149402,100.265612 l 62.400685,-62.400685 M 1116.976494,37.864927 l -104.843690,104.843690 M 1012.116206,185.151622 l 147.286695,-147.286695 M 1201.829308,37.864927 l -189.729700,189.729700 M 1012.083010,270.037632 l 232.172705,-232.172705 M 1286.682121,37.864927 l -183.715972,183.715972 M 1012.066412,312.480637 l 45.235388,-45.235388 M 1329.108528,37.864927 l -196.680036,196.680036 M 1012.049814,354.923641 l 45.251986,-45.251986 M 1353.152328,56.247535 l -204.462042,204.462042 M 1012.033216,397.366646 l 45.268584,-45.268584 M 1353.135756,98.690513 l -189.247905,189.247905 M 1012.016618,439.809651 l 45.285182,-45.285182 M 1353.119185,141.133491 l -80.583786,80.583786 M 1179.085418,315.167258 l 32.433641,-32.433641 M 1057.301800,436.950876 l -45.301780,45.301780 M 1302.443763,234.235320 l 50.658851,-50.658851 M 1057.301800,479.377283 l -45.318378,45.318378 M 1315.170825,263.934665 l 37.915218,-37.915218 M 1057.301800,521.803690 l -45.334976,45.334976 M 1315.200000,306.331897 l 37.869472,-37.869472 M 1057.301800,564.230097 l -45.351574,45.351574 M 1315.200000,348.758303 l 37.852901,-37.852901 M 1057.301800,606.656503 l -45.368172,45.368172 M 1315.200000,391.184710 l 37.836329,-37.836329 M 1057.301800,649.082910 l -20.924610,20.924610 M 1315.200000,433.611117 l 37.819758,-37.819758 M 1353.003187,438.234337 l -37.803187,37.803187 M 1315.200000,518.463931 l 37.786616,-37.786616 M 1352.970045,523.120293 l -37.770045,37.770045 M 1315.200000,603.316745 l 37.753474,-37.753474 M 1352.936903,608.006249 l -37.736903,37.736903 M 1333.362038,670.007520 l 19.558293,-19.558293"
         id="path5" />
    </g>
    <g
       id="g6"
       style="stroke:#999999">
      <path
         style="opacity:1;fill:#4d4d4d;stroke-width:6;stroke-dasharray:none;stroke:#999999;stroke-opacity:1"
         d="M 3453.023,36.757585 V 670.50752 h 68.9371 l -1.9945,-154.78971 c -0.539,-41.71277 51.5046,-61.27236 78.587,-29.54978 l 153.2901,179.5632 c 2.601,3.04663 6.3593,4.77629 10.3773,4.77629 h 40.467 v -90.84636 c 0,-5.89314 -2.1622,-11.55455 -6.096,-15.94084 L 3627.6826,375.38438 c -21.1465,-23.579 -20.9852,-59.49476 0.3524,-82.88341 l 168.6161,-184.81936 c 3.8909,-4.26502 6.0359,-9.794151 6.0359,-15.573443 V 36.757585 h -51.984 c -4.1859,0 -8.1201,1.780249 -10.8796,4.933717 L 3600.6971,200.67239 c -27.2838,31.17798 -78.862,11.72271 -78.7445,-29.71476 l 0.3823,-134.200045 z"
         id="path48"
         sodipodi:nodetypes="cccccccccccccc" />
      <path
         style="stroke:#999999;fill:none;stroke-width:6"
         d="M 3474.843961,37.257585 l -21.320961,21.320961 M 3453.523000,101.004953 l 63.747368,-63.747368 M 3521.725303,75.229057 l -68.202303,68.202303 M 3453.523000,185.857767 l 68.081096,-68.081096 M 3521.482890,160.324284 l -67.959890,67.959890 M 3453.523000,270.710580 l 75.023861,-75.023861 M 3552.551117,214.108870 l -99.028117,99.028117 M 3453.523000,355.563394 l 318.305809,-318.305809 M 3802.187000,49.325801 l -348.664000,348.664000 M 3453.523000,440.416208 l 348.664000,-348.664000 M 3612.228372,324.137243 l -158.705372,158.705372 M 3453.523000,525.269022 l 164.063007,-164.063007 M 3635.910695,385.307733 l -88.245107,88.245107 M 3453.523000,567.695428 l 68.837673,-68.837673 M 3655.970290,407.674546 l -68.449629,68.449629 M 3453.523000,610.121835 l 66.304626,-66.304626 M 3676.029884,430.041358 l -67.289958,67.289958 M 3453.523000,652.548242 l 66.844345,-66.844345 M 3696.089478,452.408171 l -67.810770,67.810770 M 3478.490129,670.007520 l 42.416935,-42.416935 M 3716.149072,474.774984 l -68.331582,68.331582 M 3667.356272,565.994190 l 68.852394,-68.852394 M 3756.268261,519.508609 l -69.373206,69.373206 M 3706.433837,611.769440 l 69.894018,-69.894018 M 3796.383236,564.246447 l -70.410617,70.410617 M 3745.511401,657.544689 l 56.675599,-56.675599 M 3802.187000,643.295497 l -26.712023,26.712023"
         id="path6" />
    </g>
    <g
       id="g10"
       style="stroke:#999999">
      <path
         style="opacity:1;fill:#4d4d4d;stroke-width:6;stroke-dasharray:none;stroke:#999999;stroke-opacity:1"
         d="M 2969.309,36.757585 V 670.41753 l 58.6872,-0.14242 -3.2991,-289.82201 c -0.5096,-44.69956 59.4859,-60.22796 80.724,-20.88956 l 165.3919,306.35518 c 1.5558,2.88179 4.4193,4.58884 7.693,4.58884 h 36.628 V 36.757585 h -57.9 V 303.72554 c -10e-5,44.5063 -59.434,59.95568 -81.1213,21.09951 L 3018.0388,41.608821 c -1.7016,-3.048868 -4.776,-4.851235 -8.2628,-4.851236 z"
         id="path47"
         sodipodi:nodetypes="ccccccccccc" />
      <path
         style="stroke:#999999;fill:none;stroke-width:6"
         d="M 2990.516302,37.257585 l -20.707302,20.707302 M 2969.809000,100.391294 l 51.642363,-51.642363 M 3036.648865,75.977836 l -66.839865,66.839865 M 2969.809000,185.244108 l 82.037367,-82.037367 M 3067.043869,130.435646 l -97.234869,97.234869 M 2969.809000,270.096921 l 112.432371,-112.432371 M 3097.438873,184.893456 l -127.629873,127.629873 M 3257.734000,67.024735 l 29.767150,-29.767150 M 3112.636375,212.122361 l -142.827375,142.827375 M 3257.734000,109.451142 l 56.900000,-56.900000 M 3127.833877,239.351265 l -158.024877,158.024877 M 3257.734000,151.877549 l 56.900000,-56.900000 M 3143.031379,266.580170 l -70.211036,70.211036 M 2969.809000,439.802549 l 54.443908,-54.443908 M 3314.634000,137.403956 l -56.900000,56.900000 M 3100.552560,351.485396 l 57.676320,-57.676320 M 3024.730421,427.307535 l -54.921421,54.921421 M 3257.734000,236.730363 l 56.900000,-56.900000 M 3173.426383,321.037980 l -57.300856,57.300856 M 2969.809000,524.655363 l 55.398933,-55.398933 M 3314.634000,222.256770 l -56.900000,56.900000 M 3130.999989,405.890781 l 62.946319,-62.946319 M 3025.685445,511.205324 l -55.876445,55.876445 M 3145.874451,433.442726 l 168.759549,-168.759549 M 3026.162958,553.154219 l -56.353958,56.353958 M 3160.748913,460.994670 l 153.885087,-153.885087 M 3026.640470,595.103113 l -56.831470,56.831470 M 3175.623375,488.546615 l 139.010625,-139.010625 M 3027.117983,637.052008 l -32.804842,32.804842 M 3190.497837,516.098560 l 124.136163,-124.136163 M 3314.634000,434.388804 l -109.261701,109.261701 M 3220.246761,571.202450 l 94.387239,-94.387239 M 3314.634000,519.241618 l -79.512777,79.512777 M 3249.995685,626.306339 l 64.638315,-64.638315 M 3314.634000,604.094431 l -49.763853,49.763853 M 3291.147278,670.007560 l 23.486722,-23.486722"
         id="path10" />
    </g>
    <g
       id="g14"
       style="stroke:#999999">
      <path
         id="path46"
         style="opacity:1;fill:#4d4d4d;stroke-width:6;stroke-dasharray:none;stroke:#999999;stroke-opacity:1"
         d="M 2477.6171,36.712597 V 670.5 l 66.1778,0.0384 V 392.07591 c 0,-35.00476 28.1813,-63.18604 63.186,-63.18604 h 76.78 c 34.9249,2e-5 63.1102,27.9192 63.441,62.84114 l 2.6468,278.76987 70.3542,0.0384 V 36.802574 Z m 132.603,92.465913 h 76.78 c 35.0047,0 63.186,28.18128 63.186,63.18604 v 53.746 c 0,35.00477 -28.1813,63.18604 -63.186,63.18604 h -76.78 c -35.0048,0 -63.1861,-28.18127 -63.1861,-63.18604 v -53.746 c 0,-35.00476 28.1813,-63.18604 63.1861,-63.18604 z"
         sodipodi:nodetypes="cccccccccccccc" />
      <path
         style="stroke:#999999;fill:none;stroke-width:6"
         d="M 2498.283186,37.218025 l -20.166086,20.166086 M 2478.117100,99.810518 l 62.581353,-62.581353 M 2583.113720,37.240305 l -104.996620,104.996620 M 2478.117100,184.663332 l 147.411887,-147.411887 M 2667.944254,37.262585 l -189.827154,189.827154 M 2618.954736,128.678510 l 91.404785,-91.404785 M 2546.534000,201.099246 l -68.416900,68.416900 M 2661.381142,128.678510 l 91.393645,-91.393645 M 2546.534000,243.525652 l -68.416900,68.416900 M 2702.032532,130.453528 l 93.157523,-93.157523 M 2554.833363,277.652696 l -76.716263,76.716263 M 2729.791590,145.120876 l 89.911310,-89.911310 M 2575.409284,299.503182 l -97.292184,97.292184 M 2746.854796,170.484077 l 72.848104,-72.848104 M 2607.599656,309.739217 l -22.468756,22.468756 M 2478.117100,439.221773 l 68.995914,-68.995914 M 2819.702900,140.062380 l -69.016800,69.016800 M 2631.375410,328.389870 l 18.593280,-18.593280 M 2543.294900,416.470380 l -65.177800,65.177800 M 2750.436589,251.755098 l 69.266311,-69.266311 M 2692.644604,309.547082 l -18.842788,18.842788 M 2478.117100,524.074587 l 65.177800,-65.177800 M 2819.702900,224.915194 l -109.255029,109.255029 M 2478.117100,566.500994 l 65.177800,-65.177800 M 2819.702900,267.341601 l -85.542273,85.542273 M 2478.117100,608.927401 l 65.177800,-65.177800 M 2819.702900,309.768007 l -72.746073,72.746073 M 2478.117100,651.353807 l 65.177800,-65.177800 M 2819.702900,352.194414 l -71.695641,71.695641 M 2501.883234,670.014080 l 41.411666,-41.411666 M 2819.702900,394.620821 l -71.296609,71.296609 M 2748.805323,507.944805 l 70.897577,-70.897577 M 2819.702900,479.473635 l -70.498546,70.498546 M 2749.603386,591.999556 l 70.099514,-70.099514 M 2819.702900,564.326449 l -69.700482,69.700482 M 2756.451272,670.004484 l 63.251628,-63.251628 M 2819.702900,649.179262 l -20.848365,20.848365"
         id="path14" />
    </g>
    <g
       id="g15"
       style="stroke:#999999">
      <path
         style="opacity:1;fill:#4d4d4d;stroke-width:6;stroke-dasharray:none;stroke:#999999;stroke-opacity:1"
         d="m 2339.7955,38.624599 -353.5404,0.01501 V 200.19251 h 55.823 c 34.9925,2e-5 63.1737,28.14236 63.2235,63.13356 l 0.5774,407.56381 115.1175,-0.29253 -0.2327,-407.19642 c -0.019,-35.01057 28.1613,-63.20852 63.1711,-63.20853 h 55.8304 z"
         id="path45"
         sodipodi:nodetypes="ccccccccc" />
      <path
         style="stroke:#999999;fill:none;stroke-width:6"
         d="M 2008.844663,39.138650 l -22.089563,22.089563 M 1986.755100,103.654619 l 64.517771,-64.517771 M 2093.701079,39.135047 l -106.945979,106.945979 M 1986.755100,188.507433 l 149.374187,-149.374187 M 2178.557495,39.131445 l -160.561065,160.561065 M 2058.341893,201.773454 l 162.643811,-162.643811 M 2263.413912,39.127842 l -177.738627,177.738627 M 2102.352297,242.615863 l 203.489823,-203.489823 M 2339.293729,48.100839 l -233.466286,233.466286 M 2105.887464,323.933511 l 233.398333,-233.398333 M 2339.277865,132.969516 l -67.958509,67.958509 M 2105.947485,366.299897 l 115.553192,-115.553192 M 2339.269933,175.403855 l -24.288545,24.288545 M 2106.007506,408.666283 l 114.274005,-114.274005 M 2220.305742,336.794453 l -114.238216,114.238216 M 2106.127547,493.399054 l 114.202426,-114.202426 M 2220.354205,421.598804 l -114.166637,114.166637 M 2106.247589,578.131826 l 114.130847,-114.130847 M 2220.402668,506.403154 l -114.095058,114.095058 M 2106.367631,662.864598 l 114.059269,-114.059269 M 2220.451131,591.207505 l -79.092214,79.092214 M 2183.893410,670.191633 l 36.581952,-36.581952"
         id="path15" />
    </g>
    <g
       id="g16"
       style="stroke:#999999">
      <path
         style="opacity:1;fill:#4d4d4d;stroke-width:6;stroke-dasharray:none;stroke:#999999;stroke-opacity:1"
         d="m 1491.9089,36.172738 -0.5849,634.334782 h 353.473 V 566.53957 H 1650.77 c -35.0048,0 -63.186,-28.18126 -63.186,-63.18603 v -65.263 c 0,-35.00477 28.1812,-63.18604 63.186,-63.18604 h 194.027 v -39.32725 l -193.952,-3.38162 c -34.8439,-0.60586 -62.5562,-28.78256 -62.5562,-63.64342 v -76.78 c 0,-35.05352 28.3362,-63.23168 63.3885,-63.03608 l 193.2171,1.07972 -0.067,-93.110751 z"
         id="path44"
         sodipodi:nodetypes="ccccccccccccc" />
      <path
         style="stroke:#999999;fill:none;stroke-width:6"
         d="M 1513.656491,36.705544 l -21.267692,21.267692 M 1492.349643,100.438799 l 63.669353,-63.669353 M 1598.381501,36.833347 l -106.071014,106.071014 M 1492.271330,185.369925 l 148.472675,-148.472675 M 1683.106511,36.961151 l -190.874337,190.874337 M 1630.939099,131.554969 l 94.529916,-94.529916 M 1591.103143,171.390926 l -98.910125,98.910125 M 1676.545388,128.375088 l 91.286133,-91.286133 M 1587.788800,217.131676 l -95.634938,95.634938 M 1718.736028,128.610854 l 91.457998,-91.457998 M 1587.788800,259.558082 l -95.674094,95.674094 M 1760.926669,128.846621 l 83.407016,-83.407016 M 1593.857321,295.915968 l -101.781772,101.781772 M 1803.117309,129.082387 l 41.246883,-41.246883 M 1612.766939,319.432758 l -120.730545,120.730545 M 1491.997237,482.628866 l 150.595295,-150.595295 M 1683.782527,333.269983 l -41.725056,41.725056 M 1491.958081,525.094429 l 95.716464,-95.716464 M 1725.481891,333.997026 l -40.407474,40.407474 M 1491.918925,567.559992 l 95.165075,-95.165075 M 1767.181255,334.724069 l -39.680431,39.680431 M 1491.879769,610.025555 l 96.078781,-96.078781 M 1808.880619,335.451112 l -38.953388,38.953388 M 1491.840613,652.491118 l 109.230103,-109.230103 M 1844.297000,342.461137 l -31.943363,31.943363 M 1516.750617,670.007520 l 108.330104,-108.330104 M 1662.144974,567.039570 l -102.967950,102.967950 M 1601.603431,670.007520 l 102.967950,-102.967950 M 1746.997788,567.039570 l -102.967950,102.967950 M 1686.456245,670.007520 l 102.967950,-102.967950 M 1831.850602,567.039570 l -102.967950,102.967950 M 1771.309059,670.007520 l 72.987941,-72.987941 M 1844.297000,639.445985 l -30.561535,30.561535"
         id="path16" />
    </g>
  </g>
</svg>
