<?xml version="1.0" encoding="UTF-8" standalone="no"?>
<!-- Created with Inkscape (http://www.inkscape.org/) -->

<svg
   width="1015.7363mm"
   height="180.63454mm"
   viewBox="0 0 1015.7363 180.63454"
   version="1.1"
   id="svg1"
   inkscape:version="1.3.2 (091e20e, 2023-11-25, custom)"
   sodipodi:docname="gb.svg"
   xmlns:inkscape="http://www.inkscape.org/namespaces/inkscape"
   xmlns:sodipodi="http://sodipodi.sourceforge.net/DTD/sodipodi-0.dtd"
   xmlns="http://www.w3.org/2000/svg"
   xmlns:svg="http://www.w3.org/2000/svg">
  <sodipodi:namedview
     id="namedview1"
     pagecolor="#ffffff"
     bordercolor="#000000"
     borderopacity="0.25"
     inkscape:showpageshadow="2"
     inkscape:pageopacity="0.0"
     inkscape:pagecheckerboard="0"
     inkscape:deskcolor="#d1d1d1"
     inkscape:document-units="mm"
     inkscape:zoom="0.57291968"
     inkscape:cx="1645.955"
     inkscape:cy="836.94105"
     inkscape:window-width="3840"
     inkscape:window-height="2054"
     inkscape:window-x="-11"
     inkscape:window-y="-11"
     inkscape:window-maximized="1"
     inkscape:current-layer="layer1" />
  <defs
     id="defs1" />
  <g
     inkscape:label="Layer 1"
     inkscape:groupmode="layer"
     id="layer1"
     transform="translate(402.96042,-58.208333)">
    <g
       id="g7"
       transform="matrix(0.26458333,0,0,0.26458333,-402.95952,58.214424)">
	<g
   id="g6">
		<g
   id="g5">
			<g
   id="g4">
				<path
   class="st2"
   d="M 824.2,348.7 799.6,222.1 743,348.8 h 81.2 M 1713,670.5 h -134 l -18,-403.7 -174.4,403.7 h -89.4 l -74.6,-365 -116.3,365 H 878.6 L 844.3,475.3 h -155 l -87.9,195.2 h -140 L 749,17.9 h 165.4 l 88,527.5 171.4,-527.5 h 132.6 l 65.5,357.5 151.8,-357.5 h 161 l 28.3,652.6"
   id="path1"
   style="fill:#30308f" />

				<polyline
   class="st2"
   points="2097.5,670.5 2119.8,530.5 1885.7,530.5 1904.4,414.2 2107.9,414.2 2130.3,274.1 1924.6,274.1       1942.4,158 2176.3,158 2198.6,17.9 1827.6,17.9 1723.5,670.5 2097.5,670.5     "
   id="polyline1"
   style="fill:#30308f" />

				<polyline
   class="st2"
   points="3839,17.9 3682.7,17.9 3550.1,231 3466.5,17.9 3313.1,17.9 3471,362 3422.4,670.5 3556.5,670.5       3597.7,397.8 3839,17.9     "
   id="polyline2"
   style="fill:#30308f" />

				<path
   class="st2"
   d="m 3042.9,546.3 c 71,31.8 157.8,-30.5 194,-139.1 36.2,-108.5 8,-222.3 -63,-254 -70.9,-31.8 -157.7,30.6 -194,139.1 -36,108.5 -7.9,222.3 63,254 M 2840,288.1 C 2881.7,107.7 3035.9,-10.6 3184.4,23.6 3333.1,58 3419.7,232 3378.1,412.3 3336.4,592.8 3182.2,711 3033.7,676.8 2885.2,642.6 2798.3,468.6 2840,288.1"
   id="path2"
   style="fill:#30308f" />

				<path
   class="st2"
   d="M 175.3,76 C 47.7,155.2 -13.8,275.6 2.6,439.6 c 19,190.2 265.2,309.9 473.9,189.4 18.2,-10.5 11.1,-9 17.9,-15 l 41.8,-265.1 h -249 L 268.1,471 h 104 l -11.9,65.6 c -59.6,23.8 -160.9,14.9 -204,-62.7 -27.3,-49.1 -52.7,-158.7 62.7,-259.2 93.9,-82 256.2,-96.8 350.1,-53.6 0,0 11.9,-68.6 20.9,-132.7 C 409.3,-34.2 269.2,17.9 175.3,76"
   id="path3"
   style="fill:#30308f" />

				<path
   class="st2"
   d="m 2402.7,21.6 -103.6,647.6 c 0,0 214.4,0 301.6,0 124.3,0 305.8,-183.1 140.5,-332.7 170.1,-176 1.5,-313.4 -88.7,-314.9 -72.5,-1.3 -251.4,0 -251.4,0 h 1.6 m 74,391.8 c 0,0 28.1,0 112.3,0 106.4,0 103.6,130.2 -14.8,130.2 -73.9,0 -118.4,0 -118.4,0 l 20.9,-130.2 m 41.5,-254.2 c 0,0 3,0 87.2,0 94.6,0 75.4,121.3 -14.8,121.3 -73.9,0 -93.1,0 -93.1,0 l 20.7,-121.3"
   id="path4"
   style="fill:#30308f" />

			</g>

		</g>

	</g>

</g>
  </g>
</svg>
