<?xml version="1.0" encoding="UTF-8" standalone="no"?>
<!-- Created with Inkscape (http://www.inkscape.org/) -->

<svg
   width="1016.0145mm"
   height="122.2841mm"
   viewBox="0 0 1016.0145 122.2841"
   version="1.1"
   id="svg1"
   inkscape:version="1.3.2 (091e20e, 2023-11-25, custom)"
   sodipodi:docname="gbc.svg"
   xmlns:inkscape="http://www.inkscape.org/namespaces/inkscape"
   xmlns:sodipodi="http://sodipodi.sourceforge.net/DTD/sodipodi-0.dtd"
   xmlns="http://www.w3.org/2000/svg"
   xmlns:svg="http://www.w3.org/2000/svg">
  <sodipodi:namedview
     id="namedview1"
     pagecolor="#ffffff"
     bordercolor="#000000"
     borderopacity="0.25"
     inkscape:showpageshadow="2"
     inkscape:pageopacity="0.0"
     inkscape:pagecheckerboard="0"
     inkscape:deskcolor="#d1d1d1"
     inkscape:document-units="mm"
     inkscape:zoom="0.40511539"
     inkscape:cx="755.34035"
     inkscape:cy="161.68233"
     inkscape:window-width="3840"
     inkscape:window-height="2054"
     inkscape:window-x="-11"
     inkscape:window-y="-11"
     inkscape:window-maximized="1"
     inkscape:current-layer="layer1" />
  <defs
     id="defs1" />
  <g
     inkscape:label="Layer 1"
     inkscape:groupmode="layer"
     id="layer1"
     transform="translate(402.96041,-87.3125)">
    <g
       id="g10"
       transform="matrix(0.26458333,0,0,0.26458333,-402.95108,87.334076)">
	<g
   id="g9">
		<path
   class="st1"
   d="m 3827.5,378.7 c -2.6,-3.7 -5.7,-7 -9.1,-9.9 -16,-13.7 -76.9,-65.7 -122.5,-103.1 35.6,-19.4 52.7,-32.8 52.7,-32.8 0,0 49.5,-32.8 60.1,-83 8.1,-48.2 -1,-73.4 -70.6,-107.5 -55.3,-27.1 -170.6,-51.3 -231.9,34.3 -14.2,19.8 -14.2,50.3 -8.3,65.9 13.8,36.4 25.7,65.2 23.2,204.5 -0.3,16.9 -12,24.1 -13.4,40.7 -1.5,17.9 4.9,65.4 55.2,67.4 43.3,1.8 50.9,-35.5 50.9,-50.9 0,-25.5 0,-71.5 0,-71.5 0,0 117.4,98.6 137.6,115.8 10.9,9.3 25,14.6 39.3,13.3 10.9,-1 23.3,-5.5 35.6,-17.5 24.9,-24.5 10,-53.1 1.2,-65.7 z m -213.9,-185.6 0.2,-80.8 h 61.1 c 28.1,0 43.4,33.2 24.7,54.2 -13,14.7 -38.3,26.6 -86,26.6 z"
   id="path1"
   style="fill:#00968c" />

		<path
   class="st0"
   d="m 489.9,228.5 -14.6,-75.3 -33.6,75.3 h 48.2 m 528.3,191.2 h -79.7 l -10.6,-240 -103.6,240 h -53.1 l -44.3,-217 -69.1,217 H 522.3 l -20.4,-116 h -92.1 l -52.2,116 H 274.4 L 445.2,31.9 h 98.3 L 595.8,345.4 697.6,31.9 h 78.8 l 39,212.5 90.3,-212.5 h 95.6 l 16.9,387.8"
   id="path2"
   style="fill:#30308f" />

		<polyline
   class="st0"
   points="1246.7,419.7 1260,336.5 1120.9,336.5 1132,267.4 1252.9,267.4 1266.2,184.2 1143.9,184.2     1154.6,115.1 1293.6,115.1 1306.9,31.9 1086.4,31.9 1024.4,419.7 1246.7,419.7   "
   id="polyline2"
   style="fill:#30308f" />

		<polyline
   class="st0"
   points="2281.9,31.9 2188.9,31.9 2110.1,158.5 2060.5,31.9 1969.3,31.9 2063.2,236.4 2034.3,419.7     2114,419.7 2138.4,257.7 2281.9,31.9   "
   id="polyline3"
   style="fill:#30308f" />

		<path
   class="st0"
   d="m 1808.7,345.9 c 42.2,18.9 93.8,-18.1 115.3,-82.7 21.5,-64.5 4.8,-132.1 -37.4,-151 -42.1,-18.9 -93.7,18.2 -115.3,82.7 -21.5,64.5 -4.8,132.1 37.4,151 M 1688.1,192.4 c 24.7,-107.2 116.4,-177.6 204.7,-157.2 88.3,20.4 139.9,123.9 115.1,231.1 -24.7,107.2 -116.4,177.6 -204.7,157.2 -88.4,-20.4 -139.9,-123.8 -115.1,-231.1"
   id="path3"
   style="fill:#30308f" />

		<path
   class="st0"
   d="m 104.3,66.4 c -76,47 -112.5,118.7 -102.8,216.1 11.3,113 157.6,184.2 281.6,112.5 10.8,-6.3 6.6,-5.3 10.6,-8.9 L 318.5,228.5 H 170.7 l -11.3,72.6 h 61.8 l -7.1,39 C 178.7,354.3 118.5,349 92.8,302.9 76.6,273.8 61.5,208.7 130,148.8 185.8,100.1 282.3,91.3 338.1,117 c 0,0 7.1,-40.8 12.4,-78.9 C 243.3,0.9 160.1,31.9 104.3,66.4"
   id="path4"
   style="fill:#30308f" />

		<path
   class="st0"
   d="M 1428.2,34.1 1366.7,419 c 0,0 127.4,0 179.3,0 73.8,0 181.8,-108.8 83.5,-197.8 101.1,-104.6 0.9,-186.3 -52.7,-187.2 -43.1,-0.7 -149.4,0 -149.4,0 h 0.8 m 43.9,232.9 c 0,0 16.7,0 66.8,0 63.3,0 61.5,77.3 -8.8,77.3 -43.9,0 -70.3,0 -70.3,0 l 12.3,-77.3 m 24.6,-151.1 c 0,0 1.7,0 51.9,0 56.2,0 44.8,72.1 -8.8,72.1 -43.9,0 -55.4,0 -55.4,0 l 12.3,-72.1"
   id="path5"
   style="fill:#30308f" />

		<path
   class="st2"
   d="m 3354.2,88.4 c -113.4,-0.6 -204.7,64.3 -204.2,184.8 0.4,101.4 56.4,175.8 163.9,172.6 80.2,-2.4 209.6,-72.7 209.6,-184.1 0,-93.5 -60.5,-172.7 -169.3,-173.3 z m 74.3,173.2 c -4.7,44.6 -50.1,80.8 -101.4,80.9 -51.3,0 -89,-36.1 -84.3,-80.7 4.7,-44.6 50.1,-80.8 101.4,-80.9 51.3,0 89,36.1 84.3,80.7 z"
   id="path6"
   style="fill:#dfb10a" />

		<path
   class="st3"
   d="m 2792.4,77.4 c -101.3,-3.3 -199.6,85.9 -211.3,187.3 -13.6,117.8 62.5,179.5 164.7,181.6 116,2.4 196.8,-72.1 206,-173.7 9,-100.6 -58.1,-191.9 -159.4,-195.2 z m -36.1,275.1 c -45.5,0 -76,-40.4 -68.1,-90.2 7.9,-49.8 51.2,-90.2 96.7,-90.2 45.5,0 66.3,44.7 65.1,95.1 -1.6,70 -48.2,85.3 -93.7,85.3 z"
   id="path7"
   style="fill:#4f549d" />

		<path
   class="st4"
   d="m 2505,97.7 c 7.5,-1.8 14.9,2.7 17.4,10 11.1,32.6 55.8,49.3 85.4,21.7 10.7,-10 14,-23 16.7,-50.6 6.9,-71.3 -126,-106.3 -196.5,-53.3 -48.7,36.6 -148.4,143.8 -146,271.2 -1,35.1 9.3,60.6 9.3,60.6 0,0 18.2,63 81.2,87.7 38.4,15.9 96.2,13 96.2,13 0,0 108.7,0 109,0 43,0 81.8,-105.6 -27.3,-96.5 -45.9,3.8 -180,38.6 -177.3,-77.4 2.1,-93.2 91.3,-176.5 131.9,-186.4 z"
   id="path8"
   style="fill:#bd0547" />

		<path
   class="st5"
   d="m 3039.4,339.2 -4.9,-188.1 c -0.3,-9.1 -1,-18.1 -2.1,-27.1 -3.2,-24.3 -10.8,-70.5 -23.9,-88.6 -21.9,-30.2 -67.8,-31.6 -82.5,-2.3 -10,19.9 -8.7,53.9 7,94.1 8,20.4 12.1,42.1 13.2,64 0,0 8.8,141.7 11.8,188.9 1.3,20.6 -6.5,68 20.5,77.9 41.2,15.1 108.7,-41.9 190.2,-44.3 47,-1.4 75.9,-130.7 -70.9,-95.7 -32.6,7.8 -58.4,21.2 -58.4,21.2 z"
   id="path9"
   style="fill:#7aac3b" />

	</g>

</g>
  </g>
</svg>
