<?xml version="1.0" encoding="UTF-8" standalone="no"?>
<!-- Created with Inkscape (http://www.inkscape.org/) -->

<svg
   width="1015.7354mm"
   height="231.77499mm"
   viewBox="0 0 1015.7354 231.77499"
   version="1.1"
   id="svg1"
   inkscape:version="1.3.2 (091e20e, 2023-11-25, custom)"
   sodipodi:docname="gc.svg"
   xmlns:inkscape="http://www.inkscape.org/namespaces/inkscape"
   xmlns:sodipodi="http://sodipodi.sourceforge.net/DTD/sodipodi-0.dtd"
   xmlns="http://www.w3.org/2000/svg"
   xmlns:svg="http://www.w3.org/2000/svg">
  <sodipodi:namedview
     id="namedview1"
     pagecolor="#ffffff"
     bordercolor="#000000"
     borderopacity="0.25"
     inkscape:showpageshadow="2"
     inkscape:pageopacity="0.0"
     inkscape:pagecheckerboard="0"
     inkscape:deskcolor="#d1d1d1"
     inkscape:document-units="mm"
     inkscape:zoom="0.57291968"
     inkscape:cx="1347.4838"
     inkscape:cy="-133.52657"
     inkscape:window-width="3840"
     inkscape:window-height="2054"
     inkscape:window-x="-11"
     inkscape:window-y="-11"
     inkscape:window-maximized="1"
     inkscape:current-layer="layer1" />
  <defs
     id="defs1">
    <linearGradient
       id="SVGID_1_"
       gradientUnits="userSpaceOnUse"
       x1="548.87347"
       y1="-7439.5205"
       x2="662.58368"
       y2="-7439.5205"
       gradientTransform="translate(0,7645.3281)">
				<stop
   offset="0"
   style="stop-color:#3C4DA1"
   id="stop12" />

				<stop
   offset="0.9932"
   style="stop-color:#45495F"
   id="stop13" />

			</linearGradient>
    <linearGradient
       id="SVGID_2_"
       gradientUnits="userSpaceOnUse"
       x1="246.5065"
       y1="-7063.4438"
       x2="246.5065"
       y2="-6900.6475"
       gradientTransform="translate(0,7645.3281)">
				<stop
   offset="3.680000e-02"
   style="stop-color:#F7FBFF"
   id="stop14" />

				<stop
   offset="0.8957"
   style="stop-color:#E7ECFE"
   id="stop15" />

			</linearGradient>
    <linearGradient
       id="SVGID_3_"
       gradientUnits="userSpaceOnUse"
       x1="636.72339"
       y1="-7054.0352"
       x2="636.72339"
       y2="-7218.0679"
       gradientTransform="translate(0,7645.3281)">
				<stop
   offset="3.680000e-02"
   style="stop-color:#ADC1EA"
   id="stop16" />

				<stop
   offset="0.8957"
   style="stop-color:#7185B8"
   id="stop17" />

			</linearGradient>
    <linearGradient
       id="SVGID_4_"
       gradientUnits="userSpaceOnUse"
       x1="379.3028"
       y1="-6982.0454"
       x2="644.89539"
       y2="-6982.0454"
       gradientTransform="translate(0,7645.3281)">
				<stop
   offset="3.680000e-02"
   style="stop-color:#F7FBFF"
   id="stop18" />

				<stop
   offset="0.8957"
   style="stop-color:#6F83B9"
   id="stop19" />

			</linearGradient>
    <linearGradient
       id="SVGID_5_"
       gradientUnits="userSpaceOnUse"
       x1="883.61353"
       y1="-4258.9849"
       x2="1262.9164"
       y2="-4258.9849"
       gradientTransform="translate(-883.6135,4806.4336)">
						<stop
   offset="0"
   style="stop-color:#617CC6"
   id="stop20" />

						<stop
   offset="0.9932"
   style="stop-color:#91B0D7"
   id="stop21" />

					</linearGradient>
    <linearGradient
       id="SVGID_6_"
       gradientUnits="userSpaceOnUse"
       x1="246.5065"
       y1="-7514.0371"
       x2="246.5065"
       y2="-7054.0352"
       gradientTransform="translate(0,7645.3281)">
				<stop
   offset="1.491781e-07"
   style="stop-color:#4C5794"
   id="stop22" />

				<stop
   offset="1"
   style="stop-color:#424873"
   id="stop23" />

			</linearGradient>
    <linearGradient
       id="SVGID_7_"
       gradientUnits="userSpaceOnUse"
       x1="419.3703"
       y1="-7247.4365"
       x2="718.51129"
       y2="-6948.2954"
       gradientTransform="translate(0,7645.3281)">
				<stop
   offset="7.458905e-08"
   style="stop-color:#3F578E"
   id="stop24" />

				<stop
   offset="0.1523"
   style="stop-color:#435A92"
   id="stop25" />

				<stop
   offset="0.3057"
   style="stop-color:#4F639D"
   id="stop26" />

				<stop
   offset="0.4593"
   style="stop-color:#6373B0"
   id="stop27" />

				<stop
   offset="0.5006"
   style="stop-color:#6A78B6"
   id="stop28" />

				<stop
   offset="0.8998"
   style="stop-color:#6F83C1"
   id="stop29" />

				<stop
   offset="1"
   style="stop-color:#7187C4"
   id="stop30" />

			</linearGradient>
    <linearGradient
       id="SVGID_8_"
       gradientUnits="userSpaceOnUse"
       x1="1262.9164"
       y1="-4806.4336"
       x2="1262.9164"
       y2="-4368.4746"
       gradientTransform="translate(-883.6135,4806.4336)">
						<stop
   offset="0"
   style="stop-color:#9AA8D4"
   id="stop31" />

						<stop
   offset="6.100000e-02"
   style="stop-color:#A2AFD7"
   id="stop32" />

						<stop
   offset="0.2422"
   style="stop-color:#B6BFDF"
   id="stop33" />

						<stop
   offset="0.4249"
   style="stop-color:#C2C9E3"
   id="stop34" />

						<stop
   offset="0.6099"
   style="stop-color:#C6CCE5"
   id="stop35" />

						<stop
   offset="1"
   style="stop-color:#F2F1F7"
   id="stop36" />

					</linearGradient>
    <linearGradient
       id="SVGID_9_"
       gradientUnits="userSpaceOnUse"
       x1="379.3028"
       y1="-7455.6499"
       x2="548.87347"
       y2="-7455.6499"
       gradientTransform="translate(0,7645.3281)">
				<stop
   offset="3.680000e-02"
   style="stop-color:#8792C3"
   id="stop37" />

				<stop
   offset="1"
   style="stop-color:#5C6D99"
   id="stop38" />

			</linearGradient>
    <linearGradient
       id="SVGID_10_"
       gradientUnits="userSpaceOnUse"
       x1="357.09839"
       y1="-7112.0996"
       x2="379.3028"
       y2="-7112.0996"
       gradientTransform="translate(0,7645.3281)">
				<stop
   offset="0.5313"
   style="stop-color:#ACC3D6;stop-opacity:0"
   id="stop39" />

				<stop
   offset="1"
   style="stop-color:#ACC3D6"
   id="stop40" />

			</linearGradient>
    <linearGradient
       id="SVGID_11_"
       gradientUnits="userSpaceOnUse"
       x1="357.09839"
       y1="-6841.4268"
       x2="379.3028"
       y2="-6841.4268"
       gradientTransform="translate(0,7645.3281)">
				<stop
   offset="0.5313"
   style="stop-color:#ACC3D6;stop-opacity:0"
   id="stop41" />

				<stop
   offset="1"
   style="stop-color:#ACC3D6"
   id="stop42" />

			</linearGradient>
    <linearGradient
       id="SVGID_12_"
       gradientUnits="userSpaceOnUse"
       x1="14424.986"
       y1="-12585.924"
       x2="14447.203"
       y2="-12585.924"
       gradientTransform="matrix(0.5,-0.866,0.866,0.5,3738.1646,19059.336)">
					<stop
   offset="0.6232"
   style="stop-color:#47588B;stop-opacity:0"
   id="stop43" />

					<stop
   offset="1"
   style="stop-color:#47588B"
   id="stop44" />

				</linearGradient>
    <linearGradient
       id="SVGID_13_"
       gradientUnits="userSpaceOnUse"
       x1="14424.986"
       y1="-12315.251"
       x2="14447.202"
       y2="-12315.251"
       gradientTransform="matrix(0.5,-0.866,0.866,0.5,3738.1646,19059.336)">
					<stop
   offset="0.6232"
   style="stop-color:#47588B;stop-opacity:0"
   id="stop45" />

					<stop
   offset="1"
   style="stop-color:#47588B"
   id="stop46" />

				</linearGradient>
    <linearGradient
       id="SVGID_14_"
       gradientUnits="userSpaceOnUse"
       x1="306.29019"
       y1="-7342.8711"
       x2="295.18771"
       y2="-7362.1011"
       gradientTransform="translate(0,7645.3281)">
				<stop
   offset="2.290950e-07"
   style="stop-color:#DBDDE8;stop-opacity:0"
   id="stop47" />

				<stop
   offset="0.1847"
   style="stop-color:#D8DAE6;stop-opacity:3.690000e-02"
   id="stop48" />

				<stop
   offset="0.3247"
   style="stop-color:#CED1DF;stop-opacity:6.490000e-02"
   id="stop49" />

				<stop
   offset="0.4499"
   style="stop-color:#BEC1D4;stop-opacity:9.000000e-02"
   id="stop50" />

				<stop
   offset="0.5666"
   style="stop-color:#A7ABC4;stop-opacity:0.1133"
   id="stop51" />

				<stop
   offset="0.6774"
   style="stop-color:#898EB0;stop-opacity:0.1355"
   id="stop52" />

				<stop
   offset="0.7836"
   style="stop-color:#656A97;stop-opacity:0.1567"
   id="stop53" />

				<stop
   offset="0.8864"
   style="stop-color:#3A4079;stop-opacity:0.1773"
   id="stop54" />

				<stop
   offset="0.9839"
   style="stop-color:#091157;stop-opacity:0.1968"
   id="stop55" />

				<stop
   offset="1"
   style="stop-color:#000851;stop-opacity:0.2"
   id="stop56" />

			</linearGradient>
    <linearGradient
       id="SVGID_15_"
       gradientUnits="userSpaceOnUse"
       x1="23300.66"
       y1="-6981.6885"
       x2="23294.77"
       y2="-6991.8911"
       gradientTransform="matrix(-1,0,0,1,23548.764,7645.3281)">
				<stop
   offset="2.290950e-07"
   style="stop-color:#DBDDE8;stop-opacity:0"
   id="stop57" />

				<stop
   offset="0.312"
   style="stop-color:#D9DBE7;stop-opacity:6.240000e-02"
   id="stop58" />

				<stop
   offset="0.4549"
   style="stop-color:#D1D4E1;stop-opacity:9.100000e-02"
   id="stop59" />

				<stop
   offset="0.5633"
   style="stop-color:#C5C7D9;stop-opacity:0.1127"
   id="stop60" />

				<stop
   offset="0.6543"
   style="stop-color:#B3B6CC;stop-opacity:0.1309"
   id="stop61" />

				<stop
   offset="0.7345"
   style="stop-color:#9B9FBC;stop-opacity:0.1469"
   id="stop62" />

				<stop
   offset="0.807"
   style="stop-color:#7E82A8;stop-opacity:0.1614"
   id="stop63" />

				<stop
   offset="0.8737"
   style="stop-color:#5B6190;stop-opacity:0.1747"
   id="stop64" />

				<stop
   offset="0.9359"
   style="stop-color:#333974;stop-opacity:0.1872"
   id="stop65" />

				<stop
   offset="0.9924"
   style="stop-color:#070E56;stop-opacity:0.1985"
   id="stop66" />

				<stop
   offset="1"
   style="stop-color:#000851;stop-opacity:0.2"
   id="stop67" />

			</linearGradient>
    <linearGradient
       id="SVGID_16_"
       gradientUnits="userSpaceOnUse"
       x1="14159.403"
       y1="-12213.59"
       x2="14181.604"
       y2="-12213.59"
       gradientTransform="matrix(0.5,-0.866,0.866,0.5,3738.1646,19059.336)">
					<stop
   offset="0.6232"
   style="stop-color:#47588B;stop-opacity:0"
   id="stop68" />

					<stop
   offset="1"
   style="stop-color:#47588B"
   id="stop69" />

				</linearGradient>
    <linearGradient
       id="SVGID_17_"
       gradientUnits="userSpaceOnUse"
       x1="25559.863"
       y1="7525.6333"
       x2="25582.072"
       y2="7525.6333"
       gradientTransform="matrix(-0.5,-0.866,-0.866,0.5,19820.387,19059.336)">
					<stop
   offset="0.7598"
   style="stop-color:#3B4D86;stop-opacity:0"
   id="stop70" />

					<stop
   offset="1"
   style="stop-color:#3B4D86"
   id="stop71" />

				</linearGradient>
    <linearGradient
       id="SVGID_18_"
       gradientUnits="userSpaceOnUse"
       x1="26134.582"
       y1="7525.6572"
       x2="26113.145"
       y2="7525.6572"
       gradientTransform="matrix(-0.5,-0.866,-0.866,0.5,19820.387,19059.336)">
					<stop
   offset="0.6232"
   style="stop-color:#E8F2F3;stop-opacity:0"
   id="stop72" />

					<stop
   offset="0.9975"
   style="stop-color:#E8F2F3"
   id="stop73" />

				</linearGradient>
    <linearGradient
       id="SVGID_19_"
       gradientUnits="userSpaceOnUse"
       x1="14703.654"
       y1="-12328.145"
       x2="14682.252"
       y2="-12328.145"
       gradientTransform="matrix(0.5,-0.866,0.866,0.5,3799.0386,19059.336)">
					<stop
   offset="0.6232"
   style="stop-color:#E8F2F3;stop-opacity:0"
   id="stop74" />

					<stop
   offset="0.9975"
   style="stop-color:#E8F2F3"
   id="stop75" />

				</linearGradient>
    <linearGradient
       id="SVGID_20_"
       gradientUnits="userSpaceOnUse"
       x1="-2320.1506"
       y1="-2442.3833"
       x2="-2298.7825"
       y2="-2442.3833"
       gradientTransform="matrix(0.5,0.866,0.866,-0.5,3864.8667,969.0223)">
					<stop
   offset="0.6232"
   style="stop-color:#E8F2F3;stop-opacity:0"
   id="stop76" />

					<stop
   offset="0.9975"
   style="stop-color:#E8F2F3"
   id="stop77" />

				</linearGradient>
    <linearGradient
       id="SVGID_21_"
       gradientUnits="userSpaceOnUse"
       x1="22940.424"
       y1="11928.341"
       x2="22962.629"
       y2="11928.341"
       gradientTransform="rotate(180,11803.763,6215.5962)">
					<stop
   offset="0.7598"
   style="stop-color:#3B4D86;stop-opacity:0"
   id="stop78" />

					<stop
   offset="1"
   style="stop-color:#3B4D86"
   id="stop79" />

				</linearGradient>
    <linearGradient
       id="SVGID_22_"
       gradientUnits="userSpaceOnUse"
       x1="656.30829"
       y1="-7046.7051"
       x2="644.57483"
       y2="-7053.4795"
       gradientTransform="translate(0,7645.3281)">
				<stop
   offset="0.7598"
   style="stop-color:#3B4D86;stop-opacity:0"
   id="stop80" />

				<stop
   offset="1"
   style="stop-color:#3B4D86"
   id="stop81" />

			</linearGradient>
  </defs>
  <g
     inkscape:label="Layer 1"
     inkscape:groupmode="layer"
     id="layer1"
     transform="translate(402.96042,-32.54375)">
    <g
       id="g83"
       transform="matrix(0.26458333,0,0,0.26458333,-402.96042,32.54375)">
	<g
   id="g12">
		<polyline
   points="1460.7,424.4 1290.7,720 1503.4,720 1503.4,652.9 1408.5,652.9 1496.3,506.1 1615.1,720 1703.4,720     1531.7,424.4 1460.7,424.4   "
   id="polyline1" />

		<polyline
   points="1896.2,720 1987.1,562.1 1987.1,720 2060.3,720 2060.5,424.4 1987.4,424.4 1866.8,633.7 1746,424.4     1673.2,424.4 1673.3,720 1746.2,720 1746.2,562.1 1837.4,720 1896.2,720   "
   id="polyline2" />

		<path
   d="m 1300.2,542.1 h -184.7 v 62.4 h 107.1 V 653 H 1031.5 V 488.5 H 1297 v -64.1 h -267.9 c -58,0 -76.8,17.8 -76.8,73.5 v 148.6 c 0,55.9 18.7,73.7 76.8,73.7 h 194.5 c 58.1,0 76.7,-17.8 76.7,-73.7 l -0.1,-104.4"
   id="path2" />

		<path
   d="m 2708,424.4 h -173.8 c -58.3,0 -76.8,17.8 -76.8,73.5 v 148.5 c 0,55.9 18.5,73.6 76.8,73.6 H 2708 c 58.1,0 76.9,-17.7 76.9,-73.6 v -53.9 h -79.5 V 653 H 2536.7 V 488.6 h 168.7 v 53.5 h 79.5 v -44.2 c 0,-55.7 -18.8,-73.5 -76.9,-73.5"
   id="path3" />

		<path
   d="M 3068.9,652.9 H 2896 V 424.4 h -79.4 v 222 c 0,55.9 18.7,73.7 76.8,73.7 h 178.1 c 58.2,0 76.9,-17.8 76.9,-73.7 v -222 H 3069 l -0.1,228.5"
   id="path4" />

		<path
   d="m 3429.8,636.8 c 0,14.2 -3.2,18.1 -24.7,18.1 h -142.6 v -57.1 h 142.6 c 21.5,0 24.7,4 24.7,18 v 21 m -167.2,-153 H 3405 c 22,0 23,4.8 23,13.3 V 524 c 0,8.5 -1,13.4 -23,13.4 h -142.4 z m 209.2,84.3 c 19.1,-9.1 29.6,-25.9 29.6,-47.8 v -34.6 c 0,-41.9 -22.4,-61.3 -70.4,-61.3 H 3183.2 V 720 h 230.6 c 60.1,0 90.3,-20.8 90.3,-62.5 v -35.9 c -0.1,-25.1 -11.5,-43.7 -32.3,-53.5 z"
   id="path5" />

		<polyline
   points="3613.4,597.6 3743.3,597.6 3743.3,535.6 3613.4,535.6 3613.4,486.6 3836.3,486.6 3836.3,424.4 3533.9,424.4     3533.9,720 3839,720 3839,652.9 3613.4,652.9 3613.4,597.6   "
   id="polyline5" />

		<polyline
   points="2174.8,597.6 2304.8,597.6 2304.8,535.6 2174.8,535.6 2174.8,486.6 2397.8,486.6 2397.8,424.4 2095.6,424.4     2095.6,720 2400.5,720 2400.5,652.9 2174.8,652.9 2174.8,597.6   "
   id="polyline6" />

		<polyline
   class="st0"
   points="3016.1,342.7 3016.1,115.6 2972.8,115.6 2972.8,260.4 2899.3,115.6 2841.1,115.6 2841.1,342.7     2884.2,342.7 2884.2,165.7 2973.2,342.7 3016.1,342.7   "
   id="polyline7"
   style="fill:#c2c3c4" />

		<polyline
   class="st0"
   points="1763.9,165.7 1853,342.7 1895.9,342.7 1895.9,115.6 1852.7,115.6 1852.7,260.4 1779.1,115.6     1720.8,115.6 1720.8,342.7 1763.9,342.7 1763.9,165.7   "
   id="polyline8"
   style="fill:#c2c3c4" />

		<polyline
   class="st0"
   points="1055.9,165.7 1144.9,342.7 1187.6,342.7 1187.6,115.6 1144.4,115.6 1144.4,260.4 1071,115.6     1012.7,115.6 1012.7,342.7 1055.9,342.7 1055.9,165.7   "
   id="polyline9"
   style="fill:#c2c3c4" />

		<rect
   x="1429.8"
   y="115.6"
   class="st0"
   width="48.700001"
   height="227.2"
   id="rect9"
   style="fill:#c2c3c4" />

		<polyline
   class="st0"
   points="2162.8,342.7 2209.1,342.7 2209.1,151.8 2282,151.8 2282,115.7 2089.8,115.7 2089.8,151.8     2162.8,151.8 2162.8,342.7   "
   id="polyline10"
   style="fill:#c2c3c4" />

		<path
   class="st0"
   d="m 3270.9,150.5 h 61 c 14.9,0 30.3,11.4 30.3,25.2 V 283 c 0,14.7 -15.8,24.9 -30.3,24.9 h -61 V 150.5 m 62.3,192.2 c 39.8,0 71.9,-26.3 71.9,-58.6 V 174.4 c 0,-32.5 -32.1,-58.8 -71.9,-58.8 h -105.1 v 227.2 z"
   id="path10"
   style="fill:#c2c3c4" />

		<path
   class="st0"
   d="m 3741.1,284.6 c 0,13.7 -15.5,25 -30.3,25 h -36 c -14.9,0 -30.3,-11.3 -30.3,-25 V 173.9 c 0,-14.1 15.4,-25.1 30.3,-25.1 h 36 c 14.8,0 30.3,11 30.3,25.1 v 110.7 m 42.9,-112 c 0,-32.4 -32.4,-58.6 -71.9,-58.6 h -38.8 c -39.6,0 -71.8,26.3 -71.8,58.6 v 113.2 c 0,32.5 32.2,58.7 71.8,58.7 h 38.8 c 39.5,0 71.9,-26.2 71.9,-58.7 z"
   id="path11"
   style="fill:#c2c3c4" />

		<path
   class="st0"
   d="m 2460.7,284.3 c 0,31.6 30.5,57.1 68.6,58.4 h 100.1 v -36 h -95.8 c -15,0 -30.3,-9.8 -30.3,-23.6 V 242 h 126.1 v -36.4 h -126.1 v -30.4 c 0,-13.7 15.3,-23.7 30.3,-23.7 h 95.8 v -35.9 h -98.6 c -38.8,0.8 -70.1,26.6 -70.1,58.5 v 110.2"
   id="path12"
   style="fill:#c2c3c4" />

	</g>

	<g
   id="g82">
		<g
   id="g81">
			
				<linearGradient
   id="linearGradient2"
   gradientUnits="userSpaceOnUse"
   x1="548.87347"
   y1="-7439.5205"
   x2="662.58368"
   y2="-7439.5205"
   gradientTransform="translate(0,7645.3281)">
				<stop
   offset="0"
   style="stop-color:#3C4DA1"
   id="stop1" />

				<stop
   offset="0.9932"
   style="stop-color:#45495F"
   id="stop2" />

			</linearGradient>

			<polygon
   class="st1"
   points="662.6,163.5 662.6,182.4 548.9,248.1 548.9,229.2 "
   id="polygon13"
   style="fill:url(#SVGID_1_)" />

			
				<linearGradient
   id="linearGradient4"
   gradientUnits="userSpaceOnUse"
   x1="246.5065"
   y1="-7063.4438"
   x2="246.5065"
   y2="-6900.6475"
   gradientTransform="translate(0,7645.3281)">
				<stop
   offset="3.680000e-02"
   style="stop-color:#F7FBFF"
   id="stop3" />

				<stop
   offset="0.8957"
   style="stop-color:#E7ECFE"
   id="stop4" />

			</linearGradient>

			<polygon
   class="st2"
   points="130.1,581.9 113.7,591.3 379.3,744.7 379.3,725.8 "
   id="polygon15"
   style="fill:url(#SVGID_2_)" />

			<g
   id="g15">
				<path
   class="st73"
   d="M 113.7,284.6 379.3,131.3"
   id="path15"
   style="fill:none;stroke:#000000;stroke-width:4.3485;stroke-miterlimit:10" />

			</g>

			<path
   class="st73"
   d="m 379.3,131.3 169.6,97.9"
   id="path16"
   style="fill:none;stroke:#000000;stroke-width:4.3485;stroke-miterlimit:10" />

			
				<linearGradient
   id="linearGradient6"
   gradientUnits="userSpaceOnUse"
   x1="636.72339"
   y1="-7054.0352"
   x2="636.72339"
   y2="-7218.0679"
   gradientTransform="translate(0,7645.3281)">
				<stop
   offset="3.680000e-02"
   style="stop-color:#ADC1EA"
   id="stop5" />

				<stop
   offset="0.8957"
   style="stop-color:#7185B8"
   id="stop6" />

			</linearGradient>

			<polygon
   class="st4"
   points="628.6,436.7 628.6,581.9 644.9,591.3 644.9,427.3 "
   id="polygon17"
   style="fill:url(#SVGID_3_)" />

			
				<linearGradient
   id="linearGradient8"
   gradientUnits="userSpaceOnUse"
   x1="379.3028"
   y1="-6982.0454"
   x2="644.89539"
   y2="-6982.0454"
   gradientTransform="translate(0,7645.3281)">
				<stop
   offset="3.680000e-02"
   style="stop-color:#F7FBFF"
   id="stop7" />

				<stop
   offset="0.8957"
   style="stop-color:#6F83B9"
   id="stop8" />

			</linearGradient>

			<polygon
   class="st5"
   points="628.6,581.9 379.3,725.8 379.3,744.7 644.9,591.3 "
   id="polygon19"
   style="fill:url(#SVGID_4_)" />

			<g
   id="g22">
				<g
   id="g21">
					
						<linearGradient
   id="linearGradient10"
   gradientUnits="userSpaceOnUse"
   x1="883.61353"
   y1="-4258.9849"
   x2="1262.9164"
   y2="-4258.9849"
   gradientTransform="translate(-883.6135,4806.4336)">
						<stop
   offset="0"
   style="stop-color:#617CC6"
   id="stop9" />

						<stop
   offset="0.9932"
   style="stop-color:#91B0D7"
   id="stop10" />

					</linearGradient>

					<path
   class="st6"
   d="M 203.2,336.3 V 539.6 L 379.3,641.3 V 438 Z M 113.7,284.6 0,219 V 657 L 379.3,876 V 744.6 L 113.7,591.3 Z"
   id="path21"
   style="fill:url(#SVGID_5_)" />

				</g>

			</g>

			
				<linearGradient
   id="linearGradient82"
   gradientUnits="userSpaceOnUse"
   x1="246.5065"
   y1="-7514.0371"
   x2="246.5065"
   y2="-7054.0352"
   gradientTransform="translate(0,7645.3281)">
				<stop
   offset="1.491781e-07"
   style="stop-color:#4C5794"
   id="stop11" />

				<stop
   offset="1"
   style="stop-color:#424873"
   id="stop82" />

			</linearGradient>

			<polygon
   class="st7"
   points="113.7,284.6 113.7,591.3 130.1,581.9 130.1,294.1 379.3,150.2 379.3,131.3 "
   id="polygon23"
   style="fill:url(#SVGID_6_)" />

			
				<linearGradient
   id="linearGradient89"
   gradientUnits="userSpaceOnUse"
   x1="419.3703"
   y1="-7247.4365"
   x2="718.51129"
   y2="-6948.2954"
   gradientTransform="translate(0,7645.3281)">
				<stop
   offset="7.458905e-08"
   style="stop-color:#3F578E"
   id="stop83" />

				<stop
   offset="0.1523"
   style="stop-color:#435A92"
   id="stop84" />

				<stop
   offset="0.3057"
   style="stop-color:#4F639D"
   id="stop85" />

				<stop
   offset="0.4593"
   style="stop-color:#6373B0"
   id="stop86" />

				<stop
   offset="0.5006"
   style="stop-color:#6A78B6"
   id="stop87" />

				<stop
   offset="0.8998"
   style="stop-color:#6F83C1"
   id="stop88" />

				<stop
   offset="1"
   style="stop-color:#7187C4"
   id="stop89" />

			</linearGradient>

			<polygon
   class="st8"
   points="758.6,219 758.6,656.9 757.1,657.9 379.3,876 379.3,744.7 644.9,591.3 644.9,427.3 555.4,478.9 555.4,539.6 379.3,641.3 379.3,438 "
   id="polygon30"
   style="fill:url(#SVGID_7_)" />

			<g
   id="g37">
				<g
   id="g36">
					
						<linearGradient
   id="linearGradient95"
   gradientUnits="userSpaceOnUse"
   x1="1262.9164"
   y1="-4806.4336"
   x2="1262.9164"
   y2="-4368.4746"
   gradientTransform="translate(-883.6135,4806.4336)">
						<stop
   offset="0"
   style="stop-color:#9AA8D4"
   id="stop90" />

						<stop
   offset="6.100000e-02"
   style="stop-color:#A2AFD7"
   id="stop91" />

						<stop
   offset="0.2422"
   style="stop-color:#B6BFDF"
   id="stop92" />

						<stop
   offset="0.4249"
   style="stop-color:#C2C9E3"
   id="stop93" />

						<stop
   offset="0.6099"
   style="stop-color:#C6CCE5"
   id="stop94" />

						<stop
   offset="1"
   style="stop-color:#F2F1F7"
   id="stop95" />

					</linearGradient>

					<path
   class="st9"
   d="M 548.9,229.2 662.6,163.6 379.3,0 0,219 113.7,284.6 379.3,131.3 Z M 742.3,209.6 539,326.9 379.3,234.7 203.2,336.3 379.3,438 758.6,219 Z"
   id="path36"
   style="fill:url(#SVGID_8_)" />

				</g>

			</g>

			
				<linearGradient
   id="linearGradient97"
   gradientUnits="userSpaceOnUse"
   x1="379.3028"
   y1="-7455.6499"
   x2="548.87347"
   y2="-7455.6499"
   gradientTransform="translate(0,7645.3281)">
				<stop
   offset="3.680000e-02"
   style="stop-color:#8792C3"
   id="stop96" />

				<stop
   offset="1"
   style="stop-color:#5C6D99"
   id="stop97" />

			</linearGradient>

			<polygon
   class="st10"
   points="379.3,131.3 379.3,150.2 548.9,248.1 548.9,229.2 "
   id="polygon38"
   style="fill:url(#SVGID_9_)" />

			
				<linearGradient
   id="linearGradient99"
   gradientUnits="userSpaceOnUse"
   x1="357.09839"
   y1="-7112.0996"
   x2="379.3028"
   y2="-7112.0996"
   gradientTransform="translate(0,7645.3281)">
				<stop
   offset="0.5313"
   style="stop-color:#ACC3D6;stop-opacity:0"
   id="stop98" />

				<stop
   offset="1"
   style="stop-color:#ACC3D6"
   id="stop99" />

			</linearGradient>

			<polygon
   class="st11"
   points="357.1,425.2 357.1,628.5 379.3,641.3 379.3,438 "
   id="polygon40"
   style="opacity:0.7;fill:url(#SVGID_10_);enable-background:new" />

			
				<linearGradient
   id="linearGradient101"
   gradientUnits="userSpaceOnUse"
   x1="357.09839"
   y1="-6841.4268"
   x2="379.3028"
   y2="-6841.4268"
   gradientTransform="translate(0,7645.3281)">
				<stop
   offset="0.5313"
   style="stop-color:#ACC3D6;stop-opacity:0"
   id="stop100" />

				<stop
   offset="1"
   style="stop-color:#ACC3D6"
   id="stop101" />

			</linearGradient>

			<polygon
   class="st12"
   points="357.1,731.8 357.1,863.1 379.3,876 379.3,744.7 "
   id="polygon42"
   style="opacity:0.7;fill:url(#SVGID_11_);enable-background:new" />

			<g
   class="st13"
   id="g46"
   style="opacity:0.7">
				
					<linearGradient
   id="linearGradient103"
   gradientUnits="userSpaceOnUse"
   x1="14424.986"
   y1="-12585.924"
   x2="14447.203"
   y2="-12585.924"
   gradientTransform="matrix(0.5,-0.866,0.866,0.5,3738.1646,19059.336)">
					<stop
   offset="0.6232"
   style="stop-color:#47588B;stop-opacity:0"
   id="stop102" />

					<stop
   offset="1"
   style="stop-color:#47588B"
   id="stop103" />

				</linearGradient>

				<polygon
   class="st14"
   points="0,244.6 113.7,310.3 113.7,284.6 0,219 "
   id="polygon44"
   style="opacity:0.7;fill:url(#SVGID_12_);enable-background:new" />

				
					<linearGradient
   id="linearGradient105"
   gradientUnits="userSpaceOnUse"
   x1="14424.986"
   y1="-12315.251"
   x2="14447.202"
   y2="-12315.251"
   gradientTransform="matrix(0.5,-0.866,0.866,0.5,3738.1646,19059.336)">
					<stop
   offset="0.6232"
   style="stop-color:#47588B;stop-opacity:0"
   id="stop104" />

					<stop
   offset="1"
   style="stop-color:#47588B"
   id="stop105" />

				</linearGradient>

				<polygon
   class="st15"
   points="203.2,361.9 379.3,463.6 379.3,438 203.2,336.3 "
   id="polygon46"
   style="opacity:0.7;fill:url(#SVGID_13_);enable-background:new" />

			</g>

			
				<linearGradient
   id="linearGradient115"
   gradientUnits="userSpaceOnUse"
   x1="306.29019"
   y1="-7342.8711"
   x2="295.18771"
   y2="-7362.1011"
   gradientTransform="translate(0,7645.3281)">
				<stop
   offset="2.290950e-07"
   style="stop-color:#DBDDE8;stop-opacity:0"
   id="stop106" />

				<stop
   offset="0.1847"
   style="stop-color:#D8DAE6;stop-opacity:3.690000e-02"
   id="stop107" />

				<stop
   offset="0.3247"
   style="stop-color:#CED1DF;stop-opacity:6.490000e-02"
   id="stop108" />

				<stop
   offset="0.4499"
   style="stop-color:#BEC1D4;stop-opacity:9.000000e-02"
   id="stop109" />

				<stop
   offset="0.5666"
   style="stop-color:#A7ABC4;stop-opacity:0.1133"
   id="stop110" />

				<stop
   offset="0.6774"
   style="stop-color:#898EB0;stop-opacity:0.1355"
   id="stop111" />

				<stop
   offset="0.7836"
   style="stop-color:#656A97;stop-opacity:0.1567"
   id="stop112" />

				<stop
   offset="0.8864"
   style="stop-color:#3A4079;stop-opacity:0.1773"
   id="stop113" />

				<stop
   offset="0.9839"
   style="stop-color:#091157;stop-opacity:0.1968"
   id="stop114" />

				<stop
   offset="1"
   style="stop-color:#000851;stop-opacity:0.2"
   id="stop115" />

			</linearGradient>

			<polygon
   class="st16"
   points="395,243.8 225.4,349.1 203.2,336.3 379.3,234.7 "
   id="polygon56"
   style="fill:url(#SVGID_14_)" />

			
				<linearGradient
   id="linearGradient126"
   gradientUnits="userSpaceOnUse"
   x1="23300.66"
   y1="-6981.6885"
   x2="23294.77"
   y2="-6991.8911"
   gradientTransform="matrix(-1,0,0,1,23548.764,7645.3281)">
				<stop
   offset="2.290950e-07"
   style="stop-color:#DBDDE8;stop-opacity:0"
   id="stop116" />

				<stop
   offset="0.312"
   style="stop-color:#D9DBE7;stop-opacity:6.240000e-02"
   id="stop117" />

				<stop
   offset="0.4549"
   style="stop-color:#D1D4E1;stop-opacity:9.100000e-02"
   id="stop118" />

				<stop
   offset="0.5633"
   style="stop-color:#C5C7D9;stop-opacity:0.1127"
   id="stop119" />

				<stop
   offset="0.6543"
   style="stop-color:#B3B6CC;stop-opacity:0.1309"
   id="stop120" />

				<stop
   offset="0.7345"
   style="stop-color:#9B9FBC;stop-opacity:0.1469"
   id="stop121" />

				<stop
   offset="0.807"
   style="stop-color:#7E82A8;stop-opacity:0.1614"
   id="stop122" />

				<stop
   offset="0.8737"
   style="stop-color:#5B6190;stop-opacity:0.1747"
   id="stop123" />

				<stop
   offset="0.9359"
   style="stop-color:#333974;stop-opacity:0.1872"
   id="stop124" />

				<stop
   offset="0.9924"
   style="stop-color:#070E56;stop-opacity:0.1985"
   id="stop125" />

				<stop
   offset="1"
   style="stop-color:#000851;stop-opacity:0.2"
   id="stop126" />

			</linearGradient>

			<polygon
   class="st17"
   points="118.3,588.7 379.3,736.2 379.3,725.8 130.1,581.9 "
   id="polygon67"
   style="fill:url(#SVGID_15_)" />

			<g
   class="st13"
   id="g69"
   style="opacity:0.7">
				
					<linearGradient
   id="linearGradient128"
   gradientUnits="userSpaceOnUse"
   x1="14159.403"
   y1="-12213.59"
   x2="14181.604"
   y2="-12213.59"
   gradientTransform="matrix(0.5,-0.866,0.866,0.5,3738.1646,19059.336)">
					<stop
   offset="0.6232"
   style="stop-color:#47588B;stop-opacity:0"
   id="stop127" />

					<stop
   offset="1"
   style="stop-color:#47588B"
   id="stop128" />

				</linearGradient>

				<polygon
   class="st18"
   points="113.7,591.3 201.7,652.3 379.3,770.3 379.3,744.7 "
   id="polygon69"
   style="opacity:0.7;fill:url(#SVGID_16_);enable-background:new" />

			</g>

			<g
   class="st13"
   id="g71"
   style="opacity:0.7">
				
					<linearGradient
   id="linearGradient130"
   gradientUnits="userSpaceOnUse"
   x1="25559.863"
   y1="7525.6333"
   x2="25582.072"
   y2="7525.6333"
   gradientTransform="matrix(-0.5,-0.866,-0.866,0.5,19820.387,19059.336)">
					<stop
   offset="0.7598"
   style="stop-color:#3B4D86;stop-opacity:0"
   id="stop129" />

					<stop
   offset="1"
   style="stop-color:#3B4D86"
   id="stop130" />

				</linearGradient>

				<polygon
   class="st19"
   points="493.2,678.9 644.9,591.3 644.9,616.9 490.3,684.3 379.3,744.7 "
   id="polygon71"
   style="opacity:0.7;fill:url(#SVGID_17_);enable-background:new" />

			</g>

			<g
   id="g73">
				
					<linearGradient
   id="linearGradient132"
   gradientUnits="userSpaceOnUse"
   x1="26134.582"
   y1="7525.6572"
   x2="26113.145"
   y2="7525.6572"
   gradientTransform="matrix(-0.5,-0.866,-0.866,0.5,19820.387,19059.336)">
					<stop
   offset="0.6232"
   style="stop-color:#E8F2F3;stop-opacity:0"
   id="stop131" />

					<stop
   offset="0.9975"
   style="stop-color:#E8F2F3"
   id="stop132" />

				</linearGradient>

				<polygon
   class="st20"
   points="379.3,131.4 113.7,284.6 92.4,272.3 379.3,106.8 "
   id="polygon73"
   style="opacity:0.7;fill:url(#SVGID_18_);enable-background:new" />

			</g>

			<g
   class="st13"
   id="g75"
   style="opacity:0.7">
				
					<linearGradient
   id="linearGradient134"
   gradientUnits="userSpaceOnUse"
   x1="14703.654"
   y1="-12328.145"
   x2="14682.252"
   y2="-12328.145"
   gradientTransform="matrix(0.5,-0.866,0.866,0.5,3799.0386,19059.336)">
					<stop
   offset="0.6232"
   style="stop-color:#E8F2F3;stop-opacity:0"
   id="stop133" />

					<stop
   offset="0.9975"
   style="stop-color:#E8F2F3"
   id="stop134" />

				</linearGradient>

				<polygon
   class="st21"
   points="379.3,131.4 548.9,229.2 570.2,216.9 379.3,106.8 "
   id="polygon75"
   style="opacity:0.7;fill:url(#SVGID_19_);enable-background:new" />

			</g>

			<g
   class="st13"
   id="g77"
   style="opacity:0.7">
				
					<linearGradient
   id="linearGradient136"
   gradientUnits="userSpaceOnUse"
   x1="-2320.1506"
   y1="-2442.3833"
   x2="-2298.7825"
   y2="-2442.3833"
   gradientTransform="matrix(0.5,0.866,0.866,-0.5,3864.8667,969.0223)">
					<stop
   offset="0.6232"
   style="stop-color:#E8F2F3;stop-opacity:0"
   id="stop135" />

					<stop
   offset="0.9975"
   style="stop-color:#E8F2F3"
   id="stop136" />

				</linearGradient>

				<polygon
   class="st22"
   points="527.5,216.9 641.2,151.2 662.6,163.5 548.9,229.2 "
   id="polygon77"
   style="opacity:0.7;fill:url(#SVGID_20_);enable-background:new" />

			</g>

			<g
   id="g79">
				
					<linearGradient
   id="linearGradient138"
   gradientUnits="userSpaceOnUse"
   x1="22940.424"
   y1="11928.341"
   x2="22962.629"
   y2="11928.341"
   gradientTransform="rotate(180,11803.763,6215.5962)">
					<stop
   offset="0.7598"
   style="stop-color:#3B4D86;stop-opacity:0"
   id="stop137" />

					<stop
   offset="1"
   style="stop-color:#3B4D86"
   id="stop138" />

				</linearGradient>

				<polygon
   class="st23"
   points="667.1,578.5 667.1,414.4 644.9,427.3 644.9,591.3 "
   id="polygon79"
   style="opacity:0.7;fill:url(#SVGID_21_);enable-background:new" />

			</g>

			
				<linearGradient
   id="linearGradient140"
   gradientUnits="userSpaceOnUse"
   x1="656.30829"
   y1="-7046.7051"
   x2="644.57483"
   y2="-7053.4795"
   gradientTransform="translate(0,7645.3281)">
				<stop
   offset="0.7598"
   style="stop-color:#3B4D86;stop-opacity:0"
   id="stop139" />

				<stop
   offset="1"
   style="stop-color:#3B4D86"
   id="stop140" />

			</linearGradient>

			<polygon
   class="st24"
   points="667.1,578.5 644.9,618.4 644.9,591.3 "
   id="polygon81"
   style="opacity:0.7;fill:url(#SVGID_22_);enable-background:new" />

		</g>

	</g>

</g>
  </g>
</svg>
