<?xml version="1.0" encoding="UTF-8" standalone="no"?>
<!-- Created with Inkscape (http://www.inkscape.org/) -->

<svg
   width="1015.7354mm"
   height="246.90916mm"
   viewBox="0 0 1015.7354 246.90916"
   version="1.1"
   id="svg1"
   inkscape:version="1.3.2 (091e20e, 2023-11-25, custom)"
   sodipodi:docname="gx4000.svg"
   xmlns:inkscape="http://www.inkscape.org/namespaces/inkscape"
   xmlns:sodipodi="http://sodipodi.sourceforge.net/DTD/sodipodi-0.dtd"
   xmlns="http://www.w3.org/2000/svg"
   xmlns:svg="http://www.w3.org/2000/svg">
  <sodipodi:namedview
     id="namedview1"
     pagecolor="#ffffff"
     bordercolor="#000000"
     borderopacity="0.25"
     inkscape:showpageshadow="2"
     inkscape:pageopacity="0.0"
     inkscape:pagecheckerboard="0"
     inkscape:deskcolor="#d1d1d1"
     inkscape:document-units="mm"
     inkscape:zoom="0.28645984"
     inkscape:cx="966.97673"
     inkscape:cy="1460.9378"
     inkscape:window-width="3840"
     inkscape:window-height="2054"
     inkscape:window-x="-11"
     inkscape:window-y="-11"
     inkscape:window-maximized="1"
     inkscape:current-layer="layer1" />
  <defs
     id="defs1" />
  <g
     inkscape:label="Layer 1"
     inkscape:groupmode="layer"
     id="layer1"
     transform="translate(402.96042,-25.135417)">
    <g
       id="g13"
       transform="matrix(0.26458333,0,0,0.26458333,-402.96042,25.135417)">
	<rect
   x="0"
   y="0"
   class="st0"
   width="1987.7"
   height="933.20001"
   id="rect1"
   style="fill:#686868" />

	<rect
   x="1987.7"
   y="0"
   width="1851.3"
   height="933.20001"
   id="rect2" />

	<g
   id="g5">
		<path
   class="st1"
   d="m 3050.9,113.4 c -54.1,0 -98,158 -98,353.1 0,195.1 43.8,353.1 98,353.1 54.1,0 98,-158 98,-353.1 0,-195.1 -43.9,-353.1 -98,-353.1 z m 33.2,550.1 c 0,73.2 -14.9,132.5 -33.2,132.5 -18.3,0 -33.2,-59.4 -33.2,-132.5 v -394 c 0,-73.2 14.9,-132.5 33.2,-132.5 18.3,0 33.2,59.4 33.2,132.5 z"
   id="path2"
   style="fill:#f7db17" />

		<path
   class="st1"
   d="m 3320.7,113.4 c -54.1,0 -98,158 -98,353.1 0,195.1 43.8,353.1 98,353.1 54.2,0 98,-158 98,-353.1 0,-195.1 -43.9,-353.1 -98,-353.1 z m 33.3,550.1 c 0,73.2 -14.9,132.5 -33.2,132.5 -18.3,0 -33.2,-59.4 -33.2,-132.5 v -394 c 0,-73.2 14.9,-132.5 33.2,-132.5 18.3,0 33.2,59.4 33.2,132.5 z"
   id="path3"
   style="fill:#f7db17" />

		<path
   class="st1"
   d="m 3590.5,113.4 c -54.1,0 -98,158 -98,353.1 0,195.1 43.8,353.1 98,353.1 54.2,0 98,-158 98,-353.1 0,-195.1 -44,-353.1 -98,-353.1 z m 0,682.7 c -18.3,0 -33.2,-59.4 -33.2,-132.5 V 269.5 c 0,-73.2 14.9,-132.5 33.2,-132.5 18.3,0 33.2,59.4 33.2,132.5 v 394 c 0,73.3 -14.9,132.6 -33.2,132.6 z"
   id="path4"
   style="fill:#f7db17" />

		<polygon
   class="st1"
   points="2785.8,787.5 2754.1,809.7 2754.1,816.6 2873,816.6 2873,809.7 2841.2,787.5 2841.2,608.8 2889,608.8 2889,581.8 2841.2,581.8 2841.2,418 2785.8,457 2785.8,581.8 2715,581.8 2850.9,123.2 2782.1,123.2 2679.3,608.8 2785.8,608.8 "
   id="polygon4"
   style="fill:#f7db17" />

		<polygon
   class="st1"
   points="2487.4,151.6 2518.1,130.1 2518.1,123.2 2399.1,123.2 2399.1,130.1 2430.8,152.2 2499.3,461.2 2420.9,786.7 2387.9,809.7 2387.9,816.6 2474.1,816.6 2474.1,809.7 2447.5,791.1 2512.6,521.2 2571.8,788.1 2541,809.7 2541,816.6 2660,816.6 2660,809.7 2628.3,787.6 2552.1,443.9 2622.4,152.2 2654.2,130.1 2654.2,123.2 2567.9,123.2 2567.9,130.1 2595.5,149.2 2538.9,384 "
   id="polygon5"
   style="fill:#f7db17" />

		<path
   class="st1"
   d="m 2248.2,420.8 v 6.9 l 34.1,23.9 V 697 c -4.4,57 -11.6,99.1 -29.7,99.1 -21.4,0 -38.8,-59.4 -38.8,-132.5 V 269.5 c 0,-73.2 17.3,-132.5 38.8,-132.5 21.5,0 51,95.3 67,194.4 0,0 0.1,0 0.4,0 0.2,0 0.4,0 0.8,0 1.9,0 5.8,0 5.8,0 V 116.2 h -6.9 l -22.1,31.6 c -11.9,-22.6 -27,-34.3 -45,-34.3 -63.2,0 -114.4,158 -114.4,353.1 0,195.1 51.2,353.1 114.4,353.1 27.9,0 39.2,-30.8 53.5,-81.9 h 0.3 l 24.2,78.9 h 6.9 v -396 h -89.3 z"
   id="path5"
   style="fill:#f7db17" />

	</g>

	<polygon
   class="st2"
   points="1292.1,0 830,933.2 1227,933.2 1675.4,0 "
   id="polygon6"
   style="fill:#c1214e" />

	<g
   id="g12">
		<path
   class="st3"
   d="m 347.1,710.2 h -96.8 l -8,-96.1 H 203 l -7.3,96.1 H 99.6 L 160.8,224.7 H 286.7 Z M 222.6,345.4 208.8,534 h 27.7 z"
   id="path6"
   style="fill:#ffffff" />

		<path
   class="st3"
   d="M 673.3,710.2 H 580.9 V 435 L 544.5,710.2 H 484.8 L 446.2,433.5 V 710.2 H 353.8 V 224.6 h 135.5 l 24.1,214.7 25.5,-214.7 h 134.7 v 485.6 z"
   id="path7"
   style="fill:#ffffff" />

		<path
   class="st3"
   d="m 824.6,391.3 v -57.6 c 0,-15.3 -0.7,-20.4 -2.1,-24.1 -2.9,-5.1 -7.3,-8.8 -12.4,-8.8 -5.1,0 -10.9,3.6 -13.1,8.8 -1.5,4.4 -2.1,8 -2.1,24.1 v 35.6 c 0,16.1 4.4,21.8 23.3,32 l 43.7,24.1 c 57.6,32 65.5,45.1 65.5,110.6 v 78 c 0,42.3 -2.9,56.1 -14.6,71.4 -16,21.8 -33.5,26.2 -109.2,26.2 -60.5,0 -77.1,-3.6 -93.2,-21.8 -9.4,-10.2 -13.8,-21.8 -16,-40 -1.5,-9.4 -1.5,-20.4 -1.5,-53.2 v -87.3 h 102 v 81.5 12.4 c 0,19.7 4.4,27.7 15.3,27.7 9.4,0 14.5,-8 14.5,-21.8 V 596.7 542.8 L 824,532.6 c -0.7,-18.2 -2.9,-21.8 -20.4,-31.3 -6.5,-3.6 -11.7,-5.8 -12.4,-6.5 l -43.1,-24.1 c -47.3,-27 -55.3,-42.3 -55.3,-102.6 v -56.8 c 0,-40 4.4,-57.6 19.7,-71.4 16,-14.5 35,-18.2 105.6,-18.2 61.8,0 78.6,4.4 93.9,24.7 12.4,16.1 15.3,31.3 15.3,76.4 v 68.5 z"
   id="path8"
   style="fill:#ffffff" />

		<path
   class="st3"
   d="M 1088,710.2 H 985.3 v -407 h -51.7 v -78.6 h 204.6 v 78.6 H 1088 Z"
   id="path9"
   style="fill:#ffffff" />

		<path
   class="st3"
   d="m 1253.8,224.6 36.4,0.7 c 71.4,1.5 88.8,20.4 88.8,93.9 v 50.9 c 0,67.7 -10.2,91.1 -45.9,100.5 17.4,5.8 27.7,13.8 35,27 9.4,16.7 10.9,29.9 10.9,86.7 V 710.2 H 1277 V 564.6 c 0,-48 0,-47.3 -25.5,-48 -1.5,0 -2.1,0 -4.4,0 V 710.3 H 1144.5 V 224.6 Z m 0.6,203.1 c 19.7,0 22.6,-4.4 22.6,-35.6 v -52.4 l -0.7,-13.1 c 0,-17.4 -4.4,-22.6 -18.2,-22.6 h -6.5 -4.4 v 123.8 c 3.6,-0.1 5.9,-0.1 7.2,-0.1 z"
   id="path10"
   style="fill:#ffffff" />

		<path
   class="st3"
   d="m 1629.4,710.2 h -96.8 l -8,-96.1 h -39.3 l -7.3,96.1 h -96.1 l 61.2,-485.5 H 1569 Z M 1504.9,345.4 1491.1,534 h 27.7 z"
   id="path11"
   style="fill:#ffffff" />

		<path
   class="st3"
   d="m 1735.6,224.6 c 88.1,0 100.5,2.1 117.2,21.8 15.3,17.4 18.9,36.4 18.9,103.4 v 239.6 c 0,59.7 -2.1,75.8 -13.8,93.2 -13.8,20.4 -34.2,27 -84.4,27 l -51.7,0.7 h -85.9 V 224.6 Z m 12.5,406.3 c 16,0 19.7,-5.1 19.7,-25.5 0,-2.9 0,-5.1 0,-10.2 0,-8 0,-16.7 0,-24.1 V 343.3 330.9 c 0,-21.8 -3.6,-27 -19.7,-27 -2.1,0 -5.8,0.7 -9.4,0.7 v 326.1 c 3.5,0.2 7.1,0.2 9.4,0.2 z"
   id="path12"
   style="fill:#ffffff" />

	</g>

</g>
  </g>
</svg>
