<?xml version="1.0" encoding="UTF-8" standalone="no"?>
<!-- Generator: Adobe Illustrator 12.0.0, SVG Export Plug-In . SVG Version: 6.00 Build 51448)  -->

<svg
   version="1.1"
   id="Layer_1"
   width="3839"
   height="2323.2859"
   viewBox="0 0 3838.9999 2323.286"
   overflow="visible"
   enable-background="new 0 0 354.346 659.055"
   xml:space="preserve"
   sodipodi:docname="j2me.svg"
   inkscape:version="1.4 (86a8ad7, 2024-10-11)"
   xmlns:inkscape="http://www.inkscape.org/namespaces/inkscape"
   xmlns:sodipodi="http://sodipodi.sourceforge.net/DTD/sodipodi-0.dtd"
   xmlns="http://www.w3.org/2000/svg"
   xmlns:svg="http://www.w3.org/2000/svg"><defs
   id="defs13" /><sodipodi:namedview
   id="namedview13"
   pagecolor="#ffffff"
   bordercolor="#000000"
   borderopacity="0.25"
   inkscape:showpageshadow="2"
   inkscape:pageopacity="0.0"
   inkscape:pagecheckerboard="true"
   inkscape:deskcolor="#d1d1d1"
   inkscape:zoom="0.5"
   inkscape:cx="2034"
   inkscape:cy="1146"
   inkscape:window-width="3840"
   inkscape:window-height="2054"
   inkscape:window-x="-11"
   inkscape:window-y="-11"
   inkscape:window-maximized="1"
   inkscape:current-layer="Layer_1" />
<g
   id="g13"
   transform="matrix(5.1393867,0,0,5.1393867,-50.267667,0)">
	<path
   fill-rule="evenodd"
   clip-rule="evenodd"
   fill="#0074bd"
   d="m 117.151,349.592 c 0,0 -17.265,10.049 12.301,13.44 35.824,4.09 54.13,3.501 93.596,-3.959 0,0 10.397,6.504 24.892,12.137 -88.501,37.917 -200.296,-2.197 -130.789,-21.618 z"
   id="path1" />
	<path
   fill-rule="evenodd"
   clip-rule="evenodd"
   fill="#0074bd"
   d="m 106.331,300.104 c 0,0 -19.367,14.339 10.221,17.397 38.271,3.951 68.483,4.275 120.792,-5.792 0,0 7.218,7.332 18.585,11.339 -106.986,31.294 -226.147,2.462 -149.598,-22.944 z"
   id="path2" />
	<path
   fill-rule="evenodd"
   clip-rule="evenodd"
   fill="#ea2d2e"
   d="m 197.494,216.145 c 21.818,25.115 -5.721,47.697 -5.721,47.697 0,0 55.367,-28.577 29.945,-64.38 -23.752,-33.373 -41.962,-49.951 56.623,-107.124 10e-4,0 -154.754,38.641 -80.847,123.807 z"
   id="path3" />
	<path
   fill-rule="evenodd"
   clip-rule="evenodd"
   fill="#0074bd"
   d="m 314.542,386.202 c 0,0 12.781,10.536 -14.077,18.684 -51.071,15.469 -212.604,20.135 -257.47,0.619 -16.117,-7.02 14.121,-16.75 23.635,-18.805 9.92,-2.146 15.584,-1.754 15.584,-1.754 -17.937,-12.631 -115.935,24.807 -49.772,35.544 180.429,29.246 328.895,-13.173 282.1,-34.288 z"
   id="path4" />
	<path
   fill-rule="evenodd"
   clip-rule="evenodd"
   fill="#0074bd"
   d="m 125.46,248.822 c 0,0 -82.155,19.519 -29.092,26.613 22.412,2.999 67.063,2.309 108.685,-1.183 34.006,-2.854 68.133,-8.958 68.133,-8.958 0,0 -11.982,5.14 -20.657,11.06 -83.444,21.947 -244.612,11.726 -198.207,-10.712 39.227,-18.977 71.138,-16.82 71.138,-16.82 z"
   id="path5" />
	<path
   fill-rule="evenodd"
   clip-rule="evenodd"
   fill="#0074bd"
   d="m 272.846,331.198 c 84.818,-44.063 45.597,-86.412 18.223,-80.708 -6.694,1.397 -9.697,2.607 -9.697,2.607 0,0 2.494,-3.907 7.243,-5.588 54.155,-19.03 95.794,56.146 -17.464,85.919 -0.001,0 1.302,-1.18 1.695,-2.23 z"
   id="path6" />
	<path
   fill-rule="evenodd"
   clip-rule="evenodd"
   fill="#ea2d2e"
   d="m 221.719,0 c 0,0 46.963,46.99 -44.557,119.227 -73.393,57.969 -16.734,91.009 -0.026,128.778 C 134.291,209.352 102.865,175.321 123.944,143.653 154.898,97.174 240.663,74.632 221.719,0 Z"
   id="path7" />
	<path
   fill-rule="evenodd"
   clip-rule="evenodd"
   fill="#0074bd"
   d="m 133.799,450.637 c 81.397,5.204 206.426,-2.896 209.385,-41.415 0,0 -5.688,14.602 -67.276,26.188 -69.481,13.081 -155.197,11.558 -206.016,3.167 0,0 10.411,8.617 63.907,12.06 z"
   id="path8" />
	
	<path
   fill-rule="evenodd"
   clip-rule="evenodd"
   fill="#ea2d2e"
   d="m 542.26716,390.78129 c -7.676,6.654 -15.793,10.396 -23.079,10.396 -10.378,0 -16.007,-6.236 -16.007,-16.216 0,-10.803 6.027,-18.71 30.163,-18.71 h 8.923 z m 21.189,23.903 v -73.996 c 0,-18.915 -10.787,-31.396 -36.782,-31.396 -15.168,0 -28.467,3.75 -39.278,8.525 l 3.111,13.106 c 8.515,-3.127 19.526,-6.031 30.337,-6.031 14.978,0 21.423,6.031 21.423,18.505 v 9.356 h -7.485 c -36.383,0 -52.798,14.11 -52.798,35.336 0,18.285 10.819,28.682 31.185,28.682 13.088,0 22.87,-5.405 32.001,-13.315 l 1.663,11.228 z"
   id="path10" />
	<path
   fill-rule="evenodd"
   clip-rule="evenodd"
   fill="#ea2d2e"
   d="m 634.16816,414.68429 h -26.423 l -31.807,-103.502 h 23.077 l 19.743,63.6 4.391,19.109 c 9.965,-27.639 17.032,-55.701 20.566,-82.709 h 22.445 c -6.002,34.08 -16.831,71.492 -31.992,103.502 z"
   id="path11" />
	<path
   fill-rule="evenodd"
   clip-rule="evenodd"
   fill="#ea2d2e"
   d="m 735.56116,390.78129 c -7.701,6.654 -15.82,10.396 -23.086,10.396 -10.382,0 -16.011,-6.236 -16.011,-16.216 0,-10.803 6.039,-18.71 30.154,-18.71 h 8.942 v 24.53 z m 21.196,23.903 v -73.996 c 0,-18.915 -10.818,-31.396 -36.789,-31.396 -15.188,0 -28.484,3.75 -39.295,8.525 l 3.116,13.106 c 8.519,-3.127 19.545,-6.031 30.355,-6.031 14.96,0 21.416,6.031 21.416,18.505 v 9.356 h -7.485 c -36.391,0 -52.801,14.11 -52.801,35.336 0,18.285 10.804,28.682 31.169,28.682 13.099,0 22.862,-5.405 32.018,-13.315 l 1.674,11.228 z"
   id="path12" />
	<path
   fill-rule="evenodd"
   clip-rule="evenodd"
   fill="#ea2d2e"
   d="m 458.74716,432.27429 c -6.037,8.821 -15.8,15.809 -26.479,19.749 l -10.462,-12.324 c 8.135,-4.178 15.103,-10.912 18.345,-17.182 2.796,-5.589 3.96,-12.773 3.96,-29.971 v -118.18 h 22.519 v 116.551 c 0,23.001 -1.836,32.3 -7.883,41.357 z"
   id="path13" />
</g>
</svg>
