<?xml version="1.0" encoding="UTF-8" standalone="no"?>
<!-- Created with Inkscape (http://www.inkscape.org/) -->

<svg
   width="1015.7354mm"
   height="326.33463mm"
   viewBox="0 0 1015.7354 326.33463"
   version="1.1"
   id="svg1"
   inkscape:version="1.3.2 (091e20e, 2023-11-25, custom)"
   sodipodi:docname="drawing.svg"
   xmlns:inkscape="http://www.inkscape.org/namespaces/inkscape"
   xmlns:sodipodi="http://sodipodi.sourceforge.net/DTD/sodipodi-0.dtd"
   xmlns="http://www.w3.org/2000/svg"
   xmlns:svg="http://www.w3.org/2000/svg">
  <sodipodi:namedview
     id="namedview1"
     pagecolor="#ffffff"
     bordercolor="#000000"
     borderopacity="0.25"
     inkscape:showpageshadow="2"
     inkscape:pageopacity="0.0"
     inkscape:pagecheckerboard="0"
     inkscape:deskcolor="#d1d1d1"
     inkscape:document-units="mm"
     inkscape:zoom="0.28645984"
     inkscape:cx="827.3411"
     inkscape:cy="-445.08857"
     inkscape:window-width="3840"
     inkscape:window-height="2054"
     inkscape:window-x="-11"
     inkscape:window-y="-11"
     inkscape:window-maximized="1"
     inkscape:current-layer="layer1" />
  <defs
     id="defs1" />
  <g
     inkscape:label="Layer 1"
     inkscape:groupmode="layer"
     id="layer1"
     transform="translate(-55.5625,-132.82083)">
    <g
       id="Layer_10"
       transform="matrix(2.7170897,0,0,2.7170897,55.563979,132.82083)">
</g>
    <g
       id="Layer_9"
       transform="matrix(2.7170897,0,0,2.7170897,55.563979,132.82083)">
	<circle
   cx="114.279"
   cy="10.335"
   r="10"
   id="circle1" />

	<circle
   cx="139.612"
   cy="10"
   r="10"
   id="circle2" />

</g>
    <g
       id="Layer_2"
       transform="matrix(2.7170897,0,0,2.7170897,55.563979,132.82083)">
</g>
    <g
       id="Layer_1"
       transform="matrix(2.7170897,0,0,2.7170897,55.563979,132.82083)">
</g>
    <g
       id="Layer_3"
       transform="matrix(2.7170897,0,0,2.7170897,55.563979,132.82083)">
	<g
   id="g4">
		<g
   id="g3">
			<path
   fill="none"
   d="m 126.419,29.906 c -55.287,0 -55.475,85.041 -0.353,85.041 55.04,0 55.854,-85.041 0.353,-85.041"
   id="path2" />

			<path
   d="m 126.419,24.906 c -16.061,0.162 -30.552,7.196 -39.236,20.915 -7.67,12.116 -9.111,27.837 -5.282,41.478 4.06,14.461 14.838,25.804 29.094,30.463 15.53,5.076 33.615,1.679 46.006,-8.884 14.374,-12.252 18.58,-33.677 13.679,-51.324 -5.627,-20.263 -23.637,-32.441 -44.261,-32.648 -6.451,-0.065 -6.445,9.935 0,10 14.639,0.147 27.712,7.472 33.298,21.396 5.004,12.474 3.672,27.057 -3.529,38.379 -8.21,12.908 -24.446,17.367 -38.892,14.402 C 103.223,106.194 93.794,95.09 90.733,81.426 88.358,70.821 90.469,59.316 96.258,50.172 c 6.572,-10.381 18.226,-15.146 30.161,-15.266 6.445,-0.065 6.452,-10.065 0,-10 z"
   id="path3" />

		</g>

	</g>

	<g
   id="g6">
		<g
   id="g5">
			<path
   fill="none"
   d="m 178.397,29.906 c 48.716,110.468 51.349,116.265 104.041,0"
   id="path4" />

			<path
   d="m 174.08,32.43 c 9.586,21.736 18.656,43.999 30.382,64.701 5.241,9.255 12.593,21.893 24.465,22.801 11.569,0.885 20.021,-12.921 25.149,-21.195 12.939,-20.876 22.563,-43.995 32.68,-66.306 2.642,-5.825 -5.975,-10.913 -8.635,-5.047 -9.592,21.154 -18.926,42.655 -30.574,62.786 -3.169,5.476 -6.566,10.959 -10.974,15.536 -1.543,1.604 -2.545,2.424 -4.268,3.411 -1.201,0.688 -2.065,0.857 -3.379,0.815 -0.582,-0.051 -0.556,-0.041 0.08,0.027 -0.424,-0.069 -0.837,-0.193 -1.248,-0.316 -0.165,-0.049 -0.753,-0.289 -1.728,-0.876 -1.604,-0.966 -2.992,-2.424 -4.532,-4.152 -4.226,-4.744 -7.359,-10.551 -10.383,-16.096 -10.744,-19.703 -19.356,-40.625 -28.401,-61.135 -2.597,-5.891 -11.211,-0.797 -8.634,5.046 z"
   id="path5" />

		</g>

	</g>

</g>
    <g
       id="Layer_4"
       transform="matrix(2.7170897,0,0,2.7170897,55.563979,132.82083)">
</g>
    <g
       id="Layer_5"
       transform="matrix(2.7170897,0,0,2.7170897,55.563979,132.82083)">
</g>
    <g
       id="Layer_6"
       transform="matrix(2.7170897,0,0,2.7170897,55.563979,132.82083)">
	<g
   id="g8">
		<g
   id="g7">
			<path
   fill="none"
   d="m 332.958,87.255 c 57.148,-12.938 36.661,-53.914 3.234,-57.148 -33.427,-3.234 -51.756,33.427 -40.974,59.305 10.782,25.879 32.349,26.958 51.756,24.801"
   id="path6" />

			<path
   d="m 334.288,92.076 c 16.119,-3.771 37.565,-12.266 39.429,-31.426 1.37,-14.087 -9.762,-25.941 -21.77,-31.407 -17.438,-7.938 -37.938,-4.605 -51.258,9.353 -13.145,13.773 -17.356,35.85 -9.787,53.338 4.761,10.999 12.667,20.207 24.025,24.604 10.208,3.952 21.323,3.826 32.048,2.674 6.342,-0.682 6.408,-10.688 0,-10 -9.54,1.025 -19.151,1.334 -28.321,-1.903 -10.214,-3.605 -17.066,-13.445 -20.092,-23.452 -5.278,-17.456 3.682,-39.335 20.828,-46.488 13.844,-5.774 32.803,-1.287 41.323,11.511 9.107,13.679 -4.028,24.854 -16.167,29.692 -4.179,1.665 -8.544,2.838 -12.917,3.862 -6.278,1.468 -3.615,11.11 2.659,9.642 z"
   id="path7" />

		</g>

	</g>

</g>
    <g
       id="Layer_7"
       transform="matrix(2.7170897,0,0,2.7170897,55.563979,132.82083)">
</g>
    <g
       id="Layer_8"
       transform="matrix(2.7170897,0,0,2.7170897,55.563979,132.82083)">
	<g
   id="g10">
		<g
   id="g9">
			<path
   fill="none"
   d="m 10.822,29.224 c -19.854,55.69 12.757,96.622 61.59,83.698"
   id="path8" />

			<path
   d="m 6,27.895 c -8.2,23.498 -9.661,51.774 6.323,72.444 14.666,18.965 39.169,23.091 61.417,17.404 6.244,-1.596 3.594,-11.24 -2.658,-9.643 C 52.395,112.876 31.634,109.789 19.553,93.436 6.14,75.279 8.629,50.654 15.643,30.553 17.773,24.448 8.111,21.847 6,27.895 Z"
   id="path9" />

		</g>

	</g>

</g>
    <g
       id="Layer_11"
       transform="matrix(2.7170897,0,0,2.7170897,55.563979,132.82083)">
</g>
  </g>
</svg>
