<?xml version="1.0" encoding="UTF-8" standalone="no"?>
<!-- Created with Inkscape (http://www.inkscape.org/) -->

<svg
   width="1015.7618mm"
   height="246.5652mm"
   viewBox="0 0 1015.7618 246.5652"
   version="1.1"
   id="svg1"
   inkscape:version="1.3.2 (091e20e, 2023-11-25, custom)"
   sodipodi:docname="mastersystem.svg"
   xmlns:inkscape="http://www.inkscape.org/namespaces/inkscape"
   xmlns:sodipodi="http://sodipodi.sourceforge.net/DTD/sodipodi-0.dtd"
   xmlns="http://www.w3.org/2000/svg"
   xmlns:svg="http://www.w3.org/2000/svg">
  <sodipodi:namedview
     id="namedview1"
     pagecolor="#ffffff"
     bordercolor="#000000"
     borderopacity="0.25"
     inkscape:showpageshadow="2"
     inkscape:pageopacity="0.0"
     inkscape:pagecheckerboard="0"
     inkscape:deskcolor="#d1d1d1"
     inkscape:document-units="mm"
     inkscape:zoom="0.2025577"
     inkscape:cx="-755.34035"
     inkscape:cy="357.92271"
     inkscape:window-width="3840"
     inkscape:window-height="2054"
     inkscape:window-x="-11"
     inkscape:window-y="-11"
     inkscape:window-maximized="1"
     inkscape:current-layer="layer1" />
  <defs
     id="defs1" />
  <g
     inkscape:label="Layer 1"
     inkscape:groupmode="layer"
     id="layer1"
     transform="translate(402.96042,-25.135417)">
    <g
       id="g22"
       transform="matrix(0.26458333,0,0,0.26458333,-402.96042,25.135417)">
	<rect
   y="859.29999"
   class="st0"
   width="3839"
   height="45.900002"
   id="rect1"
   style="fill:#034693"
   x="0" />

	<g
   id="g10">
		<g
   id="g9">
			<g
   id="g2">
				<path
   class="st0"
   d="m 1518.2,229.8 h -144.4 v 45 h 144.4 c 27.7,0 50.8,-23.1 50.8,-50.8 0,-27.7 -23.1,-50.8 -50.8,-50.8 h -37 c -33.5,0 -61.2,-27.7 -61.2,-61.2 0,-33.5 27.7,-61.2 61.2,-61.2 h 143.2 v -45 h -144.3 c -58.9,0 -106.3,47.4 -106.3,106.3 0,58.9 47.4,106.3 106.3,106.3 h 36.9 c 3.5,0 5.8,2.3 5.8,5.8 0,3.5 -2.3,5.6 -4.6,5.6 z"
   id="path1"
   style="fill:#034693" />

				<path
   class="st0"
   d="m 1480.1,107.4 h 144.4 V 61.2 h -144.4 c -27.7,0 -50.8,23.1 -50.8,50.8 0,27.7 23.1,50.8 50.8,50.8 h 36.9 c 33.5,0 61.2,27.7 61.2,61.2 0,33.5 -27.7,61.2 -61.2,61.2 h -143.2 v 45 h 144.4 c 58.9,0 106.3,-47.4 106.3,-106.3 0,-58.9 -47.4,-106.3 -106.3,-106.3 h -37 c -3.5,0 -5.8,-2.3 -5.8,-5.8 0,-2.1 2.4,-4.4 4.7,-4.4 z"
   id="path2"
   style="fill:#034693" />

			</g>

			<g
   id="g5">
				<path
   class="st0"
   d="m 1998.6,61.2 c -19.6,0 -34.7,15 -34.7,34.7 v 144.4 c 0,19.6 15,34.7 34.7,34.7 h 93.6 V 173.2 h -71.6 v 45 h 26.6 v 10.4 h -26.6 c -5.8,0 -10.4,-4.6 -10.4,-10.4 V 116.7 c 0,-5.8 4.6,-10.4 10.4,-10.4 h 128.2 v -45 h -150.2 z"
   id="path3"
   style="fill:#034693" />

				<path
   class="st0"
   d="m 2282.7,274.9 h 105.1 L 2316.2,62.4 c -2.3,-5.8 -6.9,-10.4 -13.9,-10.4 -5.8,0 -11.6,4.6 -13.9,9.2 L 2196,330.3 h 53.1 l 32.3,-95.8 v 40.4 z m 18.5,-97 15,46.2 H 2285 Z"
   id="path4"
   style="fill:#034693" />

				<path
   class="st0"
   d="M 2371.6,53.1 C 2362.4,23.1 2334.7,0 2301.1,0 c -33.6,0 -61.2,21.9 -69.3,52 l -84.3,247.1 V 117.8 h -127 v 45 h 83.1 v 122.4 h -104 c -25.4,0 -45,-20.8 -45,-45 V 95.9 c 0,-25.4 20.8,-45 45,-45 h 149 V 5.8 h -150.1 c -49.7,0 -90.1,40.4 -90.1,90.1 v 144.4 c 0,49.7 40.4,90.1 90.1,90.1 h 185.9 L 2278,59 c 3.5,-10.4 12.7,-17.3 24.2,-17.3 11.6,0 20.8,6.9 24.2,17.3 l 76.2,226.3 h -120.1 v 45 H 2465 v 0 z"
   id="path5"
   style="fill:#034693" />

			</g>

			<g
   id="g8">
				<path
   class="st0"
   d="m 1736.4,285.3 c -25.4,0 -45,-20.8 -45,-45 V 95.9 c 0,-25.4 20.8,-45 45,-45 h 154.7 V 5.8 h -154.7 c -49.7,0 -90.1,40.4 -90.1,90.1 v 144.4 c 0,49.7 40.4,90.1 90.1,90.1 h 154.7 v -45 z"
   id="path6"
   style="fill:#034693" />

				<path
   class="st0"
   d="m 1746.9,219.4 h 112 v -45 h -157.1 v 67 c 0,19.6 15,34.7 34.7,34.7 h 154.7 V 231 h -134 c -5.7,-1.2 -10.3,-5.8 -10.3,-11.6 z"
   id="path7"
   style="fill:#034693" />

				<path
   class="st0"
   d="m 1858.9,117.8 h -112 c 0,-5.8 4.6,-10.4 10.4,-10.4 h 132.8 V 61.2 h -153.6 c -19.6,0 -34.7,15 -34.7,34.7 v 67 h 157.1 c 0,-0.1 0,-45.1 0,-45.1 z"
   id="path8"
   style="fill:#034693" />

			</g>

		</g>

	</g>

	<g
   id="g21">
		<path
   class="st1"
   d="m 374,383.2 h 150.3 v 26.6 h -33.7 c -23.1,0 -33.1,6.5 -33.1,30.2 v 313.7 c 0,23.7 10.1,30.2 33.1,30.2 h 33.7 v 26.6 h -197 v -26.6 h 32.5 c 23.1,0 33.1,-6.5 33.1,-30.2 V 412.8 h -1.2 L 256.3,810.5 H 238.5 L 97.6,412.8 h -1.2 v 287.6 c 0,54.4 5.9,81.7 68.6,83.4 v 26.6 H 0 V 783.8 C 52.7,779.1 66.9,769 66.9,686.2 V 440 c 0,-23.7 -10.1,-30.2 -33.1,-30.2 H 0 v -26.6 h 151.5 l 113,320.8 h 1.2 z"
   id="path10"
   style="fill:#ff0000" />

		<path
   class="st1"
   d="m 736.2,608.7 c 0,-37.9 -16.6,-55 -63.9,-55 -39.7,0 -55,11.8 -55,20.1 0,6.5 13,20.1 13,33.7 0,20.7 -14.2,29 -33.1,29 -21.3,0 -31.4,-17.2 -31.4,-37.3 0,-36.7 43.8,-72.2 115.4,-72.2 76.3,0 109.5,27.2 109.5,90.5 0,29.6 -1.8,113.6 -1.8,136.1 0,10.7 8.3,27.2 21.9,27.2 16,0 20.1,-7.1 26,-7.1 5.9,0 7.7,3 7.7,10.1 0,8.9 -21.9,32.5 -52.7,32.5 -30.2,0 -45,-15.4 -52.7,-44.4 -26,31.4 -66.3,47.3 -106.5,47.3 -44.4,0 -82.9,-20.7 -82.9,-70.4 0,-55.6 71,-92.9 186.4,-108.3 v -31.8 z m 0,55.6 c -102.4,14.2 -129,35.5 -129,79.3 0,28.4 23.1,46.2 49.7,46.2 36.7,0 79.3,-29.6 79.3,-78.1 z"
   id="path11"
   style="fill:#ff0000" />

		<path
   class="st1"
   d="m 1042.2,530 h 20.7 v 98.2 h -20.7 c -12.4,-43.8 -39.7,-77.5 -88.2,-77.5 -26,0 -54.4,13.6 -54.4,43.2 0,20.7 15.4,33.7 53.3,42 l 58,12.4 c 43.8,9.5 71,36.7 71,80.5 0,58 -42.6,90.5 -96.5,90.5 -30.2,0 -60.4,-8.9 -84,-29 l -18.3,26 H 862.4 V 704 H 883 c 14.8,52.1 45.6,91.7 104.2,91.7 26,0 59.2,-15.4 59.2,-45.6 0,-29 -20.7,-39.7 -65.7,-50.3 L 935,689.2 c -52.7,-12.4 -68.1,-39.1 -68.1,-79.9 0,-50.9 36.1,-82.3 86.4,-82.3 26,0 52.1,7.7 72.2,23.7 z"
   id="path12"
   style="fill:#ff0000" />

		<path
   class="st1"
   d="m 1101.9,535.9 c 62.7,-4.1 75.2,-69.8 78.7,-119.5 h 23.7 v 119.5 h 88.2 v 26.6 h -88.2 v 175.8 c 0,29 9.5,45.6 36.7,45.6 37.9,0 46.2,-50.3 46.2,-79.9 h 23.7 c -0.6,74 -26.6,115.4 -90,115.4 -39.1,0 -71,-26.6 -71,-63.9 V 562.6 H 1102 v -26.7 z"
   id="path13"
   style="fill:#ff0000" />

		<path
   class="st1"
   d="m 1384.2,677.4 v 8.3 c 0,68.6 38.5,104.2 85.2,104.2 45,0 71,-24.9 90,-63.9 l 20.1,11.2 c -24.3,53.3 -61,82.3 -120.1,82.3 -81.7,0 -135.5,-56.2 -135.5,-136.7 0,-99.4 53.9,-155.6 138.5,-155.6 69.2,0 113,62.7 117.2,150.3 H 1384.2 Z M 1489,653.7 c 24.3,0 30.2,-3.6 30.2,-22.5 0,-50.3 -24.3,-80.5 -62.1,-80.5 -46.8,0 -67.5,38.5 -72.8,103 z"
   id="path14"
   style="fill:#ff0000" />

		<path
   class="st1"
   d="m 1592.5,541.8 110.1,-5.9 v 70.4 h 1.2 c 7.1,-31.4 35.5,-79.3 88.2,-79.3 26,0 46.8,18.9 46.8,46.2 0,22.5 -11.8,40.2 -35.5,40.2 -19.5,0 -32.5,-14.8 -32.5,-32 0,-10.7 3,-18.9 14.2,-26.6 v -1.2 h -1.2 c -61.5,4.7 -81.1,106.5 -81.1,155.1 v 59.2 c 0,15.4 10.1,18.9 34.3,18.9 h 21.3 v 23.7 h -161 v -23.7 h 19.5 c 22.5,0 31.4,-5.9 31.4,-29 V 582.1 c 0,-14.2 -8.9,-16.6 -28.4,-16.6 h -27.2 v -23.7 z"
   id="path15"
   style="fill:#ff0000" />

		<path
   class="st1"
   d="m 2235.8,378.5 h 20.7 l 7.1,153.3 H 2240 C 2222.8,466.1 2180.2,401 2104.5,401 c -58,0 -84,35.5 -84,70.4 0,29.6 15.4,55.6 71,71 l 92.3,25.4 c 67.5,18.3 99.4,62.7 99.4,124.9 0,70.4 -52.1,126.6 -145,126.6 -48.5,0 -91.1,-17.2 -123.7,-45.6 l -26.6,42.6 h -19.5 L 1966,649 l 22.5,-2.4 c 17.2,95.3 75.8,146.2 149.7,146.2 59.2,0 97.6,-31.4 97.6,-86.4 0,-34.3 -16,-57.4 -56.8,-68.1 l -95.9,-24.9 c -69.2,-17.8 -110.1,-49.7 -110.1,-116 0,-79.3 53.3,-123.1 129.6,-123.1 42.6,0 76.9,12.4 108.9,41.4 z"
   id="path16"
   style="fill:#ff0000" />

		<path
   class="st1"
   d="m 2479,535.9 h 117.8 v 23.7 c -29,0.6 -38.5,11.8 -49.7,39.7 l -76.9,186.4 c -43.8,106.5 -82.3,146.2 -132,146.2 -28.4,0 -54.4,-14.2 -54.4,-46.2 0,-20.1 16.6,-33.7 36.1,-33.7 16.6,0 28.4,12.4 28.4,24.9 0,10.7 -4.1,16 -4.1,20.1 0,5.9 3.6,8.3 7.1,8.3 25.4,0 51.5,-34.3 81.7,-99.4 l -93,-210.8 c -13,-29 -18.3,-35.5 -42,-35.5 h -7.1 v -23.7 h 139.7 v 23.7 h -8.3 c -21.9,0 -32.5,1.8 -32.5,12.4 0,4.7 2.4,11.8 5.3,18.3 l 65.1,149.1 46.2,-114.2 c 11.2,-27.2 15.4,-37.9 15.4,-47.3 0,-13 -14.8,-18.3 -24.9,-18.3 H 2479 Z"
   id="path17"
   style="fill:#ff0000" />

		<path
   class="st1"
   d="m 2788.6,530 h 20.7 v 98.2 h -20.7 c -12.4,-43.8 -39.7,-77.5 -88.2,-77.5 -26,0 -54.4,13.6 -54.4,43.2 0,20.7 15.4,33.7 53.3,42 l 58,12.4 c 43.8,9.5 71,36.7 71,80.5 0,58 -42.6,90.5 -96.5,90.5 -30.2,0 -60.4,-8.9 -84,-29 l -18.3,26 h -20.7 V 704 h 20.7 c 14.8,52.1 45.6,91.7 104.2,91.7 26,0 59.2,-15.4 59.2,-45.6 0,-29 -20.7,-39.7 -65.7,-50.3 l -45.6,-10.7 c -52.7,-12.4 -68.1,-39.1 -68.1,-79.9 0,-50.9 36.1,-82.3 86.4,-82.3 26,0 52.1,7.7 72.2,23.7 z"
   id="path18"
   style="fill:#ff0000" />

		<path
   class="st1"
   d="m 2848.3,535.9 c 62.7,-4.1 75.2,-69.8 78.7,-119.5 h 23.7 v 119.5 h 88.2 v 26.6 h -88.2 v 175.8 c 0,29 9.5,45.6 36.7,45.6 37.9,0 46.2,-50.3 46.2,-79.9 h 23.7 c -0.6,74 -26.6,115.4 -90,115.4 -39.1,0 -71,-26.6 -71,-63.9 V 562.6 h -47.9 v -26.7 z"
   id="path19"
   style="fill:#ff0000" />

		<path
   class="st1"
   d="m 3130.6,677.4 v 8.3 c 0,68.6 38.5,104.2 85.2,104.2 45,0 71,-24.9 90,-63.9 l 20.1,11.2 c -24.3,53.3 -61,82.3 -120.1,82.3 -81.7,0 -135.5,-56.2 -135.5,-136.7 0,-99.4 53.9,-155.6 138.5,-155.6 69.2,0 113,62.7 117.2,150.3 h -195.4 z m 104.8,-23.7 c 24.3,0 30.2,-3.6 30.2,-22.5 0,-50.3 -24.3,-80.5 -62.1,-80.5 -46.8,0 -67.5,38.5 -72.8,103 z"
   id="path20"
   style="fill:#ff0000" />

		<path
   class="st1"
   d="m 3694,786.8 h 14.2 c 23.7,0 32,-7.1 32,-27.2 V 617 c 0,-32 -18.3,-54.4 -52.1,-54.4 -36.1,0 -66.3,27.8 -66.3,69.8 v 127.2 c 0,20.1 8.3,27.2 32,27.2 h 14.2 v 23.7 h -146.8 v -23.7 h 14.2 c 23.7,0 32,-7.1 32,-27.2 V 623.5 c 0,-38.5 -22.5,-61 -56.2,-61 -28.4,0 -62.1,34.3 -62.1,95.9 v 101.2 c 0,20.1 8.3,27.2 32,27.2 h 14.2 v 23.7 h -151.5 v -23.7 h 18.9 c 23.7,0 32,-7.1 32,-27.2 V 582.1 c 0,-14.2 -8.9,-16.6 -28.4,-16.6 h -22.5 v -23.7 l 105.3,-5.9 v 50.3 h 1.2 c 26.6,-49.1 62.1,-59.2 84.6,-59.2 42.6,0 72.8,26 81.1,60.4 26.6,-43.8 56.2,-60.4 92.3,-60.4 38.5,0 86.4,37.3 86.4,95.3 v 137.3 c 0,20.1 8.3,27.2 32,27.2 h 12.4 v 23.7 h -145 v -23.7 z"
   id="path21"
   style="fill:#ff0000" />

	</g>

</g>
  </g>
</svg>
