<?xml version="1.0" encoding="UTF-8" standalone="no"?>
<!-- Created with Inkscape (http://www.inkscape.org/) -->

<svg
   width="1015.7163mm"
   height="573.61523mm"
   viewBox="0 0 1015.7163 573.61523"
   version="1.1"
   id="svg1"
   inkscape:version="1.3.2 (091e20e, 2023-11-25, custom)"
   sodipodi:docname="megaduck.svg"
   xmlns:inkscape="http://www.inkscape.org/namespaces/inkscape"
   xmlns:sodipodi="http://sodipodi.sourceforge.net/DTD/sodipodi-0.dtd"
   xmlns="http://www.w3.org/2000/svg"
   xmlns:svg="http://www.w3.org/2000/svg">
  <sodipodi:namedview
     id="namedview1"
     pagecolor="#ffffff"
     bordercolor="#000000"
     borderopacity="0.25"
     inkscape:showpageshadow="2"
     inkscape:pageopacity="0.0"
     inkscape:pagecheckerboard="0"
     inkscape:deskcolor="#d1d1d1"
     inkscape:document-units="mm"
     inkscape:zoom="0.28645984"
     inkscape:cx="1919.9899"
     inkscape:cy="1083.9216"
     inkscape:window-width="3840"
     inkscape:window-height="2054"
     inkscape:window-x="-11"
     inkscape:window-y="-11"
     inkscape:window-maximized="1"
     inkscape:current-layer="layer1" />
  <defs
     id="defs1" />
  <g
     inkscape:label="Layer 1"
     inkscape:groupmode="layer"
     id="layer1"
     transform="translate(402.96042,138.37708)">
    <g
       id="g9"
       transform="matrix(0.26458333,0,0,0.26458333,-402.96042,-138.37708)">
	<g
   id="g8">
		<path
   d="M 30.4,72.5 C 14.7,89.7 6.1,112.2 5.9,135.6 L 0,843.6 c 0,52.4 87.9,99.6 87.9,99.6 22.4,14.7 67.1,-6.6 68.1,-33.3 L 168.3,266 c 0.1,-6.5 5.2,-11.9 11.8,-12.3 h 0.4 c 7.3,-0.5 13.5,5.3 13.4,12.6 -0.2,33 0.4,117.7 11.6,144.2 21.5,50.9 93.6,291.3 105.1,375 5.6,40.7 -20.3,108 40.7,154.9 11.4,8.8 40.2,18.8 57.2,5.2 26.4,-21.1 70.3,-60.4 94.7,-79.7 15.2,-12.1 25.2,-29.6 27.6,-48.9 0,0 -0.3,-24.3 14.7,-58.9 61.4,-141.2 197,-487.5 222.3,-544.9 19,-43.1 44.2,-59.6 44.2,-59.6 8.4,-7.6 21.9,-2 22.5,9.3 l 35.1,783.4 c 0.4,73.7 137.6,69.1 134.1,-5.1 l 3.4,-901 C 1007.1,18 989,0 966.8,0 h -201 c -21,0 -40.8,10 -53.2,26.9 0,0 -106.2,114.2 -123.5,157.5 -28.8,71.8 -9.7,83.3 -25.2,123.4 -18.8,48.5 -52,148 -74.3,195.1 -19.2,40.5 -28.3,111.3 -35.1,137.3 -2.9,11.3 -19,11.5 -22,0.2 C 418.4,589.1 404.5,477.8 336,319.7 325.1,294.6 299.7,115.8 288.9,37 286,15.8 267.6,0.1 246.2,0.7 202.8,2 135.4,4.5 117.4,9.1 85.5,17.4 52.2,48.5 30.4,72.5 Z"
   id="path1" />

		<path
   d="m 1694.9,910.9 c -158.4,-5.5 -347.7,-60.8 -476.4,-126.8 -12.8,-6.5 -18.9,-21.6 -20.1,-35.9 l -7.6,-43.5 c -1.4,-17.3 7.3,-33.7 22.4,-42.2 30.6,-17.2 102,-29.3 154.6,-47.5 74.6,-25.9 157.7,-87.2 154.6,-185.8 -2.9,-93.9 -65.3,-152.2 -134,-151.5 -45.4,0.5 -143.8,-3 -184.5,44.9 -43.5,51.2 -164.1,60.6 -164.1,153.4 l 14.7,312.3 c 2.6,53.3 26.8,95.6 75.7,117.1 97.4,42.8 276.2,113.6 326.8,112.2 75,-2.1 156.8,-1.2 198.4,9.1 125.1,30.8 134.4,-112.5 39.5,-115.8 z M 1184.4,533.6 c -10.9,-17.6 21.6,-69.4 53.3,-96.8 20.3,-17.5 63.1,-21 99.6,-26 36.5,-5 28.8,29.5 28.8,29.5 0,0 -13.3,37.7 -35.1,56.1 -21.7,18.4 -37.1,13.3 -71.5,26 -33.2,12.2 -66,26 -75.1,11.2 z"
   id="path2" />

		<path
   d="m 2067.2,381.5 c 20.2,-35.4 -5.6,-82 -112.9,-50.5 -59.3,17.4 -66,14.6 -123.9,42.1 -53.1,25.2 -175,130.3 -189.6,156.3 -56.1,100.3 -40.7,105.2 -40.7,222.2 0,118.3 231.5,181.6 453.8,155.7 0,0 44.2,-9.1 27.4,30.8 -16.8,40 -25.1,58 -46.3,87 -21.7,29.7 -124.4,92 -227.1,64.6 -26,-6.9 -52.4,-11.7 -79.3,-12 -61.5,-0.8 -156.3,11.6 -156.3,51.2 0,58.9 77.8,60.3 77.8,60.3 0,0 163.4,14 206.9,14 115.7,0 394.1,-38.6 394.1,-183 0,-144.4 13.3,-607.3 32.9,-679.5 10.9,-40.2 30,-72.5 7.6,-92.9 -22.4,-20.3 -99.9,-12.6 -120.4,45.2 -5.9,16.5 -37.2,85.5 -37.2,85.5 -16.6,38.6 -29.5,76.6 -28.1,118.5 2.6,74.4 6,188.2 -10.5,217.4 -19.7,35 -153.5,81.7 -257.3,48.4 -41,-13.1 -73.6,-37.3 -75,-101.7 -3.4,-149.2 263.5,-208.4 304.1,-279.6 z"
   id="path3" />

		<path
   d="m 2317.7,538.8 c 1.9,-50.5 -3.6,-95.8 53.1,-152.9 148.6,-149.7 177,-142.6 249.8,-142.6 175.8,0 207.9,87.1 159.9,133.7 -60.8,58.9 -63.8,-10.6 -170,-4.2 -48.6,2.9 -78.2,38.4 -136.5,138.7 -14.5,25 -9.8,59.1 -9.8,78.7 v 90.3 c 0,73.8 80.2,133.7 111.7,133.7 44.1,0 87.3,-100.4 123.4,-151 14,-19.6 14.1,-59.3 33.2,-69.8 19.6,-10.7 10.3,-35.9 20.1,-59.3 11.8,-28 48.6,-92.2 48.6,-110.8 0,0 6.5,-121.1 26.1,-163.2 14.9,-32.1 41.1,-76.6 70,-76.6 47.7,0 95.6,-5.5 81.3,40.2 -32.7,104.7 -26.1,98.9 -26.1,160.4 0,86 -1.6,312.7 0.6,378.2 1.1,34.4 6.6,71 21.3,102 16.4,34.4 35.5,86.4 14.5,107.4 -32.7,32.7 -49.4,60.8 -113.9,-4.7 -55.4,-56.2 -78.8,-109 -74.8,-143 0.9,-7.8 -8.2,-13 -14.3,-7.9 -5.1,4.2 -43.2,133.2 -194.4,133.2 -162,0 -274.2,-171.1 -274.2,-304.8 0.1,-51.9 -0.9,-73.4 0.4,-105.7 z"
   id="path4" />

		<path
   d="m 1060.3,1110.5 c 71.5,16.4 260.2,48.8 337.2,64.8 38.4,8 74.9,23.2 107.6,44.9 45.4,30.2 104.7,74.2 113.2,103.1 18.3,62.3 48.9,95.4 48.9,260.9 0,165.5 22.2,241.2 -39.5,277.7 -52.9,31.3 -149.2,105.9 -261.7,120 -49.1,6.2 -97.1,19.3 -142.4,39.3 l -320.1,142 c -39.7,17.6 -83.1,-15.8 -76.3,-58.7 l 70.5,-492.3 c 3.3,-20.7 12.1,-46.7 19.2,-66.4 7.3,-20.2 13.5,-51.8 -3.8,-78.4 -28,-43 -36.4,-57.2 -30.8,-95.5 5.6,-38.3 -4.1,-101.5 91.9,-92.6 40.2,3.7 113.1,106.6 113.1,178.6 0,61.6 -53.3,370 -68.8,458 -1.9,10.6 8.3,19.4 18.5,16 l 211.8,-75.8 c 20.8,-6.8 59.5,-24.7 76.6,-38.3 28.1,-22.3 72.7,-52.4 116.4,-62.2 44.6,-10 46.2,-135.7 45.8,-200.1 -0.2,-22.2 -6.6,-43.9 -18.8,-62.5 -35.9,-55.1 -83.9,-131.7 -142.5,-166.1 -46.1,-27.1 -296.1,-84.2 -393.4,-77.6 -64.2,4.3 -91.5,-75.2 -98.4,-131.4 -3.2,-26.4 20,-48.8 46.2,-44.2 60.6,10.8 108.8,20.6 179.6,36.8 z"
   id="path5" />

		<path
   d="m 2361.6,1762.7 c -22.4,-62.6 -3.7,-199.2 -3.7,-199.2 9.4,-58.9 -37.4,-84.2 -92.6,-84.2 -55.2,0 -23.2,160.3 -38.6,228.1 -49.6,217.8 -115.9,194.5 -214.8,194.5 -96.6,0 -153.4,-138.3 -160.6,-211.3 -7.5,-75.7 15.7,-139.3 -4.9,-236.6 -13.3,-63.1 -69.1,-63.9 -104.2,-59.8 -18.5,2.2 -31.6,19.1 -29.5,37.6 5,43.2 10.7,126.1 13,154.2 9.8,115 -9.1,311.7 110.6,381.8 0,0 106.4,69.2 199.9,69.2 106.3,0 164.1,-40.7 209.7,-60.5 13.4,-5.8 28.6,1.6 32.6,15.6 9.3,32.4 30.8,84.2 71.1,84.2 24.8,0 79.3,-17.7 79.3,-54.7 0,-51.4 -52.1,-216.5 -67.3,-258.9 z"
   id="path6" />

		<path
   d="m 2999.2,1392.7 c -53.1,-56.6 -125.5,-100.3 -265.5,-108.7 -153.1,-9.2 -317.9,169.2 -317.9,374.9 0,205.7 159.9,386.1 357.2,386.1 197.3,0 323.5,-107.5 317,-144 -2.3,-12.6 -12.3,-28 -44.9,-28.1 -61.8,-0.2 -188.2,46.2 -270.2,49.8 -112.2,4.9 -220.7,-143.3 -220.7,-239.6 0,-99.1 72.6,-276.4 219.9,-275.1 79.2,0.7 114.6,32 155.9,61 32,22.5 128.3,-13.3 69.2,-76.3 z"
   id="path7" />

		<path
   d="m 3802.8,1941.7 c -15.6,-15.2 -99.9,-69.7 -112.9,-78.5 -10.2,-6.9 -9.6,-27.8 19.2,-34.1 28.8,-6.3 63.8,-60.5 56.1,-90.7 -7.7,-30.2 -76.6,-148 -213.4,-148 -100.3,0 -99.4,38.6 -180.9,48.4 -25.7,3.1 -61.1,19.3 -93.3,32.3 -10.9,4.4 -23.1,-1.9 -26,-13.2 0,0 -11.3,-75.8 -19.4,-99.9 -21.5,-64.5 -29.1,-138 -3.1,-224.7 9.4,-31.3 -36.9,-74.2 -95.6,-29.1 -74.8,57.5 -29,205.7 -29,233.8 0,65.9 15.9,144.2 15.9,210.8 -0.1,60.3 14.9,155.9 15.4,223.9 0.9,117.8 126.9,96.8 126.9,27.3 v -126 c 0,-14.8 14.9,-25 28.7,-19.7 0,0 302.1,114.1 329.4,143.5 27.4,29.4 146.3,78.1 193.3,47.2 47.1,-30.8 17.9,-74.8 -11.3,-103.3 z m -202.9,-159.9 c -54,34.4 -121.9,5.4 -167.1,0 -91.1,-10.7 -67.4,-41.2 -39.4,-41.2 41.3,0 69.5,-22.4 164.2,-22.4 36,0.1 95.3,29.9 42.3,63.6 z"
   id="path8" />

	</g>

</g>
  </g>
</svg>
