<?xml version="1.0" encoding="UTF-8" standalone="no"?>
<!-- Generator: Adobe Illustrator 16.0.3, SVG Export Plug-In . SVG Version: 6.00 Build 0)  -->

<svg
   version="1.1"
   id="Layer_1"
   x="0px"
   y="0px"
   width="3839"
   height="617.38269"
   viewBox="-1 -1 3838.9999 617.38271"
   enable-background="new -1 -1 568.929 116.145"
   xml:space="preserve"
   inkscape:version="1.3.2 (091e20e, 2023-11-25, custom)"
   sodipodi:docname="megadrive.svg"
   xmlns:inkscape="http://www.inkscape.org/namespaces/inkscape"
   xmlns:sodipodi="http://sodipodi.sourceforge.net/DTD/sodipodi-0.dtd"
   xmlns="http://www.w3.org/2000/svg"
   xmlns:svg="http://www.w3.org/2000/svg"
   xmlns:rdf="http://www.w3.org/1999/02/22-rdf-syntax-ns#"
   xmlns:cc="http://creativecommons.org/ns#"
   xmlns:dc="http://purl.org/dc/elements/1.1/"><metadata
     id="metadata5813"><rdf:RDF><cc:Work
         rdf:about=""><dc:format>image/svg+xml</dc:format><dc:type
           rdf:resource="http://purl.org/dc/dcmitype/StillImage" /></cc:Work></rdf:RDF></metadata><defs
     id="defs5811"><linearGradient
       id="linearGradient7375"
       gradientUnits="userSpaceOnUse"
       x1="247.53511"
       y1="35.299999"
       x2="247.53511"
       y2="37.400002"><stop
         offset="0"
         style="stop-color:#f1f3f2"
         id="stop6" /><stop
         offset="0.89827329"
         style="stop-color:#a4b5d3"
         id="stop8" /><stop
         offset="1"
         style="stop-color:#5878b5"
         id="stop10" /></linearGradient><linearGradient
       id="linearGradient7367"
       gradientUnits="userSpaceOnUse"
       x1="300"
       y1="40"
       x2="300"
       y2="100"><stop
         offset="0"
         style="stop-color:#f1f3f2"
         id="stop13" /><stop
         offset="0.19374025"
         style="stop-color:#a4b5d3"
         id="stop15" /><stop
         offset="0.58584905"
         style="stop-color:#f1f3f2"
         id="stop17" /><stop
         offset="0.60000002"
         style="stop-color:#5878b5"
         id="stop19" /><stop
         offset="1"
         style="stop-color:#f1f3f2"
         id="stop21" /></linearGradient><linearGradient
       id="linearGradient7368"
       gradientUnits="userSpaceOnUse"
       x1="300"
       y1="40"
       x2="300"
       y2="104"><stop
         offset="0"
         style="stop-color:#f1f3f2"
         id="stop24" /><stop
         offset="0.19374025"
         style="stop-color:#a4b5d3"
         id="stop26" /><stop
         offset="0.58584905"
         style="stop-color:#f1f3f2"
         id="stop28" /><stop
         offset="0.60000002"
         style="stop-color:#5878b5"
         id="stop30" /><stop
         offset="1"
         style="stop-color:#f1f3f2"
         id="stop32" /></linearGradient></defs><sodipodi:namedview
     pagecolor="#ffffff"
     bordercolor="#666666"
     borderopacity="1"
     objecttolerance="10"
     gridtolerance="10"
     guidetolerance="10"
     inkscape:pageopacity="0"
     inkscape:pageshadow="2"
     inkscape:window-width="3840"
     inkscape:window-height="2054"
     id="namedview5809"
     showgrid="false"
     inkscape:zoom="0.35355339"
     inkscape:cx="294.15642"
     inkscape:cy="403.05087"
     inkscape:window-x="-11"
     inkscape:window-y="-11"
     inkscape:window-maximized="1"
     inkscape:current-layer="Layer_1"
     inkscape:snap-global="false"
     inkscape:snap-nodes="false"
     inkscape:showpageshadow="2"
     inkscape:pagecheckerboard="0"
     inkscape:deskcolor="#d1d1d1" /><g
     id="g11"
     inkscape:label="g4"
     style="display:inline"
     transform="matrix(6.8521269,0,0,6.8521269,-42.051001,-91.606405)"><path
       id="path11"
       style="display:inline;fill:#000000;fill-opacity:1;stroke:#000000;stroke-width:1px;stroke-linecap:butt;stroke-linejoin:miter;stroke-opacity:1"
       d="m 80.845923,102.645 c -8.14433,-0.16056 -16.222299,-0.40327 -24.296417,-1.4824 -7.281478,-0.97318 -14.8871,-1.968383 -21.953584,-3.976324 C 29.243475,95.665379 24.675184,93.79669 18.916923,90.715686 12.177425,87.11088 6.4856278,80.709777 6.4909941,74.695201 6.4976024,67.288602 13.138837,63.455494 19.437484,59.863747 c 4.945762,-2.549754 10.467637,-4.4693 15.820083,-5.990197 7.066483,-2.007941 14.210939,-3.055841 21.492417,-4.029029 8.074118,-1.079127 15.949419,-1.351458 24.09375,-1.512024 7.752525,-0.15284 15.867674,0.156211 23.619636,0.335248 5.97815,0.13807 11.80754,0.411092 17.78661,0.321002 8.84283,-0.133243 17.74569,-0.462029 26.56825,-1.075113 5.28482,-0.367245 10.67321,-0.850806 15.932,-1.490578 5.97272,-0.726627 12.78913,-1.803636 17.85445,-2.784232 5.06532,-0.980596 8.37715,-1.99919 12.50694,-3.204078 4.06979,-1.187383 8.21027,-2.499148 12.14203,-4.08482 2.46949,-0.99594 4.74029,-2.099318 7.06034,-3.406093 1.7942,-1.010592 3.62697,-2.209149 5.3917,-3.270368 1.6605,-0.99854 3.21451,-2.018189 4.9551,-2.869481 3.96915,-1.941247 7.97939,-3.878325 12.12484,-5.407314 5.5279,-2.038885 11.10413,-3.620421 16.8706,-4.829798 5.85725,-1.228417 11.85225,-1.819195 17.8125,-2.359375 3.01308,-0.273076 14.65425,-0.484441 14.65425,-0.484441 0,0 11.64118,0.211232 14.65426,0.484308 5.96025,0.54018 11.95525,1.130958 17.8125,2.359375 5.76647,1.209377 11.3427,2.790913 16.8706,4.829798 4.14545,1.528989 8.15569,3.466067 12.12484,5.407314 1.74059,0.851292 3.2946,1.870941 4.9551,2.869481 1.76473,1.061219 3.5975,2.259776 5.3917,3.270368 2.32005,1.306775 4.59085,2.410153 7.06034,3.406093 3.93176,1.585672 8.07224,2.897437 12.14203,4.08482 4.12979,1.204888 7.44162,2.223482 12.50694,3.204078 5.06532,0.980596 11.88173,2.057605 17.85445,2.784232 5.25879,0.639772 10.64718,1.123333 15.932,1.490578 8.82256,0.613084 17.72542,0.94187 26.56825,1.075113 5.97907,0.09009 11.80846,-0.182932 17.78661,-0.321002 7.75196,-0.179037 15.86711,-0.488088 23.61964,-0.335248 8.14433,0.160566 16.01963,0.432897 24.09375,1.512024 7.28147,0.973188 14.42593,2.021088 21.49241,4.029029 5.35245,1.520897 10.87432,3.440443 15.82009,5.990197 6.29864,3.591747 12.93988,7.424855 12.94649,14.831454 0.005,6.014576 -5.68644,12.415679 -12.42593,16.020485 -5.75826,3.081004 -10.32656,4.949693 -15.679,6.47059 -7.06649,2.007941 -14.67211,3.003147 -21.95359,3.976327 -8.07411,1.07913 -16.15208,1.32184 -24.29641,1.4824 -69.96652,0.40245 -205.27707,6e-5 -205.27707,6e-5 0,0 -135.31054,0.40252 -205.277057,7e-5 z"
       inkscape:connector-curvature="0"
       sodipodi:nodetypes="ssscsssssssssssscccsscccsscccsssssssssssscssscs"
       transform="matrix(-1,0,0,1,572.24597,1.33e-4)" /></g><g
     id="g13"
     inkscape:label="g3"
     style="display:inline"
     transform="matrix(6.8521269,0,0,6.8521269,-42.051001,-91.606405)"><path
       sodipodi:nodetypes="sssssssssssssssssssssscssssssssssssssssssssscss"
       inkscape:connector-curvature="0"
       d="m 267.74385,54.865137 c -5.60991,-0.349635 -11.21451,-0.887685 -16.77685,-1.696156 -2.8859,-0.419458 -5.7396,-1.040223 -8.59467,-1.634344 -1.83534,-0.381922 -3.68074,-0.733225 -5.48543,-1.240577 -3.41283,-0.959443 -6.8536,-1.925699 -10.07628,-3.402952 -3.76096,-1.723998 -7.27686,-3.970005 -10.68426,-6.316626 -0.84887,-0.584599 -1.39888,-1.780508 -2.41931,-1.925588 -0.83892,-0.119273 -1.56076,0.661139 -2.35138,0.965978 -4.64364,1.790443 -9.27398,3.648862 -14.04465,5.066527 -6.0934,1.810729 -12.31441,3.199905 -18.56156,4.375223 -6.17752,1.162218 -12.42064,1.981913 -18.67204,2.639626 -7.27192,0.765085 -14.57923,1.183109 -21.88366,1.517055 -6.14075,0.280744 -12.2901,0.347799 -18.43696,0.408629 -8.35557,0.08269 -16.71242,-0.15384 -25.06787,-0.05936 -7.95241,0.08992 -15.92415,-0.04343 -23.85133,0.59597 -7.27036,0.586423 -14.57099,1.333936 -21.67991,2.966529 -5.47871,1.258208 -10.18966,2.44919 -16.03164,5.232614 -5.39476,2.570344 -12.53603,7.183906 -12.57333,13.279678 -0.0369,6.033074 7.02992,10.325743 12.28218,13.294446 2.78054,1.571633 11.34289,4.252061 17.22364,5.630986 6.78285,1.59045 13.74211,2.402608 20.68214,3.01294 8.30136,0.73006 16.65595,0.64104 24.98836,0.76926 68.15245,1.04879 226.3988,0.18266 226.3988,0.18266 75.969,0.30454 123.47344,0.30453 155.13932,-0.18278 8.33241,-0.12823 16.687,-0.0392 24.98836,-0.76927 6.94005,-0.610329 13.89931,-1.422487 20.68216,-3.012937 5.88075,-1.378925 14.4431,-4.059353 17.22364,-5.630986 5.25226,-2.968703 12.31908,-7.261372 12.28218,-13.294446 -0.0373,-6.095772 -7.17857,-10.709334 -12.57333,-13.279678 -5.84198,-2.783424 -10.55293,-3.974406 -16.03164,-5.232614 -7.10892,-1.632593 -14.40955,-2.380106 -21.67993,-2.966529 -7.92718,-0.6394 -15.89892,-0.50605 -23.85133,-0.59597 -8.35545,-0.09448 -16.7123,0.14205 -25.06787,0.05936 -6.14686,-0.06083 -12.29621,-0.127885 -18.43696,-0.408629 -7.30443,-0.333946 -14.61174,-0.75197 -21.88366,-1.517055 -6.2514,-0.657713 -12.49452,-1.477408 -18.67204,-2.639626 -6.24715,-1.175318 -12.46816,-2.564494 -18.56156,-4.375223 -4.77067,-1.417665 -9.40101,-3.276084 -14.04465,-5.066527 -0.79062,-0.304839 -1.51246,-1.085251 -2.35138,-0.965978 -1.02043,0.14508 -1.57044,1.340989 -2.41931,1.925588 -3.4074,2.346621 -6.9233,4.592628 -10.68426,6.316626 -3.22268,1.477253 -6.66345,2.443509 -10.07628,3.402952 -1.80469,0.507352 -3.65009,0.858655 -5.48543,1.240577 -2.85507,0.594121 -5.70877,1.214886 -8.59467,1.634344 -5.56234,0.808471 -11.16694,1.346521 -16.77685,1.696156 -19.69734,0.352689 -13.48716,0.284297 -19.69305,0.284297 -7.08216,0 -11.85837,0.08711 -17.81545,-0.28417 z"
       style="fill:url(#linearGradient7367)"
       id="path12" /><path
       id="path13"
       style="fill:url(#linearGradient7375)"
       transform="matrix(2.5123083,0,0,12.447432,-338.25953,-417.48436)"
       d="m 271.79417,36.418709 a 22.362251,1.0606601 0 0 1 -22.36225,1.06066 22.362251,1.0606601 0 0 1 -22.36226,-1.06066 22.362251,1.0606601 0 0 1 22.36226,-1.06066 22.362251,1.0606601 0 0 1 22.36225,1.06066 z" /></g><g
     id="g16"
     inkscape:label="g2"
     style="display:inline"
     transform="matrix(6.8521269,0,0,6.8521269,-42.051001,-91.606405)"><path
       id="path14"
       style="display:inline;fill:#000000;fill-opacity:1;stroke:#000000;stroke-width:1px;stroke-linecap:butt;stroke-linejoin:miter;stroke-opacity:1"
       d="M 95.999987,93.267161 C 87.667577,93.138941 78.65797,93.304635 70.027264,92.586289 64.638472,92.137772 59.194766,91.693306 53.963416,90.32465 48.613467,88.924965 42.908018,87.645077 38.507545,84.295912 35.624575,82.101707 32.00287,79.08207 32.00287,75.588234 c 0,-2.245211 1.766588,-4.245439 3.427041,-5.72529 4.403755,-3.924772 10.472051,-5.606619 16.12615,-7.2883 6.491064,-1.930617 13.330171,-2.523131 20.076737,-3.110533 8.0934,-0.704666 16.414779,-0.397135 24.367189,-0.487055"
       inkscape:connector-curvature="0"
       sodipodi:nodetypes="caaasaaac" /><path
       id="path15"
       style="display:inline;fill:#000000;fill-opacity:1;stroke:#000000;stroke-width:1px;stroke-linecap:butt;stroke-linejoin:miter;stroke-opacity:1"
       d="m 476,93.266999 c 8.33241,-0.12822 17.42039,0.04021 26.09012,-0.680872 5.38882,-0.4482 10.8325,-0.892983 16.06385,-2.261639 5.34995,-1.399685 11.0554,-2.679573 15.45587,-6.028738 2.88297,-2.194205 6.50468,-5.213842 6.50468,-8.707679 0,-2.245211 -1.76659,-4.245439 -3.42704,-5.72529 -4.40376,-3.924772 -10.47206,-5.606619 -16.12615,-7.2883 -6.49107,-1.930617 -13.33014,-2.523454 -20.07674,-3.110533 C 492.35218,58.756277 483.95241,59.066813 476,58.976893"
       inkscape:connector-curvature="0"
       sodipodi:nodetypes="caaasaaac" /><path
       id="path16"
       style="stroke:#000000;stroke-width:1.23927"
       d="M 93.119621,59.096634 H 476.31359 V 93.147366 H 93.119621 Z" /></g><g
     id="g18"
     inkscape:label="g1"
     style="display:inline"
     transform="matrix(6.8521269,0,0,6.8521269,-42.051001,-91.606405)"><path
       style="fill:#000000;fill-opacity:1"
       inkscape:connector-curvature="0"
       d="m 307.96972,29.321023 -5.39708,16.382281 h 2.66486 l 5.40844,-15.819013 c 0.19678,-0.723124 0.78939,-1.250952 1.48569,-1.250952 0.70462,0 1.29648,0.527828 1.49401,1.250952 l 4.57212,13.381201 h -7.17416 v 2.437058 h 10.67534 L 316.3011,29.320269 c -0.51768,-1.80668 -2.18956,-3.126251 -4.17023,-3.126251 -1.9731,-7.54e-4 -3.64196,1.318817 -4.16115,3.127005 z m 3.16211,10.173513 0.94455,-2.794474 0.98465,2.794474 z m -0.39129,-8.021481 -4.83398,14.230249 h 3.11594 l 2.00035,-5.898103 v 2.787687 h 6.27804 l -3.72822,-11.119833 c -0.18922,-0.619067 -0.75382,-2.399357 -1.41759,-2.399357 -0.66678,0 -1.23138,1.779536 -1.41454,2.399357 z m -17.06615,-2.175407 h 9.34252 v -2.661762 h -9.5658 c -2.57934,0 -4.67127,2.089445 -4.67127,4.65997 v 9.754265 c 0,2.570524 2.09193,4.653937 4.67127,4.653937 h 9.5658 V 33.285014 h -7.56243 v 2.438566 h 4.88999 v 7.3157 h -6.67008 c -1.23141,0 -2.22212,-0.991563 -2.22212,-2.215371 v -9.312398 c -0.002,-1.220791 0.99071,-2.213863 2.22212,-2.213863 z m 1.77934,7.092503 v 2.662517 h 1.55532 v 0.665064 h -1.55532 c -0.36784,0 -0.6683,-0.2986 -0.6683,-0.665064 v -5.7669 c 0,-0.366464 0.29971,-0.665818 0.6683,-0.665818 h 7.56243 v -2.657238 h -8.67425 c -1.23138,0 -2.22891,0.992317 -2.22891,2.215371 V 40.1596 c 0,1.223053 0.99753,2.21537 2.22891,2.21537 h 5.33958 V 36.389397 Z M 278.3255,29.297648 h 9.34254 v -2.661762 h -9.56731 c -2.57934,0 -4.66976,2.089445 -4.66976,4.65997 v 9.645683 c 0,2.56977 2.09042,4.659215 4.66976,4.659215 h 9.56731 v -2.662516 h -9.34254 c -1.22684,0 -2.22361,-0.990809 -2.22361,-2.21537 v -9.209849 c 0,-1.222299 0.99677,-2.215371 2.22361,-2.215371 z m 7.33764,6.426686 v -2.438566 h -6.22658 c 0,-0.366464 0.29896,-0.665818 0.6683,-0.665818 h 7.56242 v -2.657238 h -8.67424 c -1.22685,0 -2.2221,0.992317 -2.2221,2.215371 v 3.546251 z m 0,0.889013 v 2.438567 h -6.22658 c 0,0.36571 0.29896,0.665064 0.6683,0.665064 h 7.56242 v 2.65573 h -8.67424 c -1.22685,0 -2.2221,-0.990809 -2.2221,-2.215371 v -3.546252 l 8.8922,0.0023 v 0 z m -22.85906,3.323057 h -5.60977 v 2.437812 h 8.56299 0.10973 c 1.60679,-0.05731 2.89117,-1.377632 2.89117,-2.990524 0,-1.650595 -1.3419,-2.995049 -3.0009,-2.995049 h -3.37479 c -1.36459,-0.517271 -2.52333,-1.865496 -2.52333,-3.437669 0,-2.020074 1.86714,-3.655588 3.89399,-3.655588 h 8.34575 v -2.660254 h -8.68029 c -3.43685,0 -6.22507,2.782408 -6.22507,6.208014 0,3.430883 3.0115,6.208768 6.4491,6.208768 v -0.02865 l 0.0174,0.02865 h 1.98673 c 0.24219,0 0.4435,0.195297 0.4435,0.441868 0,0.245817 -0.20283,0.441868 -0.4435,0.441868 h -2.84272 v 7.54e-4 z m 3.67978,-7.535125 h 5.61581 v -2.438567 h -8.56449 -0.11504 c -1.60678,0.05731 -2.88965,1.377632 -2.88965,2.990524 0,1.65738 1.34644,2.995802 3.00698,2.995802 h 3.37477 c 1.3646,0.521796 2.51728,1.864741 2.51728,3.436916 0,2.020828 -1.86563,3.656342 -3.89474,3.656342 h -8.33895 v 2.661762 h 8.67272 c 3.43987,0 6.23188,-2.77713 6.23188,-6.20726 0,-3.425606 -3.01149,-6.208768 -6.45062,-6.208768 v 0.03469 l -0.022,-0.03393 h -1.98219 c -0.24824,0 -0.4435,-0.195296 -0.4435,-0.441867 0,-0.240539 0.19526,-0.441868 0.4435,-0.441868 l 2.83818,-0.0038 v 0 z"
       id="path17" /><path
       style="fill:url(#linearGradient7368)"
       d="m 415.40625,63.96875 4.375,6.5625 H 431.75 l -4.375,-6.5625 z m 36.34375,0 -4.375,6.5625 h 11.96875 l 4.375,-6.5625 z m -381.34375,0.5625 v 6 h 53.1875 5.3125 c 0,-3.278391 -2.37294,-5.945022 -5.3125,-6 z m 64.59375,0 v 6 h 38.5 v -6 z m 49.375,0 c -2.9681,0.0185 -5.375,2.698675 -5.375,6 h 5.375 5.4375 34.6875 v -6 h -40.09375 z m 50.875,0 c -2.95384,0.03683 -5.34375,2.710142 -5.34375,6 h 5.34375 5.4375 26.75 H 273 c 0,-3.312793 -2.42391,-6 -5.40625,-6 -0.0546,0 -0.10201,-0.0018 -0.15625,0 z m 63.0625,0 v 6 h 39.65625 5.34375 c 0,-3.288518 -2.39158,-5.961041 -5.34375,-6 z m 57.0625,0 v 0.03125 c -2.78079,0.243975 -4.96875,2.817137 -4.96875,5.96875 h 4.96875 5.8125 19.84375 2.5625 8.78125 2.03125 c 0,-3.289858 -2.38991,-5.963171 -5.34375,-6 z m 45.4375,0 v 6 h 10.78125 v -6 z m 67.09375,0 v 6 h 38.5 v -6 z M 45.75,69.75 c -3.838379,0 -6.9375,3.099122 -6.9375,6.9375 0,3.838378 3.099121,6.96875 6.9375,6.96875 3.838379,0 6.9375,-3.130372 6.9375,-6.96875 0,-3.838378 -3.099121,-6.9375 -6.9375,-6.9375 z m 482.3125,0 c -3.83838,0 -6.96875,3.099122 -6.96875,6.9375 0,3.838378 3.13037,6.96875 6.96875,6.96875 3.83838,0 6.9375,-3.130372 6.9375,-6.96875 0,-3.838378 -3.09912,-6.9375 -6.9375,-6.9375 z M 70.40625,72.53125 v 17.8125 h 10.6875 v -17.8125 z m 23.78125,0 v 17.8125 h 10.71875 v -17.8125 z m 23.8125,0 v 17.8125 h 10.8125 v -17.8125 z m 17,0 V 83.9375 c 0.14555,3.56252 3.41342,6.40625 7.40625,6.40625 H 173.5 v -6 h -25.3125 c -1.32548,0 -2.375,-1.080766 -2.375,-2.40625 v -1.5 h 25.8125 v -5.5 h -23.4375 c -1.32548,0 -2.375,-1.080766 -2.375,-2.40625 h -1 z m 44,0 V 84.125 h 0.0312 c 0.23451,3.26741 3.08636,5.885767 6.6875,6.1875 v 0.03125 h 31.5938 V 90.3125 c 4.01545,-0.260001 7.1875,-3.573915 7.1875,-7.65625 0,-4.252592 -3.43491,-7.71875 -7.6875,-7.71875 -0.0414,0 -0.0837,-6.52e-4 -0.125,0 h -18.46875 v 5.5 h 13.34375 c 1.0803,0 1.9375,0.88845 1.9375,1.96875 0,1.0803 -0.8572,1.9375 -1.9375,1.9375 H 191.75 c -1.0803,0 -1.9375,-0.8572 -1.9375,-1.9375 v -9.875 z m 50.90625,0 v 17.8125 h 10.78125 v -17.8125 z m 32.28125,0 v 5.3125 h -19.59375 v 7 h 19.59375 v 5.5 H 273 v -17.8125 z m 36.125,0 v 17.8125 h 10.78125 v -17.8125 z m 34.1875,0 v 9.875 c 0,1.0803 -0.8572,1.9375 -1.9375,1.9375 h -19.96875 v 6 h 25.9375 V 90.3125 c 3.78969,-0.288621 6.78125,-3.138668 6.78125,-6.625 V 72.53125 Z m 17.90625,0 v 17.8125 h 10.78125 v -17.8125 z m 33.1875,0 v 3.375 c 0,0.02059 6.2e-4,0.04207 0,0.0625 -0.032,1.048019 -0.88113,1.875 -1.9375,1.875 h -2.375 -15.6875 v 7 h 15.0625 l 5.46875,5.5 h 12.90625 l -7.4375,-7.46875 c 2.81667,-1.143672 4.8125,-3.901043 4.8125,-7.125 v -3.21875 h -0.71875 z m 17.21875,0 v 17.8125 h 10.78125 v -17.8125 z m 20.28125,0 11.875,17.8125 h 1.21875 10.75 1.21875 l 11.875,-17.8125 H 446.0625 l -6.5,9.75 -6.5,-9.75 z m 46.8125,0 V 83.9375 c 0.14555,3.56252 3.41342,6.40625 7.40625,6.40625 h 31.09375 v -6 h -25.3125 c -1.32548,0 -2.40625,-1.080766 -2.40625,-2.40625 v -1.5 H 504.5 v -5.5 h -23.40625 c -1.32548,0 -2.40625,-1.080766 -2.40625,-2.40625 z"
       transform="translate(-1.0000163,-1)"
       id="path18" /></g></svg>
