<?xml version="1.0" encoding="UTF-8" standalone="no"?>
<!-- Created with Inkscape (http://www.inkscape.org/) -->

<svg
   width="1016mm"
   height="108.20929mm"
   viewBox="0 0 1016 108.20929"
   version="1.1"
   id="svg1"
   inkscape:version="1.3.2 (091e20e, 2023-11-25, custom)"
   sodipodi:docname="mv.svg"
   xmlns:inkscape="http://www.inkscape.org/namespaces/inkscape"
   xmlns:sodipodi="http://sodipodi.sourceforge.net/DTD/sodipodi-0.dtd"
   xmlns="http://www.w3.org/2000/svg"
   xmlns:svg="http://www.w3.org/2000/svg">
  <sodipodi:namedview
     id="namedview1"
     pagecolor="#ffffff"
     bordercolor="#000000"
     borderopacity="0.25"
     inkscape:showpageshadow="2"
     inkscape:pageopacity="0.0"
     inkscape:pagecheckerboard="0"
     inkscape:deskcolor="#d1d1d1"
     inkscape:document-units="mm"
     inkscape:zoom="0.81023078"
     inkscape:cx="1314.4403"
     inkscape:cy="269.67625"
     inkscape:window-width="3840"
     inkscape:window-height="2054"
     inkscape:window-x="-11"
     inkscape:window-y="-11"
     inkscape:window-maximized="1"
     inkscape:current-layer="layer1" />
  <defs
     id="defs1" />
  <g
     inkscape:label="Layer 1"
     inkscape:groupmode="layer"
     id="layer1"
     transform="translate(402.96042,-94.45625)">
    <g
       id="g9"
       transform="matrix(0.26458333,0,0,0.26458333,-402.96042,94.45625)">
	<rect
   x="2887.8701"
   y="8.6199999"
   class="st1"
   width="99.449997"
   height="391.73001"
   id="rect1"
   style="fill:#d5a53c" />

	<rect
   x="2311.47"
   y="8.6199999"
   class="st1"
   width="99.449997"
   height="391.73001"
   id="rect2"
   style="fill:#d5a53c" />

	<polygon
   class="st1"
   points="2169.97,8.63 2058.61,292.26 1947.25,8.63 1839.55,8.63 2002.23,400.35 2016.17,400.35 2101.05,400.35 2115,400.35 2277.67,8.63 "
   id="polygon2"
   style="fill:#d5a53c" />

	<rect
   x="614.89001"
   y="8.6199999"
   class="st1"
   width="99.449997"
   height="391.73001"
   id="rect3"
   style="fill:#d5a53c" />

	<path
   class="st1"
   d="M 3710.72,8.62 H 3476.4 v 17.25 65.15 309.33 h 99.45 V 91.03 h 107.66 c 31.5,0 57.04,25.54 57.04,57.04 V 400.36 H 3840 V 137.91 C 3840,66.51 3782.12,8.62 3710.72,8.62 Z"
   id="path3"
   style="fill:#d5a53c" />

	<path
   class="st1"
   d="m 1354.52,8.62 h -104.77 -49.72 -49.72 v 391.73 h 99.45 V 81.25 h 48.05 c 19.72,0 35.71,15.99 35.71,35.71 v 49.26 h 99.45 V 108.54 C 1432.95,61.69 1408.06,8.62 1354.52,8.62 Z"
   id="path4"
   style="fill:#d5a53c" />

	<path
   class="st1"
   d="M 431.96,8.62 H 330.34 230.9 99.45 0 v 82.4 309.33 H 99.45 V 91.03 H 230.9 v 309.33 h 99.45 V 91.03 h 74.41 c 31.5,0 57.04,25.54 57.04,57.04 v 252.29 h 99.45 V 137.91 C 561.24,66.51 503.36,8.62 431.96,8.62 Z"
   id="path5"
   style="fill:#d5a53c" />

	<path
   class="st1"
   d="m 2742.97,168.18 h -120.4 v 0 h -18.96 v 0 c -63.04,0 -63.04,-86.93 0,-86.93 h 218.07 V 8.62 h -261.36 c -35.35,0 -105.89,29.28 -105.89,116.09 0,86.81 70.54,116.09 105.89,116.09 h 120.4 v 0 h 18.96 v 0 c 63.04,0 63.04,86.93 0,86.93 h -218.07 v 72.63 h 261.36 c 35.36,0 105.89,-29.28 105.89,-116.09 0,-86.81 -70.54,-116.09 -105.89,-116.09 z"
   id="path6"
   style="fill:#d5a53c" />

	<path
   class="st1"
   d="m 3234.94,0 c -165.43,0 -210.61,124.86 -210.61,204.49 0,79.63 45.17,204.49 210.61,204.49 165.43,0 210.61,-124.86 210.61,-204.49 C 3445.55,124.86 3400.38,0 3234.94,0 Z m 106.2,204.23 c 0.43,89.41 -47,126.58 -105.74,126.87 -58.73,0.28 -106.53,-36.43 -106.96,-125.84 l 0.3,-1.02 c 0,-89.41 47.61,-126.36 106.35,-126.36 58.74,0 106.35,36.94 106.35,126.36 h -0.3 z"
   id="path7"
   style="fill:#d5a53c" />

	<path
   class="st1"
   d="m 1651.3,0 c -165.43,0 -210.61,124.86 -210.61,204.49 0,79.63 45.17,204.49 210.61,204.49 165.43,0 210.61,-124.86 210.61,-204.49 C 1861.91,124.86 1816.74,0 1651.3,0 Z m 106.2,204.23 c 0.43,89.41 -47,126.58 -105.74,126.87 -58.73,0.28 -106.53,-36.43 -106.96,-125.84 l 0.3,-1.02 c 0,-89.41 47.61,-126.36 106.35,-126.36 58.73,0 106.35,36.94 106.35,126.36 h -0.3 z"
   id="path8"
   style="fill:#d5a53c" />

	<path
   class="st1"
   d="m 753.34,204.49 c 0,123.24 75.39,195.86 162.5,195.86 h 185.62 V 323.04 H 970.23 c 0,0 -0.01,0 -0.01,0 -96.1,0 -116.01,-82.06 -116.01,-116.01 0,-64.07 51.94,-116.01 116.01,-116.01 h 131.24 V 8.62 H 949.2 c -135,0 -195.86,87.7 -195.86,195.87 z"
   id="path9"
   style="fill:#d5a53c" />

</g>
  </g>
</svg>
