<?xml version="1.0" encoding="UTF-8" standalone="no"?>
<!-- Created with Inkscape (http://www.inkscape.org/) -->

<svg
   width="1006.131mm"
   height="413.91415mm"
   viewBox="0 0 1006.131 413.91415"
   version="1.1"
   id="svg1"
   inkscape:version="1.3.2 (091e20e, 2023-11-25, custom)"
   sodipodi:docname="msx.svg"
   xmlns:inkscape="http://www.inkscape.org/namespaces/inkscape"
   xmlns:sodipodi="http://sodipodi.sourceforge.net/DTD/sodipodi-0.dtd"
   xmlns="http://www.w3.org/2000/svg"
   xmlns:svg="http://www.w3.org/2000/svg">
  <sodipodi:namedview
     id="namedview1"
     pagecolor="#ffffff"
     bordercolor="#000000"
     borderopacity="0.25"
     inkscape:showpageshadow="2"
     inkscape:pageopacity="0.0"
     inkscape:pagecheckerboard="0"
     inkscape:deskcolor="#d1d1d1"
     inkscape:document-units="mm"
     inkscape:zoom="0.57291968"
     inkscape:cx="1764.6453"
     inkscape:cy="1250.6116"
     inkscape:window-width="3840"
     inkscape:window-height="2054"
     inkscape:window-x="-11"
     inkscape:window-y="-11"
     inkscape:window-maximized="1"
     inkscape:current-layer="layer1" />
  <defs
     id="defs1" />
  <g
     inkscape:label="Layer 1"
     inkscape:groupmode="layer"
     id="layer1"
     transform="translate(398.19791,58.472915)">
    <g
       id="g7"
       transform="matrix(0.26710901,0,0,0.26710901,-403.0593,-63.334299)">
	<g
   id="g2">
		<rect
   x="18.200001"
   y="18.200001"
   width="3802.7"
   height="1564.4"
   id="rect1" />

		
	</g>

	<g
   id="g6">
		<path
   id="polygon1"
   class="st1"
   d="M 626.5,263.69922 333.80078,1337 H 620 L 751.90039,853.69922 883.80078,1337 H 1132.9004 L 1264.8008,853.69922 1396.5996,1337 h 748.7012 v -0.1016 c 449.6964,-0.1031 449.6636,-674.69918 -0.1016,-674.69918 h -242.3984 c -81.5998,0 -81.5998,-122.29883 0,-122.29883 232.4903,-0.0195 464.9805,-0.0337 697.4707,0.0996 L 2773.5176,783.85352 2380.5996,1337 h 338.8008 L 2942.916,1022.293 3166.5,1337 h 338.6992 L 3112.3008,783.80664 3481.6992,263.69922 H 3143 L 2942.9375,545.3457 2742.9004,263.69922 h -840.0996 c -449.7992,0 -449.7992,674.70117 0,674.70117 h 242.3984 v -0.0996 c 81.5999,0 81.5999,122.39841 0,122.39841 v 0.1016 H 1607.5527 L 1390.0996,263.69922 h -250.6992 l -131.0996,480.5 -131.00002,-480.5 z"
   sodipodi:nodetypes="ccccccccccsssccccccccccccsscccccccccc"
   style="fill:#fffffa" />

		
		
		
		
		
		
		
		
	</g>

</g>
  </g>
</svg>
