<?xml version="1.0" encoding="UTF-8" standalone="no"?>
<!-- Created with Inkscape (http://www.inkscape.org/) -->

<svg
   width="1015.7354mm"
   height="343.95834mm"
   viewBox="0 0 1015.7354 343.95834"
   version="1.1"
   id="svg1"
   inkscape:version="1.3.2 (091e20e, 2023-11-25, custom)"
   sodipodi:docname="msx2.svg"
   xmlns:inkscape="http://www.inkscape.org/namespaces/inkscape"
   xmlns:sodipodi="http://sodipodi.sourceforge.net/DTD/sodipodi-0.dtd"
   xmlns="http://www.w3.org/2000/svg"
   xmlns:svg="http://www.w3.org/2000/svg">
  <sodipodi:namedview
     id="namedview1"
     pagecolor="#ffffff"
     bordercolor="#000000"
     borderopacity="0.25"
     inkscape:showpageshadow="2"
     inkscape:pageopacity="0.0"
     inkscape:pagecheckerboard="0"
     inkscape:deskcolor="#d1d1d1"
     inkscape:document-units="mm"
     inkscape:zoom="0.4051154"
     inkscape:cx="1189.7844"
     inkscape:cy="1203.3608"
     inkscape:window-width="3840"
     inkscape:window-height="2054"
     inkscape:window-x="-11"
     inkscape:window-y="-11"
     inkscape:window-maximized="1"
     inkscape:current-layer="layer1" />
  <defs
     id="defs1" />
  <g
     inkscape:label="Layer 1"
     inkscape:groupmode="layer"
     id="layer1"
     transform="translate(402.96042,23.547917)">
    <g
       id="g7"
       transform="matrix(0.26458333,0,0,0.26458333,-402.96042,-23.547917)">
      <rect
         width="3203.8999"
         height="1299.9"
         id="rect1"
         x="0"
         y="0" />
      <g
         id="g6">
        <path
           id="polygon1"
           style="fill:#ffffff"
           class="st0"
           d="M 502.09962,193.40039 253,1106.4004 H 496.59962 L 608.69923,695.19923 720.9004,1106.4004 h 212 l 112,-411.20117 112.1992,411.20117 h 636.8008 v 0.1 c 382.5996,0 382.5996,-573.99999 0,-573.99999 h -206.2012 v -0.0996 c -69.3999,0 -69.3999,-104.09961 0,-104.09961 197.7819,-0.0195 395.5638,-0.0336 593.3457,0.0996 l 147.3145,207.4082 -334.2598,470.5918 h 288.2012 l 190.1387,-267.73242 190.1601,267.73242 h 288.0997 L 2616.5,635.82032 2930.6993,193.40039 H 2642.5996 L 2472.4375,432.9668 2302.3008,193.40039 h -714.6016 c -382.5996,0 -382.5996,574.00001 0,574.00001 h 206.2012 v 0.0996 c 69.3657,0 69.3968,103.99302 0.1,104.0957 v -0.0957 H 1336.5352 L 1151.5996,193.40039 H 938.4004 l -111.5,408.69923 -111.5,-408.69923 z"
           sodipodi:nodetypes="ccccccccccsccsccccccccccccsscccccccccc" />
      </g>
      <path
         d="m 3281,732.2 c 1.2,-88.6 12.1,-160.2 53.4,-211 41.3,-51 111.6,-80.1 228,-80.1 225.6,0 276.5,105.6 276.5,234.1 0,116.5 -42.5,190.5 -106.8,254.7 l -133.4,129.8 c -19.4,19.4 -47.3,44.9 -55.8,70.4 H 3839 V 1300 h -565.3 c 0,-118.9 30.3,-228 128.6,-328.7 l 150.5,-152.9 c 43.7,-43.7 60.7,-76.4 60.7,-140.7 0,-72.8 -23.1,-95.9 -58.2,-95.9 -31.5,0 -63.1,17 -63.1,114.1 v 36.4 H 3281 Z"
         id="path6" />
    </g>
  </g>
</svg>
