<?xml version="1.0" encoding="UTF-8" standalone="no"?>
<!-- Created with Inkscape (http://www.inkscape.org/) -->

<svg
   width="1015.709mm"
   height="425.57391mm"
   viewBox="0 0 1015.709 425.57391"
   version="1.1"
   id="svg1"
   inkscape:version="1.3.2 (091e20e, 2023-11-25, custom)"
   sodipodi:docname="n64dd.svg"
   xmlns:inkscape="http://www.inkscape.org/namespaces/inkscape"
   xmlns:sodipodi="http://sodipodi.sourceforge.net/DTD/sodipodi-0.dtd"
   xmlns="http://www.w3.org/2000/svg"
   xmlns:svg="http://www.w3.org/2000/svg">
  <sodipodi:namedview
     id="namedview1"
     pagecolor="#ffffff"
     bordercolor="#000000"
     borderopacity="0.25"
     inkscape:showpageshadow="2"
     inkscape:pageopacity="0.0"
     inkscape:pagecheckerboard="0"
     inkscape:deskcolor="#d1d1d1"
     inkscape:document-units="mm"
     inkscape:zoom="0.40511539"
     inkscape:cx="767.68251"
     inkscape:cy="1309.5034"
     inkscape:window-width="3840"
     inkscape:window-height="2054"
     inkscape:window-x="-11"
     inkscape:window-y="-11"
     inkscape:window-maximized="1"
     inkscape:current-layer="layer1" />
  <defs
     id="defs1" />
  <g
     inkscape:label="Layer 1"
     inkscape:groupmode="layer"
     id="layer1"
     transform="translate(402.96042,64.29375)">
    <g
       id="g17"
       transform="matrix(0.26458333,0,0,0.26458333,-402.96042,-64.302137)">
	<g
   id="g16">
		<g
   id="g15">
			<g
   id="g2">
				<polygon
   class="st0"
   points="89.7,60.4 0,60.4 0,259.8 60.7,259.8 60.7,144.7 61.2,144.7 101.2,259.8 190.9,259.8 190.9,60.4 130.2,60.4 130.2,174.8 129.7,174.8 "
   id="polygon1"
   style="fill:#334fa2" />

			</g>

			<g
   id="g3">
				<polygon
   class="st0"
   points="428.1,60.4 338.4,60.4 338.4,259.8 399.1,259.8 399.1,144.7 399.6,144.7 439.6,259.8 529.3,259.8 529.3,60.4 468.7,60.4 468.7,174.8 468.2,174.8 "
   id="polygon2"
   style="fill:#334fa2" />

			</g>

			<g
   id="g4">
				<polygon
   class="st0"
   points="1010.9,60.4 921.2,60.4 921.2,259.8 981.9,259.8 981.9,144.7 982.4,144.7 1022.4,259.8 1112.1,259.8 1112.1,60.4 1051.5,60.4 1051.5,174.8 1050.9,174.8 "
   id="polygon3"
   style="fill:#334fa2" />

			</g>

			<g
   id="g5">
				<rect
   x="227.5"
   y="60.400002"
   class="st0"
   width="74.800003"
   height="199.3"
   id="rect3"
   style="fill:#334fa2" />

			</g>

			<g
   id="g6">
				<polygon
   class="st0"
   points="598.6,259.8 673.4,259.8 673.4,114.6 721.1,114.6 721.1,60.4 551,60.4 551,114.6 598.6,114.6 "
   id="polygon4"
   style="fill:#334fa2" />

			</g>

			<g
   id="g7">
				<path
   class="st0"
   d="m 1332.6,162.2 c 0,-59 -24.1,-101.8 -99.7,-101.8 h -88.6 v 199.3 h 93.1 c 58.1,0 95.2,-37.3 95.2,-97.5 z m -115.1,52.4 V 105.9 h 7.3 c 12.1,0 20.1,3.7 24.8,11.7 4.9,8.3 5.5,23.4 5.5,42.7 0,19.2 -0.5,34.3 -5.5,42.6 -4.7,8 -12.8,11.7 -24.8,11.7 z"
   id="path5"
   style="fill:#334fa2" />

			</g>

			<g
   id="g8">
				<path
   class="st0"
   d="m 1449.9,265.1 c 65.2,0 97.6,-42.7 97.6,-104.9 0,-62.2 -32.5,-105 -97.6,-105 -65.2,0 -97.6,42.8 -97.6,105 0,62.1 32.5,104.9 97.6,104.9 z m 0,-159.4 c 12,0 20.1,6.8 20.1,54.5 0,48.8 -8.6,54.4 -20.1,54.4 -11.5,0 -20.2,-5.7 -20.1,-54.4 0,-47.8 8.1,-54.5 20.1,-54.5 z"
   id="path6"
   style="fill:#334fa2" />

			</g>

			<g
   id="g10">
				<g
   id="g9">
					<path
   class="st1"
   d="m 1639.9,164.5 c 33.6,0 58.8,-25.4 58.8,-58.1 0,-34.1 -22.9,-52.3 -47.9,-52.3 -13,0 -22.8,3.2 -30.6,10.1 h -0.8 c 4.3,-15.2 17,-28.6 48.6,-30.1 5.4,-0.3 9.3,-0.4 13.2,-0.1 l 0.2,-33.5 c -3.2,-0.3 -7.4,-0.7 -14.2,-0.3 -25.8,0.6 -46.9,8.2 -63.3,23.4 -17.2,16.1 -27.7,41.1 -27.7,70.7 0,36.3 19.3,70.2 63.7,70.2 z m -20.5,-67.7 c 2.5,-6.5 9.1,-11.7 17.4,-11.7 13.7,0 18.8,12.3 18.9,23.6 0,13.3 -6.2,23.8 -16.5,23.8 -14.1,0.1 -20.2,-13.3 -21.1,-26.1 0,-4.8 0.3,-7.6 1.3,-9.6 z"
   id="path7"
   style="fill:#f01b25" />

				</g>

			</g>

			<g
   id="g12">
				<g
   id="g11">
					<path
   class="st1"
   d="m 1776.9,161.9 v 0 h 40 v -35.8 h 16.9 V 93.3 h -16.9 v -91 h -53.1 l -53.4,95.1 v 28.7 h 66.5 z m -28,-68.6 0.2,-0.5 13.1,-26.5 c 5.6,-11.1 9.9,-21.3 14.9,-32.1 h 0.9 c -0.5,11.2 -1.1,21.7 -1.1,31.8 v 27.4 z"
   id="path9"
   style="fill:#f01b25" />

				</g>

			</g>

			<g
   id="g13">
				<polygon
   class="st0"
   points="891.2,60.4 743.2,60.4 743.2,259.8 893.5,259.8 893.5,207.5 816.8,207.5 816.8,185.2 885.3,185.2 885.3,134 816.8,134 816.8,113.1 891.2,113.1 "
   id="polygon11"
   style="fill:#334fa2" />

			</g>

			<g
   id="g14">
				<path
   class="st0"
   d="m 3283.5,382.8 h -143.6 -195.2 -35.9 -62.3 -21.5 V 776 C 2766,546 2585.3,382.8 2290.9,382.8 h -143.6 -195.2 -35.9 -62.3 -21.4 v 687.5 H 1650.6 V 382.7 H 1249 L 899.4,1006 C 843.5,853.6 708.7,773.9 564.5,773.9 c -98.7,0 -172,23.9 -231.2,75.8 h -5.7 c 32.8,-114.9 129,-216.3 367.6,-227.7 41.1,-1.9 70,-2.6 100.1,-0.5 V 368 C 770.7,365.7 739.9,363 688.1,365.7 492.6,370.5 333.3,428.3 209.3,542.8 79.4,664.7 0.1,853.9 0.1,1077.4 c 0,274.8 146.2,531.2 482,531.1 200.5,0 360.8,-119.3 419.9,-290.6 h 446.4 v 270.4 l 302.2,-0.1 v -270.4 h 181.9 v 270.5 h 21.4 62.3 35.9 195.2 143.6 c 294.4,0 475.1,-163.2 534.1,-393.2 v 393.2 h 21.4 62.3 35.9 195.2 143.6 c 365.4,0 555.5,-251.4 555.5,-569.8 v -66 C 3839,634.1 3648.8,382.8 3283.5,382.8 Z M 477.3,1365.7 h -1.6 c -105.6,0 -151.9,-101.3 -158.5,-197.6 0,-35.8 2.8,-57.1 9.9,-72 18.4,-48.6 68,-88.4 131,-88.4 104,0 143,92.7 143.5,178.1 0,101 -46.6,179.9 -124.3,179.9 z m 871.1,-502.6 v 207.3 h -210.9 l 1.3,-3.8 99,-200.8 c 42.2,-83.9 74.7,-161.3 112.5,-242.7 h 6.4 c -4,83.9 -8.3,163.6 -8.3,240 z m 942.5,476 h -143.6 v -707 h 143.6 c 113.1,0 210.5,114.9 210.5,353.5 0,238.6 -97.4,353.5 -210.5,353.5 z m 992.6,0 h -143.6 v -707 h 143.6 c 113.1,0 210.5,114.9 210.5,353.5 0,238.6 -97.4,353.5 -210.5,353.5 z"
   id="path12"
   style="fill:#334fa2" />

			</g>

		</g>

	</g>

</g>
  </g>
</svg>
