<?xml version="1.0" encoding="UTF-8" standalone="no"?>
<!-- Created with Inkscape (http://www.inkscape.org/) -->

<svg
   width="1015.7354mm"
   height="386.55624mm"
   viewBox="0 0 1015.7354 386.55624"
   version="1.1"
   id="svg1"
   inkscape:version="1.3.2 (091e20e, 2023-11-25, custom)"
   sodipodi:docname="naomi.svg"
   xmlns:inkscape="http://www.inkscape.org/namespaces/inkscape"
   xmlns:sodipodi="http://sodipodi.sourceforge.net/DTD/sodipodi-0.dtd"
   xmlns="http://www.w3.org/2000/svg"
   xmlns:svg="http://www.w3.org/2000/svg">
  <sodipodi:namedview
     id="namedview1"
     pagecolor="#ffffff"
     bordercolor="#000000"
     borderopacity="0.25"
     inkscape:showpageshadow="2"
     inkscape:pageopacity="0.0"
     inkscape:pagecheckerboard="0"
     inkscape:deskcolor="#d1d1d1"
     inkscape:document-units="mm"
     inkscape:zoom="0.40511539"
     inkscape:cx="910.8516"
     inkscape:cy="1252.7295"
     inkscape:window-width="3840"
     inkscape:window-height="2054"
     inkscape:window-x="-11"
     inkscape:window-y="-11"
     inkscape:window-maximized="1"
     inkscape:current-layer="layer1" />
  <defs
     id="defs1" />
  <g
     inkscape:label="Layer 1"
     inkscape:groupmode="layer"
     id="layer1"
     transform="translate(402.96042,44.714583)">
    <g
       id="g17"
       transform="matrix(0.26458333,0,0,0.26458333,-402.96042,-44.714583)">
	<g
   id="g12">
		<g
   id="g11">
			<g
   id="g10">
				<g
   id="g9">
					<g
   id="g2">
						<path
   class="st4"
   d="m 1309.2,345 h -216.7 v 67.6 h 216.7 c 41.6,0 76.3,-34.7 76.3,-76.3 0,-41.6 -34.7,-76.3 -76.3,-76.3 h -55.5 c -50.3,0 -91.9,-41.6 -91.9,-91.9 0,-50.3 41.6,-91.9 91.9,-91.9 h 215 V 8.7 H 1252 c -88.4,0 -159.5,71.1 -159.5,159.5 0,88.4 71.1,159.5 159.5,159.5 h 55.5 c 5.2,0 8.7,3.5 8.7,8.7 0,5.1 -3.5,8.6 -7,8.6 z"
   id="path1"
   style="fill:#034693" />

						<path
   class="st4"
   d="m 1252,161.2 h 216.7 V 91.9 H 1252 c -41.6,0 -76.3,34.7 -76.3,76.3 0,41.6 34.7,76.3 76.3,76.3 h 55.5 c 50.3,0 91.9,41.6 91.9,91.9 0,50.3 -41.6,91.9 -91.9,91.9 h -215 v 67.6 h 216.7 c 88.4,0 159.5,-71.1 159.5,-159.5 0,-88.4 -71.1,-159.5 -159.5,-159.5 h -55.5 c -5.2,0 -8.7,-3.5 -8.7,-8.7 0.1,-3.5 3.6,-7 7,-7 z"
   id="path2"
   style="fill:#034693" />

					</g>

					<g
   id="g5">
						<path
   class="st4"
   d="m 2030.5,91.9 c -29.5,0 -52,22.5 -52,52 v 216.7 c 0,29.5 22.5,52 52,52 h 140.4 V 260 h -107.5 v 67.6 h 39.9 v 15.6 h -39.9 c -8.7,0 -15.6,-6.9 -15.6,-15.6 V 175.1 c 0,-8.7 6.9,-15.6 15.6,-15.6 h 192.4 V 91.9 Z"
   id="path3"
   style="fill:#034693" />

						<path
   class="st4"
   d="m 2456.9,412.6 h 157.8 l -107.5,-319 c -3.5,-8.7 -10.4,-15.6 -20.8,-15.6 -8.7,0 -17.3,6.9 -20.8,13.9 l -138.7,403.9 h 79.7 l 48.5,-143.9 v 60.7 z m 27.8,-145.6 22.5,69.3 h -46.8 z"
   id="path4"
   style="fill:#034693" />

						<path
   class="st4"
   d="M 2590.4,79.7 C 2576.6,34.7 2535,0 2484.7,0 c -50.3,0 -91.9,32.9 -104,78 L 2254.1,449 V 176.8 h -190.7 v 67.6 h 124.8 v 183.8 h -156 c -38.1,0 -67.6,-31.2 -67.6,-67.6 V 143.9 c 0,-38.1 31.2,-67.6 67.6,-67.6 h 223.6 V 8.7 h -225.4 c -74.5,0 -135.2,60.7 -135.2,135.2 v 216.7 c 0,74.5 60.7,135.2 135.2,135.2 h 279.1 L 2450,88.4 c 5.2,-15.6 19.1,-26 36.4,-26 17.3,0 31.2,10.4 36.4,26 l 114.4,339.8 h -180.3 v 67.6 h 273.9 v 0 z"
   id="path5"
   style="fill:#034693" />

					</g>

					<g
   id="g8">
						<path
   class="st4"
   d="m 1636.9,428.2 c -38.1,0 -67.6,-31.2 -67.6,-67.6 V 143.9 c 0,-38.1 31.2,-67.6 67.6,-67.6 h 232.3 V 8.7 h -232.3 c -74.5,0 -135.2,60.7 -135.2,135.2 v 216.7 c 0,74.5 60.7,135.2 135.2,135.2 h 232.3 v -67.6 z"
   id="path6"
   style="fill:#034693" />

						<path
   class="st4"
   d="m 1652.5,329.4 h 168.2 v -67.6 h -235.8 v 100.6 c 0,29.5 22.5,52 52,52 h 232.3 v -67.6 h -201.1 c -8.6,-1.8 -15.6,-8.7 -15.6,-17.4 z"
   id="path7"
   style="fill:#034693" />

						<path
   class="st4"
   d="m 1820.7,176.8 h -168.2 c 0,-8.7 6.9,-15.6 15.6,-15.6 h 199.4 V 91.9 h -230.6 c -29.5,0 -52,22.5 -52,52 v 100.6 h 235.8 z"
   id="path8"
   style="fill:#034693" />

					</g>

				</g>

			</g>

		</g>

	</g>

	<rect
   x="839"
   y="1137"
   width="611.29999"
   height="120.1"
   id="rect12" />

	<g
   id="g16">
		<rect
   x="3718.8999"
   y="674.29999"
   width="120.1"
   height="722.79999"
   id="rect13" />

		<polygon
   points="3344.1,1397.1 3464.2,1397.1 3464.2,674.3 3038.3,1167.5 2612.5,674.3 2612.5,1397.1 2732.6,1397.1 2732.6,997.1 3038.3,1351.3 3344.1,997.1 "
   id="polygon13" />

		<rect
   x="591"
   y="674.29999"
   width="120.1"
   height="600.40002"
   id="rect14" />

		<rect
   y="789.79999"
   width="120.1"
   height="607.40002"
   id="rect15"
   x="0" />

		<polygon
   points="711,1241.9 711,1397.1 0,814.5 0,659.3 "
   id="polygon15" />

		<path
   class="st2"
   d="m 2079.5,625.6 c -230.6,0 -417.7,187 -417.7,417.7 0,230.7 187,417.7 417.7,417.7 230.6,0 417.7,-187 417.7,-417.7 0,-230.7 -187,-417.7 -417.7,-417.7 z m 0,120.1 c -164.4,0 -297.6,133.2 -297.6,297.6 0,164.4 133.2,297.6 297.6,297.6 164.4,0 297.6,-133.2 297.6,-297.6 0,-164.4 -133.2,-297.6 -297.6,-297.6 z m 0,573.7 c -152.3,0 -276,-123.9 -276,-276 0,-152.3 123.9,-276 276,-276 152.3,0 276,123.9 276,276 0.1,152.1 -123.8,276 -276,276 z m 0,21.5 c -164.4,0 -297.6,-133.2 -297.6,-297.6 0,-164.4 133.2,-297.6 297.6,-297.6 164.4,0 297.6,133.2 297.6,297.6 0,164.3 -133.2,297.6 -297.6,297.6 z"
   id="path15"
   style="fill:#f05100" />

		<polygon
   points="1510.3,1397.1 1647.1,1397.1 1242.7,658.2 838.3,1397.1 975.2,1397.1 1242.7,908.2 "
   id="polygon16" />

	</g>

</g>
  </g>
</svg>
