<?xml version="1.0" encoding="UTF-8" standalone="no"?>
<!-- Created with Inkscape (http://www.inkscape.org/) -->

<svg
   width="1016mm"
   height="145.30916mm"
   viewBox="0 0 1016 145.30916"
   version="1.1"
   id="svg1"
   inkscape:version="1.3.2 (091e20e, 2023-11-25, custom)"
   sodipodi:docname="nds.svg"
   xmlns:inkscape="http://www.inkscape.org/namespaces/inkscape"
   xmlns:sodipodi="http://sodipodi.sourceforge.net/DTD/sodipodi-0.dtd"
   xmlns="http://www.w3.org/2000/svg"
   xmlns:svg="http://www.w3.org/2000/svg">
  <sodipodi:namedview
     id="namedview1"
     pagecolor="#ffffff"
     bordercolor="#000000"
     borderopacity="0.25"
     inkscape:showpageshadow="2"
     inkscape:pageopacity="0.0"
     inkscape:pagecheckerboard="0"
     inkscape:deskcolor="#d1d1d1"
     inkscape:document-units="mm"
     inkscape:zoom="0.28645984"
     inkscape:cx="-104.72672"
     inkscape:cy="-1122.3214"
     inkscape:window-width="3840"
     inkscape:window-height="2054"
     inkscape:window-x="-11"
     inkscape:window-y="-11"
     inkscape:window-maximized="1"
     inkscape:current-layer="layer1" />
  <defs
     id="defs1" />
  <g
     inkscape:label="Layer 1"
     inkscape:groupmode="layer"
     id="layer1"
     transform="translate(402.96042,-75.935417)">
    <g
       id="g14"
       transform="matrix(0.26458333,0,0,0.26458333,-402.96042,75.935417)">
	<g
   id="g13">
		<g
   id="g9">
			<path
   d="m 47.7,69.5 c 0,0 0,188.1 0,190.9 -2.6,0 -45.1,0 -47.7,0 C 0,257.5 0,5.5 0,2.7 c 2.7,0 39.5,0 40.7,0 L 234,190.4 c 0,0 0,-184.9 0,-187.7 2.6,0 38.2,0 38.2,0 0,0 6.8,0 8.9,0 0,2.8 0,254.8 0,257.7 -2.6,0 -36,0 -37.3,0 z"
   id="path1" />

			<path
   d="m 526,69.5 c 0,0 0,188.1 0,190.9 -2.6,0 -45.1,0 -47.7,0 0,-2.9 0,-254.9 0,-257.7 2.7,0 39.5,0 40.7,0 l 193.3,187.7 c 0,0 0,-184.9 0,-187.7 2.6,0 38.2,0 38.2,0 0,0 6.8,0 8.9,0 0,2.8 0,254.8 0,257.7 -2.6,0 -36,0 -37.3,0 z"
   id="path2" />

			<path
   d="m 1517.4,69.5 c 0,0 0,188.1 0,190.9 -2.6,0 -45.1,0 -47.7,0 0,-2.9 0,-254.9 0,-257.7 2.6,0 39.5,0 40.7,0 l 193.2,187.7 c 0,0 0,-184.9 0,-187.7 2.6,0 38.2,0 38.2,0 0,0 6.8,0 8.9,0 0,2.8 0,254.8 0,257.7 -2.6,0 -36,0 -37.2,0 z"
   id="path3" />

			<path
   d="m 394.7,2.7 c 0,0 6.8,0 8.9,0 0,2.8 0,254.8 0,257.7 -2.5,0 -45.1,0 -47.7,0 0,-2.9 0,-254.9 0,-257.7 2.5,0 38.8,0 38.8,0 z"
   id="path4" />

			<path
   d="m 1084.3,2.7 c 0,0 6.7,0 8.8,0 0,2.6 0,41.8 0,44.4 -2.8,0 -115,0 -115,0 0,0 0,210.5 0,213.3 -2.6,0 -47,0 -49.6,0 0,-2.9 0,-213.3 0,-213.3 0,0 -112.2,0 -115,0 0,-2.5 0,-41.7 0,-44.4 2.8,0 270.8,0 270.8,0 z"
   id="path5" />

			<path
   d="m 1390,2.7 c 0,0 6.9,0 8.9,0 0,2.6 0,41.8 0,44.4 -2.7,0 -204.5,0 -204.5,0 v 57.8 c 0,0 155.5,0 158.2,0 0,2.6 0,41.7 0,44.3 -2.7,0 -158.2,0 -158.2,0 V 216 c 0,0 201.8,0 204.5,0 0,2.6 0,41.8 0,44.4 -2.7,0 -249,0 -251.7,0 0,-2.9 0,-254.9 0,-257.7 2.7,0 242.8,0 242.8,0 z"
   id="path6" />

			<path
   d="M 2094.3,40.4 C 2075.6,15.8 2048,2.7 2014.6,2.7 c 0,0 -188.4,0 -191.2,0 0,2.8 0,254.8 0,257.7 2.8,0 191.2,0 191.2,0 33.4,0 61,-13.1 79.7,-37.7 17.4,-22.9 26.7,-54.4 26.7,-91.3 0,-36.6 -9.3,-68.2 -26.7,-91 z M 2016,216 H 1869.4 V 47 h 1.4 145.2 c 45.8,0 62.1,45.6 62.1,84.5 0.1,39 -16.3,84.5 -62.1,84.5 z"
   id="path7" />

			<path
   d="M 2432.9,2.7 H 2225 c -30.1,0 -54.6,24.7 -54.6,54.7 v 148.4 c 0,30 24.5,54.6 54.6,54.6 h 207.9 c 30.1,0 54.7,-24.6 54.7,-54.6 V 57.4 c 0,-30 -24.6,-54.7 -54.7,-54.7 z m 8.9,202.8 c 0,5.8 -4.8,10.6 -10.7,10.6 h -204.3 c -5.9,0 -10.7,-4.8 -10.7,-10.6 V 57.7 c 0,-5.8 4.8,-10.6 10.7,-10.6 h 204.3 c 5.9,0 10.7,4.8 10.7,10.6 z"
   id="path8" />

			<path
   class="st0"
   d="M 2432.9,291.5 H 2225 c -30.1,0 -54.6,24.6 -54.6,54.7 v 148.4 c 0,30 24.5,54.6 54.6,54.6 h 207.9 c 30.1,0 54.7,-24.6 54.7,-54.6 V 346.1 c 0,-30 -24.6,-54.6 -54.7,-54.6 z m 8.9,202.7 c 0,5.9 -4.8,10.7 -10.7,10.7 h -204.3 c -5.9,0 -10.7,-4.8 -10.7,-10.7 V 346.4 c 0,-5.9 4.8,-10.6 10.7,-10.6 h 204.3 c 5.9,0 10.7,4.7 10.7,10.6 z"
   id="path9"
   style="fill:#929497" />

		</g>

		<g
   id="g12">
			<path
   d="m 3299.1,440.4 c 49.5,19.6 153.9,35.4 235.4,35.4 89.2,0 126.2,-30.7 126.2,-69.1 0,-34.5 -34.3,-54.8 -132.9,-90.9 -131.7,-48.7 -228.3,-87 -228.3,-173.5 C 3299.5,52.7 3415.8,0 3593,0 c 95.1,0 127.9,6.1 188.3,17.1 l 0.4,85 C 3722.4,90.9 3669.8,71.4 3588,71.4 c -87.6,0 -124.9,27.8 -124.9,56.5 0,41.6 57.4,61.5 158.4,97.5 140.3,50.2 218.5,89 218.5,173.7 0,87.2 -97.8,150.1 -318.4,150.1 -90.6,0 -153,-6 -222.5,-17.1 z"
   id="path10" />

			<g
   id="g11">
				<path
   d="m 3111.4,509.6 c -51.9,23.5 -150.2,38.4 -236,38.4 H 2547.2 V 1.2 h 328.2 c 85.9,0 184.1,15.1 236.1,38.6 126.3,57 167.6,148.3 167.6,234.9 -0.1,86.5 -40.9,177.7 -167.7,234.9 z M 2829.6,75.2 h -105 v 397.4 h 105 c 161.2,0 262.8,-68.9 262.8,-197.9 0,-129 -101.7,-199.5 -262.8,-199.5 z"
   id="path11" />

			</g>

		</g>

	</g>

</g>
  </g>
</svg>
