<?xml version="1.0" encoding="UTF-8" standalone="no"?>
<!-- Created with Inkscape (http://www.inkscape.org/) -->

<svg
   width="1015.7354mm"
   height="177.77354mm"
   viewBox="0 0 1015.7354 177.77354"
   version="1.1"
   id="svg1"
   inkscape:version="1.3.2 (091e20e, 2023-11-25, custom)"
   sodipodi:docname="neogeo.svg"
   xmlns:inkscape="http://www.inkscape.org/namespaces/inkscape"
   xmlns:sodipodi="http://sodipodi.sourceforge.net/DTD/sodipodi-0.dtd"
   xmlns="http://www.w3.org/2000/svg"
   xmlns:svg="http://www.w3.org/2000/svg">
  <sodipodi:namedview
     id="namedview1"
     pagecolor="#ffffff"
     bordercolor="#000000"
     borderopacity="0.25"
     inkscape:showpageshadow="2"
     inkscape:pageopacity="0.0"
     inkscape:pagecheckerboard="0"
     inkscape:deskcolor="#d1d1d1"
     inkscape:document-units="mm"
     inkscape:zoom="0.40511539"
     inkscape:cx="488.74964"
     inkscape:cy="156.74546"
     inkscape:window-width="3840"
     inkscape:window-height="2054"
     inkscape:window-x="-11"
     inkscape:window-y="-11"
     inkscape:window-maximized="1"
     inkscape:current-layer="layer1" />
  <defs
     id="defs1" />
  <g
     inkscape:label="Layer 1"
     inkscape:groupmode="layer"
     id="layer1"
     transform="translate(402.96042,-59.53125)">
    <g
       id="g10"
       transform="matrix(0.26458333,0,0,0.26458333,-402.96042,59.53125)">
	<g
   id="g9">
		<g
   id="g8">
			<g
   id="g7">
				<path
   class="st1"
   d="m 643.3,16 h -195 v 25.6 h 25.4 c 34.1,0 61.7,31.8 61.7,65.7 V 423.7 L 202.9,16 H 0 v 25.6 c 45.3,0 81.1,40.9 81.1,86.3 v 443.4 c 0,45.3 -47.8,60.4 -81.1,60.4 v 25.6 h 220.4 v -25.6 c -41.3,-0.2 -63.1,-5.9 -77.2,-19.2 -14.1,-13.4 -17.9,-31.1 -17.9,-55.4 V 141.5 l 430.5,524.9 h 23.5 V 108 c 0,-33.1 25.9,-61.2 64,-62.6 z"
   id="path1"
   style="fill:#c2ac6d" />

				<circle
   class="st1"
   cx="1943.7"
   cy="334.60001"
   r="74.400002"
   id="circle1"
   style="fill:#c2ac6d" />

				<path
   class="st1"
   d="m 2362.6,357.3 v 31 h 24.2 c 39.3,0 50.5,19 50.5,52.9 v 151.6 c -9,11 -39.7,24.8 -83,24.8 -8.8,0 -59,-1 -96.5,-31.8 -39.2,-32.2 -65.6,-97.4 -65.6,-252.4 0,-201.8 71,-287.3 173.9,-287.3 33.5,0 147,22.6 195.3,168.6 h 30.3 V 4.1 h -28.6 c -3.6,28.3 -26,44 -68.3,26.4 C 2430.9,4 2373.8,0 2332,0 c -164.6,0 -304.9,152.5 -304.9,334.6 0,209.8 158.4,332.7 328.5,332.7 80.6,0 166.1,-18.6 233.8,-52.9 V 441.2 c 0,-40.6 28.3,-52.9 66.5,-52.9 v -31 z"
   id="path2"
   style="fill:#c2ac6d" />

				<g
   id="g4">
					<path
   class="st1"
   d="m 1185.2,459.4 c -15.9,87.9 -91.7,156.5 -176.7,154.3 h -73.4 c -23,0 -41.7,-18.7 -41.7,-41.7 V 347.2 h 20.1 c 60,0 98.3,50.2 98.3,136.6 h 26.3 V 330.7 322.9 172.7 h -26.3 c 0,76 -32.1,130.9 -98.4,130.9 H 893.3 V 54.5 h 105.5 c 142,0 146.8,126.5 146.8,142.8 h 28.3 V 59.9 16 H 662.2 v 25.5 h 36.1 c 27.6,0 50,26.1 50,53.6 v 472.1 c 0,49.7 -32.6,61 -60.2,61 h -25.9 v 29.2 h 86.1 433 l 29.2,-198 z"
   id="path3"
   style="fill:#c2ac6d" />

					<path
   class="st1"
   d="m 1533.5,9.3 c -184.6,0 -326.7,135.9 -326.7,331.3 0,195.4 142.2,331.3 326.7,331.3 184.6,0 326.8,-135.9 326.8,-331.3 0,-195.4 -142.2,-331.3 -326.8,-331.3 z m 0,619.7 c -88.7,0 -160.4,-81.2 -160.4,-288.5 0,-207.3 71.9,-288.4 160.4,-288.4 88.7,0 160.4,81.2 160.4,288.5 0.2,207.2 -71.7,288.4 -160.4,288.4 z"
   id="path4"
   style="fill:#c2ac6d" />

				</g>

				<g
   id="g6">
					<path
   class="st1"
   d="m 3163.9,459.4 c -15.9,87.9 -91.7,156.5 -176.7,154.3 h -73.4 c -23,0 -41.7,-18.7 -41.7,-41.7 V 347.2 h 20.1 c 60,0 98.3,50.2 98.3,136.6 h 26.3 V 330.7 322.9 172.7 h -26.3 c 0,76 -32.1,130.9 -98.4,130.9 H 2872 V 54.5 h 105.5 c 142,0 146.8,126.5 146.8,142.8 h 28.3 V 59.9 16 h -511.7 v 25.5 h 36.1 c 27.6,0 50,26.1 50,53.6 v 472.1 c 0,49.7 -32.6,61 -60.2,61 h -25.9 v 29.2 h 86.1 433 l 29.2,-198 z"
   id="path5"
   style="fill:#c2ac6d" />

					<path
   class="st1"
   d="m 3512.2,9.3 c -184.6,0 -326.7,135.9 -326.7,331.3 0,195.4 142.2,331.3 326.7,331.3 C 3696.8,671.9 3839,536 3839,340.6 3839,145.2 3696.8,9.3 3512.2,9.3 Z m 0,619.7 c -88.7,0 -160.4,-81.2 -160.4,-288.5 0,-207.3 71.9,-288.5 160.4,-288.5 88.7,0 160.4,81.2 160.4,288.5 0.2,207.3 -71.7,288.5 -160.4,288.5 z"
   id="path6"
   style="fill:#c2ac6d" />

				</g>

			</g>

		</g>

	</g>

</g>
  </g>
</svg>
