<?xml version="1.0" encoding="UTF-8" standalone="no"?>
<!-- Created with Inkscape (http://www.inkscape.org/) -->

<svg
   width="1015.7883mm"
   height="132.87375mm"
   viewBox="0 0 1015.7883 132.87375"
   version="1.1"
   id="svg1"
   inkscape:version="1.3.2 (091e20e, 2023-11-25, custom)"
   sodipodi:docname="neogeocd.svg"
   xmlns:inkscape="http://www.inkscape.org/namespaces/inkscape"
   xmlns:sodipodi="http://sodipodi.sourceforge.net/DTD/sodipodi-0.dtd"
   xmlns="http://www.w3.org/2000/svg"
   xmlns:svg="http://www.w3.org/2000/svg">
  <sodipodi:namedview
     id="namedview1"
     pagecolor="#ffffff"
     bordercolor="#000000"
     borderopacity="0.25"
     inkscape:showpageshadow="2"
     inkscape:pageopacity="0.0"
     inkscape:pagecheckerboard="0"
     inkscape:deskcolor="#d1d1d1"
     inkscape:document-units="mm"
     inkscape:zoom="0.28645984"
     inkscape:cx="886.68625"
     inkscape:cy="-1024.5764"
     inkscape:window-width="3840"
     inkscape:window-height="2054"
     inkscape:window-x="-11"
     inkscape:window-y="-11"
     inkscape:window-maximized="1"
     inkscape:current-layer="layer1" />
  <defs
     id="defs1" />
  <g
     inkscape:label="Layer 1"
     inkscape:groupmode="layer"
     id="layer1"
     transform="translate(402.96042,-82.020833)">
    <g
       id="g15"
       transform="matrix(0.26458333,0,0,0.26458333,-402.96042,82.020833)">
	<g
   id="g14">
		<g
   id="g13">
			<g
   id="g4">
				<g
   id="g3">
					<g
   id="g2">
						<path
   class="st1"
   d="m 3687.4,92.5 c -18.8,-32 -57.1,-52.7 -97.4,-52.7 h -64.3 v 381.8 c 0,20.4 16.6,36.9 37,36.9 h 33.4 c 41.3,0 81.1,-26 98.8,-64.6 25.8,-56.2 27.8,-125.4 27.8,-145.2 -0.1,-9.9 -1,-97.9 -35.3,-156.2 z m -5.2,295.5 c -15.5,33.8 -50.2,56.5 -86.2,56.5 h -33.4 c -12.7,0 -23,-10.3 -23,-23 V 53.7 h 50.4 c 35.5,0 69.1,18 85.4,45.9 32.3,55.1 33.3,139.6 33.3,149 0,19.2 -1.9,85.8 -26.5,139.4 z"
   id="path1"
   style="fill:#c2ac6d" />

						<path
   class="st1"
   d="m 3606.1,10.9 h -255 v 34.3 h 9.1 c 44.5,0 53.6,16.7 53.6,37.4 v 340.5 c 0,20.6 -9.2,37.4 -53.6,37.4 h -9.8 v 34.3 h 74.9 101.6 79.4 c 118.8,0 232.9,-83 232.9,-241.9 C 3839,85 3711.7,10.9 3606.1,10.9 Z m 0,470 h -241.8 v -6.5 c 42.1,-1 63.5,-18.3 63.5,-51.2 V 82.6 c 0,-32.8 -21.1,-50 -62.7,-51.2 v -6.5 h 241.1 c 53.8,0 107.3,19.9 146.8,54.6 47.2,41.4 72.1,101.4 72.1,173.5 0,156.5 -113.5,227.9 -219,227.9 z"
   id="path2"
   style="fill:#c2ac6d" />

					</g>

					<path
   class="st1"
   d="m 3175.2,57.9 c 74,0 118.9,67.6 129.2,117 h 29.4 V 0 h -25 c 0,0 -8.8,33.5 -28.1,33.5 -25.1,0 -56.7,-26.6 -136.8,-26.6 -114.8,0 -217.1,112.1 -217.1,247.9 0,172.4 115.2,247.4 231.5,247.4 64.5,0 134.3,-37 175.4,-97.6 v -76.1 c -30.1,58.5 -90,120.7 -155.2,120.7 -44,0 -88.8,-20.8 -109.4,-77.4 -10.6,-29.1 -14.2,-67.9 -14.2,-119.2 0.1,-72.3 19.2,-194.7 120.3,-194.7 z m -134.1,194.7 c 0,57.2 4.6,95.4 15,123.9 20,55 64.7,86.6 122.5,86.6 54.5,0 105.7,-39 141.3,-86.4 v 23.5 c -38.1,53.6 -101,88 -161.5,88 -100.4,0 -217.6,-61.1 -217.6,-233.5 0,-61.7 22,-120.6 62,-165.6 38.5,-43.4 90,-68.4 141.2,-68.4 49,0 78.9,10.4 100.8,18 13.8,4.8 24.7,8.6 36,8.6 20.9,0 32.6,-20.4 38,-33.5 h 1.2 v 147 h -4.6 c -16.8,-58.6 -69.2,-117 -140.1,-117 -124.5,0.1 -134.2,159.8 -134.2,208.8 z"
   id="path3"
   style="fill:#c2ac6d" />

				</g>

			</g>

			<path
   class="st1"
   d="M 472.3,11.9 H 329.1 v 18.8 h 18.7 c 25,0 45.3,23.3 45.3,48.3 V 311.3 L 149,11.9 H 0 v 18.8 c 33.3,0 59.5,30 59.5,63.4 v 325.5 c 0,33.3 -35.1,44.3 -59.5,44.3 v 18.8 H 161.8 V 463.9 C 131.5,463.7 115.5,459.6 105.1,449.8 94.8,440 92,427 92,409.2 V 104.1 l 316,385.3 h 17.3 v -410 c 0,-24.3 19,-44.9 47,-45.9 z"
   id="path4"
   style="fill:#c2ac6d" />

			<circle
   class="st1"
   cx="1455.8"
   cy="245.8"
   r="54.599998"
   id="circle4"
   style="fill:#c2ac6d" />

			<g
   id="g5">
				<path
   class="st1"
   d="m 1771.6,262.5 v 22.7 h 17.8 c 28.9,0 37,13.9 37,38.8 v 111.3 c -6.6,8 -29.1,18.2 -61,18.2 -6.5,0 -43.3,-0.7 -70.8,-23.3 -28.8,-23.6 -48.2,-71.5 -48.2,-185.3 0,-148.2 52.1,-210.9 127.7,-210.9 24.6,0 107.9,16.6 143.4,123.7 h 22.2 V 3.2 h -21 C 1916,24 1899.6,35.5 1868.6,22.6 1821.8,3.1 1779.9,0.2 1749.2,0.2 c -120.9,0 -223.8,111.9 -223.8,245.6 0,154 116.3,244.2 241.1,244.2 59.2,0 121.9,-13.7 171.6,-38.8 V 324 c 0,-29.8 20.8,-38.8 48.8,-38.8 v -22.7 z"
   id="path5"
   style="fill:#c2ac6d" />

			</g>

			<g
   id="g9">
				<path
   class="st1"
   d="m 870,337.4 c -11.7,64.5 -67.3,114.9 -129.7,113.3 h -53.8 c -16.9,0 -30.6,-13.7 -30.6,-30.6 V 255 h 14.8 c 44,0 72.1,36.9 72.1,100.3 H 762 V 242.9 237.2 126.9 h -19.3 c 0,55.8 -23.6,96.1 -72.2,96.1 H 655.7 V 40.1 h 77.4 c 104.2,0 107.8,92.9 107.8,104.9 h 20.8 V 44.1 11.9 H 486.1 v 18.7 h 26.5 c 20.3,0 36.7,19.2 36.7,39.4 v 346.6 c 0,36.5 -23.9,44.8 -44.2,44.8 h -19 v 21.4 h 63.2 317.8 l 21.4,-145.4 z"
   id="path6"
   style="fill:#c2ac6d" />

				<g
   id="g8">
					<g
   id="g7">
						<path
   class="st1"
   d="m 1146.4,7 c -135.5,0 -239.8,99.8 -239.8,243.2 0,143.4 104.4,243.2 239.8,243.2 135.5,0 239.9,-99.8 239.9,-243.2 C 1386.3,106.8 1281.9,7 1146.4,7 Z m 0,454.9 c -65.1,0 -117.8,-59.6 -117.8,-211.8 0,-152.2 52.8,-211.8 117.8,-211.8 65.1,0 117.8,59.6 117.8,211.8 0.1,152.2 -52.7,211.8 -117.8,211.8 z"
   id="path7"
   style="fill:#c2ac6d" />

					</g>

				</g>

			</g>

			<g
   id="g12">
				<path
   class="st1"
   d="m 2373.3,337.4 c -11.7,64.5 -67.3,114.9 -129.7,113.3 h -53.8 c -16.9,0 -30.6,-13.7 -30.6,-30.6 V 255 h 14.8 c 44,0 72.1,36.9 72.1,100.3 h 19.3 V 242.9 237.2 126.9 H 2246 c 0,55.8 -23.6,96.1 -72.2,96.1 H 2159 V 40.1 h 77.4 c 104.2,0 107.8,92.9 107.8,104.9 H 2365 V 44.1 11.9 h -375.6 v 18.7 h 26.5 c 20.3,0 36.7,19.2 36.7,39.4 v 346.6 c 0,36.5 -23.9,44.8 -44.2,44.8 h -19 v 21.4 h 63.2 317.8 l 21.4,-145.4 z"
   id="path9"
   style="fill:#c2ac6d" />

				<g
   id="g11">
					<g
   id="g10">
						<path
   class="st1"
   d="m 2649.6,7 c -135.5,0 -239.8,99.8 -239.8,243.2 0,143.4 104.4,243.2 239.8,243.2 135.5,0 239.9,-99.8 239.9,-243.2 C 2889.5,106.8 2785.1,7 2649.6,7 Z m 0,454.9 c -65.1,0 -117.8,-59.6 -117.8,-211.8 0,-152.2 52.8,-211.8 117.8,-211.8 65.1,0 117.8,59.6 117.8,211.8 0.2,152.2 -52.7,211.8 -117.8,211.8 z"
   id="path10"
   style="fill:#c2ac6d" />

					</g>

				</g>

			</g>

		</g>

	</g>

</g>
  </g>
</svg>
