<?xml version="1.0" encoding="UTF-8" standalone="no"?>
<!-- Created with Inkscape (http://www.inkscape.org/) -->

<svg
   width="1015.7618mm"
   height="145.65312mm"
   viewBox="0 0 1015.7618 145.65312"
   version="1.1"
   id="svg1"
   inkscape:version="1.3.2 (091e20e, 2023-11-25, custom)"
   sodipodi:docname="nes.svg"
   xmlns:inkscape="http://www.inkscape.org/namespaces/inkscape"
   xmlns:sodipodi="http://sodipodi.sourceforge.net/DTD/sodipodi-0.dtd"
   xmlns="http://www.w3.org/2000/svg"
   xmlns:svg="http://www.w3.org/2000/svg">
  <sodipodi:namedview
     id="namedview1"
     pagecolor="#ffffff"
     bordercolor="#000000"
     borderopacity="0.25"
     inkscape:showpageshadow="2"
     inkscape:pageopacity="0.0"
     inkscape:pagecheckerboard="0"
     inkscape:deskcolor="#d1d1d1"
     inkscape:document-units="mm"
     inkscape:zoom="1.6204616"
     inkscape:cx="1919.8234"
     inkscape:cy="275.53878"
     inkscape:window-width="3840"
     inkscape:window-height="2054"
     inkscape:window-x="-11"
     inkscape:window-y="-11"
     inkscape:window-maximized="1"
     inkscape:current-layer="layer1" />
  <defs
     id="defs1" />
  <g
     inkscape:label="Layer 1"
     inkscape:groupmode="layer"
     id="layer1"
     transform="translate(402.96042,-75.670833)">
    <g
       id="g20"
       transform="matrix(0.26458333,0,0,0.26458333,-402.96042,75.670833)">
	<g
   id="g12">
		<path
   class="st5"
   d="m 933.4,494.3 c 0,0 0.2,0.1 0,0 12.7,-8.2 21.3,-22.8 21.3,-39.4 0,-25.7 -20.3,-46.6 -45.5,-46.6 h -10.1 -123 v 52 90 h 47.4 v -27.7 c 0,-4.9 4,-8.8 8.8,-8.8 h 64.6 c 4.9,0 8.8,4 8.8,8.8 v 0.8 26.8 h 45.2 v -26.8 c -0.1,-6.9 -3.1,-19.6 -17.5,-29.1 z M 832.5,478.1 c -4.9,0 -8.8,-4 -8.8,-8.8 v -18.1 c 0,-4.9 4,-8.8 8.8,-8.8 H 897 c 4.9,0 8.8,4 8.8,8.8 v 18.1 c 0,4.9 -4,8.8 -8.8,8.8 z"
   id="path1"
   style="fill:#e31e26" />

		<path
   class="st5"
   d="m 1290.7,408.2 h -10.8 -25.2 -17.1 -25.2 -10.8 c -23.3,0 -42.2,18.9 -42.2,42.2 v 11.4 88.5 h 46.5 v -35 h 80.4 v 35 h 46.5 v -88.5 -11.4 c 0,-23.3 -18.8,-42.2 -42.1,-42.2 z m -84.6,69.9 v -22.5 c 0,-6.5 5.2,-11.7 11.7,-11.7 h 19.9 17.1 19.9 c 6.5,0 11.7,5.2 11.7,11.7 v 22.5 z"
   id="path2"
   style="fill:#e31e26" />

		<rect
   x="1364.5"
   y="408.20001"
   class="st5"
   width="48.099998"
   height="142.10001"
   id="rect2"
   style="fill:#e31e26" />

		<path
   class="st5"
   d="m 1593.2,408.2 h -151.1 v 142.1 h 45.8 v -95.2 c 0,-5.7 4.7,-10.4 10.4,-10.4 h 78.5 c 5.7,0 10.4,4.7 10.4,10.4 v 29 66.2 h 45 v -66.2 -11.4 -17.2 -8.2 c 0.2,-21.6 -17.3,-39.1 -39,-39.1 z"
   id="path3"
   style="fill:#e31e26" />

		<path
   class="st5"
   d="m 1869.3,408.2 h -206.7 v 142.1 h 41.9 v -88.8 -6.7 c 0,-5.5 4.5,-10.1 10.1,-10.1 h 35.8 c 5.5,0 10.1,4.5 10.1,10.1 v 17.2 0 78.3 h 47.3 v -88.8 -6.7 c 0,-5.5 4.5,-10.1 10.1,-10.1 h 35.8 c 5.5,0 10.1,4.5 10.1,10.1 v 6.7 88.8 h 2.3 45 V 449.9 c -0.2,-23.1 -18.9,-41.7 -41.8,-41.7 z"
   id="path4"
   style="fill:#e31e26" />

		<path
   class="st5"
   d="m 2275.4,408.2 h -151.1 v 142.1 h 45.8 v -95.2 c 0,-5.7 4.7,-10.4 10.4,-10.4 h 78.5 c 5.7,0 10.4,4.7 10.4,10.4 v 29 66.2 h 45 v -66.2 -11.4 -17.2 -8.2 c 0.1,-21.6 -17.4,-39.1 -39,-39.1 z"
   id="path5"
   style="fill:#e31e26" />

		<path
   class="st5"
   d="M 339.9,408.2 H 188.7 v 142.1 h 45.8 v -95.2 c 0,-5.7 4.7,-10.4 10.4,-10.4 h 78.5 c 5.7,0 10.4,4.7 10.4,10.4 v 29 66.2 h 45 v -66.2 -11.4 -17.2 -8.2 c 0.2,-21.6 -17.3,-39.1 -38.9,-39.1 z"
   id="path6"
   style="fill:#e31e26" />

		<path
   class="st5"
   d="M 159.1,444.3 V 408.2 H 41.8 v 0 H 0 v 100.3 c 0,23.1 18.7,41.8 41.8,41.8 h 117.3 v -36.1 h -106 c -6.2,0 -11.2,-5 -11.2,-11.2 v 0 c 0,-6.2 5,-11.2 11.2,-11.2 h 99.8 V 466.7 H 53.1 c -6.2,0 -11.2,-5 -11.2,-11.2 v 0 c 0,-6.2 5,-11.2 11.2,-11.2 z"
   id="path7"
   style="fill:#e31e26" />

		<path
   class="st5"
   d="M 748.8,444.3 V 408.2 H 631.5 v 0 h -41.8 v 100.3 c 0,23.1 18.7,41.8 41.8,41.8 h 117.3 v -36.1 h -106 c -6.2,0 -11.2,-5 -11.2,-11.2 v 0 c 0,-6.2 5,-11.2 11.2,-11.2 h 99.8 v -25.1 h -99.8 c -6.2,0 -11.2,-5 -11.2,-11.2 v 0 c 0,-6.2 5,-11.2 11.2,-11.2 z"
   id="path8"
   style="fill:#e31e26" />

		<path
   class="st5"
   d="m 2096.3,444.3 v -36.1 h -117.2 v 0 h -41.8 v 100.3 c 0,23.1 18.7,41.8 41.8,41.8 h 117.3 v -36.1 h -106 c -6.2,0 -11.2,-5 -11.2,-11.2 v 0 c 0,-6.2 5,-11.2 11.2,-11.2 h 99.8 v -25.1 h -99.8 c -6.2,0 -11.2,-5 -11.2,-11.2 v 0 c 0,-6.2 5,-11.2 11.2,-11.2 z"
   id="path9"
   style="fill:#e31e26" />

		<path
   class="st5"
   d="m 2506.1,408.2 h -170.8 v 35.7 h 50.3 c 5.5,0 9.9,4.4 9.9,9.9 v 96.4 h 50.5 v -96.4 c 0,-5.5 4.4,-9.9 9.9,-9.9 h 50.3 v -35.7 z"
   id="path10"
   style="fill:#e31e26" />

		<path
   class="st5"
   d="M 1140.4,408.2 H 969.6 v 35.7 h 50.3 c 5.5,0 9.9,4.4 9.9,9.9 v 96.4 h 50.5 v -96.4 c 0,-5.5 4.4,-9.9 9.9,-9.9 h 50.3 z"
   id="path11"
   style="fill:#e31e26" />

		<path
   class="st5"
   d="M 568.3,408.2 H 397.5 v 35.7 h 50.3 c 5.5,0 9.9,4.4 9.9,9.9 v 96.4 h 50.5 v -96.4 c 0,-5.5 4.4,-9.9 9.9,-9.9 h 50.3 z"
   id="path12"
   style="fill:#e31e26" />

	</g>

	<g
   id="g18">
		<path
   class="st5"
   d="m 3152,466 h -66.7 c -7.8,0 -13.2,-3.1 -13.2,-10.2 0,-6.3 4.7,-11.7 10.9,-11.7 h 114.1 v -35.9 h -124.9 c -23.3,0 -42.7,19.5 -42.7,41.3 0,31.2 20.2,43 47.3,43 h 66.7 c 7,0 14,3.1 14,10.2 0,6.3 -4.7,11.7 -10.9,11.7 h -117.2 v 35.9 h 128 c 21,0 42.7,-17.2 42.7,-41.3 0.1,-29 -23.2,-43 -48.1,-43 z"
   id="path13"
   style="fill:#e31e26" />

		<path
   class="st5"
   d="M 2770.2,466.1 H 2705 c -7.8,0 -14,-3.1 -14,-10.2 0,-6.2 6.2,-11.7 11.6,-11.7 h 114.1 v -35.9 h -124.9 c -24.8,0 -45,19.5 -45,41.3 0,31.1 21.7,42.9 48.9,42.9 h 65.2 c 7.8,0 14,3.1 14,10.2 0,6.2 -6.2,11.7 -11.6,11.7 h -115.7 v 35.9 h 128 c 23.3,0 44.2,-17.2 44.2,-41.3 0.1,-28.9 -22.4,-42.9 -49.6,-42.9 z"
   id="path14"
   style="fill:#e31e26" />

		<path
   class="st5"
   d="m 3797.3,408.3 h -206.7 v 142.1 h 41.9 v -88.8 -6.7 c 0,-5.5 4.5,-10.1 10.1,-10.1 h 35.8 c 5.5,0 10.1,4.5 10.1,10.1 v 17.3 0 78.3 h 47.3 V 461.7 455 c 0,-5.5 4.5,-10.1 10.1,-10.1 h 35.8 c 5.5,0 10.1,4.5 10.1,10.1 v 6.7 88.8 h 2.3 45 V 449.9 c -0.2,-23 -18.8,-41.6 -41.8,-41.6 z"
   id="path15"
   style="fill:#e31e26" />

		<path
   class="st5"
   d="m 3008.5,408.3 h -42.7 -0.3 v 53 c 0,5.9 -4.8,10.7 -10.7,10.7 H 2891 c -5.9,0 -10.7,-4.8 -10.7,-10.7 v -53 h -1 -44 v 52 7.4 c 0,22.5 18.2,40.7 40.7,40.7 h 21.4 v 41.9 h 49.7 v -41.9 h 21.8 c 22.5,0 40.7,-18.2 40.7,-40.7 v -59.5 h -1.1 z"
   id="path16"
   style="fill:#e31e26" />

		<path
   class="st5"
   d="m 3562.4,444.3 v -36.1 h -117.2 v 0 h -41.8 v 100.3 c 0,23.1 18.7,41.8 41.8,41.8 h 117.3 v -36.1 h -106 c -6.2,0 -11.2,-5 -11.2,-11.2 v 0 c 0,-6.2 5,-11.2 11.2,-11.2 h 99.8 v -25.1 h -99.8 c -6.2,0 -11.2,-5 -11.2,-11.2 v 0 c 0,-6.2 5,-11.2 11.2,-11.2 z"
   id="path17"
   style="fill:#e31e26" />

		<path
   class="st5"
   d="m 3385.3,408.2 h -170.8 v 35.7 h 50.3 c 5.5,0 9.9,4.4 9.9,9.9 v 96.4 h 50.5 v -96.4 c 0,-5.5 4.4,-9.9 9.9,-9.9 h 50.3 v -35.7 z"
   id="path18"
   style="fill:#e31e26" />

	</g>

	<g
   id="g19">
		<path
   class="st5"
   d="M 217.9,205.3 91.7,0.8 H 0 V 293.6 H 90.7 V 89 l 127,204.6 h 90.7 V 0.8 H 217.8 V 205.3 Z M 935.5,98.9 v -29 H 887.6 V 30.4 H 799.3 V 70 h -47.9 v 28.9 h 47.9 v 194.7 h 88.3 V 98.9 Z M 358.9,293.6 h 88.3 V 98.9 h -88.3 z m 0,-233.4 h 88.3 V 0 h -88.3 z m 1542.6,25.5 c -70.9,0 -128.6,48.7 -128.6,109.7 0,60.2 57.7,109.7 128.6,109.7 70.9,0 128.6,-48.7 128.6,-109.7 0,-61 -56,-109.7 -128.6,-109.7 z m 35.5,150.1 c 0,31.4 -18.2,43.7 -36.3,43.7 -17.3,0 -36.3,-13.2 -36.3,-43.7 0,-11.6 0,-42.1 0,-42.1 0,0 0,-28.9 0,-40.4 0,-30.5 18.2,-43.7 36.3,-43.7 17.3,0 36.3,12.4 36.3,43.7 0,11.6 0,33.8 0,41.3 0,0.9 0,29.7 0,41.2 z m -278.9,-127 c -14,-8.3 -28.9,-15.6 -49.5,-17.3 -63.5,-5.8 -112.2,50.3 -112.2,102.3 0,67.7 52,93.3 60.2,96.5 29.7,14 67.7,14 101.4,-7.4 0,1.7 0,11.6 0,11.6 h 86.7 V 1.6 H 1658 c 0.1,-0.8 0.1,61.9 0.1,107.2 z m 0,86.7 c 0,0 0,22.3 0,34.6 0,29.7 -20.6,38 -34.6,38 -14,0 -34.6,-8.3 -34.6,-38 0,-10.8 0,-34.6 0,-34.6 0,0 0,-24.8 0,-34.6 0,-30.5 20.6,-38 34.6,-38 14,0 34.6,7.4 34.6,38 0,9.8 0,34.6 0,34.6 z M 653.3,89.9 c -28.9,0.8 -53.6,13.2 -70.1,29.7 0,-5 0,-20.6 0,-20.6 h -87.4 v 194.7 h 87.4 c 0,0 0,-119.6 0,-127.9 0,-17.3 18.2,-35.5 42.1,-35.5 23.9,0 40.4,18.9 40.4,35.5 0,12.4 0,127.9 0,127.9 h 87.4 c 0,0 0,-92.4 0,-105.6 0.1,-77.6 -66.7,-99.1 -99.8,-98.2 z m 716.1,0 c -28.9,0.8 -53.6,13.2 -70.1,29.7 0,-5 0,-20.6 0,-20.6 h -87.4 v 194.7 h 87.4 c 0,0 0,-119.6 0,-127.9 0,-17.3 18.2,-35.5 42.1,-35.5 23.9,0 40.4,18.9 40.4,35.5 0,12.4 0,127.9 0,127.9 h 87.4 c 0,0 0,-92.4 0,-105.6 -0.8,-77.6 -67.7,-99.1 -99.8,-98.2 z m -185.6,107.2 c 0,-60.2 -58.6,-110.5 -130.4,-110.5 -71.7,0 -129.5,48.7 -129.5,109.7 0,60.2 57.7,109.7 129.5,109.7 59.4,0 109.7,-33.8 125.4,-80.1 h -87.4 c 0,0 0,0.8 0,11.6 0,35.5 -23.1,43.7 -36.3,43.7 -13.2,0 -37.1,-8.3 -37.1,-43.7 0,-10.8 0,-40.4 0,-40.4 z m -159.2,-68.5 c 6.6,-12.4 19.8,-17.3 31.4,-18.2 11.6,0 23.9,5.8 31.4,18.2 5.8,9.9 5.8,21.4 5.8,38 h -73.5 c -1.7,-17.3 -1.7,-28 4.9,-38 z"
   id="path19"
   style="fill:#e31e26" />

	</g>

</g>
  </g>
</svg>
