<?xml version="1.0" encoding="UTF-8" standalone="no"?>
<!-- Created with Inkscape (http://www.inkscape.org/) -->

<svg
   width="1016mm"
   height="379.65063mm"
   viewBox="0 0 1016 379.65063"
   version="1.1"
   id="svg1"
   inkscape:version="1.3.2 (091e20e, 2023-11-25, custom)"
   sodipodi:docname="ngpc.svg"
   xmlns:inkscape="http://www.inkscape.org/namespaces/inkscape"
   xmlns:sodipodi="http://sodipodi.sourceforge.net/DTD/sodipodi-0.dtd"
   xmlns="http://www.w3.org/2000/svg"
   xmlns:svg="http://www.w3.org/2000/svg">
  <sodipodi:namedview
     id="namedview1"
     pagecolor="#ffffff"
     bordercolor="#000000"
     borderopacity="0.25"
     inkscape:showpageshadow="2"
     inkscape:pageopacity="0.0"
     inkscape:pagecheckerboard="0"
     inkscape:deskcolor="#d1d1d1"
     inkscape:document-units="mm"
     inkscape:zoom="0.28645984"
     inkscape:cx="1260.2116"
     inkscape:cy="-200.72622"
     inkscape:window-width="3840"
     inkscape:window-height="2054"
     inkscape:window-x="-11"
     inkscape:window-y="-11"
     inkscape:window-maximized="1"
     inkscape:current-layer="layer1" />
  <defs
     id="defs1" />
  <g
     inkscape:label="Layer 1"
     inkscape:groupmode="layer"
     id="layer1"
     transform="translate(402.96042,41.275)">
    <g
       id="g14"
       transform="matrix(0.26458333,0,0,0.26458333,-402.96042,-41.275)">
	<g
   id="g12">
		<polygon
   points="342.8,813 484.6,813 484.6,776.9 484.6,776.9 342.8,776.9 306.6,776.9 306.6,813 306.6,913.8 306.6,949.9 306.6,1059.6 306.6,1095.8 307.3,1095.8 342.8,1095.8 484.6,1095.8 484.6,1059.6 342.8,1059.6 342.8,949.9 475.3,949.9 475.3,949.6 475.3,913.8 342.8,913.8 "
   id="polygon1" />

		<polygon
   points="1279.1,813 1421,813 1421,776.9 1421,776.9 1279.1,776.9 1243,776.9 1243,813 1243,913.8 1243,949.9 1243,1059.6 1243,1095.8 1243.7,1095.8 1279.1,1095.8 1421,1095.8 1421,1059.6 1279.1,1059.6 1279.1,949.9 1411.7,949.9 1411.7,949.6 1411.7,913.8 1279.1,913.8 "
   id="polygon2" />

		<polygon
   points="3386.8,813 3528.7,813 3528.7,776.9 3528.7,776.9 3386.8,776.9 3350.7,776.9 3350.7,813 3350.7,913.8 3350.7,949.9 3350.7,1059.6 3350.7,1095.8 3351.4,1095.8 3386.8,1095.8 3528.7,1095.8 3528.7,1059.6 3386.8,1059.6 3386.8,949.9 3519.4,949.9 3519.4,949.6 3519.4,913.8 3386.8,913.8 "
   id="polygon3" />

		<polyline
   points="42.4,776.9 0,776.9 0,1095.8 36.1,1095.8 36.1,831.2 220.2,1095.8 255.4,1095.8 255.4,776.9 219.3,776.9     219.3,1031.2 42.4,776.9   "
   id="polyline3" />

		<polygon
   points="3728,813 3840,813 3840,776.9 3728,776.9 3691.8,776.9 3579.8,776.9 3579.8,813 3691.8,813 3691.8,1095.8 3728,1095.8 "
   id="polygon4" />

		<polygon
   points="3055.6,1095.8 3091.7,1095.8 3091.7,1004.7 3134.5,961.9 3268.4,1095.8 3319.5,1095.8 3160.1,936.3 3319.5,776.9 3268.4,776.9 3091.7,953.6 3091.7,776.9 3055.6,776.9 "
   id="polygon5" />

		<path
   d="m 675.2,767.8 c -93.1,0 -168.5,75.5 -168.5,168.5 0,93 75.5,168.5 168.5,168.5 93,0 168.5,-75.5 168.5,-168.5 0,-93 -75.5,-168.5 -168.5,-168.5 z m 0,301.5 c -73.5,0 -133,-59.6 -133,-133 0,-73.4 59.6,-133 133,-133 73.5,0 133,59.6 133,133 0,73.4 -59.6,133 -133,133 z"
   id="path5" />

		<path
   d="m 1620.7,767.8 c -93.1,0 -168.5,75.5 -168.5,168.5 0,93 75.5,168.5 168.5,168.5 93.1,0 168.5,-75.5 168.5,-168.5 0,-93 -75.4,-168.5 -168.5,-168.5 z m 0,301.5 c -73.5,0 -133,-59.6 -133,-133 0,-73.4 59.6,-133 133,-133 73.5,0 133,59.6 133,133 0,73.4 -59.5,133 -133,133 z"
   id="path6" />

		<path
   d="m 2504.6,767.8 c -93.1,0 -168.5,75.5 -168.5,168.5 0,93 75.5,168.5 168.5,168.5 93.1,0 168.5,-75.5 168.5,-168.5 0,-93 -75.5,-168.5 -168.5,-168.5 z m 0,301.5 c -73.5,0 -133,-59.6 -133,-133 0,-73.4 59.6,-133 133,-133 73.5,0 133,59.6 133,133 0,73.4 -59.6,133 -133,133 z"
   id="path7" />

		<path
   d="M 1176.1,942.2 H 991.4 v 36.1 h 178.2 c -17.6,52.8 -67.4,91 -126.1,91 -73.5,0 -133,-59.6 -133,-133 0,-73.4 59.6,-133 133,-133 45.7,0 86,23.1 110,58.2 h 41 c -27.6,-55.5 -84.8,-93.7 -151,-93.7 -93.1,0 -168.5,75.5 -168.5,168.5 0,93 75.5,168.5 168.5,168.5 91.1,0 165.2,-72.3 168.4,-162.6 z"
   id="path8" />

		<path
   d="m 2983.5,1010.1 c -23.9,35.7 -64.5,59.2 -110.7,59.2 -73.5,0 -133,-59.6 -133,-133 0,-73.4 59.6,-133 133,-133 46.2,0 86.8,23.5 110.7,59.2 h 40.9 c -27.4,-56.1 -84.9,-94.7 -151.5,-94.7 -93.1,0 -168.5,75.5 -168.5,168.5 0,93 75.5,168.5 168.5,168.5 66.6,0 124.2,-38.6 151.5,-94.7 z"
   id="path9" />

		<g
   id="g11">
			<polygon
   class="st0"
   points="2344.9,317.9 2289.5,283.3 2401.6,66.2 2491,122.1 "
   id="polygon9"
   style="fill:#11a73b" />

			<polygon
   class="st1"
   points="2431.2,415.5 2391.9,363.4 2574.1,200.6 2637.6,284.7 "
   id="polygon10"
   style="fill:#00a0e9" />

			<polygon
   class="st2"
   points="2224,256.1 2160.3,242.1 2193,0 2295.9,22.6 "
   id="polygon11"
   style="fill:#e60019" />

			<path
   class="st2"
   d="m 1989.7,384.9 -188.5,94.3 -71.6,35.9 -14.2,7.1 344.7,688.8 85.8,-43 -301.8,-603 188.5,-94.3 c 80.8,-40.4 179.3,-7.5 219.7,73.4 40.4,80.8 7.7,179.1 -73.1,219.6 0,0 -13.4,6.2 -20.2,8.5 l -110.7,-95.5 21.4,-67.7 120,-1.3 -1,-96 -189.5,2.1 -61.5,194.4 4.3,3.7 208.2,179.9 c 19.8,-9.9 81.3,-46.6 81.3,-46.6 121.7,-66.9 169.7,-218.7 107,-344 -64.3,-128.5 -220.4,-180.5 -348.8,-116.3 z"
   id="path11"
   style="fill:#e60019" />

		</g>

	</g>

	<g
   id="g13">
		<path
   id="path29_3_"
   d="m 1525.8,1372.8 c -10.7,36.3 -44.8,62.1 -85.8,62.1 -53.6,0 -91.9,-42.4 -91.9,-91.2 0,-46.7 36.3,-90.8 91.7,-90.8 50.5,0.3 79.1,37.4 86,63 h -37.2 c -5.4,-12.1 -21.1,-31.7 -49,-32 -34.1,0 -56.2,28.7 -56.2,59.7 0,32 23,60.2 56.4,60.2 31.3,0 45.5,-24.7 48.8,-31.1 z" />

		<path
   id="path31_4_"
   d="m 1620.3,1345.3 c 0,-56.2 43.1,-92.4 91.9,-92.4 53.1,0 92.2,41.2 92.2,91 0,49.8 -38.9,91 -92.4,91 -53.8,0 -91.7,-42.4 -91.7,-89.3 z m 35.3,-1.4 c 0,32 23,59.9 57.1,59.9 35.6,0 56.4,-30.8 56.4,-59.7 0,-29.4 -20.8,-60.2 -56.6,-60.2 -35.1,0 -56.9,28.9 -56.9,59.7 z" />

		<path
   id="path33_3_"
   d="m 1908.7,1256.2 h 35.3 v 144.3 h 57.6 v 31 h -92.9 z" />

		<path
   id="path35_4_"
   d="m 2088.4,1345.3 c 0,-56.2 43.1,-92.4 91.9,-92.4 53.1,0 92.2,41.2 92.2,91 0,49.8 -38.9,91 -92.4,91 -53.8,0 -91.7,-42.4 -91.7,-89.3 z m 35.3,-1.4 c 0,32 23,59.9 57.1,59.9 35.6,0 56.4,-30.8 56.4,-59.7 0,-29.4 -20.9,-60.2 -56.6,-60.2 -35.1,0 -56.9,28.9 -56.9,59.7 z" />

		<path
   id="path39_3_"
   d="m 2416.6,1256.2 c 19.7,0.5 37.1,1.5 52.8,14.7 4,3.3 7.8,7.6 10.6,11.9 8.1,12.4 8.8,26.3 8.8,31.1 0,4.3 -0.5,16.2 -7.1,27.1 -1.8,2.8 -4,6.6 -9.4,11.4 -5.8,5.1 -11.9,7.8 -14.2,8.8 -4.3,1.8 -8.6,3 -17.9,5.1 l 51.6,68.5 h -39.7 l -49.6,-67.5 v 67.5 h -35.6 v -178.5 z m -13.9,84.7 h 17.7 c 2,0 3.8,0 5.8,-0.3 3.8,0 16.4,-0.5 24.8,-10.6 2,-2.5 5.6,-7.8 5.6,-16.4 0,-2.8 -0.2,-9.6 -4.8,-15.9 -7.8,-10.6 -20,-11.6 -32.1,-11.9 h -16.9 z" />

	</g>

</g>
  </g>
</svg>
