<?xml version="1.0" encoding="UTF-8" standalone="no"?>
<!-- Created with Inkscape (http://www.inkscape.org/) -->

<svg
   width="1015.7555mm"
   height="165.2852mm"
   viewBox="0 0 1015.7555 165.2852"
   version="1.1"
   id="svg1"
   inkscape:version="1.3.2 (091e20e, 2023-11-25, custom)"
   sodipodi:docname="oddisey2.svg"
   xmlns:inkscape="http://www.inkscape.org/namespaces/inkscape"
   xmlns:sodipodi="http://sodipodi.sourceforge.net/DTD/sodipodi-0.dtd"
   xmlns="http://www.w3.org/2000/svg"
   xmlns:svg="http://www.w3.org/2000/svg">
  <sodipodi:namedview
     id="namedview1"
     pagecolor="#ffffff"
     bordercolor="#000000"
     borderopacity="0.25"
     inkscape:showpageshadow="2"
     inkscape:pageopacity="0.0"
     inkscape:pagecheckerboard="0"
     inkscape:deskcolor="#d1d1d1"
     inkscape:document-units="mm"
     inkscape:zoom="0.40511539"
     inkscape:cx="784.96154"
     inkscape:cy="593.65802"
     inkscape:window-width="3840"
     inkscape:window-height="2054"
     inkscape:window-x="-11"
     inkscape:window-y="-11"
     inkscape:window-maximized="1"
     inkscape:current-layer="layer1" />
  <defs
     id="defs1">
    <linearGradient
       id="SVGID_2_"
       gradientUnits="userSpaceOnUse"
       x1="-2062.856"
       y1="748.45502"
       x2="-2062.856"
       y2="123.9047"
       gradientTransform="translate(3982.356,-123.9049)">
				<stop
   offset="0"
   style="stop-color:#FEEE00"
   id="stop1" />

				<stop
   offset="0.5005"
   style="stop-color:#F36600"
   id="stop2" />

			</linearGradient>
  </defs>
  <g
     inkscape:label="Layer 1"
     inkscape:groupmode="layer"
     id="layer1"
     transform="translate(402.96041,-65.88125)">
    <g
       id="g4"
       transform="matrix(0.26458333,0,0,0.26458333,-402.95024,65.88125)">
	<g
   id="g3">
		<g
   id="g2">
			
				<linearGradient
   id="linearGradient4"
   gradientUnits="userSpaceOnUse"
   x1="-2062.856"
   y1="748.45502"
   x2="-2062.856"
   y2="123.9047"
   gradientTransform="translate(3982.356,-123.9049)">
				<stop
   offset="0"
   style="stop-color:#FEEE00"
   id="stop3" />

				<stop
   offset="0.5005"
   style="stop-color:#F36600"
   id="stop4" />

			</linearGradient>

			<path
   style="fill:url(#SVGID_2_)"
   d="M 3769.5,0 H 3664 l -46,52.2 h 151.6 c 23.1,0 23.1,34.6 0,34.6 h -136.2 l -46,52.2 -39.1,44.3 -54.9,62.2 h 219.2 l 54.9,-62.2 h -148.2 l 39.1,-44.3 h 111.2 c 92.6,0.1 92.6,-139 -0.1,-139 z M 1404.4,93.8 h -178.5 l 57.3,176.1 c 6.3,19.3 -8.1,39.2 -28.4,39.2 h -4.7 c -12.5,0 -23.7,-7.8 -28,-19.5 L 1149.7,93.9 H 961 l 138.1,301 c 14.9,32.5 47.4,53.3 83.1,53.3 h 35.3 l 69.8,176.4 h 153.6 l -51.8,-176.4 h 40.2 c 30,0 52.1,-28 45.2,-57.2 z m 1941.7,0 -165.9,214.8 c -5.7,7.3 -14.4,11.6 -23.7,11.6 -24.5,0 -38.6,-27.8 -24.1,-47.6 L 3263.3,93.7 H 3040 L 2855.6,396 c -16.9,27.7 3,63.3 35.5,63.3 h 49.4 l -114.2,165.2 h 180.5 l 136.6,-165.2 h 65.7 c 11.9,0 23.3,-5.1 31.2,-14.1 L 3550,93.8 Z m -754.9,354.3 h 187.9 L 2859.3,309 h -158.1 c -21.8,0 -36.2,-22.5 -27.2,-42.3 l 5.1,-11.1 h 214.2 l 90.2,-161.8 h -484.6 l -171.6,530.7 h 350.1 l 70.9,-123 h -134.9 c -21.8,0 -36.2,-22.5 -27.2,-42.3 z m -284.7,-139 h -124.6 c -18.4,0 -32.4,-16.4 -29.5,-34.6 l 3,-18.8 h 233 l 47,-161.8 h -357.6 c -45.7,0 -83.6,35.4 -86.6,81 l -14.3,212.7 c -2.2,32.8 23.8,60.6 56.7,60.6 h 133 l -5.4,29 c -2.6,14.2 -15,24.5 -29.4,24.5 H 1969 l -8.3,123 H 2250 c 18.5,0 34.8,-12.2 39.9,-30 l 64.4,-221.8 c 9.3,-32 -14.6,-63.8 -47.8,-63.8 z m -829.1,-110.7 41.3,196.1 c 6.6,31.3 34.2,53.7 66.1,53.7 h 191.7 l 1.2,21.8 c 1,17.2 -12.7,31.6 -29.8,31.6 h -206.7 l 25.9,123 h 304.1 c 22.5,0 40.9,-17.9 41.6,-40.4 l 5.5,-196 c 1.2,-43.3 -33.6,-79.1 -76.9,-79.1 h -154.9 c -15.2,0 -27.9,-11.3 -29.7,-26.4 l -3.2,-27.1 H 1922 l 4.6,-161.8 h -364.4 c -55,0 -96.2,50.7 -84.8,104.6 z M 935.3,152.5 C 917.9,116.6 881.6,93.8 841.7,93.8 H 485.4 l 111.8,161.8 h 229.5 c 10.8,0 20.8,5.9 26.1,15.3 l 104.1,186.2 c 11.1,19.9 -3.3,44.5 -26.1,44.5 H 904.2 L 786.9,309.1 H 634.1 L 852,624.6 h 245.4 c 30.7,0 50.8,-32.1 37.4,-59.7 z M 463.8,146.9 C 439.7,113.6 401.1,93.8 360,93.8 H 29.6 c -26,0 -39.3,31 -21.5,49.9 L 431.4,592 c 19.6,20.8 46.9,32.5 75.4,32.5 h 220.5 c 33.9,0 53.6,-38.4 33.7,-65.9 z M 525,501.6 c -18.9,0 -36.9,-8.3 -49.2,-22.6 L 326.6,305 C 310,285.6 323.7,255.6 349.3,255.6 H 360 c 19.7,0 38.4,9 50.7,24.4 l 137.7,173 c 15.6,19.6 1.7,48.6 -23.4,48.6 z"
   id="path2" />

		</g>

	</g>

</g>
  </g>
</svg>
