<?xml version="1.0" encoding="UTF-8" standalone="no"?>
<!-- Created with Inkscape (http://www.inkscape.org/) -->

<svg
   version="1.1"
   id="svg1"
   width="3839"
   height="1676.816"
   viewBox="0 0 3839 1676.816"
   sodipodi:docname="onscripter.svg"
   inkscape:version="1.3.2 (091e20e, 2023-11-25, custom)"
   xmlns:inkscape="http://www.inkscape.org/namespaces/inkscape"
   xmlns:sodipodi="http://sodipodi.sourceforge.net/DTD/sodipodi-0.dtd"
   xmlns:xlink="http://www.w3.org/1999/xlink"
   xmlns="http://www.w3.org/2000/svg"
   xmlns:svg="http://www.w3.org/2000/svg">
  <defs
     id="defs1">
    <linearGradient
       id="linearGradient6"
       inkscape:collect="always">
      <stop
         style="stop-color:#c22b24;stop-opacity:1;"
         offset="0"
         id="stop7" />
      <stop
         style="stop-color:#f0ec1b;stop-opacity:1;"
         offset="0.19565217"
         id="stop9" />
      <stop
         style="stop-color:#009743;stop-opacity:1;"
         offset="0.40217391"
         id="stop10" />
      <stop
         style="stop-color:#0ba6e9;stop-opacity:1;"
         offset="0.60369563"
         id="stop11" />
      <stop
         style="stop-color:#0c64ab;stop-opacity:1;"
         offset="0.80184782"
         id="stop12" />
      <stop
         style="stop-color:#cc0981;stop-opacity:1;"
         offset="1"
         id="stop8" />
    </linearGradient>
    <linearGradient
       inkscape:collect="always"
       xlink:href="#linearGradient6"
       id="linearGradient8"
       x1="42.554943"
       y1="515.20819"
       x2="476.82358"
       y2="515.20819"
       gradientUnits="userSpaceOnUse"
       gradientTransform="matrix(8.5287845,0,0,8.5287845,-299.52925,-3562.8655)" />
  </defs>
  <sodipodi:namedview
     id="namedview1"
     pagecolor="#ffffff"
     bordercolor="#000000"
     borderopacity="0.25"
     inkscape:showpageshadow="2"
     inkscape:pageopacity="0.0"
     inkscape:pagecheckerboard="0"
     inkscape:deskcolor="#d1d1d1"
     showgrid="false"
     inkscape:zoom="0.62138539"
     inkscape:cx="1671.2656"
     inkscape:cy="974.43553"
     inkscape:window-width="3840"
     inkscape:window-height="2054"
     inkscape:window-x="-11"
     inkscape:window-y="-11"
     inkscape:window-maximized="1"
     inkscape:current-layer="svg1" />
  <g
     inkscape:label="g7"
     id="g1"
     transform="matrix(8.5287845,0,0,8.5287845,-299.52924,-3562.8656)"
     style="display:inline">
    <path
       style="display:inline;fill:#000000;fill-opacity:1;fill-rule:evenodd;stroke:#000000;stroke-width:2.33285;stroke-linejoin:round;stroke-dasharray:none"
       d="m 299.62432,509.9368 c -1.0625,-0.3125 -25.87577,-4.97148 -25.87577,-4.97148 l 4.00077,-23.84102 25.75,4.1875 z"
       id="path1"
       sodipodi:nodetypes="ccccc" />
    <path
       style="display:inline;fill:#9c9c9c;fill-opacity:1;fill-rule:evenodd;stroke:#9c9c9c;stroke-width:2.33285;stroke-linejoin:round;stroke-dasharray:none;stroke-opacity:1"
       d="m 296.125,506.4375 c -1.0625,-0.3125 -25.87577,-4.97148 -25.87577,-4.97148 L 274.25,477.625 300,481.8125 Z"
       id="path15"
       sodipodi:nodetypes="ccccc" />
    <path
       style="display:inline;fill:#155291;fill-opacity:1;fill-rule:evenodd;stroke:#000000;stroke-width:0;stroke-dasharray:none"
       d="m 279.96875,480.7175 9.21875,1.54229 -4.84375,9.33784 -9.29835,-1.71284 z"
       id="path16"
       sodipodi:nodetypes="ccccc" />
    <path
       style="display:inline;fill:#155291;fill-opacity:1;fill-rule:evenodd;stroke:#000000;stroke-width:0;stroke-dasharray:none"
       d="m 286.53125,492.43748 9.21875,1.54229 -4.84375,9.33784 -9.29835,-1.71284 z"
       id="path17"
       sodipodi:nodetypes="ccccc" />
  </g>
  <path
     id="path2"
     style="display:inline;fill:#000000;fill-opacity:1;fill-rule:evenodd;stroke:#000000;stroke-width:19.8778;stroke-linejoin:round;stroke-dasharray:none"
     inkscape:label="path8"
     d="m 819.09773,29.841477 c -44.84601,-0.550959 -51.25567,31.379261 -48.45797,57.820341 0,0 63.39604,672.503122 57.83586,676.738342 C 820.29134,770.63427 316.9699,431.28249 192.36451,343.97487 72.131327,259.73078 73.392336,378.31829 81.39044,404.94188 L 318.73221,1247.225 c -88.89942,22.7321 -348.309266,193.3403 -276.485903,255.8473 l 117.618763,105.3445 c 53.50367,49.7769 85.82262,9.038 98.34855,-29.8516 3.75551,14.7129 11.95967,20.446 18.32291,24.1716 68.60277,40.1658 107.7913,49.6755 140.94217,59.451 74.04769,21.8351 49.83639,-93.7626 83.75468,-111.8572 l -0.033,-0.051 227.49605,-122.5183 c 20.51016,-14.4725 44.58346,-21.8332 27.88522,-67.8641 L 570.21363,911.85504 c 0,0 314.9754,213.29126 319.39595,215.50146 4.42056,2.2104 -129.29697,111.6243 -129.29697,111.6243 -34.0298,33.5442 3.48991,65.9879 20.43881,77.9078 303.97288,213.7815 579.00288,53.0537 612.45778,-119.2862 32.9475,50.1532 172.7574,134.5455 319.4948,15.5411 l 2.217,62.3006 c 2.4668,69.5351 73.9786,74.8611 98.5795,72.9442 l 85.1057,-6.6292 c 33.2597,-3.388 42.9189,-24.162 47.3069,-49.2072 l 126.1988,69.0967 c 26.5047,6.1281 39.8826,-8.3701 45.3094,-35.3646 25.0534,-71.7661 37.6363,-143.1174 48.625,-214.3854 37.8872,105.2739 58.6962,213.3841 85.655,320.4793 6.2792,26.556 32.4625,38.6118 66.8469,18.2394 l 117.1548,-77.3585 c 20.7977,-13.8475 22.8065,-28.3751 19.8894,-40.3457 -10.0006,-26.3485 -17.684,-49.4948 -33.2662,-79.0415 26.2051,-16.474 48.4241,-36.07 66.414,-53.5709 123.4003,121.4756 146.1785,126.6358 194.5134,161.3479 33.1687,18.6071 56.4797,9.6082 74.0447,-15.4752 l 79.5734,-124.8671 c 13.445,-17.2819 50.2032,25.3253 54.2873,13.1923 l 39.2626,-118.436 104.8437,31.9656 -46.608,136.328 c -1.2788,5.83 -19.4642,46.2267 50.0071,65.6647 l 151.8517,26.0022 c 25.6721,1.2997 57.0757,5.0503 66.2975,-35.3626 2.4681,-10.8169 44.3303,-227.5135 48.0755,-242.0395 15.6091,-60.5407 127.2365,-102.35785 266.8907,-102.77836 43.5464,-7.99286 41.357,-27.4218 45.3249,-45.30936 l -2.2149,-132.61252 c -5.6212,-33.89173 -34.3798,-34.53114 -62.9996,-35.3627 -70.3604,3.79489 -140.711,18.68719 -211.0715,47.52427 0.8688,-12.00169 -3.9549,-19.45552 -10.861,-25.23744 l -129.7803,-37.51353 c -28.1706,-1.80861 -48.3391,7.67458 -58.8007,30.86689 l -18.5578,68.58037 C 3085.407,757.67889 2947.7325,716.73075 2822.7786,754.10602 l -24.0203,-75.52597 c -8.6658,-24.77394 -38.7604,-43.30103 -78.5251,-29.16834 l -60.1847,22.63818 -0.5823,-24.70361 c -2.7909,-29.39016 -21.4865,-23.59841 -37.5137,-26.0042 l -127.6819,-2.34691 c -20.6538,2.49263 -36.5942,8.85086 -39.2295,40.06038 l -1.9315,67.41566 -74.6097,27.61734 c -12.7446,7.01662 -24.4501,17.4405 -20.8057,47.04284 l 7.8444,40.12832 c -44.7713,-1.8528 -100.6811,7.43695 -158.9817,24.33673 l 5.08,-35.947 c -1.4084,-9.84297 -6.19,-13.79014 -11.7267,-16.4089 l -128.93,-31.64919 c 0.01,-33.57232 -18.7495,-48.2663 -45.7092,-47.6582 l -84.8709,1.63254 c 0.8637,-26.10162 -10.1082,-39.29318 -27.6367,-39.79638 l -158.015,11.3288 c -36.5435,1.59753 -55.2874,25.23274 -52.2725,59.10152 l 3.5485,200.9095 -92.2007,2.21489 c -14.4542,0.52367 -37.1001,15.81986 -35.415,32.08208 3.5958,34.7047 -1.813,50.5485 -25.686,44.1117 -23.8729,-6.4368 -32.2979,-62.09983 17.7736,-62.00174 23.8467,0.0428 36.2399,-19.72197 36.1973,-27.91821 1.0404,-92.86718 0.6724,-107.78368 2.0499,-165.32743 0.3361,-39.44831 -31.082,-45.79531 -88.7707,-36.89817 -57.6888,8.89714 -146.3393,76.9464 -175.5555,142.90666 0,0 -68.7561,-79.04355 -83.2052,-97.2809 -21.0161,-26.52593 -14.3374,-40.9312 17.4065,-17.82402 0,0 4.4478,1.82403 32.0491,19.9574 27.0246,17.7546 46.5243,13.66583 59.6684,0 l 145.8903,-139.02623 c 10.0391,-13.66838 42.5584,-34.87799 -19.8895,-81.79017 -174.2465,-130.89829 -383.6785,-2.7992 -383.6785,-2.7992 0,0 18.617,-428.7455 20.9882,-481.842669 2.3542,-52.714916 -40.4172,-58.937553 -67.6136,-59.584888 0,0 -200.88396,-5.680444 -246.93527,-6.246756 z M 1965.7793,956.08121 c -7.1254,38.28881 -5.003,32.95629 -27.1263,104.61869 0,0 -1.5996,-24.7833 -3.8571,-61.79601 -1.6839,-27.60937 1.5946,-42.06666 30.9834,-42.82268 z m -864.8147,14.27553 c 55.0728,46.90306 69.9656,96.13966 68.2291,136.45996 -1.7985,41.7587 -29.8284,50.6013 -77.8244,45.8432 z m 2317.6629,256.39656 c -6.7668,0.034 -13.5035,0.2141 -20.2215,0.5338 -18.7814,0.8946 -39.3791,8.0642 -39.447,36.2459 l -1.0656,41.5784 c -27.4012,3.8036 -48.3265,7.6734 -55.454,45.3928 -3.0531,16.1566 -8.4326,47.378 10.795,75.1591 93.3824,123.929 56.2751,164.9486 66.247,193.4145 0.8059,33.6428 35.3746,55.5418 71.63,45.3929 l 113.8723,-54.1884 c 30.1497,-14.1269 25.8986,-28.0832 26.3846,-34.9143 28.9588,56.1194 58.2355,65.0394 96.749,39.711 0,0 112.1772,-95.048 117.2714,-98.8804 30.3335,-22.821 32.8909,-67.1627 2.1314,-102.8775 -178.3518,-152.4053 -287.3917,-187.0503 -388.8926,-186.5678 z" />
  <path
     id="path20"
     style="display:inline;fill:#d8e7e9;fill-opacity:1;fill-rule:evenodd;stroke:#000000;stroke-width:19.8778;stroke-linejoin:round;stroke-dasharray:none"
     inkscape:label="path8"
     d="m 799.20138,9.9451308 c -44.846,-0.5509582 -51.25567,31.3792612 -48.45796,57.8203432 0,0 63.39603,672.503126 57.83586,676.738336 C 800.395,750.73792 297.07356,411.38614 172.46816,324.07852 52.234981,239.83444 53.49599,358.42194 61.494096,385.04553 L 298.83587,1227.3287 c -88.89943,22.7321 -348.309273,193.3402 -276.48591,255.8472 l 117.61877,105.3446 c 53.50367,49.7769 85.82262,9.0379 98.34854,-29.8517 3.75551,14.713 11.95967,20.4461 18.32291,24.1717 68.60277,40.1657 107.7913,49.6755 140.94218,59.451 74.04768,21.835 49.83638,-93.7627 83.75467,-111.8573 l -0.033,-0.051 227.49606,-122.5183 c 20.51016,-14.4726 44.58345,-21.8332 27.88521,-67.8641 L 550.31728,891.9587 c 0,0 314.97541,213.2913 319.39596,215.5015 4.42055,2.2104 -129.29697,111.6242 -129.29697,111.6242 -34.02981,33.5443 3.48991,65.988 20.43881,77.9079 303.97292,213.7814 579.00282,53.0537 612.45782,-119.2863 32.9474,50.1532 172.7573,134.5456 319.4948,15.5411 l 2.2169,62.3007 c 2.4669,69.535 73.9786,74.8611 98.5796,72.9442 l 85.1057,-6.6292 c 33.2596,-3.3881 42.9189,-24.162 47.3068,-49.2072 l 126.1989,69.0967 c 26.5047,6.1281 39.8825,-8.3701 45.3093,-35.3647 25.0534,-71.766 37.6364,-143.1174 48.625,-214.3853 37.8872,105.2739 58.6962,213.384 85.6551,320.4793 6.2792,26.556 32.4625,38.6117 66.8468,18.2394 l 117.1549,-77.3585 c 20.7976,-13.8476 22.8065,-28.3752 19.8894,-40.3457 -10.0006,-26.3485 -17.684,-49.4949 -33.2662,-79.0415 26.2051,-16.474 48.4241,-36.07 66.414,-53.5709 123.4003,121.4756 146.1784,126.6357 194.5133,161.3479 33.1687,18.607 56.4798,9.6081 74.0448,-15.4752 l 79.5733,-124.8672 c 13.4451,-17.2818 50.2033,25.3254 54.2874,13.1924 l 39.2626,-118.4361 104.8436,31.9657 -46.6079,136.3279 c -1.2789,5.8301 -19.4642,46.2267 50.007,65.6648 l 151.8517,26.0022 c 25.6722,1.2996 57.0758,5.0503 66.2975,-35.3627 2.4682,-10.8168 44.3304,-227.5134 48.0756,-242.0394 15.6091,-60.5407 127.2364,-102.35792 266.8907,-102.7784 43.5463,-7.9929 41.3569,-27.4218 45.3248,-45.30937 l -2.2148,-132.61251 c -5.6212,-33.89174 -34.3798,-34.53115 -62.9996,-35.36271 -70.3605,3.79489 -140.7111,18.68719 -211.0716,47.52428 0.8689,-12.0017 -3.9549,-19.45552 -10.8609,-25.23744 L 3180.281,747.43501 c -28.1705,-1.80861 -48.3391,7.67458 -58.8007,30.86689 l -18.5578,68.58037 C 3065.5106,737.78255 2927.8362,696.8344 2802.8822,734.20967 l -24.0202,-75.52596 c -8.6659,-24.77395 -38.7605,-43.30104 -78.5251,-29.16834 l -60.1848,22.63818 -0.5823,-24.70361 c -2.7908,-29.39017 -21.4864,-23.59841 -37.5136,-26.00421 l -127.6819,-2.3469 c -20.6538,2.49262 -36.5943,8.85086 -39.2296,40.06038 l -1.9314,67.41565 -74.6097,27.61734 c -12.7446,7.01663 -24.4501,17.4405 -20.8057,47.04284 l 7.8443,40.12833 c -44.7712,-1.85281 -100.6811,7.43694 -158.9816,24.33672 l 5.08,-35.947 c -1.4085,-9.84297 -6.1901,-13.79013 -11.7267,-16.40889 l -128.93,-31.6492 c 0.01,-33.57232 -18.7495,-48.2663 -45.7093,-47.65819 l -84.8708,1.63253 c 0.8637,-26.10162 -10.1083,-39.29317 -27.6368,-39.79637 l -158.015,11.3288 c -36.5435,1.59753 -55.2873,25.23273 -52.2724,59.10152 l 3.5485,200.90949 -92.2008,2.21489 c -14.4542,0.52367 -37.1001,15.81984 -35.415,32.08208 3.5959,34.70465 -1.8129,50.54855 -25.686,44.11165 -23.8729,-6.4367 -32.2978,-62.09974 17.7736,-62.00167 23.8467,0.0428 36.2399,-19.72199 36.1974,-27.91823 1.0403,-92.86718 0.6724,-107.78368 2.0499,-165.32742 0.336,-39.44832 -31.0821,-45.79531 -88.7707,-36.89818 -57.6888,8.89714 -146.3394,76.94641 -175.5556,142.90666 0,0 -68.7561,-79.04354 -83.2052,-97.28089 -21.0161,-26.52594 -14.3374,-40.9312 17.4065,-17.82402 0,0 4.4479,1.82402 32.0492,19.95739 27.0246,17.75461 46.5243,13.66584 59.6683,0 l 145.8904,-139.02622 c 10.0391,-13.66838 42.5584,-34.878 -19.8895,-81.79018 -174.2465,-130.89829 -383.6786,-2.7992 -383.6786,-2.7992 0,0 18.6171,-428.74549 20.9883,-481.842667 2.3541,-52.714914 -40.4172,-58.937551 -67.6137,-59.584886 0,0 -200.88391,-5.680445 -246.93522,-6.2467562 z M 1945.8829,936.18486 c -7.1253,38.28878 -5.003,32.9563 -27.1262,104.61864 0,0 -1.5996,-24.7833 -3.8571,-61.79594 -1.684,-27.60938 1.5945,-42.06668 30.9833,-42.8227 z m -864.8146,14.27553 c 55.0728,46.90303 69.9656,96.13961 68.229,136.46001 -1.7984,41.7586 -29.8284,50.6013 -77.8243,45.8431 z m 2317.6628,256.39651 c -6.7667,0.034 -13.5034,0.2141 -20.2214,0.5339 -18.7815,0.8946 -39.3792,8.0641 -39.447,36.2458 l -1.0656,41.5784 c -27.4012,3.8036 -48.3266,7.6734 -55.454,45.3928 -3.0531,16.1567 -8.4326,47.378 10.7949,75.1592 93.3824,123.929 56.2751,164.9486 66.2471,193.4145 0.8059,33.6428 35.3746,55.5418 71.6299,45.3929 l 113.8724,-54.1884 c 30.1497,-14.1269 25.8986,-28.0832 26.3845,-34.9143 28.9589,56.1194 58.2355,65.0393 96.7491,39.711 0,0 112.1772,-95.048 117.2713,-98.8805 30.3335,-22.821 32.891,-67.1627 2.1314,-102.8774 -178.3517,-152.4053 -287.3916,-187.0503 -388.8926,-186.5679 z" />
  <path
     id="path9"
     style="display:inline;fill:url(#linearGradient8);fill-rule:evenodd;stroke:#000000;stroke-width:19.8778;stroke-linejoin:round;stroke-dasharray:none"
     d="m 816.90859,56.337434 c -16.48819,0.05117 -16.88051,11.210832 -15.82482,23.370918 l 54.27105,751.582428 c 0,0 -713.83603,-476.49193 -723.68072,-482.45936 -9.84469,-5.96734 -23.79633,2.95753 -19.60621,18.85664 4.1901,15.8991 312.8498,1119.45294 312.8498,1119.45294 6.49894,19.1995 18.8871,16.6063 32.41606,9.7948 0,0 210.85245,-121.6627 219.36631,-126.6325 8.51386,-4.9698 13.4742,-17.1308 6.77972,-33.1823 -6.69452,-16.0513 -212.58661,-551.80566 -212.58661,-551.80566 l 473.13098,316.49786 79.42435,53.1217 38.463,-1062.400109 c 0.01,-13.242474 5.6305,-28.799146 -23.371,-30.167249 z M 944.02415,1101.8132 792.42167,1230.4613 c -7.19061,6.1019 -21.96067,23.4647 -4.91402,35.7976 345.15875,249.7122 783.49785,-89.732 414.06255,-462.28685 -73.3013,-73.92017 13.3475,-126.72776 54.3378,-98.18097 l 59.7014,41.57782 153.3849,-139.20913 c -57.2165,-37.98814 -111.3296,-72.44912 -204.9075,-62.49995 -203.2662,21.61125 -307.93352,193.45706 -138.8425,384.39495 169.279,191.15053 -10.4455,337.08403 -181.22015,171.75843 z m 1537.36345,-449.32703 1.0662,94.34967 -91.1516,31.89962 23.0378,113.42285 74.2105,-20.05596 3.7313,221.36545 c 0.6465,64.791 22.9213,78.0426 42.9438,96.3319 l 160.4478,109.8079 87.42,-146.5884 c -64.278,-31.2642 -165.1618,-78.1849 -167.3775,-114.1724 l 3.7314,-207.7892 147.0882,-48.10764 -38.3461,-114.47232 -123.6676,38.37953 -0.533,-54.371 z m -609.6581,70.47905 c -40.4175,1.54721 -79.2949,2.27012 -134.2618,11.57716 2.7381,184.99673 10.3618,362.60222 17.1075,537.57992 0,0.5698 61.5141,-5.0253 135.9442,-8.6286 l -23.5873,-302.00567 c 2.1566,-80.88214 69.879,-83.66961 135.9274,-86.7704 l 8.8953,-117.30412 c -49.9499,-1.33288 -85.9987,-7.52923 -138.343,16.52451 z m -337.9864,46.75838 c -76.2122,1.25067 -219.7877,103.36861 -195.7122,264.6423 27.3423,183.1601 319.3884,278.6233 406.1165,-2.9818 l -1.0493,-36.71382 -141.7745,0.0338 c 3.2213,102.97632 -78.0867,92.01922 -109.275,60.55112 -35.1642,-35.4796 -41.6031,-127.0387 54.904,-142.1076 l 1.0662,-142.32408 c -4.4124,-0.82557 -9.195,-1.18276 -14.2757,-1.09945 z m 1346.082,2.81519 c -244.0788,4.52571 -262.0977,333.21601 -46.0922,389.54231 l 33.0491,-111.9403 c -86.2285,-16.2453 -89.5051,-166.02019 34.1151,-162.04698 20.9918,0.67463 52.577,22.38423 43.1772,52.23881 l -49.5738,-14.39233 -30.6503,101.0129 202.2921,64.7655 c 38.4412,-134.42291 36.5033,-282.7765 -119.4029,-312.98324 -23.927,-4.63582 -46.2298,-6.58021 -66.9143,-6.19667 z m -862.1068,24.87011 c -31.7883,140.22932 -12.3777,164.21056 -95.6656,421.3585 54.2874,35.2359 90.0951,52.674 130.4136,70.1128 74.7817,-268.6876 76.5785,-340.85179 95.3657,-460.22132 -36.1498,-15.60078 -85.4321,-27.7444 -130.1137,-31.24998 z m 1149.1704,0.0682 -158.3155,480.2774 c 64.2062,12.3067 123.4028,23.5789 182.3027,38.3795 13.2699,-78.6181 25.8191,-154.7782 44.243,-236.9403 6.8139,-30.3869 50.9241,-142.10818 315.032,-149.52045 l -2.6652,-120.46907 c -123.2026,3.47965 -213.556,29.22703 -280.8002,76.40918 l 9.5448,-59.35162 z m -841.0681,73.64407 c -52.1203,-1.02507 -116.1934,13.46576 -191.4646,50.05662 54.3196,158.47791 96.272,311.66671 136.7271,464.20261 l 104.7774,-58.802 c -1.3863,-8.147 -110.9958,-349.94048 -110.9958,-349.94048 39.6457,-14.0962 118.0992,-20.36476 126.1292,39.07298 5.4723,40.5057 -73.1184,95.2035 -80.2082,93.8743 0,0 47.2714,101.6028 43.7362,91.6601 191.9711,-70.2797 175.7705,-326.10281 -28.7013,-330.12413 z m 1058.0189,377.84713 c 0,0 -3.4069,47.2331 -1.066,48.5073 215.3571,117.229 211.7821,202.27 250.5331,261.7271 50.3136,-35.1628 98.2276,-76.685 129.5309,-114.0725 -189.2472,-190.5943 -303.538,-194.3486 -378.998,-196.1619 z m -3072.2447,23.6873 c -55.44213,3.7097 -296.223253,150.6375 -235.107937,202.9417 l 82.939097,67.6139 c 19.12808,16.6631 34.24741,18.8403 38.37952,-2.6652 12.82037,-62.6798 69.35571,-145.1152 135.37781,-191.2814 z m 3015.1919,56.8695 -1.8158,34.1986 c 90.6118,114.6619 75.6396,198.3328 79.8409,240.655 l 125.7329,-62.8332 c -5.9156,-50.5528 -70.1747,-192.6177 -203.758,-212.0204 z M 351.42356,1414.33 c 0,0 -85.47557,118.1034 -52.77185,139.0592 32.7037,20.9556 51.77244,30.1193 88.20295,41.9276 38.90853,12.6115 28.36624,-10.529 37.56284,-31.5084 -33.66507,17.2954 -33.52624,-20.1006 -45.82823,-59.828 -12.30201,-39.7275 -27.16571,-89.6504 -27.16571,-89.6504 z"
     sodipodi:nodetypes="cccssccsscccccccssssccssccccccccccccccccccccccccccsscccsccssccsccccssccccccscscccccsccccsccsccccccccccccccccccsccsc" />
</svg>
