<?xml version="1.0" encoding="UTF-8" standalone="no"?>
<!-- Created with Inkscape (http://www.inkscape.org/) -->

<svg
   width="1015.7354mm"
   height="149.93938mm"
   viewBox="0 0 1015.7354 149.93938"
   version="1.1"
   id="svg1"
   inkscape:version="1.3.2 (091e20e, 2023-11-25, custom)"
   sodipodi:docname="pc98.svg"
   xmlns:inkscape="http://www.inkscape.org/namespaces/inkscape"
   xmlns:sodipodi="http://sodipodi.sourceforge.net/DTD/sodipodi-0.dtd"
   xmlns="http://www.w3.org/2000/svg"
   xmlns:svg="http://www.w3.org/2000/svg">
  <sodipodi:namedview
     id="namedview1"
     pagecolor="#ffffff"
     bordercolor="#000000"
     borderopacity="0.25"
     inkscape:showpageshadow="2"
     inkscape:pageopacity="0.0"
     inkscape:pagecheckerboard="0"
     inkscape:deskcolor="#d1d1d1"
     inkscape:document-units="mm"
     inkscape:zoom="0.57291968"
     inkscape:cx="1656.4277"
     inkscape:cy="526.25178"
     inkscape:window-width="3840"
     inkscape:window-height="2054"
     inkscape:window-x="-11"
     inkscape:window-y="-11"
     inkscape:window-maximized="1"
     inkscape:current-layer="layer1" />
  <defs
     id="defs1" />
  <g
     inkscape:label="Layer 1"
     inkscape:groupmode="layer"
     id="layer1"
     transform="translate(402.96042,-73.554167)">
    <g
       id="g8"
       transform="matrix(0.26458333,0,0,0.26458333,-402.96042,73.554167)">
	<g
   id="g5">
		<rect
   x="2323.2"
   y="237.2"
   width="164.60001"
   height="93"
   id="rect1" />

		<path
   d="m 2694.9,0 c -99.5,0 -180.2,80.7 -180.2,180.2 0,97.9 77.9,177.4 175.2,180.1 l -87.1,195.2 h 122 l 135.7,-303.9 c 9.5,-21.9 14.7,-46 14.7,-71.3 C 2875.1,80.6 2794.4,0 2694.9,0 Z m 0,249 c -38,0 -68.8,-30.8 -68.8,-68.8 0,-38 30.8,-68.8 68.8,-68.8 38,0 68.8,30.8 68.8,68.8 0,38 -30.8,68.8 -68.8,68.8 z"
   id="path1" />

		<path
   d="M 3245,166.6 C 3245,76.1 3169.2,2.8 3075.8,2.8 c -93.4,0 -169.2,73.3 -169.2,163.8 0,40.9 15.6,78.1 41.1,106.8 -30.7,30.9 -49.7,72.8 -49.7,119.1 0,95 79.6,172.1 177.7,172.1 98.2,0 177.7,-77 177.7,-172.1 0,-46.3 -19,-88.2 -49.7,-119.1 25.8,-28.7 41.3,-66 41.3,-106.8 z m -169.2,-55.8 c 30.8,0 55.7,25 55.7,55.7 0,30.7 -25,55.7 -55.7,55.7 -30.8,0 -55.7,-25 -55.7,-55.7 0,-30.7 25,-55.7 55.7,-55.7 z m 0,340.9 c -35.7,0 -64.6,-28.9 -64.6,-64.6 0,-35.7 28.9,-64.6 64.6,-64.6 35.7,0 64.6,28.9 64.6,64.6 0,35.7 -28.9,64.6 -64.6,64.6 z"
   id="path2" />

		<path
   d="m 3473.5,11.9 c -121.4,0 -195.6,86.3 -195.6,271.8 0,185.5 74.2,271.8 195.6,271.8 121.4,0 195.6,-86.3 195.6,-271.8 0,-185.5 -74.2,-271.8 -195.6,-271.8 z m 78.7,272.1 v 0 c -0.1,116.7 -25.4,168.7 -78.7,168.7 -53.2,0 -78.6,-52 -78.7,-168.7 v 0 c 0,-0.1 0,-0.2 0,-0.3 0,-0.1 0,-0.2 0,-0.3 v 0 c 0.1,-116.7 25.4,-168.7 78.7,-168.7 53.2,0 78.6,52 78.7,168.7 v 0 c 0,0.1 0,0.2 0,0.3 0,0.1 0,0.2 0,0.3 z"
   id="path3" />

		<path
   d="m 2325.8,435.9 c -12.3,2.8 -23,7 -61.4,7 -59,0 -143.4,-52.9 -143.4,-159.2 0,-106.3 84.4,-159.2 143.4,-159.2 38.3,0 49.1,4.1 61.4,7 V 5.3 C 2310,2.6 2290,0.7 2260.4,0.7 c -131.4,0 -273.2,108.2 -273.2,283 0,174.8 141.8,283 273.2,283 29.6,0 49.6,-2 65.4,-4.6 z"
   id="path4" />

		<rect
   x="3718.7"
   y="11.9"
   width="120.3"
   height="543.5"
   id="rect4" />

		<path
   d="m 1804.9,11.9 h -64.1 v 0 h -120.3 v 543.5 h 120.3 V 127.1 h 54.6 c 32.5,0 58.9,26.4 58.9,58.9 0,32.5 -26.4,58.9 -58.9,58.9 h -23.9 v 114 h 33.4 c 95.8,0 178.4,-77.7 178.4,-173.4 0,-95.7 -82.6,-173.6 -178.4,-173.6 z"
   id="path5" />

	</g>

	<g
   id="g7">
		<polygon
   class="st3"
   points="0,566.7 141.7,495 75.2,434.2 115.6,241.8 389.4,547.6 472.6,150.6 568.8,96.2 451.3,27.2 390.5,317.3 134.4,31.3 14.6,166.6 51.3,170.1 77.3,199 "
   id="polygon5"
   style="fill:#c30207" />

		<path
   class="st3"
   d="m 995.4,43.4 h -350.9 -3.3 -65.3 c -3.6,0 -4.6,5.1 -1.1,6.3 33.2,11.8 58.8,29.8 55.4,45.7 l -31.8,151.7 c -3.9,18.6 -35.4,26.6 -64.4,30 -4.6,0.6 -4.7,7.3 -0.1,8 37.3,6 50.8,13.7 52.6,18.5 l -35,166.7 c -5.6,26.6 -43.9,33 -77.1,44.9 -3.4,1.2 -2.5,6.3 1.1,6.3 h 65.3 39.2 118.7 160.1 72.2 1.6 l 32.1,-152.8 c 1,-5.1 -5.8,-7.8 -8.5,-3.4 -26.4,42.4 -85.7,125.3 -145,125.3 h -106 l 41.5,-197.9 h 26.8 0.2 c 41.5,0 70.5,64 80.2,88.6 1,2.7 5,2.3 5.6,-0.5 l 42.2,-201.3 c 0.7,-3.1 -3.3,-4.9 -5.2,-2.4 -19.3,24.8 -70.8,84.7 -118.1,84.7 H 753 L 792.3,74.3 h 110.9 c 57.4,0 76.2,61.4 83.4,137.2 0.6,6.2 9.4,6.7 10.7,0.7 l 35.3,-168.7 z"
   id="path6"
   style="fill:#c30207" />

		<path
   class="st3"
   d="m 1357.3,521.4 100.3,-193.7 c 3,-5.5 -1.7,-7.5 -6.4,-3.5 -190.7,158 -318.3,14.5 -299.6,-79.2 20.6,-102.6 101.6,-153.4 176.5,-170.3 l 78.3,100.8 70.4,-34.4 L 1423,23.6 c -168.4,-8 -383,97.7 -393.2,291.3 -4.9,96.4 88.4,289.7 327.5,206.5 z"
   id="path7"
   style="fill:#c30207" />

	</g>

</g>
  </g>
</svg>
