<?xml version="1.0" encoding="UTF-8" standalone="no"?>
<!-- Created with Inkscape (http://www.inkscape.org/) -->

<svg
   width="970.86743mm"
   height="571.25128mm"
   viewBox="0 0 970.86743 571.25128"
   version="1.1"
   id="svg1"
   inkscape:version="1.3.2 (091e20e, 2023-11-25, custom)"
   sodipodi:docname="pcengine.svg"
   xmlns:inkscape="http://www.inkscape.org/namespaces/inkscape"
   xmlns:sodipodi="http://sodipodi.sourceforge.net/DTD/sodipodi-0.dtd"
   xmlns="http://www.w3.org/2000/svg"
   xmlns:svg="http://www.w3.org/2000/svg">
  <sodipodi:namedview
     id="namedview1"
     pagecolor="#ffffff"
     bordercolor="#000000"
     borderopacity="0.25"
     inkscape:showpageshadow="2"
     inkscape:pageopacity="0.0"
     inkscape:pagecheckerboard="0"
     inkscape:deskcolor="#d1d1d1"
     inkscape:document-units="mm"
     inkscape:zoom="0.2025577"
     inkscape:cx="-528.24456"
     inkscape:cy="12.342163"
     inkscape:window-width="3840"
     inkscape:window-height="2054"
     inkscape:window-x="-11"
     inkscape:window-y="-11"
     inkscape:window-maximized="1"
     inkscape:current-layer="layer1" />
  <defs
     id="defs1" />
  <g
     inkscape:label="Layer 1"
     inkscape:groupmode="layer"
     id="layer1"
     transform="translate(380.47083,137.05417)">
    <g
       id="g11"
       transform="matrix(0.26458333,0,0,0.26458333,-380.46656,-137.05417)">
	<path
   class="st0"
   d="m 3662.4,632.6 c -27,-113.1 -131.6,-204.7 -302.6,-264.9 -159.3,-56.2 -377.1,-85.9 -629.7,-85.9 -50.3,0 -102.5,1.2 -155.4,3.6 l 3.8,-4.8 v 0 l 87,-109.8 c 11.3,-14.2 -6.9,-32.9 -21.5,-22 l -97,73 -93.9,70.7 -34.4,2.9 c -215.6,17.9 -441.1,53.2 -670,104.7 l -9.6,2.2 -3.6,-53.2 c -0.1,-1.8 0.9,-3.6 2.6,-4.3 l 99.7,-44.2 5.1,74.9 269.5,-119.5 -6.3,-91.9 C 2100,71.9 2023,0 1931,0 c -24.5,0 -48.4,5.1 -71.2,15.2 L 1669.9,99.4 C 1562.6,147 1488.1,245.5 1468.6,358.1 1437.8,306.5 1381.3,272 1317.7,272 c -24.5,0 -48.4,5.1 -71.2,15.2 l -412.2,182.9 15.2,221.1 -23.2,10.5 C 558.1,822.5 340.3,958.1 196.4,1093.9 42.7,1238.8 -22.8,1381.2 7,1505.8 c 35.2,147.5 197.2,254.6 468.3,309.8 l 21.9,4.5 19.6,285.4 c 2,28.5 24.5,52.2 53.1,53.5 8.6,0.4 17,-1.2 24.9,-4.7 l 990.6,-439.4 c -5.1,9.2 -7.7,19.8 -6.9,30.8 l 15.4,224.7 c 2,28.5 24.5,52.3 53.1,53.5 8.6,0.4 16.9,-1.2 24.8,-4.7 l 174.7,-77.5 c 110.6,-49.1 195.9,-137.5 243.1,-243.8 l 36.8,-9.8 c 250.5,-66.7 485,-148.2 697.1,-242.3 273.9,-121.5 496.7,-258.4 644.4,-396 157.3,-146.9 224.6,-291.1 194.5,-417.2 z"
   id="path1"
   style="fill:#ff002b" />

	<g
   id="g10">
		<polygon
   class="st1"
   points="2581.1,231.7 2100.1,593.7 1894.3,476.5 2006.4,685.1 1632.6,1157 2113.5,795 2319.3,912.2 2207.3,703.6 "
   id="polygon1"
   style="fill:#ffffff" />

		<g
   id="g2">
			<polygon
   class="st1"
   points="2581.1,231.7 2100.1,593.7 1894.3,476.5 2006.4,685.1 1632.6,1157 2113.5,795 2319.3,912.2 2207.3,703.6 "
   id="polygon2"
   style="fill:#ffffff" />

		</g>

		<g
   id="g3">
			<path
   class="st1"
   d="m 2099.5,565.7 4.3,-3.2 c 0.2,-9.5 0,-19 -0.6,-28.6 l -4.1,-59.2 -89.6,39.7 z"
   id="path2"
   style="fill:#ffffff" />

			<path
   class="st1"
   d="m 1724.4,931.4 89.1,-39.5 164.8,-208 -67.5,-125.7 -26,11.5 3.6,52 c 0.9,13.7 -6.8,26.6 -19.4,32.2 l -113.7,50.4 c -11.2,5 -24,-2.7 -24.8,-14.9 l -23.2,-338.6 c -0.9,-13.7 6.8,-26.6 19.4,-32.2 l 113.7,-50.4 c 11.2,-5 24,2.7 24.8,14.9 l 3.4,49.7 214.3,-95 -4.9,-72.1 c -7,-102 -113.2,-166 -206.6,-124.5 l -189.9,84.2 C 1559,179.8 1483.5,305 1492.7,438.7 l 25.2,368.2 c 6.9,101.9 113.1,166 206.5,124.5 z"
   id="path3"
   style="fill:#ffffff" />

		</g>

		<path
   class="st1"
   d="M 250.1,1676.3 C 148,1626.6 87.4,1564.2 69.8,1490.8 20.6,1284.7 322.2,1002 840.5,766.2 l -2.6,-38.6 C 306.5,967 -21.9,1262.9 34.6,1499.2 68.1,1639.4 231.8,1737.1 481,1787.8 l -2.6,-37.5 c -88.9,-18.6 -165.4,-43.4 -228.3,-74 z"
   id="path4"
   style="fill:#ffffff" />

		<path
   class="st1"
   d="m 1755.1,427.6 2.5,36.6 c 208.8,-47.2 414.1,-80.6 608.9,-99.5 l 54.7,-41.2 c -208.6,17.4 -433.6,51.8 -666.1,104.1 z"
   id="path5"
   style="fill:#ffffff" />

		<path
   class="st1"
   d="m 2544,315.2 -30,37.8 c 173.8,-10.6 337.2,-8.8 484.4,5.9 174.8,17.5 316.4,52.2 421,103.2 102.1,49.7 162.7,112.1 180.2,185.5 50.2,210.3 -264.7,500.4 -802.4,738.9 -201.4,89.3 -429.2,168.9 -666.4,233.3 -3.3,13.8 -7.2,27.3 -11.7,40.7 C 2372.6,1593 2607,1510.6 2812,1419.7 3355,1178.8 3692.1,878.5 3634.9,639.3 3577.5,399.4 3139.3,283.9 2544,315.2 Z"
   id="path6"
   style="fill:#ffffff" />

		<g
   id="g9">
			<path
   class="st1"
   d="m 3013.8,607.1 -176.1,78.1 c -10.4,4.6 -16.8,15.3 -16.1,26.7 l 2.6,38.7 211.5,-93.8 c 10.4,-4.6 16.8,-15.3 16.1,-26.7 v 0 c -1.2,-18.9 -20.8,-30.6 -38,-23 z"
   id="path7"
   style="fill:#ffffff" />

			<path
   class="st1"
   d="m 1671,1218.3 13,190.3 c 1,15 16.7,24.4 30.4,18.3 l 200.6,-89 -16.2,-236.3 -215,95.4 c -8.2,3.7 -13.4,12.2 -12.8,21.3 z m 88.1,38.6 63.2,-28 3.8,55.5 -63.2,28 z"
   id="path8"
   style="fill:#ffffff" />

			<path
   class="st1"
   d="m 3177.1,436.2 c -44.3,-42.5 -108.8,-52.7 -162.9,-28.7 l -221.5,98.3 c -58.5,25.9 -103.2,73.3 -127,130.1 -1.4,-0.9 -2.8,-1.9 -4.3,-2.7 -41.4,-24.9 -92.4,-28.1 -136.6,-8.5 l -268.6,119.2 40.4,75.3 262.7,-116.5 c 40,-17.7 85.5,9.7 88.5,53.3 l 24.2,352.8 -88.8,39.4 -21.2,-308.9 c -1,-15 -16.7,-24.4 -30.4,-18.3 l -200.6,89 23.3,339.5 -88.8,39.4 -27.1,-395 -124.3,-70.9 -248.9,187.3 26.6,-11.8 88.8,-39.4 v 0 l 35.7,520.3 c 10.5,153 -75.8,296.1 -215.9,358.3 l -98.8,43.8 -7.1,-103.1 69.2,-30.7 c 104.6,-46.4 169,-153.2 161.2,-267.4 l -2.7,-39.2 -235.4,104.4 c -40,17.7 -85.5,-9.7 -88.5,-53.3 l -16.5,-240.7 c -2.9,-42.8 11.4,-83.9 38.1,-115.1 l 0.1,-0.2 134.7,-170 -112.4,49.9 c -58.5,25.9 -103.2,73.3 -127,130.1 -1.4,-0.9 -2.8,-1.9 -4.2,-2.7 -41.4,-24.9 -92.4,-28.1 -136.6,-8.5 l -238.1,105.6 -3.2,-46.8 -13.3,-193.6 167.9,-74.5 c 122.5,-54.4 198,-179.6 188.8,-313.3 l -12,-174.6 c -7,-102 -113.2,-166 -206.6,-124.5 L 863.9,488 899.3,1004.7 499.8,1182 c -10.4,4.6 -16.8,15.2 -16,26.6 l 61.5,896.8 c 1.3,18.7 20.8,30.5 38,22.9 l 536.5,-238 v 0 l 173.3,-76.9 -23.3,-339.5 63.2,-28 23.3,339.5 254.5,-112.9 -3.2,-46.5 c 36.5,14.2 77.5,13.5 113.8,-2.6 l 101,-44.8 c -18.8,39.7 -51.4,72.6 -93.2,91.2 l -106.4,47.2 c -10.4,4.6 -16.8,15.2 -16,26.6 l 15.5,226.5 c 1.3,18.7 20.8,30.5 38,22.9 l 174.7,-77.5 c 172.9,-76.7 279.3,-253.3 266.4,-442 l -1.2,-18.1 171.7,-76.1 v 0 l 171.7,-76.1 -23.3,-339.5 63.2,-28 23.3,339.5 254.5,-112.9 -3.2,-46.5 c 36.5,14.2 77.5,13.5 113.8,-2.6 l 361.4,-160.3 c 10.4,-4.6 16.8,-15.2 16,-26.6 l -18.2,-265.1 -10,4.5 c 5.2,-22.8 7.1,-46.6 5.5,-70.7 l -4.1,-59.3 c -2.8,-37.6 -18.3,-73.5 -45.4,-99.5 z M 1092.4,600 1227.1,540.3 c 11.2,-5 24,2.7 24.8,14.9 l 9.9,145 c 0.9,13.7 -6.8,26.6 -19.4,32.2 l -136.8,60.7 z m -61.6,1236.6 -38.5,17.1 -45.2,20.1 -252.7,112.1 -69.7,30.9 -53,-773.4 29.4,-13.1 216.9,-96.3 98.3,-43.6 7.1,103.1 -28.3,12.6 -227.7,101 15.6,227.6 106.6,-47.3 19.1,-8.5 69.7,-30.9 7.1,103.1 -37.4,16.6 -51.4,22.8 -106.6,47.3 16.2,236.3 233.6,-103.6 12.9,-5.7 71.1,-31.6 z m -247.9,-89.6 -3.8,-55.5 195.4,-86.7 -19.5,-284 -195.4,86.7 -3.2,-46.8 162.4,-72 73.7,-32.7 5.1,74.1 21.4,312.2 z m 738.7,-128.2 -88.8,39.4 -21.2,-308.6 c -1,-15 -16.7,-24.4 -30.4,-18.3 l -200.6,89 23.3,339.5 -88.8,39.4 -30.3,-442.6 324.2,-143.8 c 40,-17.7 85.5,9.7 88.5,53.3 z m 661,-293.2 -88.8,39.4 -30.3,-442.6 88.8,-39.4 z m 954.5,-786.9 4.3,62 c 4.6,67.3 -33.3,130.2 -95,157.6 l -215,95.4 3.1,44.7 c 1,15 16.7,24.4 30.4,18.3 l 200.6,-89 39.7,-17.6 49.1,-21.8 7.1,103.1 -16.7,7.4 -307.4,136.4 c -40,17.7 -85.5,-9.7 -88.5,-53.3 l -16.5,-240.7 c -4.6,-67.3 33.3,-130.2 95,-157.6 l 221.5,-98.3 c 39.9,-17.7 85.3,9.7 88.3,53.4 z"
   id="path9"
   style="fill:#ffffff" />

		</g>

	</g>

</g>
  </g>
</svg>
