<?xml version="1.0" encoding="UTF-8" standalone="no"?>
<!-- Created with Inkscape (http://www.inkscape.org/) -->

<svg
   width="1015.6825mm"
   height="405.87537mm"
   viewBox="0 0 1015.6825 405.87537"
   version="1.1"
   id="svg1"
   inkscape:version="1.3.2 (091e20e, 2023-11-25, custom)"
   sodipodi:docname="pcenginecd.svg"
   xmlns:inkscape="http://www.inkscape.org/namespaces/inkscape"
   xmlns:sodipodi="http://sodipodi.sourceforge.net/DTD/sodipodi-0.dtd"
   xmlns="http://www.w3.org/2000/svg"
   xmlns:svg="http://www.w3.org/2000/svg">
  <sodipodi:namedview
     id="namedview1"
     pagecolor="#ffffff"
     bordercolor="#000000"
     borderopacity="0.25"
     inkscape:showpageshadow="2"
     inkscape:pageopacity="0.0"
     inkscape:pagecheckerboard="0"
     inkscape:deskcolor="#d1d1d1"
     inkscape:document-units="mm"
     inkscape:zoom="0.28645984"
     inkscape:cx="-275.78037"
     inkscape:cy="-1010.6129"
     inkscape:window-width="3840"
     inkscape:window-height="2054"
     inkscape:window-x="-11"
     inkscape:window-y="-11"
     inkscape:window-maximized="1"
     inkscape:current-layer="layer1" />
  <defs
     id="defs1" />
  <g
     inkscape:label="Layer 1"
     inkscape:groupmode="layer"
     id="layer1"
     transform="translate(262.99583,-32.54375)">
    <g
       id="g27"
       transform="matrix(0.26458333,0,0,0.26458333,-262.99583,32.521815)">
	<g
   id="g11">
		<path
   class="st0"
   d="m 2750.7,504.5 c -0.8,-58.6 -42.1,-115.2 -119.5,-163.7 -72.1,-45.2 -175.9,-83.9 -300.1,-111.8 -24.7,-5.6 -50.5,-10.7 -76.8,-15.4 l 2.4,-1.9 v 0 l 54.9,-44.4 c 7.1,-5.8 0.2,-17 -8.1,-13.2 l -55.7,25.2 -54,24.4 -17.2,-2.4 c -108,-15 -222.7,-22.6 -340.9,-22.6 h -4.9 l 4.1,-26.6 c 0.1,-0.9 0.8,-1.6 1.7,-1.8 l 53.9,-10.7 -5.7,37.4 145.7,-29 7.1,-45.9 c 7.1,-45.8 -22.8,-89.7 -68,-99.9 -12,-2.7 -24.4,-2.8 -36.7,-0.4 L 1830,22.2 c -58,11.5 -105.5,51.8 -127.6,104.9 -9.5,-28.8 -33.4,-52 -64.7,-59 -12,-2.7 -24.4,-2.8 -36.7,-0.4 l -222.8,44.3 -17,110.4 -12.6,2.6 c -145.2,29.7 -267.3,72.3 -353,123.2 -91.5,54.3 -139.4,117.1 -138.6,181.6 1,76.4 68.8,147 196,204.1 l 10.3,4.6 -21.8,142.5 c -2.2,14.2 6.3,28.4 20.2,32.1 4.2,1.1 8.5,1.3 12.7,0.4 L 1609.9,807 c -3.5,3.9 -6,8.9 -6.8,14.4 l -17.3,112.2 c -2.2,14.2 6.3,28.4 20.2,32.1 4.2,1.1 8.5,1.3 12.7,0.4 l 94.4,-18.8 c 59.8,-11.9 111.5,-45.9 146.5,-93 l 19.2,-0.8 c 130.5,-5.1 254.8,-19.3 369.5,-42.1 148.1,-29.5 272.7,-72.2 360.5,-123.5 93.7,-54.7 142.8,-118.1 141.9,-183.4 z"
   id="path1"
   style="fill:#ff002b" />

		<g
   id="g10">
			<polygon
   class="st1"
   points="2263.4,187.9 1986.9,312.7 1898.7,232.4 1930.7,347.3 1694.8,537.9 1971.3,413.1 2059.5,493.5 2027.5,378.5 "
   id="polygon1"
   style="fill:#ffffff" />

			<g
   id="g2">
				<polygon
   class="st1"
   points="2263.4,187.9 1986.9,312.7 1898.7,232.4 1930.7,347.3 1694.8,537.9 1971.3,413.1 2059.5,493.5 2027.5,378.5 "
   id="polygon2"
   style="fill:#ffffff" />

			</g>

			<g
   id="g3">
				<path
   class="st1"
   d="m 1989.7,298.8 2.5,-1.1 c 1.1,-4.6 2.1,-9.3 2.8,-14.1 l 4.5,-29.5 -48.4,9.6 z"
   id="path2"
   style="fill:#ffffff" />

				<path
   class="st1"
   d="m 1764.9,437.2 48.2,-9.6 104,-84.1 -19.3,-69.2 -14.1,2.8 -4,26 c -1.1,6.9 -6.3,12.3 -13.1,13.7 l -61.5,12.2 c -6.1,1.2 -11.5,-4 -10.5,-10.1 l 26,-169 c 1.1,-6.9 6.3,-12.3 13.1,-13.7 l 61.5,-12.2 c 6.1,-1.2 11.5,4 10.5,10.1 l -3.8,24.8 115.8,-23 5.5,-36 C 2031,49 1985.9,5.8 1935.4,15.8 l -102.7,20.4 c -66.3,13.2 -117.2,66.4 -127.5,133.2 l -28.3,183.8 c -7.6,50.8 37.5,94.1 88,84 z"
   id="path3"
   style="fill:#ffffff" />

			</g>

			<path
   class="st1"
   d="M 957.8,640.5 C 913.1,604.8 890.2,567.4 889.7,529.4 888.3,422.6 1067.8,317 1348.7,258.3 l 3,-19.3 c -287.8,59 -481.9,168.2 -480.3,290.6 1,72.6 70.7,138.7 187.5,191.2 l 2.9,-18.7 c -41.6,-19 -76.5,-39.6 -104,-61.6 z"
   id="path4"
   style="fill:#ffffff" />

			<path
   class="st1"
   d="m 1835.6,192.9 -2.8,18.3 c 107.8,-0.1 212.5,6.1 310.4,18.4 l 31.4,-14.2 c -104.5,-14.6 -218.8,-22.5 -339,-22.5 z"
   id="path5"
   style="fill:#ffffff" />

			<path
   class="st1"
   d="m 2235.9,224.8 -18.9,15.3 c 86.6,14 166.7,32.9 237.5,56.4 84,27.9 149.8,60.6 195.6,97.2 44.7,35.7 67.6,73.1 68.1,111.1 1.5,109 -185.4,216.7 -476.1,274.6 -108.9,21.7 -229.7,35.6 -353.4,41 -3.2,6.4 -6.6,12.6 -10.3,18.7 132.1,-5.2 256.4,-19.8 367.2,-41.8 293.6,-58.4 492.5,-168.8 490.8,-292.7 C 2734.7,380.4 2532,275.2 2235.9,224.8 Z"
   id="path6"
   style="fill:#ffffff" />

			<g
   id="g9">
				<path
   class="st1"
   d="m 2434.6,420.2 -95.2,18.9 c -5.6,1.1 -10,5.6 -10.8,11.3 l -3,19.3 114.4,-22.8 c 5.6,-1.1 10,-5.6 10.8,-11.3 v 0 c 1.5,-9.3 -6.9,-17.2 -16.2,-15.4 z"
   id="path7"
   style="fill:#ffffff" />

				<path
   class="st1"
   d="m 1707,572.4 -14.6,95 c -1.2,7.5 5.5,13.8 12.9,12.4 l 108.4,-21.6 18.2,-118 -116.2,23.1 c -4.6,0.9 -8,4.5 -8.7,9.1 z m 39,28.6 34.1,-6.8 -4.3,27.7 -34.1,6.8 z"
   id="path8"
   style="fill:#ffffff" />

				<path
   class="st1"
   d="m 2533.8,354.3 c -17.1,-25.8 -47.7,-37.9 -76.9,-32.1 L 2337.1,346 c -31.6,6.3 -58.8,24.6 -76.8,49.9 -0.6,-0.6 -1.2,-1.2 -1.8,-1.8 -17.6,-16.8 -42.3,-24 -66.2,-19.3 l -145.2,28.9 11.6,41.5 142,-28.3 c 21.6,-4.3 40.9,14.2 37.6,36 l -27.1,176.1 -48,9.6 23.7,-154.1 c 1.2,-7.5 -5.5,-13.8 -12.9,-12.4 l -108.5,21.6 -26.1,169.5 -48,9.6 30.3,-197.2 -53.3,-48.5 -143,64.6 14.4,-2.9 48,-9.6 v 0 l -40,259.7 c -11.7,76.4 -70,137.2 -145.8,152.3 l -53.4,10.6 7.9,-51.5 37.4,-7.4 c 56.5,-11.3 100,-56.7 108.8,-113.6 l 3,-19.5 -127.2,25.2 c -21.6,4.3 -40.9,-14.2 -37.6,-36 l 18.5,-120.2 c 3.3,-21.4 14.9,-40 31.5,-52.4 l 0.1,-0.1 85,-68.7 -60.8,12.1 c -31.6,6.3 -58.8,24.6 -76.8,49.9 -0.6,-0.6 -1.2,-1.2 -1.8,-1.8 -17.6,-16.8 -42.3,-24 -66.2,-19.3 l -128.7,25.6 3.6,-23.3 14.9,-96.6 90.8,-18.1 c 66.3,-13.2 117.2,-66.4 127.5,-133.2 l 13.4,-87.2 c 7.8,-50.9 -37.3,-94.1 -87.8,-84.1 l -213,42.4 -39.7,258 -216,43 c -5.6,1.1 -9.9,5.6 -10.8,11.3 L 1055.5,884 c -1.4,9.4 6.9,17.3 16.1,15.5 l 290,-57.7 v 0 l 93.7,-18.6 26.1,-169.5 34.2,-6.8 -26.1,169.5 137.6,-27.4 3.6,-23.2 c 16.4,11 36.6,15.2 56.2,11.3 l 54.6,-10.9 c -13.6,17.5 -33.3,30 -55.9,34.5 l -57.5,11.4 c -5.6,1.1 -9.9,5.6 -10.8,11.3 l -17.4,113.1 c -1.4,9.4 6.9,17.3 16.1,15.5 l 94.4,-18.8 c 93.5,-18.6 165.3,-93.7 179.8,-187.8 l 1.4,-9.1 92.8,-18.5 v 0 l 92.8,-18.5 26.1,-169.5 34.2,-6.8 -26.1,169.5 137.6,-27.4 3.6,-23.2 c 16.4,11 36.6,15.2 56.2,11.3 l 195.4,-38.9 c 5.6,-1.1 9.9,-5.6 10.8,-11.3 l 20.4,-132.3 -5.4,1.1 c 5.1,-10.7 8.7,-22.1 10.5,-34.2 l 4.6,-29.6 c 2.8,-18.6 -0.9,-37.9 -11.3,-53.7 z m -1043,-149.8 72.8,-14.5 c 6.1,-1.2 11.5,4 10.5,10.1 l -11.1,72.4 c -1.1,6.9 -6.3,12.3 -13.1,13.7 l -73.9,14.7 z m -166.9,601 -20.8,4.1 -24.5,4.9 -136.6,27.2 -37.7,7.5 59.4,-386.1 15.9,-3.2 117.4,-23.4 53.2,-10.6 -7.9,51.5 -15.3,3 -123.1,24.5 -17.5,113.6 57.6,-11.5 10.3,-2.1 37.7,-7.5 -7.9,51.5 -20.2,4 -27.8,5.5 -57.6,11.5 -18.2,118 126.3,-25.1 7,-1.4 38.5,-7.7 z m -112,-71.4 4.3,-27.7 105.6,-21 21.8,-141.8 -105.6,21 3.6,-23.3 87.8,-17.5 39.8,-7.9 -5.7,37 -24,155.8 z m 377.3,18.6 -48,9.6 23.7,-154.1 c 1.2,-7.5 -5.5,-13.8 -12.9,-12.4 l -108.5,21.6 -26.1,169.5 -48,9.6 34,-220.9 175.3,-34.9 c 21.6,-4.3 40.9,14.2 37.6,36 z m 357.4,-71.1 -48,9.6 34,-220.9 48,-9.6 z m 556.2,-281.4 -4.8,31 c -5.2,33.6 -30.8,60.3 -64.1,67 l -116.3,23.1 -3.4,22.3 c -1.2,7.5 5.5,13.8 12.9,12.4 l 108.5,-21.6 21.5,-4.3 26.5,-5.3 -7.9,51.5 -9.1,1.8 -166.2,33.1 c -21.6,4.3 -40.9,-14.2 -37.6,-36 L 2281.3,455 c 5.2,-33.6 30.8,-60.3 64.1,-67 l 119.8,-23.8 c 21.6,-4.3 41,14.2 37.6,36 z"
   id="path9"
   style="fill:#ffffff" />

			</g>

		</g>

	</g>

	<g
   id="g26">
		<g
   id="g12">
			<path
   class="st1"
   d="M 215.1,1526.5 C 72.6,1526.5 7.7,1418.9 7.7,1319 c 0,-54.2 18.4,-104.8 51.9,-142.4 37.8,-42.5 91.6,-65 155.6,-65 h 390.5 v 108.8 H 215.1 c -67.7,0 -98.6,51.1 -98.6,98.6 0,47.5 30.8,98.6 98.6,98.6 h 390.5 v 108.8 H 215.1 Z"
   id="path11"
   style="fill:#ffffff" />

			<path
   d="m 597.9,1119.3 v 93.5 H 215.1 c -141.7,0 -141.7,212.5 0,212.5 h 382.8 v 93.5 H 215.1 c -266.4,0 -266.4,-399.5 0,-399.5 h 382.8 m 15.3,-15.4 H 597.9 215.1 C 73.9,1103.9 0,1212.2 0,1319 c 0,56.1 19.1,108.5 53.8,147.5 39.3,44.2 95.1,67.6 161.3,67.6 h 382.8 15.3 v -15.3 -93.5 -15.3 H 597.9 215.1 c -34.8,0 -62.6,-14.9 -78.2,-41.9 -16.9,-29.3 -16.9,-68.7 0,-98 15.6,-27 43.4,-41.9 78.2,-41.9 h 382.8 15.3 v -15.3 -93.5 z"
   id="path12" />

		</g>

		<g
   id="g14">
			<path
   class="st1"
   d="m 663.9,1526.5 v -414.9 h 390.5 c 142.5,0 207.4,107.5 207.4,207.4 0,99.9 -64.9,207.4 -207.4,207.4 v 0 H 663.9 Z m 390.5,-108.9 c 67.7,0 98.6,-51.1 98.6,-98.6 0,-47.5 -30.8,-98.6 -98.6,-98.6 H 772.8 v 197.2 z"
   id="path13"
   style="fill:#ffffff" />

			<path
   d="m 1054.4,1119.3 v 0 c 266.4,0 266.4,399.5 0,399.5 H 671.6 v -2.1 -397.4 h 382.8 m -289.3,306 h 289.3 c 141.7,0 141.7,-212.5 0,-212.5 H 765.1 v 212.5 m 289.3,-321.4 H 671.6 656.3 v 15.3 397.4 2.1 15.3 h 15.3 382.8 c 66.2,0 122,-23.4 161.3,-67.6 34.7,-39 53.8,-91.4 53.8,-147.5 0,-56.1 -19.1,-108.5 -53.8,-147.5 -39.3,-44.1 -95.1,-67.5 -161.3,-67.5 z m -274,124.2 h 273.9 c 28.3,0 51.9,9.7 68.2,28.1 14.6,16.5 22.7,38.8 22.7,62.9 0,62.5 -47.1,90.9 -90.9,90.9 H 780.4 Z"
   id="path14" />

		</g>

		<g
   id="g16">
			<path
   class="st1"
   d="m 2358.3,1526.5 c -142.5,0 -207.4,-107.5 -207.4,-207.4 0,-54.2 18.4,-104.8 51.9,-142.4 37.8,-42.5 91.6,-65 155.6,-65 h 247.4 c 142.5,0 207.4,107.5 207.4,207.4 0,99.9 -64.9,207.4 -207.4,207.4 z m 0,-306 c -67.7,0 -98.6,51.1 -98.6,98.6 0,47.5 30.8,98.6 98.6,98.6 h 247.4 c 37.7,0 67.8,-16.2 84.8,-45.8 18.2,-31.6 18.2,-74.1 0,-105.7 -17,-29.5 -47.2,-45.8 -84.8,-45.8 h -247.4 z"
   id="path15"
   style="fill:#ffffff" />

			<path
   d="m 2605.7,1119.3 v 0 c 266.3,0 266.3,399.5 0,399.5 h -247.4 c -266.3,0 -266.3,-399.5 0,-399.5 h 247.4 m -247.4,306 h 247.4 v 0 c 141.7,0 141.7,-212.5 0,-212.5 0,0 0,0 0,0 h -247.4 c 0,0 0,-5 0,-5 0,0 0,1.3 0,5 -141.6,0 -141.6,212.5 0,212.5 m 247.4,-321.4 h -247.4 c -66.2,0 -122,23.4 -161.3,67.6 -34.7,39 -53.8,91.4 -53.8,147.5 0,56.1 19.1,108.5 53.8,147.5 39.3,44.2 95.1,67.6 161.3,67.6 h 247.4 c 141.2,0 215.1,-108.2 215.1,-215.1 0,-106.8 -73.9,-215.1 -215.1,-215.1 z m -232,124.2 h 232 c 62.5,0 90.9,47.1 90.9,90.9 0,43.8 -28.5,90.9 -90.9,90.9 h -247.4 c -62.5,0 -90.9,-47.1 -90.9,-90.9 0,-43.8 28.5,-90.9 90.9,-90.9 z"
   id="path16" />

		</g>

		<g
   id="g18">
			<path
   class="st1"
   d="m 1367.3,1370 c -30,0 -54.4,-24.4 -54.4,-54.4 0,-30 24.4,-54.4 54.4,-54.4 h 20.4 c 30,0 54.4,24.4 54.4,54.4 0,30 -24.4,54.4 -54.4,54.4 z"
   id="path17"
   style="fill:#ffffff" />

			<path
   d="m 1387.7,1268.8 c 25.8,0 46.8,20.9 46.8,46.8 0,25.9 -20.9,46.8 -46.8,46.8 h -20.4 c -25.8,0 -46.8,-20.9 -46.8,-46.8 0,-25.9 20.9,-46.8 46.8,-46.8 h 20.4 m 0,-15.3 h -20.4 c -34.2,0 -62.1,27.9 -62.1,62.1 0,34.2 27.9,62.1 62.1,62.1 h 20.4 c 34.2,0 62.1,-27.9 62.1,-62.1 0,-34.2 -27.9,-62.1 -62.1,-62.1 z"
   id="path18" />

		</g>

		<g
   id="g20">
			<path
   class="st1"
   d="m 1976.1,1526.5 v -96.8 c 0,-10.5 -3.6,-19.1 -10.3,-25.1 -6.1,-5.4 -14.3,-8.3 -23.2,-8.3 H 1607 v 130.3 h -108.8 v -414.9 h 444.5 c 43.8,0 80.7,15.4 106.7,44.6 23,25.8 35.6,60.5 35.6,97.7 0,32.2 -9.8,63 -27.7,87.6 18.1,24 27.7,54.3 27.7,88.1 v 96.8 z m -33.4,-239.1 c 23.1,0 33.5,-16.8 33.5,-33.5 0,-8.9 -3,-17.1 -8.3,-23.2 -6,-6.7 -14.7,-10.3 -25.1,-10.3 h -335.6 v 66.9 h 335.5 z"
   id="path19"
   style="fill:#ffffff" />

			<path
   d="m 1942.6,1119.3 c 89.8,0 134.6,67.3 134.6,134.6 0,31.6 -10,63.1 -29.8,87.7 18.2,21.8 29.8,51 29.8,88.1 v 0 89.1 h -93.5 v -89.1 c 0,-27.4 -20.6,-41.1 -41.1,-41.1 v 0 h -343.3 v 130.3 h -93.5 v -399.5 h 93.5 l 343.3,-0.1 v 0 M 1599.4,1295 h 343.3 v 0 c 27.4,0 41.1,-20.6 41.1,-41.1 0,-20.6 -13.7,-41.1 -41.1,-41.1 v 0 h -343.3 v 82.2 m 343.2,-191.1 v 0 h -343.3 -93.5 -15.3 v 15.3 399.5 15.3 h 15.3 93.5 15.3 v -15.3 -114.9 h 327.9 c 0,0 0,0 0,0 6.9,0 13.5,2.3 18.1,6.4 5.1,4.5 7.7,11.1 7.7,19.4 v 89.1 15.3 h 15.3 93.5 15.3 v -15.3 -89.1 c 0,-33.4 -8.9,-63.7 -26,-88.2 16.8,-25.1 26,-55.7 26,-87.5 0,-39 -13.3,-75.5 -37.5,-102.7 -27.3,-30.9 -66.2,-47.3 -112.3,-47.3 z m -327.9,124.2 h 327.9 c 0,0 0,0 0,0 8.3,0 14.8,2.6 19.4,7.7 4.1,4.6 6.4,11.2 6.4,18.1 0,11.9 -6.8,25.8 -25.8,25.8 h -327.9 z"
   id="path20" />

		</g>

		<g
   id="g22">
			<path
   class="st1"
   d="m 3394.1,1526.5 v -272.6 c 0,-8.9 -3,-17.1 -8.3,-23.2 -6,-6.7 -14.7,-10.3 -25.1,-10.3 h -113.6 v 306 h -108.8 v -306 H 3017 c -23.1,0 -33.5,16.8 -33.5,33.5 v 272.6 h -108.8 v -272.6 c 0,-37.1 12.6,-71.8 35.6,-97.7 26,-29.2 62.9,-44.6 106.7,-44.6 h 343.6 c 43.8,0 80.7,15.4 106.7,44.6 23,25.8 35.6,60.5 35.6,97.7 v 272.6 z"
   id="path21"
   style="fill:#ffffff" />

			<path
   d="m 3360.7,1119.3 c 89.8,0 134.6,67.3 134.6,134.6 v 0 264.9 h -93.5 v -264.9 c 0,-20.6 -13.7,-41.1 -41.1,-41.1 h -121.2 v 306 H 3146 v -306 h -129 c -27.4,0 -41.1,20.6 -41.1,41.1 v 264.9 h -93.5 v -264.9 0 c 0,-67.3 44.9,-134.6 134.6,-134.6 h 343.7 m 0,-15.4 H 3017 c -46.1,0 -85,16.3 -112.4,47.2 -24.2,27.2 -37.5,63.7 -37.5,102.7 v 264.9 15.3 h 15.3 93.5 15.3 v -15.3 -264.9 c 0,-6.9 2.3,-13.5 6.4,-18.1 4.5,-5.1 11.1,-7.7 19.4,-7.7 h 113.5 v 290.7 15.3 h 15.3 93.5 15.3 V 1518.7 1228 h 105.9 c 8.3,0 14.8,2.6 19.4,7.7 4.1,4.6 6.4,11.2 6.4,18.1 v 264.9 15.3 h 15.3 93.5 15.3 v -15.3 -264.9 c 0.2,-74.4 -51.3,-149.9 -149.7,-149.9 z"
   id="path22" />

		</g>

		<g
   id="g25">
			<path
   class="st1"
   d="m 3584,1271.5 v -64.3 c 0,-41.7 28.8,-83.9 83.9,-83.9 h 79.5 c 12.1,0 17.5,-8.8 17.5,-17.5 0,-8.7 -5.4,-17.5 -17.5,-17.5 H 3594.2 V 1022 h 153.2 c 55.1,0 83.9,42.2 83.9,83.9 0,41.7 -28.8,83.9 -83.9,83.9 h -79.5 c -11.2,0 -16.7,7.5 -17.5,15.5 H 3824 v 66.3 h -240 z"
   id="path23"
   style="fill:#ffffff" />

			<g
   id="g24">
				<path
   d="m 3747.4,1029.5 c 101.6,0 101.6,152.4 0,152.4 h -49.9 -9.6 -20 c -16.8,0 -25.2,12.6 -25.2,25.2 v 5.7 h 173.7 v 51 h -224.7 v -27 -24 -5.7 c 0,-38.1 25.4,-76.2 76.2,-76.2 h 29.7 49.9 c 33.6,0 33.6,-50.4 0,-50.4 h -145.6 v -51 h 145.5 m 0,-15.4 h -145.6 -15.3 v 15.3 51 15.3 h 15.3 145.6 c 8.9,0 9.9,6.9 9.9,9.9 0,3 -1,9.9 -9.9,9.9 h -49.9 -29.7 c -60.1,0 -91.6,46.1 -91.6,91.6 v 5.7 24 27 15.3 h 15.3 224.7 15.3 v -15.3 -51 -15.3 h -15.3 -151 c 0.8,-0.1 1.6,-0.2 2.5,-0.2 h 20 9.6 49.9 c 60.1,0 91.6,-46.1 91.6,-91.6 0,-23.7 -8.1,-46 -22.9,-62.6 -16.7,-19 -40.4,-29 -68.5,-29 z"
   id="path24" />

			</g>

		</g>

	</g>

</g>
  </g>
</svg>
