<?xml version="1.0" encoding="UTF-8" standalone="no"?>
<!-- Created with Inkscape (http://www.inkscape.org/) -->

<svg
   width="1015.7618mm"
   height="347.50867mm"
   viewBox="0 0 1015.7618 347.50867"
   version="1.1"
   id="svg1"
   inkscape:version="1.3.2 (091e20e, 2023-11-25, custom)"
   sodipodi:docname="pico.svg"
   xmlns:inkscape="http://www.inkscape.org/namespaces/inkscape"
   xmlns:sodipodi="http://sodipodi.sourceforge.net/DTD/sodipodi-0.dtd"
   xmlns="http://www.w3.org/2000/svg"
   xmlns:svg="http://www.w3.org/2000/svg">
  <sodipodi:namedview
     id="namedview1"
     pagecolor="#ffffff"
     bordercolor="#000000"
     borderopacity="0.25"
     inkscape:showpageshadow="2"
     inkscape:pageopacity="0.0"
     inkscape:pagecheckerboard="0"
     inkscape:deskcolor="#d1d1d1"
     inkscape:document-units="mm"
     inkscape:zoom="0.57291968"
     inkscape:cx="1865.8811"
     inkscape:cy="-14.836286"
     inkscape:window-width="3840"
     inkscape:window-height="2054"
     inkscape:window-x="-11"
     inkscape:window-y="-11"
     inkscape:window-maximized="1"
     inkscape:current-layer="layer1" />
  <defs
     id="defs1" />
  <g
     inkscape:label="Layer 1"
     inkscape:groupmode="layer"
     id="layer1"
     transform="translate(402.96042,25.135417)">
    <g
       id="g60"
       transform="matrix(0.26458333,0,0,0.26458333,-402.96042,-25.130498)">
	<g
   id="g59">
		<g
   id="g2">
			<polygon
   class="st0"
   points="3439.8,1266.5 2374.6,1278.2 1607.1,1225.9 895.5,1304.3 293.6,1212.9 11.2,213.5 480,90.6 786.7,112.5 1354,199.3 2319,213.7 3033,47.2 3826.9,219 "
   id="polygon1"
   style="fill:#473d7f" />

			<path
   class="st1"
   d="m 3033.1,56.4 781.7,169.2 -381.4,1031.9 -1058.5,11.6 -766.3,-52.1 -1.6,-0.1 -1.6,0.2 -709.6,78.1 -595,-90.3 -278.4,-985 458.4,-120.1 304.8,21.7 566.4,86.7 1.2,0.2 h 1.2 l 963.2,14.4 h 2.2 l 2.2,-0.5 711.1,-165.9 M 3033,37.9 2318,204.6 1354.8,190.2 787.7,103.4 479.1,81.4 0,207.1 286.5,1221 l 608.9,92.4 712,-78.4 767.1,52.2 1071.7,-11.8 392.9,-1063 z"
   id="path1"
   style="fill:#028693" />

		</g>

		<ellipse
   class="st2"
   cx="1340.2"
   cy="410.79999"
   rx="17.200001"
   ry="15.7"
   id="ellipse1"
   style="fill:#e3c820" />

		<path
   class="st2"
   d="m 1338.7,73.5 c -119.5,-4 -140.7,84.2 -140.7,109 0,62.7 81.5,67.3 84.9,92.4 1.9,13.8 3.5,44.3 43.4,51.4 3.6,0.6 4.1,5.7 0.6,6.9 -16.1,5.7 -37.4,15.6 -37.4,28.2 0,20.2 24.8,28.1 64.6,28.1 0,0 36.2,2.3 36.2,-9.8 0,-7 -15.2,-12.3 -28.1,-15.6 -3.7,-0.9 -3.6,-6.1 0.1,-7 15.3,-3.5 34.8,-10 34.8,-20.2 0,-9.8 -16.6,-16 -30.2,-19.4 -3.7,-0.9 -3.6,-6.2 0.2,-7 l 12.9,-2.6 c 5.6,-1.1 9.7,-5.9 10.5,-11.6 7.2,-55.7 76.8,-45.2 76.8,-122.3 0,-24.8 -28.1,-97.1 -128.6,-100.5 z m 58.9,136.3 c -14.7,11 -28.7,25.8 -39.4,52.6 -1.1,2.7 -3.6,4.6 -6.5,4.9 -5,0.4 -11.5,-0.1 -15.8,-0.5 -2.8,-0.3 -5.3,-2 -6.2,-4.7 -7.1,-20.4 -34.3,-42.6 -53.7,-52.8 -26.4,-13.9 -30.9,-28.5 -30.9,-36.3 0,-14.6 1.5,-53.9 85.8,-52.5 2,0 4.1,0 6.2,0.1 69.1,2.3 74.5,46.5 74.5,52.6 0,9.8 3.4,23.7 -14,36.6 z"
   id="path2"
   style="fill:#e3c820" />

		<path
   class="st2"
   d="M 1297.7,0 C 1276.4,-1.2 1277,56.1 1299,53.4 1322.9,50.3 1314.9,1 1297.7,0 Z"
   id="path3"
   style="fill:#e3c820" />

		<path
   class="st2"
   d="m 1175.1,36.8 c -10.5,11.5 39.8,58 50.9,41.3 12.1,-18.4 -40.4,-52.8 -50.9,-41.3 z"
   id="path4"
   style="fill:#e3c820" />

		<path
   class="st2"
   d="m 1130.9,116.1 c -9.6,17.4 35.5,51.2 47.3,29.9 12.8,-23.2 -41.8,-39.9 -47.3,-29.9 z"
   id="path5"
   style="fill:#e3c820" />

		<path
   class="st2"
   d="m 1428.9,10.6 c -19.9,-15.2 -57.3,41.3 -34.1,53 25.3,12.8 50.1,-40.8 34.1,-53 z"
   id="path6"
   style="fill:#e3c820" />

		<path
   class="st2"
   d="m 1527.2,81.8 c -6.6,-21.2 -73,5.3 -61.4,25.4 12.6,21.9 66.7,-8.3 61.4,-25.4 z"
   id="path7"
   style="fill:#e3c820" />

		<polygon
   class="st1"
   points="3446.1,1275.4 3559.4,968.8 2420.8,968.8 1610.6,914.3 896.7,993.6 188.1,872.9 286.5,1221 895.3,1313.4 1607.3,1235 2374.4,1287.2 "
   id="polygon7"
   style="fill:#028693" />

		<g
   id="g37">
			<path
   class="st2"
   d="m 319.5,1061.9 8.2,-31.5 h 89.6 v 31.5 h -31.6 v 105.5 l -32.5,3.2 v -108.7 z"
   id="path8"
   style="fill:#e3c820" />

			<path
   class="st2"
   d="m 455.6,1071.4 c 5.7,-6.3 15.5,-9.9 23.7,-9.9 27,0 36,18.2 36,44 v 61.8 l -29.9,3.2 v -62.8 c 0,-12.1 -5.9,-18 -14.9,-18 -9,0 -14.9,5.9 -14.9,18 v 59.6 l -29.9,3.2 v -142.4 l 29.9,-3.2 z"
   id="path9"
   style="fill:#e3c820" />

			<path
   class="st2"
   d="m 565.1,1136.5 c 3.4,5.3 10.3,7.5 16.1,7.5 10.5,0 20.5,-5.3 28.5,-12.1 l 15.7,24.2 c -13,9.5 -27.8,16.2 -44.8,16.2 -31.4,0 -53,-28.9 -53,-53.9 0,-30.9 23.4,-56.8 51.7,-56.8 20.7,0 40,12.5 49.2,31.9 z m 27.6,-44.5 c -3.1,-3.4 -8,-4.2 -13.2,-4.2 -13,0 -23.2,12.9 -23.2,26.3 v 3.6 z"
   id="path10"
   style="fill:#e3c820" />

			<path
   class="st2"
   d="m 782.3,1068.6 c -7.1,-5.3 -15.1,-9.9 -23.9,-9.9 -22.2,0 -37.9,16.8 -37.9,40.6 0,24 14.7,41.4 37.9,41.4 8.8,0 17.8,-5.1 24.7,-10.3 l -4,36.8 c -5.4,3 -17,5.1 -23,5.1 -40,0 -68.2,-29.1 -68.2,-72.1 0,-41.4 28.1,-72.9 68,-72.9 7.3,0 14.9,1.2 21.4,4.4 z"
   id="path11"
   style="fill:#e3c820" />

			<path
   class="st2"
   d="m 793.6,1116.9 c 0,-32.1 25.8,-55.4 54.8,-55.4 29.1,0 54.9,23.2 54.9,55.4 0,32.1 -25.8,55.4 -54.9,55.4 -29,-0.1 -54.8,-23.3 -54.8,-55.4 z m 54.7,26 c 13.4,0 25.1,-11.5 25.1,-26.1 0,-14.6 -11.7,-26.1 -25.1,-26.1 -13.2,0 -24.9,11.5 -24.9,26.1 0,14.6 11.7,26.1 24.9,26.1 z"
   id="path12"
   style="fill:#e3c820" />

			<path
   class="st2"
   d="m 914.6,1064.7 27.2,-3.2 v 16.6 h 0.4 c 3.3,-9.9 11.7,-16.6 22.4,-16.6 9.2,0 17.6,4.6 22.8,12.5 6.3,-8.3 16.3,-12.5 26.2,-12.5 29.9,0 34.7,24 34.7,49.1 v 56.8 l -29.9,3.2 v -64.2 c 0,-11.7 -4.2,-16.6 -10.9,-16.6 -5.7,0 -11.1,6.5 -11.1,16.6 v 61 l -29.9,3.2 v -64.2 c 0,-10.1 -3.3,-16.6 -10.9,-16.6 -5.7,0 -11.1,6.5 -11.1,16.6 v 61 l -29.9,3.2 z"
   id="path13"
   style="fill:#e3c820" />

			<path
   class="st2"
   d="m 1092,1202.9 -29.9,3.2 v -141.4 l 28,-3.2 v 19 h 0.4 c 5.4,-11.7 17.6,-19 29.9,-19 28.7,0 48.6,27.9 48.6,56.6 0,28.3 -23.4,54.1 -50.2,54.1 -9.8,0 -21.1,-2.6 -26.4,-11.9 h -0.4 z m 22.8,-59 c 14,0 24.3,-13.5 24.3,-27.1 0,-13.5 -10.3,-27.1 -24.3,-27.1 -14,0 -24.3,13.5 -24.3,27.1 0,13.6 10.3,27.1 24.3,27.1 z"
   id="path14"
   style="fill:#e3c820" />

			<path
   class="st2"
   d="m 1241,1066.4 29.9,-3.2 v 104.2 l -27.6,3.2 v -15.8 h -0.4 c -5.7,13.7 -17.4,17.4 -25.7,17.4 -27,0 -36,-18.2 -36,-44 v -61.8 l 29.9,-3.2 v 62.8 c 0,12.1 5.9,18 14.9,18 9,0 14.9,-5.9 14.9,-18 v -59.6 z"
   id="path15"
   style="fill:#e3c820" />

			<path
   class="st2"
   d="m 1281.8,1092.4 6.3,-26.3 h 9.4 v -20.6 l 29.9,-12.1 v 32.7 h 17 v 26.3 h -17 v 36.4 c 0,10.3 7.5,13.1 15.9,13.1 2.7,0 6.5,-0.6 7.8,-1.2 l -8.6,31.1 c -1.3,0.2 -3.1,0.4 -4.6,0.4 -26.4,0 -40.4,-13.3 -40.4,-41 v -38.8 z"
   id="path16"
   style="fill:#e3c820" />

			<path
   class="st2"
   d="m 1395.1,1136.5 c 3.4,5.3 10.3,7.5 16.1,7.5 10.5,0 20.5,-5.3 28.5,-12.1 l 15.7,24.2 c -13,9.5 -27.8,16.2 -44.8,16.2 -31.4,0 -53,-28.9 -53,-53.9 0,-30.9 23.4,-56.8 51.7,-56.8 20.7,0 40,12.5 49.2,31.9 z m 27.6,-44.5 c -3.1,-3.4 -8,-4.2 -13.2,-4.2 -13,0 -23.2,12.9 -23.2,26.3 v 3.6 z"
   id="path17"
   style="fill:#e3c820" />

			<path
   class="st2"
   d="m 1468.6,1066.4 26.4,-3.2 v 19.8 h 0.4 c 5.7,-18.2 15.5,-21.4 31.8,-21.4 l -8.4,31.5 c -14.9,-0.2 -20.3,6.1 -20.3,21.6 v 52.7 l -29.9,3.2 z"
   id="path18"
   style="fill:#e3c820" />

			<path
   class="st2"
   d="m 1575.1,1061.9 8.2,-31.5 h 89.6 v 31.5 h -31.6 v 105.5 l -32.5,3.2 v -108.7 z"
   id="path19"
   style="fill:#e3c820" />

			<path
   class="st2"
   d="m 1711.2,1071.4 c 5.7,-6.3 15.5,-9.9 23.7,-9.9 27,0 36,18.2 36,44 v 61.8 l -29.9,3.2 v -62.8 c 0,-12.1 -5.9,-18 -14.9,-18 -9,0 -14.9,5.9 -14.9,18 v 59.6 l -29.9,3.2 v -142.4 l 29.9,-3.2 z"
   id="path20"
   style="fill:#e3c820" />

			<path
   class="st2"
   d="m 1799.1,1066.2 c 7.7,-2.8 18.8,-4.6 27,-4.6 24.5,0 41.4,10.7 41.4,36.4 v 69.5 l -26,3.2 v -10.3 h -0.4 c -5.7,9.3 -14.4,11.9 -24.5,11.9 -22.2,0 -34.3,-15.4 -34.3,-37.6 0,-21 16.3,-34.1 35.2,-34.1 7.5,0 15.9,3 22.2,7.9 0.2,-1 0.2,-2 0.2,-3.2 0,-14.3 -6.3,-17.4 -19.1,-17.4 -8.8,0 -17.8,2.4 -25.8,6.3 z m 25.8,81.8 c 8,0 14.7,-5.1 14.7,-13.7 0,-8.5 -6.7,-13.5 -14.7,-13.5 -8.2,0 -14.9,5.1 -14.9,13.5 0,8.6 6.7,13.7 14.9,13.7 z"
   id="path21"
   style="fill:#e3c820" />

			<path
   class="st2"
   d="m 1877.6,1092.4 6.3,-26.3 h 9.4 v -20.6 l 29.9,-12.1 v 32.7 h 17 v 26.3 h -17 v 36.4 c 0,10.3 7.5,13.1 15.9,13.1 2.7,0 6.5,-0.6 7.8,-1.2 l -8.6,31.1 c -1.3,0.2 -3.1,0.4 -4.6,0.4 -26.4,0 -40.4,-13.3 -40.4,-41 v -38.8 z"
   id="path22"
   style="fill:#e3c820" />

			<path
   class="st2"
   d="m 2000.7,1061.9 8.2,-31.5 h 89.6 v 31.5 h -31.6 v 105.5 l -32.5,3.2 v -108.7 z"
   id="path23"
   style="fill:#e3c820" />

			<path
   class="st2"
   d="m 2136.8,1071.4 c 5.7,-6.3 15.5,-9.9 23.7,-9.9 27,0 36,18.2 36,44 v 61.8 l -29.9,3.2 v -62.8 c 0,-12.1 -5.9,-18 -14.9,-18 -9,0 -14.9,5.9 -14.9,18 v 59.6 l -29.9,3.2 v -142.4 l 29.9,-3.2 z"
   id="path24"
   style="fill:#e3c820" />

			<path
   class="st2"
   d="m 2250.9,1036.3 -19.1,19.8 -21.6,-16.6 18.8,-20.2 z m -4.4,131.1 -29.9,3.2 v -104.2 l 29.9,-3.2 z"
   id="path25"
   style="fill:#e3c820" />

			<path
   class="st2"
   d="m 2294.2,1077.3 h 0.4 c 7.7,-12.1 17.4,-15.8 25.7,-15.8 27,0 36,18.2 36,44 v 61.8 l -29.9,3.2 v -62.8 c 0,-12.1 -5.9,-18 -14.9,-18 -9,0 -14.9,5.9 -14.9,18 v 59.6 l -29.9,3.2 v -105.9 l 27.6,-3.2 v 15.9 z"
   id="path26"
   style="fill:#e3c820" />

			<path
   class="st2"
   d="m 2374.4,1028.2 29.9,-3.2 v 82 h 0.4 l 34.5,-47.1 30.8,9.9 -33.9,42.2 38.9,50.1 -33.7,8.5 -36.6,-50.7 h -0.4 v 47.5 l -29.9,3.2 z"
   id="path27"
   style="fill:#e3c820" />

			<path
   class="st2"
   d="m 2488.1,1136.5 c 5.9,6.3 13.2,9.5 21.6,9.5 5,0 13.4,-0.8 13.4,-8.3 0,-14.3 -45.9,0 -45.9,-42.2 0,-23.2 17.8,-33.9 37.3,-33.9 11.9,0 24.1,6.1 32.7,14.5 l -16.5,17.6 c -4.2,-3.4 -10.1,-5.9 -15.7,-5.9 -3.6,0 -10.1,0.8 -10.1,6.3 0,17.4 45.9,0 45.9,43.2 0,22.8 -19.3,35 -38.7,35 -16.7,0 -26,-3.4 -39.2,-14.1 z"
   id="path28"
   style="fill:#e3c820" />

			<path
   class="st2"
   d="m 2652.2,1027.2 v 140.2 l -32.5,3.2 v -140.2 z"
   id="path29"
   style="fill:#e3c820" />

			<path
   class="st2"
   d="m 2665,1092.4 6.3,-26.3 h 9.4 v -20.6 l 29.9,-12.1 v 32.7 h 17 v 26.3 h -17 v 36.4 c 0,10.3 7.5,13.1 15.9,13.1 2.7,0 6.5,-0.6 7.8,-1.2 l -8.6,31.1 c -1.3,0.2 -3.1,0.4 -4.6,0.4 -26.4,0 -40.4,-13.3 -40.4,-41 v -38.8 z"
   id="path30"
   style="fill:#e3c820" />

			<path
   class="st2"
   d="m 2762.1,1027.2 c 7.1,3.8 12.8,14.1 12.8,22.4 0,14.7 -10,29.3 -17.4,41 l -14.9,-7.7 c 3.4,-7.1 9.4,-17.8 9.4,-25.7 0,-6.9 -4.2,-13.5 -10.3,-15.6 z"
   id="path31"
   style="fill:#e3c820" />

			<path
   class="st2"
   d="m 2789.5,1136.5 c 5.9,6.3 13.2,9.5 21.6,9.5 5,0 13.4,-0.8 13.4,-8.3 0,-14.3 -45.9,0 -45.9,-42.2 0,-23.2 17.8,-33.9 37.3,-33.9 11.9,0 24.1,6.1 32.7,14.5 l -16.5,17.6 c -4.2,-3.4 -10.1,-5.9 -15.7,-5.9 -3.6,0 -10.1,0.8 -10.1,6.3 0,17.4 45.9,0 45.9,43.2 0,22.8 -19.3,35 -38.7,35 -16.7,0 -26,-3.4 -39.2,-14.1 z"
   id="path32"
   style="fill:#e3c820" />

			<path
   class="st2"
   d="m 2974.4,1027.2 70.8,138 -33.1,7.1 -13.4,-29.7 h -50 l -13.2,29.7 -31.6,-7.1 70.1,-138 z m -17.8,89.7 h 34.8 L 2974,1083 Z"
   id="path33"
   style="fill:#e3c820" />

			<path
   class="st2"
   d="m 3089.5,1061.9 8.2,-31.5 h 89.6 v 31.5 h -31.6 v 105.5 l -32.5,3.2 v -108.7 z"
   id="path34"
   style="fill:#e3c820" />

			<path
   class="st2"
   d="m 3176.8,1116.9 c 0,-32.1 25.8,-55.4 54.8,-55.4 29.1,0 54.9,23.2 54.9,55.4 0,32.1 -25.8,55.4 -54.9,55.4 -29,-0.1 -54.8,-23.3 -54.8,-55.4 z m 54.7,26 c 13.4,0 25.1,-11.5 25.1,-26.1 0,-14.6 -11.7,-26.1 -25.1,-26.1 -13.2,0 -24.9,11.5 -24.9,26.1 0,14.6 11.7,26.1 24.9,26.1 z"
   id="path35"
   style="fill:#e3c820" />

			<path
   class="st2"
   d="m 3338,1123.3 23.7,-61.8 28.7,7.7 -58,137 -31.2,-3.2 21.3,-45.1 -37.5,-88.9 29.1,-7.5 z"
   id="path36"
   style="fill:#e3c820" />

			<path
   class="st2"
   d="m 3397.2,1150.6 20.5,-21.2 20.5,21.2 -20.5,21.2 z m 6.3,-25.9 -2.7,-95 33.9,-4.8 -3.4,96.6 z"
   id="path37"
   style="fill:#e3c820" />

		</g>

		<rect
   x="2007"
   y="1191.4"
   class="st2"
   width="538.29999"
   height="21"
   id="rect37"
   style="fill:#e3c820" />

		<path
   class="st4"
   d="m 1397.6,209.8 c 17.4,-12.9 14,-26.9 14,-36.7 0,-6.1 -5.3,-50.3 -74.5,-52.6 -2.1,-0.1 -4.2,-0.1 -6.2,-0.1 -84.3,-1.5 -85.8,37.9 -85.8,52.5 0,7.9 4.5,22.4 30.9,36.3 19.4,10.2 46.6,32.4 53.7,52.8 0.9,2.6 3.4,4.4 6.2,4.7 4.4,0.5 10.8,1 15.8,0.5 2.9,-0.3 5.4,-2.2 6.5,-4.9 10.8,-26.7 24.7,-41.5 39.4,-52.5 z"
   id="path38"
   style="fill:#ffffff" />

		<path
   class="st5"
   d="m 3102.7,337.8 c -225.9,0 -343.8,116.2 -343.8,210.5 v 19.3 c 0,58.8 74.3,174.3 359.9,174.3 216.1,0 312.5,-106.7 312.5,-185.1 v -75.7 c 0,-76.4 -94.5,-143.3 -328.6,-143.3 z m 258.4,206 c 0,65.1 -52.7,117.8 -117.8,117.8 h -283.4 c -65.1,0 -117.8,-52.7 -117.8,-117.8 V 491 c 0,-65.1 52.7,-117.8 117.8,-117.8 h 283.4 c 65.1,0 117.8,52.7 117.8,117.8 z"
   id="path39"
   style="fill:#d42027" />

		<g
   id="g53">
			<path
   class="st2"
   d="m 2873.3,160.2 c -33.2,23.1 43.3,133 87.9,112.1 22.6,-10.5 -55.9,-134.4 -87.9,-112.1 z"
   id="path40"
   style="fill:#e3c820" />

			<path
   class="st2"
   d="m 3248.2,159.2 c -37.9,-12.6 -121.8,96.5 -91.2,115.9 37.4,23.6 140.7,-99.4 91.2,-115.9 z"
   id="path41"
   style="fill:#e3c820" />

			<path
   class="st2"
   d="m 3511.1,262.1 c -10.3,-11.3 -161.4,49.7 -132.3,85.5 26.6,32.7 157,-58.6 132.3,-85.5 z"
   id="path42"
   style="fill:#e3c820" />

			<path
   class="st2"
   d="m 3601.6,533.8 c 11.2,-37.7 -156.9,-52.9 -164,-13.7 -5.7,32.1 153.2,50.2 164,13.7 z"
   id="path43"
   style="fill:#e3c820" />

			<path
   class="st2"
   d="m 3503.2,757.9 c 25.3,-28.4 -109,-114 -131.3,-82.5 -18.3,25.9 106.8,110 131.3,82.5 z"
   id="path44"
   style="fill:#e3c820" />

			<path
   class="st2"
   d="m 2609.6,319.9 c 25.2,-28.7 151.7,38 136.3,83.2 -12.6,36.9 -163.2,-52.5 -136.3,-83.2 z"
   id="path45"
   style="fill:#e3c820" />

			<path
   class="st2"
   d="m 2833.1,695.5 c 22.6,37 -97.5,125.2 -125.6,87 -19.9,-27.2 109.5,-113.6 125.6,-87 z"
   id="path46"
   style="fill:#e3c820" />

			<path
   class="st2"
   d="m 3021.1,752.5 c 33.4,15.8 -34.7,141.9 -64.8,127.5 -32.7,-15.7 33.3,-142.4 64.8,-127.5 z"
   id="path47"
   style="fill:#e3c820" />

			<path
   class="st2"
   d="m 3199.1,746.4 c 47.4,-19.9 97,120.9 55.1,133.2 -38,11.1 -89.9,-118.5 -55.1,-133.2 z"
   id="path48"
   style="fill:#e3c820" />

			<path
   class="st2"
   d="m 2566.6,579.5 c 5.5,-31.1 155.1,-45.8 159.5,-1.8 2.6,25.8 -164.4,29.6 -159.5,1.8 z"
   id="path49"
   style="fill:#e3c820" />

			<path
   class="st2"
   d="m 3096.9,404.4 c -0.7,0.9 -64,23.1 -54.6,39.2 5.5,9.4 14.4,4.2 21.6,-1.1 27.2,-19.8 41.1,7.7 23.6,17.8 -36.9,21.3 -80.9,2.2 -80.4,-22.2 0.5,-24.6 29.4,-43.1 29.4,-43.1"
   id="path50"
   style="fill:#e3c820" />

			<path
   class="st2"
   d="m 3228.8,426.6 c -0.7,0.9 -80.5,4.7 -69,27.2 4.9,9.7 12.4,0.5 20.9,-2 14.4,-4.1 27.5,21.1 7.6,24.1 -23.5,3.5 -68.4,-2.9 -68.4,-30.2 0,-24.6 29.4,-43.1 29.4,-43.1"
   id="path51"
   style="fill:#e3c820" />

			<path
   class="st6"
   d="m 2979.4,533 c 0,0 55,30.2 102,30.2 47,0 60.9,0 60.9,0 15,0 45.1,-0.7 61.4,-5.4"
   id="path52"
   style="fill:none;stroke:#e3c820;stroke-width:31.4162;stroke-linecap:round;stroke-miterlimit:10" />

			<path
   class="st2"
   d="m 3300.8,490.9 c -17.1,23.8 -24.9,67 -45.9,85 -48.5,41.6 -97,48.5 -163.4,48.5 -119.2,0 -166.1,-29.3 -200.2,-77.7 -16,-22.8 -2.5,-47.2 10.3,-65.2 18.3,-25.8 44.9,-74.5 178.7,-74.5 109.5,0 158.7,32.9 177.5,46.3 16.5,11.8 25.7,17.8 36.3,20.1 8,1.7 11.4,10.9 6.7,17.5 z M 3080.2,315.3 c -225.9,0 -343.8,116.2 -343.8,210.5 v 19.3 c 0,58.8 74.3,174.3 359.9,174.3 216.1,0 312.5,-106.7 312.5,-185.1 v -75.7 c 0,-76.5 -94.6,-143.3 -328.6,-143.3 z"
   id="path53"
   style="fill:#e3c820" />

		</g>

		<path
   class="st5"
   d="m 647.9,252 c -279.8,-17 -263.4,86.6 -262.8,116 0,0 -71.7,-9.8 -71.7,24.2 0,53 50.3,83.6 54.9,153.2 2.4,36.7 26.4,208.6 156.7,224.5 60.6,7.4 120.2,-10 118.2,-81.5 -0.9,-32.4 -32,-67 -36,-89 -0.7,-3.6 2.2,-6.9 5.9,-6.9 C 860.2,592.6 921.7,502 929.3,433.4 936.8,365.3 894.5,267 647.9,252 Z m 78.4,243.4 H 498.5 V 307.2 h 227.8 z"
   id="path54"
   style="fill:#d42027" />

		<path
   class="st5"
   d="m 1450.8,656.8 c 12.1,-78.8 29.2,-168.9 -87.3,-168.9 -78.8,0 -121.1,31.6 -134.1,87.5 -5.4,23.5 5.3,72.7 0.9,93.3 -6.5,30 -20.8,92.2 8.3,132.3 33.3,45.9 178.4,70.5 212.3,-44 10,-33.2 -6.5,-58.5 -0.1,-100.2 z"
   id="path55"
   style="fill:#d42027" />

		<path
   class="st5"
   d="m 1779.5,572.2 c -0.1,-8.1 3.2,-15.9 9.1,-21.5 80.7,-76.3 238.4,-165 425.8,-165 58.8,0 130.4,40.6 130.4,60.8 0,39.7 -58.7,34.9 -127.4,50.2 -100,22.4 -221.6,54.8 -221.6,117.8 0,32.4 4.2,78.7 95,78.7 111.6,0 156.1,-66 274.9,-70.2 36.9,-1.3 81,12.4 81,48.3 0,33.6 -120.4,120.1 -261.5,120.1 h -151.5 c -75.1,0 -253,-58.7 -253,-157.3 z"
   id="path56"
   style="fill:#d42027" />

		<path
   class="st2"
   d="m 625.3,229.4 c -279.8,-17 -263.4,86.6 -262.8,116 0,0 -71.7,-9.8 -71.7,24.2 0,53 50.3,83.6 54.9,153.2 2.4,36.7 26.4,208.6 156.7,224.5 60.6,7.4 120.2,-10 118.2,-81.5 -0.9,-32.4 -32,-67 -36,-89 -0.7,-3.6 2.2,-6.9 5.9,-6.9 247.1,0.1 308.6,-90.5 316.2,-159.1 7.6,-68 -34.8,-166.4 -281.4,-181.4 z M 700,391.3 c -26.7,49.7 -107.5,60.3 -140.7,62.6 -8.6,0.6 -16.5,-4.5 -19.6,-12.5 l -23.6,-60.9 c -2.7,-7 0.6,-14.8 7.5,-17.7 40.3,-17.3 66,-29.5 101.4,-22.2 19.1,4 87.3,27.8 75,50.7 z"
   id="path57"
   style="fill:#e3c820" />

		<path
   class="st2"
   d="m 1428.3,634.2 c 12.1,-78.8 29.2,-168.9 -87.3,-168.9 -78.8,0 -121.1,31.6 -134.1,87.5 -5.4,23.5 5.3,72.7 0.9,93.3 -6.5,30 -20.8,92.2 8.3,132.3 33.3,45.9 178.4,70.5 212.3,-44 9.9,-33.1 -6.6,-58.5 -0.1,-100.2 z"
   id="path58"
   style="fill:#e3c820" />

		<path
   class="st2"
   d="m 1756.9,549.6 c -0.1,-8.1 3.2,-15.9 9.1,-21.5 80.7,-76.3 238.4,-165 425.8,-165 58.8,0 130.4,40.6 130.4,60.8 0,39.7 -58.7,34.9 -127.4,50.2 -100,22.4 -221.6,54.8 -221.6,117.8 0,32.4 4.2,78.7 95,78.7 111.6,0 156.1,-66 274.9,-70.2 36.9,-1.3 81,12.4 81,48.3 0,33.6 -120.4,120.1 -261.5,120.1 h -151.5 c -75.1,0 -253,-58.7 -253,-157.3 z"
   id="path59"
   style="fill:#e3c820" />

	</g>

</g>
  </g>
</svg>
