<?xml version="1.0" encoding="UTF-8" standalone="no"?>
<!-- Created with sK1/UniConvertor (http://sk1project.org/) -->

<svg
   width="2879.25pt"
   height="1220.4143pt"
   viewBox="0 0 2879.25 1220.4143"
   fill-rule="evenodd"
   version="1.1"
   id="svg63"
   sodipodi:docname="piece.svg"
   inkscape:version="1.3.2 (091e20e, 2023-11-25, custom)"
   xmlns:inkscape="http://www.inkscape.org/namespaces/inkscape"
   xmlns:sodipodi="http://sodipodi.sourceforge.net/DTD/sodipodi-0.dtd"
   xmlns="http://www.w3.org/2000/svg"
   xmlns:svg="http://www.w3.org/2000/svg">
  <defs
     id="defs63" />
  <sodipodi:namedview
     id="namedview63"
     pagecolor="#ffffff"
     bordercolor="#000000"
     borderopacity="0.25"
     inkscape:showpageshadow="2"
     inkscape:pageopacity="0.0"
     inkscape:pagecheckerboard="true"
     inkscape:deskcolor="#d1d1d1"
     inkscape:document-units="pt"
     inkscape:zoom="0.40511526"
     inkscape:cx="2232.6979"
     inkscape:cy="956.51791"
     inkscape:window-width="3840"
     inkscape:window-height="2054"
     inkscape:window-x="-11"
     inkscape:window-y="-11"
     inkscape:window-maximized="1"
     inkscape:current-layer="svg63" />
  <g
     id="g1"
     transform="matrix(1.7132343,0,0,1.7132343,-1227.3217,-2319.1005)">
    <path
       id="path1"
       style="fill:#2c2c2b;stroke:none"
       d="m 224.72201,1206.29 c -0.459,-0.17 -3.00203,5.66 -5.67903,13.01 -2.678,7.36 -4.47601,13.46 -4.01601,13.63 0.459,0.16 3.00303,-5.66 5.68002,-13.02 2.679,-7.36 4.47502,-13.46 4.01502,-13.62 z m 0,3.54 c -0.027,-0.01 -0.061,0.01 -0.10199,0.04 -0.482,2.21 -1.96103,6.89 -3.91303,12.25 -2.52299,6.94 -4.92596,12.51 -5.57896,12.99 -0.179,0.82 -0.22606,1.31 -0.10106,1.36 0.459,0.17 3.00303,-5.66 5.68002,-13.02 2.679,-7.35 4.47502,-13.45 4.01502,-13.62 z m -22.221,5.21 v 12.63 h 1.172 v -5.53 h 0.851 c 0.879,0 1.78601,-0.13 2.49701,-0.83 0.656,-0.66 1.00501,-1.7 1.00501,-2.72 0,-1.12 -0.40403,-2.22 -1.18503,-2.88 -0.768,-0.63 -1.70299,-0.67 -2.60999,-0.67 z m 30.99297,0 v 12.63 h 5.456 v -1.31 h -4.284 v -4.95 h 4.15904 v -1.31 h -4.15904 v -3.75 h 4.284 v -1.31 z m 34.77099,0 v 12.63 h 5.455 v -1.31 h -4.28294 v -4.95 h 4.15699 v -1.31 h -4.15699 v -3.75 h 4.28294 v -1.31 z m -13.60199,0.44 c -2.71199,0 -4.93498,2.67 -4.93498,5.92 0,3.22 2.25999,5.83 4.93498,5.83 1.002,0 2.00803,-0.41 2.82502,-1.11 v -1.57 c -0.75399,0.9 -1.795,1.51 -2.864,1.51 -2.123,0 -3.84201,-2.2 -3.84201,-4.7 0,-2.51 1.708,-4.71 3.81699,-4.71 1.094,0 2.13503,0.58 2.88902,1.51 v -1.57 c -0.84199,-0.75 -1.77102,-1.11 -2.82502,-1.11 z m -50.98997,0.87 h 0.43198 c 1.369,0 2.75004,0.15 2.75004,2.21 0,1.81 -1.10305,2.28 -2.40105,2.28 h -0.78097 z"
       transform="matrix(23.597554,0,0,23.597554,-4062.1515,-27111.769)" />
  </g>
</svg>
