<?xml version="1.0" encoding="UTF-8" standalone="no"?>
<!-- Created with Inkscape (http://www.inkscape.org/) -->

<svg
   width="1016mm"
   height="159.35854mm"
   viewBox="0 0 1016 159.35854"
   version="1.1"
   id="svg1"
   inkscape:version="1.3.2 (091e20e, 2023-11-25, custom)"
   sodipodi:docname="pokemonmini.svg"
   xmlns:inkscape="http://www.inkscape.org/namespaces/inkscape"
   xmlns:sodipodi="http://sodipodi.sourceforge.net/DTD/sodipodi-0.dtd"
   xmlns="http://www.w3.org/2000/svg"
   xmlns:svg="http://www.w3.org/2000/svg">
  <sodipodi:namedview
     id="namedview1"
     pagecolor="#ffffff"
     bordercolor="#000000"
     borderopacity="0.25"
     inkscape:showpageshadow="2"
     inkscape:pageopacity="0.0"
     inkscape:pagecheckerboard="0"
     inkscape:deskcolor="#d1d1d1"
     inkscape:document-units="mm"
     inkscape:zoom="0.40511539"
     inkscape:cx="276.46444"
     inkscape:cy="-761.51143"
     inkscape:window-width="3840"
     inkscape:window-height="2054"
     inkscape:window-x="-11"
     inkscape:window-y="-11"
     inkscape:window-maximized="1"
     inkscape:current-layer="layer1" />
  <defs
     id="defs1" />
  <g
     inkscape:label="Layer 1"
     inkscape:groupmode="layer"
     id="layer1"
     transform="translate(402.96042,-68.791666)">
    <g
       id="g29"
       transform="matrix(0.26458333,0,0,0.26458333,-402.96042,68.765208)">
	<g
   id="g13">
		<path
   d="m 1082.5,285 c -30,0 -57.9,-18.3 -69.2,-47.5 l -21.4,-55.4 c -13.4,-34.7 1,-73.9 33.6,-91.7 L 1173.6,9.2 c 11,-6.1 23.3,-9.1 35.7,-9.1 8.1,0 16.2,1.3 24,4 19.7,6.7 35.7,21.4 44,40.5 l 30.2,69.1 c 7.9,18 8.2,38.5 1.1,56.8 -7.1,18.3 -21.4,33 -39.4,40.9 -158.2,68.9 -161.1,69.6 -168.6,71.5 -6.2,1.4 -12.2,2.1 -18.1,2.1 z"
   id="path1" />

		<path
   d="m 3019,598.2 c -36.8,0 -69.7,-16.8 -91.5,-43 -21.8,26.3 -54.7,43 -91.5,43 -36.8,0 -69.7,-16.8 -91.5,-43 -21.8,26.3 -54.7,43 -91.5,43 -65.5,0 -118.9,-53.3 -118.9,-118.9 V 283.8 c 0,-65.6 53.3,-118.9 118.9,-118.9 h 366 c 65.5,0 118.9,53.3 118.9,118.9 v 195.6 c 0,65.5 -53.4,118.8 -118.9,118.8 z"
   id="path2" />

		<path
   class="st0"
   d="M 3019,239 H 2798.2 2765.8 2653 c -24.7,0 -44.7,20 -44.7,44.7 v 26.9 17.8 150.9 c 0,24.7 20,44.7 44.7,44.7 24.7,0 44.7,-20 44.7,-44.7 V 328.5 h 68 25.5 v 150.9 c 0,24.7 20,44.7 44.7,44.7 24.7,0 44.7,-20 44.7,-44.7 V 328.5 h 93.5 v 150.9 c 0,24.7 20,44.7 44.7,44.7 24.7,0 44.7,-20 44.7,-44.7 v -150.9 -14 -30.7 C 3063.7,259.1 3043.7,239 3019,239 Z"
   id="path3"
   style="fill:#ffe900" />

		<path
   d="m 3548.4,598.2 c -36.8,0 -69.7,-16.8 -91.5,-43 -21.8,26.3 -54.7,43 -91.5,43 -65.5,0 -118.9,-53.3 -118.9,-118.9 V 283.8 c 0,-65.6 53.3,-118.9 118.9,-118.9 h 183 c 65.5,0 118.9,53.3 118.9,118.9 v 195.6 c 0,65.5 -53.3,118.8 -118.9,118.8 z"
   id="path4" />

		<path
   class="st0"
   d="m 3548.4,239 h -183 c -24.7,0 -44.7,20 -44.7,44.7 v 26.9 17.8 150.9 c 0,24.7 20,44.7 44.7,44.7 24.7,0 44.7,-20 44.7,-44.7 V 328.5 h 93.5 v 150.9 c 0,24.7 20,44.7 44.7,44.7 24.7,0 44.7,-20 44.7,-44.7 v -150.9 -14 -30.7 c 0.1,-24.7 -19.9,-44.8 -44.6,-44.8 z"
   id="path5"
   style="fill:#ffe900" />

		<path
   d="m 3192.2,598.2 c -65.5,0 -118.9,-53.3 -118.9,-118.9 v -74.1 c 0,-65.6 53.3,-118.9 118.9,-118.9 65.6,0 118.9,53.3 118.9,118.9 v 74.1 c 0,65.6 -53.3,118.9 -118.9,118.9 z"
   id="path6" />

		<path
   d="m 3192.2,405.1 c -65.5,0 -118.9,-53.3 -118.9,-118.9 0,-65.6 53.3,-118.9 118.9,-118.9 65.6,0 118.9,53.3 118.9,118.9 0,65.6 -53.3,118.9 -118.9,118.9 z"
   id="path7" />

		<path
   class="st0"
   d="m 3192.2,241.5 c -24.7,0 -44.7,20 -44.7,44.7 0,24.7 20,44.7 44.7,44.7 24.7,0 44.7,-20 44.7,-44.7 0,-24.7 -20,-44.7 -44.7,-44.7 z"
   id="path8"
   style="fill:#ffe900" />

		<path
   d="m 3721.1,598.2 c -65.5,0 -118.9,-53.3 -118.9,-118.9 v -74.1 c 0,-65.6 53.3,-118.9 118.9,-118.9 65.6,0 118.9,53.4 118.9,119 v 74.1 c 0,65.5 -53.3,118.8 -118.9,118.8 z"
   id="path9" />

		<path
   d="m 3721.1,405.1 c -65.5,0 -118.9,-53.3 -118.9,-118.9 0,-65.6 53.3,-118.9 118.9,-118.9 65.6,0 118.9,53.4 118.9,118.9 0,65.6 -53.3,118.9 -118.9,118.9 z"
   id="path10" />

		<path
   class="st0"
   d="m 3721.1,330.9 c 24.7,0 44.7,-20 44.7,-44.7 0,-24.7 -20,-44.7 -44.7,-44.7 -24.7,0 -44.7,20 -44.7,44.7 0,24.7 20,44.7 44.7,44.7 z"
   id="path11"
   style="fill:#ffe900" />

		<path
   class="st0"
   d="m 3192.2,360.6 c -24.7,0 -44.7,20 -44.7,44.7 v 74.1 c 0,24.7 20,44.7 44.7,44.7 24.7,0 44.7,-20 44.7,-44.7 v -74.1 c 0,-24.7 -20,-44.7 -44.7,-44.7 z"
   id="path12"
   style="fill:#ffe900" />

		<path
   class="st0"
   d="m 3721.1,360.6 c -24.7,0 -44.7,20 -44.7,44.7 v 74.1 c 0,24.7 20,44.7 44.7,44.7 24.7,0 44.7,-20 44.7,-44.7 v -74.1 c 0,-24.7 -20,-44.7 -44.7,-44.7 z"
   id="path13"
   style="fill:#ffe900" />

	</g>

	<g
   id="g28">
		<path
   d="M 74.2,595.9 C 33.2,595.9 0,562.7 0,521.7 V 144.8 c 0,-41 33.2,-74.2 74.2,-74.2 h 119.9 c 211.6,0 243.2,124 243.2,197.8 0,108.2 -72.8,181.6 -188.5,193.9 v 59.4 c 0,41 -33.2,74.2 -74.2,74.2 H 74.2 Z"
   id="path14" />

		<path
   d="m 542.1,602.4 c -130.4,0 -221.4,-90.9 -221.4,-221.1 0,-130.5 91,-221.6 221.4,-221.6 130.4,0 221.4,91.1 221.4,221.6 0,130.2 -91.1,221.1 -221.4,221.1 z"
   id="path15" />

		<path
   d="m 895,595.9 c -12.6,0 -24.8,-3.2 -35.5,-9 -10.6,5.8 -22.6,9 -35.5,9 h -87.5 c -41,0 -74.2,-33.2 -74.2,-74.2 v -405 c 0,-41 33.2,-74.2 74.2,-74.2 H 824 c 41,0 74.2,33.2 74.2,74.2 v 49.5 h 95.4 c 27.5,0 52.7,15.2 65.6,39.5 12.9,24.3 11.2,53.7 -4.3,76.4 l -60.7,89 69.5,111.2 c 14.3,22.9 15.1,51.7 2,75.3 -13.1,23.6 -37.9,38.2 -64.9,38.2 H 895 Z"
   id="path16" />

		<path
   d="M 1173.4,602.4 C 1045.1,602.4 952,509.2 952,380.8 c 0,-130.2 86.2,-221.1 209.7,-221.1 122.7,0 202,91 202,231.9 v 17.8 c 0,21.3 -9,40.5 -23.3,54 v 47 c 0,29.4 -17.4,56 -44.3,67.9 -36.3,16 -77.6,24.1 -122.7,24.1 z"
   id="path17" />

		<path
   d="m 1684.2,595.9 c -15.7,0 -30.3,-4.9 -42.3,-13.2 -12,8.3 -26.6,13.2 -42.3,13.2 h -87.5 c -15.7,0 -30.3,-4.9 -42.3,-13.2 -12,8.3 -26.6,13.2 -42.3,13.2 H 1340 c -41,0 -74.2,-33.2 -74.2,-74.2 V 240.4 c 0,-41 33.2,-74.2 74.2,-74.2 h 79.7 c 9.7,0 18.9,1.9 27.4,5.2 20.2,-7.7 42.4,-11.7 65.9,-11.7 30.9,0 59.1,7.6 83,21.7 25.4,-14.2 54.6,-21.7 86.1,-21.7 74.6,0 163.6,34 163.6,196.2 v 165.8 c 0,41 -33.2,74.2 -74.2,74.2 z"
   id="path18" />

		<path
   d="m 1966.1,602.4 c -130.4,0 -221.4,-90.9 -221.4,-221.1 0,-130.5 91,-221.6 221.4,-221.6 130.4,0 221.4,91.1 221.4,221.6 0,130.2 -91,221.1 -221.4,221.1 z"
   id="path19" />

		<path
   d="m 2342.8,595.9 c -18,0 -34.5,-6.4 -47.4,-17.1 -12.8,10.7 -29.4,17.1 -47.4,17.1 h -87.5 c -41,0 -74.2,-33.2 -74.2,-74.2 V 240.4 c 0,-41 33.2,-74.2 74.2,-74.2 h 79.7 c 9.7,0 18.9,1.9 27.4,5.2 20.2,-7.7 42.4,-11.7 65.9,-11.7 100.6,0 170.9,76.7 170.9,186.5 v 175.5 c 0,41 -33.2,74.2 -74.2,74.2 z m -75.9,-229.7"
   id="path20" />

		<path
   class="st1"
   d="m 74.2,144.8 h 119.9 c 115,0 169,38.9 169,123.7 0,76.1 -55.6,121.5 -149.6,121.5 H 174.6 V 521.8 H 74.2 Z m 100.4,173.9 h 25.9 c 34.6,0 62.1,-12.4 62.1,-51.8 0,-38.3 -27.5,-50.8 -62.1,-50.8 h -25.9 z"
   id="path21"
   style="fill:#ffffff" />

		<path
   class="st1"
   d="m 394.9,381.3 c 0,-93.4 63.6,-147.4 147.2,-147.4 83.6,0 147.2,54 147.2,147.4 0,92.9 -63.6,146.9 -147.2,146.9 -83.6,0 -147.2,-54 -147.2,-146.9 z m 204,0 c 0,-42.1 -16.5,-79.4 -56.9,-79.4 -40.4,0 -56.9,37.3 -56.9,79.4 0,41.6 16.5,78.8 56.9,78.8 40.4,0 56.9,-37.2 56.9,-78.8 z"
   id="path22"
   style="fill:#ffffff" />

		<path
   class="st1"
   d="M 736.5,116.7 H 824 v 241.9 h 1 l 72.9,-118.3 h 95.7 l -87.9,129.1 95.2,152.3 H 895 L 825,382.4 h -1 v 139.3 h -87.5 z"
   id="path23"
   style="fill:#ffffff" />

		<path
   class="st1"
   d="m 1340.2,240.4 h 79.7 v 51.8 h 1 c 17.5,-40.5 52.5,-58.3 92.3,-58.3 35.9,0 65.6,17.3 79.2,54 20.4,-37.8 53.9,-54 89.9,-54 72.9,0 89.4,45.9 89.4,122 v 165.8 h -87.5 V 370.5 c 0,-31.9 -10.2,-55.6 -35,-55.6 -31.1,0 -49.6,27.5 -49.6,88 v 118.8 h -87.5 V 370.5 c 0,-31.9 -10.2,-55.6 -35,-55.6 -31.1,0 -49.6,27.5 -49.6,88 V 521.7 H 1340 V 240.4 Z"
   id="path24"
   style="fill:#ffffff" />

		<path
   class="st1"
   d="m 1818.9,381.3 c 0,-93.4 63.6,-147.4 147.2,-147.4 83.6,0 147.2,54 147.2,147.4 0,92.9 -63.6,146.9 -147.2,146.9 -83.6,0 -147.2,-54 -147.2,-146.9 z m 204,0 c 0,-42.1 -16.5,-79.4 -56.9,-79.4 -40.4,0 -56.9,37.3 -56.9,79.4 0,41.6 16.5,78.8 56.9,78.8 40.4,0 56.9,-37.2 56.9,-78.8 z"
   id="path25"
   style="fill:#ffffff" />

		<path
   class="st1"
   d="m 2160.6,240.4 h 79.7 v 51.8 h 1 c 17.5,-40.5 52.5,-58.3 92.3,-58.3 69,0 96.7,54 96.7,112.3 v 175.5 h -87.5 V 385.6 c 0,-52.9 -16.5,-70.7 -40.3,-70.7 -36,0 -54.4,27.5 -54.4,88 v 118.8 h -87.5 z"
   id="path26"
   style="fill:#ffffff" />

		<path
   class="st1"
   d="m 1114.6,409.4 c 4.9,38.9 31.6,54 74.4,54 23.8,0 51,-5.9 77.3,-21.6 v 68.6 c -28.2,12.4 -60.3,17.8 -92.8,17.8 -83.6,0 -147.2,-54.5 -147.2,-147.4 0,-92.9 56.9,-146.9 135.6,-146.9 93.8,0 127.8,74 127.8,157.7 v 17.8 z m 96.2,-55.1 c 0,-32.4 -13.6,-58.9 -48.6,-58.9 -31.6,0 -46.6,26.5 -48.6,58.9 z"
   id="path27"
   style="fill:#ffffff" />

		<path
   class="st1"
   d="m 1061.1,155.4 21.4,55.4 c 4.4,-1.1 156.9,-67.5 156.9,-67.5 l -30.2,-69.1 z"
   id="path28"
   style="fill:#ffffff" />

	</g>

</g>
  </g>
</svg>
