<?xml version="1.0" encoding="UTF-8" standalone="no"?>
<svg
   version="1.2"
   width="3839"
   height="1832.5918"
   viewBox="48.598 9.613 3839 1832.5917"
   xml:space="preserve"
   id="svg25"
   sodipodi:docname="ports.svg"
   inkscape:version="1.3.2 (091e20e, 2023-11-25, custom)"
   xmlns:inkscape="http://www.inkscape.org/namespaces/inkscape"
   xmlns:sodipodi="http://sodipodi.sourceforge.net/DTD/sodipodi-0.dtd"
   xmlns="http://www.w3.org/2000/svg"
   xmlns:svg="http://www.w3.org/2000/svg"><defs
   id="defs25" /><sodipodi:namedview
   id="namedview25"
   pagecolor="#ffffff"
   bordercolor="#000000"
   borderopacity="0.25"
   inkscape:showpageshadow="2"
   inkscape:pageopacity="0.0"
   inkscape:pagecheckerboard="true"
   inkscape:deskcolor="#d1d1d1"
   inkscape:zoom="0.25088373"
   inkscape:cx="1877.3637"
   inkscape:cy="2541.0177"
   inkscape:window-width="3840"
   inkscape:window-height="2054"
   inkscape:window-x="-11"
   inkscape:window-y="-11"
   inkscape:window-maximized="1"
   inkscape:current-layer="svg25" />
    <linearGradient
   id="a"
   gradientUnits="userSpaceOnUse"
   x1="200.23599"
   y1="91.424004"
   x2="200.23599"
   y2="23.424"
   gradientTransform="matrix(16.862181,0,0,15.937383,-2913.6746,-317.75338)">
        <stop
   offset="0"
   style="stop-color:#9b9b9b"
   id="stop1" />
        <stop
   offset="1"
   style="stop-color:#5b5c60"
   id="stop2" />
    </linearGradient>
    <path
   d="m 128.58243,1716.5304 18.24711,-40.9479 V 95.403335 l -45.6178,-53.911957 h 567.9327 l 155.1006,88.404782 V 865.01001 L 402.28927,1087.0407 v 375.1119 h 57.03129 z M 397.70947,817.5711 580.1807,714.0926 V 295.90531 H 397.70947 Z"
   style="fill:url(#a);stroke-width:16.3932"
   id="path2" />
    <linearGradient
   id="b"
   gradientUnits="userSpaceOnUse"
   x1="246.42799"
   y1="91.424004"
   x2="246.42799"
   y2="23.424"
   gradientTransform="matrix(16.862181,0,0,15.937383,-2913.6746,-317.75338)">
        <stop
   offset="0"
   style="stop-color:#9b9b9b"
   id="stop3" />
        <stop
   offset="1"
   style="stop-color:#5b5c60"
   id="stop4" />
    </linearGradient>
    <path
   d="M 1483.3952,41.491378 1583.7544,151.46094 V 1406.1129 L 1211.9603,1703.6024 899.48725,1429.8053 V 160.07965 L 995.30274,41.509403 Z M 1157.219,274.34053 v 970.05457 l 152.8287,127.207 V 274.32251 H 1157.219 Z"
   style="fill:url(#b);stroke-width:16.3932"
   id="path4" />
    <linearGradient
   id="c"
   gradientUnits="userSpaceOnUse"
   x1="290.793"
   y1="91.424004"
   x2="290.793"
   y2="23.424"
   gradientTransform="matrix(16.862181,0,0,15.937383,-2913.6746,-317.75338)">
        <stop
   offset="0"
   style="stop-color:#9b9b9b"
   id="stop5" />
        <stop
   offset="1"
   style="stop-color:#5b5c60"
   id="stop6" />
    </linearGradient>
    <path
   d="M 1665.8305,1679.892 V 95.403335 l -45.6178,-53.911957 h 567.9326 l 155.1006,88.404782 V 584.758 l -239.5025,129.35263 239.5025,120.73393 v 416.05964 l 15.9572,12.9281 -264.5833,183.2465 V 936.14133 L 1921.2902,849.91828 V 1498.809 l 34.2223,47.4209 -314.7628,219.8851 z M 1916.7104,580.44864 2099.1816,476.95212 V 295.90531 h -182.4712 z"
   style="fill:url(#c);stroke-width:16.3932"
   id="path6" />
    <linearGradient
   id="d"
   gradientUnits="userSpaceOnUse"
   x1="336.71399"
   y1="91.424004"
   x2="336.71399"
   y2="23.424"
   gradientTransform="matrix(16.862181,0,0,15.937383,-2913.6746,-317.75338)">
        <stop
   offset="0"
   style="stop-color:#9b9b9b"
   id="stop7" />
        <stop
   offset="1"
   style="stop-color:#5b5c60"
   id="stop8" />
    </linearGradient>
    <path
   d="M 2628.3301,295.88729 H 2425.34 V 95.385296 l -45.6178,-53.911958 h 768.6509 l -45.6177,53.911958 V 295.88729 H 2881.5 V 1526.8109 l 36.4942,51.7482 -317.0527,215.5576 27.3706,-116.4246 V 295.90531 Z"
   style="fill:url(#d);stroke-width:16.3932"
   id="path8" />
    <linearGradient
   id="e"
   gradientUnits="userSpaceOnUse"
   x1="380.40399"
   y1="91.424004"
   x2="380.40399"
   y2="23.424"
   gradientTransform="matrix(16.862181,0,0,15.937383,-2913.6746,-317.75338)">
        <stop
   offset="0"
   style="stop-color:#9b9b9b"
   id="stop9" />
        <stop
   offset="1"
   style="stop-color:#5b5c60"
   id="stop10" />
    </linearGradient>
    <path
   d="m 3707.1463,41.491378 155.1005,88.404782 v 217.73939 h -273.7069 v -51.74826 h -152.8106 v 321.21788 l 426.5175,217.73939 v 355.69274 l -695.6626,526.0111 18.2471,-40.9478 V 968.45245 h 250.898 v 153.06305 l 152.8106,-105.6241 V 927.48657 L 3184.8313,711.92891 V 95.403335 l -45.5998,-53.911957 z"
   style="fill:url(#e);stroke-width:16.3932"
   id="path10" />
    <linearGradient
   id="f"
   gradientUnits="userSpaceOnUse"
   x1="201.03"
   y1="132.371"
   x2="201.03"
   y2="61.622002"
   gradientTransform="matrix(16.862181,0,0,15.937383,-2913.6746,-317.75338)">
        <stop
   offset="0"
   style="stop-color:#f9da55"
   id="stop11" />
        <stop
   offset="1"
   style="stop-color:#e04305"
   id="stop12" />
    </linearGradient>
    <path
   d="M 823.93851,721.43112 V 864.16257 L 402.00078,1086.1933 v 375.1119 h 57.03127 l -330.72009,254.3777 18.24713,-40.9478 v -586.7207"
   style="fill:url(#f);stroke-width:16.3932"
   id="path12" />
    <linearGradient
   id="g"
   gradientUnits="userSpaceOnUse"
   x1="246.411"
   y1="132.371"
   x2="246.411"
   y2="61.622002"
   gradientTransform="matrix(16.862181,0,0,15.937383,-2913.6746,-317.75338)">
        <stop
   offset="0"
   style="stop-color:#f9da55"
   id="stop13" />
        <stop
   offset="1"
   style="stop-color:#e04305"
   id="stop14" />
    </linearGradient>
    <path
   d="m 1583.4479,1072.0572 v 333.2083 l -371.7761,297.4714 -312.47304,-273.779 V 714.7958 l 257.71364,132.81453 v 395.95537 l 152.8287,127.1889 V 929.97482 Z"
   style="fill:url(#g);stroke-width:16.3932"
   id="path14" />
    <linearGradient
   id="h"
   gradientUnits="userSpaceOnUse"
   x1="291.38501"
   y1="132.371"
   x2="291.38501"
   y2="61.622002"
   gradientTransform="matrix(16.862181,0,0,15.937383,-2913.6746,-317.75338)">
        <stop
   offset="0"
   style="stop-color:#f9da55"
   id="stop15" />
        <stop
   offset="1"
   style="stop-color:#e04305"
   id="stop16" />
    </linearGradient>
    <path
   d="m 1921.0017,965.80193 v 532.15967 l 34.2043,47.4209 -314.7448,219.8851 25.0627,-86.2231 v -599.0177 m 611.513,-279.26037 65.9205,33.23069 v 416.04158 l 15.9573,12.9461 -264.5833,183.2285 V 935.31193 l -51.3156,-25.53156"
   style="fill:url(#h);stroke-width:16.3932"
   id="path16" />
    <linearGradient
   id="i"
   gradientUnits="userSpaceOnUse"
   x1="336.427"
   y1="132.371"
   x2="336.427"
   y2="61.622002"
   gradientTransform="matrix(16.862181,0,0,15.937383,-2913.6746,-317.75338)">
        <stop
   offset="0"
   style="stop-color:#f9da55"
   id="stop17" />
        <stop
   offset="1"
   style="stop-color:#e04305"
   id="stop18" />
    </linearGradient>
    <path
   d="m 2881.2295,925.97199 v 599.99141 l 36.4942,51.7483 -317.0527,215.5576 27.3706,-116.4065 V 775.88399"
   style="fill:url(#i);stroke-width:16.3932"
   id="path18" />
    <linearGradient
   id="j"
   gradientUnits="userSpaceOnUse"
   x1="381.19901"
   y1="132.371"
   x2="381.19901"
   y2="61.622002"
   gradientTransform="matrix(16.862181,0,0,15.937383,-2913.6746,-317.75338)">
        <stop
   offset="0"
   style="stop-color:#f9da55"
   id="stop19" />
        <stop
   offset="1"
   style="stop-color:#e04305"
   id="stop20" />
    </linearGradient>
    <path
   d="m 3708.2822,755.52727 153.6761,78.46985 v 355.69268 l -695.6626,525.9931 18.2471,-40.9478 V 967.64107 h 250.898 v 153.08113 l 152.8106,-105.6602 v -88.38681 l -129.8213,-69.32825"
   style="fill:url(#j);stroke-width:16.3932"
   id="path20" />
    <path
   style="fill:#542209;stroke-width:16.3932"
   d="M 154.60158,1069.7074 799.59683,717.09283 816.47586,744.69638 171.51434,1097.311 Z m 755.00416,-330.78036 16.08657,-28.01791 239.25749,122.70191 -16.0361,28.00198 z m 408.38516,208.89128 17.1321,-27.4601 246.6092,137.49178 -17.1487,27.4442 z m 348.7606,119.48258 242.377,-115.54603 15.2265,28.46416 -242.3939,115.53007 z m 379.1122,-179.18401 191.7907,-95.62429 15.7323,28.2251 -191.8073,95.6243 z m 588.7431,-96.10241 18.5822,-26.5995 210.7941,131.46747 -18.5989,26.61543 z m 824.3415,45.89965 217.067,-93.63211 14.0293,29.00603 -217.1007,93.64806 z"
   id="path21"
   inkscape:label="path22" />
    <path
   d="M 121.49634,1662.7988 V 95.78198 L 48.598,9.631031 H 676.1584 L 849.50603,108.4035 V 871.10441 L 427.55036,1093.1171 v 337.1391 h 102.84743 l -385.85814,296.8221 -78.686224,60.4933 z m 30.3638,55.0118 -23.31378,-9.2678 z M 172.10867,79.031404 V 1644.2091 L 388.11711,1478.0737 H 376.97409 V 1065.0252 L 798.89371,842.95839 V 135.39554 L 662.09442,57.448585 153.78943,57.412792 Z M 372.39429,264.00891 h 233.06553 v 455.63716 l -194.76822,110.43837 -13.00017,-20.50096 12.98215,20.50096 -38.27929,21.78115 z m 50.57627,503.34654 131.87692,-74.75551 V 311.82647 l -131.87692,-0.0358 z M 874.17214,1432.2395 V 144.01424 L 982.71727,9.631031 H 1483.3592 V 33.539805 9.631031 h 11.5397 L 1609.0336,134.56612 V 1409.1963 l -397.8667,318.3509 z M 924.74838,160.18783 V 1411.3959 l 287.95112,252.2864 345.7218,-276.5918 V 152.34445 L 1471.7474,57.430559 H 1007.78 Z M 1131.9217,1247.2259 V 242.46217 h 203.3869 V 1416.6068 Z m 50.5763,-21.5828 102.2344,85.0871 V 290.27973 H 1182.498 Z m -25.2971,-935.36337 v -23.90878 z"
   style="stroke-width:16.3932"
   id="path22"
   inkscape:label="path24" />
    <path
   d="M 1640.5152,1668.6227 1640.4793,95.800006 1567.5629,9.613 h 627.5783 l 173.3838,98.80854 v 482.23252 l -212.4924,114.74772 212.4924,107.10268 -0.043,419.39534 31.3735,25.4053 -330.5579,228.8645 V 942.59635 l -122.7352,-61.07016 v 601.92071 l 43.5442,60.3309 -393.1967,274.6444 z m 50.5764,6.5091 -6.6174,22.7007 236.4012,-165.1256 -24.9005,-34.5649 V 802.33512 l 223.942,111.37596 -0.057,478.17562 198.645,-137.5386 -0.6128,-0.4688 V 841.19139 L 2051.3972,706.86227 2317.8918,562.90473 V 135.39554 L 2181.0383,57.430559 h -508.23 l 18.3013,21.600845 V 1675.1318 Z M 1891.4132,264.00891 h 233.0475 v 218.47865 l -194.7322,110.49246 -13.0361,-20.519 13.0181,20.519 -38.3153,21.70902 z m 50.5582,266.22408 131.877,-74.79156 V 311.80844 h -131.877 z"
   style="stroke-width:16.3932"
   id="path23"
   inkscape:label="path26" />
    <path
   d="M 2603.015,1667.1441 V 311.79042 H 2399.9886 V 95.78198 L 2327.1083,9.613 h 873.8605 l -72.9523,86.187006 V 311.79042 H 2906.7611 V 1511.5749 l 45.798,64.9106 -390.7445,265.7193 z M 2653.6093,263.99088 V 1672.337 l -13.6133,57.8066 243.3792,-165.4863 -27.1724,-38.5858 V 264.00891 h 221.2373 V 79.031404 l 18.2833,-21.582819 h -663.4236 l 18.3192,21.582819 V 264.00891 h 177.6931 v 23.90878 -23.90878 z"
   style="stroke-width:16.3932"
   id="path24"
   inkscape:label="path28" />
    <path
   d="M 3159.5162,1662.7807 V 936.57408 h 301.4742 v 129.83942 l 102.2343,-70.62643 V 933.43673 L 3159.5342,717.91512 V 95.800006 L 3086.6178,9.613 h 620.5285 V 33.52178 9.613 h 7.032 l 173.4017,98.7905 v 255.13517 h -324.3012 v -51.7122 h -102.2343 v 283.02875 l 426.5535,217.75742 v 381.45866 l -783.0215,591.9136 z m 50.6123,-17.7783 626.785,-473.9384 V 841.10123 L 3410.3961,623.34382 V 263.99088 h 203.405 l -0.043,51.71221 h 223.1486 V 135.39554 l -136.7813,-77.946955 -508.341,-0.03579 18.3372,21.636895 -0.043,610.97211 403.7086,215.55767 v 114.45923 l -203.4049,140.6219 V 984.39164 h -200.2857 z"
   style="stroke-width:16.3932"
   id="path25"
   inkscape:label="path30" />
</svg>
