<?xml version="1.0" encoding="UTF-8" standalone="no"?>
<!-- Created with Inkscape (http://www.inkscape.org/) -->

<svg
   width="1015.7354mm"
   height="326.62811mm"
   viewBox="0 0 1015.7354 326.62811"
   version="1.1"
   id="svg1"
   inkscape:version="1.3.2 (091e20e, 2023-11-25, custom)"
   sodipodi:docname="psp.svg"
   xmlns:inkscape="http://www.inkscape.org/namespaces/inkscape"
   xmlns:sodipodi="http://sodipodi.sourceforge.net/DTD/sodipodi-0.dtd"
   xmlns="http://www.w3.org/2000/svg"
   xmlns:svg="http://www.w3.org/2000/svg">
  <sodipodi:namedview
     id="namedview1"
     pagecolor="#ffffff"
     bordercolor="#000000"
     borderopacity="0.25"
     inkscape:showpageshadow="2"
     inkscape:pageopacity="0.0"
     inkscape:pagecheckerboard="0"
     inkscape:deskcolor="#d1d1d1"
     inkscape:document-units="mm"
     inkscape:zoom="0.28645984"
     inkscape:cx="530.61539"
     inkscape:cy="-1000.1402"
     inkscape:window-width="3840"
     inkscape:window-height="2054"
     inkscape:window-x="-11"
     inkscape:window-y="-11"
     inkscape:window-maximized="1"
     inkscape:current-layer="layer1" />
  <defs
     id="defs1" />
  <g
     inkscape:label="Layer 1"
     inkscape:groupmode="layer"
     id="layer1"
     transform="translate(402.96042,14.816667)">
    <g
       id="g19"
       transform="matrix(0.26458333,0,0,0.26458333,-402.96042,-14.816667)">
	<g
   id="g17">
		<path
   d="m 679.1,989 h 84.5 c 54.3,0 64.9,34.9 64.9,59 0,23.9 -10.6,58.8 -64.9,58.5 h -51 v 73.3 h -33.5 z m 33.5,90.5 h 49 c 14.8,0 33,-7.4 33,-31.7 0,-25.4 -15,-31.8 -32.5,-31.8 h -49.5 z"
   id="path1" />

		<g
   id="g2">
			<rect
   x="848.09998"
   y="989"
   width="30.700001"
   height="190.8"
   id="rect1" />

		</g>

		<path
   d="m 1028.5,1148.8 c 0,7.4 1.4,10.4 7.2,10.4 1.7,0 4,0 7,-0.5 v 21.3 c -4.2,1.6 -13.8,3.4 -18.9,3.4 -12.5,0 -21.5,-4.2 -24,-16.9 -12.2,12 -31.1,16.9 -47.6,16.9 -25.1,0 -47.1,-13.4 -47.1,-39.9 0,-34.9 27.3,-40.5 53.2,-43.7 21.4,-3.9 41,-1.3 41,-19.3 0,-15.6 -16.4,-18.5 -28.2,-18.5 -17.3,0 -29.5,7.1 -30.7,21.5 H 910 c 2.1,-35.2 32.6,-45.8 63,-45.8 26.7,0 55.6,11.1 55.6,40.6 v 70.5 z m -31,-38.1 c -9.5,6 -23.8,5.8 -37,8.2 -13.4,2.1 -25.2,6.9 -25.2,23.3 0,13.2 17.4,17.1 28.3,17.1 12.9,0 33.8,-7.1 33.8,-25.8 v -22.8 z"
   id="path2" />

		<path
   d="m 1041,1041.4 h 33.3 l 36.1,103.5 h 0.5 l 35.1,-103.5 h 31.5 l -53.6,146 c -9.9,24.8 -16.7,47.1 -48.5,47.1 -7.4,0 -14.3,-0.7 -21.5,-1.7 v -25.1 c 4.9,0.7 9.7,1.7 14.6,1.7 14.4,0 18,-7.4 21.7,-19.4 l 3.4,-10.9 z"
   id="path3" />

		<path
   d="m 1217.9,1116.3 c 0,29.3 21.5,40.4 48.2,40.4 29.4,0 39.7,-13.8 39.7,-28.3 0,-15 -7.3,-20.9 -15.4,-23.9 -13.4,-5.1 -30.4,-8.6 -56.3,-16 -33.1,-8.5 -42.8,-28 -42.8,-47.9 0,-38.1 35.9,-56.1 69.8,-56.1 39.8,0 72.9,21.2 72.9,60.9 h -33.1 c -1.6,-25 -18.2,-33.4 -41,-33.4 -15.9,0 -34.7,4.9 -34.7,24.3 0,13.8 9.2,21.2 22.1,25 3.1,0.7 45.3,12 55,14.8 24.9,6.8 37.1,28.4 37.1,48.4 0,42.6 -37.7,59.9 -75.5,59.9 -43.4,0 -79,-21.3 -79.9,-68.1 z"
   id="path4" />

		<path
   d="m 1350.5,1041.4 h 22.3 v -41 h 31 v 41 h 27.9 v 23.1 h -27.9 v 73.7 c 0,11.9 0.9,18.5 14.8,18.5 4.3,0 8.8,0 13.1,-0.9 v 23.7 c -6.9,0.5 -13.4,1.6 -20.3,1.6 -31.9,0 -37.9,-12.3 -38.6,-35.1 v -81.4 h -22.3 z"
   id="path5" />

		<path
   d="m 1571,1148.8 c 0,7.4 1.7,10.4 7.4,10.4 1.8,0 4.3,0 7.6,-0.5 v 21.3 c -4.8,1.6 -14.5,3.4 -19.3,3.4 -12,0 -20.9,-4.2 -23.3,-16.9 -12.2,12 -32,16.9 -47.6,16.9 -25.2,0 -47.9,-13.4 -47.9,-39.9 0,-34.9 27.9,-40.5 53.4,-43.7 21.5,-3.9 41.4,-1.3 41.4,-19.3 0,-15.6 -16.5,-18.5 -28.9,-18.5 -16.5,0 -28.8,7.1 -30,21.5 h -30.9 c 2.2,-35.2 32.5,-45.8 62.8,-45.8 27.4,0 55.2,11.1 55.2,40.6 v 70.5 z m -30.1,-38.1 c -9.4,6 -24.3,5.8 -37.9,8.2 -12.4,2.1 -24.3,6.9 -24.3,23.3 0,13.2 17.8,17.1 27.5,17.1 13.8,0 34.8,-7.1 34.8,-25.8 v -22.8 z"
   id="path6" />

		<path
   d="m 1589,1041.4 h 23.3 v -41 h 30.2 v 41 h 27.7 v 23.1 h -27.7 v 73.7 c 0,11.9 1.1,18.5 14.5,18.5 4.8,0 8.9,0 13.2,-0.9 v 23.7 c -6.7,0.5 -13.2,1.6 -20.1,1.6 -31.2,0 -37.2,-12.3 -37.8,-35.1 v -81.4 H 1589 Z"
   id="path7" />

		<path
   d="m 1696.5,989 h 30.3 v 28.6 h -30.3 z m 0,52.4 h 30.3 v 138.4 h -30.3 z"
   id="path8" />

		<path
   d="m 1750.1,1110.7 c 0,-42 24.9,-73 69.8,-73 43.9,0 69.8,31 69.8,73 0,42 -25.9,72.7 -69.8,72.7 -45,0 -69.8,-30.7 -69.8,-72.7 m 108.6,0 c 0,-24.3 -12,-48.7 -38.8,-48.7 -27.7,0 -39.9,24.4 -39.9,48.7 0,24 12.2,48.5 39.9,48.5 26.8,0 38.8,-24.5 38.8,-48.5"
   id="path9" />

		<path
   d="m 1911.9,1041.4 h 28.9 v 20.6 l 0.5,0.7 c 9.2,-15.5 24.3,-25 42.9,-25 30.2,0 48.7,16.4 48.7,46.8 v 95.2 h -30.2 v -87.2 c -0.5,-21 -9,-30.5 -27.4,-30.5 -19.6,0 -33,16.3 -33,36.1 v 81.6 H 1912 v -138.3 z"
   id="path10" />

		<path
   d="m 2131.4,989 h 84.4 c 54.5,0 65.1,34.9 65.1,59 0,23.9 -10.6,58.8 -65.1,58.5 h -50.6 v 73.3 h -33.8 z m 33.9,90.5 h 48.7 c 15.2,0 33.9,-7.4 33.9,-31.7 0,-25.4 -15.3,-31.8 -33.3,-31.8 h -49.2 v 63.5 z"
   id="path11" />

		<path
   d="m 2288.9,1110.7 c 0,-42 25.7,-73 69.9,-73 44.1,0 69.7,31 69.7,73 0,42 -25.7,72.7 -69.7,72.7 -44.2,0 -69.9,-30.7 -69.9,-72.7 m 108.6,0 c 0,-24.3 -11.2,-48.7 -38.7,-48.7 -27.6,0 -39.2,24.4 -39.2,48.7 0,24 11.6,48.5 39.2,48.5 27.5,0 38.7,-24.5 38.7,-48.5"
   id="path12" />

		<path
   d="m 2451.7,1041.4 h 28 v 27.3 h 0.6 c 3.5,-14.8 22.1,-31 40.7,-31 6.4,0 8.3,0.5 11.1,0.9 v 29.8 c -4.5,-0.5 -8.8,-1.4 -12.5,-1.4 -21.1,0 -37.9,16.2 -37.9,47 v 65.7 h -30 z"
   id="path13" />

		<path
   d="m 2547.6,1041.4 h 22.7 v -41 h 30 v 41 h 27.9 v 23.1 h -27.9 v 73.7 c 0,11.9 1.2,18.5 15,18.5 4.5,0 8.7,0 12.9,-0.9 v 23.7 c -6.9,0.5 -13.4,1.6 -20.1,1.6 -31.2,0 -37.3,-12.3 -37.8,-35.1 v -81.4 h -22.7 z"
   id="path14" />

		<path
   d="m 2766.6,1148.8 c 0,7.4 1.6,10.4 7.3,10.4 1.9,0 4.4,0 7.6,-0.5 v 21.3 c -4.7,1.6 -14.3,3.4 -19.5,3.4 -12.5,0 -21.4,-4.2 -23.7,-16.9 -12.4,12 -31.2,16.9 -47.8,16.9 -25.2,0 -46.9,-13.4 -46.9,-39.9 0,-34.9 26.8,-40.5 52.8,-43.7 22.1,-3.9 41.2,-1.3 41.2,-19.3 0,-15.6 -16.3,-18.5 -28.1,-18.5 -17.4,0 -29.6,7.1 -30.8,21.5 h -30.2 c 2.3,-35.2 32,-45.8 62.8,-45.8 26.6,0 55.3,11.1 55.3,40.6 z m -31,-38.1 c -9.4,6 -23.5,5.8 -36.7,8.2 -13.5,2.1 -25.4,6.9 -25.4,23.3 0,13.2 17.5,17.1 28.3,17.1 13.5,0 33.9,-7.1 33.9,-25.8 v -22.8 z"
   id="path15" />

		<path
   d="m 2798.9,989 h 30.9 v 70.6 h 0.5 c 8.5,-13.5 25.4,-21.9 41.1,-21.9 43.7,0 64.6,33.5 64.6,73.7 0,37 -18.6,72 -59.6,72 -18.7,0 -38.3,-4.4 -47.5,-22.7 h -0.7 v 19 h -29.3 z m 68.4,73 c -25.3,0 -38.5,19.4 -38.5,49 0,27.9 14.1,48.2 38.5,48.2 28,0 38.5,-24.2 38.5,-48.2 0,-25.7 -13.1,-49 -38.5,-49"
   id="path16" />

		<g
   id="g16">
			<rect
   x="2959.2"
   y="989"
   width="30.200001"
   height="190.8"
   id="rect16" />

		</g>

		<path
   d="m 3043.3,1118.6 c 0,22 11.4,40.6 37,40.6 17.7,0 28.4,-7.8 33.6,-22.4 h 28.9 c -6.9,29.6 -32.2,46.6 -62.4,46.6 -43.2,0 -67.7,-30.5 -67.7,-72.4 0,-39.1 25.9,-73.3 66.6,-73.3 43.4,0 70.6,39.8 65.3,80.9 z m 70.9,-20.1 c -1.1,-19 -14,-36.5 -35,-36.5 -21.1,0 -35.2,16.3 -36,36.5 z"
   id="path17" />

	</g>

	<polygon
   points="0,66.9 1126.1,66.9 1126.1,294.6 0,294.6 0,656.6 66.8,656.6 66.8,361.1 1192.8,361.1 1192.8,0 0,0 "
   id="polygon17" />

	<polygon
   points="2646.1,66.9 3772.4,66.9 3772.4,294.6 2646.1,294.6 2646.1,656.6 2712.9,656.6 2712.9,361.1 3839,361.1 3839,0 2646.1,0 "
   id="polygon18" />

	<polygon
   points="1192.8,656.6 1869.3,656.6 1869.3,66.9 2475.9,66.9 2475.9,0 1800.1,0 1800.1,590.1 1192.8,590.1 "
   id="polygon19" />

</g>
  </g>
</svg>
