<?xml version="1.0" encoding="UTF-8" standalone="no"?>
<!-- Created with Inkscape (http://www.inkscape.org/) -->

<svg
   width="1015.7354mm"
   height="323.13562mm"
   viewBox="0 0 1015.7354 323.13562"
   version="1.1"
   id="svg1"
   inkscape:version="1.3.2 (091e20e, 2023-11-25, custom)"
   sodipodi:docname="pspminis.svg"
   xmlns:inkscape="http://www.inkscape.org/namespaces/inkscape"
   xmlns:sodipodi="http://sodipodi.sourceforge.net/DTD/sodipodi-0.dtd"
   xmlns="http://www.w3.org/2000/svg"
   xmlns:svg="http://www.w3.org/2000/svg">
  <sodipodi:namedview
     id="namedview1"
     pagecolor="#ffffff"
     bordercolor="#000000"
     borderopacity="0.25"
     inkscape:showpageshadow="2"
     inkscape:pageopacity="0.0"
     inkscape:pagecheckerboard="0"
     inkscape:deskcolor="#d1d1d1"
     inkscape:document-units="mm"
     inkscape:zoom="0.28645984"
     inkscape:cx="1221.8118"
     inkscape:cy="-884.9408"
     inkscape:window-width="3840"
     inkscape:window-height="2054"
     inkscape:window-x="-11"
     inkscape:window-y="-11"
     inkscape:window-maximized="1"
     inkscape:current-layer="layer1" />
  <defs
     id="defs1">
    <linearGradient
       id="SVGID_1_"
       gradientUnits="userSpaceOnUse"
       x1="637.73712"
       y1="-1646.8893"
       x2="637.73712"
       y2="-1045.3459"
       gradientTransform="matrix(1,0,0,-1,1523.5,-426.5022)">
			<stop
   offset="0"
   style="stop-color:#48407D"
   id="stop3" />

			<stop
   offset="1"
   style="stop-color:#6A93C9"
   id="stop4" />

		</linearGradient>
    <linearGradient
       id="SVGID_00000119828698947630021380000007345199416698511033_"
       gradientUnits="userSpaceOnUse"
       x1="-867.47089"
       y1="-1646.8893"
       x2="-867.47089"
       y2="-1045.3459"
       gradientTransform="matrix(1,0,0,-1,1523.5,-426.5022)">
			<stop
   offset="0"
   style="stop-color:#48407D"
   id="stop5" />

			<stop
   offset="1"
   style="stop-color:#6A93C9"
   id="stop6" />

		</linearGradient>
    <linearGradient
       id="SVGID_00000021088268106593313190000005522753935445512340_"
       gradientUnits="userSpaceOnUse"
       x1="31.094999"
       y1="-1646.7893"
       x2="31.094999"
       y2="-1045.3459"
       gradientTransform="matrix(1,0,0,-1,1523.5,-426.5022)">
					<stop
   offset="0"
   style="stop-color:#48407D"
   id="stop7" />

					<stop
   offset="1"
   style="stop-color:#6A93C9"
   id="stop8" />

				</linearGradient>
    <linearGradient
       id="SVGID_00000175313029073804124550000005504602053452233344_"
       gradientUnits="userSpaceOnUse"
       x1="1240.9799"
       y1="-1646.7893"
       x2="1240.9799"
       y2="-1045.3459"
       gradientTransform="matrix(1,0,0,-1,1523.5,-426.5022)">
					<stop
   offset="0"
   style="stop-color:#48407D"
   id="stop9" />

					<stop
   offset="1"
   style="stop-color:#6A93C9"
   id="stop10" />

				</linearGradient>
    <linearGradient
       id="SVGID_00000094617468972011761650000012818690823597492376_"
       gradientUnits="userSpaceOnUse"
       x1="1895.9093"
       y1="-1647.7889"
       x2="1895.9093"
       y2="-896.48468"
       gradientTransform="matrix(1,0,0,-1,1523.5,-426.5022)">
			<stop
   offset="0"
   style="stop-color:#48407D"
   id="stop11" />

			<stop
   offset="1"
   style="stop-color:#6A93C9"
   id="stop12" />

		</linearGradient>
  </defs>
  <g
     inkscape:label="Layer 1"
     inkscape:groupmode="layer"
     id="layer1"
     transform="translate(402.96042,12.964583)">
    <g
       id="g13"
       transform="matrix(0.26458333,0,0,0.26458333,-402.96042,-12.964583)">
	<g
   id="g3">
		<polygon
   points="718.8,41.8 1423.2,41.8 1423.2,184.3 718.8,184.3 718.8,410.7 760.5,410.7 760.5,225.9 1464.9,225.9 1464.9,0 718.8,0 "
   id="polygon1" />

		<polygon
   points="2374,41.8 3078.6,41.8 3078.6,184.3 2374,184.3 2374,410.7 2415.8,410.7 2415.8,225.9 3120.2,225.9 3120.2,0 2374,0 "
   id="polygon2" />

		<polygon
   points="1464.9,410.7 1888.1,410.7 1888.1,41.8 2267.6,41.8 2267.6,0 1844.8,0 1844.8,369.1 1464.9,369.1 "
   id="polygon3" />

	</g>

	<g
   id="g12">
		
			<linearGradient
   id="linearGradient2"
   gradientUnits="userSpaceOnUse"
   x1="637.73712"
   y1="-1646.8893"
   x2="637.73712"
   y2="-1045.3459"
   gradientTransform="matrix(1,0,0,-1,1523.5,-426.5022)">
			<stop
   offset="0"
   style="stop-color:#48407D"
   id="stop1" />

			<stop
   offset="1"
   style="stop-color:#6A93C9"
   id="stop2" />

		</linearGradient>

		<path
   class="st0"
   d="m 2161.2,618.8 c -246.2,0 -359.9,159.3 -359.9,308.2 v 98.3 195 h 127.6 v -195 -98.3 c 0,-107.7 57.7,-206.5 232.3,-206.5 174.6,0 232.3,98.9 232.3,206.5 v 98.3 195 h 127.6 v -195 -98.3 c 0,-148.9 -113.6,-308.2 -359.9,-308.2 z"
   id="path4"
   style="fill:url(#SVGID_1_)" />

		
			<linearGradient
   id="linearGradient14"
   gradientUnits="userSpaceOnUse"
   x1="-867.47089"
   y1="-1646.8893"
   x2="-867.47089"
   y2="-1045.3459"
   gradientTransform="matrix(1,0,0,-1,1523.5,-426.5022)">
			<stop
   offset="0"
   style="stop-color:#48407D"
   id="stop13" />

			<stop
   offset="1"
   style="stop-color:#6A93C9"
   id="stop14" />

		</linearGradient>

		<path
   style="fill:url(#SVGID_00000119828698947630021380000007345199416698511033_)"
   d="M 952.2,618.8 C 811,618.8 713.7,671.2 656.1,743.9 598.5,671.2 501.1,618.8 360,618.8 113.7,618.8 0,778.1 0,927.1 v 98.3 195 h 127.6 v -195 -98.3 c 0,-107.7 57.7,-206.5 232.3,-206.5 174.6,0 232.3,98.9 232.3,206.5 v 98.3 195 h 127.6 v -195 -98.3 c 0,-107.7 57.7,-206.5 232.3,-206.5 174.6,0 232.3,98.9 232.3,206.5 v 98.3 195 H 1312 v -195 -98.3 c 0.1,-149 -113.6,-308.3 -359.8,-308.3 z"
   id="path6" />

		<g
   id="g9">
			<g
   id="g8">
				
					<linearGradient
   id="linearGradient16"
   gradientUnits="userSpaceOnUse"
   x1="31.094999"
   y1="-1646.7893"
   x2="31.094999"
   y2="-1045.3459"
   gradientTransform="matrix(1,0,0,-1,1523.5,-426.5022)">
					<stop
   offset="0"
   style="stop-color:#48407D"
   id="stop15" />

					<stop
   offset="1"
   style="stop-color:#6A93C9"
   id="stop16" />

				</linearGradient>

				<path
   style="fill:url(#SVGID_00000021088268106593313190000005522753935445512340_)"
   d="m 1490.8,1220.3 h 127.6 V 828 h -127.6 z m 0,-601.5 v 101.7 h 127.6 V 618.8 Z"
   id="path8" />

			</g>

		</g>

		<g
   id="g11">
			<g
   id="g10">
				
					<linearGradient
   id="linearGradient18"
   gradientUnits="userSpaceOnUse"
   x1="1240.9799"
   y1="-1646.7893"
   x2="1240.9799"
   y2="-1045.3459"
   gradientTransform="matrix(1,0,0,-1,1523.5,-426.5022)">
					<stop
   offset="0"
   style="stop-color:#48407D"
   id="stop17" />

					<stop
   offset="1"
   style="stop-color:#6A93C9"
   id="stop18" />

				</linearGradient>

				<path
   style="fill:url(#SVGID_00000175313029073804124550000005504602053452233344_)"
   d="m 2700.7,1220.3 h 127.6 V 828 h -127.6 z m 0,-601.5 v 101.7 h 127.6 V 618.8 Z"
   id="path10" />

			</g>

		</g>

		
			<linearGradient
   id="linearGradient20"
   gradientUnits="userSpaceOnUse"
   x1="1895.9093"
   y1="-1647.7889"
   x2="1895.9093"
   y2="-896.48468"
   gradientTransform="matrix(1,0,0,-1,1523.5,-426.5022)">
			<stop
   offset="0"
   style="stop-color:#48407D"
   id="stop19" />

			<stop
   offset="1"
   style="stop-color:#6A93C9"
   id="stop20" />

		</linearGradient>

		<path
   style="fill:url(#SVGID_00000094617468972011761650000012818690823597492376_)"
   d="m 3715.5,470 c -246.2,0 -359.9,159.3 -359.9,308.2 v 134.9 c 0,107.7 -57.7,206.5 -232.3,206.5 h -123.5 v 101.7 h 123.5 c 246.2,0 359.9,-159.3 359.9,-308.2 V 778.2 c 0,-107.7 57.7,-206.5 232.3,-206.5 H 3839 V 470 Z"
   id="path12" />

	</g>

</g>
  </g>
</svg>
