<?xml version="1.0" encoding="UTF-8" standalone="no"?>
<!-- Created with Inkscape (http://www.inkscape.org/) -->

<svg
   width="1015.7532mm"
   height="199.09895mm"
   viewBox="0 0 1015.7532 199.09895"
   version="1.1"
   id="svg1"
   inkscape:version="1.3.2 (091e20e, 2023-11-25, custom)"
   sodipodi:docname="psx.svg"
   xmlns:inkscape="http://www.inkscape.org/namespaces/inkscape"
   xmlns:sodipodi="http://sodipodi.sourceforge.net/DTD/sodipodi-0.dtd"
   xmlns="http://www.w3.org/2000/svg"
   xmlns:svg="http://www.w3.org/2000/svg">
  <sodipodi:namedview
     id="namedview1"
     pagecolor="#ffffff"
     bordercolor="#000000"
     borderopacity="0.25"
     inkscape:showpageshadow="2"
     inkscape:pageopacity="0.0"
     inkscape:pagecheckerboard="0"
     inkscape:deskcolor="#d1d1d1"
     inkscape:document-units="mm"
     inkscape:zoom="0.40511539"
     inkscape:cx="1404.5381"
     inkscape:cy="534.41564"
     inkscape:window-width="3840"
     inkscape:window-height="2054"
     inkscape:window-x="-11"
     inkscape:window-y="-11"
     inkscape:window-maximized="1"
     inkscape:current-layer="layer1" />
  <defs
     id="defs1" />
  <g
     inkscape:label="Layer 1"
     inkscape:groupmode="layer"
     id="layer1"
     transform="translate(274.10834,1.3229167)">
    <g
       id="g15"
       transform="matrix(0.26458333,0,0,0.26458333,-274.0905,-1.3229167)">
	<g
   id="g8">
		<path
   d="m 1252,219.4 v 385.3 h 60.1 V 256.4 h 55.7 c 0,0 40.4,0 54.3,18.1 11.7,15.3 14,43.2 14,62 0,20.2 -1.3,51.2 -8.1,62.7 -10.3,17.3 -27.2,20.8 -42.6,20.8 h -36.6 v 34.1 h 52.8 c 0,0 47.7,2.1 68.3,-18.8 25,-25.6 31.5,-59.9 31.5,-105.9 0,-41.9 -15.2,-83.9 -46.2,-98.2 -25.7,-11.9 -71.9,-11.9 -71.9,-11.9 H 1252 Z"
   id="path1" />

		<rect
   x="1548.6"
   y="219.39999"
   width="60.200001"
   height="385.29999"
   id="rect1" />

		<polygon
   points="1928.7,309.3 2038.8,597.8 1975.7,752.5 2025.6,752.5 2207.5,309.3 2151.7,309.3 2072.5,525.3 1998.8,309.3 "
   id="polygon1" />

		<path
   d="m 2252.8,602.5 v -36.4 c 0,0 63.6,2.5 76.8,2.5 29.4,0 44,-6.3 55,-18.1 6.6,-7 12.4,-38.6 12.4,-49.8 0,-11.1 -2.1,-35.3 -6.6,-45.1 -4.4,-9.8 -14.6,-18.8 -30,-20.1 -11,-0.9 -27.9,-3.1 -47.7,-4.1 -27.8,-1.3 -46.1,-15.8 -54.9,-26.2 -8.8,-10.5 -20.6,-26.2 -20.6,-74.2 0,-48.2 12.5,-75.1 25,-87.7 12.5,-12.5 30.8,-18.1 44.8,-20.6 16.1,-2.7 42.5,-2.9 42.5,-2.9 l 84.1,2.5 v 36.4 c 0,0 -61.3,-2.4 -74.5,-2.4 -29.4,0 -38.2,6.3 -49.3,18.1 -6.5,7 -11.5,26.4 -11.5,37.6 0,11.2 1.3,33.7 5.7,43.5 4.4,9.8 14.7,18.8 30.1,20.1 11,0.9 27.8,3.1 47.6,4.1 27.8,1.3 46.2,15.8 55,26.2 8.8,10.5 20.6,32.4 20.6,80.5 0,48.1 -12.5,82.5 -25,95.1 -12.5,12.5 -30.7,18.1 -44.7,20.5 -16.1,2.8 -42.6,3 -42.6,3 z"
   id="path2" />

		<path
   d="m 2581,256.4 h -60.1 v 282.9 c 0,0 1.4,25.8 2.9,34.8 1.5,9.1 14.6,30.7 49.2,30.7 l 62.3,-1.2 v -36.4 c 0,0 -16.9,1.3 -27.1,1.3 -10.3,0 -22.8,-0.7 -25,-18.1 C 2581,533 2581,512.2 2581,512.2 V 345.5 h 67.8 V 309.3 H 2581 Z"
   id="path3" />

		<rect
   x="3161.3999"
   y="309.29999"
   width="60.200001"
   height="295.39999"
   id="rect3" />

		<rect
   x="3161.3999"
   y="219.39999"
   width="60.200001"
   height="53.599998"
   id="rect4" />

		<path
   d="m 3411.6,306.8 c 40.9,0 72.5,9.2 89.7,23 17.2,13.8 38.3,42.9 38.3,127.3 0,84.3 -21.2,113.5 -38.3,127.2 -17.1,13.9 -48.8,23 -89.7,23 -41,0 -72.6,-9.2 -89.9,-23 -17.1,-13.8 -38.3,-42.9 -38.3,-127.2 0,-84.3 21.2,-113.5 38.3,-127.3 17.3,-13.8 48.9,-23 89.9,-23 m -41.4,56.7 c -8.2,10.1 -18.3,31.5 -18.3,93.5 0,61.9 10.1,83.4 18.3,93.5 8.3,10.2 23.5,17 43.2,17 19.6,0 34.8,-6.7 43.1,-17 8.3,-10.1 18.4,-31.6 18.4,-93.5 0,-62 -10.1,-83.4 -18.4,-93.5 -8.3,-10.2 -23.4,-16.9 -43.1,-16.9 -19.7,0 -34.9,6.7 -43.2,16.9"
   id="path4" />

		<path
   d="m 3664.2,350.8 59,-2.5 c 15.3,0 33.5,4.2 42.3,15.3 8.3,10.5 13.4,23 13.4,43.2 V 604.4 H 3839 V 402 c 0,-38.3 -11.7,-60.6 -29.3,-74.5 -25.3,-20 -70.4,-18.1 -70.4,-18.1 l -134.8,2.4 v 292.7 h 59.6 V 350.8 Z"
   id="path5" />

		<path
   d="m 3041.6,256.4 h -60.2 v 282.9 c 0,0 1.6,25.8 3,34.8 1.4,9.1 14.7,30.7 49.1,30.7 l 62.3,-1.2 v -36.4 c 0,0 -16.8,1.3 -27.1,1.3 -10.3,0 -22.7,-0.7 -24.9,-18.1 -2.3,-17.4 -2.3,-38.2 -2.3,-38.2 V 345.5 h 67.8 v -36.2 h -67.8 v -52.9 z"
   id="path6" />

		<path
   d="m 1837,406.9 c 0,-20.2 -5.1,-32.8 -13.3,-43.2 -8.8,-11.1 -27,-15.3 -42.4,-15.3 l -79.3,2.5 v -39.1 l 95.5,-2.4 c 0,0 45.2,-1.9 70.4,18.1 17.6,14 29.3,36.2 29.3,74.5 v 199.6 l -115.2,2.5 c 0,0 -52.3,0.2 -78.5,-10.5 -25.8,-10.5 -39.6,-39.1 -39.6,-78.7 0,-38.3 11.7,-60.6 29.2,-74.6 25.3,-20 70.4,-18.1 70.4,-18.1 h 36.8 v 34.2 h -20.5 c -15.4,0 -31.5,2.8 -40.3,13.9 -8.2,10.5 -12.7,19.5 -12.7,39.7 0,26.5 5.2,38.3 17.6,47.4 11,8 30.8,9.8 52.8,9.8 l 39.7,-2.5 V 406.9 Z"
   id="path7" />

		<path
   d="m 2851.2,406.9 c 0,-20.2 -5.2,-32.8 -13.5,-43.2 -8.8,-11.1 -26.9,-15.3 -42.3,-15.3 l -79.3,2.5 v -39.1 l 95.5,-2.4 c 0,0 45.1,-1.9 70.4,18.1 17.6,14 29.4,36.2 29.4,74.5 v 199.6 l -115.2,2.5 c 0,0 -52.3,0.2 -78.5,-10.5 -25.7,-10.5 -39.7,-39.1 -39.7,-78.7 0,-38.3 11.8,-60.6 29.4,-74.6 25.2,-20 70.4,-18.1 70.4,-18.1 h 36.7 v 34.2 h -20.6 c -15.4,0 -31.3,2.8 -40.1,13.9 -8.2,10.5 -12.6,19.5 -12.6,39.7 0,26.5 5.1,38.3 17.6,47.4 11,8 30.8,9.8 52.8,9.8 l 39.8,-2.5 V 406.9 Z"
   id="path8" />

	</g>

	<g
   id="g14">
		<path
   class="st3"
   d="M 435.6,479.2 293.9,437.6 c 0,0 -174,62.2 -187.8,66.9 -13.8,4.7 -32.9,12.2 -32.9,12.2 l 136.1,43.7 226.3,-81.2"
   id="path9"
   style="fill:#00ad9c" />

		<path
   class="st3"
   d="m 433,632.2 -138,-44.3 230,-82.3 146.2,43 c 0,0 -192.2,68 -203.9,72.2 -11.7,4.2 -34.3,11.4 -34.3,11.4"
   id="path10"
   style="fill:#00ad9c" />

		<path
   class="st3"
   d="M 900.5,615.9 760.4,574.7 521,660.4 656,703.8 c 0,0 208.3,-74.8 218.5,-78.3 10.3,-3.6 26,-9.6 26,-9.6"
   id="path11"
   style="fill:#00ad9c" />

		<polyline
   class="st4"
   points="656,703.8 522.5,751.9 386.5,708.5 521,660.4 656,703.8   "
   id="polyline11"
   style="fill:#fbb817" />

		<path
   class="st4"
   d="m 295,587.9 138,44.3 C 278.9,683 163.5,664.6 92.5,645 21.5,625.4 1.9,604.6 0,579.4 -1.9,554.2 36.7,531.8 73.1,516.7 l 136.1,43.7 -34.5,12.3 c -15.2,5.1 -45.8,20.3 -20.3,32.2 27.2,12.7 78.5,6.1 106.2,-4.4 L 295,587.9"
   id="path12"
   style="fill:#fbb817" />

		<polyline
   class="st5"
   points="435.6,479.2 293.8,437.6 366,412.1 506.2,454.1 435.6,479.2   "
   id="polyline12"
   style="fill:#0174ba" />

		<path
   class="st5"
   d="M 671.2,548.5 525,505.5 c 66.8,-25.6 119.3,-39.1 195,-41.5 83.6,-2.6 147.7,17.4 169.8,24.3 46.5,14.5 81.5,33.6 84.5,59.3 4,33.7 -45.3,58 -73.8,68.2 L 760.4,574.6 c 0,0 34.3,-12.1 47.9,-16.8 13.5,-4.7 27.6,-14 24.7,-22.4 -2.8,-8.4 -19.6,-12.3 -23.8,-12.8 -8.4,-1.2 -23.2,-3.2 -48.6,-0.9 -20.8,1.9 -36,7.7 -36,7.7 l -53.4,19.1"
   id="path13"
   style="fill:#0174ba" />

		<path
   class="st6"
   d="m 363.7,0 v 701.9 l 158.9,50 V 163.6 c 0,-27.6 12.3,-46 32.2,-39.7 25.9,7.2 31,32.6 31,60.2 v 235.2 c 99,47.8 176.9,-0.1 176.9,-126.2 C 762.7,163.6 717.1,106.1 582.6,60 529.6,42.1 431.2,12.5 363.7,0"
   id="path14"
   style="fill:#eb2027" />

	</g>

</g>
  </g>
</svg>
