<?xml version="1.0" encoding="UTF-8" standalone="no"?>
<!-- Created with Inkscape (http://www.inkscape.org/) -->

<svg
   width="1015.7354mm"
   height="214.80295mm"
   viewBox="0 0 1015.7354 214.80295"
   version="1.1"
   id="svg1"
   inkscape:version="1.3.2 (091e20e, 2023-11-25, custom)"
   sodipodi:docname="retroarch.svg"
   xmlns:inkscape="http://www.inkscape.org/namespaces/inkscape"
   xmlns:sodipodi="http://sodipodi.sourceforge.net/DTD/sodipodi-0.dtd"
   xmlns="http://www.w3.org/2000/svg"
   xmlns:svg="http://www.w3.org/2000/svg">
  <sodipodi:namedview
     id="namedview1"
     pagecolor="#ffffff"
     bordercolor="#000000"
     borderopacity="0.25"
     inkscape:showpageshadow="2"
     inkscape:pageopacity="0.0"
     inkscape:pagecheckerboard="0"
     inkscape:deskcolor="#d1d1d1"
     inkscape:document-units="mm"
     inkscape:zoom="0.40511539"
     inkscape:cx="2095.6992"
     inkscape:cy="862.71716"
     inkscape:window-width="3840"
     inkscape:window-height="2054"
     inkscape:window-x="-11"
     inkscape:window-y="-11"
     inkscape:window-maximized="1"
     inkscape:current-layer="layer1" />
  <defs
     id="defs1" />
  <g
     inkscape:label="Layer 1"
     inkscape:groupmode="layer"
     id="layer1"
     transform="translate(155.83959,-93.39791)">
    <g
       transform="matrix(0.06872364,0,0,-0.06872364,-170.27155,319.47153)"
       fill="#000000"
       stroke="none"
       id="g14">
      <path
         d="m 6635,3279 c -16,-6 -55,-14 -85,-19 -319,-51 -647,-266 -862,-566 -73,-103 -115,-178 -160,-289 -86,-213 -105,-328 -113,-700 -4,-200 -2,-262 10,-310 8,-33 14,-73 15,-89 0,-16 4,-43 9,-60 50,-169 70,-224 111,-308 62,-125 127,-221 218,-322 207,-230 387,-342 702,-437 64,-20 733,-20 805,0 133,36 245,83 360,152 369,221 634,625 685,1044 4,39 13,108 19,155 14,106 14,283 0,375 -5,39 -14,104 -19,145 -14,114 -24,155 -64,273 -99,291 -301,553 -573,744 -104,73 -294,155 -423,182 -30,7 -83,19 -117,27 -71,16 -468,19 -518,3 z m 495,-79 c 143,-27 161,-32 270,-74 248,-96 490,-296 659,-544 86,-127 201,-395 201,-468 0,-12 5,-35 11,-51 28,-69 43,-380 25,-533 -14,-129 -66,-327 -114,-435 -138,-312 -413,-598 -707,-736 -82,-38 -246,-88 -361,-108 -78,-14 -343,-14 -436,0 -315,47 -573,186 -807,436 -208,221 -308,427 -376,773 -21,110 -16,466 8,575 9,39 20,88 25,110 22,103 97,278 163,384 203,322 518,564 844,647 183,47 423,56 595,24 z"
         id="path1" />
      <path
         d="m 6705,2918 c -159,-30 -307,-86 -422,-161 -282,-182 -491,-492 -552,-817 -32,-172 -15,-426 39,-590 93,-278 303,-528 575,-682 177,-101 407,-157 594,-145 259,17 462,93 653,245 194,155 340,362 418,592 48,141 73,328 59,440 -21,173 -28,209 -59,300 -63,188 -173,355 -327,500 -183,171 -384,274 -619,319 -70,13 -286,12 -359,-1 z m 300,-97 c 198,-39 295,-78 440,-179 191,-132 325,-283 434,-487 40,-73 101,-255 101,-298 0,-18 5,-52 11,-77 8,-32 7,-70 -1,-135 -34,-268 -149,-495 -360,-706 -115,-116 -206,-183 -315,-234 -130,-61 -175,-75 -336,-99 -112,-17 -139,-15 -334,25 -100,21 -258,96 -370,176 -228,164 -424,433 -475,656 -7,28 -19,72 -26,96 -23,74 -18,233 11,347 61,238 165,417 349,599 158,157 330,258 501,294 28,5 82,17 120,25 78,16 160,15 250,-3 z"
         id="path2" />
      <path
         d="m 9940,3221 c -25,-10 -61,-26 -80,-36 -53,-27 -154,-134 -185,-194 -48,-96 -55,-134 -55,-313 v -167 l -92,-3 -93,-3 -3,-31 c -2,-18 4,-49 12,-69 18,-41 21,-75 7,-75 -20,0 -21,-66 -2,-125 11,-33 26,-80 34,-105 l 14,-45 h 59 59 l 3,-933 2,-932 173,2 172,3 5,929 5,929 h 168 c 92,0 170,-3 173,-5 2,-3 4,-422 4,-932 V 190 h 170 c 129,0 170,3 170,13 0,6 0,599 0,1316 0,1421 1,1376 -57,1482 -38,71 -139,164 -220,202 -67,32 -70,32 -233,34 -137,1 -173,-1 -210,-16 z m 345,-71 c 32,-11 77,-31 100,-44 56,-33 154,-140 184,-201 57,-115 55,-67 58,-1384 2,-771 0,-1218 -6,-1224 -12,-12 -210,-16 -217,-5 -3,4 -5,424 -4,933 0,628 -3,925 -10,925 -5,0 -109,1 -230,1 -121,0 -224,-1 -230,-1 -7,0 -10,-315 -10,-924 0,-717 -3,-927 -12,-932 -15,-9 -196,-12 -209,-3 -6,3 -10,361 -9,932 v 926 l -61,3 -61,3 -12,40 c -7,22 -23,72 -35,111 -12,40 -21,85 -19,100 l 3,29 h 90 90 l 5,180 c 5,159 8,187 29,240 28,69 42,93 89,153 109,135 317,197 477,142 z"
         id="path3" />
      <path
         d="m 10045,2859 c -105,-52 -127,-104 -123,-288 l 3,-134 h 235 235 v 119 c 0,181 -36,264 -132,305 -61,26 -164,25 -218,-2 z m 194,-132 c 35,-33 78,-116 81,-158 5,-63 16,-59 -175,-59 h -175 v 55 c 0,67 26,123 75,162 44,35 70,43 120,37 27,-3 51,-16 74,-37 z"
         id="path4" />
      <path
         d="m 10709,3213 c 0,-5 0,-685 1,-1513 l 1,-1505 h 167 167 l 2,199 c 1,121 5,202 11,208 8,8 30,-8 74,-49 57,-53 96,-87 257,-218 27,-22 77,-64 110,-92 l 62,-53 h 218 219 v 40 c 1,56 1,56 -219,58 l -147,2 -253,211 c -140,116 -277,234 -306,261 -28,28 -56,47 -62,44 -7,-5 -9,-84 -7,-252 3,-185 1,-247 -8,-257 -10,-10 -161,-15 -218,-8 -5,1 -8,642 -8,1425 0,1130 3,1425 13,1428 21,7 368,-10 427,-20 187,-35 355,-127 518,-286 238,-232 357,-522 356,-871 0,-146 -12,-223 -55,-375 -88,-308 -374,-633 -620,-706 -26,-8 -51,-19 -54,-24 -3,-5 23,-30 57,-57 35,-26 159,-128 277,-227 118,-98 229,-187 246,-198 43,-25 62,-16 61,28 -2,31 -11,42 -98,112 -53,42 -146,118 -207,168 -61,50 -120,98 -133,106 -29,19 -20,30 61,78 171,99 353,337 441,575 45,121 74,388 67,608 -9,246 -31,349 -112,532 -86,192 -308,421 -505,520 -76,38 -176,75 -230,85 -25,5 -58,13 -73,19 -32,12 -497,16 -498,4 z"
         id="path5" />
      <path
         d="m 13365,3205 c -22,-8 -55,-14 -73,-14 -33,-1 -74,-12 -212,-58 -317,-107 -628,-385 -779,-696 -95,-196 -118,-321 -132,-722 -11,-291 -10,-309 33,-495 13,-59 53,-172 84,-237 13,-28 24,-54 24,-58 0,-13 89,-146 144,-215 82,-102 154,-171 261,-249 102,-74 110,-80 215,-132 91,-45 137,-62 238,-91 119,-33 174,-40 360,-45 l 172,-4 v 229 229 l -67,8 c -38,4 -104,10 -148,14 -44,4 -93,12 -110,18 -16,6 -50,16 -75,23 -272,76 -553,321 -679,592 -80,171 -95,237 -95,403 0,140 6,181 41,290 58,180 134,307 258,430 147,147 310,236 545,295 19,5 87,14 150,20 63,6 130,14 148,17 l 32,5 v 229 229 l -147,-1 c -93,-1 -163,-6 -188,-14 z m 274,-64 c 10,-7 14,-40 14,-141 0,-147 -3,-154 -64,-145 -36,6 -186,-15 -294,-41 -304,-72 -573,-281 -707,-548 -42,-84 -81,-195 -101,-286 -15,-71 -15,-448 0,-515 23,-102 73,-225 136,-330 199,-334 553,-542 948,-558 37,-2 71,-6 75,-10 13,-12 7,-269 -6,-277 -15,-9 -145,-2 -184,11 -16,5 -45,9 -64,9 -79,0 -279,64 -416,133 -210,106 -421,300 -541,497 -94,154 -148,298 -178,470 -6,36 -11,169 -11,295 0,127 5,259 11,295 48,279 169,513 372,719 117,118 223,198 356,266 180,93 304,128 555,154 41,4 77,9 80,9 3,1 11,-2 19,-7 z"
         id="path6" />
      <path
         d="m 13925,3210 c -3,-5 -5,-164 -4,-352 l 1,-343 -81,-1 c -112,-2 -110,-1 -99,-69 5,-32 13,-66 19,-77 8,-15 7,-24 -5,-37 -23,-26 -19,-74 17,-181 l 32,-95 58,-5 58,-5 -1,-927 V 190 h 180 180 v 930 930 h 175 175 V 1121 191 l 173,-3 c 94,-2 175,-2 180,0 4,2 7,685 7,1518 v 1514 l -177,-2 -178,-3 -3,-352 -2,-353 h -175 -175 l -2,353 -3,352 -172,3 c -109,1 -174,-1 -178,-8 z m 296,-77 c 5,-5 10,-163 11,-352 l 3,-344 h 235 235 l 3,344 c 1,189 6,347 11,352 7,7 149,12 209,8 18,-1 18,-2851 0,-2852 -50,-4 -199,0 -207,6 -8,4 -11,289 -11,931 0,609 -3,924 -10,924 -5,1 -109,1 -230,1 -121,0 -224,0 -230,-1 -7,0 -10,-315 -10,-924 0,-653 -3,-927 -11,-932 -13,-8 -207,-10 -214,-2 -3,3 -6,422 -5,932 0,741 -2,926 -12,927 -7,1 -35,2 -61,3 -48,1 -49,2 -62,41 -45,143 -56,185 -53,211 l 3,29 h 90 90 l 2,349 c 1,217 5,351 11,355 15,9 203,4 213,-6 z"
         id="path7" />
      <path
         d="m 217,3204 c -4,-4 -7,-684 -7,-1510 0,-1382 1,-1503 16,-1506 9,-2 79,-2 156,0 l 139,3 10,27 c 6,15 11,107 11,205 1,98 6,180 11,184 5,3 32,-17 60,-45 29,-27 75,-67 103,-88 28,-22 104,-84 169,-139 64,-55 129,-110 144,-121 24,-20 40,-22 241,-25 l 215,-4 1,37 c 1,21 -5,43 -13,49 -9,8 -75,13 -184,15 l -170,4 -146,122 c -81,68 -185,155 -232,193 -47,39 -118,101 -158,139 -40,38 -76,66 -80,62 -4,-3 -6,-118 -4,-255 2,-199 0,-250 -11,-257 -20,-13 -207,-12 -217,0 -4,6 -7,650 -7,1431 l 1,1420 200,1 c 110,1 205,-2 210,-6 6,-5 28,-11 50,-15 276,-48 581,-298 732,-600 48,-95 96,-246 110,-345 10,-73 9,-351 -1,-420 -24,-160 -106,-359 -209,-509 -107,-155 -291,-312 -425,-361 -31,-11 -64,-23 -72,-26 -11,-4 -5,-14 24,-37 53,-43 266,-220 412,-342 125,-105 172,-135 179,-112 17,58 16,62 -43,107 -31,25 -109,88 -172,141 -63,52 -137,112 -165,132 -78,58 -77,57 -65,72 6,7 37,26 68,41 76,37 225,182 296,288 95,142 167,307 195,446 44,230 28,714 -29,819 -5,11 -10,28 -10,38 0,31 -108,233 -164,307 -66,87 -192,209 -276,266 -73,49 -213,117 -262,126 -18,4 -41,11 -52,16 -41,21 -141,31 -351,35 -122,2 -224,1 -228,-3 z"
         id="path8" />
      <path
         d="m 1865,3200 c -3,-5 -6,-160 -5,-342 1,-183 1,-339 1,-347 -1,-10 -20,-12 -88,-10 l -88,4 -3,-38 c -2,-25 4,-49 18,-73 20,-31 21,-37 7,-52 -23,-27 -30,-77 -14,-109 7,-15 20,-55 27,-88 18,-80 25,-88 73,-82 22,3 46,3 54,0 12,-5 14,-142 13,-935 -1,-512 2,-933 7,-937 4,-3 191,-5 415,-3 l 407,3 7,22 c 9,27 12,350 4,392 l -6,30 -242,5 -242,5 -6,702 c -5,622 -4,704 9,709 9,3 134,6 279,7 l 263,2 3,29 c 5,41 -17,80 -35,64 -10,-8 -98,-11 -286,-12 l -272,-1 V 1360 575 h 237 c 167,0 241,-4 249,-12 12,-12 18,-257 7,-269 -8,-7 -717,-8 -724,-1 -3,3 -6,421 -7,929 l -2,923 h -57 c -31,0 -59,3 -62,6 -12,11 -60,186 -64,231 -5,56 -6,56 103,61 l 79,4 1,349 v 349 l 360,3 c 330,2 361,1 373,-15 14,-20 17,-240 2,-263 -8,-13 -48,-15 -252,-16 h -243 v -205 -204 l 243,-5 c 252,-5 261,-7 262,-48 0,-27 42,-141 55,-152 12,-10 17,-7 27,14 10,23 8,37 -11,89 -13,34 -27,79 -31,99 -14,73 -7,71 -268,66 -180,-4 -234,-2 -240,8 -4,7 -5,66 -2,131 l 5,118 237,-4 c 236,-3 236,-3 248,19 13,25 18,370 6,408 l -7,22 h -409 c -261,0 -411,-4 -415,-10 z"
         id="path9" />
      <path
         d="m 2792,2988 3,-223 182,-1 c 101,0 185,-3 188,-6 3,-3 6,-569 6,-1259 1,-690 4,-1265 8,-1279 l 7,-25 167,-3 167,-2 v 1285 c 0,1021 3,1285 13,1286 6,0 91,0 189,-1 115,-1 178,3 183,10 3,5 7,106 7,223 l 1,212 -562,3 -561,2 z m 1083,10 v -143 h -200 -200 l -2,-1278 c -1,-702 -4,-1281 -7,-1286 -8,-12 -203,-8 -215,4 -8,8 -12,415 -13,1285 l -3,1275 h -180 c -99,0 -185,3 -190,7 -11,7 -14,256 -3,273 4,6 183,9 510,8 l 503,-1 z"
         id="path10" />
      <path
         d="m 3958,3203 c -3,-4 -6,-684 -7,-1510 l -3,-1503 h 165 c 122,0 168,3 174,13 4,6 8,100 9,207 1,144 4,195 14,198 6,2 35,-18 64,-45 28,-27 100,-90 160,-139 59,-49 147,-122 194,-161 l 85,-73 h 213 213 l -2,35 c -2,19 -8,40 -15,47 -9,9 -181,19 -332,18 -8,0 -42,24 -76,53 -33,28 -159,134 -280,234 -120,100 -229,194 -241,208 -13,15 -27,24 -33,20 -6,-4 -10,-99 -10,-261 0,-140 -3,-255 -7,-255 -35,-6 -215,-5 -218,2 -7,10 -7,2838 0,2848 6,11 303,3 390,-10 215,-34 387,-122 553,-283 232,-224 338,-467 368,-842 10,-128 -39,-384 -101,-528 -119,-276 -366,-531 -572,-591 -28,-8 -54,-19 -57,-24 -3,-5 45,-49 107,-99 61,-50 139,-114 172,-142 104,-88 245,-204 277,-228 39,-28 72,-30 65,-3 -2,10 -1,25 4,33 6,11 -12,31 -73,79 -45,35 -103,82 -128,104 -55,47 -199,163 -232,186 -20,14 -21,18 -8,33 7,10 32,27 54,38 181,91 399,378 465,608 51,178 65,328 58,593 -4,162 -9,222 -21,251 -9,21 -16,48 -16,60 0,11 -13,58 -30,104 -58,163 -143,292 -278,424 -132,129 -259,211 -382,247 -25,7 -56,18 -70,24 -14,5 -47,15 -75,20 -63,12 -532,21 -537,10 z"
         id="path11" />
      <path
         d="m 507,2853 c -4,-3 -7,-403 -7,-889 0,-657 3,-883 12,-886 6,-2 32,-1 57,3 227,34 353,97 506,253 145,148 220,297 259,512 20,113 20,138 0,244 -39,205 -92,323 -211,462 -100,117 -276,235 -398,267 -147,38 -205,47 -218,34 z m 197,-152 c 117,-47 190,-96 292,-196 103,-102 173,-207 218,-329 29,-76 30,-90 31,-221 0,-134 -2,-144 -33,-225 -99,-257 -317,-467 -564,-544 -103,-32 -92,-116 -98,755 -3,421 -3,774 -2,783 5,25 55,18 156,-23 z"
         id="path12" />
      <path
         d="m 4255,2848 c -3,-7 -4,-409 -3,-893 l 3,-880 30,2 c 285,17 543,183 693,447 84,148 115,266 116,441 1,236 -74,432 -231,604 -134,147 -276,227 -485,276 -81,18 -117,19 -123,3 z m 142,-124 c 26,-9 71,-27 100,-40 28,-13 54,-24 58,-24 23,0 199,-147 256,-214 68,-80 159,-242 174,-311 47,-217 19,-370 -104,-575 -61,-100 -194,-232 -296,-293 -81,-48 -228,-102 -262,-95 -17,3 -18,35 -21,773 -1,424 0,776 3,783 6,16 35,15 92,-4 z"
         id="path13" />
      <path
         d="m 11007,2854 c -3,-4 -6,-404 -7,-889 0,-767 2,-884 15,-888 14,-6 64,1 170,22 227,45 450,228 569,466 57,114 69,153 91,295 17,112 17,118 -3,236 -11,66 -34,156 -51,200 -86,223 -290,426 -510,508 -102,38 -257,66 -274,50 z m 172,-139 c 42,-14 94,-36 116,-50 22,-13 58,-34 79,-45 21,-12 82,-65 135,-119 101,-101 176,-213 207,-306 9,-27 23,-65 30,-83 20,-46 19,-268 -1,-302 -8,-14 -14,-34 -15,-45 0,-11 -22,-66 -50,-121 -60,-124 -180,-267 -251,-301 -25,-12 -53,-33 -62,-46 -9,-13 -35,-36 -59,-49 -60,-35 -192,-80 -223,-76 l -26,3 v 778 c 1,427 1,779 1,782 0,11 48,3 119,-20 z"
         id="path14" />
    </g>
  </g>
</svg>
