<?xml version="1.0" encoding="UTF-8" standalone="no"?>
<!-- Created with Inkscape (http://www.inkscape.org/) -->

<svg
   width="1015.7328mm"
   height="160.36395mm"
   viewBox="0 0 1015.7328 160.36395"
   version="1.1"
   id="svg1"
   inkscape:version="1.3.2 (091e20e, 2023-11-25, custom)"
   sodipodi:docname="satellaview.svg"
   xmlns:inkscape="http://www.inkscape.org/namespaces/inkscape"
   xmlns:sodipodi="http://sodipodi.sourceforge.net/DTD/sodipodi-0.dtd"
   xmlns="http://www.w3.org/2000/svg"
   xmlns:svg="http://www.w3.org/2000/svg">
  <sodipodi:namedview
     id="namedview1"
     pagecolor="#ffffff"
     bordercolor="#000000"
     borderopacity="0.25"
     inkscape:showpageshadow="2"
     inkscape:pageopacity="0.0"
     inkscape:pagecheckerboard="0"
     inkscape:deskcolor="#d1d1d1"
     inkscape:document-units="mm"
     inkscape:zoom="0.40511539"
     inkscape:cx="836.79862"
     inkscape:cy="576.37899"
     inkscape:window-width="3840"
     inkscape:window-height="2054"
     inkscape:window-x="-11"
     inkscape:window-y="-11"
     inkscape:window-maximized="1"
     inkscape:current-layer="layer1" />
  <defs
     id="defs1" />
  <g
     inkscape:label="Layer 1"
     inkscape:groupmode="layer"
     id="layer1"
     transform="translate(402.96041,-68.2625)">
    <g
       id="g27"
       transform="matrix(0.26458333,0,0,0.26458333,-402.96294,68.2625)">
	<g
   id="g7">
		<g
   id="g5">
			<g
   id="g4">
				<ellipse
   transform="matrix(0.7588,-0.6514,0.6514,0.7588,-160.105,241.3762)"
   cx="245.8"
   cy="336.79999"
   rx="183.3"
   ry="311.10001"
   id="ellipse1" />

				<g
   id="g3">
					<path
   d="M 241.3,3.7 H 137.1 c -3.5,0 -4.2,4.9 -0.9,5.9 183.9,55.5 298.9,220.2 343.9,337.2 1.2,3.1 5.9,2.3 5.9,-1.1 V 325 c 0,-0.3 0,-0.5 -0.1,-0.8 -22.7,-83.4 -118,-239.7 -243,-320 -0.5,-0.3 -1.1,-0.5 -1.6,-0.5 z"
   id="path1" />

					<path
   d="m 351.7,3.7 h -44.6 c -2.9,0 -4.2,3.7 -1.9,5.4 83,64.2 149.3,175 174.8,246.4 1.1,3.2 5.9,2.4 5.9,-1 v -31.1 c 0,-0.3 0,-0.6 -0.1,-0.9 C 468.2,163.8 416.2,61.6 353.7,4.5 353.2,4 352.5,3.7 351.7,3.7 Z"
   id="path2" />

					<path
   d="m 482.9,3.7 h -71.1 c -2.5,0 -3.9,2.8 -2.5,4.8 28.1,40.1 54.8,101.5 70.7,146.3 1.1,3.2 5.9,2.4 5.9,-1 V 6.8 C 486,5 484.6,3.7 482.9,3.7 Z"
   id="path3" />

				</g>

				<path
   d="m 11.5,602.7 h 246.3 c 6.5,0 8.1,-9 2.1,-11.3 -61.8,-23.5 -148,-81.2 -213.8,-163.4 -5.2,-6.6 -15.5,-0.2 -12,7.4 19.9,43.6 30.2,67.8 30.2,96.4 0,34.7 -27.7,53 -54.2,62.6 -4.5,1.7 -3.3,8.3 1.4,8.3 z"
   id="path4" />

			</g>

		</g>

		
			<ellipse
   transform="matrix(0.9821,-0.1885,0.1885,0.9821,-75.6742,73.6543)"
   class="st1"
   cx="349.39999"
   cy="434.60001"
   rx="72.300003"
   ry="53.400002"
   id="ellipse5"
   style="fill:#fcda00" />

		
			<ellipse
   transform="matrix(0.9821,-0.1885,0.1885,0.9821,-72.9076,41.2992)"
   class="st2"
   cx="180.7"
   cy="403.89999"
   rx="72.300003"
   ry="53.400002"
   id="ellipse6"
   style="fill:#73b744" />

		<path
   class="st3"
   d="m 122.5,294.7 c -12,-8.3 -53.6,-104.8 22,-102.9 102.6,2.5 140.2,156 90.3,159.4 0,0 -15.9,-36.4 -60.7,-53.2 -35.2,-13 -51.6,-3.3 -51.6,-3.3 z"
   id="path6"
   style="fill:#2aa4dd" />

		<path
   class="st4"
   d="m 290.9,326.3 c -12,-8.3 -53.6,-104.8 22,-102.9 102.6,2.5 140.2,156 90.3,159.4 0,0 -15.9,-36.4 -60.7,-53.2 -35.3,-13 -51.6,-3.3 -51.6,-3.3 z"
   id="path7"
   style="fill:#ed2224" />

	</g>

	<g
   id="data_00000150103346897290906900000006405325973938586554_">
		<path
   d="m 712.9,90.7 h 69.2 c 25.3,0 26,37.7 0,37.7 H 678.4 v 27.8 h 134 c 53.7,0 54.3,-90.1 -2.5,-90.1 h -69.8 c -27.8,0 -27.8,-34.6 0,-34.6 h 99.4 V 3.7 H 712.3 c -59.3,0 -57.4,87 0.6,87 z M 871,3.7 v 96.4 c 0,35.2 25.3,55.6 51.8,55.6 h 116.1 V 3.8 h -43.2 v 124.1 h -50.6 c -22.2,0 -33.4,-17.3 -33.4,-30.9 V 3.7 Z m 308.1,95.7 h -68.5 V 155 h -43.2 V 0.6 h 43.2 68.5 c 77.2,0 80.2,98.8 0,98.8 z m -14.2,-71 h -54.3 v 46.9 h 54.3 c 34.6,-0.6 33.9,-46.9 0,-46.9 z m 250.7,96.3 h -83.3 c -21.6,0 -30.9,-26 -28.4,-34.6 h 112.3 V 62.4 h -112.3 c -2.5,-9.3 6.2,-34.6 27.8,-34.6 h 84 V 0 h -92 c -88.3,0 -87.7,155 0,155 h 92 v -30.3 z m 397.6,-96.3 h 74.7 V 0.6 h -91.4 c -37,0 -67.3,24.1 -67.3,62.4 v 0 93.2 h 43.2 v -63 h 115.5 V 62.4 H 1773 c 0.1,-24.1 13.7,-34 40.2,-34 z M 2506.6,0.6 c -90.7,0 -101.9,155 10.5,155 v 0 h 77.2 v -30.9 h -77.8 c -43.2,0 -43.2,-96.9 0,-96.9 h 77.8 V 0.1 Z m -235.3,0 H 2152.1 2109 v 155 h 43.2 V 27.8 h 46.9 v 127.8 h 40.1 V 27.8 h 12.3 c 21.6,0 40.8,9.9 40.8,35.2 v 92.6 h 43.2 v -100 c 0.7,-37.7 -22.1,-55 -64.2,-55 z m 92.7,155 h 46.9 V 0.6 H 2364 Z m 441.5,-77.2 c 0,42.6 -25.3,80.9 -99.4,80.9 -74.1,0 -99.4,-38.3 -99.4,-80.9 0,-43.8 26.6,-77.8 99.4,-77.8 72.8,0 99.4,34 99.4,77.8 z m -46.4,-0.6 c 0,-40.8 -15.4,-53.1 -53.1,-53.1 -37.7,0 -53,11.7 -53,53.1 0,38.9 14.8,53.1 53.1,53.1 38.2,0 53,-14.2 53,-53.1 z m -678.5,-5.5 v 33.4 50 h -121 C 1889.8,155.7 1888,60 1959,60 h 75.3 c 0,-9.9 -9.9,-31.5 -36.4,-31.5 h -82.1 V 0.7 h 96.9 c 37,0.5 67.9,20.3 67.9,71.6 z m -46.3,14.8 h -62.4 c -25.3,0 -24.7,37.7 0,37.7 h 62.4 v -19.2 z m -547.1,68.5 h -43.8 V 0.6 h 43.8 v 0 h 69.2 c 78.4,0 85.8,78.4 22.8,93.9 l 49.4,61.7 h -51.2 l -39.5,-58.6 h -50 z m 0,-87.1 h 63 c 27.8,0 28.4,-40.8 0,-40.8 h -63 z M 2993.1,0.6 h -119.2 -43.2 v 155 h 43.2 V 27.8 h 46.9 v 127.8 h 40.1 V 27.8 h 12.3 c 21.6,0 40.8,9.9 40.8,35.2 v 92.6 h 43.2 v -100 c 0.8,-37.7 -21.5,-55 -64.1,-55 z"
   id="path8" />

	</g>

	<g
   id="g26">
		<g
   id="g25">
			<g
   id="g10">
				<g
   id="g9">
					<path
   d="m 1298.2,434 v -11.1 c 0,-5.7 -4.6,-10.3 -10.3,-10.3 h -21.3 -160.5 v -64 H 1304 c 47.2,0 85.6,38.3 85.6,85.6 v 83 c 0,47.2 -38.3,85.6 -85.6,85.6 h -128.7 c -27.5,0 -48.9,-5.5 -64.1,-16.3 -15.2,-10.9 -22.8,-26 -22.8,-45.3 v -20.9 c 0,-17.8 11.9,-33.3 29.1,-37.8 z m -131.9,95.8 v 11.2 0 h 116.2 c 8.7,0 15.8,-7 15.8,-15.8 v -28.9 0 z"
   id="path9" />

				</g>

			</g>

			<g
   id="g12">
				<g
   id="g11">
					<path
   d="m 2355.3,434 v -11.1 c 0,-5.7 -4.6,-10.3 -10.3,-10.3 h -21.2 -160.5 v -64 h 197.9 c 47.2,0 85.6,38.3 85.6,85.6 v 83 c 0,47.2 -38.3,85.6 -85.6,85.6 h -128.7 c -27.5,0 -48.9,-5.5 -64.1,-16.3 -15.2,-10.9 -22.8,-26 -22.8,-45.3 v -20.9 c 0,-17.8 11.9,-33.3 29.1,-37.8 z m -131.9,95.8 v 11.2 0 h 116.2 c 8.7,0 15.8,-7 15.8,-15.8 v -28.9 0 z"
   id="path10" />

				</g>

			</g>

			<g
   id="g14">
				<g
   id="g13">
					<path
   d="m 1679.1,517.2 v 11.1 c 0,5.7 4.6,10.3 10.3,10.3 h 21.2 160.5 v 64 h -197.9 c -47.2,0 -85.6,-38.3 -85.6,-85.6 v -83 c 0,-47.2 38.3,-85.6 85.6,-85.6 h 128.7 c 27.5,0 48.9,5.5 64.1,16.3 15.2,10.9 22.8,26 22.8,45.3 v 21 c 0,17.8 -11.9,33.3 -29.1,37.8 z m 131.9,-96 v -11.1 0 h -116.2 c -8.7,0 -15.8,7 -15.8,15.8 v 28.9 0 z"
   id="path12" />

				</g>

			</g>

			<g
   id="g16">
				<g
   id="g15">
					<path
   d="m 3040.5,517.2 v 11.1 c 0,5.7 4.6,10.3 10.3,10.3 h 21.2 160.5 v 64 h -197.9 c -47.2,0 -85.6,-38.3 -85.6,-85.6 v -83 c 0,-47.2 38.3,-85.6 85.6,-85.6 h 128.7 c 27.5,0 48.9,5.5 64.1,16.3 15.2,10.9 22.8,26 22.8,45.3 v 21 c 0,17.8 -11.9,33.3 -29.1,37.8 z m 131.9,-96 v -11.1 0 h -116.2 c -8.7,0 -15.8,7 -15.8,15.8 v 28.9 0 z"
   id="path14" />

				</g>

			</g>

			<g
   id="g18">
				<g
   id="g17">
					<path
   d="m 1914.6,243.5 h 91.3 v 359.1 h -91.3 z"
   id="path16" />

				</g>

			</g>

			<g
   id="g20">
				<g
   id="g19">
					<path
   d="m 2029.5,243.5 h 91.3 v 359.1 h -91.3 z"
   id="path18" />

				</g>

			</g>

			<g
   id="g22">
				<g
   id="g21">
					<path
   d="m 2537.9,348.5 88.4,172.3 90.5,-172.3 h 93.5 l -121.6,230.2 c -4.4,8.5 -12.1,15.2 -23.2,20.1 -11.1,4.9 -23.7,7.3 -37.7,7.3 -14,0 -26.7,-2.5 -38.1,-7.3 -11.3,-4.9 -19.2,-11.6 -23.5,-20.1 L 2444.5,348.5 Z"
   id="path20" />

				</g>

			</g>

			<path
   d="m 3745.5,348.5 -88.4,172.3 -65.8,-172.3 h -93.5 L 3432,520.7 3343.6,348.4 h -93.5 l 121.7,230.2 c 4.4,8.5 12.2,15.2 23.5,20.1 11.4,4.9 24,7.3 38.1,7.3 14,0 26.5,-2.5 37.7,-7.3 11.1,-4.9 18.8,-11.6 23.2,-20.1 l 50.2,-119.2 50.2,119.2 c 4.4,8.5 12.1,15.2 23.2,20.1 11.1,4.9 23.6,7.3 37.7,7.3 14,0 26.8,-2.5 38.1,-7.3 11.3,-4.9 19.2,-11.6 23.5,-20.1 L 3839,348.5 Z"
   id="path22" />

			<g
   id="g23">
				<rect
   x="2834.1001"
   y="348.5"
   width="91.300003"
   height="254"
   id="rect22" />

			</g>

			<g
   id="g24">
				<path
   d="m 1577.2,412.6 v -64 h -47.8 v -95.1 h -91.2 v 95.1 h -34.7 v 64 h 34.7 V 569 c 0,18.6 15,33.6 33.6,33.6 v 0 h 91.9 v -64 h -34.3 v -126 z"
   id="path23" />

			</g>

			<path
   d="M 967.7,384.5 H 788.9 c -15.9,0 -28.9,-13 -28.9,-28.9 v -15 c 0,-15.9 13,-28.9 28.9,-28.9 h 248.5 V 239.4 H 777.6 c -60.2,0.1 -109,48.9 -109,109.1 0,60.2 48.8,109.1 109.1,109.1 h 178.8 c 15.9,0 28.9,13 28.9,28.9 v 15 c 0,15.9 -13,28.9 -28.9,28.9 H 674.4 v 72.3 h 293.3 c 60.2,0 109.1,-48.8 109.1,-109.1 0,-60.3 -48.9,-109.1 -109.1,-109.1 z"
   id="path24" />

		</g>

		<circle
   cx="2880"
   cy="281.60001"
   r="45.400002"
   id="circle25" />

	</g>

</g>
  </g>
</svg>
