<?xml version="1.0" encoding="UTF-8" standalone="no"?>
<!-- Created with Inkscape (http://www.inkscape.org/) -->

<svg
   width="1015.7704mm"
   height="209.95352mm"
   viewBox="0 0 1015.7704 209.95352"
   version="1.1"
   id="svg1"
   inkscape:version="1.3.2 (091e20e, 2023-11-25, custom)"
   sodipodi:docname="saturn.svg"
   xmlns:inkscape="http://www.inkscape.org/namespaces/inkscape"
   xmlns:sodipodi="http://sodipodi.sourceforge.net/DTD/sodipodi-0.dtd"
   xmlns:xlink="http://www.w3.org/1999/xlink"
   xmlns="http://www.w3.org/2000/svg"
   xmlns:svg="http://www.w3.org/2000/svg">
  <sodipodi:namedview
     id="namedview1"
     pagecolor="#ffffff"
     bordercolor="#000000"
     borderopacity="0.25"
     inkscape:showpageshadow="2"
     inkscape:pageopacity="0.0"
     inkscape:pagecheckerboard="true"
     inkscape:deskcolor="#d1d1d1"
     inkscape:document-units="mm"
     inkscape:zoom="1.4142136"
     inkscape:cx="424.26407"
     inkscape:cy="612.70803"
     inkscape:window-width="3840"
     inkscape:window-height="2054"
     inkscape:window-x="-11"
     inkscape:window-y="-11"
     inkscape:window-maximized="1"
     inkscape:current-layer="layer1" />
  <defs
     id="defs1">
    <linearGradient
       id="SVGID_00000069385831771526815650000012041550346979783082_"
       gradientUnits="userSpaceOnUse"
       x1="1980.522"
       y1="793.52148"
       x2="1980.522"
       y2="-4.5474741e-13">
      <stop
         offset="0.3079"
         style="stop-color:#000000"
         id="stop67" />
      <stop
         offset="0.3997"
         style="stop-color:#1B0007"
         id="stop68" />
      <stop
         offset="0.5976"
         style="stop-color:#610018"
         id="stop69" />
      <stop
         offset="0.8838"
         style="stop-color:#CE0033"
         id="stop70" />
      <stop
         offset="1"
         style="stop-color:#FD003E"
         id="stop71" />
    </linearGradient>
    <clipPath
       id="SVGID_00000051364873858113415340000003641250975988061621_">
      <use
         xlink:href="#SVGID_00000165916841862574933550000017251654766766167482_"
         style="overflow:visible"
         id="use48" />
    </clipPath>
    <clipPath
       id="clipPath1">
      <use
         xlink:href="#SVGID_00000165916841862574933550000017251654766766167482_"
         style="overflow:visible"
         id="use1" />
    </clipPath>
    <clipPath
       id="clipPath2">
      <use
         xlink:href="#SVGID_00000165916841862574933550000017251654766766167482_"
         style="overflow:visible"
         id="use2" />
    </clipPath>
    <path
       id="SVGID_00000005971588370065116310000013880176316864825472_"
       d="m 212,475 c 25.5,-5.7 51.1,-11.3 76.4,-17.9 25.5,-6.6 50.5,-14.8 75.2,-23.8 24.6,-9 49,-18.6 73.4,-28.4 11.5,-4.6 23.1,-8.8 34.9,-12.9 7.1,-2.5 14.2,-5 21.1,-7.9 -2.9,-29.4 -12.5,-56.8 -27.3,-80.7 -21.8,7.8 -44.4,13.3 -66.6,19.8 -24.8,7.3 -49.5,14.7 -74.1,22.8 -24.6,8.1 -49,16.5 -73.7,24.2 -24.9,7.8 -49.9,15.1 -74.6,23.2 -20.7,6.8 -41.2,14.6 -62.4,19.9 1.5,28.2 9.2,54.8 21.7,78.4 25.7,-3.4 50.7,-11 76,-16.7 z" />
    <circle
       id="SVGID_00000165916841862574933550000017251654766766167482_"
       cx="303.89999"
       cy="402.89999"
       r="190" />
  </defs>
  <g
     inkscape:label="Layer 1"
     inkscape:groupmode="layer"
     id="layer1"
     transform="translate(402.96041,-43.391667)"
     style="display:inline">
    <g
       id="g73"
       transform="matrix(0.26458333,0,0,0.26458333,-402.92885,43.377833)">
      <linearGradient
         id="linearGradient8"
         gradientUnits="userSpaceOnUse"
         x1="1980.522"
         y1="793.52148"
         x2="1980.522"
         y2="-4.5474741e-13">
        <stop
           offset="0.3079"
           style="stop-color:#000000"
           id="stop4" />
        <stop
           offset="0.3997"
           style="stop-color:#1B0007"
           id="stop5" />
        <stop
           offset="0.5976"
           style="stop-color:#610018"
           id="stop6" />
        <stop
           offset="0.8838"
           style="stop-color:#CE0033"
           id="stop7" />
        <stop
           offset="1"
           style="stop-color:#FD003E"
           id="stop8" />
      </linearGradient>
      <path
         style="fill:url(#SVGID_00000069385831771526815650000012041550346979783082_)"
         d="m 2044.6,6.3 c 3,-1.5 6.5,-3.2 10.5,-5 13.2,-6.2 23.7,12.3 11.6,20.5 -4.2,2.9 -8,5.5 -11.1,7.6 -38.8,27.2 -72.7,59.2 -72.7,167.4 0,135.9 112.5,268.4 112.5,366.9 0,76.4 -21.6,146.5 -191.1,228.7 -5.6,2.7 -12.2,0.6 -15.3,-4.7 v 0 c -3.3,-5.7 -1.1,-13 4.6,-16.1 67.7,-36.2 87.6,-111.2 84.7,-175.6 -6,-134 -114.5,-249.2 -112.5,-359.1 C 1867,171.3 1893,82.6 2044.6,6.3 Z"
         id="path71" />
      <path
         d="m 1938.7,552.3 c -9.6,-3.6 -29.1,-13.9 -41.4,-41.1 L 1763,213.4 c -5.7,-12.7 -23.5,-13.2 -29.9,-0.9 l -99.4,188.7 c -5.1,9.8 -15.3,15.9 -26.3,15.9 h -119.2 -4 c -4,0 -8,3.2 -8.6,7.1 -0.8,5.1 2.9,9.5 7.8,9.9 33.1,3 53,25.1 52.7,60.8 -0.2,32.9 -27.7,59.9 -60.7,59.9 h -8.6 c -88.3,0 -92.1,-101.4 -92.1,-123.6 0,-25.8 0,-77.6 0,-77.6 0,-38.1 15.3,-104.9 89.7,-104.9 69.5,0 108.5,32 140.3,74.4 5.2,7 16.3,1.2 13.6,-7.1 l -27.9,-87.4 c -2.7,-8.4 -12.6,-12.1 -20.2,-7.5 -20.5,12.6 -32.5,10.5 -32.5,10.5 -10.1,0.3 -42.2,-8.8 -81.2,-8.8 -62.2,0 -112.5,24.7 -146.9,57.9 -3.4,3.3 -9.1,2.2 -10.8,-2.3 l -15.4,-37.5 c -3.2,-7.8 -7.3,-12.8 -15.7,-12.8 H 1090.5 V 228 h -92.2 c -5.9,0 -11.6,-0.2 -17.5,-0.5 -31.6,-1.7 -142.6,-7.5 -199.4,-7.5 -71.2,0 -127,22.3 -132.6,74.8 -4.2,39.5 23.2,60.1 38.9,74.5 8.5,7.8 48.5,33.1 69,42.6 21.4,9.9 106.8,52.7 98,86.6 -8.8,33.6 -37.7,41.9 -71,41.9 -52.3,0 -108.4,-43.3 -150,-82.1 -7.2,-6.8 -18.4,1.6 -13.9,10.5 17.2,33.6 39.2,74.5 53.6,96.1 4.1,6.1 11.5,9.1 18.7,7.2 15.5,-3.9 35.6,-6 47.8,-5.4 15.7,0.7 48.6,5 63,5 119.8,0 157.3,-31.5 161.2,-86.1 5.4,-75.1 -84.3,-125.1 -138.9,-147 -48.8,-19.7 -67.7,-49.3 -65.6,-64 3.4,-25.5 27.7,-29.8 48,-29 63,2.4 181.8,33.1 181.8,76.3 0,0 0,192.1 0,200.5 0,11.2 -12.2,31.4 -27.7,31.4 h -0.3 c -2.8,0 -5.6,1 -7.6,3 -5.4,5.4 -1.6,11.7 3.5,11.7 h 66.9 v 0 h 66.3 189.1 c 6.1,0 11.4,-3.6 13.8,-9.3 l 10.3,-25.1 c 2,-4.8 8.1,-6.3 12,-2.8 33.7,30.5 83.1,49.6 150.6,49.6 15.7,0 48.4,-4.3 63.6,-9.9 4.8,-1.7 10,-2.7 15.1,-2.7 h 126.5 20.4 c 7.5,0 11.1,-9.4 5.5,-14.4 -2.5,-2.2 -4.7,-4.2 -6.3,-5.7 -12,-10.9 -11.5,-18.3 -11.8,-24.6 -0.3,-6.2 1,-12.3 3.9,-17.9 l 89.6,-170.2 76.5,169.9 c 2.6,5.7 3.8,11.9 3.3,18.1 -0.1,0.8 -0.1,1.5 -0.2,2.1 -1.4,8 -8.6,24.2 -22.1,24.2 h -2.2 c -3.3,0 -6.6,1.1 -9.1,3.3 -7.5,6.7 -2.9,15.1 3.7,15.1 H 1936 c 5.2,0 9.4,-4.7 8.3,-10.1 -0.5,-2.4 -2.7,-4.8 -5.6,-5.8 z M 1280.8,315.8 c -15.4,24.3 -23.8,50 -23.8,72.6 0,30.1 5.6,59.6 17.3,86 2.6,5.8 1.4,12.6 -3,17.1 -21.7,22 -69.1,52.7 -136.9,52.7 h -16.6 c -15.1,0 -27.4,-12.2 -27.4,-27.4 v -92.3 -4.9 c 0,-5.1 7.7,-11.5 16.4,-9.8 13.3,2.6 36.6,10.9 55.3,21.7 13.1,7.6 24.9,15.5 38.5,26.8 6,4.9 15,0.6 15,-7.1 v -29 -57.3 -29 c 0,-7.7 -9.1,-12 -15,-7.1 -13.6,11.2 -25.4,19.1 -38.5,26.8 -18.6,10.7 -42.7,22 -55.9,25.1 -10.2,2.4 -13.8,-1.6 -15.7,-5.5 V 369.6 279 c 0,-14.4 11.7,-26.1 26.1,-26.1 h 33.5 c 54.9,0 105,31.5 129.1,52.3 3.1,2.5 3.8,7.2 1.6,10.6 z"
         id="path72" />
      <path
         d="m 3838.7,232.1 c -0.8,-2.4 -3.2,-3.9 -5.8,-3.9 h -26.3 -49.5 -26.3 c -2.6,0 -4.9,1.5 -5.8,3.9 -1.1,3.3 0.7,6.6 3.7,7.6 9.5,3.1 32.2,13.1 32.2,36.9 v 143.1 c 0,5.5 -6.4,8.4 -10.6,4.9 L 3599.9,299.8 c -46.9,-39 -113.4,-64.9 -157.3,-79.1 -9.7,-3.1 -16.4,9.7 -8.2,15.8 1.4,1.1 2.9,2.2 4.4,3.3 50.1,37.7 55.5,91.7 55.5,97.8 v 192.4 9.3 c 0,7.2 -5.9,13.1 -13.1,13.1 -16.8,0 -54.3,-27.3 -73.5,-47.3 -18,-18.8 -26.6,-44.8 -46.8,-68.5 -16.1,-18.8 -29.7,-25.8 -29.7,-25.8 101.1,0 104.1,-82 104.1,-91.2 0,-13.7 0,-91.6 -126.6,-91.6 h -292.1 -49.7 c -2.6,0 -4.9,1.5 -5.8,3.9 -1.1,3.3 0.7,6.7 3.7,7.6 9.5,3.1 32.2,13.1 32.2,36.9 v 180.1 c 0,62.2 -43.5,83 -78.4,83 -63.6,0 -88,-37.5 -88,-84.6 v -27.3 0 -151.2 c 0,-23.9 22.7,-33.9 32.2,-36.9 2.5,-0.8 4.1,-3 4.1,-5.6 v -0.1 c 0,-3.2 -2.6,-5.9 -5.9,-5.9 h -114 -17.5 -229.9 -117.1 c -7.1,0 -13.7,4.1 -16.8,10.5 l -18.8,39 c -3.2,6.7 4.4,13.3 10.6,9.2 25.2,-17.1 67.6,-36.7 129.6,-39.1 6.8,-0.2 12.4,5.2 12.4,12 v 246.9 c 0,11.7 -4.3,20.8 -10.2,27.7 -4.5,5.4 -11.3,8.4 -18.4,8.4 h -15.2 c -4.9,0 -9.9,-1.3 -14.1,-4.1 -9.7,-6.3 -18.8,-15.1 -24.4,-27.5 L 2282.9,213.1 c -5.8,-12.7 -23.5,-13.2 -29.9,-0.9 l -139.7,265.1 -40.3,76.4 2.8,14.6 h 40.5 7.2 88 v 0 c 7.5,0 11.1,-9.4 5.5,-14.4 0,0 -0.1,0 -0.1,-0.1 -2.5,-2.2 -4.6,-4.1 -6.2,-5.6 -11.9,-10.7 -11.5,-18.1 -11.8,-24.4 -0.3,-6.3 1,-12.6 3.9,-18.1 l 89.7,-170.2 76.5,169.9 c 2.6,5.7 3.8,11.9 3.3,18.1 -0.1,0.8 -0.1,1.5 -0.2,2.1 -1.4,8 -8.6,24.2 -22.1,24.2 h -0.2 c -2.7,0 -5.4,0.8 -7.5,2.5 -8.8,6.8 -4.1,15.9 2.7,15.9 h 112.9 6.6 89.2 26.3 53.9 c 4.6,0 8.6,-3.5 8.8,-8.1 0.2,-3.7 -2.1,-7.2 -5.5,-8.4 -11.3,-4.3 -36.3,-17.2 -36.3,-45.4 V 259.5 c 0,-7 5.7,-12.3 12.7,-12 47.9,1.9 84.2,14 109.7,27.4 4.1,2.2 6.7,6.4 6.7,11 V 445 h 0.4 c 4.1,73.1 38.8,129.2 165.9,129.2 73.7,0 142.7,-38.6 142.7,-109.7 0,-8.7 0,-182.3 0,-182.3 0,-10.8 3.4,-18.4 7.7,-23.7 6.3,-7.7 15.9,-11.8 25.9,-11.8 h 15 c 10,0 19.7,4.1 25.9,11.8 4.3,5.4 7.7,13 7.7,23.7 v 220.7 c 0,32.8 -26,45.2 -38.2,49.2 -2.9,0.9 -5.2,3.3 -5.9,6.4 -1,5.4 3,10.1 8.2,10.1 h 54.3 61.3 56.8 c 3.5,0 6.8,-2.1 8,-5.4 1.7,-4.7 -0.8,-9.6 -5.1,-11 -11.9,-3.9 -38.5,-16.3 -38.5,-49.3 V 293.6 268.7 c 0,-18.7 16.1,-25.5 27.1,-25.5 h 31.6 c 29.4,0 58.6,24.8 58.6,66.2 0,60.7 -39.5,75.4 -55.7,75.4 -10.8,0 -19.2,0.2 -28.2,-3.1 0,0 -0.1,0 -0.1,-0.1 -5.7,-2.7 -11.7,2.6 -9.9,8.5 0.1,0.3 0.1,0.5 0.2,0.5 9.5,32.1 26.5,81.2 49.8,112.5 36.1,48.7 104.6,87.5 219.6,87.5 h 49.4 c 3.1,0 6,-1.9 6.9,-4.7 1.3,-4 -0.9,-8 -4.6,-9.2 -9.9,-3 -30.9,-11.9 -30.9,-34.3 V 380.9 c 0,-5.5 6.4,-8.4 10.6,-4.9 l 238.7,198.2 c 6.9,5.7 17.2,0.8 17.2,-8.1 V 276.7 c 0,-23.9 22.7,-33.9 32.2,-36.9 3.3,-1 5.2,-4.3 4.1,-7.7 z"
         id="path73" />
    </g>
    <g
       id="g39"
       transform="matrix(0.26458333,0,0,0.26458333,-402.92885,43.377833)">
      <defs
         id="defs38">
        <path
           id="path1"
           d="m 212,475 c 25.5,-5.7 51.1,-11.3 76.4,-17.9 25.5,-6.6 50.5,-14.8 75.2,-23.8 24.6,-9 49,-18.6 73.4,-28.4 11.5,-4.6 23.1,-8.8 34.9,-12.9 7.1,-2.5 14.2,-5 21.1,-7.9 -2.9,-29.4 -12.5,-56.8 -27.3,-80.7 -21.8,7.8 -44.4,13.3 -66.6,19.8 -24.8,7.3 -49.5,14.7 -74.1,22.8 -24.6,8.1 -49,16.5 -73.7,24.2 -24.9,7.8 -49.9,15.1 -74.6,23.2 -20.7,6.8 -41.2,14.6 -62.4,19.9 1.5,28.2 9.2,54.8 21.7,78.4 25.7,-3.4 50.7,-11 76,-16.7 z" />
      </defs>
      <clipPath
         id="clipPath3">
        <use
           xlink:href="#SVGID_00000005971588370065116310000013880176316864825472_"
           style="overflow:visible"
           id="use3" />
      </clipPath>
      <path
         d="m 156.9,523.3 c -29.6,2.7 -57.4,3.5 -82.3,2.2 -13.4,-0.7 -24.7,9.7 -25.2,23.1 -0.5,13.3 10,24.3 23.2,24.9 8.7,0.4 17.7,0.6 26.9,0.6 33.1,0 69.2,-2.8 106.8,-8.2 -18.8,-11.3 -35.5,-25.7 -49.4,-42.6 z"
         id="path42" />
      <path
         d="m 601.2,355.5 c -2.3,-14.2 -10,-25.6 -22.3,-33 -21.4,-12.9 -55.95657,-12.50519 -104.05657,-2.50519 7,14.4 12.23294,29.71043 15.43294,45.81043 C 522.47637,359.50524 539,360 547.2,361.4 c 4.6,0.8 7.4,5.6 5.9,10 -2.3,6.5 -7.4,12.9 -10.9,16.8 -11,12.3 -28,25.1 -49.6,37.6 -2.7,22.7 -9.4,44.2 -19.4,63.7 47.1,-21.9 83.4,-45.8 104.6,-69.4 19,-21.4 26.9,-43.1 23.4,-64.6 z"
         id="path41"
         sodipodi:nodetypes="ccccccccccc" />
      <path
         d="m 56.8,437.8 c -7,-0.6 -8.6,-7.1 -6.6,-11 0.7,-1.4 1.6,-3 2.8,-4.6 10.2,-14.6 32.1,-30.7 62.9,-46.9 3.3,-22.4 10.4,-43.5 20.8,-62.7 -51,21.9 -100.3,49.9 -123,82.4 -18.3,26.4 -15.1,49.1 -9.2,63.4 15,36.3 66.4,29.8 114.6,18.7 2.9,-0.7 6.13296,-1.48228 9.13296,-2.18228 -6,-14.7 -10.27059,-30.15069 -12.47059,-46.35069 C 84.562368,436.56703 66.5,438.7 56.8,437.8 Z"
         id="path40"
         style="display:inline"
         sodipodi:nodetypes="ccccccccccc" />
      <path
         d="m 448.2,279.4 c 27.9,-3.3 53,-4.7 73.5,-3.9 13.3,0.5 24.4,-9.8 24.9,-23.1 0.5,-13.3 -9.8,-24.4 -23.1,-24.9 -33.2,-1.3 -76.9,2.6 -125.1,10.6 19,10.9 35.8,24.9 49.8,41.3 z"
         id="path39" />
      <path
         style="display:inline"
         d="m 477.00963,319.62846 c -51.31446,10.41724 -118.17649,31.82771 -201.41016,59.57227 -55.79994,18.59998 -108.40004,35.69884 -152,47.29883 -3.33098,0.89927 -5.84843,1.43507 -8.91016,2.21289 a 191.4975,191.49747 0 0 0 12.86719,46.30469 c 46.52828,-11.40046 103.16777,-30.2252 163.14258,-50.2168 61.39994,-20.49998 124.90044,-41.6008 175.90039,-53.80078 9.62061,-2.32015 17.94892,-4.05302 25.61329,-5.50586 a 191.4975,191.49747 0 0 0 -15.20313,-45.86524 z"
         id="path12" />
    </g>
    <path
       id="polygon36"
       clip-path="url(#SVGID_00000086661676995889231440000000741745767358025351_)"
       style="display:inline;stroke-width:0.26651"
       d="m -322.41323,99.152615 a 50.670531,50.667067 0 0 0 -0.82467,0.0588 l 51.48833,50.335245 a 50.670531,50.667067 0 0 0 -0.2145,-4.38048 c -9.04355,-7.97603 -17.94461,-15.877 -20.67612,-18.51546 -4.23204,-4.09316 -15.37985,-16.8764 -24.29789,-27.191053 a 50.670531,50.667067 0 0 0 -5.47515,-0.307063 z m -3.39958,0.243043 a 50.670531,50.667067 0 0 0 -5.99879,0.748342 l 59.28161,58.13449 a 50.670531,50.667067 0 0 0 0.49877,-4.42836 c -10.74161,-9.56544 -22.29208,-19.90803 -25.61974,-23.12233 -5.01796,-4.83285 -19.98555,-21.94537 -28.16185,-31.332142 z m 13.04942,0.690052 39.81069,38.7978 a 50.670531,50.667067 0 0 0 -1.125,-4.23477 c -6.15848,-5.40074 -11.5745,-10.19177 -13.55119,-12.10111 -3.09899,-2.99724 -11.02649,-12.03768 -18.50108,-20.69349 a 50.670531,50.667067 0 0 0 -6.63342,-1.76843 z m -20.94685,0.47151 a 50.670531,50.667067 0 0 0 -5.56931,1.61439 l 64.79736,63.76402 a 50.670531,50.667067 0 0 0 1.22286,-4.30711 c -11.61056,-10.45421 -25.4573,-22.9603 -29.42944,-26.79711 -5.55462,-5.37154 -24.61025,-26.9876 -31.02147,-34.27419 z m -7.04115,2.16294 a 50.670531,50.667067 0 0 0 -5.10284,2.31695 l 68.54311,67.6423 a 50.670531,50.667067 0 0 0 1.85385,-4.12964 c -11.3128,-10.30512 -27.7757,-25.32689 -32.24283,-29.6418 -5.94312,-5.72391 -28.4767,-31.04289 -33.05129,-36.18781 z m -6.33092,2.98727 a 50.670531,50.667067 0 0 0 -4.63644,2.9186 l 70.79257,70.10862 a 50.670531,50.667067 0 0 0 2.43538,-3.89544 c -10.4178,-9.62164 -29.35984,-27.13205 -34.19348,-31.80108 -6.15893,-5.9567 -31.18813,-33.76292 -34.39803,-37.3307 z m 49.85619,0.1655 18.03613,17.52248 a 50.670531,50.667067 0 0 0 -18.03613,-17.52248 z m -55.55214,3.54571 a 50.670531,50.667067 0 0 0 -4.13668,3.42811 l 71.7063,71.24212 a 50.670531,50.667067 0 0 0 2.97522,-3.60816 c -9.38622,-8.7741 -30.39315,-28.42202 -35.4887,-33.36551 -6.23277,-6.02824 -32.35451,-34.72738 -35.05614,-37.69656 z m -5.0982,4.39038 a 50.670531,50.667067 0 0 0 -3.62606,3.89231 l 71.33935,71.10735 a 50.670531,50.667067 0 0 0 3.51562,-3.28081 c -7.98449,-7.57231 -30.72051,-29.12649 -36.0858,-34.30905 -6.18342,-5.98034 -32.04025,-34.04115 -35.14311,-37.4098 z m -4.47407,5.0253 a 50.670531,50.667067 0 0 0 -3.09812,4.33939 l 69.67916,69.67978 a 50.670531,50.667067 0 0 0 4.04033,-2.8728 c -7.67107,-7.37772 -30.60934,-29.43675 -36.01495,-34.65826 -6.01342,-5.81601 -30.27919,-31.84398 -34.60642,-36.48811 z m -3.8316,5.68315 a 50.670531,50.667067 0 0 0 -2.54044,4.83846 l 66.61112,66.83094 a 50.670531,50.667067 0 0 0 4.64789,-2.40857 c -7.92847,-7.73374 -29.94736,-29.21683 -35.29189,-34.37931 -5.71335,-5.52586 -27.26035,-28.34541 -33.42668,-34.88152 z m -3.12871,6.41434 a 50.670531,50.667067 0 0 0 -1.89089,5.39585 l 61.92374,62.35467 a 50.670531,50.667067 0 0 0 5.35489,-1.81994 c -9.26647,-9.15994 -28.84243,-28.50336 -33.87022,-33.35979 -5.27913,-5.10592 -23.38425,-24.04933 -31.51752,-32.57079 z m -2.28078,7.18822 a 50.670531,50.667067 0 0 0 -1.10009,6.2171 l 55.24292,55.79462 a 50.670531,50.667067 0 0 0 6.27684,-1.03723 c -10.14664,-10.17823 -26.91732,-26.98637 -31.60564,-31.51483 -4.69326,-4.52029 -19.1896,-19.49503 -28.81403,-29.45966 z m -1.24488,8.24106 a 50.670531,50.667067 0 0 0 -0.24716,3.45879 50.670531,50.667067 0 0 0 0.28051,3.92564 l 45.79975,46.41278 a 50.670531,50.667067 0 0 0 4.59017,0.32838 50.670531,50.667067 0 0 0 2.97159,-0.21234 c -10.628,-10.79768 -24.20657,-24.5664 -28.37363,-28.59155 -3.91089,-3.76664 -15.17736,-15.25194 -25.02123,-25.3217 z m 0.19054,9.58586 a 50.670531,50.667067 0 0 0 43.62735,44.06718 c -9.78368,-10.06255 -20.40992,-20.94598 -23.80748,-24.22774 -3.01258,-2.90134 -11.54276,-11.48199 -19.81987,-19.83944 z" />
  </g>
</svg>
