<?xml version="1.0" encoding="UTF-8" standalone="no"?>
<!-- Created with Inkscape (http://www.inkscape.org/) -->

<svg
   width="1016.0343mm"
   height="276.16333mm"
   viewBox="0 0 1016.0343 276.16333"
   version="1.1"
   id="svg1"
   inkscape:version="1.3.2 (091e20e, 2023-11-25, custom)"
   sodipodi:docname="scummvm.svg"
   xmlns:inkscape="http://www.inkscape.org/namespaces/inkscape"
   xmlns:sodipodi="http://sodipodi.sourceforge.net/DTD/sodipodi-0.dtd"
   xmlns="http://www.w3.org/2000/svg"
   xmlns:svg="http://www.w3.org/2000/svg">
  <sodipodi:namedview
     id="namedview1"
     pagecolor="#ffffff"
     bordercolor="#000000"
     borderopacity="0.25"
     inkscape:showpageshadow="2"
     inkscape:pageopacity="0.0"
     inkscape:pagecheckerboard="0"
     inkscape:deskcolor="#d1d1d1"
     inkscape:document-units="mm"
     inkscape:zoom="0.57291968"
     inkscape:cx="1124.0668"
     inkscape:cy="793.30492"
     inkscape:window-width="3840"
     inkscape:window-height="2054"
     inkscape:window-x="-11"
     inkscape:window-y="-11"
     inkscape:window-maximized="1"
     inkscape:current-layer="layer1" />
  <defs
     id="defs1">
    <linearGradient
       id="path27_1_"
       gradientUnits="userSpaceOnUse"
       x1="3264.9182"
       y1="13009.435"
       x2="3264.9182"
       y2="12091.705"
       gradientTransform="matrix(1,0,0,-1,49.8896,13084.131)">
				<stop
   offset="0"
   style="stop-color:#EAEDE9"
   id="stop1" />

				<stop
   offset="0.1746"
   style="stop-color:#E8EAE7"
   id="stop2" />

				<stop
   offset="0.2796"
   style="stop-color:#DFE1DD"
   id="stop3" />

				<stop
   offset="0.3661"
   style="stop-color:#D1D4D1"
   id="stop4" />

				<stop
   offset="0.4427"
   style="stop-color:#BFBFBC"
   id="stop5" />

				<stop
   offset="0.5127"
   style="stop-color:#A5A5A3"
   id="stop6" />

				<stop
   offset="0.5769"
   style="stop-color:#858585"
   id="stop7" />

				<stop
   offset="0.6"
   style="stop-color:#7B7B7B"
   id="stop8" />

				<stop
   offset="1"
   style="stop-color:#343732"
   id="stop9" />

			</linearGradient>
    <linearGradient
       id="path50_1_"
       gradientUnits="userSpaceOnUse"
       x1="2484.991"
       y1="13029.803"
       x2="2484.991"
       y2="12155.48"
       gradientTransform="matrix(1,0,0,-1,49.8896,13084.131)">
				<stop
   offset="0"
   style="stop-color:#EAEDE9"
   id="stop10" />

				<stop
   offset="0.1746"
   style="stop-color:#E8EAE7"
   id="stop11" />

				<stop
   offset="0.2796"
   style="stop-color:#DFE1DD"
   id="stop12" />

				<stop
   offset="0.3661"
   style="stop-color:#D1D4D1"
   id="stop13" />

				<stop
   offset="0.4427"
   style="stop-color:#BFBFBC"
   id="stop14" />

				<stop
   offset="0.5127"
   style="stop-color:#A5A5A3"
   id="stop15" />

				<stop
   offset="0.5769"
   style="stop-color:#858585"
   id="stop16" />

				<stop
   offset="0.6"
   style="stop-color:#7B7B7B"
   id="stop17" />

				<stop
   offset="1"
   style="stop-color:#343732"
   id="stop18" />

			</linearGradient>
    <linearGradient
       id="SVGID_1_"
       gradientUnits="userSpaceOnUse"
       x1="1628.8079"
       y1="1338.1276"
       x2="839.12567"
       y2="-29.642">
		<stop
   offset="0"
   style="stop-color:#D6E067"
   id="stop19" />

		<stop
   offset="0.5192"
   style="stop-color:#9BC93B"
   id="stop20" />

		<stop
   offset="1"
   style="stop-color:#5F8A3D"
   id="stop21" />

	</linearGradient>
    <linearGradient
       id="SVGID_2_"
       gradientUnits="userSpaceOnUse"
       x1="1254.4264"
       y1="350.67899"
       x2="1254.4264"
       y2="877.97998">
		<stop
   offset="0"
   style="stop-color:#D6E067"
   id="stop22" />

		<stop
   offset="0.5192"
   style="stop-color:#9BC93B"
   id="stop23" />

		<stop
   offset="1"
   style="stop-color:#5F8A3D"
   id="stop24" />

	</linearGradient>
  </defs>
  <g
     inkscape:label="Layer 1"
     inkscape:groupmode="layer"
     id="layer1"
     transform="translate(402.96042,-10.31875)">
    <g
       id="g24"
       transform="matrix(0.26458333,0,0,0.26458333,-402.90932,10.307022)">
	<g
   id="VM_4_">
		<g
   id="layer7_4_">
			
				<linearGradient
   id="linearGradient33"
   gradientUnits="userSpaceOnUse"
   x1="3264.9182"
   y1="13009.435"
   x2="3264.9182"
   y2="12091.705"
   gradientTransform="matrix(1,0,0,-1,49.8896,13084.131)">
				<stop
   offset="0"
   style="stop-color:#EAEDE9"
   id="stop25" />

				<stop
   offset="0.1746"
   style="stop-color:#E8EAE7"
   id="stop26" />

				<stop
   offset="0.2796"
   style="stop-color:#DFE1DD"
   id="stop27" />

				<stop
   offset="0.3661"
   style="stop-color:#D1D4D1"
   id="stop28" />

				<stop
   offset="0.4427"
   style="stop-color:#BFBFBC"
   id="stop29" />

				<stop
   offset="0.5127"
   style="stop-color:#A5A5A3"
   id="stop30" />

				<stop
   offset="0.5769"
   style="stop-color:#858585"
   id="stop31" />

				<stop
   offset="0.6"
   style="stop-color:#7B7B7B"
   id="stop32" />

				<stop
   offset="1"
   style="stop-color:#343732"
   id="stop33" />

			</linearGradient>

			<path
   id="path27_4_"
   class="st0"
   d="m 2958.5,95.8 -117.3,787.4 c -0.9,6.4 0.7,12.6 4.6,17.6 3.9,5 9.6,8 16.1,8.6 l 108.7,9.5 c 13,1.1 25,-8.4 26.8,-21.3 0,0 59.6,-429 63.5,-456.6 7.8,26.9 140.3,481.9 140.3,481.9 3.4,11.7 15.5,21.8 27.6,23.1 l 72.5,7.7 c 12,1.3 26.1,-5.9 32.2,-16.4 0,0 231.6,-401.7 244.5,-424.1 -2.2,25.6 -37.8,439.4 -37.8,439.4 -0.1,0.7 -0.1,1.4 -0.1,2.1 0,12.2 9.4,22.8 21.7,24.1 l 130.2,13.5 c 6.4,0.7 12.6,-1.2 17.5,-5.3 4.9,-4.1 8,-9.8 8.5,-16.2 l 70.6,-791.7 c 0.6,-6.4 -1.4,-12.6 -5.5,-17.5 -4.1,-4.9 -9.9,-7.9 -16.2,-8.5 l -122.3,-10.6 c -12,-1 -26,6.4 -31.8,17 l -303,553.4 c 0,0 0,0 0,0.1 0,0 0,0 0,-0.1 L 3147.6,111.5 c -3.2,-11.8 -15.2,-22 -27.4,-23.2 L 2985.4,74.7 c -12.9,-1.2 -25,8.2 -26.9,21.1 z"
   style="fill:url(#path27_1_)" />

		</g>

		<g
   id="layer4_4_">
			<path
   id="path29_4_"
   d="m 3822.4,128.7 c -12.9,-15.4 -31.1,-24.9 -51.1,-26.6 L 3649,91.5 c -32.3,-2.8 -65.7,15.1 -81.3,43.5 0,0 -163.8,299.2 -241.8,441.5 -42,-155.7 -129,-478.2 -129,-478.2 -8.8,-32.5 -38.3,-57.5 -71.8,-60.9 L 2990.3,23.8 c -40.5,-4.1 -76.8,24.2 -82.8,64.5 l -117.3,787.4 c -3,20.2 2.5,41 15.1,56.9 12.6,16 31.5,26.1 51.9,27.9 L 2966,970 c 40.4,3.5 76.4,-25.2 82,-65.3 0,0 15.3,-110.2 30.5,-219.2 36.6,125.9 73.3,251.8 73.3,251.8 9.2,31.7 38.6,56.3 71.4,59.8 l 72.5,7.7 c 32.1,3.4 65.9,-13.7 82,-41.7 0,0 64.7,-112.2 129.3,-224.1 -9,104.1 -18,209.4 -18,209.4 -0.2,2.2 -0.3,4.3 -0.3,6.4 0,38.1 29.2,71.1 67.7,75.1 l 130.2,13.5 c 20.1,2.1 39.8,-3.9 55.4,-16.7 15.6,-12.9 25.2,-31 27,-51.2 l 70.6,-791.7 c 1.9,-20.2 -4.3,-39.7 -17.2,-55.1 z m -203.6,34.2 c 4.5,-8.2 15.9,-14.3 25.2,-13.5 l 40.3,3.5 -41.3,123.7 h -86.5 z m -634.1,-81.3 134.8,13.6 c 9.4,0.9 19,9.1 21.5,18.2 l 37.2,138 h -156.3 -3.7 l -1.1,3.6 -20.2,63.5 h -64.6 l 33,-221.6 c 1.3,-9.4 10.1,-16.2 19.4,-15.3 z m -64.7,615 23.7,12.9 1.1,0.6 h 1.3 70.3 l -9.9,71 -140.8,-16.7 10.1,-68.1 z m 51.1,215.5 -108.7,-9.5 c -9.4,-0.8 -15.9,-9.1 -14.5,-18.4 l 16.3,-109.7 140.9,16.8 -14.6,105.4 c -1.3,9.3 -10,16.2 -19.4,15.4 z m 92,-487.3 c -2.6,-9 -5.8,-8.8 -7.1,0.5 l -38.2,274.5 h -70.4 l -23.7,-12.9 -1.1,-0.6 h -1.3 l -43.9,-0.3 53.2,-357.4 h 69.9 3.7 l 1.1,-3.6 20.2,-63.5 h 155.3 l 74.8,277.5 h -73 -5.1 v 5.1 187.2 h -25.2 z m 629.6,560.7 -63,-6.5 6.3,-90.1 32.6,-4.3 2.7,-0.4 1.2,-2.5 8.3,-16.8 h 39.7 l -9.4,105.3 c -0.7,9.4 -9.1,16.3 -18.4,15.3 z m 28.8,-130.8 h -43.8 -3.2 l -1.4,2.9 -8.5,17.2 -34,4.5 -4.1,0.5 -0.3,4.2 -6.6,93.9 -57.1,-5.9 c -9.3,-1 -16.3,-9.4 -15.5,-18.8 l 23.1,-268.4 h 70.6 5.1 v -5.1 l 0.4,-163.5 29.3,-105.7 85.7,0.3 z m 40.5,-454 -90.4,-0.4 h -3.9 l -1,3.8 -30.5,110.2 -0.2,0.7 v 0.7 l -0.4,159 H 3571 l 15,-174.4 c 0.8,-9.4 -2.4,-10.4 -7.1,-2.2 L 3327.5,934 c -4.7,8.1 -16.2,14 -25.5,13 l -72.5,-7.7 c -9.3,-1 -19.2,-9.2 -21.8,-18.2 l -52.2,-179.3 h 27.4 5.1 v -5.1 -187.3 h 70.6 l 44.6,165.3 c 2.4,9.1 8.1,9.8 12.7,1.5 L 3551,286.9 h 95.8 3.7 l 1.2,-3.5 43.2,-129.6 71.5,6.2 c 9.4,0.8 16.3,9.1 15.5,18.5 z" />

		</g>

		<g
   id="layer6_4_">
			
				<linearGradient
   id="linearGradient42"
   gradientUnits="userSpaceOnUse"
   x1="2484.991"
   y1="13029.803"
   x2="2484.991"
   y2="12155.48"
   gradientTransform="matrix(1,0,0,-1,49.8896,13084.131)">
				<stop
   offset="0"
   style="stop-color:#EAEDE9"
   id="stop34" />

				<stop
   offset="0.1746"
   style="stop-color:#E8EAE7"
   id="stop35" />

				<stop
   offset="0.2796"
   style="stop-color:#DFE1DD"
   id="stop36" />

				<stop
   offset="0.3661"
   style="stop-color:#D1D4D1"
   id="stop37" />

				<stop
   offset="0.4427"
   style="stop-color:#BFBFBC"
   id="stop38" />

				<stop
   offset="0.5127"
   style="stop-color:#A5A5A3"
   id="stop39" />

				<stop
   offset="0.5769"
   style="stop-color:#858585"
   id="stop40" />

				<stop
   offset="0.6"
   style="stop-color:#7B7B7B"
   id="stop41" />

				<stop
   offset="1"
   style="stop-color:#343732"
   id="stop42" />

			</linearGradient>

			<path
   id="path50_4_"
   class="st1"
   d="m 2857.5,54.8 v 0 L 2732.4,80 c -12.1,2.4 -22.8,13.9 -24.5,26.1 0,0 -69.8,507.1 -70.7,513.4 -3.1,-5.6 -255.1,-453.9 -255.1,-453.9 -6.1,-10.8 -20.3,-17.3 -32.5,-14.8 l -144.1,29.8 c -6.6,1.4 -11.7,5.3 -14.1,10.7 -2.4,5.4 -1.8,11.9 1.6,17.6 l 418.2,704.5 c 6.3,10.6 20.6,17 32.7,14.8 l 73,-13.8 c 12,-2.3 23.1,-13.5 25.1,-25.6 L 2879.5,76.1 c 1.1,-6.7 -0.7,-12.9 -4.9,-17 -4.2,-4.1 -10.5,-5.6 -17.1,-4.3 z"
   style="fill:url(#path50_1_)" />

		</g>

		<g
   id="layer5_4_">
			<path
   id="path52_4_"
   d="m 2916,16.4 c -13.7,-13.3 -33.2,-19 -51.9,-15.2 l -158.6,32 c -24.2,4.9 -42.7,24.6 -46.1,49 0,0 -29.8,216.7 -52.2,379.3 C 2526.5,317.9 2418.4,125.6 2418.4,125.6 2406,103.5 2380.7,92 2356,97.2 l -177.6,36.7 c -18.4,3.8 -33.8,16.3 -41.4,33.4 -7.6,17.2 -6.4,37 3.2,53.1 l 435.6,733.9 c 12.5,21 36.8,32 60.8,27.4 l 106.5,-20.1 c 23.9,-4.5 42.5,-23.4 46.5,-47.4 L 2932.8,67.8 c 3.3,-18.9 -3,-38.1 -16.8,-51.4 z M 2714.6,107 c 1.3,-9.3 9.9,-18.4 19.1,-20.3 l 47.5,-9.6 v 36.3 l -11.9,10.5 -1.7,1.5 v 2.3 26.5 l -12.2,13.1 -1.4,1.5 v 2 80.3 l -15.9,13.4 H 2693 Z m -401.3,208.6 h 5.1 v -5.1 -63.1 h 45.8 2.6 l 1.5,-2.1 9.1,-12.4 h 34.7 l 155,275.7 -125.9,105 -176.9,-298 z M 2206.9,187.2 2351,157.4 c 9.2,-1.9 20.5,3.2 25.1,11.4 l 30.2,53.7 h -31.5 -2.6 l -1.5,2.1 -9.1,12.4 h -48.3 -5.1 v 5.1 63.1 h -49.9 l -59.3,-100 c -4.9,-7.9 -1.3,-16.1 7.9,-18 z m 528.3,700.5 c -1.6,9.3 -10.4,18.3 -19.6,20 l -73,13.8 c -9.2,1.7 -20.7,-3.4 -25.5,-11.5 l -51.6,-86.9 103.4,-38.2 3.4,-1.2 V 780 733.6 l 25.7,-19.6 36.3,0.3 h 1.8 l 1.4,-1.1 31.4,-24.7 z m 15.3,-435.8 13.5,-13.2 1.5,-1.5 V 435 410.7 h 50.3 l -24,141.9 h -41.7 z M 2872.7,75 2817.6,400.5 h -57.2 -5.1 v 5.1 27.2 l -13.5,13.2 -1.5,1.5 v 2.1 l -0.3,108.1 v 5.1 h 5.1 45.1 l -18.7,110.5 -38.9,30.5 -36.3,-0.3 h -1.8 l -1.4,1.1 -29.1,22.3 -2,1.5 v 2.5 45.3 l -101.9,37.6 -113.7,-191.5 125.7,-104.8 60.7,107.9 c 4.6,8.2 9.4,7.3 10.7,-2 l 48,-348.9 h 48.4 1.9 l 1.4,-1.2 19.2,-16.1 1.8,-1.5 v -2.4 -80.6 l 12.2,-13.1 1.4,-1.5 v -2 -26.2 l 11.9,-10.5 1.7,-1.5 v -2.3 -40.5 l 67.4,-13.6 c 9.3,-1.9 15.5,4.2 13.9,13.5 z" />

		</g>

	</g>

	<path
   id="path2689_4_"
   d="m 2394.2,449.5 c 102.8,41.1 129.8,175.7 113.3,328.3 -7.2,66.2 -8.6,149.2 -73.3,158.3 -22,3.1 -46.9,-2.2 -70,-5 -20.8,-2.5 -44.5,-10.8 -65,-8.3 -12.5,1.5 -21.9,11.7 -33.3,15 -25.3,7.4 -56.8,3.3 -91.6,3.3 -21.3,0 -43,0.3 -61.7,-3.3 -11.3,-2.2 -22.8,-10.8 -35,-11.7 -11.1,-0.8 -22.4,5.3 -35,6.7 -33.9,3.6 -79.4,4.7 -115,1.7 -12.7,-1.1 -26.8,-8.5 -38.3,-8.3 -11.4,0.2 -24.1,8.6 -36.7,10 -44.5,4.9 -91.4,-17.2 -130,-13.3 -18,1.8 -36.2,17.8 -60,20 -34.4,3.2 -90.8,1.2 -125,-5 -12.8,-2.3 -26,-10.8 -38.3,-11.7 -11.2,-0.8 -24,5.5 -36.7,6.7 -32.4,3 -72.9,3.3 -106.7,1.7 -9.7,-0.5 -19.5,-3.9 -28.3,-3.3 -15.3,1 -30.5,11.6 -45,13.3 -38.7,4.7 -81.8,5.3 -118.3,1.7 -13,-1.3 -26.2,-8.2 -40,-8.3 -18.7,-0.2 -36.1,8.6 -51.7,10 -90.1,7.8 -157.9,-35.4 -203.3,-85 -20.1,9.7 -33,27.5 -51.7,40 -83.5,55.9 -226.1,39.8 -300,-18.3 -10.5,-8.3 -25.4,-33.5 -38.3,-33.3 -11,0.2 -30.1,25.7 -40,33.3 C 400,914.8 347,936.9 281,941.4 181.7,948.1 102.4,910.9 51,863.1 24.7,838.5 -13.3,798.2 4.3,748.1 c 9.1,-25.8 35.6,-52.1 55,-75 7.2,-8.4 17.9,-16.7 18.3,-25 0.8,-15 -23.7,-37.3 -30,-48.3 C 19,549.8 9.8,467.4 37.6,404.8 71,330 158.6,276 277.8,284.6 c 45.4,3.3 92.1,17.3 131.7,40 56.5,32.5 115.1,62.5 96.7,148.3 23.8,-5.1 37.5,-22.1 58.3,-31.7 72.4,-33.4 188.3,-31.1 255,11.7 8.4,5.4 21.2,18.2 28.3,18.3 13.3,0.2 29.5,-26.6 41.7,-31.7 27.1,-11.5 114.4,-12.1 153.3,-8.3 15.5,1.5 31.4,12.3 43.3,11.7 13.1,-0.7 29.9,-16.9 40,-20 31.1,-9.5 126.7,-13.4 161.6,-3.3 11.5,3.3 23.7,16.8 36.7,18.3 12.3,1.5 28.3,-4.4 41.7,-5 24.8,-1.1 52.7,-2.8 76.7,-1.7 17.3,0.8 33.6,10.7 50,11.7 15.2,0.9 33.4,-6.8 50,-6.7 13.3,0.1 28.6,3.3 41.7,6.7 12.4,3.2 24.8,11.7 35,11.7 15.2,-0.1 31.5,-11.5 45,-15 46.7,-12 98.6,-9.3 146.7,8.3 10.8,4 30.3,21.7 41.7,21.7 13.5,-0.1 29.4,-23.5 41.7,-28.3 34.1,-13.3 84.5,-11.6 125,-10 18.3,0.7 34.6,10.8 51.7,11.7 15.1,0.8 31.3,-6.4 46.7,-6.7 14.6,-0.2 28.6,3.3 41.7,6.7 13.2,3.4 27,11.5 36.7,11.7 12.9,0.2 25.6,-10.1 36.7,-13.3 49.8,-14.7 109.7,-12.4 161.1,8.1 z" />

	<linearGradient
   id="linearGradient45"
   gradientUnits="userSpaceOnUse"
   x1="1628.8079"
   y1="1338.1276"
   x2="839.12567"
   y2="-29.642">
		<stop
   offset="0"
   style="stop-color:#D6E067"
   id="stop43" />

		<stop
   offset="0.5192"
   style="stop-color:#9BC93B"
   id="stop44" />

		<stop
   offset="1"
   style="stop-color:#5F8A3D"
   id="stop45" />

	</linearGradient>

	<path
   class="st2"
   d="m 441.3,643.9 c 10.5,20.7 15.8,45.5 15.8,74.1 0,27.7 -5.8,51.6 -17.3,71.8 -11.5,20.2 -26.6,36.9 -45,49.9 -18.5,13.1 -39.4,22.8 -62.7,29.2 -23.4,6.4 -46.8,9.6 -70.4,9.6 -47.2,0 -86.9,-8.7 -118.9,-26.1 C 110.7,835 81.9,808.6 56.2,773.3 l 54.7,-69 c 5.1,-6.4 13.7,-6.6 19.1,-0.6 0,0 6.3,7 17.1,15.5 10.8,8.5 22.4,15.9 35,22.3 12.6,6.4 25.4,11.7 38.5,15.7 13.1,4.1 25.3,6.1 36.6,6.1 11.3,0 19.9,-2 25.8,-6.1 5.9,-4.1 8.9,-11.8 8.9,-23 0,-9.7 -5.3,-18.9 -15.8,-27.7 -10.5,-8.7 -23.6,-17.8 -39.3,-27.3 -15.7,-9.5 -32.6,-19.7 -50.8,-30.7 -18.2,-11 -35.2,-23.9 -50.8,-38.8 -15.7,-14.8 -28.8,-31.9 -39.3,-51.1 -10.5,-19.2 -15.8,-41.3 -15.8,-66.4 0,-24.6 4.6,-46.1 13.9,-64.5 9.3,-18.4 21.7,-33.9 37.3,-46.5 15.6,-12.5 33.7,-22 54.3,-28.4 20.5,-6.4 42.3,-9.6 65.4,-9.6 41.1,0 77.9,7.6 110.5,22.7 32.6,15.1 63.5,37.5 92.8,67.2 L 410,501.3 c -4.4,6.8 -13.1,8.1 -19.3,2.7 0,0 -11.1,-9.6 -23.4,-17.6 -12.3,-7.9 -24.4,-14.7 -36.2,-20.3 -11.8,-5.6 -22.8,-9.9 -33.1,-12.7 -10.3,-2.8 -19.2,-4.2 -26.9,-4.2 -9.2,0 -16,2.3 -20.4,6.9 -4.4,4.6 -6.5,10.5 -6.5,17.7 0,9.2 5.3,17.8 15.8,25.7 10.5,7.9 23.7,16.1 39.6,24.6 15.9,8.5 33,17.9 51.2,28.4 18.2,10.5 35.3,23.2 51.2,38 15.6,14.9 28.8,32.7 39.3,53.4 z m 201.8,-29.7 c 5.9,-6.4 12.5,-11.2 19.9,-14.5 7.4,-3.3 14.7,-5 21.9,-5 21.5,0 37.5,5.4 47.9,16.1 10.5,10.7 15.2,21.7 15.2,21.7 3.2,7.5 12.3,11.9 20.2,10 l 93.1,-23.2 c -9.7,-42.3 -29.4,-76.5 -59.1,-102.5 -29.7,-26 -69.5,-39 -119.6,-39 -30.7,0 -58,4.7 -82.1,14.2 -24,9.4 -44.2,23 -60.6,40.6 -16.4,17.6 -28.8,38.8 -37.2,63.5 -8.4,24.8 -12.7,52.4 -12.7,83 0,26.5 3.8,51.8 11.5,75.8 7.7,24 19.6,45 35.7,63.1 16.1,18.1 36.4,32.5 61,43.2 24.5,10.7 53.9,16.1 88.2,16.1 19.4,0 38.3,-2.9 56.8,-8.8 18.4,-5.9 35.3,-14.8 50.6,-26.8 15.3,-12 28.8,-27.2 40.3,-45.5 11.5,-18.4 21.4,-50.9 21.4,-50.9 2.4,-7.8 -2.1,-16 -9.9,-18.2 L 755.5,701 c -1.5,8.2 -4.9,15.6 -10,22.2 -5.1,6.6 -10.9,12.4 -17.3,17.2 -6.4,4.9 -12.9,8.7 -19.6,11.5 -6.7,2.8 -12.8,4.2 -18.4,4.2 -19.9,0 -36.2,-7.7 -48.7,-23 -12.5,-15.3 -18.8,-35.5 -18.8,-60.5 0,-13.3 1.9,-24.7 5.8,-34.4 3.9,-9.6 8.8,-17.6 14.6,-24 z m 639.3,64.8 c -1.3,-31.7 -2.6,-64.1 -3.8,-97.1 -1.3,-33 -3,-91.5 -3,-91.5 -0.2,-8.1 -7.1,-14.7 -15.2,-14.5 l -126,2.7 c 1.5,24.6 2.9,45.8 4.2,63.7 1.3,17.9 2.3,35.1 3.1,51.4 0.8,16.4 1.3,33.3 1.5,50.7 0.3,17.4 0.4,37.9 0.4,61.4 0,17.9 -5.9,32.1 -17.7,42.6 -11.8,10.5 -25.9,15.7 -42.3,15.7 -17.4,0 -30.5,-5.2 -39.2,-15.7 -8.7,-10.5 -13.1,-23.1 -13.1,-38 0,-26.5 1.2,-51.5 3.8,-77.5 2.6,-25.6 5.1,-49.1 7.7,-70.6 3.1,-24.6 8.3,-56 8.3,-56 1.3,-8 -4.2,-14.5 -12.4,-14.4 l -131.3,1.4 c -3.6,25.6 -6.7,51.2 -9.2,76.7 -2.6,22 -4.7,45.3 -6.5,69.8 -1.8,24.6 -2.7,46.6 -2.7,66 0,27.6 3.3,52.5 10,74.7 6.7,22.2 16.9,41 30.8,56.5 13.8,15.5 31.7,27.4 53.5,35.8 21.8,8.4 47.8,12.6 78.1,12.6 8.7,0 17.7,-1.1 26.9,-3.5 9.2,-2.3 18.1,-5.5 26.5,-9.6 8.5,-4.1 16.3,-8.8 23.5,-14.2 3.2,-2.4 8.9,-10.1 13.5,-8.4 6,2.1 2.6,15.6 2.6,20.1 0,8.1 6.7,14.7 14.8,14.5 l 120.6,-2.7 c -1,-37.6 -2.2,-72.9 -3.5,-105.7 -1.4,-32.9 -2.7,-65.1 -3.9,-96.9 z m 558.7,-129.1 c -11.8,-18.1 -27.9,-32.3 -48.3,-42.5 -20.5,-10.2 -47.1,-15.3 -79.8,-15.3 -24.5,0 -45.6,5.4 -63.3,16.1 -4.7,2.9 -9.3,5.9 -13.7,9.2 -4,2.9 -7.8,6.1 -11.4,9.5 -2.7,2.5 -5,6.4 -8.9,7.1 -1,0.2 -2,0.4 -3.1,0.3 -3.6,-0.3 -4.5,-2.7 -6.3,-5.4 -5.1,-7.4 -11.7,-13.6 -19.1,-18.8 -12.8,-8.9 -28.9,-13.4 -48.3,-13.4 -9.7,0 -18.9,1.5 -27.6,4.6 -8.7,3.1 -16.5,7 -23.4,11.9 -5.8,4.1 -10.9,9 -16.4,13.4 -2.7,2.2 -3.8,5.1 -7.7,4.9 -4,-0.3 -3.4,-5.3 -3.7,-8 -0.3,-3.2 -0.7,-6.4 -1,-9.6 -0.2,-2.4 -0.5,-4.7 -0.7,-7 -0.8,-8.1 -8.2,-14.5 -16.3,-14.3 l -110.3,2.7 c 1.5,31.1 2.7,61 3.4,89.5 0.8,28.6 1.3,57.5 1.5,86.9 0.2,29.3 0.2,60.3 0,93 -0.3,32.7 -0.4,93.1 -0.4,93.1 0,8.1 6.6,14.7 14.7,14.5 l 107,-1.8 c 8.1,-0.1 14.9,-6.9 15.1,-15 l 4.3,-210.2 c 0,-7.1 1.8,-14.4 5.4,-21.8 3.6,-7.4 12,-11.1 25.3,-11.1 6.1,0 11,2.3 14.6,6.9 3.6,4.6 6.5,10.7 8.8,18.4 2.3,7.7 3.8,16.4 4.6,26.4 0.8,9.9 1.1,20.3 1.1,31 0,26.5 0,48.2 0,65 0,16.8 -0.1,31.5 -0.4,44 -0.3,12.5 -0.7,24.2 -1.2,35.2 -0.5,11 -1,23.1 -1,23.1 -0.3,8.1 6.1,14.9 14.2,15.1 l 125.6,2.7 c -1,-7.7 -1.9,-17.1 -2.7,-28.3 -0.8,-11.2 -1.3,-22.7 -1.5,-34.4 -0.3,-11.7 -0.5,-23 -0.8,-33.7 -0.3,-10.7 -0.4,-19.4 -0.4,-26 0,-49 2,-85.4 6.1,-109.4 4.1,-24 14.8,-36 32.2,-36 10.7,0 19,4.5 24.9,13.4 5.9,8.9 8.8,23.9 8.8,44.8 0,19.9 -2.4,45.3 -7.3,76.2 -4.9,30.9 -20.1,97.7 -20.1,97.7 -1.8,7.9 3.3,15.2 11.4,16.2 l 126.5,15.8 c 5.6,-31.6 10.4,-62.2 14.2,-91.8 3.8,-29.6 5.8,-58.4 5.8,-86.5 0,-30.1 -2.2,-57.8 -6.5,-83 -4,-25.5 -12.1,-47.2 -23.9,-65.3 z m 603.3,65 c -4.4,-25.3 -12.4,-46.9 -24.2,-65 -11.8,-18.1 -27.9,-32.3 -48.3,-42.5 -20.5,-10.2 -47,-15.3 -79.8,-15.3 -24.5,0 -45.6,5.4 -63.3,16.1 -4.5,2.7 -8.9,5.6 -13.2,8.8 -4,2.9 -7.9,6.1 -11.5,9.5 -3,2.8 -6.9,9.5 -11.6,8.2 -3.4,-1 -6.4,-4.7 -8.3,-7.5 -4.9,-6.7 -11.1,-12.3 -17.9,-17 -12.8,-8.9 -28.9,-13.4 -48.3,-13.4 -9.7,0 -18.9,1.5 -27.6,4.6 -8.7,3.1 -16.5,7 -23.4,11.9 -6.9,4.9 -12.5,10 -16.9,15.3 -0.7,0.9 -1.4,1.7 -2.2,2.5 -1.1,1.1 -2.8,2.7 -4.5,2.3 -2,-0.5 -3.1,-3.4 -3.5,-5.1 -0.8,-3 -0.9,-6.2 -1.2,-9.3 -0.4,-4 -0.8,-8 -1.2,-12 -0.8,-8.1 -8.2,-14.5 -16.3,-14.3 l -110.3,2.7 c 1.5,31.1 2.7,61 3.4,89.5 0.8,28.6 1.3,57.5 1.5,86.9 0.2,29.3 0.2,60.3 0,93 -0.3,32.7 -0.4,93.1 -0.4,93.1 0,8.1 6.6,14.7 14.7,14.5 l 107,-1.8 c 8.1,-0.1 14.9,-6.9 15.1,-15 l 4.3,-210.2 c 0,-7.1 1.8,-14.4 5.4,-21.8 3.6,-7.4 12,-11.1 25.3,-11.1 6.1,0 11,2.3 14.6,6.9 3.6,4.6 6.5,10.7 8.8,18.4 2.3,7.7 3.8,16.4 4.6,26.4 0.8,9.9 1.1,20.3 1.1,31 0,26.5 0,48.2 0,65 0,16.8 -0.1,31.5 -0.4,44 -0.3,12.5 -0.6,24.2 -1.1,35.2 -0.5,11 -1,23.1 -1,23.1 -0.3,8.1 6.1,14.9 14.2,15.1 0.1,0 0.2,0 0.2,0 4.1,0.1 8.1,0.2 12.2,0.3 8.8,0.2 17.5,0.4 26.3,0.6 10.7,0.2 21.4,0.5 32.2,0.7 10.1,0.2 20.3,0.4 30.4,0.7 6.2,0.1 13.5,1.5 19.6,0.1 5.1,-1.2 4,-5.3 3.9,-9.4 -0.2,-6.2 -1.3,-12.3 -1.8,-18.5 -0.8,-11.2 -1.3,-22.7 -1.5,-34.4 -0.3,-11.7 -0.5,-23 -0.8,-33.7 -0.3,-10.7 -0.4,-19.4 -0.4,-26 0,-49 2,-85.4 6.1,-109.4 4.1,-24 14.8,-36 32.2,-36 10.7,0 19,4.5 24.9,13.4 5.9,8.9 8.8,23.9 8.8,44.8 0,19.9 -2.4,45.3 -7.3,76.2 -4.9,30.9 -20.1,97.7 -20.1,97.7 -1.8,7.9 3.3,15.2 11.4,16.2 3.4,0.4 6.9,0.9 10.3,1.3 17.3,2.2 34.6,4.3 51.9,6.5 11,1.4 22,2.5 32.9,3.8 6.7,0.8 13.3,2.3 19.9,3 4.1,0.5 9.3,2.5 12.7,-1.1 3.1,-3.5 2.9,-9.9 3.7,-14.3 1.1,-6.5 1.8,-13.1 2.3,-19.7 0.8,-10.1 2.1,-20 3.6,-30.1 1.2,-8.5 2.3,-16.9 3.4,-25.4 3.8,-29.6 5.7,-58.4 5.7,-86.5 0.2,-30.5 -2,-58.2 -6.3,-83.5 z"
   id="path21"
   style="fill:url(#SVGID_1_)" />

	<linearGradient
   id="linearGradient48"
   gradientUnits="userSpaceOnUse"
   x1="1254.4264"
   y1="350.67899"
   x2="1254.4264"
   y2="877.97998">
		<stop
   offset="0"
   style="stop-color:#D6E067"
   id="stop46" />

		<stop
   offset="0.5192"
   style="stop-color:#9BC93B"
   id="stop47" />

		<stop
   offset="1"
   style="stop-color:#5F8A3D"
   id="stop48" />

	</linearGradient>

	<path
   class="st3"
   d="m 1061.2,878 c -29.2,0 -54.5,-4.1 -75.4,-12.1 -20.6,-7.9 -37.6,-19.3 -50.5,-33.8 -13.1,-14.6 -22.9,-32.7 -29.2,-53.7 -6.4,-21.3 -9.7,-45.7 -9.7,-72.5 0,-19.3 0.9,-41.4 2.7,-65.5 1.8,-24.4 4,-47.8 6.5,-69.5 2.3,-23.3 5.1,-46.8 8.3,-70.2 l 124.9,-1.3 c 1.8,0 3.1,0.5 4,1.6 0.9,1 1.2,2.5 0.9,4.1 -0.1,0.3 -5.3,31.9 -8.4,56.3 -2.5,21.3 -5.1,45.1 -7.7,70.8 -2.6,26.4 -3.9,51.2 -3.9,78.3 0,16.6 5,31 14.8,42.8 10.2,12.2 25.3,18.4 45,18.4 18.2,0 34.1,-5.9 47.3,-17.6 13.4,-11.9 20.2,-28.2 20.2,-48.2 0,-23.2 -0.1,-43.9 -0.4,-61.5 -0.3,-17.7 -0.8,-34.8 -1.5,-50.9 -0.8,-16.1 -1.8,-33.4 -3.1,-51.6 -1.1,-15.8 -2.4,-34.1 -3.7,-55.8 l 118.1,-2.6 c 4.1,0 7.5,3.2 7.6,7.2 0,0.6 1.8,58.9 3,91.6 1.3,33 2.6,65.4 3.8,97.1 1.3,31.7 2.6,64 3.8,96.9 1.2,30.4 2.3,63.4 3.2,98.1 l -113,2.5 c -4,0 -7.1,-3.1 -7.1,-7 0,-0.6 0.2,-2 0.3,-3.3 0.8,-7.1 2.4,-20.3 -8,-23.9 -1.2,-0.4 -2.5,-0.6 -3.8,-0.6 -6.2,0 -11,4.7 -14.5,8.1 -0.8,0.8 -1.7,1.7 -2.2,2 -6.7,5 -14.2,9.6 -22.2,13.5 -8,3.9 -16.4,6.9 -25.1,9.1 -8.4,2.1 -16.9,3.2 -25,3.2 z m 1181.3,-5.2 c -2.1,0 -4.5,-0.2 -6.8,-0.4 -2.1,-0.2 -4.2,-0.3 -6.1,-0.4 l -101,-2.2 c -2.1,0 -3.9,-0.8 -5.2,-2.2 -1.3,-1.4 -2,-3.2 -1.9,-5.1 0,0 0.5,-12.1 1,-23.1 0.5,-11.1 0.9,-23 1.2,-35.4 0.3,-12.6 0.4,-27.4 0.4,-44.2 v -65 c 0,-10.9 -0.4,-21.5 -1.2,-31.6 -0.8,-10.4 -2.5,-19.9 -4.9,-28 -2.5,-8.5 -5.9,-15.5 -10.1,-20.8 -5,-6.4 -12.1,-9.8 -20.5,-9.8 -16.4,0 -27.1,5.2 -32.1,15.3 -4.1,8.4 -6.1,16.8 -6.1,25.1 l -4.3,210.1 c -0.1,4.1 -3.6,7.6 -7.7,7.7 l -107,1.8 c -2,0 -3.8,-0.7 -5.1,-2 -1.3,-1.3 -2,-3.1 -2,-5 0,-0.6 0.1,-60.8 0.4,-93.1 0.3,-32.5 0.3,-63.9 0,-93.1 -0.3,-29.7 -0.8,-59 -1.5,-87 -0.7,-26.1 -1.7,-53.7 -3.1,-82 l 102.6,-2.5 c 4.3,0 8.2,3.5 8.7,7.6 0.4,4 0.8,8 1.2,12 0.1,0.7 0.1,1.5 0.2,2.2 0.2,2.5 0.4,5.4 1.2,8.3 1.5,5.6 4.8,9.5 9.1,10.5 0.7,0.2 1.5,0.3 2.3,0.3 4.9,0 8.2,-3.5 9.3,-4.6 0.9,-0.9 1.8,-2 2.6,-3 3.9,-4.8 9,-9.4 15.4,-13.9 6.3,-4.4 13.6,-8.1 21.6,-10.9 7.8,-2.8 16.3,-4.2 25.1,-4.2 17.8,0 32.6,4.1 44,12 6.7,4.7 12.2,9.8 16.1,15.3 3,4.2 6.9,8.7 12.3,10.3 1.1,0.3 2.2,0.5 3.4,0.5 6.5,0 10.8,-5.1 13.7,-8.4 0.6,-0.7 1.2,-1.4 1.8,-2 3.2,-3 6.7,-5.9 10.8,-8.9 3.9,-2.8 8.2,-5.7 12.6,-8.4 16.4,-9.9 36.3,-15 59.4,-15 31.4,0 57.1,4.9 76.4,14.5 19.1,9.6 34.4,23 45.4,39.8 11.1,17.2 18.9,38.1 23.1,62.2 4.3,24.8 6.4,52.3 6.4,81.8 0,27.6 -1.9,56.4 -5.7,85.5 -1.1,8.4 -2.2,16.9 -3.4,25.3 -1.2,8.3 -2.7,19.2 -3.6,30.5 -0.5,6.1 -1.1,12.6 -2.2,19.1 -0.2,1.2 -0.4,2.5 -0.5,3.9 -0.2,1.7 -0.5,5 -1.2,6.3 -0.8,0 -2.1,-0.2 -3.3,-0.4 -1.1,-0.2 -2.2,-0.4 -3.2,-0.5 -3.1,-0.4 -6.3,-0.9 -9.6,-1.5 -3.3,-0.6 -6.8,-1.1 -10.3,-1.6 -3.9,-0.4 -7.7,-0.9 -11.6,-1.3 -7.1,-0.8 -14.2,-1.6 -21.3,-2.5 l -62.2,-7.8 c -1.8,-0.2 -3.3,-1.1 -4.2,-2.4 -0.9,-1.3 -1.2,-3 -0.8,-4.7 0.6,-2.7 15.4,-67.4 20.2,-98.2 4.9,-31.1 7.4,-57.1 7.4,-77.3 0,-22.6 -3.3,-38.6 -10.1,-48.9 -7.3,-11 -18,-16.8 -31.2,-16.8 -14.8,0 -33.7,7.3 -39.6,42.2 -4.1,24.2 -6.2,61.5 -6.2,110.7 0,7 0.1,15.8 0.4,26.2 0.3,10.7 0.5,21.9 0.8,33.7 0.3,11.7 0.8,23.4 1.5,34.8 0.2,2.8 0.5,5.6 0.8,8.3 0.4,3.4 0.8,6.7 0.9,9.9 0,0.7 0.1,1.3 0.1,2 0,0 0,0.1 0,0.1 -0.9,0.2 -1.9,0.3 -3,0.3 z m -693.2,-2.9 c -1.9,0 -3.7,-0.8 -5,-2.2 -1.3,-1.4 -2,-3.2 -1.9,-5.1 0,0 0.5,-12.1 1,-23.1 0.5,-11.1 0.9,-23 1.2,-35.4 0.3,-12.6 0.4,-27.5 0.4,-44.2 v -65 c 0,-10.9 -0.4,-21.5 -1.2,-31.6 -0.8,-10.4 -2.5,-19.9 -4.9,-28 -2.6,-8.5 -5.9,-15.5 -10.1,-20.8 -5,-6.4 -12.1,-9.8 -20.5,-9.8 -16.4,0 -27.1,5.2 -32.1,15.3 -4.1,8.4 -6.1,16.8 -6.1,25.1 l -4.3,210.1 c -0.1,4.1 -3.6,7.6 -7.7,7.7 l -107,1.8 c -2,0 -3.8,-0.7 -5.1,-2 -1.3,-1.3 -2,-3.1 -2,-5 0,-0.6 0.1,-60.8 0.4,-93.1 0.3,-32.5 0.3,-63.9 0,-93.1 -0.3,-29.8 -0.8,-59 -1.5,-87 -0.7,-26.1 -1.7,-53.7 -3.1,-82 l 102.6,-2.5 c 4.3,0 8.2,3.5 8.6,7.6 l 1.7,16.7 c 0,0.3 0,0.7 0.1,1.1 0.5,10.7 6,13.3 10.6,13.6 0.3,0 0.6,0 0.9,0 5.7,0 8.9,-3.4 10.6,-5.2 0.4,-0.4 0.8,-0.9 1.3,-1.3 2.3,-1.8 4.5,-3.7 6.7,-5.6 3.2,-2.7 6.2,-5.3 9.4,-7.6 6.3,-4.4 13.6,-8.1 21.6,-10.9 7.8,-2.8 16.3,-4.2 25.1,-4.2 17.8,0 32.6,4.1 44,12 7.1,5 12.9,10.6 17.2,16.9 l 0.7,1 c 1.7,2.6 4.5,6.9 11.2,7.6 0.4,0 0.8,0.1 1.2,0.1 1.4,0 2.6,-0.2 3.5,-0.4 l 0.4,-0.1 c 5.4,-0.9 8.7,-4.6 11.1,-7.3 0.5,-0.6 1.1,-1.2 1.6,-1.7 3.2,-3 6.7,-5.9 10.7,-8.9 4,-3 8.3,-5.8 13.2,-8.8 16.4,-9.9 36.4,-15 59.4,-15 31.4,0 57.1,4.9 76.4,14.5 19.1,9.6 34.4,23 45.4,39.8 11.1,17.2 18.9,38.1 23.1,62.3 4.3,24.8 6.4,52.3 6.4,81.8 0,27.6 -1.9,56.3 -5.7,85.5 -3.5,27.2 -7.9,55.6 -12.9,84.5 l -119.4,-14.9 c -1.8,-0.2 -3.2,-1.1 -4.2,-2.4 -0.9,-1.3 -1.2,-3 -0.8,-4.7 0.6,-2.7 15.4,-67.4 20.2,-98.2 4.9,-31.1 7.4,-57.2 7.4,-77.3 0,-22.6 -3.3,-38.6 -10.1,-48.9 -7.2,-11 -18,-16.8 -31.2,-16.8 -14.8,0 -33.7,7.3 -39.6,42.2 -4.1,24.3 -6.2,61.5 -6.2,110.7 0,7 0.1,15.8 0.4,26.2 0.3,10.7 0.5,21.9 0.8,33.7 0.2,11.6 0.8,23.3 1.5,34.8 0.5,7.6 1.1,14.3 1.7,20.1 z m -1287.7,1.2 c -45.7,0 -84.5,-8.5 -115.4,-25.2 -29.5,-16 -56.7,-40.4 -80.7,-72.4 L 116.6,709 c 1.1,-1.4 2.5,-2.1 3.9,-2.1 1.3,0 2.6,0.7 3.8,1.9 0.3,0.3 6.9,7.6 18,16.4 11.1,8.7 23.3,16.5 36.3,23.1 12.8,6.5 26.2,12 39.6,16.2 13.7,4.3 26.8,6.5 38.8,6.5 13,0 22.8,-2.5 30.1,-7.5 8,-5.6 12.1,-15.4 12.1,-29.2 0,-12 -6.2,-23.2 -18.5,-33.4 C 270,692 256.5,682.6 240.5,673 l -50.8,-30.7 c -17.7,-10.7 -34.3,-23.4 -49.5,-37.8 -15,-14.2 -27.7,-30.8 -37.9,-49.2 -9.9,-18 -14.9,-39.1 -14.9,-62.8 0,-23.3 4.4,-43.9 13.1,-61.2 8.7,-17.4 20.6,-32.2 35.3,-44 14.8,-11.9 32.3,-21 51.8,-27.1 19.7,-6.1 41,-9.3 63.2,-9.3 39.7,0 75.9,7.4 107.3,22 30,13.9 59.1,34.6 86.3,61.4 l -41,63.1 c -1.1,1.7 -2.7,2.6 -4.4,2.6 -1.3,0 -2.5,-0.5 -3.7,-1.5 -0.5,-0.4 -11.7,-10.1 -24.3,-18.2 -12.5,-8.1 -25,-15.1 -37,-20.8 -12.2,-5.8 -23.7,-10.2 -34.4,-13.1 -11.1,-3 -20.5,-4.5 -28.9,-4.5 -11.3,0 -20,3.1 -25.9,9.3 -5.7,6 -8.6,13.7 -8.6,22.8 0,11.7 6.3,22.3 18.8,31.7 10.7,8.1 24.4,16.6 40.6,25.2 15.8,8.4 32.9,17.9 51,28.3 17.6,10.2 34.4,22.6 49.8,37 15.2,14.2 28,31.5 38.1,51.3 9.9,19.6 15,43.4 15,70.7 0,26.2 -5.5,49.1 -16.3,68.1 -10.9,19.2 -25.4,35.2 -42.9,47.5 -17.7,12.5 -38,21.9 -60.4,28.1 -22.5,6.1 -45.5,9.2 -68.3,9.2 z m 424.9,-1.5 c -33.1,0 -61.7,-5.2 -85.2,-15.4 -23.4,-10.2 -43.1,-24.1 -58.4,-41.3 -15.3,-17.2 -26.8,-37.6 -34.1,-60.4 -7.4,-23.1 -11.1,-47.8 -11.1,-73.5 0,-29.6 4.1,-56.8 12.3,-80.6 8.1,-23.6 20,-44.1 35.6,-60.8 15.5,-16.7 35,-29.7 57.8,-38.7 23,-9.1 49.7,-13.6 79.3,-13.6 48,0 86.6,12.5 114.7,37.2 26.6,23.4 45.1,54.1 54.9,91.4 l -85.8,21.4 c -0.6,0.2 -1.3,0.2 -2,0.2 -3.9,0 -8,-2.5 -9.5,-5.9 -0.2,-0.5 -5.4,-12.3 -16.7,-23.9 -11.9,-12.2 -29.8,-18.3 -53.3,-18.3 -8.2,0 -16.6,1.9 -24.9,5.6 -8.3,3.7 -15.9,9.2 -22.4,16.3 -6.5,7 -11.9,15.9 -16,26.4 -4.2,10.5 -6.3,23.1 -6.3,37.2 0,26.7 6.9,48.6 20.5,65.2 14,17.1 32.3,25.7 54.5,25.7 6.6,0 13.8,-1.6 21.3,-4.8 7.2,-3 14.3,-7.2 21.2,-12.4 6.9,-5.2 13.2,-11.5 18.7,-18.6 4.1,-5.4 7.3,-11.2 9.3,-17.5 l 82.7,23.7 c 1.8,0.5 3.3,1.7 4.2,3.4 0.9,1.7 1.1,3.6 0.5,5.4 -0.1,0.3 -9.8,31.8 -20.6,49.1 -11,17.6 -24,32.2 -38.5,43.6 -14.6,11.4 -30.8,20 -48.3,25.6 -17.6,5.4 -35.9,8.3 -54.4,8.3 z"
   id="path24"
   style="fill:url(#SVGID_2_)" />

</g>
  </g>
</svg>
