<?xml version="1.0" encoding="UTF-8" standalone="no"?>
<!-- Generator: Adobe Illustrator 26.0.3, SVG Export Plug-In . SVG Version: 6.00 Build 0)  -->

<svg
   version="1.1"
   id="Layer_1"
   x="0px"
   y="0px"
   viewBox="0 0 3839 358.81016"
   xml:space="preserve"
   sodipodi:docname="scv.svg"
   width="3839"
   height="358.81015"
   inkscape:version="1.3.2 (091e20e, 2023-11-25, custom)"
   xmlns:inkscape="http://www.inkscape.org/namespaces/inkscape"
   xmlns:sodipodi="http://sodipodi.sourceforge.net/DTD/sodipodi-0.dtd"
   xmlns="http://www.w3.org/2000/svg"
   xmlns:svg="http://www.w3.org/2000/svg"><defs
   id="defs43" /><sodipodi:namedview
   id="namedview43"
   pagecolor="#ffffff"
   bordercolor="#000000"
   borderopacity="0.25"
   inkscape:showpageshadow="2"
   inkscape:pageopacity="0.0"
   inkscape:pagecheckerboard="true"
   inkscape:deskcolor="#d1d1d1"
   inkscape:zoom="0.56270154"
   inkscape:cx="1566.5498"
   inkscape:cy="395.41388"
   inkscape:window-width="3840"
   inkscape:window-height="2054"
   inkscape:window-x="-11"
   inkscape:window-y="-11"
   inkscape:window-maximized="1"
   inkscape:current-layer="g1" />
<style
   type="text/css"
   id="style1">
	.st0{fill:#FF221D;}
	.st1{fill:#FDEB05;}
	.st2{display:none;}
	.st3{display:inline;}
	.st4{fill:#FBE901;}
	.st5{fill:#FFFFFF;}
</style>

<g
   id="g1"
   transform="matrix(1.0000283,0,0,1.0000283,-0.04822701,0)"
   style="display:inline">
	
	
<path
   id="path19"
   style="display:inline;fill:#ffff00"
   class="st1"
   d="m 186.49998,85.399927 -96.700388,0.09961 c -24.99995,0 -46.699705,17.399653 -52.199695,41.799593 l -3.800673,16.60109 c -5.899988,25.99996 13.801254,50.60014 40.4012,50.60014 h 79.698916 c 10.49998,0 18.19994,9.60024 15.89994,19.80022 l -3.79872,16.89991 c -2.3,10.19998 -11.40018,17.3999 -21.80016,17.3999 H 61.999597 c -8.099982,0 -14.200035,-7.60114 -12.400039,-15.60112 l 0.09961,-0.29882 H 13.79979 l -0.09961,0.29882 c -5.3999892,23.89994 12.799774,46.69985 37.299726,46.69985 H 147.7999 c 24.99996,0 46.5997,-17.30004 52.1997,-41.7 l 7.99977,-34.8994 c 4.7,-20.39996 -10.80031,-39.79965 -31.70027,-39.79965 H 85.700099 c -10.49998,0 -18.199937,-9.69985 -15.899941,-19.89983 l 2.09955,-9.49973 c 2.299996,-10.19998 11.400186,-17.3999 21.800164,-17.3999 h 82.200798 c 8.09998,0 14.20004,7.59919 12.40004,15.59917 l -0.10156,0.30077 h 35.50095 l 0.0996,-0.20117 c 5.49998,-23.99994 -12.69977,-46.799449 -37.29973,-46.799449 z m 473.79909,46.799453 c -24.99994,0 -46.69971,17.4016 -52.19969,41.80156 l -13.19885,58.79911 c -5.39998,23.89996 12.79977,46.69985 37.29973,46.69985 h 55.50038 c 24.99996,0 46.69971,-17.39964 52.19969,-41.7996 l 1.19919,-5.20102 h -35.89938 c -2.09998,9.29998 -10.39984,15.89994 -19.89982,15.89994 h -42.10037 c -8.1,0 -14.20004,-7.59919 -12.40004,-15.59917 l 2.19915,-9.90011 h 72.50186 c 21.99996,0 41.1987,-15.29978 45.9987,-36.79974 l 1.59956,-7.09941 c 5.39998,-23.89994 -12.79977,-46.69985 -37.29973,-46.69985 z m 139.30075,0 -6.9998,31.10069 -26.20044,116.10023 h 35.90133 l 2.79875,-12.60121 15.39996,-68.19924 0.80075,-3.59951 3.19913,-14.20077 c 2.3,-10.19998 11.40019,-17.3999 21.80017,-17.3999 h 38.50086 l 6.9998,-31.09873 v -0.10156 h -24.60086 c -24.39996,0 -33.49906,7.80056 -33.49906,7.80056 l 1.79878,-7.80056 z m -539.69957,0.10156 -22.70053,100.49911 c -5.4,23.89996 12.79978,46.69985 37.29972,46.69985 h 24.60087 c 24.49994,0 33.60061,-7.80056 33.60061,-7.80056 l -1.80073,7.80056 h 35.89938 l 6.9998,-31.10068 6.49981,-28.99918 19.60101,-87.0991 -35.89937,0.0996 -22.20055,98.70033 c -2.29998,10.19998 -11.40018,17.3999 -21.80016,17.3999 h -34.50098 c -8.09998,0 -14.20004,-7.60114 -12.40004,-15.60112 l 22.70053,-100.59872 z m 273.79889,0 -14.49959,0.0996 h -6.49982 -9.09935 c -24.49994,0 -33.60061,7.79861 -33.60061,7.79861 l 1.80073,-7.79861 h -35.90133 l -1.79877,7.90017 -5.20103,23.19856 -20.80019,92.10091 -5.39829,23.99932 -3.50185,15.70073 h 35.90133 l 3.4999,-15.70073 0.99997,-4.59948 2.40032,-10.80048 c 0,0 5.49921,7.80056 29.99915,7.80056 h 35.29979 c 24.99994,0 46.69971,-17.39965 52.19969,-41.79959 l 11.50163,-51.19973 c 5.39998,-23.89994 -12.80174,-46.69985 -37.30168,-46.69985 z m 130.60177,31.09873 h 40.70002 c 8.09998,0 14.09848,7.49998 12.29848,15.39996 -1.7,7.59998 -8.50034,12.99963 -16.30032,12.99963 h -60.99827 l 2.49993,-10.99969 c 2.3,-10.19998 11.40018,-17.3999 21.80016,-17.3999 z m -181.9011,0.0996 h 28.70036 4.59948 6.90019 c 8.1,0 14.20004,7.60114 12.40004,15.60112 l -9.99971,44.39913 c -2.3,10.19998 -11.40019,17.3999 -21.80017,17.3999 h -40.10043 c -8.09998,0 -14.20002,-7.59917 -12.40004,-15.59917 l 8.30055,-36.79974 1.59957,-7.60134 c 2.29998,-10.19998 11.40018,-17.3999 21.80016,-17.3999 z" /><path
   id="path43"
   style="display:inline;fill-rule:nonzero;fill:#ff0000"
   class="st0"
   d="M 2088.6004 0 L 2029.7994 260.69965 C 2029.7994 260.69965 2028.5006 266.59982 2028.0006 268.59982 C 2017.3006 314.19972 2029.201 358.80039 2088.5008 358.80039 L 2097.0006 358.80039 L 2129.2009 301.49928 L 2101.1001 301.49928 C 2089.2001 301.49928 2090.1007 289.49995 2093.0007 276.99997 C 2100.2007 246.00003 2122.9003 144.80059 2122.9003 144.80059 L 2171.0005 144.80059 L 2183.9005 87.499477 L 2135.8003 87.499477 L 2155.5009 0 L 2088.6004 0 z M 2234.899 0 L 2176.0999 260.69965 C 2176.0999 260.69965 2174.7992 266.59982 2174.2992 268.59982 C 2163.5992 314.19972 2175.4996 358.80039 2234.7994 358.80039 L 2243.2992 358.80039 L 2275.4995 301.49928 L 2247.4006 301.49928 C 2235.5008 301.49928 2236.3993 289.49995 2239.2993 276.99997 C 2246.3993 246.00003 2269.0992 144.80059 2269.0992 144.80059 L 2317.1994 144.80059 L 2330.0995 87.499477 L 2281.9993 87.499477 L 2301.7995 0 L 2234.899 0 z M 2702.4991 0 L 2702.4991 358.80039 L 2775.2002 358.80039 L 2799.6995 358.80039 L 2990.0007 57.29916 L 3055.5008 57.29916 C 3063.0008 23.799226 3068.4008 9.4736256e-15 3068.4008 0 L 3026.0993 0 L 3001.5004 0 L 2974.4992 0 C 2953.0992 0 2933.2991 10.899215 2921.8991 28.999179 L 2775.2002 261.37932 L 2775.2002 0 L 2702.4991 0 z M 3244.8001 0 L 3231.9001 57.29916 L 3298.8006 57.29916 C 3306.4006 23.799226 3311.7006 9.4736256e-15 3311.7006 0 L 3244.8001 0 z M 1238.5991 1.6991707 C 1130.6993 0.79917242 999.50004 31.299466 983.70008 181.39916 C 978.90008 227.79908 991.20034 269.40051 1019.4002 301.70045 C 1047.3002 333.60037 1089.6002 353.90003 1137.1 358.40001 L 1150.8008 297.60095 C 1093.401 295.10097 1037.5007 260.30079 1045.1007 187.90093 C 1051.0007 132.40105 1077.9009 65.900152 1224.8007 63.500156 L 1238.5991 1.6991707 z M 89.799592 72.599508 C 58.599716 72.599508 32.000223 93.899328 25.100251 124.29922 L 21.299577 140.90031 C 17.699593 157.00023 21.499324 173.69987 31.79928 186.69979 C 33.783807 189.16138 36.004785 191.35487 38.332298 193.40273 C 39.853373 202.29007 43.507671 210.78764 49.300738 218.0993 C 49.778512 218.69767 50.315621 219.22934 50.818273 219.80042 L 49.599558 219.80042 L 13.79979 219.80042 L 3.6008595 219.80042 L 1.3997499 229.70053 L 1.3001433 229.99935 C -2.0998431 245.19931 1.5002912 260.89977 11.200254 273.09969 C 13.254543 275.68344 15.564814 277.9731 18.014514 280.06629 C 19.28109 288.95043 22.834957 297.44929 28.600152 304.70036 C 38.300102 316.90031 52.799887 323.79943 68.399807 323.79943 L 165.1998 323.79943 C 196.29965 323.79943 222.89954 302.59918 229.79954 272.19933 L 230.8913 267.43774 C 232.04307 269.35209 233.2861 271.22205 234.69979 273.00009 C 236.68388 275.49553 238.91786 277.70778 241.27773 279.74599 C 242.51531 288.71118 246.087 297.28896 251.90047 304.60075 C 261.60042 316.8007 276.10018 323.69982 291.70013 323.69982 L 316.29904 323.69982 C 322.39904 323.69982 327.80015 323.3002 332.40015 322.60025 L 332.09938 323.69982 L 348.10088 323.69982 L 384.00025 323.69982 L 394.19918 323.69982 L 396.40029 313.70011 L 397.68346 307.9991 L 399.19904 307.9991 L 407.64411 307.9991 L 407.59919 308.20026 L 404.70084 321.10029 L 404.09929 323.79943 L 400.59939 339.40055 L 416.60089 339.40055 L 452.50027 339.40055 L 462.6992 339.40055 L 464.9003 329.50044 L 468.40021 314.00088 C 473.90016 315.30088 480.79927 316.20004 489.49922 316.20004 L 524.69939 316.20004 C 554.78111 316.20004 580.53216 296.37173 588.52767 267.70531 C 589.66898 269.59587 590.90183 271.44198 592.29904 273.1993 C 594.36566 275.79855 596.68956 278.10226 599.15627 280.20496 C 600.45303 289.00261 603.98723 297.4145 609.70089 304.60075 C 619.40084 316.8007 633.9006 323.69982 649.50055 323.69982 L 705.00093 323.69982 C 728.64381 323.69982 749.62448 311.45403 761.4134 292.30032 L 766.39958 292.30032 L 774.96575 292.30032 L 771.39944 308.10066 L 767.89954 323.69982 L 783.89909 323.69982 L 819.80042 323.69982 L 829.99935 323.69982 L 832.20046 313.70011 L 834.99921 301.10085 L 850.39916 232.89966 L 851.19992 229.30015 L 854.39905 215.09938 C 855.39905 210.69943 859.19957 207.59959 863.69957 207.59959 L 902.20043 207.59959 L 912.39936 207.59959 L 914.60047 197.69948 L 921.60027 166.60075 L 925.10017 150.99963 L 909.10062 150.99963 L 900.54423 150.99963 L 904.10077 135.1993 L 907.70027 119.60013 L 891.70073 119.60013 L 867.19947 119.60013 C 861.09947 119.60013 855.70031 119.99971 851.10031 120.69971 L 851.39913 119.60013 L 835.39959 119.60013 L 799.50021 119.60013 L 789.29933 119.60013 L 787.10017 129.50024 L 780.10037 160.60092 L 776.76257 175.39543 C 775.65189 173.57403 774.44966 171.79746 773.10057 170.10065 C 771.03276 167.54757 768.71545 165.27581 766.26287 163.1946 C 764.97872 154.36055 761.43602 145.91274 755.70067 138.6992 C 745.90071 126.59924 731.39941 119.60013 715.79945 119.60013 L 660.29907 119.60013 C 629.09919 119.60013 602.49969 140.89996 595.59973 171.29984 L 594.65835 175.49113 C 593.54839 173.67128 592.34822 171.89565 591.00025 170.20026 C 588.92958 167.62248 586.60926 165.33215 584.15279 163.23561 C 582.86104 154.424 579.3227 145.99791 573.60035 138.80076 C 563.80039 126.6008 549.29906 119.60013 533.69914 119.60013 L 519.19955 119.60013 L 512.69973 119.60013 L 503.60038 119.60013 C 497.50042 119.60013 492.09927 119.99971 487.49927 120.69971 L 487.80005 119.60013 L 471.8005 119.60013 L 435.89917 119.60013 L 425.70024 119.60013 L 423.49913 129.50024 L 421.70036 137.40041 L 418.65161 150.99963 L 417.30009 150.99963 L 408.57768 150.99963 L 412.20062 134.90048 L 415.80013 119.60013 L 399.80058 119.60013 L 364.00082 119.60013 L 353.79993 119.60013 L 351.60078 129.50024 L 329.40023 228.20057 C 328.40023 232.60057 324.59968 235.70036 320.09972 235.70036 L 309.98477 235.70036 L 325.59956 166.49919 L 328.99985 150.99963 L 313.00031 150.99963 L 304.71148 150.99963 L 308.29927 135.09969 L 311.79917 119.50052 L 295.79962 119.50052 L 259.90025 119.50052 L 249.69936 119.50052 L 247.58224 129.02955 C 246.41002 127.09208 245.14403 125.19906 243.69953 123.4008 C 241.74041 120.87027 239.53081 118.62636 237.19581 116.5592 C 235.97068 107.59256 232.37511 99.013437 226.5008 91.70053 C 216.70084 79.600578 202.1999 72.599508 186.49998 72.599508 L 89.799592 72.599508 z M 1312.3998 74.999831 C 1232.2998 74.999831 1165.0994 133.0992 1158.0994 213.19904 C 1151.0994 293.29888 1210.3006 358.2008 1290.4004 358.2008 C 1302.9004 358.2008 1327.5009 353.80053 1327.5009 353.80053 L 1327.8993 353.70093 L 1344.2992 280.90025 C 1328.0994 290.80023 1309.1004 296.39982 1290.4004 296.39982 C 1269.3004 296.39982 1250.4003 288.49925 1237.3003 274.19927 C 1224.0003 259.69931 1217.6998 239.99924 1219.5996 218.59928 C 1223.6996 171.89938 1263.5998 136.69926 1312.3998 136.69926 C 1357.6996 136.69926 1386.0996 166.19952 1386.3996 213.59942 C 1386.3996 215.49942 1386.3006 217.40083 1386.2004 219.20083 L 1354.9005 358.2008 L 1418.6995 358.2008 L 1446.3003 235.29998 C 1447.5003 228.2 1448.199 220.79904 1448.099 213.19904 C 1447.499 132.8992 1392.4996 74.999831 1312.3998 74.999831 z M 1890.7994 75.499816 C 1810.6996 75.499816 1743.4991 133.69919 1736.4991 213.69903 C 1729.4991 293.79887 1788.7002 358.70079 1868.8 358.70079 C 1881.8 358.70079 1894.6993 357.09973 1907.1993 353.99975 C 1908.5993 353.69975 1909.9008 353.30017 1911.3008 352.90017 L 1928.2007 277.80073 C 1910.8007 290.00071 1889.6 296.8998 1868.8 296.8998 C 1851.7 297.0998 1836.2009 291.90019 1823.9009 282.40021 L 2023.6999 184.60024 C 2011.7001 119.80038 1960.7992 75.499816 1890.7994 75.499816 z M 2472.9001 75.499816 C 2392.8003 75.499816 2325.5998 133.69919 2318.5998 213.69903 C 2311.5998 293.79887 2370.8009 358.70079 2450.9007 358.70079 C 2463.9007 358.70079 2476.8002 357.09973 2489.3 353.99975 C 2490.7 353.69975 2491.9995 353.30017 2493.3995 352.90017 L 2510.2995 277.80073 C 2492.8995 290.00071 2471.7007 296.8998 2450.9007 296.8998 C 2433.8009 297.0998 2418.2997 291.90019 2405.9997 282.40021 L 2605.8007 184.60024 C 2593.8007 119.80038 2542.8999 75.499816 2472.9001 75.499816 z M 1616.7993 75.599423 C 1615.7993 75.599423 1614.7998 75.599027 1613.6998 75.69903 C 1604.1998 76.099028 1519.5998 83.499378 1504.9998 210.19913 C 1499.0998 260.79903 1487.5999 279.8994 1459.7999 284.09938 L 1443.8003 355.20089 C 1446.7003 357.20087 1449.9992 358.80039 1457.9992 358.80039 C 1458.9992 358.80039 1460.1002 358.70079 1461.2002 358.70079 C 1475.4002 358.10079 1547.2993 349.80021 1564.1993 247.60041 C 1575.3993 179.30055 1581.6005 155.69998 1609.1003 151.9 L 1626.0999 76.499788 C 1622.2999 75.79979 1619.7993 75.599423 1616.7993 75.599423 z M 1733.8995 75.599423 C 1732.8995 75.599423 1731.9 75.599027 1730.8 75.69903 C 1721.3 76.099028 1636.7 83.499378 1622.1 210.19913 C 1616.2 260.79903 1604.7001 279.8994 1576.9001 284.09938 L 1560.9005 355.20089 C 1563.8005 357.20087 1567.0994 358.80039 1575.0994 358.80039 C 1576.0994 358.80039 1577.2004 358.70079 1578.3004 358.70079 C 1592.5004 358.10079 1664.3995 349.80021 1681.2995 247.60041 C 1692.4995 179.30055 1698.7007 155.69998 1726.2005 151.9 L 1743.2001 76.499788 C 1739.4001 75.79979 1736.8995 75.599423 1733.8995 75.599423 z M 3186.2999 75.599423 C 3185.2999 75.599423 3184.3003 75.599027 3183.2003 75.69903 C 3173.6003 76.099028 3089.1003 83.499378 3074.5003 210.19913 C 3068.6003 260.79903 3057.1004 279.8994 3029.3004 284.09938 L 3013.3008 355.20089 C 3016.2008 357.20087 3019.4997 358.80039 3027.4997 358.80039 C 3028.4997 358.80039 3029.5007 358.70079 3030.7007 358.70079 C 3044.9007 358.10079 3116.7998 349.80021 3133.6998 247.60041 C 3144.8998 179.30055 3151.1009 155.69998 3178.6009 151.9 L 3195.6004 76.499788 C 3191.8004 75.79979 3189.2997 75.599423 3186.2999 75.599423 z M 3439.9997 75.599423 C 3359.8999 75.599423 3292.6994 133.80075 3285.6994 213.80059 C 3278.6994 293.80043 3337.9005 358.80039 3418.0003 358.80039 C 3498.1001 358.80039 3576.2009 296.50043 3575.7009 213.80059 C 3575.1009 133.40075 3519.9995 75.599423 3439.9997 75.599423 z M 186.49998 85.399927 C 188.26278 85.399927 189.98101 85.546763 191.67171 85.772963 C 192.20472 85.844253 192.71892 85.957559 193.24393 86.050299 C 194.39878 86.254247 195.53506 86.496434 196.64813 86.800278 C 197.2121 86.954242 197.76755 87.117768 198.31996 87.296358 C 199.42826 87.654507 200.50551 88.067858 201.56401 88.520932 C 202.01636 88.714589 202.47677 88.88877 202.91944 89.099041 C 204.38984 89.797243 205.81983 90.56185 207.17518 91.432959 C 208.5282 92.302575 209.80097 93.273988 211.02663 94.300066 C 211.40328 94.615408 211.75261 94.95527 212.11644 95.284413 C 212.95169 96.039847 213.75612 96.821521 214.52067 97.645674 C 214.89367 98.047786 215.2551 98.454718 215.61048 98.872202 C 216.34594 99.735929 217.03387 100.63432 217.6905 101.55963 C 217.96396 101.94501 218.25157 102.31658 218.51079 102.71194 C 219.39114 104.05427 220.20912 105.43679 220.91698 106.88369 C 224.5935 114.39882 225.85874 123.21445 223.79971 132.19938 L 223.7001 132.40055 L 188.19915 132.40055 L 188.30071 132.09978 C 190.10071 124.09982 184.00063 116.50061 175.90067 116.50061 L 93.699872 116.50061 C 83.299916 116.50061 74.1997 123.70055 71.899708 133.90051 L 69.800158 143.40024 C 67.500166 153.6002 75.200139 163.30007 85.700099 163.30007 L 104.49644 163.30007 L 176.2991 163.30007 C 178.60608 163.30007 180.81504 163.60533 182.95906 164.06958 C 183.40679 164.16248 183.86067 164.22233 184.30082 164.33324 C 184.39792 164.35864 184.48345 164.40655 184.58011 164.43285 C 187.06641 165.08409 189.40317 166.03147 191.6053 167.21206 C 195.90378 169.51655 199.56543 172.73372 202.41555 176.60047 C 202.44125 176.63537 202.46026 176.67487 202.48586 176.70984 C 204.09955 178.91742 205.37199 181.33407 206.392 183.89323 C 206.39253 183.89423 206.39295 183.89614 206.39395 183.89714 C 208.73238 189.76652 209.55631 196.34196 207.99937 203.09972 L 199.9996 237.99912 C 194.3996 262.39904 172.79982 279.69912 147.7999 279.69912 L 50.999909 279.69912 C 37.097732 279.69912 25.411679 272.23379 18.727385 261.51604 C 14.929774 255.42685 12.665805 248.36514 12.797865 240.82326 C 12.799365 240.67458 12.816029 240.525 12.819349 240.37601 C 12.890539 237.9424 13.139482 235.48088 13.700183 232.99927 L 13.79979 232.70045 L 49.699164 232.70045 L 49.599558 232.99927 C 47.799566 240.99923 53.899633 248.60039 61.999597 248.60039 L 144.2004 248.60039 C 145.91937 248.60039 147.58264 248.33754 149.20416 247.96173 C 149.59777 247.87093 149.98594 247.76657 150.3721 247.6551 C 151.92599 247.20392 153.44116 246.64612 154.84463 245.88171 C 154.86583 245.87021 154.88983 245.86402 154.91103 245.85242 C 156.39076 245.04023 157.74575 244.02878 159.00466 242.90914 C 159.21942 242.71872 159.4242 242.51796 159.6316 242.31931 C 160.83441 241.16354 161.95021 239.90727 162.87565 238.49911 C 164.31037 236.31602 165.39867 233.86976 166.00056 231.20049 L 169.79928 214.30058 C 172.09928 204.10062 164.3993 194.50036 153.89934 194.50036 L 74.200424 194.50036 C 58.72466 194.50036 45.628504 186.14633 38.506122 174.06148 C 38.505383 174.06048 38.504969 174.05857 38.504169 174.05757 C 36.019951 169.84149 34.285232 165.17627 33.422281 160.23961 C 33.377241 159.9858 33.325871 159.73699 33.285566 159.48181 C 32.927775 157.17981 32.761432 154.83071 32.805111 152.43905 C 32.811511 152.0517 32.846223 151.66417 32.863703 151.27502 C 32.976687 148.83942 33.236169 146.38148 33.799224 143.90022 L 37.599897 127.29913 C 43.099877 102.89925 64.799692 85.499533 89.799592 85.499533 L 186.49998 85.399927 z M 2981.7002 87.499477 L 2920.5007 358.80039 L 2987.3992 358.80039 C 2999.0992 306.90049 3028.5991 176.0993 3048.4991 87.499477 L 2981.7002 87.499477 z M 3225.0995 87.499477 L 3163.9001 358.80039 L 3230.8005 358.80039 C 3242.5005 306.90049 3272.0004 176.0993 3291.9004 87.499477 L 3225.0995 87.499477 z M 3633.9005 87.499477 L 3572.6991 358.80039 L 3639.5995 358.80039 C 3648.8284 317.86221 3669.8639 224.48714 3687.7954 144.80059 L 3754.6998 144.80059 C 3763.8998 144.80059 3770.7994 153.39973 3768.6994 162.3997 L 3724.3999 358.80039 L 3791.3003 358.80039 C 3800.3003 318.80051 3819.9998 231.69932 3837.5998 153.49956 C 3845.1998 119.69968 3819.5005 87.599083 3784.8005 87.599083 L 3700.6974 87.509242 C 3700.6981 87.506042 3700.6974 87.502677 3700.6974 87.499477 L 3692.2973 87.499477 L 3633.9005 87.499477 z M 660.29907 132.19938 L 715.79945 132.30094 C 717.55722 132.30094 719.27099 132.44922 720.95751 132.67593 C 721.49028 132.74763 722.00495 132.85999 722.52973 132.95327 C 723.69323 133.15977 724.83807 133.40644 725.95932 133.71497 C 726.50253 133.86464 727.03812 134.02273 727.57061 134.19542 C 728.72474 134.56909 729.84524 135.0016 730.94551 135.47859 C 731.34714 135.65296 731.75854 135.80467 732.15251 135.99225 C 735.05047 137.36977 737.71564 139.11181 740.14447 141.13272 C 741.95641 142.6422 743.60229 144.32081 745.10527 146.12868 C 745.50997 146.61479 745.87518 147.1174 746.25562 147.62278 C 747.56548 149.36406 748.75392 151.18925 749.75552 153.13239 C 753.69673 160.77549 755.18079 169.78774 753.09918 179.00079 L 751.49962 186.1002 C 746.69962 207.60012 727.50084 222.89994 705.50092 222.89994 L 632.99906 222.89994 L 630.79991 232.80005 C 628.99991 240.80001 635.09995 248.39922 643.19995 248.39922 L 685.30032 248.39922 C 694.80028 248.39922 703.10018 241.79924 705.20014 232.49928 L 741.09952 232.49928 L 739.90033 237.7003 C 734.40037 262.10022 712.70056 279.4999 687.70064 279.4999 L 632.20026 279.4999 C 618.25508 279.4999 606.53603 271.99099 599.86328 261.21917 L 599.86328 261.21722 C 599.86028 261.21322 599.85847 261.20825 599.85547 261.20355 C 596.61367 255.96504 594.48369 250.03716 594.0822 243.65912 C 593.85903 240.1139 594.0699 236.4763 594.90053 232.80005 L 602.08783 200.78143 L 602.08783 200.77947 L 608.09938 174.00094 C 613.59934 149.60102 635.29919 132.19938 660.29907 132.19938 z M 799.59982 132.19938 L 835.49919 132.19938 L 833.70041 139.99994 C 833.70041 139.99994 842.79955 132.19938 867.19947 132.19938 L 891.80033 132.19938 L 891.80033 132.30094 L 887.59147 150.99963 L 884.80053 163.39967 L 846.29967 163.39967 C 835.89971 163.39967 826.7995 170.59961 824.4995 180.79957 L 821.30037 195.00034 L 820.49962 198.59985 L 805.09966 266.79909 L 802.30091 279.4003 L 777.87582 279.4003 L 767.51674 279.4003 L 766.39958 279.4003 L 772.76269 251.19992 L 776.90905 232.82935 L 776.90905 232.8274 L 784.18424 200.59393 L 792.60002 163.30007 L 799.59982 132.19938 z M 259.90025 132.30094 L 295.79962 132.30094 L 291.58099 150.99963 L 273.09909 232.89966 C 271.29909 240.89962 277.39917 248.50078 285.49913 248.50078 L 307.09618 248.50078 L 320.00011 248.50078 C 321.3001 248.50078 322.57949 248.38751 323.82813 248.17071 C 332.56856 246.65315 339.78779 240.02585 341.80027 231.10088 L 364.00082 132.40055 L 399.90019 132.30094 L 395.69133 150.99963 L 380.29918 219.40004 L 373.79937 248.39922 L 366.79957 279.4999 L 330.90019 279.4999 L 332.70092 271.69934 C 332.70092 271.69934 323.60019 279.4999 299.10031 279.4999 L 274.49944 279.4999 C 260.50429 279.4999 248.74919 271.93867 242.0902 261.10394 C 242.08944 261.10294 242.08925 261.10103 242.08825 261.10003 C 238.8627 255.85046 236.75148 249.91335 236.37162 243.53022 C 236.37154 243.52922 236.37169 243.52731 236.37162 243.52631 C 236.16349 240.02285 236.37962 236.43032 237.19972 232.80005 L 238.74655 225.95454 L 249.89467 176.60047 L 254.8789 154.53469 L 259.90025 132.30094 z M 533.69914 132.30094 C 535.46315 132.30094 537.18253 132.45154 538.87477 132.67984 C 539.3875 132.74904 539.88307 132.8562 540.3884 132.94546 C 541.57373 133.15449 542.73895 133.40793 543.88049 133.72278 C 544.41165 133.86948 544.93571 134.0228 545.45662 134.19151 C 546.62479 134.56923 547.75954 135.00485 548.87254 135.48835 C 549.26328 135.65837 549.66285 135.80777 550.04633 135.99029 C 552.94739 137.36867 555.61698 139.11169 558.04806 141.13468 C 559.85898 142.64372 561.50466 144.32155 563.0069 146.12868 C 563.41167 146.61487 563.77481 147.11927 564.15531 147.62473 C 565.45643 149.35453 566.63663 151.16816 567.63373 153.09723 C 571.59001 160.74824 573.08584 169.77263 571.00082 179.00079 L 559.49919 230.20052 C 553.99923 254.6004 532.29938 272.00011 507.2995 272.00011 L 471.99971 272.00011 C 447.49983 272.00011 442.00056 264.19955 442.00056 264.19955 L 439.60024 275.00003 L 438.60027 279.59951 L 435.10037 295.30024 L 410.50145 295.30024 L 400.5408 295.30024 L 399.19904 295.30024 L 402.70089 279.59951 L 408.09918 255.60019 L 428.89937 163.49928 L 431.70203 150.99963 L 434.1004 140.30072 L 435.89917 132.40055 L 471.8005 132.40055 L 469.99977 140.19916 C 469.99977 140.19916 470.56841 139.71156 471.80441 138.98044 C 473.65839 137.88376 477.01397 136.23813 482.20255 134.86728 C 487.39112 133.49643 494.41292 132.40055 503.60038 132.40055 L 512.69973 132.40055 L 519.19955 132.40055 L 533.69914 132.30094 z M 1890.6998 137.3008 C 1915.4998 137.3008 1935.1009 146.10013 1948.0009 161.80011 L 1798.1009 235.20038 C 1797.5009 230.00038 1797.4997 224.60081 1797.8997 219.20083 C 1801.9997 172.50091 1841.8998 137.3008 1890.6998 137.3008 z M 2472.8005 137.3008 C 2497.6005 137.3008 2517.1997 146.10013 2530.0997 161.80011 L 2380.1996 235.20038 C 2379.5996 230.00038 2379.5004 224.60081 2380.0004 219.20083 C 2384.1004 172.50091 2424.0007 137.3008 2472.8005 137.3008 z M 3439.9997 137.40041 C 3485.2997 137.40041 3513.5996 166.90066 3513.9996 214.30058 C 3514.0996 238.20052 3501.6002 255.90029 3491.0002 266.50027 C 3472.0002 285.60023 3444.7003 297.10097 3418.0003 297.10097 C 3396.9003 297.10097 3378.0003 289.2004 3364.9003 274.90042 C 3351.6003 260.40046 3345.2996 240.70039 3347.1996 219.30043 C 3351.2996 172.60053 3391.1999 137.40041 3439.9997 137.40041 z M 664.30091 163.39967 C 653.90095 163.39967 644.80075 170.59961 642.50075 180.79957 L 640.00082 191.79926 L 700.99909 191.79926 C 708.79905 191.79926 715.59941 186.39959 717.29941 178.79963 C 719.09941 170.89967 713.10089 163.39967 705.00093 163.39967 L 664.30091 163.39967 z M 482.39981 163.49928 C 471.99985 163.49928 462.89961 170.69922 460.59965 180.89918 L 459.00008 188.50052 L 450.69953 225.30026 C 448.89957 233.30026 454.99961 240.89943 463.09957 240.89943 L 484.79427 240.89943 L 503.2 240.89943 C 513.59996 240.89943 522.70017 233.69949 525.00017 223.49953 L 528.5821 207.59959 L 534.99988 179.1004 C 536.79988 171.10044 530.69984 163.49928 522.59984 163.49928 L 515.69965 163.49928 L 511.10017 163.49928 L 482.39981 163.49928 z M 499.89931 207.59959 L 515.62738 207.59959 L 512.69973 220.59923 C 511.69973 224.99919 507.89918 228.10097 503.39922 228.10097 L 487.68091 228.10097 L 488.89963 222.70073 L 490.60075 215.09938 C 491.60075 210.69943 495.39936 207.59959 499.89931 207.59959 z " /></g></svg>
