<?xml version="1.0" encoding="UTF-8" standalone="no"?>
<!-- Created with Inkscape (http://www.inkscape.org/) -->

<svg
   width="1015.7354mm"
   height="289.24249mm"
   viewBox="0 0 1015.7354 289.24249"
   version="1.1"
   id="svg1"
   inkscape:version="1.3.2 (091e20e, 2023-11-25, custom)"
   sodipodi:docname="sega32x.svg"
   xmlns:inkscape="http://www.inkscape.org/namespaces/inkscape"
   xmlns:sodipodi="http://sodipodi.sourceforge.net/DTD/sodipodi-0.dtd"
   xmlns="http://www.w3.org/2000/svg"
   xmlns:svg="http://www.w3.org/2000/svg">
  <sodipodi:namedview
     id="namedview1"
     pagecolor="#ffffff"
     bordercolor="#000000"
     borderopacity="0.25"
     inkscape:showpageshadow="2"
     inkscape:pageopacity="0.0"
     inkscape:pagecheckerboard="0"
     inkscape:deskcolor="#d1d1d1"
     inkscape:document-units="mm"
     inkscape:zoom="0.28645984"
     inkscape:cx="795.92309"
     inkscape:cy="2221.952"
     inkscape:window-width="3840"
     inkscape:window-height="2054"
     inkscape:window-x="-11"
     inkscape:window-y="-11"
     inkscape:window-maximized="1"
     inkscape:current-layer="layer1" />
  <defs
     id="defs1" />
  <g
     inkscape:label="Layer 1"
     inkscape:groupmode="layer"
     id="layer1"
     transform="translate(288.13125,113.50625)">
    <g
       id="g43"
       transform="matrix(0.26458333,0,0,0.26458333,-288.13125,-113.50625)">
	<g
   id="g42">
		<g
   id="g7">
			<path
   d="m 61.9,163.3 h -2.1 c -0.3,-2 -1.5,-3.8 -4.9,-3.8 h -30 c -2.4,0 -3.4,1 -3.8,3.6 H 19 C 13.4,150.6 1.8,120 1.8,85.7 1.8,40.1 19.2,0 58.9,0 98.6,0 116,46.8 116,88.1 c 0,16.3 -2.9,31.7 -5.6,43.1 -3.5,10.5 -6.3,18.3 -6.3,19.6 0,1.8 0.8,3.6 1.7,4.4 l -0.9,2.8 -25,-19.2 1.4,-2.8 c 0.6,0.2 1.5,0.4 2.6,0.4 4.7,0 14.2,-21.4 14.2,-47.8 0,-33.3 -12.7,-60.3 -38.5,-60.3 -27,0 -39.7,27 -39.7,57.5 0,25 6.6,39.7 9.9,45.6 H 42.5 V 97.2 c 0,-4 -1.5,-6.3 -3.7,-6.3 v -2.8 h 26.9 v 2.8 c -2.1,0 -3.7,2.4 -3.7,6.3 z"
   id="path1" />

			<path
   d="m 5.5,191.4 c 0,4.4 1.2,5.2 4.6,5.2 h 97.6 c 3.4,0 4.6,-0.8 4.6,-5.2 h 2.1 v 128.8 c 0,4.8 1.2,6.7 3.4,6.7 v 2.8 H 92.5 v -2.8 c 2.7,0 4,-2 4,-6.7 V 224.8 H 69.3 v 62.3 c 0,4.8 1.2,6.7 4,6.7 v 2.8 H 47.6 v -2.8 c 1.2,0 2.1,-0.4 2.7,-1.6 0.6,-1 0.9,-2.8 0.9,-5.2 V 224.7 H 21.4 V 322 c 0,4.8 1.2,6.7 3.7,6.7 v 2.8 H 0 v -2.8 c 2.1,0 3.4,-2 3.4,-6.7 V 191.4 Z"
   id="path2" />

			<path
   d="m 10.1,507.6 c -3.4,0 -4.6,1.4 -4.6,5.4 H 3.4 v -36.7 h 2.1 c 0,2 0.3,4 1.2,4 1.4,0 2,-1.2 4.1,-3.8 L 84.5,387.2 H 10.1 c -3.4,0 -4.6,1 -4.6,5.4 H 3.4 v -35.1 h 2.1 c 0,4.4 1.2,4.8 4.6,4.8 h 97.6 c 3.4,0 4.6,-0.4 4.6,-4.8 h 2.1 v 42.3 h -2.1 c 0,-3.8 -0.6,-5.4 -2,-5.4 -0.5,0 -1.2,0.8 -2.3,2.2 l -70.3,86.1 h 70 c 3.4,0 4.6,-0.4 4.6,-5.2 h 2.1 V 513 h -2.1 c 0,-4 -1.2,-5.4 -4.6,-5.4 z"
   id="path3" />

			<path
   d="m 5.5,543.9 c 0,4.4 1.2,5.2 4.6,5.2 h 97.6 c 3.4,0 4.6,-0.8 4.6,-5.2 h 2.1 v 128.8 c 0,4.8 1.2,6.7 3.4,6.7 v 2.8 H 92.5 v -2.8 c 2.7,0 4,-2 4,-6.7 V 577.3 H 69.3 v 62.3 c 0,4.8 1.2,6.7 4,6.7 v 2.8 H 47.6 v -2.8 c 1.2,0 2.1,-0.4 2.7,-1.6 0.6,-1 0.9,-2.8 0.9,-5.2 V 577.2 H 21.4 v 97.2 c 0,4.8 1.2,6.7 3.7,6.7 v 2.8 H 0 v -2.8 c 2.1,0 3.4,-2 3.4,-6.7 V 543.9 Z"
   id="path4" />

			<path
   d="m 81.8,832 1.4,-3.2 c 0.6,0.2 1.4,0.4 2.1,0.4 2,0 12.7,-18.6 12.7,-51 0,-30.9 -7.3,-44.2 -16.8,-44.2 -25,0 11.6,116.8 -43.6,116.8 -20.1,0 -35.7,-25.4 -35.7,-76.2 0,-48.4 11.9,-62.3 11.9,-66.9 0,-1.2 -0.8,-1.8 -1.2,-2.8 l 0.5,-2.6 25.9,16.5 -1.2,3.2 c -0.6,0 -1.2,-0.4 -2.4,-0.4 -9,0 -15.4,25.6 -15.4,51 0,36.1 7.9,48.4 16.3,48.4 29.9,0 -7.2,-115.3 43.5,-115.3 25.6,0 36.3,35.1 36.3,73.6 0,34.5 -11.6,58.7 -11.6,61.1 0,2.6 0.6,3 1.1,3.6 l -0.8,3.2 z"
   id="path5" />

			<path
   d="m 10.1,911.9 c -3.4,0 -4.6,1 -4.6,7.3 H 3.4 v -42.7 h 2.1 c 0,6.3 1.2,7.1 4.6,7.1 h 97.6 c 3.4,0 4.6,-0.8 4.6,-7.1 h 2.1 v 42.7 h -2.1 c 0,-6.3 -1.2,-7.3 -4.6,-7.3 z"
   id="path6" />

			<path
   d="m 81.8,1074.4 1.4,-3.2 c 0.6,0.2 1.4,0.4 2.1,0.4 2,0 12.7,-18.6 12.7,-51 0,-30.9 -7.3,-44.2 -16.8,-44.2 -25,0 11.6,116.8 -43.6,116.8 -20.1,0 -35.7,-25.4 -35.7,-76.2 0,-48.4 11.9,-62.3 11.9,-66.9 0,-1.2 -0.8,-1.8 -1.2,-2.8 l 0.5,-2.6 25.9,16.5 -1.2,3.2 c -0.6,0 -1.2,-0.4 -2.4,-0.4 -9,0 -15.4,25.6 -15.4,51 0,36.1 7.9,48.4 16.3,48.4 29.9,0 -7.2,-115.3 43.5,-115.3 25.6,0 36.3,35.1 36.3,73.6 0,34.5 -11.6,58.7 -11.6,61.1 0,2.6 0.6,3 1.1,3.6 l -0.8,3.2 z"
   id="path7" />

		</g>

		<g
   id="g41">
			<g
   id="g16">
				<g
   id="g8">
					<path
   d="m 2294.7,974.9 v -16.2 c 37.8,-2.3 48.3,-19.7 76.9,-48.7 L 2748.7,537.4 2392.7,173 c -9.1,-9.3 -22.7,-26.7 -60.3,-26.7 V 130 h 356 v 16.2 c -19.6,0 -31.7,4.7 -31.7,16.2 0,4.7 7.6,14 22.7,29.1 l 205.2,211.2 214.3,-212.5 c 12,-12.8 21.1,-22.1 21.1,-29.1 0,-9.3 -12,-15.1 -25.6,-15.1 v -16.2 h 334.9 V 146 c -49.8,1.1 -69.4,20.9 -98.1,48.7 L 3002.3,521 3382.5,909.8 c 30.2,31.3 40.7,47.6 81.4,48.7 v 16.2 h -353 v -16.2 c 22.7,0 28.7,-3.4 28.7,-15.1 0,-10.4 -25.6,-33.6 -54.3,-62.7 L 2865,656.7 2598,921.4 c -7.6,8.1 -13.6,11.6 -13.6,22.1 0,9.3 12,15.1 31.6,15.1 v 16.2 z"
   id="path8" />

				</g>

				<g
   id="g10">
					<g
   id="g9">
						<path
   d="m 558.1,435.2 h 21.1 c 6,19.7 30.2,29.1 114.7,29.1 206.7,0 262.5,-52.2 262.5,-102.2 0,-53.4 -72.4,-106.8 -230.8,-106.8 -203.7,0 -344,85.9 -344,124.2 0,8.1 3.1,15.1 6,20.9 l -17.9,11.6 -160,-161.3 21.1,-9.3 c 6,3.4 13.6,7 22.7,7 43.8,0 135.8,-130 485.8,-130 245.9,0 431.5,102.2 431.5,235.6 0,78.9 -55.8,140.4 -152.3,162.5 v 2.3 c 126.7,34.8 214.3,100.9 214.3,211.2 0,149.8 -190.1,256.5 -482.8,256.5 C 356.2,986.5 270.2,882 218.9,882 c -12,0 -21.1,4.7 -30.2,10.4 l -24.3,-6.9 120.7,-199.7 22.7,10.4 c 0,3.4 -1.5,8.1 -1.5,14 0,45.3 167.4,139.3 418,139.3 190.1,0 294.2,-51 294.2,-124.2 0,-63.8 -78.5,-133.4 -297.2,-133.4 -113.2,0 -137.2,12.8 -141.8,33.6 H 558.4 V 435.2 Z"
   id="path9" />

					</g>

				</g>

				<g
   id="g12">
					<g
   id="g11">
						<path
   d="m 1279.9,290.1 21.1,-12.8 c 3.1,3.4 9.1,5.8 18.1,5.8 42.2,0 155.4,-164.8 476.7,-164.8 187,0 420.9,82.4 420.9,243.7 0,308.7 -576.3,276.2 -730.2,471.2 h 727.2 c 33.2,0 45.3,-9.3 45.3,-27.8 h 21.1 v 195 H 2259 c 0,-16.2 -12,-25.5 -45.3,-25.5 H 1245 c 0,-423.6 757.4,-405.1 757.4,-604.7 0,-75.4 -113.2,-114.9 -215.7,-114.9 -173.5,0 -321.3,111.4 -321.3,162.5 0,10.4 6,17.4 12,23.2 l -19.6,14 z"
   id="path10" />

					</g>

				</g>

				<g
   id="g13">
					<path
   class="st0"
   d="m 2318.2,949.4 v -16.2 c 37.8,-2.3 48.3,-19.7 76.9,-48.7 l 377.1,-372.6 -356,-364.4 c -9.1,-9.3 -22.7,-26.7 -60.3,-26.7 v -16.2 h 356 v 16.2 c -19.6,0 -31.7,4.7 -31.7,16.2 0,4.7 7.6,14 22.7,29.1 l 205.2,211.2 214.3,-212.4 c 12,-12.8 21.1,-22.1 21.1,-29.1 0,-9.3 -12,-15.1 -25.6,-15.1 v -16.2 h 334.9 v 16.2 c -49.8,1.1 -69.4,20.9 -98.1,48.7 L 3025.8,495.5 3406,884.3 c 30.2,31.3 40.7,47.6 81.4,48.7 v 16.2 H 3134.3 V 933 c 22.7,0 28.7,-3.4 28.7,-15.1 0,-10.4 -25.6,-33.6 -54.3,-62.7 l -220.3,-224 -267,264.6 c -7.6,8.1 -13.6,11.6 -13.6,22.1 0,9.3 12,15.1 31.6,15.1 v 16.2 h -321.2 z"
   id="path12"
   style="fill:#e00000" />

				</g>

				<g
   id="g14">
					<path
   class="st0"
   d="m 581.7,409.7 h 21.1 c 6,19.7 30.2,29.1 114.7,29.1 206.7,0 262.5,-52.2 262.5,-102.2 0,-53.4 -72.4,-106.8 -230.8,-106.8 -203.7,0 -344,85.9 -344,124.2 0,8.1 3.1,15.1 6,20.9 l -18.1,11.6 -160,-161.4 21.1,-9.3 c 6,3.4 13.6,7 22.7,7 43.8,0 135.8,-130 485.8,-130 245.9,0 431.5,102.2 431.5,235.6 0,78.9 -55.8,140.4 -152.3,162.5 v 2.3 c 126.7,34.8 214.3,100.9 214.3,211.2 0,149.8 -190.1,256.5 -482.8,256.5 -393.8,0 -479.8,-104.5 -531.1,-104.5 -12,0 -21.1,4.7 -30.2,10.4 l -24.2,-7 120.7,-199.7 22.7,10.4 c 0,3.4 -1.5,8.1 -1.5,14 0,45.3 167.4,139.3 418,139.3 190,0.1 294.1,-50.9 294.1,-124.1 0,-63.8 -78.5,-133.4 -297.2,-133.4 -113.2,0 -137.2,12.8 -141.8,33.6 h -21.1 z"
   id="path13"
   style="fill:#e00000" />

				</g>

				<g
   id="g15">
					<path
   class="st0"
   d="m 1303.4,264.6 21.1,-12.8 c 3.1,3.4 9.1,5.8 18.1,5.8 42.3,0 155.5,-164.8 476.8,-164.8 187,0 420.9,82.4 420.9,243.7 0,308.7 -576.3,276.2 -730.2,471.2 h 727.2 c 33.2,0 45.3,-9.3 45.3,-27.8 h 21.1 v 195 h -21.1 c 0,-16.2 -12,-25.5 -45.3,-25.5 h -968.7 c 0,-423.6 757.4,-405.1 757.4,-604.7 0,-75.4 -113.2,-114.9 -215.7,-114.9 -173.5,0 -321.3,111.4 -321.3,162.5 0,10.4 6,17.4 12,23.2 l -19.6,14 z"
   id="path14"
   style="fill:#e00000" />

				</g>

			</g>

			<g
   id="g40">
				<path
   class="st1"
   d="M 3737.2,324.1 V 272 c -4.2,7.2 -9.3,13.8 -15.4,19.8 -18,17.8 -41.8,27.6 -67.1,27.6 h -0.4 c -25.4,-0.1 -49.3,-10.1 -67.3,-28.2 -17.8,-18.1 -27.6,-41.9 -27.6,-67.1 V 104.5 l 101.6,0.4 v 52.3 c 16.9,-29.3 48,-47.6 82.5,-47.6 9,0 18.2,1.3 27.1,3.8 40.1,11.2 68.1,48.2 68.1,90.1 V 324 h -101.5 z"
   id="path16"
   style="fill:#ffffff" />

				<path
   class="st1"
   d="m 3744.4,258.9 v 58 h 87.3 V 203.5 c 0,-38.7 -25.6,-72.8 -62.9,-83.2 -47.1,-13.2 -91,12.2 -106.9,51.6 v 0 c -1.9,4 -8.1,2.6 -8.1,-1.8 v 0 -58.1 l -87.2,-0.4 V 224 c 0,23.3 9.1,45.3 25.5,62 16.6,16.7 38.6,25.9 62.2,26 23.5,0.1 45.7,-9 62.4,-25.5 8.6,-8.5 15.2,-18.5 19.6,-29.3 v 0 c 0,-0.1 0.1,-0.2 0.1,-0.3 2,-3.8 8,-2.5 8,2 z"
   id="path17"
   style="fill:#ffffff" />

				<path
   class="st1"
   d="m 3559.4,808.3 h 6.8 l -6.8,6.8 V 698.2 l 239.6,83.3 c 23.8,8.2 39.1,29.9 39.1,55 0,25.2 -15.4,46.8 -39.1,55.1 l -239.6,83.3 z"
   id="path18"
   style="fill:#ffffff" />

				<path
   class="st1"
   d="m 3796.7,884.8 c 20.9,-7.2 34.3,-26.2 34.3,-48.2 0,-22.1 -13.5,-41 -34.3,-48.2 l -230,-80 v 45 2.5 45 l 42.2,14.7 h -42.2 v 104.3 11.8 33.2 z"
   id="path19"
   style="fill:#ffffff" />

				<path
   class="st1"
   d="M 3559.5,721.6 V 617.5 c 0,-52.5 42.7,-95.3 95.3,-95.3 h 88.9 c 52.5,0 95.3,42.7 95.3,95.3 v 104.1 z"
   id="path20"
   style="fill:#ffffff" />

				<path
   class="st1"
   d="m 3831.7,714.4 v -96.9 c 0,-48.5 -39.5,-88 -88,-88 h -88.9 c -48.5,0 -88,39.5 -88,88 v 96.9 z"
   id="path21"
   style="fill:#ffffff" />

				<path
   class="st1"
   d="M 3737.2,530.1 V 500 h -76.1 v 30.2 H 3559.5 V 410.9 c 0,-52.5 42.7,-95.3 95.3,-95.3 h 88.9 c 52.5,0 95.3,42.7 95.3,95.3 v 119.2 z"
   id="path22"
   style="fill:#ffffff" />

				<path
   class="st1"
   d="m 3831.7,522.9 v -112 c 0,-48.5 -39.5,-88 -88,-88 h -88.9 c -48.5,0 -88,39.5 -88,88 v 112 h 44.8 42.4 v -30.2 h 90.5 v 30.2 z"
   id="path23"
   style="fill:#ffffff" />

				<path
   class="st2"
   d="M 3794.6,517.6 V 410.9 c 0,-28.1 -22.8,-50.9 -50.9,-50.9 h -88.9 c -28.1,0 -50.9,22.8 -50.9,50.9 v 106.7 h -32 V 410.9 c 0,-45.6 37.1,-82.8 82.8,-82.8 h 88.9 c 45.6,0 82.8,37.1 82.8,82.8 v 106.7 z"
   id="path24"
   style="fill:#002f82" />

				<path
   class="st2"
   d="M 3573.2,516.4 V 410.9 c 0,-45 36.6,-81.6 81.6,-81.6 h 88.9 c 45,0 81.6,36.6 81.6,81.6 v 105.5 h -29.4 V 410.9 c 0,-28.8 -23.4,-52.1 -52.1,-52.1 h -88.9 c -28.8,0 -52.1,23.4 -52.1,52.1 v 105.5 z"
   id="path25"
   style="fill:#002f82" />

				<path
   class="st2"
   d="M 3616.7,517.7 V 410.8 c 0,-10.1 4,-19.7 11.2,-26.8 7.1,-7.1 16.7,-11 26.9,-11 h 37.9 l -0.1,114.4 h -31.7 l 0.1,-82.6 h -6.2 c -1.7,0 -3.2,0.6 -4.4,1.8 -0.8,0.8 -1.8,2.2 -1.8,4.3 v 106.8 z"
   id="path26"
   style="fill:#002f82" />

				<path
   class="st2"
   d="M 3617.9,516.4 V 410.8 c 0,-9.8 3.9,-19.1 10.9,-25.9 6.9,-6.9 16.2,-10.7 26,-10.7 h 36.7 l -0.1,112 H 3662 l 0.1,-82.6 h -7.4 c -2.7,0 -4.4,1.3 -5.2,2.2 -0.8,0.8 -2.2,2.5 -2.2,5.2 v 105.6 z"
   id="path27"
   style="fill:#002f82" />

				<path
   class="st2"
   d="M 3749.7,517.7 V 410.8 c 0,-2.2 -1.3,-3.7 -1.8,-4.2 -0.6,-0.5 -2,-1.8 -4.3,-1.8 h -6.2 l 0.1,82.6 h -31.8 L 3705.5,373 h 38 c 10.1,0 19.6,3.9 26.8,11 7.2,7.2 11.2,16.8 11.2,26.8 v 106.9 z"
   id="path28"
   style="fill:#002f82" />

				<path
   class="st2"
   d="m 3706.7,374.2 h 36.8 c 9.7,0 18.9,3.7 25.9,10.7 6.9,6.9 10.9,16.1 10.9,25.9 v 105.7 h -29.4 V 410.8 c 0,-2.5 -1.4,-4.3 -2.2,-5.1 -0.8,-0.7 -2.5,-2.2 -5.2,-2.2 h -7.4 l 0.1,82.6 h -29.3 z"
   id="path29"
   style="fill:#002f82" />

				<rect
   x="3572"
   y="820.70001"
   class="st2"
   width="31.799999"
   height="105.5"
   id="rect29"
   style="fill:#002f82" />

				<rect
   x="3573.2"
   y="821.90002"
   class="st2"
   width="29.4"
   height="103.1"
   id="rect30"
   style="fill:#002f82" />

				<path
   class="st2"
   d="m 3572,709.1 v -91.7 c 0,-45.6 37.1,-82.8 82.8,-82.8 h 88.9 c 45.6,0 82.8,37.1 82.8,82.8 V 709 h -31.8 v -91.6 c 0,-28.1 -22.8,-50.9 -50.9,-50.9 h -88.9 c -28.1,0 -50.9,22.8 -50.9,50.9 v 59.8 h 101.8 l -0.1,-53 h 31.8 l 0.1,84.9 z"
   id="path30"
   style="fill:#002f82" />

				<path
   class="st2"
   d="m 3573.2,707.8 v -90.4 c 0,-45 36.6,-81.6 81.6,-81.6 h 88.9 c 45,0 81.6,36.6 81.6,81.6 v 90.4 h -29.4 v -90.4 c 0,-28.8 -23.4,-52.1 -52.1,-52.1 h -88.9 c -28.8,0 -52.1,23.4 -52.1,52.1 v 61 h 104.1 l -0.1,-53 h 29.4 l 0.1,82.5 z"
   id="path31"
   style="fill:#002f82" />

				<path
   class="st2"
   d="m 3749.7,709.2 v -91.7 c 0,-1.9 -4.2,-6 -6.1,-6 h -88.9 c -1.7,0 -3.2,0.6 -4.4,1.8 -0.8,0.8 -1.8,2.2 -1.8,4.3 v 14.9 h 12.3 v -8.2 l 31.8,0.1 -0.1,40 h -75.8 v -46.9 c 0,-10.1 4,-19.7 11.2,-26.8 7.1,-7.1 16.7,-11 26.9,-11 h 88.7 c 10.1,0 19.6,3.9 26.8,11 7.2,7.2 11.2,16.8 11.2,26.8 v 91.8 z"
   id="path32"
   style="fill:#002f82" />

				<path
   class="st2"
   d="m 3617.9,663.1 v -45.6 c 0,-9.8 3.9,-19.1 10.9,-25.9 6.9,-6.9 16.2,-10.7 26,-10.7 h 88.7 c 9.7,0 18.9,3.7 25.9,10.7 6.9,6.9 10.9,16.1 10.9,25.9 V 708 h -29.4 v -90.5 c 0,-2.5 -4.7,-7.2 -7.3,-7.2 h -88.9 c -2.7,0 -4.4,1.3 -5.2,2.2 -0.8,0.8 -2.2,2.5 -2.2,5.2 v 16.1 h 14.7 v -8.2 l 29.4,0.1 -0.1,37.6 z"
   id="path33"
   style="fill:#002f82" />

				<rect
   x="3616.7"
   y="820.70001"
   class="st2"
   width="31.799999"
   height="52.299999"
   id="rect33"
   style="fill:#002f82" />

				<rect
   x="3617.8999"
   y="821.90002"
   class="st2"
   width="29.4"
   height="49.900002"
   id="rect34"
   style="fill:#002f82" />

				<polygon
   class="st2"
   points="3572,796.9 3572,763.3 3782.8,836.5 3616.7,894.2 3616.7,860.6 3685.8,836.5 "
   id="polygon34"
   style="fill:#002f82" />

				<polygon
   class="st2"
   points="3617.9,861.5 3617.9,892.5 3779.1,836.5 3573.2,765 3573.2,796.1 3689.5,836.5 "
   id="polygon35"
   style="fill:#002f82" />

				<path
   class="st2"
   d="m 3572,923.7 212.5,-73.9 c 8.7,-3 9.4,-10.9 9.4,-13.2 0,-2.3 -0.7,-10.2 -9.4,-13.2 L 3572,749.5 v -33.7 l 222.9,77.6 c 18.7,6.5 30.8,23.5 30.8,43.3 0,19.7 -12.1,36.7 -30.8,43.3 L 3572,957.5 Z"
   id="path35"
   style="fill:#002f82" />

				<path
   class="st2"
   d="m 3573.2,748.7 211.7,73.6 c 9.5,3.3 10.2,11.8 10.2,14.3 0,2.5 -0.7,11.1 -10.2,14.3 l -211.7,73.6 v 31.2 l 221.3,-76.9 c 18.2,-6.4 30,-22.9 30,-42.2 0,-19.3 -11.7,-35.8 -30,-42.2 l -221.3,-77.1 z"
   id="path36"
   style="fill:#002f82" />

				<path
   class="st2"
   d="M 3794.5,311.5 V 204.8 c 0,-28.1 -22.8,-50.9 -50.9,-50.9 h -0.2 c -28.1,0 -50.9,22.8 -50.9,50.9 v 19.5 c -0.1,20.8 -17.1,37.7 -37.9,37.7 h -0.2 c -20.8,-0.1 -37.7,-17.1 -37.7,-37.9 l -0.1,-106.9 31.8,0.1 v 106.8 c 0,3.4 2.7,6.1 6.1,6.1 3.4,0 6.2,-2.7 6.2,-6.1 v -19.3 c 0,-45.6 37.1,-82.8 82.8,-82.8 45.6,0 82.8,37.1 82.8,82.8 v 106.7 z"
   id="path37"
   style="fill:#002f82" />

				<path
   class="st2"
   d="m 3795.7,204.8 v 105.5 h 29.4 V 204.8 c 0,-45 -36.6,-81.6 -81.6,-81.6 -45,0 -81.6,36.6 -81.6,81.6 v 19.3 c 0,4 -3.4,7.3 -7.4,7.3 -4,0 -7.3,-3.3 -7.3,-7.3 V 118.6 l -29.4,-0.1 0.1,105.5 c 0,0.1 0,0.1 0,0.2 0,20.1 16.4,36.6 36.5,36.7 20.2,0.1 36.8,-16.3 36.9,-36.5 v -19.5 0 c 0,-28.8 23.4,-52.1 52.1,-52.1 29,-0.1 52.3,23.3 52.3,52 z"
   id="path38"
   style="fill:#002f82" />

				<path
   class="st2"
   d="M 3749.7,311.5 V 204.8 c 0,-3.3 -2.8,-5.9 -6.2,-5.9 -3.4,0 -6.1,2.7 -6.1,6.1 v 19.7 c -0.1,22 -8.8,42.7 -24.5,58.4 -15.5,15.4 -36.2,24 -58.3,24 h -0.4 c -22,-0.1 -42.7,-8.8 -58.4,-24.5 -15.4,-15.6 -24,-36.3 -24,-58.3 v -107 l 31.8,0.1 v 106.9 c 0,13.5 5.2,26.2 14.7,35.8 9.6,9.6 22.3,15 36,15.1 h 0.3 c 13.4,0 26.1,-5.2 35.7,-14.7 9.6,-9.6 15,-22.3 15.1,-36 v -19.6 c 0,-20.9 17.1,-37.9 38,-37.9 20.9,0 37.9,17 37.9,37.9 v 106.7 z"
   id="path39"
   style="fill:#002f82" />

				<path
   class="st2"
   d="m 3751,204.8 v 105.5 h 29.4 V 204.8 c 0,-20.2 -16.5,-36.7 -36.7,-36.7 -20.2,0 -36.8,16.5 -36.8,36.7 v 19.6 c -0.1,14 -5.5,27 -15.5,36.8 -9.9,9.8 -23,15.2 -36.9,15.1 -14,-0.1 -27,-5.5 -36.8,-15.5 -9.7,-9.8 -15.1,-22.9 -15.1,-36.6 0,-0.1 0,-0.2 0,-0.3 V 118.5 l -29.4,-0.1 v 105.5 c 0,0.1 0,0.3 0,0.4 0,21.6 8.3,42 23.6,57.4 15.4,15.5 35.8,24.1 57.5,24.2 21.8,0.1 42.3,-8.2 57.8,-23.6 15.5,-15.4 24.1,-35.8 24.2,-57.5 V 205 c 0,-4 3.3,-7.3 7.3,-7.3 4,0 7.4,3.1 7.4,7.1 z"
   id="path40"
   style="fill:#002f82" />

			</g>

		</g>

	</g>

</g>
  </g>
</svg>
