<?xml version="1.0" encoding="UTF-8" standalone="no"?>
<!-- Created with Inkscape (http://www.inkscape.org/) -->

<svg
   width="1015.7354mm"
   height="147.29353mm"
   viewBox="0 0 1015.7354 147.29353"
   version="1.1"
   id="svg1"
   inkscape:version="1.3.2 (091e20e, 2023-11-25, custom)"
   sodipodi:docname="segacd.svg"
   xmlns:inkscape="http://www.inkscape.org/namespaces/inkscape"
   xmlns:sodipodi="http://sodipodi.sourceforge.net/DTD/sodipodi-0.dtd"
   xmlns="http://www.w3.org/2000/svg"
   xmlns:svg="http://www.w3.org/2000/svg">
  <sodipodi:namedview
     id="namedview1"
     pagecolor="#ffffff"
     bordercolor="#000000"
     borderopacity="0.25"
     inkscape:showpageshadow="2"
     inkscape:pageopacity="0.0"
     inkscape:pagecheckerboard="0"
     inkscape:deskcolor="#d1d1d1"
     inkscape:document-units="mm"
     inkscape:zoom="0.40511539"
     inkscape:cx="780.02467"
     inkscape:cy="-571.44213"
     inkscape:window-width="3840"
     inkscape:window-height="2054"
     inkscape:window-x="-11"
     inkscape:window-y="-11"
     inkscape:window-maximized="1"
     inkscape:current-layer="layer1" />
  <defs
     id="defs1">
    <linearGradient
       id="SVGID_1_"
       gradientUnits="userSpaceOnUse"
       x1="0.0001071959"
       y1="278.32611"
       x2="3839"
       y2="278.32611">
				<stop
   offset="0"
   style="stop-color:#969696"
   id="stop1" />

				<stop
   offset="1"
   style="stop-color:#FFFFFF"
   id="stop2" />

			</linearGradient>
  </defs>
  <g
     inkscape:label="Layer 1"
     inkscape:groupmode="layer"
     id="layer1"
     transform="translate(402.96042,-48.683333)">
    <g
       id="g4"
       transform="matrix(0.26458333,0,0,0.26458333,-402.96042,48.683333)">
	<rect
   x="18"
   y="27.299999"
   width="3793"
   height="517.20001"
   id="rect1" />

	<g
   id="g3">
		<g
   id="g2">
			<linearGradient
   id="linearGradient4"
   gradientUnits="userSpaceOnUse"
   x1="0.0001071959"
   y1="278.32611"
   x2="3839"
   y2="278.32611">
				<stop
   offset="0"
   style="stop-color:#969696"
   id="stop3" />

				<stop
   offset="1"
   style="stop-color:#FFFFFF"
   id="stop4" />

			</linearGradient>

			<path
   class="st0"
   d="M 148.3,350.4 92,444 l 8.8,1.7 c 3.4,-1.7 5.4,-4.4 9.5,-4.4 15.6,0 63,42.9 228.4,42.9 C 512.2,484.2 599,428.1 599,355.4 599,156.1 199.7,288.2 199.7,198 c 0,-34.1 45.4,-60.5 151.2,-60.5 110.5,0 174.2,38.5 174.2,45.7 0,2.8 -0.7,5.5 -1.4,7.7 l 10.8,5 52.2,-82.6 -10.8,-2.8 c -2,1.7 -3.4,3.9 -12.2,3.9 -8.1,0 -90.8,-41.8 -208.8,-41.8 -131.5,0 -251.5,38.5 -251.5,131 0,182.7 393.8,49 393.8,156.9 0,30.3 -42,58.9 -165.4,58.9 -86.8,0 -174.2,-23.1 -174.2,-55.6 0,-4.4 1.4,-6.6 1.4,-8.8 z m 972.1,140.4 h 9.5 v -90.3 h -9.5 c 0,8.8 -6.8,13.2 -23,13.2 H 765.2 V 305.8 H 978 c 16.3,0 23,4.4 23,13.2 h 9.5 v -92.5 h -9.5 c 0,9.9 -6.8,14.3 -23,14.3 H 765.2 v -98 h 326.1 c 16.3,0 23,4.4 23,14.3 h 9.5 V 65.9 h -9.5 c 0,7.7 -6.8,12.1 -23,12.1 h -440 v 7.7 c 14.9,0 17.6,4.4 17.6,16.5 v 352.3 c 0,12.1 -2.7,16.5 -17.6,16.5 v 7.7 h 446 c 16.3,0 23.1,4.4 23.1,12.1 z m 332.1,-6.6 c 117.3,0 221.7,-41.8 264.4,-61.7 v -7.7 c -8.8,-1.7 -12.2,-5 -12.2,-13.8 V 292.6 c 0,-12.1 6.1,-16.5 12.9,-17.6 v -7.7 h -225.7 c -13.6,0 -21.7,-5.5 -21.7,-13.2 h -9.5 V 351 h 9.5 c 0,-7.7 8.1,-13.2 21.7,-13.2 h 116.6 v 45.7 c -20.3,12.1 -70.5,35.8 -155.9,35.8 -104.4,0 -196.6,-45.7 -196.6,-143.1 0,-93 92.2,-138.7 206.1,-138.7 90.2,0 163.4,34.1 163.4,51.2 0,3.9 -0.7,7.2 -1.4,9.4 l 9.5,5 65.8,-90.3 -9.5,-3.3 c -2.7,3.3 -8.8,6.1 -14.9,6.1 -4.7,0 -31.2,-9.9 -67.1,-22.6 -38.6,-9.9 -91.5,-20.4 -147.1,-20.4 -141,0 -301,62.8 -301,205.9 -0.1,142.9 136.8,205.7 292.7,205.7 z M 1872.2,471 c -6.1,-0.6 -10.2,-3.3 -10.2,-8.3 0,-7.2 10.2,-18.2 49.5,-89.7 H 2144 c 45.4,78.7 51.5,86.4 51.5,92.5 0,2.8 -3.4,5.5 -12.2,5.5 v 7.7 h 134.9 V 471 c -14.2,0 -16.9,-3.9 -26.4,-20.9 L 2095.2,108.3 c -3.4,-5.5 -6.1,-9.9 -6.1,-14.3 0,-3.9 4.1,-7.2 14.2,-8.3 V 78 h -147.8 v 7.7 c 8.8,1.1 14.2,3.9 14.2,9.9 0,5 -4.1,11 -7.5,16.5 l -185.1,338 c -9.5,17.6 -13.6,20.4 -25.8,20.9 v 7.7 H 1872 V 471 Z m 151.1,-305 81.3,144.2 H 1943.3 Z M 0,0 V 556.7 H 3839 V 0 Z M 3788.6,506.2 H 50.5 V 50.5 H 3788.6 Z M 3761,78 H 2442 v 400.7 h 1319 z"
   id="path2"
   style="fill:url(#SVGID_1_)" />

		</g>

	</g>

	<path
   d="m 3070.4,418.8 c -191,18.6 -342.2,-18.1 -351.8,-85.3 -9.7,-68.4 134.4,-148.3 328,-181.9 1.4,-0.2 2.3,-1.5 2.1,-2.9 -0.2,-1.4 -1.5,-2.3 -2.9,-2.1 -319,49.6 -560.7,145.6 -550.4,218.6 7,49.6 124.6,77 299.6,77 81.3,0 175.1,-5.9 275.9,-18.3 1.4,-0.2 2.4,-1.4 2.2,-2.8 0,-1.4 -1.2,-2.4 -2.7,-2.3 z"
   id="path3" />

	<path
   d="m 3708.2,193.2 c -10.6,-74.8 -264.9,-99.4 -591.5,-57.3 -1.7,0.2 -3,1.8 -2.8,3.5 0.2,1.7 1.7,3 3.5,2.8 193.5,-20.8 352.6,15.8 362.2,83.4 8.5,60.2 -106.8,119.6 -301.2,155.1 -12.1,-12.3 -28.5,-89.9 -39.1,-154 -0.3,-1.9 -2,-3.2 -3.9,-3.1 -1.9,0.2 -3.4,1.7 -3.4,3.7 v 185.3 c 0,0.9 0.4,1.8 1.1,2.4 0.6,0.5 1.3,0.8 2.1,0.8 0.2,0 0.3,0 0.5,0 C 3467.5,367 3719,269.2 3708.2,193.2 Z"
   id="path4" />

</g>
  </g>
</svg>
