<?xml version="1.0" encoding="UTF-8" standalone="no"?>
<!-- Created with Inkscape (http://www.inkscape.org/) -->

<svg
   width="1015.7644mm"
   height="153.96104mm"
   viewBox="0 0 1015.7644 153.96104"
   version="1.1"
   id="svg1"
   inkscape:version="1.3.2 (091e20e, 2023-11-25, custom)"
   sodipodi:docname="sfc.svg"
   xmlns:inkscape="http://www.inkscape.org/namespaces/inkscape"
   xmlns:sodipodi="http://sodipodi.sourceforge.net/DTD/sodipodi-0.dtd"
   xmlns="http://www.w3.org/2000/svg"
   xmlns:svg="http://www.w3.org/2000/svg">
  <sodipodi:namedview
     id="namedview1"
     pagecolor="#ffffff"
     bordercolor="#000000"
     borderopacity="0.25"
     inkscape:showpageshadow="2"
     inkscape:pageopacity="0.0"
     inkscape:pagecheckerboard="0"
     inkscape:deskcolor="#d1d1d1"
     inkscape:document-units="mm"
     inkscape:zoom="0.28645984"
     inkscape:cx="980.9403"
     inkscape:cy="-808.1412"
     inkscape:window-width="3840"
     inkscape:window-height="2054"
     inkscape:window-x="-11"
     inkscape:window-y="-11"
     inkscape:window-maximized="1"
     inkscape:current-layer="layer1" />
  <defs
     id="defs1" />
  <g
     inkscape:label="Layer 1"
     inkscape:groupmode="layer"
     id="layer1"
     transform="translate(402.96042,-71.4375)">
    <g
       id="g5"
       transform="matrix(0.26458333,0,0,0.26458333,-402.96042,71.4375)">
	<g
   id="g3">
		<g
   id="g2">
			<path
   d="M 1116.9,198 995.2,0.8 H 907 v 282.3 h 87.5 V 85.9 l 122.4,197.2 h 87.5 V 0.8 h -87.5 z M 1808.6,95.4 V 67.6 h -46.1 V 29.4 h -85.1 v 38.2 h -46.1 v 27.8 h 46.1 V 283 h 85.1 V 95.4 Z M 1252.9,283.1 H 1338 V 95.4 h -85.1 z m 0,-225.1 H 1338 V 0 h -85.1 z m 1486.8,24.7 c -68.4,0 -124,46.9 -124,105.7 0,58 55.7,105.7 124,105.7 68.3,0 124,-46.9 124,-105.7 0,-58.8 -54,-105.7 -124,-105.7 z m 34.2,144.7 c 0,30.2 -17.5,42.1 -35,42.1 -16.7,0 -35,-12.7 -35,-42.1 0,-11.1 0,-40.6 0,-40.6 0,0 0,-27.8 0,-39 0,-29.4 17.5,-42.1 35,-42.1 16.7,0 35,11.9 35,42.1 0,11.1 0,32.6 0,39.8 0,0.8 0,28.7 0,39.8 z M 2505.1,105 c -13.5,-8 -27.8,-15.1 -47.7,-16.7 -61.2,-5.6 -108.1,48.5 -108.1,98.6 0,65.2 50.1,89.8 58,93 28.6,13.5 65.2,13.5 97.8,-7.2 0,1.6 0,11.1 0,11.1 h 83.5 V 1.6 h -83.5 c 0,-0.8 0,59.6 0,103.4 z m 0,83.4 c 0,0 0,21.5 0,33.4 0,28.6 -19.9,36.6 -33.4,36.6 -13.5,0 -33.4,-8 -33.4,-36.6 0,-10.3 0,-33.4 0,-33.4 0,0 0,-23.9 0,-33.4 0,-29.4 19.9,-36.6 33.4,-36.6 13.5,0 33.4,7.2 33.4,36.6 0,9.6 0,33.4 0,33.4 z M 1536.7,86.7 c -27.8,0.8 -51.7,12.7 -67.6,28.6 0,-4.8 0,-19.9 0,-19.9 h -84.3 V 283 h 84.3 c 0,0 0,-115.3 0,-123.2 0,-16.7 17.5,-34.2 40.6,-34.2 23.1,0 39,18.3 39,34.2 0,11.9 0,123.2 0,123.2 h 84.3 c 0,0 0,-89.1 0,-101.8 -0.1,-74.7 -64.5,-95.3 -96.3,-94.5 z m 690.1,0 c -27.8,0.8 -51.7,12.7 -67.6,28.6 0,-4.8 0,-19.9 0,-19.9 H 2075 V 283 h 84.3 c 0,0 0,-115.3 0,-123.2 0,-16.7 17.5,-34.2 40.5,-34.2 23.1,0 39,18.3 39,34.2 0,11.9 0,123.2 0,123.2 h 84.3 c 0,0 0,-89.1 0,-101.8 -0.8,-74.7 -65.2,-95.3 -96.3,-94.5 z M 2047.9,190 c 0,-58 -56.5,-106.5 -125.6,-106.5 -69.2,0 -124.8,46.9 -124.8,105.7 0,58 55.7,105.7 124.8,105.7 57.2,0 105.7,-32.6 120.9,-77.1 h -84.3 c 0,0 0,0.8 0,11.1 0,34.2 -22.3,42.1 -35,42.1 -12.7,0 -35.8,-8 -35.8,-42.1 0,-10.3 0,-39 0,-39 h 159.8 z m -153.4,-66 c 6.4,-11.9 19.1,-16.7 30.2,-17.5 11.1,0 23.1,5.6 30.2,17.5 5.6,9.5 5.6,20.7 5.6,36.6 h -70.8 c -1.6,-16.7 -1.6,-27 4.8,-36.6 z"
   id="path1" />

		</g>

	</g>

	<g
   id="data_6_">
		<path
   d="m 961.4,497.8 h 84.9 c 31.1,0 31.8,46.2 0,46.2 H 918.9 v 34.1 h 164.5 c 65.9,0 66.7,-110.6 -3,-110.6 h -85.6 c -34.1,0 -34.1,-42.4 0,-42.4 h 122 V 391 H 960.6 c -72.7,-0.1 -70.5,106.8 0.8,106.8 z m 194,-106.9 v 118.2 c 0,43.2 31.1,68.2 63.7,68.2 h 142.5 V 390.9 h -53.1 v 152.3 h -62.1 c -27.3,0 -40.9,-21.2 -40.9,-37.9 V 390.9 Z m 378.2,117.5 h -84.1 v 68.2 h -53.1 V 387.1 h 53.1 84.1 c 94.7,0 98.5,121.3 0,121.3 z m -17.5,-87.2 h -66.7 v 57.6 h 66.7 c 42.5,-0.7 41.7,-57.6 0,-57.6 z m 307.7,118.3 h -102.3 c -26.5,0 -37.9,-31.8 -34.9,-42.4 h 137.9 V 463 h -137.9 c -3,-11.4 7.6,-42.4 34.1,-42.4 h 103.1 v -34.1 h -112.9 c -108.4,0 -107.6,190.2 0,190.2 h 112.9 z m 488.1,-118.3 h 91.7 v -34.1 h -112.2 c -45.5,0 -82.6,29.6 -82.6,76.5 v 0 114.4 h 53.1 v -77.3 h 141.7 v -37.9 h -141 c 0,-29.4 16.7,-41.6 49.3,-41.6 z M 3163,387.1 c -111.4,0 -125,190.2 12.9,190.2 v 0 h 94.7 v -37.9 h -95.5 c -53.1,0 -53.1,-119 0,-119 h 95.5 v -34.1 z m -288.8,0 H 2728 2674.9 V 577.3 H 2728 V 420.5 h 57.6 v 156.9 h 49.3 V 420.5 h 15.2 c 26.5,0 50,12.1 50,43.2 v 113.7 h 53.1 V 454.6 c 0.6,-46.3 -27.4,-67.5 -79,-67.5 z m 113.7,190.2 h 57.6 V 387.1 h -57.6 z m 541.9,-94.7 c 0,52.3 -31.1,99.3 -122,99.3 -90.9,0 -122,-47 -122,-99.3 0,-53.8 32.6,-95.5 122,-95.5 89.4,0 122,41.7 122,95.5 z m -56.9,-0.7 c 0,-50 -18.9,-65.2 -65.2,-65.2 -46.2,0 -65.2,14.4 -65.2,65.2 0,47.7 18.2,65.2 65.2,65.2 47,0 65.2,-17.5 65.2,-65.2 z M 2640,475 v 41 61.4 h -148.5 c -85.6,0 -87.9,-117.5 -0.8,-117.5 h 92.5 c 0,-12.1 -12.1,-38.7 -44.7,-38.7 h -100.8 v -34.1 h 119 c 45.4,0.8 83.3,25 83.3,87.9 z m -56.8,18.2 h -76.5 c -31.1,0 -30.3,46.2 0,46.2 h 76.5 V 516 Z m -671.5,84.1 h -53.8 V 387.1 h 53.8 v 0 h 84.9 c 96.2,0 105.3,96.2 28,115.2 l 60.6,75.8 h -62.9 l -48.5,-72 h -61.4 z m 0,-106.8 h 77.3 c 34.1,0 34.9,-50 0,-50 h -77.3 z m 1848.5,-83.4 h -146.3 -53.1 v 190.2 h 53.1 V 420.5 h 57.6 v 156.9 h 49.3 V 420.5 h 15.2 c 26.5,0 50,12.1 50,43.2 v 113.7 h 53.1 V 454.6 c 0.6,-46.3 -26.6,-67.5 -78.9,-67.5 z"
   id="path2" />

	</g>

	<g
   id="g4">
		<path
   id="yellow_3_"
   class="st0"
   d="m 471,415.3 c 148.9,0 168.6,64.3 168.6,87.2 0,27 -42,75.6 -168.6,75.6 -131,0 -162.8,-54.8 -162.8,-75.6 0,-21.9 11,-87.2 162.8,-87.2 z"
   style="clip-rule:evenodd;fill:#fddb00;fill-rule:evenodd" />

		<path
   id="green_3_"
   class="st1"
   d="m 157,264.1 c 148.9,0 162.8,71.2 162.8,87.2 0,16.1 -30.4,75.6 -157,75.6 C 31.9,426.9 0,367.4 0,351.3 c 0,-16 5.2,-87.2 157,-87.2 z"
   style="clip-rule:evenodd;fill:#73b744;fill-rule:evenodd" />

		<path
   id="red_3_"
   class="st2"
   d="m 511.7,304.8 c 0,0 2.4,-129.9 122.1,-145.4 119.7,-15.5 170.3,84.4 174.4,104.7 C 847,452.6 674.5,462.2 674.5,461.8 663.6,296.2 511.7,304.8 511.7,304.8 Z"
   style="clip-rule:evenodd;fill:#e11f26;fill-rule:evenodd" />

		<path
   id="blue_3_"
   class="st3"
   d="m 209.3,147.8 c 0,0 2.4,-129.9 122.1,-145.4 119.7,-15.5 170.3,84.4 174.4,104.7 38.8,188.5 -133.7,198.1 -133.7,197.7 -10.9,-165.6 -162.8,-157 -162.8,-157 z"
   style="clip-rule:evenodd;fill:#25a4dd;fill-rule:evenodd" />

	</g>

</g>
  </g>
</svg>
