<?xml version="1.0" encoding="UTF-8" standalone="no"?>
<!-- Created with Inkscape (http://www.inkscape.org/) -->

<svg
   width="1015.7354mm"
   height="269.4252mm"
   viewBox="0 0 1015.7354 269.4252"
   version="1.1"
   id="svg1"
   inkscape:version="1.3.2 (091e20e, 2023-11-25, custom)"
   sodipodi:docname="snes.svg"
   xmlns:inkscape="http://www.inkscape.org/namespaces/inkscape"
   xmlns:sodipodi="http://sodipodi.sourceforge.net/DTD/sodipodi-0.dtd"
   xmlns="http://www.w3.org/2000/svg"
   xmlns:svg="http://www.w3.org/2000/svg">
  <sodipodi:namedview
     id="namedview1"
     pagecolor="#ffffff"
     bordercolor="#000000"
     borderopacity="0.25"
     inkscape:showpageshadow="2"
     inkscape:pageopacity="0.0"
     inkscape:pagecheckerboard="0"
     inkscape:deskcolor="#d1d1d1"
     inkscape:document-units="mm"
     inkscape:zoom="0.40511539"
     inkscape:cx="454.19158"
     inkscape:cy="-517.13661"
     inkscape:window-width="3840"
     inkscape:window-height="2054"
     inkscape:window-x="-11"
     inkscape:window-y="-11"
     inkscape:window-maximized="1"
     inkscape:current-layer="layer1" />
  <defs
     id="defs1" />
  <g
     inkscape:label="Layer 1"
     inkscape:groupmode="layer"
     id="layer1"
     transform="translate(402.96042,-13.758333)">
    <g
       id="SNES_22_"
       transform="matrix(0.26458333,0,0,0.26458333,-402.96042,13.758333)">
	<g
   id="g15">
		<g
   id="g14">
			<g
   id="g13">
				<g
   id="g2">
					<path
   class="st0"
   d="m 179.7,265 c 12.7,23.6 78.1,132.5 85.3,150.7 9.1,18.2 16.3,47.2 9.1,78.1 L 250.5,626.3 C 243.2,660.8 212.4,688 174.3,688 H 59.9 C 25.4,687.9 0,660.7 0,626.2 0,622.6 0,618.9 0,615.3 L 30.9,441 h 79.9 L 85.4,588 c 0,1.8 0,1.8 0,1.8 0,10.9 9.1,20 20,20 H 149 c 14.5,0 27.2,-10.9 30.9,-23.6 L 198.1,490 c 3.6,-18.2 0,-29 -16.3,-58.1 C 169.1,408.3 114.6,304.8 98.3,274 76.5,234.1 74.7,215.9 80.1,181.4 l 20,-118 C 107.4,27.1 138.2,1.7 174.5,1.7 h 114.4 c 32.7,0 61.7,27.2 61.7,61.7 0,3.6 0,7.3 0,10.9 l -29,168.8 h -79.9 l 25.4,-141.6 c 0,-1.8 0,-1.8 0,-3.6 0,-10.9 -9.1,-20 -20,-20 h -43.6 c -14.5,0 -25.4,10.9 -29,23.6 L 160,177.7 c -5.7,38.3 1.5,56.5 19.7,87.3 z"
   id="path1"
   style="fill:#ed2224" />

				</g>

				<g
   id="g3">
					<path
   class="st0"
   d="m 388.4,588.1 c 0,1.8 0,1.8 0,0 0,12.7 9.1,21.8 20,21.8 H 452 c 14.5,0 25.4,-10.9 29,-23.6 L 588.1,0 h 81.7 L 555.4,624.4 c -7.3,34.5 -38.1,61.7 -76.2,61.7 H 364.8 c -32.7,0 -59.9,-27.2 -59.9,-61.7 0,-3.6 0,-7.3 0,-12.7 L 415.7,0 h 79.9 z"
   id="path2"
   style="fill:#ed2224" />

				</g>

				<g
   id="g4">
					<polygon
   class="st0"
   points="985.6,609.9 1087.3,609.9 1074.6,686.1 887.6,686.1 1012.8,0 1198,0 1185.3,78.1 1081.8,78.1 1043.7,294.1 1145.3,294.1 1130.8,372.1 1029.2,372.1 "
   id="polygon2"
   style="fill:#ed2224" />

				</g>

				<g
   id="g5">
					<path
   class="st0"
   d="M 1548.3,686.1 1673.5,0 h 83.5 c 36.3,366.7 36.3,455.6 38.1,524.6 C 1796.9,452 1806,352.2 1869.5,0 v 0 h 83.5 l -125.2,686.1 h -83.5 C 1709.8,319.4 1708,243.2 1708,174.2 c -3.6,81.7 -12.7,161.5 -74.4,511.9 z"
   id="path3"
   style="fill:#ed2224" />

				</g>

				<g
   id="g6">
					<polygon
   class="st0"
   points="1969.4,686.1 1887.7,686.1 2011.2,0 2094.7,0 "
   id="polygon4"
   style="fill:#ed2224" />

				</g>

				<g
   id="g7">
					<polygon
   class="st0"
   points="2648.3,78.1 2592,78.1 2481.3,686.1 2397.8,686.1 2510.3,78.1 2450.4,78.1 2464.9,0 2664.6,0 "
   id="polygon5"
   style="fill:#ed2224" />

				</g>

				<g
   id="g8">
					<polygon
   class="st0"
   points="2671.9,609.9 2773.5,609.9 2760.8,686.1 2573.9,686.1 2699.1,0 2884.2,0 2871.5,78.1 2768.1,78.1 2730,294.1 2831.6,294.1 2817.1,372.1 2715.4,372.1 "
   id="polygon6"
   style="fill:#ed2224" />

				</g>

				<g
   id="g9">
					<path
   class="st0"
   d="M 2032.9,686.1 2158.2,0 h 83.5 c 36.3,366.7 36.3,455.6 38.1,524.6 1.8,-72.6 10.9,-172.4 74.4,-524.6 v 0 h 83.5 L 2312.5,686.1 H 2229 c -34.5,-366.7 -36.3,-442.9 -36.3,-511.9 -3.6,81.7 -12.7,161.5 -74.4,511.9 0,0 -85.4,0 -85.4,0 z"
   id="path7"
   style="fill:#ed2224" />

				</g>

				<g
   id="g10">
					<path
   class="st0"
   d="M 2815.3,686.1 2940.5,0 h 83.5 c 36.3,366.7 36.3,455.6 38.1,524.6 C 3063.9,452 3073,352.2 3136.5,0 v 0 h 83.5 l -125.2,686.1 h -83.5 C 2976.8,319.4 2975,243.2 2975,174.2 c -3.6,81.7 -12.7,161.5 -74.4,511.9 z"
   id="path8"
   style="fill:#ed2224" />

				</g>

				<path
   class="st0"
   d="M 595.4,686.1 720.6,0 h 179.7 c 34.5,0 61.7,27.2 61.7,61.7 0,3.6 0,7.3 -1.8,10.9 l -43.6,243.2 c -5.4,36.3 -36.3,61.7 -74.4,61.7 H 735.1 L 678.8,684.3 Z M 813.2,301.3 c 14.5,0 25.4,-9.1 29,-23.6 L 876.7,99.8 c 0,0 0,-1.8 0,-3.6 0,-10.9 -9.1,-20 -20,-20 h -69 L 746,301.3 Z M 1345,406.6 v 0 c 0,-12.7 -9.1,-21.8 -20,-21.8 h -65.3 l -54.5,303.1 h -83.5 L 1245.2,1.8 h 183.3 c 34.5,0 61.7,27.2 61.7,61.7 0,3.6 0,7.3 -1.8,12.7 l -38.1,216 c -5.4,29 -25.4,49 -52.6,58.1 23.6,9.1 34.5,30.9 30.9,56.3 0,3.6 0,7.3 0,10.9 l -49,270.5 H 1296 Z m -5.4,-105.3 c 14.5,0 25.4,-10.9 29,-23.6 l 32.7,-177.9 c 0,-1.8 0,-1.8 0,-3.6 0,-10.9 -9.1,-20 -20,-20 H 1316 l -40,223.3 z M 3278.1,0 h 187 c 34.5,0 61.7,27.2 61.7,61.7 0,3.6 0,7.3 -1.8,10.9 l -99.8,551.8 c -5.4,34.5 -36.3,61.7 -74.4,61.7 H 3153 Z m 43.6,609.9 c 14.5,0 25.4,-10.9 29,-23.6 l 88.9,-486.5 c 0,-1.8 0,-1.8 0,-3.6 0,-10.9 -9.1,-20 -20,-20 h -74.4 L 3249,608 h 72.6 v 1.9 z M 3655.7,0 h 116.2 c 32.7,0 59.9,27.2 59.9,61.7 0,3.6 0,7.3 0,10.9 l -98,551.8 c -7.3,34.5 -38.1,61.7 -76.2,61.7 h -114.4 c -34.5,0 -59.9,-27.2 -59.9,-61.7 0,-3.6 0,-7.3 0,-12.7 l 98,-550 C 3588.5,27.2 3619.4,0 3655.7,0 Z m -89,589.9 c 0,10.9 9.1,20 20,20 h 43.6 c 14.5,0 25.4,-10.9 29,-23.6 l 87.1,-486.5 c 0,-1.8 0,-1.8 0,-3.6 0,-10.9 -9.1,-20 -20,-20 H 3681 c -12.7,0 -25.4,10.9 -29,23.6 l -87.1,486.5 c 1.8,1.8 1.8,3.6 1.8,3.6 z"
   id="path9"
   style="fill:#ed2224" />

				<g
   id="g12">
					<path
   class="st0"
   d="m 1265.1,902.1 5.4,-45.4 c 0,-7.3 1.8,-14.5 3.6,-21.8 0,-3.6 1.8,-12.7 1.8,-16.3 v 0 c -1.8,3.6 -3.6,12.7 -5.4,16.3 -3.6,7.3 -5.4,14.5 -9.1,21.8 l -20,45.4 z"
   id="path10"
   style="fill:#ed2224" />

					<path
   class="st0"
   d="m 905.7,827.7 h -20 l -10.9,45.4 h 21.8 c 9.1,0 18.2,-7.3 21.8,-23.6 3.7,-18.2 -1.8,-21.8 -12.7,-21.8 z"
   id="path11"
   style="fill:#ed2224" />

					<path
   class="st0"
   d="m 9.1,751.5 v 266.8 H 3839 V 751.5 Z m 176,76.2 h -49 l -10.9,41.7 h 45.4 l -5.4,23.6 h -45.4 l -12.7,50.8 h 49 l -5.4,23.6 H 74.4 l 41.7,-161.5 h 76.2 z m 174.3,139.8 h -29 L 325,909.4 c -1.8,-20 -3.6,-38.1 -1.8,-65.3 v 0 c -1.8,12.7 -5.4,29 -9.1,47.2 -3.6,16.3 -7.3,32.7 -10.9,45.4 l -7.3,30.9 h -27.2 l 41.7,-161.5 h 29 l 5.4,59.9 c 1.8,18.2 3.6,38.1 1.8,65.3 v 0 c 3.6,-14.5 5.4,-30.9 9.1,-45.4 3.6,-16.3 7.3,-30.9 10.9,-45.4 l 9.1,-32.7 H 403 Z M 580.8,827.7 H 550 l -36.3,137.9 h -27.2 l 36.3,-137.9 h -32.7 l 5.4,-23.6 h 90.8 z m 174.3,0 h -49 l -10.9,41.7 h 45.4 L 735.2,893 H 689.8 L 677,943.9 h 49 l -5.4,23.6 H 644.4 L 686.1,806 h 76.2 z M 947.5,844 c -5.4,18.2 -14.5,36.3 -32.7,39.9 v 0 c 16.3,1.8 18.2,14.5 12.7,29 -1.8,7.3 -12.7,47.2 -7.3,50.8 v 3.6 h -30.9 c 0,-10.9 5.4,-30.9 7.3,-41.7 1.8,-10.9 5.4,-23.6 -1.8,-27.2 -7.3,-1.8 -14.5,-1.8 -21.8,-1.8 h -5.4 l -18.2,69 H 822.2 L 864,804.1 h 50.8 c 25.4,0 41.8,9.1 32.7,39.9 z m 185.1,-16.3 h -30.9 l -36.3,137.9 h -27.2 l 36.3,-137.9 h -32.7 l 5.4,-23.6 h 90.8 z m 156.1,139.8 h -29 l 3.6,-41.7 h -32.7 l -18.2,41.7 h -29 L 1261.5,806 h 36.3 z m 139.8,0 h -27.2 L 1443,806 h 27.2 z m 216,0 h -27.2 l -5.4,-58.1 c -1.8,-20 -3.6,-38.1 -1.8,-65.3 v 0 c -1.8,12.7 -5.4,29 -9.1,47.2 -3.6,16.3 -7.3,32.7 -10.9,45.4 l -7.3,30.9 h -27.2 l 41.7,-161.5 h 29 l 5.4,59.9 c 1.8,18.2 3.6,38.1 1.8,65.3 v 0 c 3.6,-14.5 5.4,-30.9 9.1,-45.4 3.6,-16.3 7.3,-30.9 10.9,-45.4 l 9.1,-32.7 h 27.2 z m 246.9,0 h -27.2 l 12.7,-50.8 c 9.1,-32.7 18.2,-65.3 27.2,-96.2 v 0 l -67.2,147 h -16.3 l 10.9,-147 h -1.8 c -7.3,32.7 -14.5,65.3 -23.6,96.2 l -12.7,50.8 h -27.2 L 1807.9,806 h 43.6 l -5.4,76.2 c 0,12.7 -5.4,32.7 -7.3,45.4 v 0 c 5.4,-16.3 10.9,-34.5 16.3,-45.4 l 34.5,-76.2 h 43.6 z m 226.9,-139.8 h -49 l -10.9,41.7 h 45.4 l -5.4,23.6 H 2053 l -12.7,50.8 h 49 l -5.4,23.6 h -76.2 l 41.7,-161.5 h 76.2 z m 156.1,139.8 h -29 l -5.4,-58.1 c -1.8,-20 -3.6,-38.1 -1.8,-65.3 v 0 c -1.8,12.7 -5.4,29 -9.1,47.2 -3.6,16.3 -7.3,32.7 -10.9,45.4 l -7.3,30.9 h -27.2 l 41.7,-161.5 h 29 l 5.4,59.9 c 1.8,18.2 3.6,38.1 1.8,65.3 v 0 c 3.6,-14.5 5.4,-30.9 9.1,-45.4 3.6,-16.3 7.3,-30.9 10.9,-45.4 l 9.1,-32.7 h 27.2 z m 226.8,-139.8 h -30.9 L 2434,965.6 h -27.2 l 36.3,-137.9 h -32.7 l 5.4,-23.6 h 90.8 z m 297.7,25.4 h -27.2 c 3.6,-14.5 7.3,-29 -9.1,-29 -9.1,0 -16.3,3.6 -18.2,14.5 -3.6,12.7 1.8,16.3 9.1,23.6 7.3,5.4 20,18.2 25.4,27.2 7.3,10.9 7.3,20 3.6,34.5 -7.3,30.9 -30.9,47.2 -58.1,47.2 -32.7,0 -39.9,-20 -30.9,-49 l 3.6,-12.7 h 27.2 l -1.8,9.1 c -5.4,16.3 -3.6,27.2 10.9,27.2 10.9,0 18.2,-7.3 21.8,-18.2 1.8,-9.1 0,-16.3 -5.4,-21.8 -10.9,-12.7 -27.2,-21.8 -32.7,-38.1 -1.8,-7.3 -3.6,-16.3 0,-25.4 7.3,-27.2 25.4,-43.6 54.5,-43.6 41.9,1.9 31,40 27.3,54.5 z m 150.7,45.4 -18.2,69 h -27.2 l 18.2,-69 -14.5,-92.6 h 29 l 3.6,41.7 c 0,7.3 1.8,16.3 0,25.4 v 0 c 5.4,-12.7 10.9,-21.8 16.3,-30.9 l 21.8,-36.3 h 29 z m 228.7,-45.4 h -25.4 c 3.6,-14.5 7.3,-29 -9.1,-29 -9.1,0 -16.3,3.6 -18.2,14.5 -3.6,12.7 1.8,16.3 9.1,23.6 7.3,5.4 20,18.2 25.4,27.2 7.3,10.9 7.3,20 3.6,34.5 -7.3,30.9 -30.9,47.2 -58.1,47.2 -32.7,0 -39.9,-20 -30.9,-49 l 3.6,-12.7 h 27.2 l -1.8,9.1 c -5.4,16.3 -3.6,27.2 10.9,27.2 10.9,0 18.2,-7.3 21.8,-18.2 1.8,-9.1 0,-16.3 -5.4,-21.8 -10.9,-12.7 -27.2,-21.8 -32.7,-38.1 -1.8,-7.3 -3.6,-16.3 0,-25.4 7.3,-27.2 25.4,-43.6 54.5,-43.6 41.8,1.9 30.9,40 25.5,54.5 z m 185.1,-25.4 h -32.7 l -36.3,137.9 h -27.2 l 36.3,-137.9 h -32.7 l 5.4,-23.6 h 90.8 z m 181.5,0 h -49 l -10.9,41.7 h 45.4 L 3525,893 h -45.4 l -12.7,50.8 h 49 l -5.4,23.6 h -78.1 l 41.7,-161.5 h 76.2 z m 205.2,139.8 h -27.2 l 12.7,-50.8 c 9.1,-32.7 18.2,-65.3 27.2,-96.2 v 0 l -67.2,147 h -16.3 l 10.9,-147 h -1.8 c -7.3,32.7 -14.5,65.3 -23.6,96.2 l -12.7,50.8 h -27.2 L 3666.6,806 h 43.6 l -5.4,76.2 c 0,12.7 -5.4,32.7 -7.3,45.4 v 0 c 5.4,-16.3 10.9,-34.5 16.3,-45.4 l 34.5,-76.2 h 43.6 z"
   id="path12"
   style="fill:#ed2224" />

				</g>

			</g>

		</g>

	</g>

</g>
  </g>
</svg>
