<?xml version="1.0" encoding="UTF-8" standalone="no"?>
<!-- Created with Inkscape (http://www.inkscape.org/) -->

<svg
   width="1015.7354mm"
   height="393.59695mm"
   viewBox="0 0 1015.7354 393.59695"
   version="1.1"
   id="svg1"
   inkscape:version="1.3.2 (091e20e, 2023-11-25, custom)"
   sodipodi:docname="snesmsu1.svg"
   xmlns:inkscape="http://www.inkscape.org/namespaces/inkscape"
   xmlns:sodipodi="http://sodipodi.sourceforge.net/DTD/sodipodi-0.dtd"
   xmlns="http://www.w3.org/2000/svg"
   xmlns:svg="http://www.w3.org/2000/svg">
  <sodipodi:namedview
     id="namedview1"
     pagecolor="#ffffff"
     bordercolor="#000000"
     borderopacity="0.25"
     inkscape:showpageshadow="2"
     inkscape:pageopacity="0.0"
     inkscape:pagecheckerboard="0"
     inkscape:deskcolor="#d1d1d1"
     inkscape:document-units="mm"
     inkscape:zoom="0.28645984"
     inkscape:cx="460.79758"
     inkscape:cy="1635.4823"
     inkscape:window-width="3840"
     inkscape:window-height="2054"
     inkscape:window-x="-11"
     inkscape:window-y="-11"
     inkscape:window-maximized="1"
     inkscape:current-layer="layer1" />
  <defs
     id="defs1" />
  <g
     inkscape:label="Layer 1"
     inkscape:groupmode="layer"
     id="layer1"
     transform="translate(19.314583,-48.154167)">
    <rect
       style="fill:#000000;stroke:none;stroke-width:0.54883;stroke-opacity:1"
       id="rect825"
       width="1015.7354"
       height="393.59695"
       x="-19.314583"
       y="48.154167" />
    <path
       id="MSU-1"
       fill="none"
       stroke="black"
       stroke-width="0.793542"
       d="m 98.130357,283.04266 c 0,0 180.927633,-180.92762 180.927633,-180.92762 0,0 22.21917,0 22.21917,0 0,0 0,123.79258 0,123.79258 0,0 123.79259,-123.79258 123.79259,-123.79258 0,0 22.21919,0 22.21919,0 0,0 0,180.92762 0,180.92762 0,0 -31.74169,0 -31.74169,0 0,0 0,-126.96675 0,-126.96675 0,0 -126.96676,126.96675 -126.96676,126.96675 0,0 -22.21919,0 -22.21919,0 0,0 0,-126.96675 0,-126.96675 0,0 -126.96675,126.96675 -126.96675,126.96675 z M 878.97589,102.11504 c 0,0 -19.045,0 -19.045,0 0,0 -50.78671,50.7867 -50.78671,50.7867 0,0 0,19.04502 0,19.04502 0,0 38.09002,0 38.09002,0 0,0 0,111.0959 0,111.0959 0,0 31.74169,0 31.74169,0 z m -260.28184,0 c 0,0 -117.44426,0 -117.44426,0 -19.83855,0 -34.91585,24.59981 -34.91585,44.43836 0,0 0,19.04501 0,19.04501 0,19.83857 15.0773,44.43837 34.91585,44.43837 0,0 66.65757,0 66.65757,0 15.87083,0 19.045,11.10959 19.045,19.045 0,7.93544 -3.17417,19.04502 -19.045,19.04502 0,0 -101.57342,0 -101.57342,0 0,0 0,34.91586 0,34.91586 0,0 117.44425,0 117.44425,0 19.83855,0 34.91586,-24.5998 34.91586,-44.43836 0,0 0,-19.04502 0,-19.04502 0,-19.83855 -15.07731,-44.43835 -34.91586,-44.43835 0,0 -66.65754,0 -66.65754,0 -15.87086,0 -19.04503,-11.10961 -19.04503,-19.04502 0,-7.93542 3.17417,-19.04502 19.04503,-19.04502 0,0 101.5734,0 101.5734,0 z m 50.78671,122.99905 c 0,19.83855 11.90313,26.18688 23.80627,26.18688 0,0 41.26419,0 41.26419,0 11.90313,0 23.80627,-6.34833 23.80627,-26.18688 0,0 0,-122.99905 0,-122.99905 0,0 34.91585,0 34.91585,0 0,0 0,136.48926 0,136.48926 0,23.80626 -10.31605,44.43836 -38.09004,44.43836 0,0 -82.52838,0 -82.52838,0 -27.77397,0 -38.09002,-20.6321 -38.09002,-44.43836 0,0 0,-136.48926 0,-136.48926 0,0 34.91586,0 34.91586,0 z m 211.08221,73.79942 c 0,0 0,22.21917 0,22.21917 0,0 -788.78095,0 -788.78095,0 0,0 0,-22.21917 0,-22.21917 z m -243.61746,83.32193 c 0,7.93542 -6.34833,15.07731 -14.28375,15.07731 0,0 -15.0773,0 -15.0773,0 -7.93542,0 -14.28377,-7.14189 -14.28377,-15.07731 0,0 0,-30.94815 0,-30.94815 0,-7.93542 6.34835,-15.07731 14.28377,-15.07731 0,0 15.0773,0 15.0773,0 7.93542,0 14.28375,7.14189 14.28375,15.07731 0,0 -0.13483,6.25312 0,7.93541 0,0 -17.45791,0 -17.45791,0 0,-7.93541 0,-10.31603 -3.57095,-10.31603 -3.57094,0 -3.57094,2.38062 -3.57094,10.31603 0,0 0,14.28378 0,14.28378 0,7.93541 0,10.31605 3.59476,10.31605 3.54713,0 3.54713,-2.38064 3.54713,-10.31605 0,0 17.45791,0 17.45791,0 0,3.42016 0,8.72896 0,8.72896 z m -518.9766,-46.02546 c 0,0 7.52278,30.94816 7.52278,30.94816 0,0 7.55452,-30.94816 7.55452,-30.94816 0,0 23.80627,0 23.80627,0 0,0 0,60.30922 0,60.30922 0,0 -17.45793,0 -17.45793,0 0,0 0,-36.50294 0,-36.50294 0,0 -10.31605,36.50294 -10.31605,36.50294 0,0 -7.14188,0 -7.14188,0 0,0 -10.31605,-36.50294 -10.31605,-36.50294 0,0 0,36.50294 0,36.50294 0,0 -17.457923,0 -17.457923,0 0,0 0,-60.30922 0,-60.30922 z m 80.14777,0 c 0,0 0,13.49022 0,13.49022 0,0 -16.66439,0 -16.66439,0 0,0 0,9.5225 0,9.5225 0,0 14.28376,0 14.28376,0 0,0 0,13.49022 0,13.49022 0,0 -14.28376,0 -14.28376,0 0,0 0,10.31606 0,10.31606 0,0 16.66439,0 16.66439,0 0,0 0,13.49022 0,13.49022 0,0 -35.7094,0 -35.7094,0 0,0 0,-60.30922 0,-60.30922 z m 4.76125,60.30922 c 0,0 0,-60.30922 0,-60.30922 3.97565,0 23.01272,0 23.01272,0 20.6321,0 20.6321,14.28378 20.6321,14.28378 0,0 0,31.74168 0,31.74168 0,0 0,14.28376 -15.87085,14.28376 z m 68.24462,-60.30922 c 0,0 0,60.30922 0,60.30922 0,0 -19.045,0 -19.045,0 0,0 0,-60.30922 0,-60.30922 z m 15.87086,0 c 0,0 26.18689,0 26.18689,0 0,0 11.90313,60.30922 11.90313,60.30922 0,0 -19.04502,0 -19.04502,0 0,0 -1.58708,-11.10959 -1.58708,-11.10959 0,0 -8.72895,0 -8.72895,0 0,0 -1.58711,11.10959 -1.58711,11.10959 0,0 -19.045,0 -19.045,0 z m 78.56068,36.50294 c 0,0 0,10.31606 0,10.31606 0,0 16.66439,0 16.66439,0 0,0 0,13.49022 0,13.49022 0,0 -35.70941,0 -35.70941,0 0,0 0,-60.30922 0,-60.30922 0,0 35.70941,0 35.70941,0 0,0 0,13.49022 0,13.49022 0,0 -16.66439,0 -16.66439,0 0,0 0,9.5225 0,9.5225 0,0 14.28375,0 14.28375,0 0,0 0,13.49022 0,13.49022 z m 39.6771,-36.50294 c 0,0 10.31606,30.15461 10.31606,30.15461 0,0 0,-30.15461 0,-30.15461 0,0 17.45791,0 17.45791,0 0,0 0,60.30922 0,60.30922 0,0 -17.45791,0 -17.45791,0 0,0 -11.90314,-32.53522 -11.90314,-32.53522 0,0 0,32.53522 0,32.53522 0,0 -17.45794,0 -17.45794,0 0,0 0,-60.30922 0,-60.30922 z m 52.3738,60.30922 c 0,0 -19.04502,0 -19.04502,0 0,0 0,-60.30922 0,-60.30922 0,0 19.04502,0 19.04502,0 0,0 0,23.01272 0,23.01272 0,0 7.93541,0 7.93541,0 0,0 0,-23.01272 0,-23.01272 0,0 19.04501,0 19.04501,0 0,0 0,60.30922 0,60.30922 0,0 -19.04501,0 -19.04501,0 0,0 0,-23.80628 0,-23.80628 0,0 -7.93541,0 -7.93541,0 z m 42.85127,-60.30922 c 0,0 26.18689,0 26.18689,0 0,0 11.90313,60.30922 11.90313,60.30922 0,0 -19.045,0 -19.045,0 0,0 -1.58708,-11.10959 -1.58708,-11.10959 0,0 -8.72897,0 -8.72897,0 0,0 -1.58708,11.10959 -1.58708,11.10959 0,0 -19.04503,0 -19.04503,0 z m 58.72213,27.774 c 0,0 0,32.53522 0,32.53522 0,0 -17.45794,0 -17.45794,0 0,0 0,-60.30922 0,-60.30922 0,0 19.04502,0 19.04502,0 0,0 10.31605,30.15461 10.31605,30.15461 0,0 0,-30.15461 0,-30.15461 0,0 17.45792,0 17.45792,0 0,0 0,60.30922 0,60.30922 0,0 -17.45792,0 -17.45792,0 z m 101.5734,8.72894 c 0,0 0,10.31606 0,10.31606 0,0 16.66438,0 16.66438,0 0,0 0,13.49022 0,13.49022 0,0 -35.70941,0 -35.70941,0 0,0 0,-60.30922 0,-60.30922 0,0 35.70941,0 35.70941,0 0,0 0,13.49022 0,13.49022 0,0 -16.66438,0 -16.66438,0 0,0 0,9.5225 0,9.5225 0,0 14.28375,0 14.28375,0 0,0 0,13.49022 0,13.49022 z m 43.64482,-36.50294 c 0,0 8.35601,30.94816 8.35601,30.94816 0,0 8.30838,-30.94816 8.30838,-30.94816 0,0 23.01272,0 23.01272,0 0,0 0,60.30922 0,60.30922 0,0 -17.45792,0 -17.45792,0 0,0 0,-36.50294 0,-36.50294 0,0 -10.31605,36.50294 -10.31605,36.50294 0,0 -7.14189,0 -7.14189,0 0,0 -10.31605,-35.70939 -10.31605,-35.70939 0,0 0,35.70939 0,35.70939 0,0 -17.45792,0 -17.45792,0 0,0 0,-60.30922 0,-60.30922 z m 80.9413,0 c 0,0 0,13.49022 0,13.49022 0,0 -16.66439,0 -16.66439,0 0,0 0,9.5225 0,9.5225 0,0 14.28377,0 14.28377,0 0,0 0,13.49022 0,13.49022 0,0 -14.28377,0 -14.28377,0 0,0 0,10.31606 0,10.31606 0,0 16.66439,0 16.66439,0 0,0 0,13.49022 0,13.49022 0,0 -35.70939,0 -35.70939,0 0,0 0,-60.30922 0,-60.30922 z m 23.01274,0 c 0,0 10.31603,30.15461 10.31603,30.15461 0,0 0,-30.15461 0,-30.15461 0,0 17.45794,0 17.45794,0 0,0 0,60.30922 0,60.30922 0,0 -17.45794,0 -17.45794,0 0,0 -11.90312,-32.53522 -11.90312,-32.53522 0,0 0,32.53522 0,32.53522 0,0 -17.45794,0 -17.45794,0 0,0 0,-60.30922 0,-60.30922 z m 71.41879,0 c 0,0 0,13.49022 0,13.49022 0,0 -10.31605,0 -10.31605,0 0,0 0,46.819 0,46.819 0,0 -19.04502,0 -19.04502,0 0,0 0,-46.819 0,-46.819 0,0 -10.31604,0 -10.31604,0 0,0 0,-13.49022 0,-13.49022 z M 229.06481,359.2227 c 0.0317,-7.95128 -1.58707,-9.5225 -7.93541,-9.5225 0,0 0,33.32878 0,33.32878 6.34834,0 7.93541,-1.58709 7.93541,-9.5225 z m 68.24465,12.69669 c 0,0 5.55478,0 5.55478,0 0,0 -2.8012,-23.01272 -2.8012,-23.01272 z m 213.46285,0 c 0,0 5.55478,0 5.55478,0 0,0 -2.76944,-23.01272 -2.76944,-23.01272 z"
       style="fill:#ffffff;stroke:#ffffff" />
    <path
       style="fill:#ff0000;stroke:#ff0000;stroke-width:1.28025;stroke-opacity:1"
       d="m 91.78202,310.0231 v -11.10959 h 394.39047 394.39048 v 11.10959 11.10958 H 486.17249 91.78202 Z"
       id="path827"
       inkscape:connector-curvature="0" />
  </g>
</svg>
