<?xml version="1.0" encoding="UTF-8" standalone="no"?>
<!-- Created with Inkscape (http://www.inkscape.org/) -->

<svg
   width="1015.7354mm"
   height="275.51593mm"
   viewBox="0 0 1015.7354 275.51593"
   version="1.1"
   id="svg1"
   inkscape:version="1.3.2 (091e20e, 2023-11-25, custom)"
   sodipodi:docname="solarus.svg"
   xmlns:inkscape="http://www.inkscape.org/namespaces/inkscape"
   xmlns:sodipodi="http://sodipodi.sourceforge.net/DTD/sodipodi-0.dtd"
   xmlns="http://www.w3.org/2000/svg"
   xmlns:svg="http://www.w3.org/2000/svg">
  <sodipodi:namedview
     id="namedview1"
     pagecolor="#ffffff"
     bordercolor="#000000"
     borderopacity="0.25"
     inkscape:showpageshadow="2"
     inkscape:pageopacity="0.0"
     inkscape:pagecheckerboard="0"
     inkscape:deskcolor="#d1d1d1"
     inkscape:document-units="mm"
     inkscape:zoom="0.40511539"
     inkscape:cx="2626.4122"
     inkscape:cy="1129.3079"
     inkscape:window-width="3840"
     inkscape:window-height="2054"
     inkscape:window-x="-11"
     inkscape:window-y="-11"
     inkscape:window-maximized="1"
     inkscape:current-layer="layer1" />
  <defs
     id="defs1" />
  <g
     inkscape:label="Layer 1"
     inkscape:groupmode="layer"
     id="layer1"
     transform="translate(402.96042,-10.847917)">
    <rect
       x="-402.96042"
       y="10.847917"
       width="1015.7354"
       height="275.51593"
       rx="137.75797"
       ry="137.75797"
       fill="#ffffff"
       id="rect1"
       style="stroke-width:1.83677" />
    <g
       id="c"
       transform="matrix(1.8367729,0,0,1.8367729,-402.96042,10.847917)">
      <path
         d="M 100,33.11 C 72.43,33.07 50.04,55.38 50,82.96 c -0.01,9.19 2.51,18.2 7.28,26.04 h 2.87 c 9.72,-9.73 31.91,-31.91 37.94,-37.94 3.47,3.47 8.23,-1.21 9.62,-2.73 -0.75,-0.74 -1.55,-1.55 -2.38,-2.39 -3.3,-3.29 -6.14,1.75 -6.14,1.75 l -7.22,-7.23 c 0,0 11.27,-5.14 17.41,0.99 2.2,2.2 3.64,3.64 4.6,4.6 l 8.4,-8.4 c -1.2,-3.23 0.45,-6.82 3.69,-8.02 3.23,-1.2 6.82,0.45 8.02,3.69 1.2,3.23 -0.45,6.82 -3.69,8.02 -1.37,0.51 -2.88,0.52 -4.26,0.02 l -8.42,8.41 c 0.95,0.96 2.39,2.4 4.56,4.57 6.14,6.13 0.98,17.41 0.98,17.41 l -7.23,-7.23 c 0,0 5.03,-2.83 1.74,-6.13 -0.83,-0.83 -1.63,-1.64 -2.38,-2.39 -1.52,1.39 -6.2,6.15 -2.73,9.62 -3.78,3.79 -13.93,13.94 -23.38,23.38 h 53.43 C 157.05,85.45 149.58,54.73 126.02,40.39 118.18,35.62 109.18,33.1 100,33.11 Z"
         fill="#ffab00"
         id="path1" />
    </g>
    <path
       d="m -2.488838,117.01339 c 2.88374667,4.33478 4.2980504,9.36754 4.0776525,14.56561 l -21.7106495,0.25715 c 0.257122,-8.37569 -5.216446,-11.55331 -14.216645,-11.55331 -9.661419,0 -14.730915,4.31642 -15.50236,9.27571 -0.642858,4.70214 1.26738,7.49403 9.771644,9.2757 l 14.345179,2.7919 c 23.7494761,4.44499 23.6209151,19.94735 22.2249734,29.22305 -2.2959747,15.24522 -20.0759484,26.79852 -42.4294554,26.79852 -18.551419,0 -36.69874,-8.63283 -35.559921,-28.19447 l 22.353508,-0.12857 c 0.514297,7.36546 6.483826,11.5533 15.502361,11.5533 9.018561,0 17.155477,-2.79189 18.165683,-9.9002 0.881671,-6.22666 -5.840915,-8.50426 -13.849244,-10.02878 l -14.473793,-2.7919 c -13.720683,-2.53474 -21.471864,-11.18594 -19.433037,-26.04544 2.534734,-17.90853 20.571856,-28.70876 41.033488,-28.70876 14.143169,0 24.4107221,5.65726 29.7190046,13.62886 z m 133.735448,61.31148 11.05736,-73.80154 H 120.8321 l -13.84927,91.83865 59.32776,0.0735 9.05531,-18.11058 z m -27.16589,-33.08028 c 0,31.68433 -22.518816,52.43986 -52.972516,52.43986 -26.688309,0 -46.3601587,-17.52281 -46.3601587,-42.72333 0,-29.79246 22.9229437,-51.63169 54.0562267,-51.63169 26.816896,0 45.294838,17.2473 45.294838,41.91516 z m -22.922914,1.32248 c 0,-15.31869 -10.047155,-26.43117 -23.988262,-26.43117 -16.163581,0 -29.498555,15.31869 -29.498555,33.8701 0,15.85134 9.78998,26.83525 23.878037,26.83525 2.516373,0 4.940935,-0.34899 7.255246,-1.01023 1.946989,-0.55103 3.802142,-1.32248 5.565431,-2.29596 2.002075,-1.10207 3.893952,-2.46128 5.602155,-4.02254 6.851173,-6.24502 11.185948,-15.94318 11.185948,-26.96382 z m 160.240074,-42.04374 18.29425,91.83865 h -21.21472 l -3.69191,-19.56163 h -30.36187 l -9.66142,19.56163 h -21.47188 l 40.18859,-80.24861 5.80422,-11.57167 h 22.09636 z m -8.76141,53.59704 -5.32664,-32.89661 -15.3738,32.89661 z m 257.49718,-16.51259 -14.34518,-2.7919 c -8.50426,-1.78167 -10.4145,-4.57356 -9.77164,-9.2757 0.75308,-4.95929 5.84094,-9.2757 15.50236,-9.2757 9.01856,0 14.47377,3.17761 14.21662,11.5533 l 21.71067,-0.25715 c 0.64286,-14.73092 -11.93903,-28.19446 -33.77827,-28.19446 -20.44326,0 -38.48039,10.80022 -41.03351,28.70876 -2.0388,14.85949 5.71238,23.49232 19.43306,26.04544 l 14.47377,2.79189 c 8.00833,1.52452 14.73091,3.80212 13.84927,10.02878 -1.01021,7.10831 -9.27571,9.90021 -18.16568,9.90021 -8.88998,0 -14.98807,-4.18784 -15.50236,-11.5533 l -22.35354,0.12857 c -1.13879,19.56163 17.02689,28.19446 35.55995,28.19446 22.35351,0 40.13348,-11.5533 42.42943,-26.79851 1.39597,-9.27571 1.52453,-24.7597 -22.22495,-29.22306 z m -76.00566,-37.08445 -8.37568,56.26036 c -2.03882,13.2064 -9.9002,18.67998 -18.67998,18.67998 -8.77977,0 -15.11665,-5.45522 -13.07782,-18.67998 l 8.37567,-56.26036 h -21.71065 l -8.26547,54.99298 c -3.43477,23.12498 4.05926,38.11304 31.88639,38.11304 27.8271,0 39.87633,-14.98806 43.3111,-37.72731 l 8.24709,-55.37871 z m -67.92386,28.58019 c -2.16739,14.21662 -9.77162,21.47187 -18.91877,26.28422 l 10.67166,36.95587 h -21.9678 l -8.76142,-33.53947 h -15.37377 l -5.08786,33.53947 h -21.47189 l 13.72071,-91.83864 h 39.63755 c 22.61068,0 30.10471,12.06759 27.56995,28.58018 z m -32.25374,-12.32475 h -15.86971 l -3.80211,25.65972 h 15.24521 c 7.75118,0 13.97783,-5.84094 14.98806,-13.07782 1.1388,-7.36546 -3.80211,-12.5819 -10.54306,-12.5819 z"
       fill="#4a2c94"
       id="path2"
       style="stroke-width:1.83677" />
  </g>
</svg>
