<?xml version="1.0" encoding="UTF-8" standalone="no"?>
<!-- Created with Inkscape (http://www.inkscape.org/) -->

<svg
   width="1015.7366mm"
   height="298.00021mm"
   viewBox="0 0 1015.7366 298.00021"
   version="1.1"
   id="svg1"
   inkscape:version="1.3.2 (091e20e, 2023-11-25, custom)"
   sodipodi:docname="sufami.svg"
   xmlns:inkscape="http://www.inkscape.org/namespaces/inkscape"
   xmlns:sodipodi="http://sodipodi.sourceforge.net/DTD/sodipodi-0.dtd"
   xmlns="http://www.w3.org/2000/svg"
   xmlns:svg="http://www.w3.org/2000/svg">
  <sodipodi:namedview
     id="namedview1"
     pagecolor="#ffffff"
     bordercolor="#000000"
     borderopacity="0.25"
     inkscape:showpageshadow="2"
     inkscape:pageopacity="0.0"
     inkscape:pagecheckerboard="0"
     inkscape:deskcolor="#d1d1d1"
     inkscape:document-units="mm"
     inkscape:zoom="0.40511539"
     inkscape:cx="1308.2692"
     inkscape:cy="-144.4033"
     inkscape:window-width="3840"
     inkscape:window-height="2054"
     inkscape:window-x="-11"
     inkscape:window-y="-11"
     inkscape:window-maximized="1"
     inkscape:current-layer="layer1" />
  <defs
     id="defs1" />
  <g
     inkscape:label="Layer 1"
     inkscape:groupmode="layer"
     id="layer1"
     transform="translate(402.96042,0.52916667)">
    <g
       id="g25"
       transform="matrix(0.26458333,0,0,0.26458333,-402.96042,-0.52916667)">
	<g
   id="g18">
		<g
   id="g9">
			<polygon
   class="st0"
   points="1938.1,110.6 2224.9,133.9 2224.9,85.1 1938.1,61.9 "
   id="polygon1"
   style="fill:#30348d" />

			<g
   id="g8">
				<path
   class="st0"
   d="m 1637.9,160.2 h 202.3 v 32.1 h -102.4 v 48.3 h -88.7 v 56.8 h 85.3 c 22.5,0 40.7,-21.6 40.7,-48.3 v -8.4 h 72.1 c 22.5,0 40.7,-21.6 40.7,-48.3 v 0 -32.1 -31.3 -17 h -250 z"
   id="path1"
   style="fill:#30348d" />

				<rect
   x="1037.1"
   y="144.8"
   class="st0"
   width="214.8"
   height="56.799999"
   id="rect1"
   style="fill:#30348d" />

				<rect
   x="2682.1001"
   y="147.89999"
   class="st0"
   width="216.5"
   height="56.799999"
   id="rect2"
   style="fill:#30348d" />

				<polygon
   class="st0"
   points="3153.9,136.2 3291.2,136.2 3291.2,87.9 3153.9,87.9 3153.9,55.2 3082.2,55.2 3082.2,87.9 2959.2,87.9 2959.2,136.2 3082.2,136.2 3082.2,297.3 3153.9,297.3 "
   id="polygon2"
   style="fill:#30348d" />

				<rect
   x="3174.8999"
   y="35.200001"
   class="st0"
   width="56.299999"
   height="37.799999"
   id="rect3"
   style="fill:#30348d" />

				<rect
   x="3249.3999"
   y="35.200001"
   class="st0"
   width="56.299999"
   height="37.799999"
   id="rect4"
   style="fill:#30348d" />

				<path
   class="st0"
   d="m 3246.3,168.6 h -52.2 v 18.6 c 0,80.1 41.4,110.1 75.6,110.1 h 21.5 V 253 249 c -20.9,0 -44.9,-30.2 -44.9,-80.4 z"
   id="path4"
   style="fill:#30348d" />

				<path
   class="st0"
   d="m 2951.3,249 v 3.9 44.4 h 21.5 c 34.1,0 75.6,-30 75.6,-110.1 v -18.6 h -52.2 c 0,50.2 -24.1,80.4 -44.9,80.4 z"
   id="path5"
   style="fill:#30348d" />

				<path
   class="st0"
   d="m 2362.1,55.2 h -2.7 v 16 c 0,28.7 -10.5,49.4 -24.9,56.1 l -10.3,2.3 -0.5,16.5 -1.2,40.3 h 17.6 c 34.6,0 62.6,-33.3 62.6,-74.4 h 179.6 v 39.4 h -165.8 l -15.6,56.8 h 162.7 v 3.2 c 0,16.1 -11,29.2 -24.6,29.2 H 2516.3 2355 v 56.8 h 184.2 c 62.5,0 90.3,-67.3 90.3,-102.7 V 183.5 112 93.2 55.2 h -255.1 z"
   id="path6"
   style="fill:#30348d" />

				<polygon
   class="st0"
   points="1938.1,272.5 2224.9,295.7 2224.9,247 1938.1,223.7 "
   id="polygon6"
   style="fill:#30348d" />

				<polygon
   class="st0"
   points="1938.1,191.5 2224.9,214.8 2224.9,166 1938.1,142.8 "
   id="polygon7"
   style="fill:#30348d" />

				<path
   class="st0"
   d="m 1315.9,112 h 243.6 v 51.6 c 0,36.9 -35.3,77 -83.3,77 h -137.4 v 56.8 h 168.7 c 43.8,0 82.5,-40.7 84.3,-113 h 0.2 V 126.5 55.2 H 1316 V 112 Z"
   id="path7"
   style="fill:#30348d" />

				<path
   class="st0"
   d="m 757.3,112 h 200.5 v 51.6 c 0,36.9 -35.3,77 -83.3,77 H 737.1 v 56.8 h 168.7 c 43.8,0 82.5,-40.7 84.3,-113 h 0.2 V 126.5 55.2 h -233 z"
   id="path8"
   style="fill:#30348d" />

				<polyline
   class="st0"
   points="957.4,244.6 1008.9,305.8 1076,305.2 985.2,197.4     "
   id="polyline8"
   style="fill:#30348d" />

			</g>

		</g>

		<g
   id="g17">
			<polygon
   class="st1"
   points="1902.9,75.5 2189.7,98.7 2189.7,49.9 1902.9,26.7 "
   id="polygon9"
   style="fill:#f16140" />

			<g
   id="g16">
				<path
   class="st1"
   d="M 1602.8,125 H 1805 v 32.1 h -102.4 v 48.3 H 1614 v 56.8 h 85.3 c 22.5,0 40.7,-21.6 40.7,-48.3 v -8.4 h 72.1 c 22.5,0 40.7,-21.6 40.7,-48.3 v 0 -32.2 -31.2 -17 h -250 z"
   id="path9"
   style="fill:#f16140" />

				<rect
   x="1002"
   y="109.6"
   class="st1"
   width="214.8"
   height="56.799999"
   id="rect9"
   style="fill:#f16140" />

				<rect
   x="2646.8999"
   y="112.8"
   class="st1"
   width="216.5"
   height="56.799999"
   id="rect10"
   style="fill:#f16140" />

				<polygon
   class="st1"
   points="3118.7,101 3256,101 3256,52.7 3118.7,52.7 3118.7,20 3047,20 3047,52.7 2924,52.7 2924,101 3047,101 3047,262.2 3118.7,262.2 "
   id="polygon10"
   style="fill:#f16140" />

				<rect
   x="3139.8"
   class="st1"
   width="56.299999"
   height="37.799999"
   id="rect11"
   style="fill:#f16140"
   y="0" />

				<rect
   x="3214.3"
   y="0"
   class="st1"
   width="56.299999"
   height="37.799999"
   id="rect12"
   style="fill:#f16140" />

				<path
   class="st1"
   d="m 3211.1,133.5 h -52.2 v 18.6 c 0,80.1 41.4,110.1 75.6,110.1 h 21.5 v -44.4 -3.9 c -20.8,-0.1 -44.9,-30.3 -44.9,-80.4 z"
   id="path12"
   style="fill:#f16140" />

				<path
   class="st1"
   d="m 2916.1,213.8 v 3.9 44.4 h 21.5 c 34.1,0 75.6,-30 75.6,-110.1 V 133.4 H 2961 c 0,50.2 -24,80.4 -44.9,80.4 z"
   id="path13"
   style="fill:#f16140" />

				<path
   class="st1"
   d="m 2326.9,20 h -2.7 v 16 c 0,28.7 -10.5,49.4 -24.9,56.1 l -10.3,2.3 -0.5,16.5 -1.2,40.3 h 17.6 c 34.6,0 62.6,-33.3 62.6,-74.4 h 179.6 v 39.4 h -165.8 l -15.6,56.8 h 162.7 v 3.2 c 0,16.1 -11,29.2 -24.6,29.2 h -22.7 -161.3 v 56.8 H 2504 c 62.5,0 90.3,-67.3 90.3,-102.7 V 148.3 76.8 58 20 h -255.1 z"
   id="path14"
   style="fill:#f16140" />

				<polygon
   class="st1"
   points="1902.9,237.3 2189.7,260.6 2189.7,211.8 1902.9,188.5 "
   id="polygon14"
   style="fill:#f16140" />

				<polygon
   class="st1"
   points="1902.9,156.4 2189.7,179.6 2189.7,130.9 1902.9,107.6 "
   id="polygon15"
   style="fill:#f16140" />

				<path
   class="st1"
   d="m 1280.8,76.8 h 243.6 v 51.6 c 0,36.9 -35.3,77 -83.3,77 h -137.4 v 56.8 h 168.7 c 43.8,0 82.5,-40.7 84.3,-113 h 0.2 V 91.3 20 h -276 v 56.8 z"
   id="path15"
   style="fill:#f16140" />

				<path
   class="st1"
   d="m 722.1,76.8 h 200.5 v 51.6 c 0,36.9 -35.3,77 -83.3,77 H 701.9 v 56.8 h 168.7 c 43.8,0 82.5,-40.7 84.3,-113 h 0.2 V 91.3 20 h -233 z"
   id="path16"
   style="fill:#f16140" />

				<polyline
   class="st1"
   points="922.2,209.5 973.7,270.7 1040.8,270.1 950.1,162.2     "
   id="polyline16"
   style="fill:#f16140" />

			</g>

		</g>

	</g>

	<polygon
   class="st0"
   points="1786.9,1125.8 1883.8,1125.8 2014.4,385.1 1917.5,385.1 "
   id="polygon18"
   style="fill:#30348d" />

	<polygon
   class="st0"
   points="1456.1,681 1495,1125.8 1531.4,1125.8 1727.2,681 1648.8,1125.8 1745.7,1125.8 1876.3,385.1 1779.4,385.1 1779.4,385.2 1574.8,776.3 1508.2,385.2 1508.2,385.1 1411.4,385.1 1280.8,1125.8 1377.6,1125.8 "
   id="polygon19"
   style="fill:#30348d" />

	<path
   class="st0"
   d="m 708.6,891.9 0.5,-2.7 c 0,0 0,0 0,0 v 0 L 798,385.1 H 701.1 L 619.3,849 c -11,62.5 -50.4,113.1 -88.1,113.1 C 493.6,962.1 472,911.5 483,849 v 0 L 564.8,385.2 H 468 L 378.6,892 v 0 c -21.3,123.6 -5.2,233.9 123.7,233.9 129,-0.1 184,-110.4 206.3,-234 z"
   id="path19"
   style="fill:#30348d" />

	<polygon
   class="st0"
   points="838.8,385.1 708.2,1125.8 805.1,1125.8 857.3,829.5 954,829.5 981.8,672.3 885.1,672.3 908,542.4 1004.7,542.4 1032.4,385.1 935.7,385.1 887.3,385.1 "
   id="polygon20"
   style="fill:#30348d" />

	<path
   class="st0"
   d="m 1159.6,382.7 -275.5,743.1 h 98.7 l 44.3,-119.6 h 136.6 l 2.1,119.6 h 98.7 l -13.4,-743.1 z m -74.1,466.2 71.9,-194 3.5,194 z"
   id="path20"
   style="fill:#30348d" />

	<polygon
   class="st0"
   points="2475.6,542.4 2503.3,385.1 2247.7,385.1 2219.9,542.4 2291.1,542.4 2188.2,1125.8 2285.1,1125.8 2388,542.4 "
   id="polygon21"
   style="fill:#30348d" />

	<path
   class="st0"
   d="m 2778.6,891.9 0.5,-2.7 c 0,0 0,0 0,0 v 0 L 2868,385.1 h -96.9 L 2689.3,849 c -11,62.4 -50.4,113.1 -88,113.1 -37.6,0 -59.2,-50.6 -48.2,-113.1 v 0 l 81.8,-463.8 H 2538 L 2448.6,892 v 0 c -21.3,123.6 -5.2,233.9 123.7,233.9 129,-0.1 184,-110.4 206.3,-234 z"
   id="path21"
   style="fill:#30348d" />

	<path
   class="st0"
   d="M 270.9,663.6 C 212.8,619.2 211.5,542.3 329.5,542.3 H 414 L 440.9,385 c 0,0 -80.6,0 -117,0 C 197.6,385 154,507.4 133.6,589.6 116,660.1 115.1,730.1 155,772.1 c 0,0 47.7,39.2 47.7,39.2 58.1,44.4 59.4,157 -58.6,157 H 75.7 L 0,1125.7 c 0,0 94.8,-1 131.2,0 115.3,3.2 171.1,-106.2 199.7,-209 16.8,-60.5 34.4,-167 -12.4,-213.8 z"
   id="path22"
   style="fill:#30348d" />

	<path
   class="st0"
   d="m 3126.9,611.9 c 13.7,-85 4.7,-138.3 -11.1,-171.6 -16.1,-34.2 -51.6,-55.1 -89.4,-55.1 h -29.9 -86 -10.9 L 2769,1125.8 h 96.9 l 44.6,-252.9 37.2,252.9 h 97.9 L 3001.7,827 c 71.7,-36.4 101.5,-68 125.2,-215.1 z m -98.3,26.6 c -13.1,68 -46.4,87.1 -78.2,87.1 h -13.9 l 32.3,-183.2 c 40,0 74.5,19.7 59.8,96.1 z"
   id="path23"
   style="fill:#30348d" />

	<path
   class="st0"
   d="m 3363.8,732.1 c 26.6,-42.7 51.6,-101.3 65.8,-180.8 23.3,-130.2 -48.1,-166.2 -99.6,-166.2 h -30.3 -12.5 -84.4 l -130.6,740.7 c 38.3,0.7 99.7,0.4 140.2,0.1 38.8,-0.3 76.5,-15 103.4,-43 29.8,-31.1 46,-78.1 62.8,-172.4 14.8,-83.3 4.8,-137.2 -10.6,-170.6 -1.3,-2.7 -2.7,-5.3 -4.2,-7.8 z m -66.1,173.2 c -3.9,21.9 -11,37.4 -17.3,47.6 -6,9.7 -16.5,15.7 -27.9,15.7 h -55.6 l 23.7,-134.4 c 0,0 22.8,0 46.4,0 23.6,0 38.9,25.4 30.7,71.1 z m 31.5,-291.7 c -4.6,25.4 -15,42.2 -23.3,52 -6.1,7.2 -15.2,11.2 -24.6,11.2 h -32.9 l 23.7,-134.4 c 0,0 7.8,0 31.4,0 23.6,0 33.9,25.5 25.7,71.2 z"
   id="path24"
   style="fill:#30348d" />

	<path
   class="st0"
   d="m 3695.4,385.1 c -109.6,0 -227.7,165.9 -263.8,370.6 -36.1,204.7 23.5,370.6 133.1,370.6 109.6,0 227.7,-165.9 263.8,-370.6 36,-204.7 -23.5,-370.6 -133.1,-370.6 z m 36.2,370.4 c -20.7,117.7 -83,213.1 -139.1,213.1 -56.1,0 -84.7,-95.4 -64,-213.1 20.7,-117.7 83,-213.1 139.1,-213.1 56.1,0 84.8,95.4 64,213.1 z"
   id="path25"
   style="fill:#30348d" />

</g>
  </g>
</svg>
