<?xml version="1.0" encoding="UTF-8" standalone="no"?>
<!-- Created with Inkscape (http://www.inkscape.org/) -->

<svg
   width="1015.7089mm"
   height="228.15021mm"
   viewBox="0 0 1015.7089 228.15021"
   version="1.1"
   id="svg1"
   inkscape:version="1.3.2 (091e20e, 2023-11-25, custom)"
   sodipodi:docname="watara.svg"
   xmlns:inkscape="http://www.inkscape.org/namespaces/inkscape"
   xmlns:sodipodi="http://sodipodi.sourceforge.net/DTD/sodipodi-0.dtd"
   xmlns="http://www.w3.org/2000/svg"
   xmlns:svg="http://www.w3.org/2000/svg">
  <sodipodi:namedview
     id="namedview1"
     pagecolor="#ffffff"
     bordercolor="#000000"
     borderopacity="0.25"
     inkscape:showpageshadow="2"
     inkscape:pageopacity="0.0"
     inkscape:pagecheckerboard="0"
     inkscape:deskcolor="#d1d1d1"
     inkscape:document-units="mm"
     inkscape:zoom="0.57291968"
     inkscape:cx="1125.8123"
     inkscape:cy="782.83225"
     inkscape:window-width="3840"
     inkscape:window-height="2054"
     inkscape:window-x="-11"
     inkscape:window-y="-11"
     inkscape:window-maximized="1"
     inkscape:current-layer="layer1" />
  <defs
     id="defs1" />
  <g
     inkscape:label="Layer 1"
     inkscape:groupmode="layer"
     id="layer1"
     transform="translate(402.96042,-34.395833)">
    <g
       id="g21"
       transform="matrix(0.26458333,0,0,0.26458333,-402.96042,34.395833)">
	<g
   id="g11">
		<path
   d="M 239.1,457.3 C 221.8,432 199.5,416 169.1,416 c -29.1,0 -57,24 -57,56.6 0,84.6 185.2,49.3 185.2,217.8 0,100.6 -58.2,171.8 -153.6,171.8 -64.4,0 -111.5,-40 -143.7,-97.9 l 58.8,-61.9 c 12.4,38.6 45.2,73.3 84.2,73.3 37.2,0 60.1,-34 60.1,-72.6 0,-51.9 -44.6,-66.6 -81.1,-81.9 C 61.9,594.5 18,561.9 18,484 18,400.8 75.6,333.5 154.3,333.5 c 41.5,0 99.1,22 127.6,55.9 z"
   id="path1" />

		<path
   d="m 361.1,346.8 h 91 v 281 c 0,61.9 5,149.2 82.4,149.2 77.4,0 82.4,-87.2 82.4,-149.2 v -281 h 91 v 300.4 c 0,122.5 -48.3,215.1 -173.4,215.1 -125.1,0 -173.4,-92.6 -173.4,-215.1 z"
   id="path2" />

		<path
   d="M 882,848.9 H 791 V 346.8 h 123.9 c 97.9,0 161.6,42 161.6,155.8 0,106.6 -53.9,158.5 -149.3,158.5 H 882 Z m 0,-269 h 18.6 c 53.9,0 83,-12.7 83,-77.9 0,-64.6 -34.7,-73.9 -85.5,-73.9 H 882 Z"
   id="path3" />

		<path
   d="m 1227.6,432 v 110.6 h 144.9 v 85.2 h -144.9 v 135.9 h 150.5 v 85.2 H 1136.6 V 346.8 h 241.5 V 432 Z"
   id="path4" />

		<path
   d="M 1773.3,848.9 H 1663.1 L 1549.8,646.4 h -1.2 v 202.5 h -91 V 346.8 h 123.2 c 92.3,0 156.1,44 156.1,151.2 0,63.9 -32.8,127.9 -95.4,139.2 z m -224.8,-271 h 11.8 c 50.2,0 85.5,-16 85.5,-77.3 0,-61.9 -36.5,-73.9 -84.8,-73.9 h -12.4 v 151.2 z"
   id="path5" />

		<path
   d="m 1989.5,685.1 h 1.2 l 104,-338.3 h 97.9 l -181.5,515.5 h -53.3 L 1779.4,346.8 h 97.9 z"
   id="path6" />

		<path
   d="m 2327.1,848.9 h -91 V 346.8 h 91 z"
   id="path7" />

		<path
   d="m 2631.8,457.3 c -17.3,-25.3 -39.6,-41.3 -70,-41.3 -29.1,0 -57,24 -57,56.6 0,84.6 185.2,49.3 185.2,217.8 0,100.6 -58.2,171.8 -153.6,171.8 -64.4,0 -111.5,-40 -143.7,-97.9 l 58.8,-61.9 c 12.4,38.6 45.2,73.3 84.2,73.3 37.2,0 60.1,-34 60.1,-72.6 0,-51.9 -44.6,-66.6 -81.1,-81.9 -60.1,-26.6 -104,-59.3 -104,-137.2 0,-83.2 57.6,-150.5 136.3,-150.5 41.5,0 99.1,22 127.6,55.9 z"
   id="path8" />

		<path
   d="m 2847.4,848.9 h -91 V 346.8 h 91 z"
   id="path9" />

		<path
   d="m 3435.2,333.5 h 65.6 l 245.9,351 h 1.2 V 346.8 h 91 v 512.1 h -65.6 l -245.9,-351 h -1.2 v 341 h -91 z"
   id="path10" />

		<path
   d="m 3008.6,640.3 c -3,-15.8 -4.5,-31.8 -4.5,-47.1 0,-81.2 50.8,-163.2 136.9,-163.2 86.1,0 136.9,81.9 136.9,163.2 0,15.3 -1.5,31.3 -4.5,47.1 l 60.5,110 c 24.7,-43.1 38.2,-95.8 38.2,-153.2 0,-149.2 -91.7,-263.7 -231,-263.7 -139.4,0 -231,114.5 -231,263.7 0,57.4 13.5,110.1 38.2,153.2 z"
   id="path11" />

		<polygon
   class="st0"
   points="3332.8,848.9 3140.9,499.9 2949.1,848.9 "
   id="polygon11"
   style="fill:#00a336" />

	</g>

	<g
   id="g20">
		<g
   id="g12">
			<polygon
   points="1709.9,114.1 1757.8,0 1672.5,0 "
   id="polygon12" />

		</g>

		<polyline
   points="1655.1,199 1732,16.3 1743.6,34 1737.4,48.6 1666.6,216.9   "
   id="polyline12" />

		<polyline
   points="1502.7,250.7 1601.3,16.3 1612.9,34 1521.7,250.7   "
   id="polyline13" />

		<g
   id="g13">
			<polygon
   points="1554.5,127.7 1512.6,0 1408.6,0 1490.8,250.7 1502.7,250.7 "
   id="polygon13" />

		</g>

		<polygon
   points="1540.5,0 1622.7,250.7 1652.4,250.7 1694.2,151.4 1644.6,0 "
   id="polygon14" />

		<polygon
   points="2430.4,27.8 1789.7,27.8 1800.9,0 2430.4,0 "
   id="polygon15" />

		<polygon
   points="2430.4,250.7 1699.6,250.7 1710.8,223 2430.4,223 "
   id="polygon16" />

		<g
   id="g16">
			<path
   d="m 1789,55.5 h -7.4 c 0,0 -4.6,10.8 -4.6,10.8 l -53.5,128.8 h 51.2 v -7.4 l -12,-6.8 c -3.1,-1.7 -5,-5 -5,-8.6 v -3.5 h 29.6 l 13.7,26.3 h 64.5 z m -28.4,95.8 7.9,-18.8 9.8,18.8 z"
   id="path16" />

		</g>

		<g
   id="g17">
			<path
   d="m 2038.9,55.5 h -7.4 c 0,0 -4.6,10.8 -4.6,10.8 l -53.5,128.8 h 51.2 v -7.4 l -12,-6.8 c -3.1,-1.7 -5,-5 -5,-8.6 v -3.5 h 29.6 l 13.7,26.3 h 64.5 z m -28.4,95.8 7.9,-18.8 9.8,18.8 z"
   id="path17" />

		</g>

		<g
   id="g18">
			<path
   d="m 2353.8,55.5 h -7.4 c 0,0 -4.6,10.8 -4.6,10.8 l -53.5,128.8 h 51.2 v -7.4 l -12,-6.8 c -3.1,-1.7 -5,-5 -5,-8.6 v -3.5 h 29.6 l 13.7,26.3 h 64.5 z m -28.4,95.8 7.9,-18.8 9.8,18.8 z"
   id="path18" />

		</g>

		<path
   d="m 1863.5,55.5 h -17.6 v 17.6 30.5 h 17.6 c 0,-13.2 7.9,-21.8 13.8,-26.4 3.4,-2.7 7.6,-4.1 12,-4.1 v 0 122.1 h 57.3 v -122.1 0 c 4.3,0 8.6,1.4 12,4.1 5.9,4.6 13.8,13.2 13.8,26.4 H 1990 V 73.1 55.8 55.5 Z"
   id="path19" />

		<path
   d="m 2238.5,114.1 h -3.3 c 16.2,0 29.3,-4.9 29.3,-29.3 v 0 c 0,-24.4 -13.1,-29.3 -29.3,-29.3 h -28 v 0 h -74.9 v 16.9 0.7 122.1 h 57.3 v -72.4 h 17.6 v 72.4 h 64.4 v -38 c 0,-18.3 -14.8,-43.1 -33.1,-43.1 z m -48.9,-41 h 17.6 v 32.2 h -17.6 z"
   id="path20" />

	</g>

</g>
  </g>
</svg>
