<?xml version="1.0" encoding="UTF-8" standalone="no"?>
<!-- Created with Inkscape (http://www.inkscape.org/) -->

<svg
   width="1015.7597mm"
   height="390.86896mm"
   viewBox="0 0 1015.7597 390.86896"
   version="1.1"
   id="svg1"
   inkscape:version="1.3.2 (091e20e, 2023-11-25, custom)"
   sodipodi:docname="supergrafx.svg"
   xmlns:inkscape="http://www.inkscape.org/namespaces/inkscape"
   xmlns:sodipodi="http://sodipodi.sourceforge.net/DTD/sodipodi-0.dtd"
   xmlns="http://www.w3.org/2000/svg"
   xmlns:svg="http://www.w3.org/2000/svg">
  <sodipodi:namedview
     id="namedview1"
     pagecolor="#ffffff"
     bordercolor="#000000"
     borderopacity="0.25"
     inkscape:showpageshadow="2"
     inkscape:pageopacity="0.0"
     inkscape:pagecheckerboard="0"
     inkscape:deskcolor="#d1d1d1"
     inkscape:document-units="mm"
     inkscape:zoom="0.2025577"
     inkscape:cx="-2122.852"
     inkscape:cy="718.31386"
     inkscape:window-width="3840"
     inkscape:window-height="2054"
     inkscape:window-x="-11"
     inkscape:window-y="-11"
     inkscape:window-maximized="1"
     inkscape:current-layer="layer1" />
  <defs
     id="defs1" />
  <g
     inkscape:label="Layer 1"
     inkscape:groupmode="layer"
     id="layer1"
     transform="translate(225.95417,44.185417)">
    <g
       id="g26"
       transform="matrix(0.26458333,0,0,0.26458333,-225.92985,-44.185417)">
	<g
   id="g11">
		<g
   id="g10">
			<polygon
   class="st1"
   points="525.1,1054.2 439.4,864.3 494.6,803.7 415.6,825.7 284.7,663.7 370.4,853.5 315.2,914.1 394.1,892.2 "
   id="polygon1"
   style="fill:#65b7ff" />

			<g
   id="g2">
				<polygon
   class="st1"
   points="525.1,1054.2 439.4,864.3 494.6,803.7 415.6,825.7 284.7,663.7 370.4,853.5 315.2,914.1 394.1,892.2 "
   id="polygon2"
   style="fill:#65b7ff" />

			</g>

			<g
   id="g3">
				<path
   class="st1"
   d="m 448.9,866.2 0.8,1.7 c 3.2,0.8 6.4,1.4 9.7,2 l 20.3,3.1 -6.6,-33.3 z"
   id="path2"
   style="fill:#65b7ff" />

				<path
   class="st1"
   d="m 353.9,711.8 6.6,33.1 57.7,71.4 47.5,-13.2 -1.9,-9.6 -17.8,-2.7 c -4.7,-0.7 -8.5,-4.3 -9.4,-9 l -8.4,-42.2 c -0.8,-4.2 2.7,-7.9 6.9,-7.2 l 116.1,17.9 c 4.7,0.7 8.5,4.3 9.4,9 l 8.4,42.2 c 0.8,4.2 -2.7,7.9 -6.9,7.2 l -17,-2.6 15.8,79.6 24.7,3.8 c 35,5.4 64.6,-25.6 57.7,-60.3 l -14,-70.5 c -9,-45.5 -45.6,-80.5 -91.5,-87.6 L 411.6,651.7 c -35,-5.6 -64.6,25.4 -57.7,60.1 z"
   id="path3"
   style="fill:#65b7ff" />

			</g>

			<path
   class="st1"
   d="m 214.3,157.5 c 24.5,-30.7 50.2,-46.4 76.3,-46.8 73.3,-1 145.9,122.3 186.2,315.2 l 13.2,2 C 449.5,230.3 374.5,97 290.4,98.2 240.5,98.9 195.1,146.7 159.1,227 l 12.8,2 c 13.1,-28.6 27.2,-52.6 42.4,-71.5 z"
   id="path4"
   style="fill:#65b7ff" />

			<path
   class="st1"
   d="m 521.6,760.4 -12.5,-1.9 c 0.1,74.1 -4.2,145.9 -12.6,213.2 l 9.7,21.6 c 10,-71.9 15.5,-150.4 15.4,-232.9 z"
   id="path5"
   style="fill:#65b7ff" />

			<path
   class="st1"
   d="m 499.7,1035.3 -10.5,-13 c -9.6,59.5 -22.6,114.5 -38.8,163.1 -19.2,57.7 -41.6,102.9 -66.8,134.3 -24.5,30.7 -50.2,46.4 -76.3,46.8 -74.8,1 -148.8,-127.4 -188.6,-327 -14.9,-74.8 -24.5,-157.8 -28.2,-242.7 -4.4,-2.2 -8.7,-4.5 -12.8,-7 3.6,90.7 13.6,176.1 28.7,252.2 40.1,201.6 115.9,338.2 201.1,337.1 85.4,-1.2 157.6,-140.4 192.2,-343.8 z"
   id="path6"
   style="fill:#65b7ff" />

			<g
   id="g9">
				<path
   class="st1"
   d="m 365.5,1171.8 -13,-65.4 c -0.8,-3.9 -3.9,-6.8 -7.8,-7.4 l -13.2,-2 15.6,78.5 c 0.8,3.9 3.9,6.8 7.8,7.4 v 0 c 6.4,1 11.9,-4.7 10.6,-11.1 z"
   id="path7"
   style="fill:#65b7ff" />

				<path
   class="st1"
   d="m 261,672 -65.3,-10 c -5.1,-0.8 -9.5,3.8 -8.5,8.9 l 14.8,74.5 81,12.5 -15.8,-79.9 c -0.6,-3.1 -3.1,-5.5 -6.2,-6 z m -19.7,26.8 4.7,23.5 -19,-2.9 -4.7,-23.5 z"
   id="path8"
   style="fill:#65b7ff" />

				<path
   class="st1"
   d="m 410.8,1239.9 c 17.7,-11.7 26.1,-32.7 22.1,-52.8 l -16.3,-82.3 c -4.3,-21.7 -16.9,-40.4 -34.3,-52.8 0.4,-0.4 0.8,-0.8 1.2,-1.2 11.5,-12.1 16.5,-29.1 13.2,-45.5 l -19.8,-99.7 -28.5,7.9 19.4,97.6 c 3,14.8 -9.7,28.1 -24.7,25.8 l -120.9,-18.6 -6.6,-33 105.8,16.3 c 5.1,0.8 9.5,-3.8 8.5,-8.9 l -14.8,-74.5 -116.4,-17.9 -6.6,-33 135.4,20.9 33.3,-36.6 -44.3,-98.2 2,9.9 6.6,33 v 0 L 146.7,768.8 C 94.2,760.7 52.5,720.7 42.1,668.7 l -7.3,-36.7 35.4,5.4 5.1,25.7 c 7.7,38.8 38.9,68.7 78,74.7 l 13.4,2.1 -17.4,-87.4 c -3,-14.8 9.7,-28.1 24.7,-25.8 l 82.5,12.7 c 14.7,2.3 27.5,10.2 36,21.6 h 0.1 l 47.2,58.4 -8.3,-41.7 c -4.3,-21.7 -16.9,-40.4 -34.3,-52.8 0.4,-0.4 0.8,-0.8 1.2,-1.2 11.5,-12.1 16.5,-29.1 13.2,-45.5 l -17.6,-88.4 16,2.5 66.4,10.2 12.4,62.3 c 9,45.5 45.6,80.5 91.5,87.6 l 59.9,9.2 c 35,5.4 64.6,-25.6 57.7,-60.3 L 568.8,455 391.6,427.7 362.1,279.3 c -0.8,-3.9 -3.9,-6.8 -7.8,-7.4 L 46.9,224.6 c -6.4,-1 -11.9,4.7 -10.6,11.1 l 39.6,199.2 v 0 l 12.8,64.4 116.4,17.9 4.7,23.5 -116.4,-18 18.8,94.5 15.9,2.4 c -7.5,11.2 -10.4,25.1 -7.8,38.6 l 7.5,37.5 c -12,-9.4 -20.6,-22.9 -23.7,-38.4 l -7.9,-39.5 c -0.8,-3.9 -3.9,-6.8 -7.8,-7.4 L 10.7,598.5 c -6.4,-1 -11.9,4.7 -10.6,11.1 L 13,674.5 C 25.8,738.7 77.3,788 142,798 l 6.2,1 12.7,63.7 v 0 l 12.7,63.7 116.4,17.9 4.7,23.5 -116.4,-17.9 18.8,94.5 15.9,2.4 c -7.5,11.2 -10.4,25.1 -7.7,38.6 l 26.7,134.2 c 0.8,3.9 3.9,6.8 7.8,7.4 l 90.9,14 -0.7,-3.7 c 7.3,3.5 15.2,5.9 23.5,7.2 l 20.3,3.1 c 12.9,2 26.2,-0.5 37,-7.7 z m 102.9,-716.3 9.9,50 c 0.8,4.2 -2.7,7.9 -6.9,7.2 L 467,573.2 c -4.7,-0.7 -8.5,-4.3 -9.4,-9 L 447.5,513.4 Z M 100.9,408.9 98,394.6 94.7,377.8 76,284 70.9,258.1 336,298.9 l 2.2,10.9 16,80.6 7.3,36.5 -35.4,-5.4 -2.1,-10.5 -16.8,-84.5 -78,-12 7.8,39.5 1.4,7.1 5.1,25.9 -35.4,-5.4 -2.8,-13.9 -3.8,-19.1 -7.9,-39.6 -81,-12.5 17.2,86.8 1,4.8 5.3,26.4 z m 49,-76.9 19,2.9 14.4,72.6 97.4,15 -14.4,-72.6 16,2.5 12,60.3 5.4,27.4 -25.4,-3.9 -107,-16.5 z m -12.7,259.2 -6.6,-33 105.8,16.3 c 5.1,0.8 9.5,-3.8 8.5,-8.9 l -14.8,-74.5 -116.4,-17.9 -6.6,-33 151.7,23.4 24,120.4 c 3,14.8 -9.7,28.1 -24.7,25.8 z m 48.8,245.4 -6.6,-33 151.8,23.4 6.6,33 z m 193.2,382 -21.3,-3.3 c -23.1,-3.5 -41.4,-21.2 -46,-44 l -15.9,-79.8 -15.3,-2.4 c -5.1,-0.8 -9.5,3.8 -8.5,8.9 l 14.8,74.5 2.9,14.7 3.6,18.2 -35.4,-5.4 -1.2,-6.2 -22.7,-114.2 c -3,-14.8 9.7,-28.1 24.7,-25.8 l 82.5,12.7 c 23.1,3.5 41.4,21.2 46,44 l 16.4,82.2 c 3.1,15 -9.6,28.2 -24.6,25.9 z"
   id="path9"
   style="fill:#65b7ff" />

			</g>

		</g>

	</g>

	<g
   id="g25">
		<g
   id="g24">
			<g
   id="g20">
				<g
   id="g12">
					<polygon
   class="st1"
   points="1015.1,222.5 1157.9,222.5 1157.9,343.6 1380.3,343.6 1380.3,178.1 1202.2,0 970.7,0 792.6,178.1 792.6,473.9 970.7,652 1067.8,651.9 1067.8,429.4 1015.1,429.4 "
   id="polygon11"
   style="fill:#65b7ff" />

					<polygon
   class="st1"
   points="970.7,1081.4 1202.2,1081.4 1380.3,903.2 1380.3,607.6 1202.2,429.4 1105.1,429.4 1105.1,651.9 1157.9,651.9 1157.9,858.9 1015.1,858.9 1015.1,725.4 792.6,725.4 792.6,903.2 "
   id="polygon12"
   style="fill:#65b7ff" />

				</g>

				<g
   id="g14">
					<polygon
   class="st1"
   points="1661.8,858.9 1661.8,0 1439.3,0 1439.3,903.2 1617.4,1081.4 1714.5,1081.4 1714.5,858.9 "
   id="polygon13"
   style="fill:#65b7ff" />

					<polygon
   class="st1"
   points="1804.6,858.9 1751.9,858.9 1751.9,1081.4 1849,1081.4 2027.1,903.2 2027.1,0 1804.6,0 "
   id="polygon14"
   style="fill:#65b7ff" />

				</g>

				<g
   id="g16">
					<polygon
   class="st1"
   points="3473.7,651.9 3473.7,429.4 3473.7,222.5 3473.7,0 3251.2,0 3251.2,1081.4 3473.7,1081.4 3473.7,1039.1 "
   id="polygon15"
   style="fill:#65b7ff" />

					<polygon
   class="st1"
   points="3616.5,429.4 3511.1,429.4 3511.1,651.9 3616.5,651.9 3616.5,687.2 3616.5,763.2 3616.5,1074.1 3839,1074.1 3839,760.8 3839,687.2 3839,661.9 3717.8,540.7 3839,419.5 3839,398.1 3839,320.6 3839,226.6 3839,196.5 3839,178.1 3660.9,0 3619.1,0 3588.6,0 3511.1,0 3511.1,222.5 3616.5,222.5 3616.5,319.6 3616.5,398.1 "
   id="polygon16"
   style="fill:#65b7ff" />

				</g>

				<g
   id="g17">
					<rect
   x="2977.1001"
   y="429.39999"
   class="st1"
   width="174.7"
   height="222.5"
   id="rect16"
   style="fill:#65b7ff" />

					<polygon
   class="st1"
   points="3189.2,858.9 2939.8,858.9 2939.8,774.6 2939.8,651.9 2939.8,429.4 2939.8,387.6 2939.8,222.5 3189.2,222.5 3189.2,0 2939.8,0 2717.3,0 2717.3,1081.4 2892.8,1081.4 3189.2,1081.4 "
   id="polygon17"
   style="fill:#65b7ff" />

				</g>

				<g
   id="g19">
					<polygon
   class="st1"
   points="2670.7,544.4 2670.7,178.1 2492.6,0 2342.8,0 2342.8,222.5 2448.2,222.5 2448.2,500.1 2342.8,500.1 2342.8,722.5 2492.6,722.5 "
   id="polygon18"
   style="fill:#65b7ff" />

					<polygon
   class="st1"
   points="2305.4,500.1 2305.4,222.5 2305.4,0 2083,0 2083,1081.4 2305.4,1081.4 2305.4,722.5 "
   id="polygon19"
   style="fill:#65b7ff" />

				</g>

			</g>

			<g
   id="g23">
				<path
   class="st1"
   d="m 2066.4,1293.7 v -48.4 c 0,-37.2 -30.2,-67.4 -67.4,-67.4 h -321 v 299.4 h 66.6 v -116.1 h 131.6 l 97.4,116.1 h 87 l -97.4,-116.1 h 35.8 c 37.2,-0.1 67.4,-30.3 67.4,-67.5 z m -321.8,13.7 v -75.9 h 255.1 v 75.9 z"
   id="path20"
   style="fill:#65b7ff" />

				<path
   class="st1"
   d="m 1615.3,1231.5 v -53.6 h -329.9 c -37.6,0 -68,30.5 -68,68 v 163.3 c 0,37.6 30.5,68 68,68 h 329.9 v -169.8 h -199 v 53.6 h 132.3 v 62.5 H 1284 v -192.1 h 331.3 z"
   id="path21"
   style="fill:#65b7ff" />

				<polygon
   class="st1"
   points="2896,1361.1 2896,1307.4 2657.7,1307.4 2657.7,1231.5 2939.8,1231.5 2939.8,1177.9 2657.7,1177.9 2591.1,1177.9 2591.1,1231.5 2591.1,1477.2 2657.7,1477.2 2657.7,1361.1 "
   id="polygon21"
   style="fill:#65b7ff" />

				<polygon
   class="st1"
   points="3183.5,1363.9 3296.8,1477.2 3391,1477.2 3241.4,1327.5 3391,1177.9 3296.8,1177.9 3183.5,1291.1 3070.2,1177.9 2976,1177.9 3125.7,1327.5 2976,1477.2 3070.2,1477.2 "
   id="polygon22"
   style="fill:#65b7ff" />

				<polygon
   class="st1"
   points="2464.2,1477.2 2539.1,1477.2 2385.6,1177.9 2255.6,1177.9 2102.2,1477.2 2177.1,1477.2 2303,1231.5 2338.2,1231.5 "
   id="polygon23"
   style="fill:#65b7ff" />

			</g>

		</g>

	</g>

</g>
  </g>
</svg>
