<?xml version="1.0" encoding="UTF-8" standalone="no"?>
<!-- Created with Inkscape (http://www.inkscape.org/) -->

<svg
   width="1015.7354mm"
   height="183.43562mm"
   viewBox="0 0 1015.7354 183.43562"
   version="1.1"
   id="svg1"
   inkscape:version="1.3.2 (091e20e, 2023-11-25, custom)"
   sodipodi:docname="tg16.svg"
   xmlns:inkscape="http://www.inkscape.org/namespaces/inkscape"
   xmlns:sodipodi="http://sodipodi.sourceforge.net/DTD/sodipodi-0.dtd"
   xmlns="http://www.w3.org/2000/svg"
   xmlns:svg="http://www.w3.org/2000/svg">
  <sodipodi:namedview
     id="namedview1"
     pagecolor="#ffffff"
     bordercolor="#000000"
     borderopacity="0.25"
     inkscape:showpageshadow="2"
     inkscape:pageopacity="0.0"
     inkscape:pagecheckerboard="0"
     inkscape:deskcolor="#d1d1d1"
     inkscape:document-units="mm"
     inkscape:zoom="0.28645984"
     inkscape:cx="733.08705"
     inkscape:cy="-1771.627"
     inkscape:window-width="3840"
     inkscape:window-height="2054"
     inkscape:window-x="-11"
     inkscape:window-y="-11"
     inkscape:window-maximized="1"
     inkscape:current-layer="layer1" />
  <defs
     id="defs1" />
  <g
     inkscape:label="Layer 1"
     inkscape:groupmode="layer"
     id="layer1"
     transform="translate(402.96042,-56.885417)">
    <g
       id="g12"
       transform="matrix(0.26458333,0,0,0.26458333,-402.96042,56.885417)">
	<g
   id="g11">
		<g
   id="g5">
			<path
   class="st3"
   d="m 2115.7,99.4 h -128.3 v 35.1 21.8 198.5 56.9 270 h 56.9 v -270 h 24.1 l 47.3,270 h 56.9 l -47.4,-270.8 c 26.9,-4.5 47.4,-27.9 47.4,-56.1 V 156.3 c 0,-31.4 -25.5,-56.9 -56.9,-56.9 z m 0,255.4 h -71.4 V 156.3 h 71.4 z"
   id="path1"
   style="fill:#ead900" />

			<path
   class="st3"
   d="M 2444.1,99.4 H 2373 c -31.4,0 -56.9,25.5 -56.9,56.9 v 198.5 56.9 270 h 56.9 v -270 h 71.1 v 270 h 56.9 v -270 -56.9 -198.5 c 0,-31.4 -25.5,-56.9 -56.9,-56.9 z m 0,255.4 H 2373 V 156.3 h 71.1 z"
   id="path2"
   style="fill:#ead900" />

			<path
   class="st3"
   d="m 1763.4,0 h -71.1 c -31.4,0 -56.9,25.5 -56.9,56.9 v 567.9 c 0,31.4 25.5,56.9 56.9,56.9 h 71.1 56.9 v -56.9 0 -279.5 -56.9 h -92.4 v 56.9 h 35.5 v 279.5 h -71.1 V 56.9 h 71.1 v 77.6 h 56.9 V 56.9 C 1820.3,25.5 1794.8,0 1763.4,0 Z"
   id="path3"
   style="fill:#ead900" />

			<path
   class="st3"
   d="m 2713.3,99.4 c -31.4,0 -56.9,25.5 -56.9,56.9 v 198.5 56.9 270 h 56.9 v -270 h 85.2 v -56.9 h -85.2 V 156.3 h 85.2 V 99.4 h -14.2 z"
   id="path4"
   style="fill:#ead900" />

			<path
   class="st3"
   d="m 3053.9,390.5 c 29.5,-47 57.1,-94.5 57.1,-107.9 V 99.4 h -56.9 v 183.2 c 0,0 -15.4,22.5 -35.5,53.1 -20.1,-30.6 -35.5,-53.1 -35.5,-53.1 V 99.4 h -56.9 v 183.2 c 0,13.3 27.6,60.8 57.1,107.9 -29.6,47.1 -57.1,94.6 -57.1,107.9 v 183.2 h 56.9 V 498.5 c 0,0 15.4,-22.5 35.5,-53.1 20.1,30.6 35.5,53.1 35.5,53.1 v 0 183.2 h 56.9 v -183.2 0 c 0.1,-13.4 -27.5,-60.9 -57.1,-108 z"
   id="path5"
   style="fill:#ead900" />

		</g>

		<g
   id="g8">
			<polygon
   class="st2"
   points="0,56.9 64,56.9 64,681.7 120.9,681.7 120.9,56.9 184.9,56.9 184.9,0 0,0 "
   id="polygon5"
   style="fill:#ff6427" />

			<path
   class="st2"
   d="M 416.8,624.8 H 346.4 V 99.4 h -56.9 v 525.4 0 c 0,31.4 25.5,56.9 56.9,56.9 h 70.4 c 31.4,0 56.9,-25.5 56.9,-56.9 v 0 -525.4 h -56.9 z"
   id="path6"
   style="fill:#ff6427" />

			<path
   class="st2"
   d="M 758.9,99.4 H 630.6 v 35.1 21.8 198.5 56.9 270 h 56.9 v -270 h 24.1 l 47.3,270 h 56.9 L 768.4,410.9 c 26.9,-4.5 47.4,-27.9 47.4,-56.1 V 156.3 c 0,-31.4 -25.5,-56.9 -56.9,-56.9 z m 0,255.4 H 687.5 V 156.3 h 71.4 z"
   id="path7"
   style="fill:#ff6427" />

			<path
   class="st2"
   d="m 1423.8,99.4 h -71.1 c -31.4,0 -56.9,25.5 -56.9,56.9 v 468.5 0 c 0,31.4 25.5,56.9 56.9,56.9 h 71.1 c 31.4,0 56.9,-25.5 56.9,-56.9 v 0 -468.5 c 0.1,-31.4 -25.4,-56.9 -56.9,-56.9 z m 0,525.4 h -71.1 V 156.3 h 71.1 z"
   id="path8"
   style="fill:#ff6427" />

		</g>

		<g
   id="g10">
			<circle
   class="st2"
   cx="3536.3"
   cy="390.60001"
   r="302.70001"
   id="circle8"
   style="fill:#ff6427" />

			<g
   id="g9">
				<polygon
   class="st4"
   points="3338,525.4 3439.4,525.4 3439.4,490.8 3407,490.8 3407,290.3 3407,255.7 3370.3,255.7 3338,255.7 3338,290.3 3370.3,290.3 3370.3,490.8 3338,490.8 "
   id="polygon8"
   style="fill:#ffffff" />

				<path
   class="st4"
   d="m 3734.6,322.7 v -41.1 l -25.9,-25.9 h -210.8 l -25.9,25.9 v 91.7 0 34.6 0 91.7 l 25.9,25.9 v 0 h 210.8 v 0 l 25.9,-25.9 V 399.1 l -25.9,-25.9 v 0 H 3506.6 V 290.3 H 3700 v 32.4 z m -34.6,85.2 v 82.9 h -193.4 v -82.9 z"
   id="path9"
   style="fill:#ffffff" />

			</g>

		</g>

	</g>

	<path
   class="st2"
   d="m 1151.9,326.3 v -170 0 c 0,-31.4 -25.5,-56.9 -56.9,-56.9 H 967 v 45.7 11.2 198.5 56.9 213.1 56.9 h 56.9 71.1 c 31.4,0 56.9,-25.5 56.9,-56.9 v 0 0 -184.7 c 0,-31.4 -3.1,-56.9 -34.5,-56.9 31.4,0 34.5,-25.5 34.5,-56.9 z m -128,-170 h 71 v 198.5 h -71 z m 0,468.5 V 411.7 h 71 v 213.1 z"
   id="path11"
   style="fill:#ff6427" />

</g>
  </g>
</svg>
