<?xml version="1.0" encoding="UTF-8" standalone="no"?>
<!-- Created with Inkscape (http://www.inkscape.org/) -->

<svg
   width="1015.7355mm"
   height="103.97206mm"
   viewBox="0 0 1015.7355 103.97206"
   version="1.1"
   id="svg1"
   inkscape:version="1.3.2 (091e20e, 2023-11-25, custom)"
   sodipodi:docname="thomson.svg"
   xmlns:inkscape="http://www.inkscape.org/namespaces/inkscape"
   xmlns:sodipodi="http://sodipodi.sourceforge.net/DTD/sodipodi-0.dtd"
   xmlns="http://www.w3.org/2000/svg"
   xmlns:svg="http://www.w3.org/2000/svg">
  <sodipodi:namedview
     id="namedview1"
     pagecolor="#ffffff"
     bordercolor="#000000"
     borderopacity="0.25"
     inkscape:showpageshadow="2"
     inkscape:pageopacity="0.0"
     inkscape:pagecheckerboard="0"
     inkscape:deskcolor="#d1d1d1"
     inkscape:document-units="mm"
     inkscape:zoom="0.40511539"
     inkscape:cx="1987.0882"
     inkscape:cy="692.39532"
     inkscape:window-width="3840"
     inkscape:window-height="2054"
     inkscape:window-x="-11"
     inkscape:window-y="-11"
     inkscape:window-maximized="1"
     inkscape:current-layer="layer1" />
  <defs
     id="defs1" />
  <g
     inkscape:label="Layer 1"
     inkscape:groupmode="layer"
     id="layer1"
     transform="translate(402.96042,-96.572917)">
    <g
       id="g20"
       transform="matrix(0.36341161,0,0,0.36341161,-402.96042,96.572917)">
	<g
   id="g7">
		<path
   d="M 186,79.2 V 273.7 H 108.3 V 79.2 H 0 V 12.6 H 294.4 V 79.1 H 186 Z"
   id="path1" />

		<path
   d="M 529.9,273.7 V 179 H 362.5 v 94.7 h -77.7 v -261 h 77.7 v 93.5 H 529.9 V 12.6 h 77.7 v 261 h -77.7 z"
   id="path2" />

		<path
   d="m 950.3,189.1 c -1.1,24.3 -3.3,54.4 -23,70.4 -10.2,8.6 -21.9,11.7 -34.7,13.7 -35.4,5.5 -72.6,4.3 -108.3,4.3 -19,0 -38.3,0 -57.3,-0.4 -25.5,-0.4 -64.2,-0.4 -85.7,-17.6 -19.7,-15.3 -21.9,-46.6 -23,-70.4 -1.1,-15.3 -1.1,-30.5 -1.1,-45.8 0,-15.3 0,-30.5 1.1,-45.8 1.5,-23.9 3.6,-54.4 23,-70.4 C 651.5,18.9 663.6,15 676,13 710.3,7.1 749.7,8.7 784.3,8.7 c 19.3,0 38.3,0.4 57.6,0.8 25.5,0.4 63.8,0.4 85.4,17.6 19.7,15.7 21.5,46.6 23,70.4 1.1,15.3 1.1,30.5 1.1,45.8 0,15.3 0,30.6 -1.1,45.8 z m -77,-90.8 c -4,-14.1 -12.4,-17.6 -25.2,-19.6 -17.1,-2.3 -34.7,-2 -51.8,-2 h -46.7 c -59.1,0 -58,12.5 -58,73.2 0,14.9 -1.5,39.9 10.9,50.5 13.9,11.7 64.9,9.4 81.7,9.4 11.7,0 23.7,-0.4 35.4,-0.4 13.5,0 35.4,0 46.7,-9 12,-9.8 10.9,-36 10.9,-50.5 0.1,-14 0.1,-37.9 -3.9,-51.6 z"
   id="path3" />

		<path
   d="m 1300.6,273.7 1.8,-195.3 H 1290 l -91.6,195.3 h -61.6 L 1045.2,78.4 h -13.1 l 1.8,195.3 h -73 v -261 h 134.2 l 72.2,169.4 72.7,-169.5 h 133.5 v 261 h -72.9 z"
   id="path4" />

		<path
   d="m 1664.8,256.8 c -17.5,20.3 -55.8,19.6 -79.5,20 -19,0.8 -37.9,0.8 -56.9,0.8 -31.7,0 -70,1.2 -101,-6.3 -11.7,-2.7 -21.9,-7.8 -30.3,-16.8 -12.4,-12.9 -13.9,-29.7 -13.9,-47.4 0,-6.7 0.4,-13.3 0.7,-20 h 71.5 c 0,5.9 0,11.3 1.8,16.8 1.1,3.5 2.6,5.9 5.5,8.2 6.9,5.9 27.7,5.1 35.7,5.1 10.6,0 20.8,0.4 31.4,0.4 13.1,0 25.9,-0.4 39,-0.4 9.1,0 32.1,1.2 38.3,-8.2 2.6,-4.3 2.6,-10.2 2.6,-14.9 0,-20 -14.6,-19.2 -29.5,-19.6 -39,-1.2 -78.1,-3.5 -117.1,-5.1 -21.2,-0.8 -48.2,-1.6 -63.5,-20 -12.8,-15.3 -13.9,-37.2 -13.9,-56.7 0,-46.6 11.3,-75.9 58,-81 31.4,-3.5 63.8,-3.1 95.6,-3.1 30.6,0 63.1,-0.8 93,7 33.2,9 40.1,32.5 40.1,66.5 v 12.5 h -71.9 v -3.9 c 0,-7.4 -0.7,-12.9 -6.9,-17.2 -6.9,-5.1 -23.3,-4.7 -31.4,-4.7 h -63.1 c -7.7,0 -29.2,-0.4 -35.7,4.7 -4.7,3.5 -5.8,9.8 -5.8,15.7 0,4.7 1.1,11 4.7,14.1 2.6,2.3 6.2,3.1 9.5,3.5 8.4,1.6 17.1,1.6 25.5,2 16.4,0.8 32.8,1.6 49.2,2 28.1,0.8 68.2,0.4 95.6,8.2 8.8,2.7 16.4,6.7 23.3,13.3 15,14.1 15.7,41.1 15.7,60.7 0.1,22 -1.7,47 -16.3,63.8 z"
   id="path5" />

		<path
   d="m 2023.9,189.1 c -1.1,24.3 -3.3,54.4 -23,70.4 -10.2,8.6 -21.9,11.7 -34.7,13.7 -35.4,5.5 -72.6,4.3 -108.3,4.3 -19,0 -38.3,0 -57.3,-0.4 -25.5,-0.4 -64.2,-0.4 -85.7,-17.6 -19.7,-15.3 -21.9,-46.6 -23,-70.4 -1.1,-15.3 -1.1,-30.5 -1.1,-45.8 0,-15.3 0,-30.5 1.1,-45.8 1.5,-23.9 3.6,-54.4 23,-70.4 10.2,-8.2 22.3,-12.1 34.7,-14.1 34.3,-5.9 73.7,-4.3 108.3,-4.3 19.3,0 38.3,0.4 57.6,0.8 25.5,0.4 63.8,0.4 85.4,17.6 19.7,15.7 21.5,46.6 23,70.4 1.1,15.3 1.1,30.5 1.1,45.8 0,15.3 0,30.6 -1.1,45.8 z m -77,-90.8 c -4,-14.1 -12.4,-17.6 -25.2,-19.6 -17.1,-2.3 -34.7,-2 -51.8,-2 h -46.7 c -59.1,0 -58,12.5 -58,73.2 0,14.9 -1.5,39.9 10.9,50.5 13.9,11.7 64.9,9.4 81.7,9.4 11.7,0 23.7,-0.4 35.4,-0.4 13.5,0 35.4,0 46.7,-9 12,-9.8 10.9,-36 10.9,-50.5 0.1,-14 0.1,-37.9 -3.9,-51.6 z"
   id="path6" />

		<path
   d="m 2244.3,273.7 -128,-194.5 h -8 l 1.8,194.5 h -75.5 v -261 h 129.9 l 127.3,194.5 h 7.7 l -1.8,-194.5 h 75.5 v 261 z"
   id="path7" />

	</g>

	
	<g
   id="g19">
		<g
   id="g18">
			<g
   id="g14">
				<rect
   x="2697.8"
   y="73.800003"
   class="st0"
   width="68.199997"
   height="138.60001"
   id="rect13"
   style="fill:#3094bf" />

				<rect
   x="2520.2"
   y="73.800003"
   class="st0"
   width="68.199997"
   height="138.60001"
   id="rect14"
   style="fill:#3094bf" />

			</g>

			<g
   id="g15">
				<polygon
   class="st0"
   points="2795,162.4 2643.1,217.7 2643.1,286.1 2795,230.9 "
   id="polygon14"
   style="fill:#3094bf" />

				<polygon
   points="2643.1,217.7 2491.3,162.4 2491.3,230.9 2643.1,286.1 "
   id="polygon15" />

			</g>

			<g
   id="g17">
				<polygon
   class="st0"
   points="2643.1,0 2491.3,55.3 2491.3,123.7 2643.1,68.5 "
   id="polygon16"
   style="fill:#3094bf" />

				<polygon
   points="2795,55.3 2643.1,0 2643.1,68.5 2795,123.7 "
   id="polygon17" />

			</g>

		</g>

	</g>

</g>
  </g>
</svg>
