<?xml version="1.0" encoding="UTF-8" standalone="no"?>
<!-- Created with Inkscape (http://www.inkscape.org/) -->

<svg
   width="1015.74mm"
   height="327.18414mm"
   viewBox="0 0 1015.74 327.18414"
   version="1.1"
   id="svg1"
   inkscape:version="1.3.2 (091e20e, 2023-11-25, custom)"
   sodipodi:docname="ti99.svg"
   xmlns:inkscape="http://www.inkscape.org/namespaces/inkscape"
   xmlns:sodipodi="http://sodipodi.sourceforge.net/DTD/sodipodi-0.dtd"
   xmlns="http://www.w3.org/2000/svg"
   xmlns:svg="http://www.w3.org/2000/svg">
  <sodipodi:namedview
     id="namedview1"
     pagecolor="#ffffff"
     bordercolor="#000000"
     borderopacity="0.25"
     inkscape:showpageshadow="2"
     inkscape:pageopacity="0.0"
     inkscape:pagecheckerboard="0"
     inkscape:deskcolor="#d1d1d1"
     inkscape:document-units="mm"
     inkscape:zoom="0.57291968"
     inkscape:cx="1797.8087"
     inkscape:cy="604.79682"
     inkscape:window-width="3840"
     inkscape:window-height="2054"
     inkscape:window-x="-11"
     inkscape:window-y="-11"
     inkscape:window-maximized="1"
     inkscape:current-layer="layer1" />
  <defs
     id="defs1" />
  <g
     inkscape:label="Layer 1"
     inkscape:groupmode="layer"
     id="layer1"
     transform="translate(402.96042,15.08125)">
    <g
       id="g19"
       transform="matrix(0.26458333,0,0,0.26458333,-402.96042,-15.08125)">
	<g
   id="g3">
		<path
   d="m 752.4,131.8 v 186.9 c 0,19.8 -10.1,22.9 -19.8,26 v 6.6 h 86.3 v -6.6 c -9.7,-3.1 -19.8,-6.1 -19.8,-26 V 131.8 c 0,-11.3 3.5,-14 18.3,-14 40.4,0 60.2,0.8 74.6,23.2 l 5,-3.1 L 880.7,90 H 670.4 l -16.3,48 5.1,3.1 c 17.5,-22.1 31.1,-23.2 75,-23.2 14.7,0 18.2,2.7 18.2,13.9 z m 98.3,26.8 c 12.8,3.5 19.4,6.6 19.4,26 v 134.1 c 0,19.8 -6.6,22.9 -19.4,26 v 6.6 h 162.8 l 18.6,-46.7 -5.1,-3.5 c -16.3,21.5 -33.4,26.4 -55.9,26.4 h -42 c -13.2,0 -16.3,-0.3 -16.3,-13.2 v -55.9 h 50.9 c 19.8,0 22.9,4.7 26.1,16.4 h 7.7 v -55.9 h -7.7 c -3.1,11.7 -6.2,16.7 -26.1,16.7 h -50.9 v -47 c 0,-9.7 3.1,-12.9 16.3,-12.9 0,0 32.7,0 35.7,0 22.9,0 35,5.9 52.4,24.4 l 5,-3.5 -16.3,-44.7 H 850.7 Z m 209.3,23 49.8,70.3 -47,66.8 c -14.4,20.2 -22.9,22.9 -36.1,26 v 6.6 h 75.4 v -6.6 c -14.4,-2.7 -20.6,-8.2 -10.9,-23.3 l 32.9,-51.4 34.7,49.9 c 12.8,18.3 -0.8,23.2 -12.5,24.8 v 6.6 h 136.3 v -6.6 c -13.6,-2.3 -19.8,-7 -12.8,-25.6 l 8.9,-23.2 h 81.6 l 8.6,23.2 c 5.5,15.2 3.5,23.3 -12.4,25.6 v 6.6 h 83.9 v -6.6 c -9.7,-3.1 -18.6,-11.2 -22.9,-22.5 L 1352.6,152 h -44.3 l -62.2,158.6 c -6.6,16.4 -12.6,24.2 -19.2,28.7 -5.1,-3.2 -9.8,-8.3 -16.1,-17 l -54.6,-77.6 44.2,-62.4 c 11.7,-16.7 21.4,-20.2 33,-23.7 V 152 h -71.1 v 6.6 c 14.7,1.2 19,9.4 10.5,22.1 l -30.8,45.6 -27.8,-41.8 c -11.7,-17.1 -3.1,-24.1 9.7,-26.1 v -6.6 h -94.4 v 6.6 c 13.1,3.7 19.6,7.6 30.5,23.2 z m 260.2,5 31.9,87 H 1287 Z m 138.3,164.6 c 0,-3.2 3.1,-9.8 7,-9.8 8.9,4.3 24.1,13.2 52,13.2 47,0 80,-23.3 80,-62.9 0,-37.3 -20.6,-52.5 -60.2,-61.4 l -36.1,-8.2 c -20.6,-4.7 -27.2,-10.6 -27.2,-23.3 0,-14.8 11.6,-24.5 37.3,-24.5 28.7,0 51.3,13.6 67.6,32.4 l 5.1,-3.5 -14.8,-51.3 h -9.3 c 0,4.3 -1.9,8.9 -5.8,8.9 -8.6,-4.7 -21.8,-12 -44.3,-12 -40.4,0 -71.9,20.9 -71.9,59 0,29.1 17.5,47.3 55.6,55.9 l 34.2,7.8 c 22.9,4.9 31.1,13.2 31.1,27.6 0,19.8 -15.9,30.3 -41.9,30.3 -36.5,0 -59.8,-19.2 -78.9,-41.2 l -5.1,3.5 15.9,59.5 z"
   id="path1" />

		<path
   d="m 1723.3,96.9 c 12.1,3.5 21.7,6.6 21.7,26 v 195.9 c 0,19.8 -9.7,22.9 -21.7,26 v 6.6 h 90.1 v -6.6 c -12,-3.1 -21.8,-6.2 -21.8,-26 V 122.9 c 0,-19.5 9.7,-22.6 21.8,-26 v -6.6 h -90.1 z m 247.4,61.8 c 11.6,3.5 18.3,6.6 18.3,26 v 81.6 h -1.2 L 1887.6,152 H 1829 v 6.6 c 11.7,4.9 19.4,8.9 19.4,26 v 134.1 c 0,18.6 -6.6,22.9 -19.4,26 v 6.6 h 66.4 v -6.6 c -10.5,-3.1 -20.6,-7.3 -20.6,-26 V 203 h 1.2 l 132.5,151 h 7 V 184.7 c 0,-19.4 9.7,-22.6 17.5,-26 V 152 h -62.2 z m 173.6,71.8 -36.1,-8.1 c -20.6,-4.7 -27.2,-10.6 -27.2,-23.3 0,-14.7 11.7,-24.5 37.3,-24.5 28.8,0 51.3,13.6 67.6,32.4 l 5.1,-3.5 -14.7,-51.3 h -9.4 c 0,4.3 -1.9,9 -5.8,9 -8.6,-4.7 -21.7,-12 -44.3,-12 -40.5,0 -72,20.9 -72,59 0,29 17.5,47.3 55.6,55.9 l 34.1,7.8 c 22.9,4.9 31.1,13.2 31.1,27.6 0,19.8 -15.9,30.2 -42,30.2 -36.4,0 -59.9,-19 -78.9,-41.1 l -5.1,3.5 15.9,59.4 h 9.7 c 0,-3.1 3.1,-9.7 7,-9.7 8.9,4.3 24.1,13.2 52,13.2 47,0 80,-23.2 80,-62.9 0.4,-37.6 -20.2,-52.7 -59.9,-61.6 z m 71.9,-78.4 -16,51.3 5.1,3.5 c 21.4,-28.4 27.2,-31.1 55.5,-31.1 9.7,0 12.8,0.8 12.8,12.8 v 130.2 c 0,19.8 -5.8,22.9 -21.7,26 v 6.6 h 85.5 v -6.6 c -15.6,-3.1 -21.8,-6.1 -21.8,-26 V 188.6 c 0,-12 3.1,-12.8 12.9,-12.8 28.4,0 35.9,2.6 57.1,31.1 l 5.1,-3.5 -15.9,-51.3 z m 346,140.1 c -12,-19.4 -24.4,-28 -38.8,-31.5 v -1.2 c 34.2,-5.5 53.6,-23.3 53.6,-52.5 0,-38.7 -31.1,-55.2 -81.2,-55.2 h -102.2 v 6.6 c 12.9,3.5 19.5,6.6 19.5,26 v 134.1 c 0,19.8 -6.6,22.9 -19.5,26 v 6.6 h 83.5 v -6.6 c -12,-3.1 -20.2,-6.2 -20.2,-26 v -49.6 h 20.6 c 24.1,0 27.6,9.7 43.1,42.4 12.8,26.8 29.9,43.5 62.1,43.5 16.4,0 22.9,-3.2 29.5,-6.6 v -5.5 c -25.9,-3.9 -34.4,-25.2 -50,-50.5 z m -71,-46.6 H 2457 v -52.9 c 0,-12.8 3.2,-16.3 12.9,-16.3 h 22.1 c 24.1,0 38.1,9.3 38.1,32.6 -0.1,24.6 -16,36.6 -38.9,36.6 z m 247.7,-86.9 c 10.1,2.4 19.8,6.6 19.8,26 V 283 c 0,32.7 -12.4,47 -49.3,47 -39.2,0 -53.2,-14.4 -53.2,-47 v -98.3 c 0,-19.4 7.4,-23.7 19.5,-26 v -6.6 h -81.6 v 6.6 c 12,1.9 19.8,6.6 19.8,26 V 286 c 0,53.2 46.2,68.8 89.8,68.8 48.6,0 83.1,-16.4 83.1,-72 v -98.3 c 0,-19.4 5.9,-23.2 17.9,-26 V 152 H 2739 Z M 2945.6,281.4 2888.1,152 h -71.4 v 6.6 c 12.8,3.5 19.4,6.6 19.4,26 v 134.1 c 0,17.4 -7.4,22.1 -19.4,26 v 6.6 h 63.3 v -6.6 c -13.2,-3.5 -19,-8.6 -19,-26 v -125 l 71.8,160.8 h 5.5 l 69.9,-160.8 v 125.1 c 0,19.8 -8.5,23.2 -18.2,26 v 6.6 h 81.6 v -6.6 c -12.8,-3.1 -19.4,-6.2 -19.4,-26 V 184.7 c 0,-19.4 6.6,-22.6 19.4,-26 v -6.6 h -70.3 z m 261.8,46.2 h -42 c -13.2,0 -16.3,-0.3 -16.3,-13.2 v -55.9 h 50.9 c 19.8,0 22.9,4.6 26,16.3 h 7.8 v -55.9 h -7.8 c -3.1,11.6 -6.2,16.7 -26,16.7 h -50.9 v -47 c 0,-9.7 3.1,-12.9 16.3,-12.9 0,0 32.6,0 35.7,0 22.9,0 34.9,5.9 52.5,24.4 l 5,-3.5 -16.4,-44.7 h -155.4 v 6.6 c 12.9,3.5 19.4,6.6 19.4,26 v 134.1 c 0,19.8 -6.6,22.9 -19.4,26 v 6.6 h 162.8 l 18.7,-46.7 -5.1,-3.5 c -16.2,21.5 -33.3,26.6 -55.8,26.6 z m 207.4,-168.9 c 11.6,3.5 18.3,6.6 18.3,26 v 81.6 h -1.2 L 3331.7,152 H 3273 v 6.6 c 11.7,4.9 19.5,8.9 19.5,26 v 134.1 c 0,18.6 -6.6,22.9 -19.5,26 v 6.6 h 66.4 v -6.6 c -10.6,-3.1 -20.6,-7.3 -20.6,-26 V 203 h 1.1 l 132.5,151 h 7.1 V 184.7 c 0,-19.4 9.7,-22.6 17.5,-26 V 152 h -62.1 z m 80.4,-6.6 -15.9,51.3 5.1,3.5 c 21.4,-28.4 27.2,-31.1 55.6,-31.1 9.7,0 12.8,0.8 12.8,12.8 v 130.2 c 0,19.8 -5.8,22.9 -21.7,26 v 6.6 h 85.5 v -6.6 c -15.6,-3.1 -21.8,-6.1 -21.8,-26 V 188.6 c 0,-12 3.2,-12.8 12.9,-12.8 28.4,0 35.8,2.6 57.1,31.1 l 5.1,-3.5 -15.9,-51.3 z m 284.3,78.4 -36.1,-8.1 c -20.6,-4.7 -27.2,-10.6 -27.2,-23.3 0,-14.7 11.6,-24.5 37.2,-24.5 28.7,0 51.3,13.6 67.6,32.4 l 4.9,-3.5 -14.6,-51.3 h -9.4 c 0,4.3 -2,9 -5.8,9 -8.6,-4.7 -21.8,-12 -44.4,-12 -40.5,0 -72,20.9 -72,59 0,29 17.5,47.3 55.5,55.9 l 34.1,7.8 c 22.8,4.9 31.1,13.2 31.1,27.6 0,19.8 -15.8,30.2 -42,30.2 -36.5,0 -59.9,-19 -78.9,-41.1 l -5.1,3.5 15.8,59.4 h 9.8 c 0,-3.1 3.1,-9.7 7,-9.7 8.9,4.3 24.2,13.2 52,13.2 46.8,0 80,-23.2 80,-62.9 0.7,-37.6 -19.9,-52.7 -59.5,-61.6 z"
   id="path2" />

		<path
   d="M 464.2,149.9 V 90.5 h -95.3 l -12,59.9 h 34.3 l -11,55.2 H 345.9 L 334,265.3 c -0.9,4.1 -1.6,7 -2,9.8 -2.8,18.3 5.2,17.4 30.8,17.4 l -11.7,58.8 h -44.9 c -42.4,0 -77,-0.4 -68,-43.9 1.4,-6.6 3.1,-13.4 4.3,-19.8 l 16,-82.1 h -33 l 11,-55.2 h 33 l 12,-59.9 H 250.7 V 0 H 136.6 V 184 H 0 c 3.4,47.7 45.6,54.7 61,88.6 10.6,23.4 19.9,64.5 50.8,64.8 23.7,0.3 23.7,-30.7 54.3,-30.7 30.5,0 44,57.9 71.2,105.7 20.3,37.5 54.1,62.6 84.7,64.8 25.1,1.7 37.3,-6.8 37.3,-6.8 -6.8,-13.6 -10.2,-27.3 -10.2,-47.7 0,-30.7 23.7,-61.3 50.9,-81.8 37.3,-27.2 78,-37.6 91.5,-40.9 v -95.5 c -0.1,0 -27.3,-14.5 -27.3,-54.6 z M 308.7,292.5 348.8,90.4 H 302.6 L 262.5,292.5 Z M 361.2,26.6 H 315 l -8.8,44.6 h 46.2 z"
   id="path3" />

	</g>

	<g
   id="g18">
		<g
   id="g4">
			<rect
   x="628.70001"
   y="535.20001"
   width="198.89999"
   height="688.59998"
   id="rect3" />

		</g>

		<g
   id="g5">
			<polygon
   points="591.4,535.2 0,535.2 0,718.2 196.3,718.2 196.3,1223.8 395.2,1223.8 395.2,718.2 591.4,718.2 "
   id="polygon4" />

		</g>

		<g
   id="g6">
			<path
   d="m 1996.4,529.1 c -155,0 -280.6,86.5 -280.6,243.2 0,173.5 128,235.9 249.5,235.9 37.9,0 91.9,-20 127.4,-47.5 17.2,167.1 -171.1,176.4 -189.1,77.6 h -173.5 c 28.9,155.6 164.9,198.6 271.2,198.3 141,-0.4 275.6,-112.7 275.6,-385 0,-225.9 -125.5,-322.5 -280.5,-322.5 z m -6.7,343.4 c -58.4,0 -105.8,-47.3 -105.8,-105.8 0,-58.4 47.3,-105.8 105.8,-105.8 58.5,0 105.8,47.4 105.8,105.8 0,58.4 -47.4,105.8 -105.8,105.8 z"
   id="path5" />

		</g>

		<g
   id="g7">
			<path
   d="m 1383.8,529.1 c -155,0 -280.6,86.5 -280.6,243.2 0,173.5 128,235.9 249.5,235.9 37.9,0 91.9,-20 127.4,-47.5 17.2,167.1 -171.1,176.4 -189.1,77.6 h -173.6 c 28.9,155.6 164.9,198.6 271.2,198.3 141,-0.4 275.6,-112.7 275.6,-385 0,-225.9 -125.5,-322.5 -280.4,-322.5 z m -6.8,343.4 c -58.4,0 -105.8,-47.3 -105.8,-105.8 0,-58.4 47.3,-105.8 105.8,-105.8 58.5,0 105.8,47.4 105.8,105.8 0.1,58.4 -47.3,105.8 -105.8,105.8 z"
   id="path6" />

		</g>

		<g
   id="g8">
			<rect
   x="886.29999"
   y="792.70001"
   width="158.2"
   height="130.3"
   id="rect7" />

		</g>

		<g
   id="g16">
			<g
   id="g13">
				<g
   id="g10">
					<g
   id="g9">
						<path
   d="m 3051.2,1236.5 h -199.4 c -10.1,0 -18.2,-8.2 -18.2,-18.2 v -134.6 h -278.2 c -10.1,0 -18.2,-8.2 -18.2,-18.2 V 914.9 c 0,-4.4 1.6,-8.6 4.5,-11.9 l 319,-367.5 c 3.5,-4 8.5,-6.3 13.8,-6.3 h 176.8 c 10.1,0 18.2,8.2 18.2,18.2 v 357.8 h 50.1 c 10.1,0 18.2,8.2 18.2,18.2 v 142.1 c 0,10.1 -8.2,18.2 -18.2,18.2 h -50.1 v 134.6 c -0.1,10.1 -8.3,18.2 -18.3,18.2 z m -181.3,-36.4 h 163 v -134.6 c 0,-10.1 8.2,-18.2 18.2,-18.2 h 50.1 V 941.6 h -50.1 c -10.1,0 -18.2,-8.2 -18.2,-18.2 V 565.6 h -150.3 l -309.1,356.1 v 125.6 h 278.2 c 10.1,0 18.2,8.2 18.2,18.2 z"
   id="path8" />

					</g>

				</g>

				<g
   id="g12">
					<g
   id="g11">
						<path
   d="M 2851.7,941.6 H 2664 c -7.1,0 -13.6,-4.2 -16.6,-10.7 -3,-6.5 -1.9,-14.1 2.8,-19.5 L 2838,695.2 c 5,-5.7 13,-7.8 20.1,-5.1 7.1,2.7 11.8,9.5 11.8,17.1 v 216.2 c 0,10.1 -8.1,18.2 -18.2,18.2 z M 2704,905.2 h 129.5 V 756 Z"
   id="path10" />

					</g>

				</g>

			</g>

			<g
   id="g15">
				<g
   id="g14">
					<path
   d="m 3820.8,1236.5 h -138.1 c -7.8,0 -14.7,-5 -17.2,-12.3 l -48.2,-140.5 h -214.6 l -48.1,140.5 c -2.5,7.4 -9.4,12.3 -17.2,12.3 H 3199 c -5.9,0 -11.4,-2.8 -14.8,-7.6 -3.4,-4.8 -4.3,-10.9 -2.4,-16.5 l 230,-671 c 2.5,-7.4 9.4,-12.3 17.2,-12.3 h 161.9 c 7.8,0 14.7,5 17.2,12.3 l 229.9,671 c 1.9,5.6 1,11.7 -2.4,16.5 -3.4,4.8 -8.9,7.6 -14.8,7.6 z m -125.1,-36.4 h 99.6 L 3577.9,565.6 H 3442 l -217.5,634.5 h 99.7 l 48.1,-140.5 c 2.5,-7.4 9.4,-12.3 17.2,-12.3 h 240.7 c 7.8,0 14.7,4.9 17.2,12.3 z M 3591.8,971.6 H 3428 c -5.9,0 -11.4,-2.8 -14.8,-7.6 -3.4,-4.8 -4.3,-10.9 -2.4,-16.5 l 82,-239.1 c 2.5,-7.4 9.5,-12.3 17.2,-12.3 v 0 c 7.8,0 14.7,5 17.2,12.3 l 81.9,239.1 c 1.9,5.6 1,11.7 -2.4,16.5 -3.5,4.8 -9,7.6 -14.9,7.6 z m -138.3,-36.4 h 112.8 l -56.4,-164.6 z"
   id="path13" />

				</g>

			</g>

		</g>

		<g
   id="g17">
			<polygon
   points="2553.4,565.6 2240.5,1236.5 2292.5,1236.5 2605.3,565.6 "
   id="polygon16" />

		</g>

	</g>

</g>
  </g>
</svg>
