<?xml version="1.0" encoding="UTF-8" standalone="no"?>
<!-- Created with Inkscape (http://www.inkscape.org/) -->

<svg
   version="1.1"
   id="svg1"
   width="3839"
   height="443.6265"
   viewBox="0 0 3839 443.62649"
   sodipodi:docname="videoton.svg"
   inkscape:version="1.3.2 (091e20e, 2023-11-25, custom)"
   xmlns:inkscape="http://www.inkscape.org/namespaces/inkscape"
   xmlns:sodipodi="http://sodipodi.sourceforge.net/DTD/sodipodi-0.dtd"
   xmlns="http://www.w3.org/2000/svg"
   xmlns:svg="http://www.w3.org/2000/svg">
  <defs
     id="defs1" />
  <sodipodi:namedview
     id="namedview1"
     pagecolor="#ffffff"
     bordercolor="#000000"
     borderopacity="0.25"
     inkscape:showpageshadow="2"
     inkscape:pageopacity="0.0"
     inkscape:pagecheckerboard="0"
     inkscape:deskcolor="#d1d1d1"
     inkscape:zoom="0.35355339"
     inkscape:cx="678.82251"
     inkscape:cy="-38.183766"
     inkscape:window-width="3840"
     inkscape:window-height="2054"
     inkscape:window-x="-11"
     inkscape:window-y="-11"
     inkscape:window-maximized="1"
     inkscape:current-layer="g1" />
  <g
     inkscape:groupmode="layer"
     inkscape:label="Image"
     id="g1"
     transform="translate(-44.116869,-35.767742)">
    <g
       id="g22"
       transform="matrix(4.7117989,0,0,4.7117989,-163.75296,-132.76267)">
      <path
         style="fill:#ee5862"
         d="M 78.340242,37.43456 95.752471,37.42958 61.393481,128 H 44.116872 Z"
         id="path25"
         sodipodi:nodetypes="ccccc" />
      <path
         style="fill:#75bf43"
         d="m 104.93198,37.42958 35.26915,0.005 C 128.59325,67.551251 117.2398,97.805816 105.80161,128 H 70.72 C 81.849249,97.76978 93.487277,67.587145 104.93198,37.42958 Z"
         id="path24"
         sodipodi:nodetypes="ccccc" />
      <path
         style="fill:#215fa6"
         d="M 148.52598,37.44 H 200.32 l -34.09588,90.4 -51.98507,0.1638 z"
         id="path23"
         sodipodi:nodetypes="ccccc" />
      <path
         style="fill:#243a6f"
         d="m 561.12,129.69814 -1.28,-0.11427 -3.44411,-0.64239 -3.44411,-0.64238 -2.79589,-0.98164 -2.79589,-0.98164 -2.85267,-1.46751 -2.85268,-1.46751 -2.5251,-1.87225 -2.5251,-1.87225 -2.05037,-2.05037 -2.05038,-2.05038 -1.88928,-2.54807 -1.88928,-2.54808 -1.76948,-3.4697 -1.76947,-3.4697 -0.97414,-2.92165 -0.97415,-2.921643 -0.69464,-3.478353 -0.69464,-3.478353 -0.16588,-5.983641 -0.16588,-5.983641 0.37643,-3.136359 0.37644,-3.136359 0.82121,-3.36 0.82121,-3.36 0.95134,-2.4 0.95133,-2.4 1.4722,-2.852675 1.47219,-2.852676 1.90534,-2.587325 1.90535,-2.587324 2.50686,-2.457224 2.50686,-2.457223 3.19559,-2.127391 3.19559,-2.127391 2.8126,-1.237196 2.8126,-1.237196 2.88,-0.834613 2.88,-0.834614 3.04,-0.46169 3.04,-0.46169 h 4.64 4.64 l 3.04,0.46169 3.04,0.46169 2.81015,0.817963 2.81014,0.817962 1.98986,0.805387 1.98985,0.805386 2.56,1.477092 2.56,1.477091 2.60683,2.027452 2.60683,2.027453 1.97496,2.168531 1.97496,2.168531 2.05141,3.060205 2.0514,3.060205 1.14902,2.486905 1.14902,2.486905 1.05948,3.25289 1.05948,3.25289 0.59831,3.2 0.5983,3.2 -0.004,7.68 -0.004,7.68 -0.54243,2.88 -0.54243,2.88 -0.82397,2.88 -0.82396,2.879999 -1.88019,3.85294 -1.88019,3.85293 -1.9918,2.70707 -1.9918,2.70706 -2.72502,2.65439 -2.72502,2.65439 -3.13976,2.09023 -3.13976,2.09022 -2.89743,1.27859 -2.89742,1.27858 -3.59517,0.90318 -3.59518,0.90317 -3.29255,0.35363 -3.29255,0.35362 -3.10745,-0.0538 -3.10745,-0.0538 z m 12,-11.51137 2.4,-0.48324 2.5126,-0.96759 2.51259,-0.9676 2.76741,-1.8512 2.7674,-1.8512 1.77921,-1.87297 1.77922,-1.87297 1.29699,-1.92 1.29699,-1.92 1.0014,-1.98613 1.00141,-1.98614 0.83334,-2.482498 0.83335,-2.482502 0.6083,-3.051364 0.6083,-3.051365 0.19738,-4.64 0.19738,-4.64 -0.51422,-3.875879 -0.51422,-3.875879 -0.81175,-2.844121 -0.81175,-2.844121 -1.41227,-2.950466 -1.41226,-2.950465 -1.25671,-1.849535 -1.25671,-1.849534 -1.49794,-1.66509 -1.49794,-1.66509 -1.98375,-1.503546 -1.98375,-1.503547 -2.59408,-1.225237 -2.59408,-1.225238 -2.68592,-0.667774 L 572,46.996706 l -4.32,-0.174789 -4.32,-0.174789 -2.94239,0.513374 -2.9424,0.513373 -2.63921,0.963193 -2.63921,0.963193 -2.25839,1.330814 -2.2584,1.330815 -2.90905,2.909055 -2.90906,2.909056 -1.34388,2.28039 -1.34388,2.280389 -1.08097,2.56307 -1.08096,2.563069 -0.81688,3.316541 -0.81688,3.316541 -0.36942,3.52 -0.36942,3.52 0.21164,3.803002 0.21163,3.803002 0.63026,3.265922 0.63025,3.265921 0.78095,2.296086 0.78095,2.296086 1.30322,2.60376 1.30323,2.60376 1.61904,2.18397 1.61905,2.18397 1.65509,1.49782 1.65509,1.49782 2.17029,1.4116 2.17029,1.4116 1.77958,0.78701 1.77958,0.78702 2.34715,0.64393 2.34715,0.64393 2.50298,0.28026 2.50298,0.28025 3.04,-0.15836 3.04,-0.15836 z m 149.14675,11.37159 -2.69326,-0.3225 -3.54674,-0.90043 -3.54675,-0.90043 -2.96901,-1.28524 -2.96902,-1.28524 -2.74942,-1.71226 -2.74942,-1.71226 -3.24156,-3.07855 -3.24157,-3.07856 -1.86587,-2.59324 -1.86587,-2.59323 -1.68148,-3.30933 -1.68149,-3.30932 -1.01017,-3.17889 -1.01018,-3.178879 -0.45857,-2.24 -0.45856,-2.24 -0.34391,-3.107388 -0.3439,-3.107387 0.003,-3.612613 0.003,-3.612612 0.32139,-2.88 0.32138,-2.88 0.5125,-2.56 0.5125,-2.56 0.92298,-2.827302 0.92299,-2.827302 1.41829,-2.932698 1.4183,-2.932698 1.6756,-2.56 1.6756,-2.56 3.54661,-3.542695 3.54661,-3.542695 2.24,-1.467248 2.24,-1.467247 2.33059,-1.168384 2.33059,-1.168385 2.14941,-0.812926 2.14941,-0.812926 3.36,-0.796704 3.36,-0.796705 6.08,-0.168171 6.08,-0.168172 3.84184,0.656042 3.84184,0.656042 3.03816,1.012846 3.03816,1.012846 3.04,1.560892 3.04,1.560892 2.72895,2.054378 2.72895,2.054378 2.28168,2.402014 2.28168,2.402015 1.65917,2.349956 1.65917,2.349957 1.60312,3.179785 1.60312,3.179786 1.10501,3.373303 1.10501,3.373302 0.5979,3.526912 0.5979,3.526912 0.21363,4 0.21363,4 -0.35444,3.974158 -0.35443,3.974158 -0.65573,3.225842 -0.65573,3.225842 -0.8027,2.399999 -0.80269,2.4 -1.25637,2.6838 -1.25636,2.6838 -1.78611,2.65682 -1.7861,2.65682 -2.56396,2.74041 -2.56396,2.74042 -2.70475,2.02995 -2.70476,2.02996 -2.78542,1.45964 -2.78541,1.45964 -2.78407,0.97475 -2.78407,0.97475 -3.45593,0.67182 -3.45593,0.67182 -4.96,0.12323 -4.96,0.12323 z m 12.44901,-11.19954 1.76424,-0.31145 2.08,-0.66844 2.08,-0.66845 1.92,-0.95297 1.92,-0.95297 1.92,-1.36573 1.92,-1.36573 1.96488,-2.05226 1.96487,-2.05227 1.53125,-2.36707 1.53126,-2.36707 1.08372,-2.56962 1.08373,-2.569612 0.74856,-2.887589 0.74856,-2.887588 0.39699,-3.166794 0.39698,-3.166793 -0.18875,-5.313207 -0.18876,-5.313206 -0.78181,-3.36 -0.78181,-3.36 -0.99683,-2.584861 -0.99683,-2.58486 -1.678,-2.847494 -1.67801,-2.847495 -3.04,-3.050583 -3.04,-3.050582 -2.94771,-1.532377 -2.9477,-1.532377 -3.1323,-0.843095 -3.13229,-0.843095 -5.76,0.0012 -5.76,0.0012 -2.56,0.700464 -2.56,0.700465 -2.69708,1.289393 -2.69708,1.289393 -1.96546,1.402522 -1.96546,1.402522 -1.80646,1.951202 -1.80647,1.951201 -1.00035,1.453954 -1.00034,1.453953 -1.54347,3.25968 -1.54347,3.259681 -0.65641,2.4 -0.65641,2.4 -0.50365,2.88 -0.50366,2.88 -0.0102,4.96 -0.0102,4.96 0.53667,3.36 0.53667,3.36 1.08755,3.324129 1.08755,3.324129 1.34434,2.52305 1.34433,2.52304 1.87248,2.36162 1.87249,2.36161 2.30206,1.84265 2.30206,1.84266 3.2,1.52648 3.2,1.52649 2.03737,0.52051 2.03737,0.52052 2.44263,0.27788 2.44263,0.27789 3.03576,-0.1612 3.03575,-0.1612 z M 235.89437,37.44 248.8,37.4512 l 28.48146,76.43821 28.07929,-76.449456 h 12.76238 l -34.5267,90.399996 -13.03643,0.1666 z m 93.38563,0 h 12.16 V 128 h -12.16 z m 32.96,0 34.4,0.0066 3.84,0.334861 3.84,0.33486 3.02187,0.652673 3.02186,0.652673 2.73814,0.965963 2.73813,0.965962 2.24,1.127476 2.24,1.127476 2.4,1.605938 2.4,1.605938 3.24012,3.229789 3.24012,3.229788 1.66727,2.56 1.66727,2.56 1.21743,2.56 1.21744,2.56 0.97204,3.05161 0.97205,3.051611 0.5786,2.868389 0.57861,2.86839 v 7.36 7.36 l -0.5685,2.88 -0.56849,2.88 -0.95016,3.100251 -0.95016,3.100252 -1.74297,3.45975 -1.74297,3.45975 -2.0731,2.7439 -2.0731,2.7439 -2.11197,1.97565 -2.11198,1.97565 -2.30877,1.63011 -2.30878,1.6301 -2.81727,1.42223 -2.81728,1.42224 -2.78272,0.92863 -2.78273,0.92863 -3.2,0.71377 -3.2,0.71376 -41.12,0.25351 z m 38.36921,79.35272 2.3692,-0.30753 2.1108,-0.52825 2.11079,-0.52826 2.45915,-1.0359 2.45915,-1.03591 2.23382,-1.48504 2.23382,-1.48504 2.34703,-2.50125 2.34703,-2.50124 1.41296,-2.4816 1.41295,-2.48159 1.05561,-3.090554 1.0556,-3.090552 0.54936,-3.04 0.54935,-3.04 0.002,-5.44 0.002,-5.44 -0.55747,-2.839679 -0.55746,-2.839679 -0.82008,-2.600321 -0.82007,-2.600321 -1.11632,-2.24 -1.11632,-2.24 -1.73196,-2.318001 -1.73197,-2.318 -2.04486,-1.682 -2.04486,-1.681999 -1.81268,-1.093395 -1.81268,-1.093394 -2.81699,-1.058104 -2.817,-1.058105 -2.80127,-0.488501 -2.80127,-0.488501 H 374.4 V 117.12 l 23.84,-0.02 z M 456.32,37.44 h 55.36 v 11.200001 h -43.2 v 26.56 h 34.24 v 10.874391 l -34.08,0.1656 V 116.96 l 44,0.1644 V 128 H 456.32 Z M 641.28,48.640001 H 614.72 V 37.44 h 64.96 V 48.640001 H 653.44 V 128 H 641.28 Z M 788.48,37.44 h 13.33492 l 44.42508,67.49336 0.24,0.0133 0.24,0.0133 V 37.44 h 12.16 V 128 L 848.48,127.982 800.8,56.480521 800.63723,128 H 788.48 Z"
         id="path22"
         sodipodi:nodetypes="cccccccccccccccccccccccccccccccccccccccccccccccccccccccccccccccccccccccccccccccccccccccccccccccccccccccccccccccccccccccccccccccccccccccccccccccccccccccccccccccccccccccccccccccccccccccccccccccccccccccccccccccccccccccccccccccccccccccccccccccccccccccccccccccccccccccccccccccccccccccccccccccccccccccccccccccccccccccccccccccccccccccccccccccccccccccccccccccccccccccccccccccccccccccccccccccccccccccccccccccccccccccccccccccccccccccccccccccccccccccccccccccccc" />
    </g>
  </g>
</svg>
