<?xml version="1.0" encoding="UTF-8" standalone="no"?>
<!-- Created with Inkscape (http://www.inkscape.org/) -->

<svg
   width="1015.7354mm"
   height="283.24161mm"
   viewBox="0 0 1015.7354 283.24161"
   version="1.1"
   id="svg1"
   inkscape:version="1.3.2 (091e20e, 2023-11-25, custom)"
   sodipodi:docname="uzebox.svg"
   xmlns:inkscape="http://www.inkscape.org/namespaces/inkscape"
   xmlns:sodipodi="http://sodipodi.sourceforge.net/DTD/sodipodi-0.dtd"
   xmlns:xlink="http://www.w3.org/1999/xlink"
   xmlns="http://www.w3.org/2000/svg"
   xmlns:svg="http://www.w3.org/2000/svg">
  <sodipodi:namedview
     id="namedview1"
     pagecolor="#ffffff"
     bordercolor="#000000"
     borderopacity="0.25"
     inkscape:showpageshadow="2"
     inkscape:pageopacity="0.0"
     inkscape:pagecheckerboard="0"
     inkscape:deskcolor="#d1d1d1"
     inkscape:document-units="mm"
     inkscape:zoom="0.2025577"
     inkscape:cx="5307.1299"
     inkscape:cy="2604.1963"
     inkscape:window-width="3840"
     inkscape:window-height="2054"
     inkscape:window-x="-11"
     inkscape:window-y="-11"
     inkscape:window-maximized="1"
     inkscape:current-layer="layer1" />
  <defs
     id="defs1">
    <linearGradient
       xlink:href="#d"
       id="k"
       x1="277.51401"
       y1="72.777"
       x2="321.88699"
       y2="26.268"
       gradientUnits="userSpaceOnUse"
       gradientTransform="matrix(3.0687192,0,0,2.7012668,65.272367,138.55917)" />
    <linearGradient
       y2="25.554001"
       x2="299.87201"
       y1="70.387001"
       x1="299.87201"
       gradientUnits="userSpaceOnUse"
       id="d">
      <stop
         style="stop-color:#a6a6a6;stop-opacity:1"
         stop-color="#d9d9d9"
         offset="0"
         id="stop1" />
      <stop
         stop-color="#d9d9d9"
         offset="1"
         style="stop-color:#efefef;stop-opacity:1"
         id="stop2" />
    </linearGradient>
    <linearGradient
       xlink:href="#d"
       id="i"
       x1="62.452"
       y1="99.211998"
       x2="129.927"
       y2="6.1939998"
       gradientUnits="userSpaceOnUse"
       gradientTransform="matrix(3.0687192,0,0,2.7012668,65.272367,138.55917)" />
    <linearGradient
       xlink:href="#e"
       id="h"
       gradientUnits="userSpaceOnUse"
       x1="166.36099"
       y1="92.068001"
       x2="212.349"
       y2="23.511"
       gradientTransform="matrix(3.0687192,0,0,2.7012668,65.272367,138.55917)" />
    <linearGradient
       y2="25.554001"
       x2="299.87201"
       y1="70.387001"
       x1="299.87201"
       gradientUnits="userSpaceOnUse"
       id="e">
      <stop
         style="stop-color:#a6a6a6;stop-opacity:1"
         stop-color="#d9d9d9"
         offset="0"
         id="stop3" />
      <stop
         stop-color="#d9d9d9"
         offset="1"
         style="stop-color:#f2f2f2;stop-opacity:1"
         id="stop4" />
    </linearGradient>
    <linearGradient
       xlink:href="#c"
       id="g"
       x1="227.409"
       y1="69.675003"
       x2="262.64401"
       y2="27.277"
       gradientUnits="userSpaceOnUse"
       gradientTransform="matrix(3.0687192,0,0,2.7012668,65.272367,138.55917)" />
    <linearGradient
       id="c"
       gradientUnits="userSpaceOnUse"
       x1="299.87201"
       y1="70.387001"
       x2="299.87201"
       y2="25.554001">
      <stop
         offset="0"
         stop-color="#d9d9d9"
         id="stop7" />
      <stop
         offset="1"
         stop-color="#d9d9d9"
         style="stop-color:#e5e5e5;stop-opacity:1"
         id="stop8" />
    </linearGradient>
  </defs>
  <g
     inkscape:label="Layer 1"
     inkscape:groupmode="layer"
     id="layer1"
     transform="translate(-64.558321,-137.84789)">
    <path
       d="M 920.40909,218.3949 H 782.44254 a 0.87151632,0.7671598 0 0 0 -0.85042,0.60744 l -28.78455,119.57704 a 0.86844756,0.76445854 0 0 0 0.85041,0.92437 h 137.96655 a 0.87151632,0.7671598 0 0 0 0.85042,-0.60745 l 28.78456,-119.57703 a 0.86844756,0.76445854 0 0 0 -0.85042,-0.92437 z m -61.87152,92.14549 a 0.85924138,0.75635473 0 0 1 -0.83721,0.59951 H 801.236 a 0.85617261,0.75365347 0 0 1 -0.83854,-0.90984 l 15.13495,-62.86929 a 0.85924138,0.75635473 0 0 1 0.8372,-0.59952 h 56.46449 c 0.54671,0 0.95078,0.44369 0.83722,0.90983 z m -101.96426,-78.60945 -15.6106,-13.31737 a 0.88992855,0.7833674 0 0 0 -0.61668,-0.2192 H 621.54361 a 0.88379115,0.77796487 0 0 0 -0.86494,0.61801 l -28.77848,119.54996 a 0.88379115,0.77796487 0 0 0 0.86494,0.94022 h 118.50173 c 0.18355,0 0.36182,-0.0528 0.51237,-0.14658 l 22.51827,-14.13029 a 0.88072237,0.77526361 0 0 0 0.35257,-0.47275 l 7.92963,-32.93655 a 0.88379115,0.77796487 0 0 0 -0.24826,-0.72101 l -16.23348,-13.8494 a 0.88992855,0.7833674 0 0 1 0.10564,-1.19376 l 23.48488,-14.73548 a 0.88072237,0.77526361 0 0 0 0.35259,-0.47275 l 6.78803,-28.19574 a 0.88072237,0.77526361 0 0 0 -0.25223,-0.71836 z m -59.5915,78.58792 a 0.88685991,0.78066614 0 0 1 -0.86494,0.61801 h -57.48948 a 0.88379115,0.77796487 0 0 1 -0.86494,-0.94286 l 4.00779,-16.5858 a 0.88379115,0.77796487 0 0 1 0.86494,-0.61536 h 57.46479 c 0.56122,0 0.98247,0.4569 0.86495,0.94021 z m 11.13019,-46.2349 a 0.88685991,0.78066614 0 0 1 -0.86495,0.61801 H 649.7577 a 0.88685991,0.78066614 0 0 1 -0.86494,-0.94286 l 4.00766,-16.58581 a 0.88379115,0.77796487 0 0 1 0.86495,-0.61536 h 57.46492 c 0.56121,0 0.98246,0.45691 0.86494,0.94021 z m -479.32469,21.09143 -12.88555,53.52566 a 0.85924138,0.75635473 0 0 1 -0.84078,0.59952 H 76.173762 a 0.85924138,0.75635473 0 0 1 -0.840779,-0.91513 l 28.787647,-119.5905 a 0.85924138,0.75635473 0 0 1 0.84078,-0.59952 h 39.41156 a 0.85924138,0.75635473 0 0 1 0.84079,0.91513 l -21.87999,90.90036 a 0.85924138,0.75635473 0 0 0 0.84079,0.91513 h 56.54421 a 0.85924138,0.75635473 0 0 0 0.84079,-0.59952 l 22.03339,-91.52695 a 0.85924138,0.75635473 0 0 1 0.84078,-0.59952 h 39.41156 a 0.85924138,0.75635473 0 0 1 0.84079,0.91512 l -8.25486,34.28982 a 0.85924138,0.75635473 0 0 0 1.20287,0.84514 L 497.21704,149.44378 c 0.81636,-0.33013 1.5896,0.52425 1.04335,1.15018 L 348.80763,321.98934 c -0.54616,0.62725 0.22713,1.48031 1.04335,1.15151 l 93.20621,-37.70167 a 0.85310398,0.7509522 0 0 0 0.48172,-0.53217 L 459.4042,218.996 a 0.85924138,0.75635473 0 0 1 0.84077,-0.59951 H 597.1436 a 0.85924138,0.75635473 0 0 1 0.84118,0.91511 l -6.46266,26.84788 a 0.85924138,0.75635473 0 0 1 -0.84117,0.59952 h -96.52956 a 0.85924138,0.75635473 0 0 0 -0.84078,0.59951 l -4.00162,16.62899 a 0.85924138,0.75635473 0 0 0 0.84079,0.91512 h 62.31647 a 0.85924138,0.75635473 0 0 1 0.84118,0.91513 l -6.39821,26.57782 a 0.85924138,0.75635473 0 0 1 -0.84117,0.59952 h -63.04678 a 0.85924138,0.75635473 0 0 0 -0.84078,0.59952 l -4.00161,16.62911 a 0.85924138,0.75635473 0 0 0 0.84078,0.91513 h 95.79926 a 0.85924138,0.75635473 0 0 1 0.84117,0.91644 l -6.46265,26.84788 a 0.85924138,0.75635473 0 0 1 -0.84117,0.59951 H 431.45781 a 0.85924138,0.75635473 0 0 1 -0.84078,-0.91512 l 5.26899,-21.88838 a 0.85924138,0.75635473 0 0 0 -1.20287,-0.84512 L 174.67364,421.01703 c -0.80711,0.32616 -1.57426,-0.51898 -1.03107,-1.13698 l 149.47732,-171.4251 c 0.54616,-0.62594 -0.22713,-1.48031 -1.04335,-1.15018 l -92.80422,37.53686 a 0.86537879,0.76175727 0 0 0 -0.48489,0.53217 z m 682.00755,53.18523 3.7285,-15.48634 a 0.88379115,0.77796487 0 0 1 0.25487,-0.40275 l 51.67112,-43.28234 a 0.88992855,0.7833674 0 0 0 0.14129,-0.9772 l -30.635,-43.32023 a 0.88072237,0.77526361 0 0 1 -0.11885,-0.57311 l 3.73154,-15.4998 a 0.88992855,0.7833674 0 0 1 0.8689,-0.61934 h 40.02831 a 0.88992855,0.7833674 0 0 1 0.75138,0.36447 l 20.95318,29.41405 a 0.88685991,0.78066614 0 0 0 1.3625,0.15187 l 35.4745,-29.71395 a 0.88992855,0.7833674 0 0 1 0.6101,-0.21656 h 39.789 a 0.88992855,0.7833674 0 0 1 0.8689,0.94285 l -3.6702,15.24864 a 0.88379115,0.77796487 0 0 1 -0.255,0.40276 l -51.7385,43.51462 a 0.88379115,0.77796487 0 0 0 -0.1387,0.97719 l 30.6903,43.07991 a 0.88992855,0.7833674 0 0 1 0.1189,0.57575 l -3.7899,15.7375 a 0.88992855,0.7833674 0 0 1 -0.8689,0.618 h -40.0285 a 0.88992855,0.7833674 0 0 1 -0.7513,-0.36446 L 988.88996,309.7181 a 0.88685991,0.78066614 0 0 0 -1.36239,-0.15187 l -35.47446,29.71395 a 0.88992855,0.7833674 0 0 1 -0.61008,0.21656 H 911.654 a 0.88072237,0.77526361 0 0 1 -0.8623,-0.93757 z"
       style="fill:#040006;stroke-width:2.87915"
       id="path15" />
    <path
       d="M 910.37468,207.58785 H 772.40787 a 0.87347269,0.76865596 0 0 0 -0.84911,0.60744 l -28.78613,119.57492 a 0.86997883,0.76516211 0 0 0 0.84909,0.92569 h 137.96681 a 0.87347269,0.76865596 0 0 0 0.85307,-0.60744 l 28.78257,-119.57849 a 0.86997883,0.76516211 0 0 0 -0.84911,-0.92305 z m -61.87337,92.14443 a 0.85949717,0.75468044 0 0 1 -0.83854,0.60084 h -56.46118 a 0.85600331,0.75468044 0 0 1 -0.83854,-0.90852 l 15.13547,-62.87261 a 0.85949717,0.75468044 0 0 1 0.83853,-0.59688 h 56.46133 c 0.54802,0 0.95342,0.43974 0.83853,0.90853 z"
       style="fill:url(#g);fill-opacity:1;stroke:#000000;stroke-width:1.43957;stroke-miterlimit:4;stroke-dasharray:none;stroke-opacity:1"
       id="path16" />
    <path
       d="m 746.53916,221.12323 -15.61072,-13.31525 a 0.89094218,0.78263161 0 0 0 -0.61801,-0.22053 H 611.50761 a 0.88395436,0.77913763 0 0 0 -0.8623,0.61801 l -28.77914,119.55049 a 0.88395436,0.77913763 0 0 0 0.86231,0.94021 h 118.50226 a 0.96431389,0.96431389 0 0 0 0.51368,-0.14657 l 22.518,-14.12923 a 0.88046051,0.77564378 0 0 0 0.35259,-0.47539 l 7.93106,-32.93339 a 0.88395436,0.77913763 0 0 0 -0.24825,-0.72365 l -16.23613,-13.84966 a 0.89094218,0.78263161 0 0 1 0.10564,-1.19112 l 23.48238,-14.7372 a 0.88046051,0.77564378 0 0 0 0.35259,-0.47142 l 6.78868,-28.19574 a 0.88046051,0.77564378 0 0 0 -0.25221,-0.71968 z m -59.59189,78.58805 a 0.88744833,0.77913763 0 0 1 -0.86626,0.61801 h -57.48856 a 0.88395436,0.77913763 0 0 1 -0.86627,-0.94285 l 4.0074,-16.58554 a 0.88395436,0.77913763 0 0 1 0.86627,-0.61537 h 57.46399 c 0.55859,0 0.98115,0.45426 0.86626,0.94022 z m 11.12807,-46.23464 a 0.88744833,0.77913763 0 0 1 -0.8623,0.61801 h -57.49543 a 0.88744833,0.77913763 0 0 1 -0.86362,-0.94285 l 4.0074,-16.58541 a 0.88395436,0.77913763 0 0 1 0.8623,-0.61537 h 57.46756 c 0.55859,0 0.97851,0.45426 0.86231,0.94021 z"
       style="fill:url(#h);fill-opacity:1;stroke:#000000;stroke-width:1.43957;stroke-miterlimit:4;stroke-dasharray:none;stroke-opacity:1"
       id="path26" />
    <path
       d="m 218.75197,274.56927 -12.88545,53.52645 a 0.85949717,0.75468044 0 0 1 -0.83854,0.59424 H 66.135336 a 0.85949717,0.75468044 0 0 1 -0.838534,-0.91249 L 94.082969,208.18856 a 0.85949717,0.75468044 0 0 1 0.838534,-0.60085 H 134.3326 a 0.85949717,0.75468044 0 0 1 0.84552,0.91513 l -21.88573,90.90063 a 0.85949717,0.75468044 0 0 0 0.83853,0.91512 h 56.54863 a 0.85949717,0.75468044 0 0 0 0.8421,-0.60083 l 22.03247,-91.5259 a 0.85949717,0.75468044 0 0 1 0.8421,-0.60084 h 39.41108 a 0.85949717,0.75468044 0 0 1 0.83854,0.91908 l -8.25258,34.28904 a 0.85949717,0.75468044 0 0 0 1.20538,0.84513 l 259.58213,-105.0053 c 0.81754,-0.33144 1.58971,0.52425 1.04467,1.14886 L 338.76727,311.18071 c -0.54498,0.62857 0.22713,1.48137 1.04467,1.15282 l 93.20653,-37.69902 a 0.85250934,0.75118659 0 0 0 0.48213,-0.53482 l 15.86227,-65.91232 a 0.85949717,0.75468044 0 0 1 0.84197,-0.59688 h 136.90105 a 0.85949717,0.75468044 0 0 1 0.83853,0.91513 l -6.46371,26.84707 a 0.85949717,0.75468044 0 0 1 -0.83854,0.60085 h -96.52918 a 0.85949717,0.75468044 0 0 0 -0.83853,0.59686 l -4.004,16.63097 a 0.85949717,0.75468044 0 0 0 0.83853,0.91513 h 62.31705 a 0.85949717,0.75468044 0 0 1 0.84248,0.91512 l -6.39728,26.57795 a 0.85949717,0.75468044 0 0 1 -0.83853,0.59821 h -63.05072 a 0.85949717,0.75468044 0 0 0 -0.83854,0.60083 l -4.004,16.63084 a 0.85949717,0.75468044 0 0 0 0.83854,0.91512 h 95.80243 a 0.85949717,0.75468044 0 0 1 0.83853,0.91513 l -6.46358,26.84708 a 0.85949717,0.75468044 0 0 1 -0.83853,0.59688 H 421.41862 a 0.85949717,0.75468044 0 0 1 -0.83853,-0.91513 l 5.26528,-21.88573 a 0.85949717,0.75468044 0 0 0 -1.20194,-0.84514 L 164.70495,410.17881 c -0.82811,0.33541 -1.60719,-0.52821 -1.0551,-1.16339 L 313.08356,237.64354 c 0.54498,-0.62857 -0.22713,-1.48136 -1.04467,-1.15282 l -92.80472,37.54532 a 0.85250934,0.75118659 0 0 0 -0.48212,0.53481 z"
       style="fill:url(#i);fill-opacity:1;stroke:#000000;stroke-width:1.43957;stroke-miterlimit:4;stroke-dasharray:none;stroke-opacity:1"
       id="path27" />
    <path
       d="m 900.75953,327.75331 3.72797,-15.48845 a 0.75817428,0.75817428 0 0 1 0.25486,-0.40144 l 51.67469,-43.28234 c -8.2805,-14.61135 -20.32395,-29.91466 -30.49464,-44.29545 a 0.69877823,0.69877823 0 0 1 -0.11885,-0.5731 l 3.73154,-15.49902 c 0.0924,-0.36314 0.4503,-0.618 0.87023,-0.62197 h 40.02606 c 0.30768,0 0.59027,0.13998 0.75533,0.36711 l 20.9528,29.4151 c 0.2971,0.41861 0.95341,0.4886 1.36264,0.15055 l 35.47354,-29.71552 a 0.95732606,0.95732606 0 0 1 0.6114,-0.21658 h 39.7884 c 0.5626,0.003 0.9811,0.45823 0.8702,0.94286 l -3.6686,15.25075 a 0.75817428,0.75817428 0 0 1 -0.2588,0.40144 l -51.7305,43.51991 c 8.291,14.53462 20.3694,29.75752 30.554,44.05788 a 0.70576592,0.70576592 0 0 1 0.1189,0.57311 l -3.7873,15.73988 c -0.092,0.3605 -0.4542,0.61801 -0.8702,0.61801 h -40.0295 a 0.9223872,0.9223872 0 0 1 -0.75137,-0.36711 l -20.95291,-29.41155 c -0.29712,-0.41992 -0.95739,-0.49255 -1.36265,-0.15318 l -35.47342,29.71553 a 0.95732606,0.95732606 0 0 1 -0.6114,0.21657 h -39.7885 c -0.5665,0 -0.98907,-0.45426 -0.87286,-0.94286 z"
       style="fill:url(#k);fill-opacity:1;stroke:#000000;stroke-width:1.43957;stroke-miterlimit:4;stroke-dasharray:none;stroke-opacity:1"
       id="path28" />
  </g>
</svg>
