<?xml version="1.0" encoding="UTF-8" standalone="no"?>
<!-- Created with Inkscape (http://www.inkscape.org/) -->

<svg
   width="1015.7354mm"
   height="101.49416mm"
   viewBox="0 0 1015.7354 101.49416"
   version="1.1"
   id="svg1"
   inkscape:version="1.3.2 (091e20e, 2023-11-25, custom)"
   sodipodi:docname="vic20.svg"
   xmlns:inkscape="http://www.inkscape.org/namespaces/inkscape"
   xmlns:sodipodi="http://sodipodi.sourceforge.net/DTD/sodipodi-0.dtd"
   xmlns="http://www.w3.org/2000/svg"
   xmlns:svg="http://www.w3.org/2000/svg">
  <sodipodi:namedview
     id="namedview1"
     pagecolor="#ffffff"
     bordercolor="#000000"
     borderopacity="0.25"
     inkscape:showpageshadow="2"
     inkscape:pageopacity="0.0"
     inkscape:pagecheckerboard="0"
     inkscape:deskcolor="#d1d1d1"
     inkscape:document-units="mm"
     inkscape:zoom="0.2025577"
     inkscape:cx="-2932.4978"
     inkscape:cy="-2530.1433"
     inkscape:window-width="3840"
     inkscape:window-height="2054"
     inkscape:window-x="-11"
     inkscape:window-y="-11"
     inkscape:window-maximized="1"
     inkscape:current-layer="layer1" />
  <defs
     id="defs1" />
  <g
     inkscape:label="Layer 1"
     inkscape:groupmode="layer"
     id="layer1"
     transform="translate(245.79792,-178.85833)">
    <g
       id="g20"
       transform="matrix(0.26458333,0,0,0.26458333,-245.79792,178.85833)">
	<g
   id="g19">
		<g
   id="g4">
			<path
   id="path5_00000046327233901812553220000015793626023896207011_"
   class="st0"
   d="M 3647.2,0 C 3752.7,0 3839,86.3 3839,191.8 v 0 c 0,105.5 -86.3,191.8 -191.8,191.8 H 191.8 C 86.3,383.5 0,297.2 0,191.8 v 0 C 0,86.3 86.3,0 191.8,0 Z"
   style="clip-rule:evenodd;fill:#3e3632;fill-rule:evenodd" />

			<g
   id="g3">
				<polygon
   id="polygon7_00000007409300507738500290000006126899624731857565_"
   class="st52"
   points="2114,83.5 2114,55.5 2612.1,55.5 2612.1,83.5 "
   style="clip-rule:evenodd;fill:#f20029;fill-rule:evenodd" />

				<polygon
   class="st53"
   points="2114,144.7 2114,116.6 2612.1,116.6 2612.1,144.7 "
   id="polygon1"
   style="clip-rule:evenodd;fill:#fd7801;fill-rule:evenodd" />

				<polygon
   class="st54"
   points="2114,205.7 2114,177.8 2612.1,177.8 2612.1,205.7 "
   id="polygon2"
   style="clip-rule:evenodd;fill:#f2f540;fill-rule:evenodd" />

				<polygon
   class="st55"
   points="2114,266.9 2114,238.8 2612.1,238.8 2612.1,266.9 "
   id="polygon3"
   style="clip-rule:evenodd;fill:#48cc31;fill-rule:evenodd" />

				<polygon
   id="polygon15_00000124857984631938299350000002001710775763325088_"
   class="st56"
   points="2114,328 2114,300 2612.1,300 2612.1,328 "
   style="clip-rule:evenodd;fill:#14a3fd;fill-rule:evenodd" />

			</g>

		</g>

		<g
   id="g12">
			<path
   class="st19"
   d="m 505.9,182.6 c -1.8,-16.4 -20,-15.9 -32.8,-15.9 -7,0 -21.6,0.2 -27.2,4.9 -5.4,4.5 -5.4,16.2 -5.4,22.5 0,6.1 0.2,14.1 4.9,18.6 5.6,5.4 21.1,5.8 28.3,5.8 4.9,0 9.7,0 14.6,-0.7 9.9,-1.3 15.7,-4.3 17.3,-14.8 H 546 c -0.5,11.9 -1.1,23.4 -9.9,32.3 -9.2,9.7 -23.4,11.7 -36.2,12.4 -9.7,0.4 -19.1,0.7 -28.7,0.7 -17.3,0 -42,0.4 -56.8,-9.9 -14.4,-10.1 -13.7,-31.2 -13.7,-46.7 0,-15.3 -0.2,-33.5 12.6,-44.2 13.9,-11.7 42.9,-10.8 60,-10.8 17.1,0 46.7,-0.7 60.9,10.8 3.8,3.1 6.3,6.3 8.3,11 3.4,7.9 3.6,15.5 3.8,24 z"
   id="path4"
   style="fill:#ffffff" />

			<path
   class="st19"
   d="m 714.2,211.3 c -0.9,10.3 -3.6,19.5 -11.7,26.5 -13.7,11.9 -46,10.6 -62.9,10.6 -17.5,0 -48.5,1.6 -62.9,-10.6 -4,-3.4 -6.5,-7 -8.5,-11.7 -4.5,-11 -3.8,-24.9 -3.8,-36.6 0,-5.8 0,-11.9 0.7,-17.7 0.9,-10.1 4.7,-19.1 13,-25.4 13.5,-10.3 45.6,-9.7 61.5,-9.7 16.2,0 47.8,-0.7 61.5,9.7 3.8,2.9 6.3,5.8 8.5,10.1 5.8,10.3 5.2,23.6 5.2,35 0.1,6.5 -0.1,13.3 -0.6,19.8 z m -44,-38.8 c -5.8,-5.6 -22.9,-5.8 -30.3,-5.8 -7.2,0 -14.6,0.2 -21.6,1.6 -13.9,2.7 -14.1,13.5 -14.1,25.6 0,5.8 -0.2,13.7 4,18.2 6.1,6.5 23.6,6.5 31.7,6.5 7.6,0 15.7,0 23.1,-2 12.4,-3.4 12.1,-14.6 12.1,-25.6 0,-6.1 -0.2,-14 -4.9,-18.5 z"
   id="path5"
   style="fill:#ffffff" />

			<path
   class="st19"
   d="M 928.7,245.6 V 196 c 0,-22.9 -2.5,-29.4 -26.9,-29.4 -27.4,0 -29.4,10.8 -29.4,35.3 v 43.8 h -39.7 v -49.6 -7.4 c 0,-19.3 -8.3,-22 -26.3,-22 -28.3,0 -30.1,10.1 -30.1,35.3 v 43.8 H 736.6 V 139.5 h 37.5 v 15.9 h 1.8 c 7.4,-16.4 27.2,-18.6 43.1,-18.6 20.2,0 38,3.4 48.3,22.2 8.1,-19.8 26.9,-22.2 46,-22.2 15.5,0 32.8,1.8 44,13.7 3.8,4 6.7,8.3 8.3,13.7 3.1,10.3 2.9,21.3 2.9,31.9 v 49.6 z"
   id="path6"
   style="fill:#ffffff" />

			<path
   class="st19"
   d="M 1183.5,245.6 V 196 c 0,-22.9 -2.5,-29.4 -26.9,-29.4 -27.4,0 -29.4,10.8 -29.4,35.3 v 43.8 h -39.7 v -49.6 -7.4 c 0,-19.3 -8.3,-22 -26.3,-22 -28.3,0 -30.1,10.1 -30.1,35.3 v 43.8 H 991.4 V 139.5 h 37.5 v 15.9 h 1.8 c 7.4,-16.4 27.2,-18.6 43.1,-18.6 20.2,0 38,3.4 48.3,22.2 8.1,-19.8 26.9,-22.2 46,-22.2 15.5,0 32.8,1.8 44,13.7 3.8,4 6.7,8.3 8.3,13.7 3.1,10.3 2.9,21.3 2.9,31.9 v 49.6 z"
   id="path7"
   style="fill:#ffffff" />

			<path
   class="st19"
   d="m 1393.6,211.3 c -0.9,10.3 -3.6,19.5 -11.7,26.5 -13.7,11.9 -46,10.6 -62.9,10.6 -17.5,0 -48.5,1.6 -62.9,-10.6 -4,-3.4 -6.5,-7 -8.5,-11.7 -4.5,-11 -3.8,-24.9 -3.8,-36.6 0,-5.8 0,-11.9 0.7,-17.7 0.9,-10.1 4.7,-19.1 13,-25.4 13.5,-10.3 45.6,-9.7 61.5,-9.7 16.2,0 47.8,-0.7 61.5,9.7 3.8,2.9 6.3,5.8 8.5,10.1 5.8,10.3 5.2,23.6 5.2,35 0.1,6.5 -0.1,13.3 -0.6,19.8 z m -44,-38.8 c -5.8,-5.6 -22.9,-5.8 -30.3,-5.8 -7.2,0 -14.6,0.2 -21.6,1.6 -13.9,2.7 -14.1,13.5 -14.1,25.6 0,5.8 -0.2,13.7 4,18.2 6.1,6.5 23.6,6.5 31.7,6.5 7.6,0 15.7,0 23.1,-2 12.4,-3.4 12.1,-14.6 12.1,-25.6 0.1,-6.1 -0.2,-14 -4.9,-18.5 z"
   id="path8"
   style="fill:#ffffff" />

			<path
   class="st19"
   d="m 1525.7,245.6 v -13.9 h -2 c -2.7,4.5 -4.7,7.4 -9.2,10.1 -9.9,6.1 -26.5,6.5 -37.7,6.5 -16.4,0 -38.6,0.2 -51.6,-11.2 -11.7,-10.3 -11.5,-30.8 -11.5,-45.1 0,-16.6 0.4,-36.8 15.7,-47.2 13.5,-9 32.3,-8.1 47.8,-8.1 11.7,0 24.5,-0.2 34.8,5.8 5.2,2.9 7,5.8 9.9,11 h 1.6 V 95.9 h 39.7 v 149.8 z m -4,-69 c -4.7,-10.8 -21.8,-9.9 -31.4,-9.9 -9.9,0 -29.9,-1.1 -34.8,10.1 -1.8,4.5 -2,10.3 -2,15 0,6.3 -0.2,15.9 4.5,20.9 5.4,5.8 22.7,5.8 29.9,5.8 8.1,0 18,-0.4 25.6,-2.9 10.8,-3.4 10.6,-13.7 10.6,-23.4 -0.2,-4.9 -0.4,-10.9 -2.4,-15.6 z"
   id="path9"
   style="fill:#ffffff" />

			<path
   class="st19"
   d="m 1734.5,211.3 c -0.9,10.3 -3.6,19.5 -11.7,26.5 -13.7,11.9 -46,10.6 -62.9,10.6 -17.5,0 -48.5,1.6 -62.9,-10.6 -4,-3.4 -6.5,-7 -8.5,-11.7 -4.5,-11 -3.8,-24.9 -3.8,-36.6 0,-5.8 0,-11.9 0.7,-17.7 0.9,-10.1 4.7,-19.1 13,-25.4 13.5,-10.3 45.6,-9.7 61.5,-9.7 16.2,0 47.8,-0.7 61.5,9.7 3.8,2.9 6.3,5.8 8.5,10.1 5.8,10.3 5.2,23.6 5.2,35 0.1,6.5 -0.2,13.3 -0.6,19.8 z m -43.9,-38.8 c -5.8,-5.6 -22.9,-5.8 -30.3,-5.8 -7.2,0 -14.6,0.2 -21.6,1.6 -13.9,2.7 -14.1,13.5 -14.1,25.6 0,5.8 -0.2,13.7 4,18.2 6.1,6.5 23.6,6.5 31.7,6.5 7.6,0 15.7,0 23.1,-2 12.4,-3.4 12.1,-14.6 12.1,-25.6 0,-6.1 -0.2,-14 -4.9,-18.5 z"
   id="path10"
   style="fill:#ffffff" />

			<path
   class="st19"
   d="m 1879.8,186.7 h -37.3 c 0,-15.7 -5.2,-20 -20.9,-20 -24.5,0 -25.2,15.5 -25.2,35 v 44 h -39.7 V 139.5 h 37.5 v 15.9 h 1.8 c 9.2,-16.4 24,-18.6 41.3,-18.6 12.4,0 27.2,1.6 35.5,11.9 7.4,9.2 7.2,22.5 7.2,33.7 0,1.4 -0.2,2.9 -0.2,4.3 z"
   id="path11"
   style="fill:#ffffff" />

			<path
   class="st19"
   d="m 2038.4,201.2 h -103.7 c 0,6.1 -0.2,13 4.9,17.3 5.4,4.3 20.4,4.5 26.9,4.5 6.5,0 24.7,0.2 29,-4.5 1.8,-1.8 2.2,-4.3 2.7,-6.7 h 39.5 c -0.9,10.1 -2.9,18 -10.6,24.9 -13.7,12.4 -46.5,11.7 -63.8,11.7 -15.7,0 -42,0.2 -55,-9.9 -4,-3.1 -6.7,-6.7 -9,-11.2 -4.9,-10.3 -4.5,-23.1 -4.5,-34.1 0,-6.7 0,-13.5 0.7,-20 1.1,-10.8 4.7,-20.4 13.7,-26.9 13.9,-10.1 41.8,-9.4 58.2,-9.4 15,0 31.4,-0.4 46,3.8 23.6,7 25.2,28.5 25.2,49.9 0,3.4 0,7 -0.2,10.6 z M 1998.6,177 c 0,-4 -0.2,-7.2 -3.1,-10.3 -4.7,-5.2 -20.9,-5.2 -27.4,-5.2 -6.1,0 -12.1,0 -18,0.9 -11.2,1.6 -15.3,5.8 -15.5,17.1 h 64 z"
   id="path12"
   style="fill:#ffffff" />

		</g>

		<g
   id="g14">
			<path
   class="st19"
   d="m 129.3,191.8 c 0,-34.4 28,-62.5 62.5,-62.5 11.1,0 21.4,2.9 30.5,8 V 78 C 212.6,75.4 202.4,74 191.8,74 126.7,74 74,126.7 74,191.8 c 0,65.1 52.7,117.8 117.8,117.8 10.5,0 20.7,-1.4 30.5,-4 v -59.3 c -9,5.1 -19.4,8 -30.5,8 -34.5,-0.1 -62.5,-28.2 -62.5,-62.5 z"
   id="path13"
   style="fill:#ffffff" />

			<polygon
   class="st19"
   points="222.2,187.5 277.7,187.5 324.8,140.4 222.2,140.4 "
   id="polygon13"
   style="fill:#ffffff" />

			<polygon
   class="st19"
   points="222.2,196 222.2,243.1 324.8,243.1 277.7,196 "
   id="polygon14"
   style="fill:#ffffff" />

		</g>

		<g
   id="g18">
			<path
   class="st19"
   d="m 2846.8,288.7 h -72.9 L 2696.6,94 h 52.2 l 56.9,145.7 h 9.1 L 2871.2,94 h 52 z"
   id="path14"
   style="fill:#ffffff" />

			<path
   class="st19"
   d="M 2944.1,288.7 V 94 h 49.9 v 194.7 z"
   id="path15"
   style="fill:#ffffff" />

			<path
   class="st19"
   d="m 3126.4,291.6 c -20.6,0 -41.9,0.3 -62.1,-5 -16.2,-4.4 -26.5,-14.6 -29.8,-35.3 -3,-19 -2.3,-39.4 -2.3,-58.7 0,-11.7 0,-23.4 0.5,-34.7 0.5,-17.8 0.7,-37.1 11.7,-49.9 3.7,-4.4 8.2,-7.3 13.1,-9.3 20.6,-8.5 64.9,-7.6 86.7,-7.6 17.8,0 36.1,-0.6 53.7,3.5 7,1.8 13.4,4.7 19,10.2 12.4,12 12.4,35 12.4,52.6 0,2 -0.2,4.4 -0.2,6.4 h -47.6 c -0.2,-5.3 -0.2,-14.9 -3.5,-18.4 -2.1,-2.3 -5.9,-3.2 -8.7,-3.5 -12.7,-2 -26,-2 -38.7,-2 -6.8,0 -13.4,0 -20.1,0.3 -7,0.3 -17.1,0.3 -23,5.8 -8.2,7.9 -7.5,35 -7.5,46.4 0,10.5 -0.9,37.1 7,44.4 3,2.6 6.3,4.1 10.1,4.7 10.1,1.8 21.1,1.5 31.4,1.5 h 24.1 c 8.7,0 25.5,1.8 29.5,-10.8 1.6,-5.3 1.9,-12.8 1.9,-18.4 h 47.6 c 0.2,4.7 0.5,9.6 0.5,14.3 0,16.6 -0.2,36.5 -11,48.5 -14.5,16.4 -56,15.2 -74.5,15.2 h -20.2 z"
   id="path16"
   style="fill:#ffffff" />

			<path
   class="st19"
   d="m 3291.2,288.7 c 0,-7.6 -0.5,-15.5 -0.5,-23.1 0,-15.8 -0.2,-31.5 1.9,-47 4.2,-32.4 26.7,-36.5 49.2,-38.8 l 59,-5.8 c 7.5,-0.9 15.7,-0.9 23,-4.1 6.8,-2.9 6.8,-7.9 6.8,-16.1 0,-5.5 0,-11.7 -4,-15.2 -5.9,-5.5 -31.2,-4.1 -38,-4.1 -14.3,0 -29.8,-0.9 -44,2 -10.8,2 -9.6,11.7 -9.6,23.4 v 6.4 h -46.2 v -7.9 c 0,-16.1 0.2,-38.3 9.8,-50.8 10.8,-14 34.7,-14.6 49,-15.5 10.1,-0.6 20.1,-0.6 30.2,-0.6 h 4.5 l 38.7,0.3 c 15,0 34.2,0.3 45.5,14.6 8.7,11.1 8.7,33.3 8.7,47.6 0,14.6 -0.2,30.1 -6.8,42.9 -8.7,17.2 -33.3,19.6 -47.8,20.7 -11.2,0.9 -22.3,1.8 -33.5,2.6 -8.9,0.6 -17.8,1.5 -26.7,2.3 -4,0.3 -14.1,1.2 -17.8,2.9 -7.5,3.5 -7.5,9.9 -7.5,18.4 h 142.7 v 44.7 h -186.6 z"
   id="path17"
   style="fill:#ffffff" />

			<path
   class="st19"
   d="m 3670.6,287.5 c -18.7,3.8 -44,3.5 -63,3.5 -11.7,0 -23.2,-0.3 -34.9,-0.6 -25.8,-0.6 -55.8,-1.8 -61.4,-40.6 -2.6,-18.1 -1.9,-40 -1.9,-58.4 0,-11.7 0,-23.1 0.2,-34.7 0.2,-16.3 1.2,-35 10.8,-47.6 6.3,-8.2 15.2,-12.3 24.1,-14 18.7,-3.8 43.8,-3.5 63,-3.5 11.5,0 23.2,0.6 34.7,0.9 40.1,1.2 63.3,6.4 63.3,64.2 v 69.5 c 0,32.4 -6.5,55.5 -34.9,61.3 z M 3647.9,146 c -5.4,-2.9 -13.4,-3.2 -19.2,-3.2 -9.4,0 -18.7,-0.3 -28.3,-0.3 -9.6,0 -20.1,-0.3 -29.5,2.3 -2.8,0.9 -5.6,2 -7.7,5 -6.3,8.2 -5.9,31.2 -5.9,41.8 0,9.6 -0.5,32.4 4.9,40.3 2.3,3.5 5.2,5 8.7,6.1 10.1,2.9 26.7,2.9 37.3,2.6 l 20.6,-0.6 c 5.9,-0.3 13.8,-0.3 19.2,-3.5 11.7,-6.4 10.1,-32.1 10.1,-45 -0.1,-12.8 1.5,-38.8 -10.2,-45.5 z"
   id="path18"
   style="fill:#ffffff" />

		</g>

	</g>

</g>
  </g>
</svg>
