<?xml version="1.0" encoding="UTF-8" standalone="no"?>
<!-- Created with Inkscape (http://www.inkscape.org/) -->

<svg
   width="1015.7618mm"
   height="141.94896mm"
   viewBox="0 0 1015.7618 141.94896"
   version="1.1"
   id="svg1"
   inkscape:version="1.3.2 (091e20e, 2023-11-25, custom)"
   sodipodi:docname="videopac.svg"
   xmlns:inkscape="http://www.inkscape.org/namespaces/inkscape"
   xmlns:sodipodi="http://sodipodi.sourceforge.net/DTD/sodipodi-0.dtd"
   xmlns="http://www.w3.org/2000/svg"
   xmlns:svg="http://www.w3.org/2000/svg">
  <sodipodi:namedview
     id="namedview1"
     pagecolor="#ffffff"
     bordercolor="#000000"
     borderopacity="0.25"
     inkscape:showpageshadow="2"
     inkscape:pageopacity="0.0"
     inkscape:pagecheckerboard="0"
     inkscape:deskcolor="#d1d1d1"
     inkscape:document-units="mm"
     inkscape:zoom="0.2025577"
     inkscape:cx="108.61103"
     inkscape:cy="278.93287"
     inkscape:window-width="3840"
     inkscape:window-height="2054"
     inkscape:window-x="-11"
     inkscape:window-y="-11"
     inkscape:window-maximized="1"
     inkscape:current-layer="layer1" />
  <defs
     id="defs1" />
  <g
     inkscape:label="Layer 1"
     inkscape:groupmode="layer"
     id="layer1"
     transform="translate(402.96042,-77.522917)">
    <g
       id="Layer_1"
       transform="matrix(0.26458333,0,0,0.26458333,-402.96042,77.522917)">
	<g
   id="g55">
		<g
   id="g45">
			
				<rect
   x="553.79999"
   y="225.39999"
   transform="rotate(90,585.9661,241.0514)"
   width="64.300003"
   height="31.299999"
   id="rect24" />

			
				<rect
   x="553.79999"
   y="474.89999"
   transform="rotate(90,585.96615,490.59655)"
   width="64.300003"
   height="31.299999"
   id="rect25" />

			
				<rect
   x="921.59998"
   y="180.8"
   transform="rotate(90,953.74385,241.05145)"
   width="64.300003"
   height="120.6"
   id="rect26" />

			
				<rect
   x="1482.9"
   y="222.2"
   transform="rotate(90,1515.1065,241.0499)"
   width="64.300003"
   height="37.799999"
   id="rect27" />

			
				<rect
   x="921.59998"
   y="430.29999"
   transform="rotate(90,953.7438,490.5965)"
   width="64.300003"
   height="120.6"
   id="rect28" />

			<rect
   x="358"
   y="208.89999"
   width="64.300003"
   height="313.89999"
   id="rect29" />

			<rect
   x="467.10001"
   y="208.89999"
   width="64.300003"
   height="313.89999"
   id="rect30" />

			<path
   d="m 601.6,522.8 c 0,-21.4 0,-42.9 0,-64.3 123.5,0 123.5,-185.2 0,-185.2 0,-21.4 0,-42.9 0,-64.3 209.3,-0.1 209.3,313.8 0,313.8 z"
   id="path30" />

			<rect
   x="790.29999"
   y="208.89999"
   width="64.300003"
   height="313.89999"
   id="rect31" />

			
				<rect
   x="921.59998"
   y="305.5"
   transform="rotate(90,953.7439,365.824)"
   width="64.300003"
   height="120.6"
   id="rect32" />

			
				<rect
   x="1482.9"
   y="346.89999"
   transform="rotate(90,1515.1066,365.82245)"
   width="64.300003"
   height="37.799999"
   id="rect33" />

			<rect
   x="1393"
   y="208.89999"
   width="64.300003"
   height="313.89999"
   id="rect34" />

			<path
   d="m 1534,398 c 0,-21.5 0,-42.8 0,-64.3 39.9,0 39.9,-60.5 0,-60.5 0,-21.5 0,-42.8 0,-64.3 125.6,0 125.6,189.1 0,189.1 z"
   id="path34" />

			<path
   d="m 1101.9,345.6 c 9,-45.4 49.1,-79.6 97.2,-79.6 48.1,0 88.1,34.2 97.2,79.6 h 65.1 c -9.6,-81.1 -78.6,-144 -162.2,-144 -83.6,0 -152.6,62.9 -162.2,144 z"
   id="path35" />

			<path
   d="m 1296.2,384.5 c -9,45.4 -49.1,79.6 -97.2,79.6 -48.1,0 -88.1,-34.2 -97.2,-79.6 h -65.1 c 9.6,81.1 78.6,144 162.2,144 83.7,0 152.6,-62.9 162.2,-144 z"
   id="path36" />

			<polygon
   points="261.3,208.9 188.5,351.8 224.6,422.8 333.4,208.9 "
   id="polygon36" />

			<polygon
   points="166.7,536.5 202.8,465.6 166.7,394.7 72.2,208.9 0,208.9 "
   id="polygon37" />

			<path
   d="m 2022.6,462.2 c -45.4,-9 -79.6,-49.1 -79.6,-97.2 0,-48.1 34.2,-88.1 79.6,-97.2 v -65.1 c -81.1,9.6 -144,78.6 -144,162.2 0,83.6 62.9,152.6 144,162.2 z"
   id="path37" />

			<path
   d="m 2122.2,306.7 45.8,-45.8 c -26.1,-31.5 -63.8,-53.1 -106.5,-58.1 v 65.1 c 24.8,4.9 46.3,19.1 60.7,38.8 z"
   id="path38" />

			<path
   d="m 2122.2,423.3 c -14.4,19.7 -35.8,33.9 -60.7,38.9 v 65.1 c 42.7,-5.1 80.4,-26.6 106.5,-58.1 z"
   id="path39" />

			<polygon
   points="1743.9,404.8 1711.2,469.2 1840,469.2 1840,404.8 "
   id="polygon39" />

			<polygon
   points="1640.3,522.8 1713,379.8 1676.9,308.9 1568.1,522.8 "
   id="polygon40" />

			<polygon
   points="1901.5,522.8 1734.8,195.1 1698.8,266 1734.8,337 1734.8,336.9 1829.4,522.8 "
   id="polygon41" />

			<path
   d="M 595.1,0 C 578.2,0 544,0.2 544,0 v 148.7 h 41.6 l 0.2,-37.2 h 18.6 c 39.6,0 60.4,-19.1 60.4,-55.8 C 664.8,15.5 638.8,0 595.1,0 Z m 0,83.6 h -9.3 V 27.9 c 2.5,-0.2 7.1,0 9.3,0 21,0 28.6,10.7 28.6,28.8 0,18.6 -6.4,26.9 -28.6,26.9 z"
   id="path41" />

			<polygon
   points="223.4,60.4 223.4,0 265.2,0 265.2,148.7 223.4,148.7 223.4,88.3 181.5,88.3 181.5,148.7 139.7,148.7 139.7,0 181.5,0 181.5,60.4 "
   id="polygon42" />

			<polygon
   points="339.5,0 339.5,148.7 297.7,148.7 297.7,0 334.9,0 "
   id="polygon43" />

			<polygon
   points="372.1,0 413.9,0 413.9,120.8 455.7,120.8 450.7,148.7 372.1,148.7 "
   id="polygon44" />

			<rect
   x="469.60001"
   width="41.799999"
   height="148.7"
   id="rect44"
   y="0" />

			<path
   d="m 720.6,37.2 v 4.7 c 0,22.8 69.7,12.3 69.7,60.4 0,36.1 -24.9,46.5 -60.4,46.5 -14,0 -36.6,-2.6 -51.1,-4.6 v -32.5 c 12.8,6.6 37.1,9.3 51.1,9.3 15.7,0 18.6,-4.9 18.6,-13.9 0,-25.6 -69.7,-14.6 -69.7,-65.1 0,-29.3 28.6,-41.8 63,-41.8 24.4,0 28.1,2.2 39.2,4.7 v 27.9 c -9.9,-4.2 -23.8,-4.6 -37.2,-4.6 -12.2,-0.3 -23.2,1.2 -23.2,9 z"
   id="path44" />

			<path
   d="M 51.4,0 C 34.5,0 0.3,0.2 0.3,0 v 148.7 h 41.6 l 0.2,-37.2 h 18.6 c 39.6,0 60.4,-19.1 60.4,-55.8 C 121.1,15.5 95.1,0 51.4,0 Z m 0,83.6 H 42.1 V 27.9 c 2.5,-0.2 7.1,0 9.3,0 21,0 28.6,10.7 28.6,28.8 0,18.6 -6.4,26.9 -28.6,26.9 z"
   id="path45" />

		</g>

		<g
   id="g54">
			
				<rect
   x="2470.8"
   y="298.10001"
   transform="rotate(90,2502.9652,365.1061)"
   class="st2"
   width="64.300003"
   height="134"
   id="rect45"
   style="fill:#ff1f1f" />

			<path
   class="st2"
   d="m 2896,345.6 c 9,-45.4 49.1,-79.6 97.2,-79.6 48.1,0 88.1,34.2 97.2,79.6 h 65.1 c -9.6,-81.1 -78.6,-144 -162.2,-144 -83.7,0 -152.6,62.9 -162.2,144 z"
   id="path46"
   style="fill:#ff1f1f" />

			<path
   class="st2"
   d="m 3090.3,384.5 c -9,45.4 -49.1,79.6 -97.2,79.6 -48.1,0 -88.1,-34.2 -97.2,-79.6 H 2831 c 9.6,81.1 78.6,144 162.2,144 83.7,0 152.6,-62.9 162.2,-144 z"
   id="path47"
   style="fill:#ff1f1f" />

			<path
   class="st2"
   d="m 3237.8,345.6 c 9,-45.4 49.1,-79.6 97.2,-79.6 48.1,0 88.1,34.2 97.2,79.6 h 65.1 c -9.6,-81.1 -78.6,-144 -162.2,-144 -83.7,0 -152.6,62.9 -162.2,144 z"
   id="path48"
   style="fill:#ff1f1f" />

			<path
   class="st2"
   d="m 3432.1,384.5 c -9,45.4 -49.1,79.6 -97.2,79.6 -48.1,0 -88.1,-34.2 -97.2,-79.6 h -65.1 c 9.6,81.1 78.6,144 162.2,144 83.7,0 152.6,-62.9 162.2,-144 z"
   id="path49"
   style="fill:#ff1f1f" />

			<path
   class="st2"
   d="m 3579.6,345.6 c 9,-45.4 49.1,-79.6 97.2,-79.6 48.1,0 88.1,34.2 97.2,79.6 h 65.1 c -9.6,-81.1 -78.6,-144 -162.2,-144 -83.6,0 -152.6,62.9 -162.2,144 z"
   id="path50"
   style="fill:#ff1f1f" />

			<path
   class="st2"
   d="m 3773.9,384.5 c -9,45.4 -49.1,79.6 -97.2,79.6 -48.1,0 -88.1,-34.2 -97.2,-79.6 h -65.1 c 9.6,81.1 78.6,144 162.2,144 83.7,0 152.6,-62.9 162.2,-144 z"
   id="path51"
   style="fill:#ff1f1f" />

			<path
   class="st2"
   d="m 2535,365 c 0,11.3 -1.9,22.1 -5.4,32.2 h 66.5 c 2.1,-10.4 3.2,-21.2 3.2,-32.2 0,-11 -1.1,-21.7 -3.2,-32.1 h -66.5 c 3.6,10.1 5.4,20.9 5.4,32.1 z"
   id="path52"
   style="fill:#ff1f1f" />

			<path
   class="st2"
   d="m 2435.9,464.2 c -54.7,0 -99.1,-44.4 -99.1,-99.1 0,-54.7 44.4,-99.1 99.1,-99.1 26.6,0 50.8,10.5 68.6,27.6 l 45.5,-45.5 c -29.4,-28.7 -69.7,-46.4 -114.1,-46.4 -90.2,0 -163.4,73.2 -163.4,163.4 0,90.2 73.2,163.4 163.4,163.4 64.8,0 120.8,-37.7 147.2,-92.4 H 2505 c -17.8,17.4 -42.2,28.1 -69.1,28.1 z"
   id="path53"
   style="fill:#ff1f1f" />

			<polygon
   class="st2"
   points="2644.5,522.8 2712.7,522.8 2787.3,312.1 2719.1,312.1 "
   id="polygon53"
   style="fill:#ff1f1f" />

			<polygon
   class="st2"
   points="2606.4,273.2 2606.4,208.9 2823.8,208.9 2801.2,273.2 "
   id="polygon54"
   style="fill:#ff1f1f" />

		</g>

	</g>

</g>
  </g>
</svg>
