<?xml version="1.0" encoding="UTF-8" standalone="no"?>
<!-- Created with Inkscape (http://www.inkscape.org/) -->

<svg
   version="1.1"
   id="svg1"
   width="3839"
   height="980.17651"
   viewBox="0 0 3839 980.17652"
   sodipodi:docname="vircon32.svg"
   inkscape:version="1.3.2 (091e20e, 2023-11-25, custom)"
   xmlns:inkscape="http://www.inkscape.org/namespaces/inkscape"
   xmlns:sodipodi="http://sodipodi.sourceforge.net/DTD/sodipodi-0.dtd"
   xmlns="http://www.w3.org/2000/svg"
   xmlns:svg="http://www.w3.org/2000/svg">
  <defs
     id="defs1" />
  <sodipodi:namedview
     id="namedview1"
     pagecolor="#ffffff"
     bordercolor="#000000"
     borderopacity="0.25"
     inkscape:showpageshadow="2"
     inkscape:pageopacity="0.0"
     inkscape:pagecheckerboard="true"
     inkscape:deskcolor="#d1d1d1"
     inkscape:zoom="0.41946369"
     inkscape:cx="1345.7661"
     inkscape:cy="897.57471"
     inkscape:window-width="3840"
     inkscape:window-height="2054"
     inkscape:window-x="-11"
     inkscape:window-y="-11"
     inkscape:window-maximized="1"
     inkscape:current-layer="g1" />
  <g
     inkscape:groupmode="layer"
     inkscape:label="Image"
     id="g1"
     transform="translate(-11.210938,-12.281387)">
    <path
       style="fill:#66ff00;fill-opacity:1;stroke-width:12.9848"
       d="m 27.999928,867.68167 -2.028882,9.35822 c -3.324134,15.27454 -14.760108,98.35027 -14.760108,107.22642 0,8.13883 12.570045,8.19161 1911.206962,8.19161 1051.1605,0 1911.2279,-1.40369 1911.2576,-3.1194 0.026,-1.71572 3.7518,-26.51429 8.2677,-55.10952 4.5159,-28.59524 8.238,-55.26538 8.2677,-59.26871 0.052,-6.92169 -93.7163,-7.27862 -1911.0801,-7.27862 z"
       id="path21" />
    <path
       id="path20"
       style="fill:#00ffff;fill-opacity:1;stroke-width:12.9848"
       d="m 874.09449,202.18298 -9.38358,46.7911 c -5.15023,25.73567 -9.3109,48.19478 -9.25677,49.9105 0.10778,3.42859 108.24086,4.44197 108.24086,1.0145 0,-1.84649 12.72851,-61.62576 18.81788,-88.35782 2.12817,-9.34254 2.03232,-9.35822 -53.15671,-9.35822 z m 647.54301,145.69909 c -131.4372,0.35176 -226.0953,102.78109 -226.6768,245.29185 -0.1857,45.46866 8.1563,79.23405 26.7559,108.46911 37.3264,58.66989 115.8776,82.0085 199.3377,59.24336 34.8765,-9.51314 60.5349,-25.353 87.0897,-53.74001 24.0731,-25.73424 53.1171,-75.60919 47.0955,-80.87632 -3.3262,-2.90957 -82.3153,-16.45931 -95.9408,-16.45931 -5.1711,0 -10.4664,5.7288 -15.4196,16.71293 -4.1485,9.19992 -15.4822,24.05242 -25.1834,32.99468 -32.7713,30.20751 -71.0157,32.57657 -96.1183,5.95985 -16.4468,-17.43877 -19.7674,-33.31962 -16.8143,-80.06476 6.2779,-99.37375 61.9376,-168.78141 125.7653,-156.80723 21.2725,3.99076 41.4542,23.53389 47.8309,46.30923 5.1148,18.2679 5.9264,19.01417 18.2345,16.91582 7.0847,-1.20786 25.9846,-3.33147 41.9979,-4.71717 49.0768,-4.24677 49.0986,-4.26231 45.9542,-22.03872 -4.8363,-27.34194 -22.6071,-57.80034 -46.3854,-79.53218 -30.4067,-27.79032 -61.6984,-37.81056 -117.523,-37.66113 z m 1000.5941,0.0506 c -5.7151,-0.0247 -12.5065,0.18504 -20.999,0.55796 -43.0317,1.88941 -75.2221,14.0857 -112.4762,42.68262 l -20.2888,15.59702 2.9165,-15.97744 c 1.5938,-8.78775 3.8873,-20.21391 5.1229,-25.36103 2.2394,-9.32845 2.0816,-9.35823 -50.1133,-9.35823 -50.8938,0 -52.4158,0.2623 -54.5009,9.35823 -4.1364,18.04363 -81.206,390.22484 -81.206,392.15756 0,1.07436 24.2058,1.95279 53.7907,1.95279 47.6192,0 54.0515,-0.83493 55.9972,-7.27862 1.2089,-4.0033 11.7124,-52.65512 23.3575,-108.11406 11.6451,-55.45891 24.7174,-111.10142 29.0384,-123.66035 16.679,-48.4785 53.0591,-84.55436 94.7742,-93.9626 30.5214,-6.88375 59.1672,12.66993 59.1672,40.37475 0,11.5626 -49.5761,261.26078 -56.6565,285.36226 -1.9609,6.67521 2.4349,7.263 53.2327,7.25326 h 55.4139 l 28.2776,-138.29368 c 33.5669,-164.1428 34.5071,-170.88363 27.9731,-198.12033 -7.3968,-30.8333 -25.3742,-53.24149 -52.7762,-65.7865 -15.3623,-7.03312 -22.9002,-9.30897 -40.045,-9.38361 z m -572.3478,0.0766 c -4.883,-0.012 -9.6881,0.061 -14.3289,0.22828 -12.3756,0.44746 -23.6443,1.54245 -32.4621,3.37301 -105.3698,21.87466 -174.0781,115.07623 -174.0781,236.11115 0,59.56537 16.8439,102.3547 53.2835,135.27572 46.2965,41.82609 116.4031,56.23668 194.1894,39.94362 71.9855,-15.07803 135.8117,-78.18758 161.1693,-159.3687 12.0568,-38.59953 12.7056,-105.65588 1.3441,-139.33346 -16.808,-49.82334 -50.7064,-85.96041 -98.0457,-104.51281 -18.5029,-7.25132 -56.89,-11.633 -91.0715,-11.71678 z m -680.9689,0.026 c -5.8364,-0.0844 -12.0152,0.0987 -18.3613,0.55796 -20.4595,1.4799 -28.9775,4.65656 -48.541,18.15849 -13.0473,9.00468 -31.7606,26.27556 -41.5921,38.37123 -19.6738,24.20439 -21.1384,21.92582 -11.5393,-17.8288 3.3142,-13.7257 6.0509,-26.3843 6.0867,-28.10001 0.036,-1.71571 -22.8902,-3.11942 -50.925,-3.11942 h -50.9503 l -41.1102,196.54796 c -22.59706,108.08987 -41.95338,198.86209 -43.03767,201.72162 -1.51643,3.99915 10.92679,5.199 53.91757,5.199 h 55.8957 l 13.5428,-65.50754 c 29.7723,-144.00835 44.0988,-185.25838 75.2208,-216.38027 24.9889,-24.9889 50.324,-35.49397 80.3184,-33.32438 l 24.4986,1.77526 20.441,-43.67168 c 15.4689,-33.0434 19.1584,-44.50872 15.1659,-47.04471 -7.0455,-4.47524 -21.5212,-7.09984 -39.0306,-7.35469 z m -370.95568,8.03944 c -48.10083,0 -54.57749,0.83207 -56.5551,7.27862 -3.03652,9.89853 -81.51033,387.71668 -81.51033,392.43653 0,2.06534 24.12219,3.75342 53.61321,3.75342 52.57933,0 53.67869,-0.19763 56.04787,-9.63718 1.83417,-7.30899 45.81937,-216.74766 80.31837,-382.39461 l 2.38394,-11.43783 z M 1957.4161,429.571 c 25.2728,0 37.6225,4.79307 55.845,21.65832 19.0183,17.60189 24.871,32.92511 24.8792,65.0003 0.026,114.6271 -79.4491,196.68235 -154.5247,159.52085 -22.1235,-10.95083 -36.7222,-32.16907 -43.1139,-62.64173 -3.9766,-18.95865 -3.6603,-29.14248 1.7753,-56.73261 C 1858.5151,473.954 1898.8061,429.571 1957.4161,429.571 Z" />
    <path
       style="fill:#5fd38d;fill-opacity:1;stroke-width:12.9848"
       d="M 706.7878,15.01861 574.40324,257.29249 C 501.60165,390.54625 432.60253,516.83766 421.07048,537.93761 409.53843,559.03753 399.3212,574.01027 398.347,571.21127 397.37275,568.41229 375.78922,442.58876 350.38929,291.60596 L 304.20687,17.098211 228.42812,15.956973 c -41.68251,-0.623532 -75.80411,0.507318 -75.80411,2.510737 0,3.15707 55.42181,314.90467 85.16233,479.04444 5.59567,30.88284 17.8245,99.19588 27.18702,151.8111 9.36253,52.61522 18.00551,98.96536 19.1983,103.01649 1.99489,6.77534 8.73649,7.27523 83.97036,6.2388 l 81.78931,-1.11591 202.68532,-368.08994 C 764.10321,186.91849 855.3921,19.853725 855.45414,18.138012 c 0.0623,-1.715714 -33.36899,-3.119415 -74.28246,-3.119402 z"
       id="path14" />
    <path
       id="path13"
       style="fill:#80b3ff;fill-opacity:1;stroke-width:12.9848"
       d="m 3524.6007,12.330332 c -6.0692,0.107774 -12.1003,0.394609 -18.0824,0.862323 -15.9524,1.247195 -31.4825,3.786979 -45.9542,7.659034 -59.4026,15.893905 -113.3471,60.129742 -139.9422,114.784011 -14.9017,30.62405 -31.6007,84.85691 -27.4151,89.04256 2.5315,2.5315 138.1879,23.4378 140.0435,21.58223 0.705,-0.70469 4.6671,-13.47326 8.8003,-28.37899 18.6018,-67.08361 57.9579,-98.67409 110.6501,-88.78894 16.5037,3.09613 41.2539,22.68504 49.8091,39.41103 16.8743,32.99061 9.0086,77.70644 -21.5822,122.79808 -12.3511,18.20577 -63.7263,72.53169 -139.6125,147.6519 -123.0662,121.824 -159.1153,163.52425 -183.7406,212.42396 -14.1153,28.02929 -28.4411,69.35132 -32.8172,94.64734 l -2.3586,13.51743 h 226.4993 226.4994 l 2.2064,-9.35821 c 5.5377,-23.50608 22.9264,-112.98447 22.9264,-118.00486 0,-4.55753 -23.9333,-5.82659 -127.8957,-6.72067 l -127.921,-1.09047 121.0735,-120.61705 c 125.5743,-125.10647 149.1558,-153.5945 170.35,-205.754 42.1914,-103.83342 2.1766,-218.809596 -91.3757,-262.588067 -33.852,-15.841252 -77.6758,-23.834398 -120.1606,-23.078537 z m -516.6041,0.963735 c -73.0816,0 -125.7571,21.035852 -173.1144,69.134161 -23.6237,23.993282 -57.6659,83.329622 -64.1633,111.842122 l -2.4601,10.77844 57.4681,11.36174 c 31.6131,6.24259 61.4394,12.27058 66.2684,13.41598 7.4917,1.77704 9.8102,-1.06203 15.8253,-19.45191 13.7408,-42.01003 39.9012,-72.01619 67.2574,-77.14824 58.8548,-11.04125 95.0636,18.53331 94.5713,77.27505 -0.522,62.18692 -39.5772,101.46428 -104.5382,105.09609 -14.0139,0.78351 -26.3265,2.24915 -27.3392,3.27157 -1.4673,1.48133 -20.7247,88.82342 -24.5241,111.2081 -0.6453,3.79909 6.9547,5.74916 26.2233,6.72067 62.6584,3.15921 94.8317,41.56734 90.4882,108.06334 -2.2493,34.43202 -11.819,55.76969 -35.1251,78.26413 -21.6743,20.91929 -43.6137,29.37675 -76.3366,29.44415 -29.0098,0.0597 -45.6106,-6.11611 -61.0694,-22.67276 -11.6968,-12.52743 -24.551,-42.07377 -28.2522,-64.94959 -2.2461,-13.88321 -4.4279,-17.42308 -9.7894,-15.92672 -3.7878,1.0571 -35.4145,5.13541 -70.3007,9.05388 -34.8861,3.91847 -63.428,8.43592 -63.428,10.04298 0,12.4358 18.5533,70.68599 29.292,91.95907 25.3064,50.13162 78.8105,91.57226 136.1634,105.47651 33.2905,8.07072 100.4254,7.94496 133.754,-0.25359 46.2062,-11.36635 81.4608,-32.35911 120.9468,-72.05069 39.5556,-39.76185 57.5089,-70.84576 68.8552,-119.07 16.8362,-71.5581 -10.194,-147.67012 -64.1635,-180.6466 -9.3595,-5.71904 -17.0626,-11.33381 -17.1187,-12.47762 -0.052,-1.14384 10.509,-7.65022 23.4844,-14.43044 44.8625,-23.44277 80.0069,-66.77842 92.872,-114.55575 12.443,-46.20952 1.7908,-112.13236 -24.7776,-153.535652 -37.7184,-58.778864 -92.6629,-85.238395 -176.9693,-85.238421 z" />
  </g>
</svg>
