<?xml version="1.0" encoding="UTF-8" standalone="no"?>
<!-- Generator: Adobe Illustrator 25.0.0, SVG Export Plug-In . SVG Version: 6.00 Build 0)  -->

<svg
   version="1.1"
   id="Layer_1"
   x="0px"
   y="0px"
   viewBox="0 0 3839.0001 1002.0954"
   xml:space="preserve"
   sodipodi:docname="vmac.svg"
   width="3839"
   height="1002.0954"
   inkscape:version="1.3.2 (091e20e, 2023-11-25, custom)"
   xmlns:inkscape="http://www.inkscape.org/namespaces/inkscape"
   xmlns:sodipodi="http://sodipodi.sourceforge.net/DTD/sodipodi-0.dtd"
   xmlns="http://www.w3.org/2000/svg"
   xmlns:svg="http://www.w3.org/2000/svg"><defs
   id="defs16" /><sodipodi:namedview
   id="namedview16"
   pagecolor="#ffffff"
   bordercolor="#000000"
   borderopacity="0.25"
   inkscape:showpageshadow="2"
   inkscape:pageopacity="0.0"
   inkscape:pagecheckerboard="0"
   inkscape:deskcolor="#d1d1d1"
   inkscape:zoom="0.78075087"
   inkscape:cx="1883.4433"
   inkscape:cy="603.90583"
   inkscape:window-width="3840"
   inkscape:window-height="2054"
   inkscape:window-x="-11"
   inkscape:window-y="-11"
   inkscape:window-maximized="1"
   inkscape:current-layer="g18" />
<style
   type="text/css"
   id="style1">
	.st0{fill:#62B847;}
	.st1{fill:#FFFFFF;}
	.st2{clip-path:url(#SVGID_2_);fill:#0D99D5;}
	.st3{clip-path:url(#SVGID_4_);fill:#944094;}
	.st4{clip-path:url(#SVGID_6_);fill:#E31F32;}
	.st5{clip-path:url(#SVGID_8_);fill:#F28020;}
	.st6{clip-path:url(#SVGID_10_);fill:#F4BE1A;}
	.st7{clip-path:url(#SVGID_12_);fill:#62B847;}
	.st8{clip-path:url(#SVGID_14_);fill:#0D99D5;}
	.st9{clip-path:url(#SVGID_16_);fill:#944094;}
	.st10{clip-path:url(#SVGID_18_);fill:#E31F32;}
	.st11{clip-path:url(#SVGID_20_);fill:#F28020;}
	.st12{clip-path:url(#SVGID_22_);fill:#F4BE1A;}
	.st13{clip-path:url(#SVGID_24_);fill:#62B847;}
</style>

<g
   id="g19"
   transform="matrix(0.99989523,0,0,0.99989523,-73.39231,0)">
	<g
   id="g18">
		
		
		
		
		
		
		
		
	<path
   id="path11"
   clip-path="url(#SVGID_2_)"
   style="fill:#0d99d5"
   class="st2"
   d="M 180.12993 876.69927 C 196.91999 901.80478 211.38035 921.54361 223.09928 935.19954 C 240.59926 956.79952 258.20084 972.2991 275.10082 983.09909 C 295.0008 996.09908 315.20067 1002.2007 336.80064 1002.2007 C 350.30063 1001.5007 364.50029 998.79953 378.00027 994.79954 C 384.70027 992.79954 396.20092 988.10078 413.8009 980.60078 C 428.60088 974.50079 440.79979 969.79937 451.59978 967.09937 C 467.09976 963.09937 483.30059 960.99912 500.20058 960.99912 C 517.10056 960.99912 533.29943 962.99937 548.79942 967.09937 C 558.19941 969.79937 571.10027 974.50008 586.60025 981.30008 C 602.10024 988.00007 614.30089 992.09954 622.40088 994.79954 C 636.60086 998.79953 650.70073 1000.9005 665.60072 1000.2005 C 687.2007 1000.2005 707.40045 994.09936 726.30044 981.99937 C 742.50042 971.19938 758.70054 956.40001 775.60052 936.10003 C 786.40051 923.30004 800.60038 903.70049 818.80036 877.40052 C 818.95184 877.17098 819.09059 876.92905 819.24181 876.69927 L 180.12993 876.69927 z "
   inkscape:label="path11" /><path
   id="path12"
   clip-path="url(#SVGID_4_)"
   style="display:inline;fill:#944094"
   class="st3"
   d="M 114.54689 751.10018 C 131.95021 796.90806 153.41276 838.08986 178.60048 874.49982 C 179.12652 875.29039 179.53827 875.81994 180.05961 876.59965 L 819.30627 876.59965 C 838.69627 847.12695 856.03161 815.69003 870.79995 780.90017 C 874.44357 772.26345 878.35255 762.0111 882.20349 751.10018 L 114.54689 751.10018 z " /><path
   id="path13"
   clip-path="url(#SVGID_6_)"
   style="fill:#e31f32"
   class="st4"
   d="M 80.34018 625.6007 C 85.458145 657.36767 93.387688 689.66576 104.39934 722.70072 C 107.58817 732.38531 111.0146 741.80273 114.54689 751.10018 L 882.20349 751.10018 C 884.0598 745.84066 885.94378 740.72532 887.70016 735.00083 C 876.90017 731.00084 865.40076 724.90041 852.60078 716.10042 C 826.3008 698.60043 804.7003 676.99993 788.50031 651.99995 C 782.86218 643.53044 777.93173 634.72637 773.66673 625.6007 L 80.34018 625.6007 z " /><path
   id="path14"
   clip-path="url(#SVGID_8_)"
   style="fill:#f28020"
   class="st5"
   d="M 75.492016 500.09927 C 74.18571 513.44308 73.4 527.09642 73.4 541.19928 C 73.4 568.97175 75.744314 597.07436 80.34018 625.6007 L 773.66673 625.6007 C 760.60889 597.66131 753.92859 566.64594 753.40093 532.49915 C 753.40093 521.5609 754.26216 510.7577 755.80743 500.09927 L 75.492016 500.09927 z " /><path
   id="path15"
   clip-path="url(#SVGID_10_)"
   style="fill:#f4be1a"
   class="st6"
   d="M 113.07994 374.50017 C 92.680076 411.13375 80.094774 453.18452 75.499829 499.99965 L 755.82306 499.99965 C 759.5258 474.543 767.58257 450.01664 780.39985 427.19905 C 790.98077 408.26913 804.98169 390.72049 821.27523 374.50017 L 113.07994 374.50017 z " /><path
   id="path16"
   clip-path="url(#SVGID_12_)"
   style="fill:#62b847"
   class="st7"
   d="M 679.00056 0 C 654.00058 1.2999987 627.70007 8.8008509 600.00009 22.900837 C 572.30012 37.000823 550.09957 54.600119 531.79959 75.500098 C 513.49961 96.400077 500.10028 120.00084 490.00029 145.70081 C 478.5003 176.10078 474.49909 203.69998 478.49908 230.69995 C 505.49906 232.69995 532.5007 226.70077 560.80067 212.50078 C 586.50065 199.80079 608.80099 182.19954 627.00097 159.89957 C 645.20095 137.59959 659.40028 113.30003 668.80027 86.300057 C 679.00026 56.700087 682.40055 28.299972 679.00056 0 z M 666.75513 241.68352 C 654.90048 241.4304 642.75092 242.27403 630.60096 244.29903 C 617.10098 246.29903 602.29985 250.40095 586.69987 255.10095 C 576.59989 259.10093 563.80005 263.89939 547.60007 269.89937 C 531.40011 276.59935 519.89926 280.69954 513.89928 282.69954 C 503.0993 286.09954 493.70035 288.1005 486.90035 288.1005 C 478.10037 288.1005 466.69952 286.10056 453.19956 281.40058 C 449.19956 280.10058 436.30041 274.70089 413.40047 265.90091 C 395.90049 259.20091 380.99969 253.79928 368.89971 250.39928 C 351.99975 246.3993 336.49943 244.29903 321.69945 244.29903 C 279.19953 244.99903 239.99982 256.40041 202.8999 279.40037 C 165.79996 301.70031 136.79926 331.99983 115.1993 370.49975 C 114.44666 371.80125 113.81249 373.18469 113.07994 374.50017 L 821.27523 374.50017 C 824.69237 371.0984 828.07682 367.67609 831.70015 364.39951 C 841.10013 355.59953 851.29984 348.20062 862.09982 341.50062 C 836.49988 303.7007 801.99913 276.70062 759.49923 259.80066 C 735.19927 250.40068 708.20045 244.30076 678.50051 242.30078 C 674.62551 241.97578 670.70669 241.7679 666.75513 241.68352 z " /></g>
	<path
   id="path18"
   d="m 3654.0996,293.40039 c -2.8,0 -8.8988,3.3004 -18.2988,9.90039 -9.3,6.59999 -23.9008,13.59962 -43.8008,21.09961 -10.9,4 -20.3,7 -28,9 -7.7,2 -11.5996,6.20001 -11.5996,12.5 0,4.6 2,7.29922 6,8.19922 4,0.9 8.3004,2.30078 12.9004,4.30078 4.6,2.1 8.8984,5.59883 12.8984,10.79883 4,5.19999 6,14.10118 6,26.70117 v 429.90039 c 0,10.89999 -0.7992,19.10001 -2.1992,24.5 -1.4,5.5 -6.7004,9.99844 -15.9004,13.39844 -4.6,1.7 -8.8,2.80039 -12.5,3.40039 -3.8,0.6 -6.9,1.10117 -9.5,1.70117 -2.6,0.6 -4.8,1.6 -6.5,3 -1.7,1.5 -2.5996,4.19922 -2.5996,8.19922 0,9.19999 5.2,13.80078 15.5,13.80078 6.9,0 16.1,-0.90156 27.5,-2.60156 11.4,-1.7 25.3008,-2.59961 41.8008,-2.59961 16.4,0 30.3988,0.89961 41.7988,2.59961 11.5,1.7 20.1008,2.60156 25.8008,2.60156 9.7,0 14.5996,-4.10157 14.5996,-12.10156 0,-5.1 -1,-8.59883 -3,-10.29883 -2.1,-1.7 -4.6008,-3.00039 -7.8008,-3.90039 -3.2,-0.8 -6.7988,-1.39922 -10.7988,-1.69922 -4.1,-0.2 -8.0996,-1.80117 -12.0996,-4.70117 -5.1,-3.5 -8.6008,-8.09883 -10.3008,-13.79883 -1.7,-5.69999 -2.5996,-12.90001 -2.5996,-21.5 V 638.90039 c 0,-30.99997 6.8004,-54.0004 20.4004,-68.90039 13.6,-14.89999 30.7996,-22.40039 51.5996,-22.40039 45.5999,0 68.4004,34.70124 68.4004,104.20117 v 174 c 0,10.39999 -0.9016,18.09883 -2.6016,23.29883 -1.7,5.19999 -6.9,9.80078 -15.5,13.80078 -4,1.7 -7.8996,2.80039 -11.5996,3.40039 -3.7,0.6 -7.0004,1.09922 -9.9004,1.69922 -2.9,0.5 -5.1984,1.70039 -6.8984,3.40039 -1.7,1.7 -2.6016,4.59961 -2.6016,8.59961 0,9.19999 5.2,13.80078 15.5,13.80078 8,0 17.9016,-0.90156 29.6016,-2.60156 11.7,-1.7 24.9992,-2.59961 39.6992,-2.59961 14.2,0 26.4996,0.89961 37.0996,2.59961 10.5,1.7 19.0008,2.60156 25.3008,2.60156 8.6,0 12.9004,-4.10157 12.9004,-12.10156 0,-4.6 -0.8012,-7.8 -2.2012,-9.5 -1.4,-1.7 -3.4,-2.99844 -6,-3.89844 -2.5,-0.9 -5.6,-1.70156 -9,-2.60156 -3.5,-0.9 -7.4996,-3.1 -12.0996,-6.5 -4.6,-2.9 -7.4996,-6.89962 -8.5996,-12.09961 -1.1,-5.1 -1.7012,-12.30001 -1.7012,-21.5 V 632.69922 c 0,-43.69996 -9.5988,-77.29885 -28.7988,-100.79883 -19.2,-23.49998 -46.1,-35.30078 -80.5,-35.30078 -16.1,0 -31.6,4.20001 -46.5,12.5 -14.9,8.29999 -27.8012,19.70001 -38.7012,34 l -8.5996,11.20117 c -2.9,3.5 -5.2004,5.19922 -6.9004,5.19922 -1.1,0 -1.6992,-3.69923 -1.6992,-11.19922 h 0.1992 V 368.40039 c 0,-11.49999 0.4008,-22.1004 1.3008,-31.90039 0.9,-9.79999 1.3008,-18.69923 1.3008,-26.69922 0,-5.19999 -0.6012,-9.20156 -1.7012,-12.10156 -1.1,-2.9 -4,-4.29883 -8.5,-4.29883 z m -1336.2988,51.40039 c -10.3,0 -19.2012,4.79962 -26.7012,14.59961 -7.5,9.69999 -11.1992,20.59923 -11.1992,32.69922 0,11.99999 3.6992,22.90118 11.1992,32.70117 7.5,9.69999 16.4012,14.59961 26.7012,14.59961 10.3,0 19.1992,-4.79962 26.6992,-14.59961 7.5,-9.69999 11.1992,-20.60118 11.1992,-32.70117 0,-11.99999 -3.6992,-22.89923 -11.1992,-32.69922 -7.5,-9.79999 -16.2992,-14.69961 -26.6992,-14.59961 z m -1188.7012,6.89844 c -8.1,0 -12.0996,3.70118 -12.0996,11.20117 0,4.6 1,7.6 3,9 2,1.5 4.7992,2.29961 8.1992,2.59961 3.5,0.3 7.5016,0.60039 12.1016,0.90039 4.6,0.3 9.3996,1.3 14.5996,3 8,2.9 13.2,6.90001 15.5,12 2.2,5.2 3.4004,14.3004 3.4004,27.40039 0,4.5 -0.1004,8.19961 -0.4004,11.09961 -0.3,2.9 -0.4004,4.9 -0.4004,6 l -14.5996,292.40039 c -1.1,25.69998 -2.3004,47.19963 -3.4004,64.59961 -1.2,17.39998 -2.8992,31.49884 -5.1992,42.29883 -2.3,10.79999 -5.7008,18.7 -10.3008,23.5 -4.6,4.89999 -10.5996,7.30078 -18.0996,7.30078 -1.8,0 -3.9,-0.10039 -6.5,-0.40039 -2.5,-0.3 -5.6,-0.40039 -9,-0.40039 -8.1,0 -12.0996,4.3004 -12.0996,12.90039 0,9.19999 6.8992,13.80078 20.6992,13.80078 6.3,0 13.9008,-0.50117 22.8008,-1.70117 8.9,-1.1 19.0996,-1.69922 30.5996,-1.69922 13.2,0 24.9004,0.59922 34.9004,1.69922 10,1.1 18.2,1.70117 24.5,1.70117 14.3,0 21.5,-4.60079 21.5,-13.80078 0,-8.59999 -5.5004,-12.90039 -16.4004,-12.90039 -2.3,0 -4.3,0.10039 -6,0.40039 -1.8,0.3 -3.5012,0.40039 -5.2012,0.40039 -16.7,0 -27.2984,-6.1004 -31.8984,-18.40039 -4.6,-12.29999 -6.9004,-31.79964 -6.9004,-58.59961 0,-6.29999 0.1004,-13.4004 0.4004,-21.40039 0.3,-7.99999 0.6988,-16.80001 1.2988,-26.5 l 14.5996,-261.69922 c 0.6,-10.89999 2.3012,-16.30078 5.2012,-16.30078 1.1,0 3.1,3.69962 6,11.09961 l 128.2988,389.20117 c 1.7,6.89999 6.3008,10.29883 13.8008,10.29883 6.3,0 10.9008,-4.29845 13.8008,-12.89844 l 126.5996,-387.5 c 1.8,-5.69999 3.4992,-8.60156 5.1992,-8.60156 2.9,0 4.3008,3.1004 4.3008,9.40039 l 6,316.5 v 19.70117 c 0,10.29999 -0.3004,18.89923 -0.9004,25.69922 -0.6,6.89999 -2.3996,12.39922 -5.5996,16.69922 -3.2,4.29999 -7.8008,7.3 -13.8008,9 -6,1.8 -14.5004,2.60156 -25.4004,2.60156 -8.6,0 -12.8984,4.29845 -12.8984,12.89844 0,9.19999 5.6992,13.80078 17.1992,13.80078 8.1,0 19.0992,-1 33.1992,-3 14,-2 30.6,-3 49.5,-3 17.2,0 32.3012,1 45.2012,3 13,2 23.9992,3 33.1992,3 5.7,0 10.1008,-1.30039 13.3008,-3.90039 3.1,-2.5 4.6992,-5.6 4.6992,-9 0,-5.1 -1.1004,-8.59883 -3.4004,-10.29883 -2.3,-1.7 -5.3,-2.7 -9,-3 -3.7,-0.2 -8.0988,-0.50078 -13.2988,-0.80078 -5.2,-0.2 -10.3,-1.50078 -15.5,-3.80078 -9.2,-4 -14.5004,-9.49884 -15.9004,-16.29883 -1.4,-6.89999 -2.4,-18.00041 -3,-33.40039 L 1576,434.80078 v -20.5 c 0,-11.39999 0.7992,-19.2 2.1992,-23.5 1.4,-4.29999 5.3016,-7.80117 11.6016,-10.70117 5.2,-2.3 10.1996,-3.60039 15.0996,-3.90039 4.9,-0.3 9.4004,-0.69883 13.4004,-1.29883 4,-0.6 7.2984,-1.6 9.8984,-3 2.6,-1.4 3.9004,-4.4 3.9004,-9 0,-7.39999 -4.0996,-11.09961 -12.0996,-11.09961 h -111.0996 c -4.6,0 -7.9004,1.29844 -9.9004,3.89844 -2,2.6 -3.5992,6.20078 -4.6992,10.80078 L 1381.5,708.40039 c -2.3,6.39999 -4.6004,9.5 -6.9004,9.5 -1.7,0 -3.7,-3.40079 -6,-10.30078 l -114.5,-347.90039 c -1.1,-3.5 -2.6992,-5.6 -4.6992,-6.5 -2,-0.9 -4.4008,-1.29883 -7.3008,-1.29883 v -0.20117 z M 2862.8008,428 c -5,0 -10.8012,5.69923 -17.2012,17.19922 -6.5,11.49999 -16.4004,25.2008 -29.9004,41.30078 -7.8,8.59999 -14.9996,15.49922 -21.5996,20.69922 -6.6,5.19999 -12.3996,9.40039 -17.5996,12.90039 -5.2,3.5 -9.1996,6.6 -12.0996,9.5 -2.9,2.9 -4.3008,6.1 -4.3008,9.5 0,7.49999 5.2,11.20117 15.5,11.20117 h 15.5 c 5.7,0 9.2008,2.39883 10.3008,7.29883 1.1,4.89999 1.6992,11.4004 1.6992,19.40039 l -3.4004,185.09961 v 36.20117 c 0,72.99993 22.4008,109.39844 67.3008,109.39844 13.2,0 25.6004,-2.39883 37.4004,-7.29883 11.8,-4.89999 22.1,-10.80118 31,-17.70117 8.9,-6.89999 15.8996,-13.79923 21.0996,-20.69922 5.2,-6.89999 7.8008,-12.40039 7.8008,-16.40039 0,-8.09999 -2.9016,-12.09961 -8.6016,-12.09961 -2.8,0 -5.9,1.10039 -9,3.40039 -3.2,2.3 -6.7988,5.09922 -10.7988,8.19922 -4,3.2 -8.4008,5.90117 -13.3008,8.20117 -4.9,2.3 -10.4988,3.39844 -16.7988,3.39844 -13.2,0 -22.2016,-6.10001 -27.1016,-18.5 -4.9,-12.29999 -7.2988,-32.00003 -7.2988,-59 V 561.30078 c 0,-7.49999 3.3988,-11.20117 10.2988,-11.20117 h 65.4004 c 5.2,0 8.3,-0.89961 9.5,-2.59961 1.1,-1.8 1.7012,-4.9 1.7012,-9.5 v -17.30078 c 0,-3.5 -0.6012,-5.69844 -1.7012,-6.89844 -1.2,-1.1 -4.3,-1.70117 -9.5,-1.70117 H 2882.5 c -7.5,0 -11.1992,-3.69923 -11.1992,-11.19922 h -0.1016 v -52.20117 c 0,-6.29999 -0.4988,-11.39961 -1.2988,-15.09961 -0.8,-3.7 -3.1996,-5.59961 -7.0996,-5.59961 z m -521.6016,64 c -2.2,0 -4.5992,1.30039 -7.1992,3.90039 -2.6,2.6 -5.8008,5.9004 -9.8008,9.90039 -4,4 -8.9984,8.59883 -14.8984,13.79883 -6,5.19999 -13.2012,10.3 -21.7012,15.5 -14.2,8.09999 -25.2,14.09961 -33,18.09961 -7.7,3.99999 -11.5996,9.20001 -11.5996,15.5 0,5.69999 1.8996,8.7 5.5996,9 3.8,0.3 7.7996,1.20156 12.0996,2.60156 4.3,1.4 8.4016,4.69844 12.1016,9.89844 3.7,5.19999 5.5996,15.50001 5.5996,31 v 203.5 c 0,11.39999 -0.8012,19.6 -2.2012,24.5 -1.4,4.89999 -5.2996,9.1 -11.5996,12.5 -3.5,1.7 -6.6,2.7 -9.5,3 -2.9,0.3 -5.5992,0.70078 -8.1992,1.30078 -2.6,0.5 -4.6,1.70039 -6,3.40039 -1.5,1.7 -2.2012,4.59961 -2.2012,8.59961 0,9.69999 4.3004,14.59961 12.9004,14.59961 6.3,0 14.6004,-1 24.9004,-3 10.2,-2 22.8,-3 37.5,-3 13.6,0 26.4004,1 38.4004,3 12,2 22.3004,3 30.9004,3 10.3,0 15.5,-4.59884 15.5,-13.79883 0,-3.99999 -1,-6.90156 -3,-8.60156 -2.1,-1.7 -4.7008,-2.99844 -7.8008,-3.89844 -3.2,-0.9 -6.8992,-1.60117 -11.1992,-2.20117 -4.3,-0.6 -8.7008,-1.99883 -13.3008,-4.29883 -5.2,-2.9 -8.8008,-6.90157 -10.8008,-12.10156 -2,-5.2 -3,-12.99884 -3,-23.29883 V 510.09961 c 0,-12.09999 -2.8,-18.09961 -8.5,-18.09961 z m 175.7012,2.80078 c -5.1,0 -11.1,4.59884 -18,13.79883 -6.9,9.19999 -18.6012,18.6004 -35.2012,28.40039 -14.3,8.59999 -25.1992,15.10039 -32.6992,19.40039 -7.5,4.3 -11.1992,9.39962 -11.1992,15.09961 0,5.69999 1.8996,8.7 5.5996,9 3.7,0.3 7.9,1.09922 12.5,2.19922 4.6,1.2 8.8,4.3 12.5,9.5 3.7,5.19999 5.5996,15.50001 5.5996,31 v 203.10156 c 0,11.49999 -0.8996,19.80001 -2.5996,25 -1.8,5.2 -5.7996,9.19961 -12.0996,12.09961 -3.4,1.7 -6.8004,2.7 -9.9004,3 -3.2,0.3 -5.9012,0.69883 -8.2012,1.29883 -2.3,0.5 -4.1996,1.70039 -5.5996,3.40039 -1.5,1.7 -2.1992,4.59961 -2.1992,8.59961 0,9.69999 4.5988,14.60156 13.7988,14.60156 6.3,0 14.6004,-1 24.9004,-3 10.2,-2 22.8,-3 37.5,-3 14.2,0 27.0004,1 38.4004,3 11.4,2 21.1992,3 29.1992,3 10.3,0 15.5,-4.3004 15.5,-12.90039 0,-5.09999 -0.8996,-8.60078 -2.5996,-10.30078 -1.7,-1.7 -4.1988,-2.80039 -7.2988,-3.40039 -3.2,-0.6 -6.8008,-0.99883 -10.8008,-1.29883 -4,-0.2 -8.6008,-1.80117 -13.8008,-4.70117 -5.8,-2.9 -9.3988,-7.00001 -10.7988,-12.5 -1.5,-5.4 -2.2012,-12.99884 -2.2012,-22.79883 V 639.5 c 0,-30.99997 6.9008,-54.00041 20.8008,-68.90039 13.9,-14.89999 31.7992,-22.40039 53.6992,-22.40039 23.7,0 41.9016,8.8008 54.6016,26.30078 12.7,17.49998 19.0996,43.50043 19.0996,77.90039 v 174 c 0,10.39999 -0.6012,18.29922 -1.7012,23.69922 -1.2,5.49999 -5.1996,10.00039 -12.0996,13.40039 -3.4,1.7 -6.8004,2.7 -9.9004,3 -3.2,0.3 -5.9996,0.70078 -8.5996,1.30078 -2.6,0.5 -4.6,1.69844 -6,3.39844 -1.5,1.7 -2.1992,4.60157 -2.1992,8.60156 0,9.69999 4.5988,14.59961 13.7988,14.59961 5.8,0 13.9,-1 24.5,-3 10.6,-2 23.3,-3 38,-3 14.8,0 27.9008,1 39.3008,3 11.4,2 21.0992,3 29.1992,3 10.3,0 15.5,-4.60079 15.5,-13.80078 0,-4.6 -1,-7.8 -3,-9.5 -2,-1.7 -4.7992,-2.80039 -8.1992,-3.40039 -3.4,-0.5 -7.2996,-1.09922 -11.5996,-1.69922 -4.3,-0.6 -8.5,-2.00078 -12.5,-4.30078 -8.6,-5.7 -12.9004,-17.49885 -12.9004,-35.29883 V 641.30078 c 0,-47.69995 -9.7996,-83.70159 -29.5996,-108.10156 -19.7,-24.39998 -47.3008,-36.59961 -82.8008,-36.59961 -17.2,0 -33.7004,4.09962 -49.4004,12.09961 -15.7,7.99999 -29.5996,19.5004 -41.5996,34.40039 l -9.4004,11.20117 c -2.9,3.5 -5.1984,5.19922 -6.8984,5.19922 -1.8,0 -2.6016,-3.69923 -2.6016,-11.19922 h -0.1 v -35.40039 c 0,-6.29999 -0.8996,-10.90078 -2.5996,-13.80078 -1.7,-2.9 -3.3996,-4.29883 -5.0996,-4.29883 z M 1815.5996,496 c -22.5,0 -43.3992,3.89962 -62.6992,11.59961 -19.3,7.79999 -35.9996,17.50079 -50.0996,29.30078 -14.1,11.79999 -25.0008,24.89923 -32.8008,39.19922 -7.8,14.39998 -11.6992,27.90001 -11.6992,40.5 0,4.59999 1.4992,8.30117 4.6992,11.20117 3.2,2.9 7.0992,4.29883 11.6992,4.29883 17.3,0 29.8016,-4.99962 37.6016,-15.09961 7.8,-9.99999 14.7992,-22.19962 21.1992,-36.59961 8.1,-18.29998 16.4996,-32.59962 25.0996,-42.59961 8.6,-10.09999 20.4004,-15.10156 35.4004,-15.10156 15,0 24.3996,5.5004 28.0996,16.40039 3.7,10.89999 5.5996,28.40002 5.5996,52.5 v 61.09961 c 0,6.29999 -0.3988,10.70078 -1.2988,13.30078 -0.9,2.6 -3.6012,5.00078 -8.2012,7.30078 L 1796.5996,684.5 c -20.7,10.29999 -39.5996,20.60001 -56.5996,31 -17,10.39999 -31.4996,21.39923 -43.5996,33.19922 -12.2,11.79999 -21.4012,24.90118 -27.7012,39.20117 -6.3,14.29999 -9.5,31.00041 -9.5,49.90039 0,21.79998 5.6008,38.89923 16.8008,51.19922 11.2,12.29999 26.1,18.5 44.5,18.5 16.2,0 30.7996,-4.40079 44.0996,-13.30078 13.2,-8.89999 27.3008,-19.69884 42.3008,-32.29883 l 18.1992,-15.5 h 5.2012 c 6.3,19.49998 14.3992,34.1004 24.1992,43.90039 9.8,9.69999 22.1992,14.59961 37.1992,14.59961 7,0 14.6004,-2.30039 22.9004,-6.90039 8.4,-4.6 16.1008,-10.1004 23.3008,-16.40039 7.2,-6.29999 13.3,-12.8004 18.5,-19.40039 5.2,-6.59999 7.7988,-12.19883 7.7988,-16.79883 0,-8.59999 -3.3988,-12.90039 -10.2988,-12.90039 -5.2,0 -10.3,2.89962 -15.5,8.59961 -5.1,5.69999 -10.9012,8.59961 -17.2012,8.59961 -9.8,0 -15.7996,-4.59884 -18.0996,-13.79883 -2.3,-9.09999 -3.4004,-22.9008 -3.4004,-41.30078 h -0.2988 V 595 c 0,-15.99998 -0.8996,-30.19962 -2.5996,-42.59961 -1.7,-12.29999 -5.4012,-22.70001 -11.2012,-31 -5.8,-8.29999 -14.3,-14.60039 -25.5,-18.90039 -11.2,-4.3 -26.1,-6.5 -44.5,-6.5 z m 308.0996,0.0996 c -25.3,0 -48.5988,4.79962 -69.7988,14.59961 -21.2,9.79999 -39.5996,23.7008 -55.0996,41.80078 -15.5,18.09998 -27.7016,40.00003 -36.6016,65.5 -9,25.49997 -13.3984,54.40003 -13.3984,86.5 0,30.99997 4.0996,59.00003 12.0996,84 8.1,24.99998 19.1996,46.19924 33.5996,63.69922 14.3,17.49998 31.3008,31.00001 50.8008,40.5 19.5,9.49999 40.6992,14.20117 63.6992,14.20117 17.2,0 33.2992,-2.89961 48.1992,-8.59961 14.9,-5.69999 27.7008,-12.40118 38.3008,-20.20117 10.6,-7.69999 19,-15.79962 25,-24.09961 6,-8.29999 9,-14.99922 9,-20.19922 0,-7.49999 -3.7992,-11.20117 -11.1992,-11.20117 -1.7,0 -4.5012,1.89961 -8.2012,5.59961 -3.7,3.79999 -8.5996,7.9 -14.5996,12.5 -6,4.59999 -13.5004,8.8 -22.4004,12.5 -8.9,3.7 -18.7992,5.60156 -29.6992,5.60156 -17.3,0 -33.1004,-3.90157 -47.4004,-11.60156 -14.4,-7.69999 -26.9,-18.79845 -37.5,-33.39844 -10.7,-14.59998 -19,-32.50158 -25,-53.60156 -6,-21.09998 -9,-45.10003 -9,-72 0,-26.29997 2.6992,-49.69885 8.1992,-70.29883 5.4,-20.59998 12.5016,-38.10119 21.1016,-52.70117 8.6,-14.59999 18.3988,-25.69845 29.2988,-33.39844 10.9,-7.69999 21.6004,-11.60156 31.9004,-11.60156 8,0 14.6992,1.90156 20.1992,5.60156 5.5,3.8 10.5016,8.79962 15.1016,15.09961 4.6,6.29999 8.8984,14.19923 12.8984,23.69922 4,9.49999 8.6008,19.69962 13.8008,30.59961 7.5,16.69998 15.3008,25 23.3008,25 6.9,0 12.4988,-6.10001 16.7988,-18.5 4.3,-12.29999 6.5,-29.39924 6.5,-51.19922 0,-7.49999 -2.7992,-14.39923 -8.1992,-20.69922 -5.4,-6.29999 -12.6,-11.90039 -21.5,-16.90039 -8.9,-4.99999 -19.3004,-8.99961 -31.4004,-12.09961 -12.1,-3.1 -25.0008,-4.60117 -38.8008,-4.70117 z m 1003.7012,0.59961 c -27.5,0 -52.5004,4.80157 -74.9004,14.60156 -22.4,9.69999 -41.5992,23.49885 -57.6992,41.29883 -16,17.79998 -28.4,39.29963 -37,64.59961 -8.6,25.19997 -13,53.40042 -13,84.40039 0,30.39997 4.2,58.20002 12.5,83.5 8.3,25.29997 20.0988,46.90002 35.2988,65 15.2,18.09998 33.4012,32.20118 54.7012,42.20117 21.2,10.09999 44.7996,15.09961 70.5996,15.09961 28.7,0 54.5,-4.79962 77.5,-14.59961 22.9,-9.69999 42.2996,-23.5008 58.0996,-41.30078 15.8,-17.79998 27.9996,-39.29963 36.5996,-64.59961 8.6,-25.19997 12.9004,-53.10003 12.9004,-83.5 0,-30.99997 -4.2,-59.10042 -12.5,-84.40039 -8.3,-25.19997 -20.1008,-46.90002 -35.3008,-65 -15.2,-18.09998 -33.7,-32.19923 -55.5,-42.19922 -21.8,-10.09999 -45.8988,-15.10156 -72.2988,-15.10156 z m 309.5996,0 c -34.4,0 -62.7008,10.40041 -84.8008,31.40039 -22.2,20.89998 -33.1992,49.20082 -33.1992,84.80078 0,14.39999 1.8996,26.90001 5.5996,37.5 3.7,10.59999 9.3008,20.1004 16.8008,28.40039 7.5,8.39999 16.6996,16.09884 27.5996,23.29883 10.9,7.19999 23.5004,14.50001 37.9004,22 12.6,6.89999 24.0004,13.4004 34.4004,19.40039 10.4,5.99999 19.0988,12.3004 26.2988,18.90039 7.2,6.59999 12.7004,14.1004 16.4004,22.40039 3.7,8.29999 5.5996,17.89884 5.5996,28.79883 0,21.19998 -5.8992,38.20079 -17.6992,50.80078 -11.8,12.59999 -26.8012,18.90039 -45.2012,18.90039 -29.9,0 -52.7984,-17.50003 -68.8984,-52.5 -4.6,-9.79999 -7.9004,-18.60079 -9.9004,-26.30078 -2.1,-7.69999 -3.8012,-14.30079 -5.2012,-19.80078 -1.4,-5.5 -2.9992,-9.6 -4.6992,-12.5 -1.7,-2.9 -4.5996,-4.29883 -8.5996,-4.29883 -6.3,0 -10.1012,5.3004 -11.2012,15.90039 -1.1,10.59999 -1.6992,27.69924 -1.6992,51.19922 v 21.5 c 0,7.99999 0.4992,14.3004 1.6992,18.90039 1.2,4.6 4.3,8.29922 9.5,11.19922 8,5.19999 19.8008,9.90118 35.3008,14.20117 15.5,4.3 33,6.5 52.5,6.5 19.5,0 37.4008,-3.1004 53.8008,-9.40039 16.3,-6.29999 30.4996,-15.30001 42.5996,-27 12.1,-11.69999 21.4,-26.2008 28,-43.30078 6.6,-17.09998 9.9004,-36.59885 9.9004,-58.29883 0,-27.99997 -6.6008,-51.30041 -19.8008,-69.90039 -13.2,-18.59998 -33.9,-35.30119 -62,-50.20117 -13.2,-6.79999 -25.0992,-12.99844 -35.6992,-18.39844 -10.6,-5.39999 -19.6016,-11.00118 -27.1016,-16.70117 -7.4,-5.69999 -13.1992,-11.8004 -17.1992,-18.40039 -4,-6.49999 -6,-14.69845 -6,-24.39844 0,-14.79998 5.0996,-27.0004 15.0996,-36.40039 10,-9.49999 23.3,-14.20117 40,-14.20117 23.5,0 42.4008,12.30002 56.8008,37 6.9,11.99999 10.8996,22.10157 12.0996,30.10156 1.2,8.09999 4.8992,12.09961 11.1992,12.09961 5.7,0 9.5012,-4.70118 11.2012,-14.20117 1.7,-9.39999 2.5996,-24.19885 2.5996,-44.29883 0,-15.09998 -6.6008,-26.30118 -19.8008,-33.70117 -13.2,-7.39999 -37.8992,-11.1 -74.1992,-11 z m -313,24 c 30.4,0 55.3,17.1012 74.5,51.20117 19.2,34.09997 28.8008,81.70006 28.8008,142.5 0,53.39995 -9.0016,94.80042 -27.1016,124.40039 -18.1,29.59997 -42.9,44.39844 -74.5,44.39844 -31,0 -56.0988,-16.99925 -75.2988,-51.19922 -19.3,-34.09997 -28.9004,-81.60006 -28.9004,-142.5 0,-53.99995 8.8992,-95.60042 26.6992,-124.90039 17.8,-29.19997 43.0008,-43.90039 75.8008,-43.90039 z M 1823.9004,697.30078 c 2.9,0 4.2988,3.39884 4.2988,10.29883 v 68 c 0,11.49999 -1.8996,21.80001 -5.5996,31 -3.7,9.19999 -8.4992,17.10118 -14.1992,23.70117 -5.7,6.59999 -12.0004,11.8 -18.9004,15.5 -6.9,3.7 -13.7992,5.59961 -20.6992,5.59961 -9.8,0 -17.7012,-4.3004 -23.7012,-12.90039 -6,-8.59999 -9,-21.20041 -9,-37.90039 0,-40.19996 16.9008,-68.89963 50.8008,-86.09961 l 28.4004,-13.80078 c 4,-2.2 6.8996,-3.39844 8.5996,-3.39844 z"
   style="fill:#9c9c9c;fill-opacity:1" />
	
	
	
	
	
	
	
	
</g></svg>
