<?xml version="1.0" encoding="UTF-8" standalone="no"?>
<!-- Created with Inkscape (http://www.inkscape.org/) -->

<svg
   width="1015.7618mm"
   height="344.27844mm"
   viewBox="0 0 1015.7618 344.27844"
   version="1.1"
   id="svg1"
   inkscape:version="1.3.2 (091e20e, 2023-11-25, custom)"
   sodipodi:docname="vmu.svg"
   xmlns:inkscape="http://www.inkscape.org/namespaces/inkscape"
   xmlns:sodipodi="http://sodipodi.sourceforge.net/DTD/sodipodi-0.dtd"
   xmlns="http://www.w3.org/2000/svg"
   xmlns:svg="http://www.w3.org/2000/svg">
  <sodipodi:namedview
     id="namedview1"
     pagecolor="#ffffff"
     bordercolor="#000000"
     borderopacity="0.25"
     inkscape:showpageshadow="2"
     inkscape:pageopacity="0.0"
     inkscape:pagecheckerboard="0"
     inkscape:deskcolor="#d1d1d1"
     inkscape:document-units="mm"
     inkscape:zoom="0.28645984"
     inkscape:cx="1179.9211"
     inkscape:cy="630.10578"
     inkscape:window-width="3840"
     inkscape:window-height="2054"
     inkscape:window-x="-11"
     inkscape:window-y="-11"
     inkscape:window-maximized="1"
     inkscape:current-layer="layer1" />
  <defs
     id="defs1" />
  <g
     inkscape:label="Layer 1"
     inkscape:groupmode="layer"
     id="layer1"
     transform="translate(402.96042,23.547917)">
    <g
       id="g27"
       transform="matrix(0.26458333,0,0,0.26458333,-402.96042,-23.545314)">
	<g
   id="g26">
		<g
   id="g16">
			<path
   d="m 250,920.3 c -5.6,5.1 -10.5,11.1 -14.7,17.9 -2,3.4 -3.6,6.6 -5,9.6 -1.4,3 -2.5,5.5 -3.4,7.4 l -99.8,218.4 -109,-229.7 c -1.4,-3.1 -2.4,-5.2 -2.9,-6.3 -2,-2.2 -3.4,-4.1 -4.2,-5.5 -3.6,-4.8 -7.3,-8.7 -10.9,-11.8 h 66.5 c -4.5,3.7 -7.1,8.7 -8,15.2 0,2.8 0.5,5.8 1.6,8.9 1.1,3.1 1.9,5.6 2.4,7.6 l 68.2,160.3 64.2,-152.1 c 3.3,-8 4.9,-14.8 4.9,-20.5 0,-2.3 -0.2,-4.6 -0.6,-7.1 -0.4,-2.4 -2,-6.5 -4.8,-12.2 H 250 Z"
   id="path1" />

			<path
   d="m 338.4,1161.1 h -49.2 c 0.8,-1.1 1.8,-2.5 3,-4.2 1.1,-1.7 2,-3.6 2.5,-5.9 0.3,-1.1 0.4,-3.2 0.4,-6.1 0,-2.9 0,-5.4 0,-7.4 V 946.4 c 0,-2.2 0,-3.8 0,-4.6 0,-5.3 -0.7,-9.7 -2.1,-13 -1.4,-3.4 -3.8,-7 -7.1,-10.9 l 45.9,-3.8 v 222.7 c 0,5.6 0.4,9.9 1.3,12.8 0.7,2.9 2.5,6.8 5.3,11.5 z m -6.7,-296.7 h -43.4 v -45 h 43.4 z"
   id="path2" />

			<path
   d="m 546,1092.7 c 0,24.9 -10.4,44 -31.1,57.1 -16.8,10.6 -36.9,16 -60.2,16 -14.6,0 -26.8,-0.6 -36.6,-1.9 -9.8,-1.3 -18.7,-3.7 -26.5,-7.4 l -6.3,-37.5 c 5.9,6.7 14.9,12.3 27.1,16.8 12.2,4.5 25.6,6.7 40.2,6.7 16,0 28.9,-3.4 38.7,-10.1 11.5,-7.8 17.3,-19.9 17.3,-36.1 0,-9.8 -2.9,-18.3 -8.6,-25.4 -5.7,-7.1 -13.7,-12.7 -23.8,-16.6 l -30.7,-12.6 c -16,-6.4 -28.5,-14.8 -37.5,-25.2 -10.1,-11.8 -15.1,-25.3 -15.1,-40.7 0,-19.3 8.8,-34.9 26.5,-46.6 16,-10.6 35.4,-16 58.1,-16 13.2,0 23.4,0.7 30.7,2.1 7.3,1.4 15.7,4.6 25.2,9.6 v 30 c -5.9,-5.8 -14,-10 -24.2,-12.7 -10.2,-2.7 -20.7,-4.1 -31.4,-4.1 -13.2,0 -24.1,3.3 -32.8,9.9 -8.7,6.6 -13,15.6 -13,27.1 0,8.7 2.5,16 7.6,22.1 5,6 12.2,11 21.5,14.9 l 30.3,12.2 c 20.8,8.4 35.1,17.7 42.9,27.9 7.7,10.1 11.7,23.6 11.7,40.5 z"
   id="path3" />

			<path
   d="m 801.9,1160.3 h -46.3 v -29.9 c -10.4,12.2 -21.8,20.8 -34.3,26 -12.5,5.1 -27.3,7.7 -44.4,7.7 -25.3,0 -46.2,-6.7 -62.7,-20.2 -18.5,-14.9 -27.8,-35.4 -27.8,-61.5 V 949 c 0,-4.5 -0.2,-7.9 -0.4,-10.3 -0.3,-2.4 -1,-5 -2.1,-8 -1.1,-3 -3.4,-5.8 -6.7,-8.6 l 44.2,-4.2 v 144 c 0,22.4 4.8,40.5 14.3,54.3 11.5,16.3 28.8,24.4 51.8,24.4 18.2,0 33.9,-5.9 47.1,-17.7 13.2,-11.8 19.8,-26.5 19.8,-44.2 V 946.9 c 0,-2.2 -0.2,-4.4 -0.6,-6.5 -0.4,-2.1 -1.3,-5 -2.7,-8.8 -1.4,-3.8 -3.1,-6.9 -5,-9.5 l 45.9,-5.5 v 211.3 c 0,4.2 0.1,8.1 0.2,11.8 0.1,3.7 1,7.4 2.7,11.4 0.8,2 1.8,3.7 3,5.1 1.2,1.3 2.6,2.7 4,4.1 z"
   id="path4" />

			<path
   d="m 1026.7,1159.9 -43.8,0.8 v -22.3 c -10,9.5 -20.4,16.1 -31.2,19.8 -10.8,3.7 -23.9,5.5 -39.5,5.5 -22.6,0 -41.4,-6.2 -56.5,-18.5 -16.2,-13.5 -24.3,-31.7 -24.3,-54.7 0,-20.5 5.8,-36.1 17.3,-46.7 10.1,-9.3 26.2,-15.7 48.4,-19.4 l 50.1,-8.4 c 14.9,-2.2 24.5,-6 29,-11.2 4.5,-5.2 6.7,-12.6 6.7,-22.1 0,-12.1 -5.7,-22.2 -17,-30.5 -11.4,-8.3 -25.6,-12.4 -42.7,-12.4 -14.6,0 -27.9,1.4 -40,4.2 -12.1,2.8 -22.5,8 -31.1,15.6 V 931 c 10.7,-6.4 22,-10.7 33.9,-12.6 11.9,-2 24.6,-3 38.1,-3 33.1,0 57.2,6.9 72.4,20.6 14.3,12.9 21.5,32.6 21.5,58.9 v 129.6 c 0,6.4 0.7,12.6 2.1,18.3 1.3,5.8 3.5,11.5 6.6,17.1 z m -42.1,-71.6 v -57.2 l -31.6,8 -45.5,8.4 c -12.9,2.5 -23.4,7.6 -31.4,15.2 -8,7.6 -12,17.1 -12,28.6 0,14.3 5.2,26.2 15.6,35.8 10.4,9.6 23.3,14.3 38.7,14.3 17.7,0 32.8,-4.6 45.5,-13.9 13.8,-10.1 20.7,-23.2 20.7,-39.2 z"
   id="path5" />

			<path
   d="m 1127.3,1161.1 h -53.5 c 2.1,-5.1 3.5,-8.6 4.2,-10.5 0.7,-2 1.3,-4.6 2,-7.8 0.7,-3.2 1.1,-6.9 1.4,-10.9 0.3,-4.1 0.4,-8.2 0.4,-12.4 V 839.9 c 0,-4.8 0,-9.7 0,-14.7 -1.1,-6.5 -2,-12 -2.7,-16.6 -0.7,-4.6 -1.5,-8.1 -2.3,-10.3 -2,-3.4 -3.5,-6 -4.6,-8 l 46.7,-3.8 -0.4,331.7 c 0,5.9 0.1,10.5 0.4,13.7 0.3,3.2 1.1,7.5 2.5,12.8 0.6,2.2 1.3,4.8 2.3,7.8 1,2.9 2.2,5.8 3.6,8.6 z"
   id="path6" />

			<path
   d="m 1635,1161.6 -53.5,1.3 c 2.5,-3.4 4.4,-6.2 5.7,-8.4 1.3,-2.2 2.2,-4.5 2.9,-6.7 0.7,-2.2 1.2,-4.9 1.5,-8 0.3,-3.1 0.4,-5.3 0.4,-6.7 -0.3,-3.7 -0.3,-6.6 0,-8.8 V 990.6 c 0,-14.9 -6,-27.1 -18.1,-36.6 -12.1,-9.5 -26.1,-14.3 -42.1,-14.3 -16,0 -30.1,4.6 -42.3,13.9 -12.2,9.3 -18.3,21.3 -18.3,36.2 v 136 c 0,4.8 0.1,8.6 0.4,11.4 0.3,2.8 0.8,6 1.7,9.5 0.8,3.5 1.5,5.8 2.1,6.9 0.6,0.8 2.2,3.4 5.1,7.6 h -52.6 c 1.4,-2 2.9,-4 4.4,-6.1 1.5,-2.1 2.3,-4.4 2.3,-6.9 v -23.1 -135.3 c 0,-14.9 -5.5,-27.4 -16.5,-37.5 -11,-10.1 -24.2,-15.2 -39.5,-15.2 -17,0 -31.1,6.2 -42.4,18.7 -11.3,12.5 -16.9,27.3 -16.9,44.4 v 130.1 c 0,2.5 0,5.3 0,8.2 0,2.9 0.7,6.7 2.1,11.2 0.6,2 2.2,5.8 5,11.4 h -51.8 c 2.2,-2.8 3.9,-6 5.1,-9.5 1.1,-3.5 1.7,-7.2 1.7,-11.2 V 946.9 c 0,-2 -0.3,-4.2 -0.8,-6.7 -0.3,-0.8 -0.9,-2.9 -1.9,-6.1 -1,-3.2 -2.2,-6 -3.8,-8.2 -1.6,-2.2 -2.6,-3.9 -3.2,-5 l 45.9,-4.2 v 26.9 c 19,-22.2 42.6,-33.3 70.9,-33.3 15.7,0 29.1,2.5 40.3,7.6 11.2,5.1 21.9,13.5 32.3,25.3 l 8.4,-7.2 c 9.3,-8.1 18.7,-14 28.2,-17.5 9.5,-3.5 20.6,-5.3 33.3,-5.3 30.3,0 53.9,7.2 70.8,21.7 16.8,14.5 25.3,34 25.3,58.7 v 132.2 c 0,2.2 0,4.6 0,6.9 0,2.4 0.6,6.4 1.7,12 0.3,3.1 0.8,5.6 1.7,7.6 0.7,2 2.2,5 4.5,9.3 z"
   id="path7" />

			<path
   d="m 1882.9,1021.8 h -177.6 l -1.3,16.4 c 0,29.7 7.4,53.7 22.4,72 16.6,20.2 40.2,30.3 70.9,30.3 19.4,0 33.9,-1.1 43.5,-3.4 13.2,-3.1 25.9,-9.4 38,-18.9 l -6.3,30.7 c -10.1,5.3 -20.5,9.3 -31.2,11.8 -10.7,2.5 -28.6,3.8 -53.9,3.8 -37.6,0 -66.8,-10.7 -87.6,-32 -21.6,-22.2 -32.4,-54.3 -32.4,-96.4 0,-32 10.8,-59.8 32.4,-83.3 21.6,-23.6 48.4,-35.4 80.4,-35.4 29.7,0 54.3,10.1 73.7,30.3 19.3,20.2 29,44.9 29,74.1 z m -35,-24 c -3.4,-17.1 -10.7,-30.7 -21.9,-40.6 -11.2,-9.9 -26.2,-14.9 -45,-14.9 -17.1,0 -32.1,5.1 -44.8,15.4 -12.8,10.2 -21,23.6 -24.6,40.2 h 136.3 z"
   id="path8" />

			<path
   d="m 2274.4,1161.6 -53.5,1.3 c 2.5,-3.4 4.4,-6.2 5.7,-8.4 1.3,-2.2 2.2,-4.5 2.9,-6.7 0.7,-2.2 1.2,-4.9 1.5,-8 0.3,-3.1 0.4,-5.3 0.4,-6.7 -0.3,-3.7 -0.3,-6.6 0,-8.8 V 990.6 c 0,-14.9 -6,-27.1 -18.1,-36.6 -12.1,-9.5 -26.1,-14.3 -42.1,-14.3 -16,0 -30.1,4.6 -42.3,13.9 -12.2,9.3 -18.3,21.3 -18.3,36.2 v 136 c 0,4.8 0.1,8.6 0.4,11.4 0.3,2.8 0.8,6 1.7,9.5 0.8,3.5 1.5,5.8 2.1,6.9 0.6,0.8 2.2,3.4 5.1,7.6 h -52.6 c 1.4,-2 2.9,-4 4.4,-6.1 1.5,-2.1 2.3,-4.4 2.3,-6.9 v -23.1 -135.3 c 0,-14.9 -5.5,-27.4 -16.5,-37.5 -11,-10.1 -24.2,-15.2 -39.5,-15.2 -17,0 -31.1,6.2 -42.4,18.7 -11.3,12.5 -16.9,27.3 -16.9,44.4 v 130.1 c 0,2.5 0,5.3 0,8.2 0,2.9 0.7,6.7 2.1,11.2 0.6,2 2.2,5.8 5.1,11.4 H 1914 c 2.2,-2.8 3.9,-6 5.1,-9.5 1.1,-3.5 1.7,-7.2 1.7,-11.2 V 946.9 c 0,-2 -0.3,-4.2 -0.8,-6.7 -0.3,-0.8 -0.9,-2.9 -1.9,-6.1 -1,-3.2 -2.2,-6 -3.8,-8.2 -1.6,-2.2 -2.6,-3.9 -3.2,-5 l 45.9,-4.2 v 26.9 c 19,-22.2 42.6,-33.3 70.9,-33.3 15.7,0 29.1,2.5 40.3,7.6 11.2,5.1 21.9,13.5 32.3,25.3 l 8.4,-7.2 c 9.3,-8.1 18.7,-14 28.2,-17.5 9.6,-3.5 20.6,-5.3 33.3,-5.3 30.3,0 53.9,7.2 70.8,21.7 16.9,14.5 25.3,34 25.3,58.7 v 132.2 c 0,2.2 0,4.6 0,6.9 0,2.4 0.6,6.4 1.7,12 0.3,3.1 0.8,5.6 1.7,7.6 0.7,2 2.2,5 4.5,9.3 z"
   id="path9" />

			<path
   d="m 2556,1042.4 c 0,34 -12.4,62.6 -37,85.9 -24.7,23.3 -54.6,34.9 -89.7,34.9 -33.7,0 -62.6,-12.2 -86.7,-36.6 -24.1,-24.4 -36.2,-53.5 -36.2,-87.1 0,-34.2 12.4,-63.3 37.2,-87.3 24.8,-24 54.6,-36 89.4,-36 33.9,0 62.9,12.4 86.9,37.3 24.1,24.7 36.1,54.4 36.1,88.9 z m -36.6,0.4 c 0,-26.9 -8,-50.1 -24,-69.5 -16.9,-20.5 -38,-30.7 -63.3,-30.7 -25.9,0 -47.2,9.7 -63.9,29.3 -16.7,19.5 -25.1,42.7 -25.1,69.7 0,25.5 8.4,48 25.3,67.3 16.9,19.4 37.7,29.1 62.4,29.1 24.8,0 45.7,-9.4 62.9,-28.2 17.1,-18.8 25.7,-41.1 25.7,-67 z"
   id="path10" />

			<path
   d="m 2709.2,945.2 c -7.3,-2 -13.3,-2.9 -18.1,-2.9 -7.8,0 -16.3,2.5 -25.2,7.6 -9,5.1 -16.3,13.2 -21.9,24.5 -5.6,11.2 -8.4,23.8 -8.4,37.5 v 106.3 c 0,8.2 1.1,15.8 3.2,23 2.1,7.2 5,13.8 8.6,20 h -57.2 c 2.5,-3.7 3.9,-5.6 4.2,-5.9 1.1,-1.7 2.1,-4.3 2.9,-7.8 0.8,-3.5 1.3,-7.5 1.5,-11.8 0.1,-4.3 0.2,-7.9 0.2,-10.8 V 954.5 c 0,-4.8 -0.3,-8.4 -0.8,-11 -0.3,-0.6 -1.1,-2.8 -2.5,-6.8 -2.2,-5.9 -5.5,-11.4 -9.7,-16.4 l 48.4,-5 v 35.8 c 3.4,-7.3 7.4,-13.3 12,-18.1 4.6,-4.8 10.7,-9.3 18.3,-13.5 9.8,-5.6 20.3,-8.4 31.6,-8.4 3.9,0 8.3,0.4 13.1,1.3 z"
   id="path11" />

			<path
   d="m 2966,920.3 c -5.9,5.3 -10.9,10.8 -15.1,16.4 -4.2,5.6 -7.6,11.5 -10.1,17.7 l -124.6,306.4 c -2.8,6.2 -5.5,12.5 -8,18.9 -0.6,2 -1.4,5.5 -2.5,10.5 -1.1,5 -1.8,8.7 -2.1,10.9 l -30.2,0.1 67.7,-169.9 -85.1,-181.2 c -0.3,-0.8 -1.3,-3.1 -3.1,-6.8 -1.8,-3.7 -3.6,-6.9 -5.3,-9.6 -1.7,-2.7 -3.5,-5.2 -5.5,-7.5 -2,-2.3 -3.8,-4.3 -5.5,-6 h 50.9 c -1.1,3.4 -1.7,7.1 -1.7,11.1 0,4 0.7,7.8 2.1,11.5 2.5,5.1 4.4,9.1 5.5,11.9 l 64,143.1 56,-147.7 c 1.1,-3.6 1.7,-8.5 1.7,-14.7 0,-4.5 -1.5,-9.5 -4.6,-15.1 z"
   id="path12" />

			<path
   d="m 3322.5,1160.3 h -46.3 v -29.9 c -10.4,12.2 -21.8,20.8 -34.3,26 -12.5,5.1 -27.3,7.7 -44.4,7.7 -25.2,0 -46.2,-6.7 -62.7,-20.2 -18.5,-14.9 -27.8,-35.4 -27.8,-61.5 V 949 c 0,-4.5 -0.1,-7.9 -0.4,-10.3 -0.3,-2.4 -1,-5 -2.1,-8 -1.1,-3 -3.4,-5.8 -6.7,-8.6 l 44.2,-4.2 v 144 c 0,22.4 4.8,40.5 14.3,54.3 11.5,16.3 28.8,24.4 51.8,24.4 18.2,0 33.9,-5.9 47.1,-17.7 13.2,-11.8 19.8,-26.5 19.8,-44.2 V 946.9 c 0,-2.2 -0.2,-4.4 -0.6,-6.5 -0.4,-2.1 -1.3,-5 -2.7,-8.8 -1.4,-3.8 -3.1,-6.9 -5.1,-9.5 l 45.9,-5.5 v 211.3 c 0,4.2 0.1,8.1 0.2,11.8 0.1,3.7 1.1,7.4 2.7,11.4 0.8,2 1.8,3.7 2.9,5.1 1.4,1.3 2.8,2.7 4.2,4.1 z"
   id="path13" />

			<path
   d="m 3577.6,1160.3 h -52.2 c 1.7,-2.2 3.3,-4.5 4.8,-6.7 1.5,-2.2 2.3,-4.8 2.3,-7.6 0,-1.7 0,-3.2 0,-4.6 0,-2 0,-3.4 0,-4.2 0,-2 0,-4 0,-6.1 0,-2.1 0,-4.3 0,-6.5 V 994.9 c 0,-16.8 -7.2,-30.4 -21.7,-40.6 -14.5,-10.2 -31.1,-15.4 -49.9,-15.4 -18.8,0 -34,6.3 -45.7,18.9 -11.6,12.6 -17.5,27.9 -17.5,45.9 v 120 c 0,6.2 0.2,10.7 0.6,13.5 0.4,2.8 1.5,6.7 3.2,11.8 0.6,2 2.2,5.8 5.1,11.4 h -50.9 c 2.5,-3.6 4.3,-7 5.3,-10.1 1,-3.1 1.5,-6.4 1.5,-10.1 V 949.8 c 0,-2 -0.1,-3.8 -0.4,-5.5 -0.3,-1.7 -1.1,-4.8 -2.5,-9.3 l -4.6,-13 42.5,-2.1 0.4,26.5 c 19.6,-21.3 43.8,-32 72.9,-32 26.8,0 49.8,8.3 68.9,24.8 19.1,16.6 28.7,37.3 28.7,62.3 v 123.8 c 0,4.5 0.1,8.1 0.4,10.9 0.3,2.8 0.9,6.2 1.9,10.3 0.9,4.2 3.3,8.7 6.9,13.8 z"
   id="path14" />

			<path
   d="m 3671.5,1161.1 h -49.2 c 0.8,-1.1 1.8,-2.5 2.9,-4.2 1.1,-1.7 2,-3.6 2.5,-5.9 0.3,-1.1 0.4,-3.2 0.4,-6.1 0,-2.9 0,-5.4 0,-7.4 V 946.4 c 0,-2.2 0,-3.8 0,-4.6 0,-5.3 -0.7,-9.7 -2.1,-13 -1.4,-3.4 -3.8,-7 -7.2,-10.9 l 45.9,-3.8 v 222.7 c 0,5.6 0.4,9.9 1.3,12.8 0.8,2.9 2.7,6.8 5.5,11.5 z m -6.8,-296.7 h -43.4 v -45 h 43.4 z"
   id="path15" />

			<path
   d="m 3839,1159.9 h -39.1 c -20.2,0 -35.2,-8.6 -45,-25.7 -3.9,-6.4 -6.4,-13.7 -7.4,-21.7 -1,-8 -1.5,-18 -1.5,-30.1 V 943.1 h -32.4 v -24 h 32.4 v -27.8 c 0,-2.5 0,-5.2 0,-8 -1.1,-2.2 -1.8,-3.8 -2.1,-4.6 -2,-3.4 -4.5,-6 -7.6,-8 l 46.3,-24 v 72.5 h 55.6 v 24 h -55.6 v 140.6 c 0,10.4 0.5,19 1.5,25.9 1,6.9 3.4,12.3 7.4,16.2 7,7 15.6,10.5 25.7,10.5 h 21.9 v 23.5 z"
   id="path16" />

		</g>

		<g
   id="g25">
			<g
   id="g24">
				<path
   d="m 854.1,134.5 c 0,-16.7 -3.2,-38.4 -10.6,-47.5 48.4,0 153.2,0.3 198.1,0.3 103.3,0 259.2,57.4 259.2,250.6 0,143.5 -110,250.3 -259.2,250.3 -32.7,0 -157.5,-0.4 -201.9,-0.4 9,-16.7 14.4,-39.5 14.4,-57.5 z m 74.3,404.6 c 47.7,6.2 91.7,8.1 131.5,2.4 38.5,-5.5 168,-33.4 167.2,-205.3 -0.7,-162.9 -101.4,-200.1 -178.9,-204.7 -40.4,-2.4 -79.5,-0.8 -119.8,6.2 z"
   id="path17" />

				<path
   d="m 1343.4,240.8 74.2,-11.6 c 0,15.2 0,59.7 0,65.4 19.1,-47 78.3,-84.9 162.5,-52.1 l -19.7,51.7 c -77.1,-36.5 -142.7,-4.5 -142.7,81.1 v 176.5 c 0,8.4 1.8,25.3 6.9,36.2 h -77.1 c 7.8,-9.5 11.4,-27.8 11.4,-36.2 V 297.2 c -0.1,-18.5 -3.9,-47.1 -15.5,-56.4 z"
   id="path18" />

				<path
   d="m 3690,276.3 c 0,4.8 0,210.2 0,225.5 0,70.8 48.7,89.7 85,89.7 15.3,0.7 36.9,-2.9 52,-6.2 l 9.3,-43.7 c -17.6,6.8 -38.1,8.3 -50.4,8.3 -22.7,0 -39.1,-15.1 -39.1,-38.6 0,-21.1 -0.5,-228.1 0,-234.7 h -0.2 c 3,0 50,-0.2 54.8,0 15.4,0.5 27.3,1.4 37.5,5.5 l 0.1,-41.2 c 0,0 -90.2,-0.1 -92.1,-0.1 l 0.4,-105.5 -68.4,18.9 c 9.4,8.8 12.5,34.6 12.5,51.6 0,0 -0.1,31.5 -0.1,35.3 -3.1,0 -37.8,0.2 -43.5,0.2 v 34.8 c 5.9,0.2 42.2,0.2 42.2,0.2 z"
   id="path19" />

				<path
   d="m 3394.4,514.8 c 29.4,21 75.5,39.6 109.4,39.6 46.9,0 80.6,-22.8 80.6,-65.8 0,-79.3 -181,-66.2 -181,-166.9 0,-68 60.9,-93.7 118.9,-93.7 18.7,0 61.2,4 88.3,14.5 l -0.2,46.5 c -24,-20.5 -60.8,-25.6 -84.9,-25.6 -38.4,0 -67.2,19.1 -67.2,56.4 0,54.8 180.7,51.6 180.7,164.2 0,72.8 -63,106.7 -132.5,106.7 -33.8,0 -69.1,-6 -98.4,-14.4 z"
   id="path20" />

				<path
   d="m 2302.3,277 c 0,-4.1 0.1,-40.9 0.1,-45.7 l -75.1,11.6 c 9,9.4 16,39.1 16,60.2 v 246.2 c 0,8.4 -3.6,28.8 -11.4,38.4 h 81.9 c -7.8,-9.5 -11.4,-30 -11.4,-38.4 V 364.1 c 0,-67.7 42,-91.6 83.6,-91.6 37.8,0 71.9,16.3 71.9,91.6 v 185.3 c 0,8.4 -3.6,28.8 -11.4,38.4 h 79.4 c -7.8,-9.5 -11.4,-30 -11.4,-38.4 V 364.1 c 0,-75.1 46.4,-91.6 84.3,-91.6 37.8,0 77.3,23.7 77.3,91.6 v 185.3 c 0,8.4 -3.6,28.8 -11.4,38.4 h 76.6 c -7.8,-9.5 -11.4,-30 -11.4,-38.4 V 328.9 c 0,-37.6 -38.4,-97.8 -127.9,-97.8 -52.1,0 -82.2,23.2 -105,43.1 -19.4,-22.7 -51,-43.9 -101.8,-43.9 -49.4,0.1 -78.7,29 -92.9,46.7 z"
   id="path21" />

				<path
   d="m 2125.1,392.5 c -10.7,10.1 -33.1,18 -56.4,21 -60.9,8 -113.7,18.1 -113.7,77.4 0,35.2 38.4,62.9 68.8,62.9 80.5,0 101.3,-58.1 101.3,-103.9 z M 1934.9,247.3 c 30.7,-12.3 80.3,-18 111.4,-18 79.4,0 132.2,39.6 132.2,131.8 v 152.7 c 0,28.3 0.4,55.1 10.5,73.9 h -63.8 l -2.3,-40.2 c -24.1,31.2 -53.1,45.2 -102,45.2 -96.7,0 -117.8,-66.1 -117.8,-97.8 0,-113.3 107.9,-114.6 154.7,-121.3 25.9,-3.7 59.2,-11 64.2,-35.3 8.3,-40.1 -20.4,-70.3 -79.1,-70.3 -43.1,0 -78.4,13.1 -107.9,30.8 z m 1371.7,145.2 c -10.7,10.1 -33.1,18 -56.4,21 -60.9,8 -113.6,18.1 -113.6,77.4 0,35.2 38.4,62.9 68.8,62.9 80.5,0 101.3,-58.1 101.3,-103.9 z M 3116.5,247.3 c 30.7,-12.3 80.4,-18 111.4,-18 79.3,0 132.1,39.6 132.1,131.8 v 152.7 c 0,28.3 -6.2,54.5 10.5,73.9 h -63.7 l -2.4,-40.2 c -24.2,31.2 -53,45.2 -102,45.2 -96.7,0 -117.8,-66.1 -117.8,-97.8 0,-113.3 107.9,-114.6 154.7,-121.3 26,-3.7 59.3,-11 64.2,-35.3 8.3,-40.1 -20.4,-70.3 -79.1,-70.3 -43.1,0 -78.3,13.1 -107.9,30.8 z"
   id="path22" />

				<path
   d="m 3048.6,294.1 c -23.9,-14 -61.7,-25 -88.1,-25 -92.6,0 -135,56.9 -135,138.9 0,81.2 41.5,143.4 132,143.4 31,0 73.3,-14 106,-34.1 l -13.3,59.7 c -33.4,10 -61.5,14.7 -98.6,14.7 -127.2,0 -186.8,-90.2 -186.8,-184.1 0,-103.8 80,-176.7 188.2,-176.7 47.3,0 81.8,11.6 95.8,15.6 z"
   id="path23" />

				<path
   d="m 1624.7,412.4 c 0.1,-8.6 1.2,-16.7 2.2,-24.6 H 1873 c 0,-84.6 -42.3,-157.1 -142.6,-157.1 -104.1,0 -165.8,81.4 -165.8,185.2 0,93.8 68.8,177.7 186.5,177.7 37.3,0 68.4,-9.1 102,-20.9 l 11.8,-60 c -28.7,23.7 -75.2,37.7 -117.1,37.7 -75.4,-0.4 -123.5,-54.9 -123.1,-138 z m 9.9,-62.2 c 8,-41.2 46.1,-83.1 91.7,-83.1 69.7,0 89.8,54.4 89.8,83.1 -0.1,0 -181.5,0.1 -181.5,0 z"
   id="path24" />

			</g>

			<path
   class="st0"
   d="m 452.7,9 c 27.6,4.1 55.8,13.7 70.5,18.3 29.7,9 77.7,37.2 94.7,50.7 8,6.4 24.9,23.1 31.5,31.5 6.4,8.2 18.6,26 26.3,36.8 12.4,18.1 26.9,45 39.3,69.7 13.8,27.6 14.8,35.7 18.9,58.8 l 9.1,40.7 c 0.8,7.1 1.5,32.8 -13.6,36.5 -15.2,3.6 -29.1,-3.4 -35.8,-13.5 -9.1,-14.2 -7.9,-34.3 -18.3,-57.3 -8.1,-18.6 -11.6,-45.6 -24.4,-65.1 l -10.1,-17 c -17.9,-27.5 -36.5,-49.4 -47.6,-63.6 -9.8,-12 -28.1,-28.2 -45.4,-39.8 -16,-9.7 -42,-20.8 -60.7,-26.5 -5.9,-1.9 -31.4,-9.4 -47.3,-11.5 -21.5,-2.4 -35.6,-5.8 -56,-7.3 -25.2,-1.7 -37.4,-4 -70,-0.2 -12.4,3.4 -32,4.7 -49.7,11.5 -14.3,5.8 -34.1,15.2 -53.6,26.7 -20.9,11.5 -52.7,34.9 -73.8,55 -21.2,22.7 -31.8,34.9 -46.5,63.6 -6.6,14.1 -19.1,36 -24.1,51.6 -3.5,15.8 -10.1,45.2 -8.9,59.5 0.5,25.6 -1.7,30.9 0.2,51.8 0.1,18.9 6.3,31.9 8.8,47.3 2.2,10.7 12.4,47.4 18.7,56 28.7,61.9 67.2,88.7 110.2,108 12.1,6.2 50,16.3 61,19.2 18.7,3.4 43.3,5.6 66.9,6.1 24.9,0.5 59.2,-2.9 80.1,-10.6 22.6,-8.3 48.6,-20.1 48.3,-19.7 10.5,-5.8 26.5,-15.2 31.4,-19.3 9.6,-6.2 15.4,-8.5 21,-14.5 8.2,-7.2 13.2,-11.3 19.4,-20.2 3.5,-5 9,-12.7 14.3,-19.5 5.8,-9.4 9,-19.4 14.7,-31.7 6.8,-18.3 5.7,-17.3 7,-36.6 1.2,-5.6 -0.1,-24.4 -1.1,-27.7 -3.1,-17.4 -2,-32.7 -6,-49.7 -5.3,-22.9 -9.8,-39.9 -16.7,-61.9 -6.5,-24.6 -25.5,-47.5 -39.6,-63.8 -8.8,-10.2 -36.1,-34.1 -74.1,-49 -10.7,-3.6 -28.1,-7.7 -39.2,-9.6 -23.7,-2.5 -27.6,-0.9 -50.3,0.8 -7.8,1.3 -26,5 -32.6,7.4 -19.5,6.9 -26.7,11.2 -46.6,23.4 -9.2,5.3 -16.3,9.5 -25.8,18.4 -7.6,7 -12.9,18.9 -19.1,25.9 -8.4,11.4 -17.8,26.7 -24,43.1 -6.8,16.3 -9,39.4 -7.9,54.2 0,11.3 3.1,31.9 4.3,36.4 1.2,4.5 4.3,18.6 4.9,21.3 0.7,2.8 8,17.6 9,19.8 4.1,8.7 12,21.3 25.2,34.2 9.8,10.7 28.7,21.2 42.9,25.2 12.7,7 34.2,8.2 46,8.2 5.8,-0.4 20.7,-1.2 28.5,-3.1 15.8,-3.8 18.7,-3.9 35,-11 14.6,-6.8 24.5,-9.2 34.7,-16.7 0,0 14,-10.9 20.3,-19 3.4,-4.2 9.1,-24.3 8.1,-36.8 -0.5,-17 2,-26.7 -1.5,-40.7 -3.5,-14.1 -9.4,-30.3 -15.9,-40.3 -6.6,-10.2 -20.5,-20 -36.5,-27.9 -8.9,-4.4 -30.2,-8.5 -39.1,-9.5 -17,-2 -31.3,5.8 -40,14.6 -7.5,8.6 -22.4,26.5 -16.4,44.8 5.3,16.7 11.8,34.5 36.8,33.1 17.2,3.6 37,-1.5 43.7,1.4 9.8,5.5 13.5,17.9 10.1,26.5 -2.5,16.5 -18.4,18.6 -35.3,19.8 -15.2,2.6 -53.7,-4.9 -62.1,-11.2 -5.6,-3.4 -14.4,-11.5 -20.4,-16.9 -4.4,-4 -9.3,-12.7 -12.7,-19 -4.2,-7.7 -6.3,-13.4 -7.4,-18.5 -1.2,-6 -3.9,-17.4 -2.9,-28.8 0.7,-7.7 2.8,-11 4.8,-22.3 4.1,-12.8 9.1,-22.5 17.3,-33.6 10.7,-10.8 24.2,-23.7 37.4,-29.7 11.7,-6.2 32,-8.4 50.5,-7.3 15,1.4 32.7,3.3 44.4,7.2 20,7.2 25.8,8.6 42.3,19 13.9,8.6 27.9,24.4 35.7,37.6 16.6,34 26.2,71.7 19.2,122.8 -0.5,8.6 -3.3,16.9 -8.6,28.4 -4.9,10.5 -13.6,23.3 -26.7,32.8 -5.2,4.8 -13.5,10.9 -20.2,14.4 -9.5,5.7 -16,8.8 -26,13.9 -8.7,4.1 -19,8.8 -32.3,12.5 -14.5,5.7 -25.6,5.9 -43.6,8.6 -17.9,4.5 -66.7,1.3 -95.9,-11.6 -19.9,-8.3 -42.2,-23.1 -59.1,-41.1 -9.4,-9.8 -18.7,-27.8 -21.3,-31.4 -13.4,-26 -16.1,-50.3 -18.3,-55.4 -3,-7 -4.4,-22.6 -6.4,-33.3 -2.3,-12 -0.8,-62.2 11.2,-94.3 6.8,-12.8 10.8,-24.2 15.4,-30.3 8.3,-11.8 12.3,-19.2 19.3,-27.5 10.7,-12.8 18.4,-23.4 28.6,-30.8 26.4,-21.4 48.3,-32.7 78.2,-46.9 37,-15.1 48.1,-12 83.1,-11.4 15.8,0.1 38.7,5.1 50,7.2 20.9,2.8 32.9,7.8 47.1,11.8 15.2,4.2 23.9,11 36.3,18.5 10.3,6.6 22.3,15.6 30.2,23 20.3,14.9 30.2,30.6 42.6,49.9 2.3,3.2 17,34.8 19.4,43.5 1.1,4.4 4.4,17 6.6,24.4 2.8,11.7 4.1,22.1 7.2,35.3 2.8,13.6 7.5,39.3 9.4,63.3 3.4,20.6 -2,62.7 -5.3,75.5 -7.2,24.1 -19.8,53.5 -44.6,81.8 -10.6,12.5 -21.8,22.3 -34.8,32.8 -10,8.2 -18.5,13.1 -33.8,22.3 -20.8,12.4 -36.6,20.3 -65.9,31.8 -11.9,3.8 -26.9,8.8 -43,12.1 -31.3,2.9 -63.4,5.7 -98.5,1.4 -35.1,-4.2 -70.2,-14.1 -91,-20.4 -11.5,-4.3 -33.7,-13.5 -43,-18.7 -6.1,-3.1 -26.4,-16.9 -29.8,-20.3 -14,-8.6 -45.1,-37.9 -65.2,-65.2 C 54,523.7 38.2,498.3 34.7,487.3 25.6,468.5 19.2,445.8 15.5,436.2 11.6,413.5 4.9,398.9 2.3,376.3 2.6,371 1.3,358.3 0,351.5 1.7,336 -0.6,321.3 2.5,304.4 c 2.7,-14.3 6.3,-20.2 7.2,-33.1 0.8,-5.5 7.9,-22.2 9.8,-29.6 5.7,-12.2 7.2,-22.2 14.7,-35.8 10.8,-21.1 22.1,-45.6 39.4,-66.8 4.9,-6.6 19,-22.5 23.7,-27.9 11.3,-11.3 18,-13 30.7,-24.4 1.3,-0.8 9.7,-10.5 18.7,-13.7 14.7,-11.3 27.4,-15.5 41.4,-25.9 28,-14 38.2,-18.7 66,-30.3 16.3,-5.6 38.8,-8.8 46.8,-11.9 15.4,-0.9 30.9,-5.8 47.1,-4.9 18.2,-0.2 36.4,1.1 54.6,2.8 12.3,0.7 28.3,1.4 50.1,6.1 z"
   id="path25"
   style="fill:#f05100" />

		</g>

	</g>

</g>
  </g>
</svg>
