<?xml version="1.0" encoding="UTF-8" standalone="no"?>
<!-- Created with Inkscape (http://www.inkscape.org/) -->

<svg
   version="1.1"
   id="svg1"
   width="3839"
   height="1143.501"
   viewBox="0 0 3839 1143.5009"
   sodipodi:docname="wasm.svg"
   inkscape:version="1.3.2 (091e20e, 2023-11-25, custom)"
   xmlns:inkscape="http://www.inkscape.org/namespaces/inkscape"
   xmlns:sodipodi="http://sodipodi.sourceforge.net/DTD/sodipodi-0.dtd"
   xmlns="http://www.w3.org/2000/svg"
   xmlns:svg="http://www.w3.org/2000/svg">
  <defs
     id="defs1" />
  <sodipodi:namedview
     id="namedview1"
     pagecolor="#ffffff"
     bordercolor="#000000"
     borderopacity="0.25"
     inkscape:showpageshadow="2"
     inkscape:pageopacity="0.0"
     inkscape:pagecheckerboard="true"
     inkscape:deskcolor="#d1d1d1"
     inkscape:zoom="0.7236796"
     inkscape:cx="1267.1354"
     inkscape:cy="365.49324"
     inkscape:window-width="3840"
     inkscape:window-height="2054"
     inkscape:window-x="-11"
     inkscape:window-y="-11"
     inkscape:window-maximized="1"
     inkscape:current-layer="g1" />
  <g
     inkscape:groupmode="layer"
     inkscape:label="Image"
     id="g1"
     transform="translate(910.90377,-340.27211)">
    <g
       id="Layer_2"
       data-name="Layer 2"
       transform="matrix(10.625357,0,0,10.625357,-910.90377,340.27211)">
      <g
         id="Notch_-_Purple"
         data-name="Notch - Purple">
        <g
           id="icon">
          <path
             class="cls-1"
             d="m 66.12,0 v 0.58 c 0,6.8151984 -5.524806,12.339995 -12.34,12.339995 -6.815194,0 -12.34,-5.5247966 -12.34,-12.339995 V 0 H 0 V 107.62 H 107.62 V 0 Z"
             id="path71"
             sodipodi:nodetypes="cssscccccc"
             style="fill:#638f34" />
          <polygon
             class="cls-1"
             points="82.87,67.39 79.87,67.39 76.76,81.37 86.44,81.37 "
             id="polygon73"
             style="fill:#638f34" />
        </g>
      </g>
    </g>
    <circle
       style="fill:#d2e6bc;fill-opacity:1;stroke-width:9.26411"
       id="path128"
       cx="-161.39725"
       cy="1180.0754"
       r="95.62822" />
    <rect
       style="fill:#d2e6bc;stroke-width:8.26726"
       id="rect150"
       width="106.25357"
       height="371.88748"
       x="-652.28687"
       y="890.9599" />
    <rect
       style="fill:#d2e6bc;stroke-width:8.26726"
       id="rect150-1"
       width="371.88748"
       height="106.25357"
       x="-790.35181"
       y="1020.2065" />
    <circle
       style="fill:#d2e6bc;fill-opacity:1;stroke-width:9.26411"
       id="path128-0"
       cx="13.502364"
       cy="971.42731"
       r="95.62822" />
    <path
       id="rect139"
       style="fill:#ffffff;fill-rule:evenodd;stroke:#000000;stroke-width:0"
       d="m 1628.1125,723.07396 -17.2673,2.82789 -17.2674,2.82815 -13.1527,4.11456 -13.1578,4.11455 -14.8005,7.58333 -14.8006,7.58826 -14.0586,14.02971 -14.0586,14.03439 -5.4056,10.35843 -5.401,10.35844 -3.2522,11.01854 -3.2568,11.02346 -0.9347,16.51103 -0.9393,16.51078 2.7943,13.91401 2.799,13.90934 5.5406,11.51485 5.5359,11.50991 7.9447,9.80933 7.9448,9.81401 10.662,8.68177 10.6619,8.68178 11.2307,6.73549 11.2304,6.73549 32.8531,14.51617 32.8533,14.5164 11.0089,6.5717 11.0089,6.57146 6.8413,5.90201 6.8463,5.897 4.2542,8.5422 4.2591,8.5421 v 7.9639 7.964 l -3.1414,6.1045 -3.1363,6.0993 -4.6735,4.4325 -4.6733,4.4276 -9.0431,4.1097 -9.0481,4.1049 -11.4039,1.9658 -11.4041,1.9608 -21.483,-0.9539 -21.4877,-0.9542 -12.3338,-3.2326 -12.3338,-3.2327 -9.0432,-3.5702 -9.0481,-3.5652 -10.686,-5.637 -10.6909,-5.6368 -9.8671,-7.41 -9.867,-7.4148 -0.4384,46.3675 -0.4386,46.3722 2.0862,1.3249 2.0814,1.3298 12.3338,4.7263 12.3338,4.7313 14.8006,3.4014 14.8006,3.4014 15.6195,1.7682 15.6245,1.7682 6.5764,0.6455 6.5813,0.6456 24.6677,-0.7563 24.6676,-0.7613 18.438,-3.151 18.4332,-3.1461 10.3441,-3.4254 10.3392,-3.4256 13.4611,-6.6005 13.4614,-6.6053 10.8979,-9.9827 10.8935,-9.9828 6.1234,-9.2165 6.1189,-9.2215 3.5506,-8.2193 3.5509,-8.2242 1.7632,-5.8585 1.7682,-5.8539 1.3925,-15.0848 1.3923,-15.08 -1.2911,-13.5961 -1.2914,-13.596 -3.3531,-10.69097 -3.3582,-10.68602 -5.9116,-9.86706 -5.9114,-9.86705 -9.3613,-9.60212 -9.3611,-9.59718 -9.8671,-7.1065 -9.867,-7.11118 -12.0593,-6.83169 -12.064,-6.83663 -22.4707,-9.95389 -22.4754,-9.94894 -13.1528,-6.57639 -13.1577,-6.57639 -10.0886,-7.15928 -10.0888,-7.15461 -5.1215,-7.73773 -5.1261,-7.73257 -0.2368,-5.06377 -0.2418,-5.06352 0.4142,-5.75249 0.4095,-5.75742 2.2114,-4.27836 2.2068,-4.27836 5.8632,-5.14541 5.8635,-5.15036 5.0781,-2.62562 5.0828,-2.62586 7.6413,-2.46678 7.641,-2.46676 20.558,-0.87693 20.558,-0.87199 14.8006,2.60168 14.8005,2.60663 13.1528,4.28773 13.1577,4.28329 13.4515,7.11118 13.4515,7.11118 0.9396,-0.93958 0.9347,-0.93466 v -41.747 -41.7423 l -6.1669,-2.58714 -6.1669,-2.58246 -15.6196,-3.81584 -15.6244,-3.82052 -13.9767,-1.90779 -13.9816,-1.91273 -29.6012,-0.0246 z m -657.47412,6.9136 -0.79503,0.79503 -0.79479,0.7901 -21.14583,102.42368 -21.1409,102.42837 -9.04315,44.40174 -9.04339,44.40172 -1.28617,13.9767 -1.29136,13.9816 -2.74625,-19.7341 -2.75093,-19.7341 -32.98333,-135.49854 -32.97839,-135.49854 -1.71045,-6.34031 -1.70553,-6.34032 h -50.63127 -50.63129 l -39.74276,145.94847 -39.73809,145.94844 -2.06689,15.6245 -2.0716,15.6245 -0.48669,-7.4003 -0.48645,-7.4003 -3.20407,-20.558 -3.20383,-20.55798 -28.4255,-133.20519 -28.43042,-133.20518 -51.52253,-0.43366 -51.52285,-0.43365 1.11794,4.54328 1.12237,4.54822 50.93502,194.05034 50.93471,194.05532 2.44752,8.6529 2.45221,8.6578 54.60622,-0.4336 54.6107,-0.4337 28.26195,-106.8947 28.26169,-106.88975 9.23581,-36.18247 9.23605,-36.17753 1.18504,-13.15771 1.18528,-13.15278 2.14879,18.0863 2.14411,18.09123 12.19395,47.69239 12.19888,47.68745 23.48728,90.45127 23.49196,90.4463 h 52.57288 52.57288 l 54.44712,-206.38416 54.4521,-206.38909 -46.8638,-0.43366 z m 231.09522,0 -0.7951,2.07651 -0.7947,2.07653 -73.6512,202.27452 -73.6464,202.27458 -0.7566,2.8811 -0.7609,2.8763 h 50.8286 50.8289 l 14.5788,-46.0495 14.5741,-46.0446 h 73.3381 73.3381 l 14.6464,46.0396 14.6511,46.0399 h 51.4793 51.4791 l -6.8798,-19.3246 -6.88,-19.3197 -66.6798,-187.47393 -66.6796,-187.47395 -56.1092,-0.43366 z m 981.5981,0.0445 -0.9635,1.55628 -0.9637,1.55603 -12.4157,35.85489 -12.4158,35.85464 -3.0305,9.04808 -3.0303,9.04315 -14.2707,41.11108 -14.2705,41.11599 -15.3161,45.22069 -15.3161,45.22562 -4.6542,18.50069 -4.6588,18.5007 h -1.0213 -1.0215 l -2.8186,-14.3911 -2.8181,-14.3861 -5.5071,-18.09124 -5.5115,-18.09123 -6.0562,-17.26734 -6.0561,-17.26734 -11.2305,-32.88687 -11.2256,-32.89181 -11.7076,-33.71079 -11.7125,-33.71571 -8.7636,-25.48659 -8.7637,-25.49152 -3.1703,-9.04315 -3.1749,-9.04808 h -68.9633 -68.9587 l -0.424,204.74129 -0.4241,204.74128 0.7855,2.0573 0.7805,2.0572 h 42.0988 42.0987 l -0.8767,-156.63936 -0.8769,-156.63942 -0.8528,-11.51485 -0.8576,-11.50991 1.5274,3.29066 1.5272,3.28573 4.2495,20.93394 4.2492,20.93368 5.825,16.89141 5.8295,16.89165 12.9073,36.17753 12.9022,36.17754 19.1897,54.2688 19.1896,54.2687 12.8445,36.1825 12.8446,36.1775 h 38.9285 38.9287 l 6.5283,-18.9102 6.5283,-18.9151 3.9505,-11.5099 3.9508,-11.5099 9.8428,-28.7822 9.8479,-28.7773 15.8798,-46.04453 15.8798,-46.04952 13.6441,-39.78122 13.6493,-39.7815 3.6471,-16.13015 3.6518,-16.13041 1.3541,-3.29066 1.3584,-3.29066 0.9492,-2.46676 0.9493,-2.46677 -1.065,4.93353 -1.0646,4.93352 -0.689,162.39685 -0.6841,162.39678 h 46.1458 46.1457 V 937.24001 730.03196 h -66.5062 z m 695.4292,0 h -43.1682 -43.1684 l -10.1896,20.13395 -10.19,20.13891 -12.3916,20.83254 -12.3917,20.82762 -18.5634,27.68375 -18.5681,27.68372 -15.4318,20.55776 -15.4316,20.5533 -18.5006,23.02477 -18.4961,23.02451 -14.1353,16.33762 -14.1357,16.3423 v 36.69309 36.6977 h 89.6221 89.6273 v 41.935 41.935 h 42.7589 42.7538 v -41.935 -41.935 h 24.6676 24.6677 v -34.5346 -34.53466 h -24.6677 -24.6676 V 860.75589 Z m -1624.5025,73.72339 0.5347,0.54934 0.5395,0.54911 2.5874,14.80057 2.5872,14.80058 23.0536,72.05166 23.0536,72.05168 v 0.71782 0.71783 h -51.802 -51.802 v -1.10806 -1.10339 l 18.7898,-58.50841 18.7945,-58.5037 5.6755,-18.91514 5.6756,-18.91021 1.1561,-9.59719 z m 1537.6457,47.96693 h 0.6744 0.6697 v 69.89326 69.89325 h -48.5836 -48.5836 l 8.8456,-11.10044 8.8408,-11.10043 16.6554,-22.48035 16.6556,-22.47541 16.318,-25.21697 16.3135,-25.21203 6.0996,-11.10043 z m -388.4042,101.96117 v 32.89181 32.88684 h 79.7604 79.7553 v -32.88684 -32.89181 h -79.7553 z" />
  </g>
</svg>
