<?xml version="1.0" encoding="UTF-8" standalone="no"?>
<!-- Created with Inkscape (http://www.inkscape.org/) -->

<svg
   width="1015.7498mm"
   height="197.88187mm"
   viewBox="0 0 1015.7498 197.88187"
   version="1.1"
   id="svg1"
   inkscape:version="1.3.2 (091e20e, 2023-11-25, custom)"
   sodipodi:docname="wonderswancolor.svg"
   xmlns:inkscape="http://www.inkscape.org/namespaces/inkscape"
   xmlns:sodipodi="http://sodipodi.sourceforge.net/DTD/sodipodi-0.dtd"
   xmlns="http://www.w3.org/2000/svg"
   xmlns:svg="http://www.w3.org/2000/svg">
  <sodipodi:namedview
     id="namedview1"
     pagecolor="#ffffff"
     bordercolor="#000000"
     borderopacity="0.25"
     inkscape:showpageshadow="2"
     inkscape:pageopacity="0.0"
     inkscape:pagecheckerboard="0"
     inkscape:deskcolor="#d1d1d1"
     inkscape:document-units="mm"
     inkscape:zoom="0.57291968"
     inkscape:cx="881.44991"
     inkscape:cy="54.981529"
     inkscape:window-width="3840"
     inkscape:window-height="2054"
     inkscape:window-x="-11"
     inkscape:window-y="-11"
     inkscape:window-maximized="1"
     inkscape:current-layer="layer1" />
  <defs
     id="defs1" />
  <g
     inkscape:label="Layer 1"
     inkscape:groupmode="layer"
     id="layer1"
     transform="translate(402.96042,-49.477083)">
    <g
       id="g16"
       transform="matrix(0.26458333,0,0,0.26458333,-402.96042,49.477083)">
	<g
   id="g15">
		<path
   class="st0"
   d="M 863.8,339.3 C 659.4,-49.1 264.6,-61.1 128.4,89.8 95.2,126.7 -18.2,337.7 296.4,535.9 132.8,584.3 0,396 0,396 204.3,784.4 599,796.4 735.3,645.4 768.5,608.6 881.9,397.5 567.2,199.4 731,151.1 863.8,339.3 863.8,339.3 Z M 615.1,533.2 c -62,68.6 -194.3,50.2 -295.4,-41.3 -101.3,-91.4 -133.1,-221 -71.2,-289.7 61.9,-68.7 194.3,-50.2 295.5,41.2 101.2,91.4 133.1,221.1 71.1,289.8 z"
   id="path1"
   style="fill:#ff0000" />

		
			<ellipse
   transform="matrix(0.6701,-0.7423,0.7423,0.6701,-158.3922,527.2796)"
   class="st0"
   cx="514"
   cy="441.79999"
   rx="92.400002"
   ry="136.39999"
   id="ellipse1"
   style="fill:#ff0000" />

		<path
   d="m 1540.3,84.8 h -20.7 -31.2 -88.5 -6.6 -7.6 l -71.2,49.8 -17.2,80.6 c -2.5,11.6 6.4,22.5 18.2,22.5 h 21.7 30.2 88.5 9.2 5.1 l 71.2,-49.8 17.2,-80.6 c 2.3,-11.6 -6.5,-22.5 -18.3,-22.5 z m -59.1,34 -14.3,66.9 -42,29.4 h -41.2 c -6,0 -10.4,-5.5 -9.2,-11.3 l 14.3,-67 41.9,-29.3 h 41.2 c 6.1,0 10.5,5.5 9.3,11.3 z"
   id="path2" />

		<path
   d="m 1778.7,84.8 h -11.3 -7.2 -88.5 -30.6 -44.1 l -32.6,152.9 h 39.2 l 41.9,-29.3 21.5,-100.9 h 67.7 c 10.7,0 18.6,9.8 16.4,20.3 l -23.5,110 h 74.8 l 23.4,-109.9 c 4.7,-22.2 -17.5,-43.1 -47.1,-43.1 z"
   id="path3" />

		<path
   d="m 3791.3,84.8 h -11.3 -7.2 -88.5 -30.6 -44.2 L 3577,237.6 h 39.2 l 41.9,-29.3 21.5,-100.9 h 67.7 c 10.7,0 18.6,9.8 16.4,20.3 l -23.5,110 h 74.8 l 23.4,-109.9 c 4.8,-22.1 -17.4,-43 -47.1,-43 z"
   id="path4" />

		<polygon
   points="1091.4,29.3 1091.4,29.3 1058,185.7 1016.1,215 995.2,215 1034.8,29.3 1034.8,29.3 1041.1,0 1001.9,0 960.1,29.3 915.6,237.6 972.3,237.6 990.3,237.6 1046.9,237.6 1121.8,237.6 1178.4,237.6 1192.7,237.6 1194,236.7 1263.8,187.9 1303.9,0 1264.7,0 1222.8,29.3 1189.5,185.7 1147.5,215 1126.6,215 1166.2,29.3 1172.5,0 1133.3,0 "
   id="polygon4" />

		<polygon
   points="3040.5,215 3025.4,215 3053.2,84.8 3006,84.8 2973.6,107.5 2945.8,237.6 3211.2,237.6 3282.4,187.9 3304.4,84.8 3257.2,84.8 3224.8,107.5 3208.1,185.7 3166.1,215 3151,215 3178.8,84.8 3131.6,84.8 3099.2,107.5 3082.5,185.7 "
   id="polygon5" />

		<path
   d="m 2097.9,87.3 c 5.8,-3.8 11.2,-8.1 16.1,-13 20.1,-20.2 35.1,-47 35.1,-47 h -79.5 c 0,0 -15,26.7 -35.1,47 -3.8,3.9 -8.1,7.3 -12.5,10.5 h -78.5 -7.3 -7 l -71.2,49.8 -17.2,80.6 c -2.5,11.6 6.4,22.5 18.2,22.5 h 18 33.8 88.5 23.6 51.2 l 29.1,-136.6 c 1.3,-5.6 -1.1,-10.8 -5.3,-13.8 z m -73.2,31.5 -20.5,96.3 h -76.9 c -6,0 -10.4,-5.5 -9.2,-11.3 l 14.3,-67 41.9,-29.3 h 41.3 c 5.9,0 10.4,5.5 9.1,11.3 z"
   id="path5" />

		<path
   d="m 2352.9,84.8 h -13.6 -19.5 -104.6 -6.8 -7.4 l -71.2,49.8 -17.2,80.6 c -2.5,11.6 6.4,22.5 18.2,22.5 h 26.5 25.3 100.9 L 2315,215 h -116 c -6,0 -10.4,-5.5 -9.2,-11.3 l 5.2,-24.5 h 109.3 l 72.7,-50.9 2.3,-10.9 c 3.7,-16.7 -9.2,-32.6 -26.4,-32.6 z m -40.4,34 -3,14 -31.8,22.5 h -77.6 l 3.9,-18.5 41.9,-29.3 h 57.4 c 6,0 10.5,5.5 9.2,11.3 z"
   id="path6" />

		<path
   d="m 2569.4,137.7 c -1,2.9 -2.3,5.7 -3.9,8.3 l -5.9,9.3 h 50.7 l 34.6,-24.2 c 0,-18.9 -10.2,-46.2 -53.5,-46.2 H 2480 v 0 h -7.4 l -71.2,49.8 -22,103.1 h 74.8 l 21.5,-100.9 41.9,-29.3 h 30 c 15.6,-0.1 26.7,15.2 21.8,30.1 z"
   id="path7" />

		<path
   d="m 2896.8,96 h -15.9 -13.8 -68 c -9.8,-0.3 -16.5,-6.6 -14.9,-19.2 3.6,-28.3 27.8,-43.2 40,-43.2 h 108.9 L 2981,0 h -180.5 v 0 c -57.3,0 -88.9,42.4 -95.6,97.5 -4.9,22.7 12.5,44.2 35.7,44.2 h 15.9 13.8 68 c 9.8,0.3 16.5,6.6 15,19.2 -3.5,27.8 -26.9,42.6 -39.2,43.2 h -222.3 l -48,33.6 h 112.8 l -0.1,0.1 H 2837 v 0 c 57.3,0 88.9,-42.4 95.6,-97.5 4.8,-22.8 -12.5,-44.3 -35.8,-44.3 z"
   id="path8" />

		<path
   d="m 3501.3,84.8 h -88.5 c -43.6,0 -81.5,30.5 -90.4,73.2 -9.2,43.8 -3.8,82.7 57.8,79.7 h 43.8 l 32.3,-22.6 h -35.5 c -18.4,0 -32.1,-17 -28.3,-35 l 5.2,-24.2 c 6,-28.3 31,-48.5 59.9,-48.5 h 38.9 l -27.8,130.2 h 74.8 l 32.6,-152.9 h -63.4 z"
   id="path9" />

		<g
   id="g14">
			<path
   class="st2"
   d="m 1920.7,330.1 -37.6,137.7 c -8.5,30.8 -53.7,24.7 -53.7,-7.3 v -47.2 c 0,-46.6 -52.6,-52.1 -52.6,-52.1 -113.6,0 -186.5,132.4 -185.9,201.6 0,63.1 33,130.5 118.5,115.2 55.7,-9.9 104.7,-55.9 104.7,-55.9 1.4,-1.4 2.9,-2.9 4.2,-4.3 26.3,-26.8 69.2,5.6 50.7,38.2 v 0 c -60,94 -411.8,150.7 -411.8,-106.2 0,-100.5 111.1,-296.3 466.9,-232 z"
   id="path10"
   style="fill:#02a5f4" />

			<path
   class="st0"
   d="m 2557.7,687.8 -39.2,28.5 c -78.1,49.3 -192.3,17.1 -190,-85 0.2,-11.1 2.3,-22.1 5.2,-32.9 L 2397.8,364 c 6,-22.3 20.7,-41.7 41.3,-52.1 44.4,-22.6 76.4,14.7 69,47.4 l -64.7,236.5 c -25.8,89.4 22.9,100.9 44.1,87 l 50.3,-36.6 38.5,0.5 -4.3,32.5 z"
   id="path11"
   style="fill:#ff0000" />

			<path
   class="st3"
   d="m 3082.7,563.1 13.1,-47.9 c 7.4,-32.6 -24.6,-70 -69,-47.4 -20.6,10.4 -35.2,29.8 -41.3,52.1 l -40.3,147.8 -2.7,9.9 c -10.6,38.5 19.1,54.8 48.7,58.9 41.4,5.8 49.7,-13.6 52.4,-26.9 1.2,-5.7 3,-11.4 5.8,-16.6 24.5,-44.4 59.1,-83 89,-110.8 23.5,-21.8 61.7,-13.1 73.1,16.8 l 4.1,10.6 c 6.5,17 30.9,15.8 35.7,-1.8 l 42.2,-154.3 C 3232.8,446 3153.6,470 3082.7,563.1 Z"
   id="path12"
   style="fill:#f65ba6" />

			<path
   class="st4"
   d="m 2701.5,439 c 24.8,-4.9 40.6,25.3 22.5,43 -75.1,73.5 -91,215.4 -1,215.4 90.8,0 115.1,-174.4 41.4,-193.2 -27.3,-5.5 -10,-13.4 -2.3,-17.3 66.1,-33.5 175,-46.6 171.6,71.8 -2.2,73.5 -91.4,189.2 -238,189.2 -96.6,0 -162.6,-55.6 -162.6,-137.1 0.2,-70.4 75.1,-153.3 168.4,-171.8 z"
   id="path13"
   style="fill:#6784e7" />

			<path
   class="st5"
   d="m 2071.8,439 c 24.8,-4.9 40.6,25.3 22.5,43 -75.1,73.5 -91,215.4 -1,215.4 90.8,0 115.1,-174.4 41.4,-193.2 -27.3,-5.5 -10,-13.4 -2.3,-17.3 66.1,-33.5 175,-46.6 171.6,71.8 -2.2,73.5 -91.4,189.2 -238,189.2 -96.6,0 -162.6,-55.6 -162.6,-137.1 0.1,-70.4 75,-153.3 168.4,-171.8 z"
   id="path14"
   style="fill:#ffd52f" />

		</g>

	</g>

</g>
  </g>
</svg>
