<?xml version="1.0" encoding="UTF-8" standalone="no"?>
<!-- Created with Inkscape (http://www.inkscape.org/) -->

<svg
   width="1016.0046mm"
   height="477.8407mm"
   viewBox="0 0 1016.0046 477.8407"
   version="1.1"
   id="svg1"
   inkscape:version="1.3.2 (091e20e, 2023-11-25, custom)"
   sodipodi:docname="x1.svg"
   xmlns:inkscape="http://www.inkscape.org/namespaces/inkscape"
   xmlns:sodipodi="http://sodipodi.sourceforge.net/DTD/sodipodi-0.dtd"
   xmlns="http://www.w3.org/2000/svg"
   xmlns:svg="http://www.w3.org/2000/svg">
  <sodipodi:namedview
     id="namedview1"
     pagecolor="#ffffff"
     bordercolor="#000000"
     borderopacity="0.25"
     inkscape:showpageshadow="2"
     inkscape:pageopacity="0.0"
     inkscape:pagecheckerboard="0"
     inkscape:deskcolor="#d1d1d1"
     inkscape:document-units="mm"
     inkscape:zoom="0.28645984"
     inkscape:cx="10.472672"
     inkscape:cy="532.36084"
     inkscape:window-width="3840"
     inkscape:window-height="2054"
     inkscape:window-x="-11"
     inkscape:window-y="-11"
     inkscape:window-maximized="1"
     inkscape:current-layer="layer1" />
  <defs
     id="defs1" />
  <g
     inkscape:label="Layer 1"
     inkscape:groupmode="layer"
     id="layer1"
     transform="translate(402.96042,90.4875)">
    <g
       id="g7"
       transform="matrix(0.26458333,0,0,0.26458333,-402.96042,-90.537227)">
      <g
         id="g4">
        <g
           id="g3">
          <g
             id="g2">
            <g
               id="g9277_18_"
               transform="matrix(0,1.5459704,1.5459704,0,415.67057,649.33146)">
              <path
                 id="path9279_18_"
                 class="st0"
                 d="M -292.7,706.3 V 504.4 H -410.2 V 400 H -103 V 504.4 H -226.4 V 706.3 H -103 V 810.6 H -410.2 V 706.3 h 117.5"
                 style="fill:#ed001d" />
            </g>
            <g
               id="g9281_18_"
               transform="matrix(0,1.5459704,1.5459704,0,451.89266,657.95179)">
              <path
                 id="path9283_18_"
                 class="st0"
                 d="m -232,961.5 -119.3,72.7 119.3,70.4 V 961.5 m -183.8,32.2 307.2,-187.2 v 79.8 l -62.9,38.3 v 215.8 l 62.9,37.1 v 127.4 L -415.8,1117.8 V 993.7"
                 style="fill:#ed001d" />
            </g>
            <g
               id="g9285_18_"
               transform="matrix(0,1.5459704,1.5459704,0,550.35088,651.36905)">
              <path
                 id="path9287_18_"
                 class="st0"
                 d="m -278.4,1655.1 c -32.6,24.9 -80.3,21.5 -107.6,-26.2 -25.5,-44.5 -34.9,-129.4 -34.9,-182.4 0,-84.9 5.8,-139.5 13.7,-186 h 302.9 v 104.3 h -256.9 c -7.4,37.6 -7.6,75.7 -6.9,90 1.8,41.4 8.3,64.7 21.5,83.4 13.7,19.3 44.1,24.5 65.2,-0.5 15.7,-18.7 28.1,-56.7 15.1,-141.5 l 19.7,-12 142.4,160.5 v 142.1 L -227.7,1544 c -4.5,34.3 -18.2,86.3 -50.7,111.1"
                 style="fill:#ed001d" />
            </g>
            <g
               id="g9289_18_"
               transform="matrix(0,1.5459704,1.5459704,0,346.11736,647.86124)">
              <path
                 id="path9291_18_"
                 class="st0"
                 d="m -303.1,216.3 c -11.7,-60.3 -19,-111.5 -38.5,-111.5 -21.6,0 -27.2,41.4 -21,100.1 5.9,55.5 20.4,107.8 41.2,156.6 l -60.8,37.1 c -15,-39.4 -34.3,-120.7 -36.4,-194.5 -2.3,-80.9 4.9,-217.4 86.7,-223.3 74.7,-5.4 92.6,101.2 108.9,171.2 15.9,68.2 21.6,132.1 45.2,132.1 16.6,0 29.6,-22.5 25.1,-82.1 -5.4,-71.8 -25,-132.8 -55.2,-193.7 l 66.4,-40.5 c 26.4,67.5 47.6,156.1 48.9,235.9 1.6,94.9 -13.7,202 -95,204.4 -67.8,2.1 -91.5,-68.2 -115.5,-191.8"
                 style="fill:#ed001d" />
            </g>
            <g
               id="g9293_18_"
               transform="matrix(0,1.5459704,1.5459704,0,594.18532,651.0413)">
              <path
                 id="path9295_18_"
                 class="st0"
                 d="m -280.7,1964 c 14.8,-18 20,-44.4 19.9,-85.9 -0.1,-30.7 -5.7,-62.4 -11.6,-88.2 H -361 c -7.4,37.6 -7.6,76.4 -7,90.6 1.8,41.6 8.8,65.9 21.5,84 13.3,18.7 44.9,25 65.8,-0.5 m -105,91.2 c -25.2,-42.5 -34.9,-122 -34.9,-183.1 0,-84.9 5.8,-140.2 13.7,-186.6 H -104 v 104.3 h -111 c 5.4,32.3 8.5,72.7 8.3,107.7 -0.7,85.4 -20.8,148.8 -52.2,177.7 -44.8,41.1 -98.9,27.3 -126.8,-20"
                 style="fill:#ed001d" />
            </g>
          </g>
        </g>
      </g>
      <g
         id="g6"
         style="fill:#000000">
        <g
           id="g5"
           style="fill:#000000">
          <path
             class="st0"
             d="M 577.3,1228.9 0,1806.2 h 910.7 z m -22.2,169 175.8,304.6 H 250.5 Z"
             id="path3"
             style="fill:#000000" />
          <path
             class="st0"
             d="m 1366.1,578.4 333.3,577.3 577.3,-577.3 z m 179.7,103.7 h 480.5 l -304.6,304.7 z"
             id="path4"
             style="fill:#000000" />
        </g>
        <path
           class="st0"
           d="m 2652.1,578.4 -312.9,312.9 h 344.9 l -348.5,603.7 -535.2,-0.6 -528.8,-916 H 296.4 l 708.9,1227.8 H 3131.2 L 3840,578.4 Z m 419.1,1124.1 H 1065.1 L 476.1,682.1 h 735.6 l 529.2,916.6 h 654.7 l 468.3,-811.1 h -274.1 l 105.5,-105.5 h 965.1 z"
           id="path5"
           style="fill:#000000" />
      </g>
    </g>
  </g>
</svg>
