<?xml version="1.0" encoding="UTF-8" standalone="no"?>
<!-- Created with Inkscape (http://www.inkscape.org/) -->

<svg
   width="1015.7437mm"
   height="301.00583mm"
   viewBox="0 0 1015.7437 301.00583"
   version="1.1"
   id="svg1"
   inkscape:version="1.3.2 (091e20e, 2023-11-25, custom)"
   sodipodi:docname="x68000.svg"
   xmlns:inkscape="http://www.inkscape.org/namespaces/inkscape"
   xmlns:sodipodi="http://sodipodi.sourceforge.net/DTD/sodipodi-0.dtd"
   xmlns="http://www.w3.org/2000/svg"
   xmlns:svg="http://www.w3.org/2000/svg">
  <sodipodi:namedview
     id="namedview1"
     pagecolor="#ffffff"
     bordercolor="#000000"
     borderopacity="0.25"
     inkscape:showpageshadow="2"
     inkscape:pageopacity="0.0"
     inkscape:pagecheckerboard="0"
     inkscape:deskcolor="#d1d1d1"
     inkscape:document-units="mm"
     inkscape:zoom="0.40511539"
     inkscape:cx="933.06749"
     inkscape:cy="606.00018"
     inkscape:window-width="3840"
     inkscape:window-height="2054"
     inkscape:window-x="-11"
     inkscape:window-y="-11"
     inkscape:window-maximized="1"
     inkscape:current-layer="layer1" />
  <defs
     id="defs1" />
  <g
     inkscape:label="Layer 1"
     inkscape:groupmode="layer"
     id="layer1"
     transform="translate(402.96042,2.1166666)">
    <g
       id="g11"
       transform="matrix(0.26458333,0,0,0.26458333,-402.96042,-2.1272805)">
      <g
         id="g10">
        <g
           id="g8"
           style="fill:#000000">
          <path
             class="st0"
             d="m 2683,525.6 h -249.6 c -62.5,0 -122.2,50.7 -133.2,113.2 l -61.5,347.4 c -11.1,62.6 30.7,113.3 93.3,113.3 h 250.1 c 62.6,0 122.3,-50.8 133.3,-113.4 l 61,-347.4 c 10.9,-62.4 -30.9,-113.1 -93.4,-113.1 z m -117.5,491.1 h -187.2 c -34.3,0 -57.2,-27.8 -51.2,-62.1 l 50.2,-284.5 c 6,-34.3 38.8,-62.1 73.1,-62.1 h 187.2 c 34.3,0 57.2,27.8 51.2,62.1 l -50.2,284.5 c -6.1,34.3 -38.8,62.1 -73.1,62.1 z"
             id="path1"
             style="fill:#000000" />
          <path
             class="st0"
             d="m 3213.4,525.6 h -249.6 c -62.5,0 -122.2,50.7 -133.2,113.2 l -61.5,347.4 c -11.1,62.6 30.7,113.3 93.3,113.3 h 250.1 c 62.6,0 122.3,-50.8 133.3,-113.4 l 61,-347.4 c 10.9,-62.4 -30.9,-113.1 -93.4,-113.1 z M 3096,1016.7 h -187.2 c -34.3,0 -57.2,-27.8 -51.2,-62.1 l 50.2,-284.5 c 6,-34.3 38.8,-62.1 73.1,-62.1 H 3168 c 34.3,0 57.2,27.8 51.2,62.1 L 3169,954.6 c -6,34.3 -38.7,62.1 -73,62.1 z"
             id="path2"
             style="fill:#000000" />
          <path
             class="st0"
             d="m 3743.9,525.6 h -249.6 c -62.5,0 -122.2,50.7 -133.2,113.2 l -61.5,347.4 c -11.1,62.6 30.7,113.3 93.3,113.3 H 3643 c 62.6,0 122.3,-50.8 133.3,-113.4 l 61,-347.4 c 10.9,-62.4 -30.8,-113.1 -93.4,-113.1 z m -117.5,491.1 h -187.2 c -34.3,0 -57.2,-27.8 -51.2,-62.1 l 50.2,-284.5 c 6,-34.3 38.8,-62.1 73.1,-62.1 h 187.2 c 34.3,0 57.2,27.8 51.2,62.1 l -50.2,284.5 c -6.1,34.3 -38.8,62.1 -73.1,62.1 z"
             id="path3"
             style="fill:#000000" />
          <path
             class="st0"
             d="m 2188.6,812.4 c 19.9,-19.7 34.6,-44.7 39.5,-72.3 l 17.7,-101.9 C 2256.8,575.7 2215,525 2152.5,525 h -249.6 c -62.5,0 -122.2,50.7 -133.2,113.2 l -18.2,101.9 c -4.9,27.6 1,52.6 13.9,72.3 -19.7,19.6 -34.3,44.5 -39.2,71.9 L 1708,986.2 c -11.1,62.6 30.7,113.4 93.3,113.4 h 250.1 c 62.6,0 122.3,-50.8 133.3,-113.4 l 17.7,-101.9 c 4.8,-27.5 -1,-52.3 -13.8,-71.9 z M 1846.8,669.5 c 6,-34.3 38.8,-62.1 73.1,-62.1 h 187.2 c 34.3,0 57.2,27.8 51.2,62.1 l -6.9,39 c -6,34.3 -38.8,62.1 -73.1,62.1 h -187.2 c -34.3,0 -57.2,-27.8 -51.2,-62.1 z M 2108,954.6 c -6,34.3 -38.8,62.1 -73.1,62.1 h -187.2 c -34.3,0 -57.2,-27.8 -51.2,-62.1 l 6.9,-39 c 6,-34.3 38.8,-62.1 73.1,-62.1 h 187.2 c 34.3,0 57.2,27.8 51.2,62.1 z"
             id="path4"
             style="fill:#000000" />
          <path
             class="st0"
             d="M 1578.6,771.2 H 1329 c -10.6,0 -21,1.9 -31.2,4.7 l 18.7,-105.8 c 6.1,-34.3 38.8,-62.1 73.1,-62.1 h 187.2 c 34.3,0 57.2,27.8 51.2,62.1 l -8.5,48.3 h 82.1 l 14,-79.6 c 11,-62.5 -30.8,-113.2 -93.3,-113.2 h -249.6 c -62.5,0 -122.2,50.7 -133.2,113.2 l -43.3,244.4 c -0.1,0.4 -0.2,0.7 -0.3,1.1 l -18.2,101.9 c -11.1,62.6 30.7,113.4 93.3,113.4 h 250.1 c 62.6,0 122.3,-50.8 133.3,-113.4 l 17.7,-101.9 c 10.7,-62.5 -31,-113.1 -93.5,-113.1 z m -1.1,183.4 c -6,34.3 -38.8,62.1 -73.1,62.1 h -187.2 c -29.5,0 -49.3,-21 -50.8,-48.6 0.1,-0.1 0.2,-0.2 0.3,-0.3 -0.2,-4.4 -1.2,-8.6 -0.3,-13.3 l 7.1,-40.3 c 6.7,-33.7 38.7,-60.8 72.6,-60.8 h 187.2 c 34.3,0 57.2,27.8 51.2,62.1 z"
             id="path5"
             style="fill:#000000" />
          <path
             class="st0"
             d="M 305.7,831.9 0,1137.7 h 482.3 z m -11.8,89.5 93.1,161.4 H 132.7 Z"
             id="path6"
             style="fill:#000000" />
          <path
             class="st0"
             d="M 673.3,487.5 H 157 l 375.4,650.1 h 516.4 z m -421.2,54.9 h 389.5 l 311.9,540.4 H 564 Z"
             id="path7"
             style="fill:#000000" />
          <path
             class="st0"
             d="M 723.4,487.5 900,793.2 1205.7,487.5 Z m 95.2,54.9 H 1073 L 911.7,703.8 Z"
             id="path8"
             style="fill:#000000" />
        </g>
        <g
           id="g9">
          <g
             id="g9277_13_"
             transform="matrix(0,1.5459704,1.5459704,0,415.67057,649.33146)">
            <path
               id="path9279_13_"
               class="st0"
               d="m -331.1,719.4 v -141 h -82.1 v -72.9 h 214.6 v 72.9 h -86.3 v 141.1 h 86.3 v 72.9 h -214.6 v -72.9 l 82.1,-0.1"
               style="fill:#ed001d" />
          </g>
          <g
             id="g9281_13_"
             transform="matrix(0,1.5459704,1.5459704,0,451.89266,657.95179)">
            <path
               id="path9283_13_"
               class="st0"
               d="m -290.4,890.6 -83.4,50.8 83.4,49.2 v -100 m -128.3,22.5 214.6,-130.8 V 838 l -43.9,26.7 v 150.8 l 43.9,26 v 89 L -418.7,999.8 v -86.7"
               style="fill:#ed001d" />
          </g>
          <g
             id="g9285_13_"
             transform="matrix(0,1.5459704,1.5459704,0,550.35088,651.36905)">
            <path
               id="path9287_13_"
               class="st0"
               d="m -321.5,1356 c -22.8,17.4 -56.1,15 -75.2,-18.3 -17.8,-31.1 -24.4,-90.4 -24.4,-127.5 0,-59.3 4,-97.5 9.6,-129.9 H -200 v 72.9 h -179.5 c -5.2,26.3 -5.3,52.9 -4.9,62.9 1.3,28.9 5.8,45.2 15,58.2 9.6,13.5 30.8,17.1 45.5,-0.3 11,-13.1 19.6,-39.6 10.6,-98.9 l 13.8,-8.4 99.5,112.1 v 99.3 l -86.3,-99.7 c -2.9,24 -12.5,60.2 -35.2,77.6"
               style="fill:#ed001d" />
          </g>
          <g
             id="g9289_13_"
             transform="matrix(0,1.5459704,1.5459704,0,346.11736,647.86124)">
            <path
               id="path9291_13_"
               class="st0"
               d="m -338,390.6 c -8.2,-42.1 -13.3,-77.9 -26.9,-77.9 -15.1,0 -19,28.9 -14.7,69.9 4.1,38.8 14.3,75.3 28.8,109.4 l -42.5,25.9 c -10.5,-27.6 -23.9,-84.4 -25.5,-135.9 -1.6,-56.5 3.4,-151.9 60.6,-156 52.3,-3.8 64.8,70.8 76.2,119.6 11.1,47.7 15.1,92.3 31.6,92.3 11.6,0 20.7,-15.7 17.5,-57.4 -3.7,-50.1 -17.4,-92.8 -38.6,-135.4 l 46.4,-28.3 c 18.4,47.2 33.3,109.1 34.2,164.9 1.1,66.3 -9.6,141.2 -66.4,142.9 -47.5,1.5 -64,-47.6 -80.7,-134"
               style="fill:#ed001d" />
          </g>
          <g
             id="g9293_13_"
             transform="matrix(0,1.5459704,1.5459704,0,594.18532,651.0413)">
            <path
               id="path9295_13_"
               class="st0"
               d="m -323.1,1563.2 c 10.3,-12.6 14,-31 13.9,-60.1 -0.1,-21.4 -4,-43.6 -8.1,-61.7 h -61.9 c -5.2,26.2 -5.3,53.4 -4.9,63.3 1.2,29.1 6.2,46.1 15,58.7 9.4,13.3 31.5,17.7 46,-0.2 m -73.3,63.8 c -17.6,-29.7 -24.4,-85.3 -24.4,-127.9 0,-59.3 4,-97.9 9.6,-130.4 h 211.5 v 72.9 h -77.5 c 3.8,22.5 5.9,50.8 5.8,75.2 -0.5,59.7 -14.5,104 -36.5,124.2 -31.2,28.6 -69,19 -88.5,-14"
               style="fill:#ed001d" />
          </g>
        </g>
      </g>
    </g>
  </g>
</svg>
