<?xml version="1.0" encoding="UTF-8" standalone="no"?>
<!-- Created with Inkscape (http://www.inkscape.org/) -->

<svg
   width="1015.7354mm"
   height="327.15729mm"
   viewBox="0 0 1015.7354 327.15729"
   version="1.1"
   id="svg1"
   inkscape:version="1.3.2 (091e20e, 2023-11-25, custom)"
   sodipodi:docname="zxspectrum.svg"
   xmlns:inkscape="http://www.inkscape.org/namespaces/inkscape"
   xmlns:sodipodi="http://sodipodi.sourceforge.net/DTD/sodipodi-0.dtd"
   xmlns="http://www.w3.org/2000/svg"
   xmlns:svg="http://www.w3.org/2000/svg">
  <sodipodi:namedview
     id="namedview1"
     pagecolor="#ffffff"
     bordercolor="#000000"
     borderopacity="0.25"
     inkscape:showpageshadow="2"
     inkscape:pageopacity="0.0"
     inkscape:pagecheckerboard="0"
     inkscape:deskcolor="#d1d1d1"
     inkscape:document-units="mm"
     inkscape:zoom="0.40511539"
     inkscape:cx="1002.1836"
     inkscape:cy="808.41165"
     inkscape:window-width="3840"
     inkscape:window-height="2054"
     inkscape:window-x="-11"
     inkscape:window-y="-11"
     inkscape:window-maximized="1"
     inkscape:current-layer="layer1" />
  <defs
     id="defs1" />
  <g
     inkscape:label="Layer 1"
     inkscape:groupmode="layer"
     id="layer1"
     transform="translate(402.96042,15.08125)">
    <g
       id="g20"
       transform="matrix(0.26458333,0,0,0.26458333,-402.96042,-15.08125)">
	<rect
   x="633.09998"
   y="154.10001"
   width="109.3"
   height="86.5"
   id="rect1" />

	<g
   id="g4">
		<g
   id="g3">
			<polygon
   class="st0"
   points="2960,0 2695.1,0 3574,1236.5 3839,1236.5 "
   id="polygon1"
   style="fill:#00a7e1" />

			<polygon
   class="st1"
   points="2695.1,0 2430.1,0 3309,1236.5 3574,1236.5 "
   id="polygon2"
   style="fill:#3d9b00" />

			<polygon
   class="st2"
   points="2430.1,0 2165.1,0 3044,1236.5 3309,1236.5 "
   id="polygon3"
   style="fill:#ffc610" />

		</g>

		<polygon
   class="st3"
   points="2165.1,0 1900.1,0 2779.1,1236.5 3044,1236.5 "
   id="polygon4"
   style="fill:#ff1f1f" />

	</g>

	<g
   id="g9">
		<rect
   x="633.09998"
   y="272.60001"
   width="109.3"
   height="362.39999"
   id="rect4" />

		<rect
   x="2815"
   y="272.60001"
   width="109.3"
   height="362.39999"
   id="rect5" />

		<rect
   x="2035.6"
   y="154.10001"
   width="109.3"
   height="481"
   id="rect6" />

		<polygon
   points="1374.5,635 1374.5,359.1 1374.5,272.6 1265.3,272.6 880.6,272.6 771.3,272.6 771.3,359.1 771.3,635 880.6,635 880.6,359.1 1265.3,359.1 1265.3,635 "
   id="polygon6" />

		<polygon
   points="3556.4,272.6 3062.4,272.6 2953.1,272.6 2953.1,359.1 2953.1,635 3062.4,635 3062.4,359.1 3556.4,359.1 "
   id="polygon7" />

		<polygon
   points="494,548.6 0.9,548.6 0.9,635 494,635 603.2,635 604.1,635 604.1,548.6 603.2,548.6 603.2,497.1 603.2,410.6 603.2,409.3 494,409.3 494,410.6 109.3,410.6 109.3,359.1 604.1,359.1 604.1,272.6 0.9,272.6 0.9,296.5 0,296.5 0,410.6 0,497.1 0,498.3 109.3,498.3 109.3,497.1 494,497.1 "
   id="polygon8" />

		<polygon
   points="1512.7,359.1 2006.7,359.1 2006.7,272.6 1512.7,272.6 1403.4,272.6 1403.4,359.1 1403.4,548.6 1403.4,635 1512.7,635 2006.7,635 2006.7,548.6 1512.7,548.6 "
   id="polygon9" />

		<path
   d="m 2777.1,272.6 h -100.4 -4.1 -498.9 v 86.5 h 498.9 v 51.5 h -498.9 v 4.6 81.9 51.5 86.4 h 109.3 389.6 4.1 100.4 4.9 4.1 V 272.6 h -4.1 z m -494,276 v -51.5 h 389.6 v 51.5 z"
   id="path9" />

	</g>

	<g
   id="g19">
		<path
   class="st0"
   d="m 1.6,1038.8 162,-193.6 H 14.3 v -55.8 h 237.6 v 52.4 L 90,1035.4 h 166.2 v 55.8 H 1.6 Z"
   id="path10"
   style="fill:#00a7e1" />

		<path
   class="st0"
   d="M 373.3,933.2 276,789.4 h 77 l 59.2,96.5 61.3,-96.5 h 72.8 l -96.9,144.3 105.3,157.8 h -79.1 l -66,-104.5 -67.3,104.5 h -74.9 z"
   id="path11"
   style="fill:#00a7e1" />

		<path
   class="st0"
   d="m 659.6,991 c 0,40.2 31.3,55.8 66.8,55.8 23.3,0 58.8,-6.8 58.8,-37.6 0,-32.6 -45.3,-38.1 -89.7,-49.9 -44.8,-11.8 -90.1,-29.2 -90.1,-85.9 0,-61.8 58.4,-91.4 112.9,-91.4 63,0 121,27.5 121,97.3 H 775 c -2.1,-36.4 -27.9,-45.7 -59.6,-45.7 -21.2,0 -45.7,8.9 -45.7,34.3 0,23.3 14.4,26.2 90.1,45.7 22,5.5 89.7,19.5 89.7,88 0,55.4 -43.6,96.9 -125.6,96.9 -66.8,0 -129.4,-33 -128.6,-107.4 z"
   id="path12"
   style="fill:#00a7e1" />

		<path
   class="st0"
   d="m 869.8,872.7 h 57.1 v 27.9 h 0.8 c 14.4,-23.3 38.1,-33.8 65.1,-33.8 68.5,0 99.4,55.4 99.4,117.6 0,58.4 -32.2,112.9 -96,112.9 -26.2,0 -51.2,-11.4 -65.6,-33 h -0.8 v 104.1 h -60 z m 162.3,109.9 c 0,-34.7 -14,-70.6 -52.5,-70.6 -39.3,0 -52,35.1 -52,70.6 0,35.5 13.5,69.4 52.5,69.4 39.4,-0.1 52,-33.9 52,-69.4 z"
   id="path13"
   style="fill:#00a7e1" />

		<path
   class="st0"
   d="m 1165,996.5 c 1.7,38.1 20.3,55.4 53.7,55.4 24.1,0 43.6,-14.8 47.4,-28.3 h 52.9 c -16.9,51.6 -52.9,73.6 -102.4,73.6 -69,0 -111.7,-47.4 -111.7,-115.1 0,-65.6 45.3,-115.5 111.7,-115.5 74.5,0 110.4,62.6 106.2,129.9 z m 97.7,-38 c -5.5,-30.5 -18.6,-46.5 -47.8,-46.5 -38.1,0 -49.1,29.6 -49.9,46.5 z"
   id="path14"
   style="fill:#00a7e1" />

		<path
   class="st0"
   d="m 1494.4,949.7 c -3.8,-24.5 -19.5,-37.6 -44.4,-37.6 -38.5,0 -51.2,38.9 -51.2,71.1 0,31.3 12.3,68.9 49.9,68.9 27.9,0 44,-17.8 47.8,-44.4 h 58 c -7.6,57.9 -47.8,89.7 -105.3,89.7 -66,0 -110.4,-46.5 -110.4,-112.1 0,-68.1 40.6,-118.4 111.7,-118.4 51.6,0 99,27.1 102.8,82.9 z"
   id="path15"
   style="fill:#00a7e1" />

		<path
   class="st0"
   d="m 1651.7,872.7 h 44 v 40.2 h -44 v 108.3 c 0,20.3 5.1,25.4 25.4,25.4 6.3,0 12.3,-0.4 18.6,-1.7 v 47 c -10.2,1.7 -23.3,2.1 -35.1,2.1 -36.8,0 -69,-8.5 -69,-52 V 913 h -36.4 v -40.2 h 36.4 v -65.6 h 60.1 z"
   id="path16"
   style="fill:#00a7e1" />

		<path
   class="st0"
   d="m 1711.8,872.7 h 57.1 v 40.6 h 0.8 c 11,-27.5 40.6,-46.5 69.8,-46.5 4.2,0 9.3,0.8 13.1,2.1 v 55.8 c -5.5,-1.3 -14.4,-2.1 -21.6,-2.1 -44,0 -59.2,31.7 -59.2,70.2 v 98.6 h -60.1 z"
   id="path17"
   style="fill:#00a7e1" />

		<path
   class="st0"
   d="m 2068.7,1091.3 h -57.1 v -30.5 h -1.3 c -15.2,24.5 -41.5,36.4 -66.8,36.4 -63.9,0 -80,-36 -80,-90.1 V 872.7 h 60.1 v 123.5 c 0,36 10.6,53.7 38.5,53.7 32.6,0 46.5,-18.2 46.5,-62.6 V 872.7 h 60.1 z"
   id="path18"
   style="fill:#00a7e1" />

		<path
   class="st0"
   d="m 2103.4,872.7 h 56.7 v 29.6 h 0.8 c 15.7,-22.4 38.5,-35.5 66.8,-35.5 27.5,0 52,10.2 63.9,36.4 12.7,-19 35.5,-36.4 66,-36.4 46.5,0 80,21.6 80,78.3 v 146.4 h -60.1 V 967.3 c 0,-29.2 -2.5,-53.3 -36.8,-53.3 -33.8,0 -40.2,27.9 -40.2,55.4 v 121.8 h -60.1 V 968.6 c 0,-25.4 1.7,-54.6 -36.4,-54.6 -11.8,0 -40.6,7.6 -40.6,50.3 v 126.9 h -60.1 V 872.7 Z"
   id="path19"
   style="fill:#00a7e1" />

	</g>

	<rect
   x="2814.8999"
   y="154.10001"
   width="109.3"
   height="86.5"
   id="rect19" />

</g>
  </g>
</svg>
